<?xml version="1.0" standalone="no"?>
<!DOCTYPE svg PUBLIC "-//W3C//DTD SVG 1.1//EN" "http://www.w3.org/Graphics/SVG/1.1/DTD/svg11.dtd" >
<svg>
<metadata>
Created by FontForge 20120731 at Mon May 18 00:10:53 2015
 By root
(c) Copyright 2001 by Tom Truong. All Rights Reserved
</metadata>
<defs>
<font id="UVNKieu" horiz-adv-x="602" >
  <font-face 
    font-family="UVN Kieu"
    font-weight="400"
    font-style="italic"
    font-stretch="normal"
    units-per-em="2048"
    panose-1="3 3 5 2 4 5 6 7 6 2"
    ascent="1638"
    descent="-410"
    x-height="440"
    cap-height="1473"
    bbox="-647 -500 2210 2128"
    underline-thickness="51"
    underline-position="-208"
    slope="-15.5"
    unicode-range="U+0020-F002"
  />
<missing-glyph horiz-adv-x="1024" 
d="M128 0v2125h768v-2125h-768zM256 128h512v1869h-512v-1869z" />
    <glyph glyph-name=".notdef" horiz-adv-x="1024" 
d="M128 0v2125h768v-2125h-768zM256 128h512v1869h-512v-1869z" />
    <glyph glyph-name=".null" horiz-adv-x="0" 
 />
    <glyph glyph-name="nonmarkingreturn" horiz-adv-x="371" 
 />
    <glyph glyph-name="space" unicode=" " horiz-adv-x="371" 
 />
    <glyph glyph-name="exclam" unicode="!" horiz-adv-x="371" 
d="M-12 328h-27q151 502 291 1046l119 51q-155 -388 -383 -1097zM-152 57q0 58 62 58q57 0 57 -60q0 -55 -55 -55q-64 0 -64 57z" />
    <glyph glyph-name="quotedbl" unicode="&#x22;" horiz-adv-x="666" 
d="M508 870h-29l-57 453q-4 32 -4 45q0 94 76 94q77 0 77 -94q0 -14 -4 -45zM186 870h-28l-60 453q-4 30 -4 45q0 94 78 94q76 0 76 -94q0 -13 -4 -44z" />
    <glyph glyph-name="numbersign" unicode="#" horiz-adv-x="1575" 
d="M700 877l-108 -304h301l106 304h-299zM809 1454h94l-174 -498h299l176 498h96l-176 -498h322l-27 -79h-323l-107 -304h348l-28 -79h-348l-175 -494h-96l174 494h-301l-174 -494h-94l174 494h-340l31 79h338l106 304h-368l28 79h369z" />
    <glyph glyph-name="dollar" unicode="$" horiz-adv-x="739" 
d="M176 483l98 342q-100 -7 -179 -58q-93 -60 -93 -153q0 -61 60 -93q26 -14 114 -38zM86 39q250 27 250 211q0 100 -152 139zM74 0l-51 -182h-35l51 182h-16q-127 0 -293 84l47 59q117 -88 274 -104l103 360q-193 43 -193 183q0 117 108 202q96 74 220 88l43 156h35
l-45 -156q117 0 215 -41l-31 -67q-97 55 -197 61l-100 -352q178 -41 178 -186q0 -122 -98 -201q-86 -69 -215 -86z" />
    <glyph glyph-name="percent" unicode="%" horiz-adv-x="1208" 
d="M817 489q-65 0 -115 -71q-102 -146 -102 -307q0 -109 80 -109q65 0 121 82q98 143 98 301q0 104 -82 104zM530 170q0 117 76 226q83 120 195 120q77 0 119 -60q38 -52 38 -132q0 -121 -72 -228q-80 -119 -196 -119q-79 0 -122 59q-38 52 -38 134zM4 465q0 -115 82 -115
q72 0 129 92q33 53 58.5 140t25.5 149q0 107 -78 107q-93 0 -160 -146q-57 -122 -57 -227zM154 -186l-54 -2l537 1032q-108 -53 -182 -53q-62 0 -140 20q43 -66 43 -147q0 -116 -75 -222q-82 -116 -193 -116q-74 0 -118 61q-40 54 -40 131q0 119 77 228q85 120 200 120
q30 0 108 -24.5t125 -24.5q117 0 242 96l39 -2z" />
    <glyph glyph-name="ampersand" unicode="&#x26;" horiz-adv-x="1485" 
d="M965 557q22 -58 22 -111q0 -126 -129 -253q-95 -93 -247 -148q-143 -51 -285 -51q-156 0 -262 64q-127 77 -127 223q0 138 122 249q53 48 124 88q5 3 12 7l16 9q104 59 104 81q0 21 -68 44q-31 11 -48 17q-101 39 -101 127q0 129 166 266q189 156 387 156q142 0 142 -113
q0 -115 -177 -270l-55 45q193 146 193 234q0 77 -99 77q-109 0 -268 -98q-81 -50 -142 -125q-73 -90 -73 -170q0 -82 129 -138q5 -2 12 -5q78 -34 78 -70t-99 -99q-16 -10 -40 -26q-111 -73 -157 -121q-79 -82 -79 -174q0 -119 111 -182q91 -51 219 -51q258 0 426 129
q162 125 162 272q0 129 -133 129q-75 0 -139 -41q-74 -47 -74 -118q0 -66 76 -125l-58 -31q-53 53 -53 129q0 129 105 195q88 55 225 55q35 0 104.5 -5t104.5 -5q90 0 151 38q72 45 72 130q0 137 -185 137h-14l33 61q194 -29 194 -194q0 -118 -90 -184q-80 -60 -202 -60
q-40 0 -86 6z" />
    <glyph glyph-name="quotesingle" unicode="'" horiz-adv-x="342" 
d="M184 870h-28l-60 454q-2 15 -2 44q0 94 76 94q78 0 78 -94q0 -14 -4 -44z" />
    <glyph glyph-name="parenleft" unicode="(" horiz-adv-x="797" 
d="M662 1473h22q-526 -828 -526 -1682q0 -113 8 -227h-19q-36 202 -36 444q0 470 223 916q99 197 328 549z" />
    <glyph glyph-name="parenright" unicode=")" horiz-adv-x="797" 
d="M-164 -436h-22q524 825 524 1681q0 112 -8 228h18q39 -211 39 -445q0 -464 -225 -917q-100 -201 -326 -547z" />
    <glyph glyph-name="asterisk" unicode="*" horiz-adv-x="592" 
d="M190 1065l-45 59l142 129l-176 56l47 51l145 -82l10 168l78 16l-59 -188l172 51l33 -70l-203 -8l108 -155l-55 -43l-82 182z" />
    <glyph glyph-name="plus" unicode="+" horiz-adv-x="1706" 
d="M813 1221h80v-570h559v-82h-559v-569h-80v569h-559v82h559v570z" />
    <glyph glyph-name="comma" unicode="," horiz-adv-x="371" 
d="M-229 -246l-27 6q161 165 180 238q-12 -4 -35 -4q-55 0 -55 47q0 65 68 65q57 0 57 -71q0 -103 -188 -281z" />
    <glyph glyph-name="hyphen" unicode="-" horiz-adv-x="371" 
d="M-182 199l18 57h211l-16 -57h-213z" />
    <glyph glyph-name="hyphen" unicode="&#x2010;" horiz-adv-x="371" 
d="M-182 199l18 57h211l-16 -57h-213z" />
    <glyph glyph-name="period" unicode="." horiz-adv-x="371" 
d="M-166 57q0 24 18 41t42 17q57 0 57 -60q0 -55 -55 -55q-62 0 -62 57z" />
    <glyph glyph-name="slash" unicode="/" horiz-adv-x="379" 
d="M-408 -469h-45l859 1939h45z" />
    <glyph glyph-name="zero" unicode="0" horiz-adv-x="739" 
d="M262 858q-109 0 -205 -139q-153 -220 -153 -502q0 -82 40 -138q45 -63 124 -63q122 0 233 183q121 199 121 411q0 248 -160 248zM-168 322q0 211 150 403q124 158 268 158q123 0 188 -106q54 -88 54 -220q0 -211 -142 -401q-121 -162 -272 -162q-127 0 -192 105
q-54 87 -54 223z" />
    <glyph glyph-name="one" unicode="1" horiz-adv-x="739" 
d="M90 0h-82l207 717l-115 -160l-22 18q72 91 114 147q77 105 97 154l41 3q-59 -257 -240 -879z" />
    <glyph glyph-name="two" unicode="2" horiz-adv-x="739" 
d="M-172 0v18q227 164 343 282q202 207 202 378q0 77 -38 124q-41 52 -116 52q-187 0 -262 -260l-59 20q96 269 327 269q103 0 169.5 -63.5t66.5 -166.5q0 -140 -195 -327q-74 -73 -305 -250h387l-24 -76h-496z" />
    <glyph glyph-name="three" unicode="3" horiz-adv-x="739" 
d="M-225 43l14 76q149 -94 260 -94t192 67q85 71 85 180q0 152 -164 152q-28 0 -72 -10l-2 18q299 130 299 299q0 119 -131 119q-79 0 -159 -62q-68 -53 -113 -131l-43 35q154 187 333 187q187 0 187 -150q0 -148 -273 -272l2 -10q224 -8 224 -173q0 -131 -139 -212
q-117 -68 -257 -68q-114 0 -243 49z" />
    <glyph glyph-name="four" unicode="4" horiz-adv-x="739" 
d="M188 -35l-79 -26l63 223h-375l473 712l62 3l-465 -660h323l158 541l80 20l-158 -561h129l-16 -55h-133z" />
    <glyph glyph-name="five" unicode="5" horiz-adv-x="739" 
d="M-260 27l18 59q124 -66 219 -66q131 0 235.5 102.5t104.5 233.5q0 140 -139 140q-92 0 -219 -93l143 465h330l-22 -67h-301l-99 -322q127 43 187 43q89 0 143.5 -52.5t54.5 -141.5q0 -151 -137 -249q-123 -87 -281 -87q-111 0 -237 35z" />
    <glyph glyph-name="six" unicode="6" horiz-adv-x="739" 
d="M319 938l15 -18q-406 -408 -406 -719q0 -176 131 -176q77 0 164 90q127 131 127 291q0 42 -32 76t-74 34q-101 0 -205 -172l-23 12q124 205 254 205q74 0 118 -56q40 -52 40 -128q0 -152 -137 -283q-100 -96 -213 -96q-100 0 -165 76q-63 73 -63 174q0 273 469 690z" />
    <glyph glyph-name="seven" unicode="7" horiz-adv-x="739" 
d="M40 414l18 57h185l180 326h-289q-82 0 -161 -14l46 85h472l-203 -397h74l-16 -57h-87l-209 -410l-67 -4l228 414h-171z" />
    <glyph glyph-name="eight" unicode="8" horiz-adv-x="739" 
d="M207 481q221 36 221 217q0 69 -57 117q-55 45 -125 45q-79 0 -135 -46q-60 -48 -60 -126q0 -115 156 -207zM106 449q-93 -22 -149 -83q-59 -65 -59 -157q0 -82 55.5 -137.5t138.5 -55.5q86 0 153 55q72 58 72 142q0 134 -211 236zM86 467q-102 90 -102 192q0 96 85 164
q79 64 177 64q88 0 157 -53q74 -58 74 -144q0 -176 -231 -223q147 -98 147 -217q0 -113 -96 -189q-89 -71 -205 -71q-103 0 -175 62q-75 65 -75 167q0 173 244 248z" />
    <glyph glyph-name="nine" unicode="9" horiz-adv-x="739" 
d="M8 -57l-14 16q407 407 407 719q0 176 -135 176q-83 0 -168 -94q-121 -134 -121 -279q0 -47 29 -80q30 -36 76 -36q106 0 209 170l20 -13q-125 -205 -254 -205q-74 0 -118 57q-39 51 -39 128q0 154 137 284q102 97 217 97q103 0 165 -76q58 -70 58 -176q0 -276 -469 -688z
" />
    <glyph glyph-name="colon" unicode=":" horiz-adv-x="410" 
d="M-45 375q0 23 19 40t42 17q58 0 58 -59q0 -56 -56 -56q-63 0 -63 58zM-137 57q0 23 19 40.5t42 17.5q58 0 58 -60q0 -55 -56 -55q-63 0 -63 57z" />
    <glyph glyph-name="semicolon" unicode=";" horiz-adv-x="410" 
d="M-205 -246l-24 6q158 164 177 238q-20 -4 -34 -4q-51 0 -51 45q0 67 65 67q56 0 56 -69q0 -106 -189 -283zM-45 375q0 23 19 40t42 17q58 0 58 -59q0 -56 -56 -56q-63 0 -63 58z" />
    <glyph glyph-name="less" unicode="&#x3c;" horiz-adv-x="1706" 
d="M1442 1124v-90l-1045 -424l1045 -424v-88l-1178 482v61z" />
    <glyph glyph-name="equal" unicode="=" horiz-adv-x="1706" 
d="M254 469h1198v-82h-1198v82zM254 831h1198v-79h-1198v79z" />
    <glyph glyph-name="greater" unicode="&#x3e;" horiz-adv-x="1706" 
d="M264 1124l1178 -483v-61l-1178 -482v88l1045 424l-1045 424v90z" />
    <glyph glyph-name="question" unicode="?" horiz-adv-x="494" 
d="M47 471h-20q58 257 225 457q28 33 90 101q156 170 156 261q0 103 -105 103q-151 0 -299 -303l-47 61q144 270 330 270q72 0 119 -43t47 -114q0 -149 -267 -423q-3 -3 -40 -42q-124 -130 -189 -328zM-74 0q-61 0 -61 55q0 58 61 58q54 0 54 -60q0 -53 -54 -53z" />
    <glyph glyph-name="at" unicode="@" horiz-adv-x="2019" 
d="M1194 344q-119 -217 -317 -217q-127 0 -199 106q-62 93 -62 226q0 224 185 407q140 138 293 138q171 0 219 -201l57 184h121l-170 -610q-18 -54 -18 -103q0 -110 104 -110q106 0 221 108q205 193 205 496q0 304 -207 479q-194 164 -504 164q-356 0 -598 -225
q-276 -257 -276 -682q0 -331 233 -533q241 -209 588 -209q348 0 623 209l26 -30q-295 -220 -649 -220q-374 0 -614 185q-152 117 -228.5 276t-76.5 355q0 413 335 692q266 221 629 221q332 0 538 -174q220 -185 220 -510q0 -329 -221 -530q-122 -111 -252 -111
q-193 0 -205 219zM1090 971q-109 0 -199 -133q-160 -236 -160 -457q0 -89 36 -147q44 -68 128 -68q136 0 254 180q127 194 127 397q0 88 -48 154q-53 74 -138 74z" />
    <glyph glyph-name="A" unicode="A" horiz-adv-x="1341" 
d="M911 403h-49q-167 0 -274 21q113 -137 215 -358zM537 471q127 -37 307 -37q12 0 53 3q14 1 23 1l227 674q63 187 63 236q0 28 -12 28q-30 0 -319 -411zM-647 47l76 51q204 -84 344 -84q241 0 478 207q161 140 347 408l135 194q449 645 506 645q55 0 55 -94
q0 -153 -168 -639l-102 -295h20q19 0 62 4h6l-2 -32q-36 -6 -74 -6h-26l-136 -406l-79 -4q-146 336 -281 448q-350 -467 -793 -467q-162 0 -368 70z" />
    <glyph glyph-name="B" unicode="B" horiz-adv-x="1118" 
d="M279 938q-152 -177 -266 -376q-148 -259 -148 -427q0 -39 16 -39q111 0 398 842zM412 1386l110 70l-88 -301q351 313 496 313q75 0 120.5 -48.5t45.5 -123.5q0 -111 -86 -239q-73 -109 -176 -189q-33 -26 -117 -59q-89 -35 -119 -56q-55 -37 -55 -89q0 -11 54 -37
q17 -8 34 -17q192 -98 192 -239q0 -105 -82 -195q-70 -75 -178 -123q-129 -57 -454 -57q-46 0 -82 2q61 92 108 92q43 0 129.5 -6t130.5 -6q144 0 236 45q121 60 121 190q0 91 -138 183l-6 4q-18 12 -57 34q-88 50 -88 89q0 32 114 107q69 45 113 77q116 84 204 204
q105 144 105 263q0 129 -122 129q-117 0 -465 -309q-87 -304 -216 -614q-206 -492 -343 -492q-37 0 -37 80q0 207 172 506q128 223 315 442z" />
    <glyph glyph-name="C" unicode="C" horiz-adv-x="1081" 
d="M801 186l2 -32q-242 -162 -502 -162q-177 0 -279 107t-102 284q0 194 101 399q91 184 241 338q177 181 406 281q159 69 266 69q172 0 172 -135q0 -197 -475 -381l16 99q420 168 420 295q0 98 -127 98q-138 0 -325 -123q-142 -93 -273 -227q-138 -141 -228 -320
q-100 -201 -100 -377q0 -167 92.5 -263.5t258.5 -96.5q243 0 436 147z" />
    <glyph glyph-name="D" unicode="D" horiz-adv-x="1712" 
d="M1063 1161q-103 -344 -191 -544q-143 -324 -315 -476q229 -75 414 -75q465 0 465 409q0 184 -115 379q-99 167 -258 307zM428 100q-154 54 -276 54q-191 0 -191 -78q0 -76 176 -76q155 0 291 100zM492 78q-168 -111 -342 -111q-84 0 -149 20q-97 29 -97 95q0 72 108 107
q75 24 166 24q130 0 324 -53q242 230 504 1057q-313 231 -603 231q-204 0 -204 -139q0 -137 243 -338l-75 -37q-222 202 -222 356q0 189 271 189q318 0 614 -193l45 135l88 31l-71 -213q403 -337 403 -698q0 -253 -153.5 -402t-407.5 -149q-201 0 -442 88z" />
    <glyph glyph-name="E" unicode="E" horiz-adv-x="1042" 
d="M762 211l-23 -107q-322 -110 -557 -110q-154 0 -253 62q-117 74 -117 220q0 286 550 601q-90 144 -90 192q0 132 228 272q206 127 422 127q170 0 170 -120q0 -71 -150 -306l-49 70q119 172 119 240q0 82 -111 82q-114 0 -248 -68q-309 -157 -309 -324q0 -50 33 -121
t33 -73q0 -49 -129 -131q-93 -59 -144 -99q-272 -212 -272 -385q0 -102 85 -154q70 -42 179 -42q299 0 633 174z" />
    <glyph glyph-name="F" unicode="F" horiz-adv-x="1118" 
d="M471 1071l-51 -65q-365 66 -365 235q0 140 303 199q179 35 404 35q262 0 514 -39l-64 -72q-291 39 -591 39q-535 0 -535 -158q0 -85 160 -132q66 -20 225 -42zM-313 82l55 51q155 -119 354 -119q381 0 576 447h-215l16 47h219q119 322 269 782l106 43q-90 -277 -281 -825
h181l-15 -47h-180q-188 -477 -682 -477q-219 0 -403 98z" />
    <glyph glyph-name="G" unicode="G" horiz-adv-x="1118" 
d="M-70 -456l-18 79q177 -61 281 -61q185 0 295 169q72 111 128 337q-170 -76 -309 -76q-185 0 -294 109t-109 294q0 327 301 660q153 170 345 282q224 131 421 131q178 0 178 -149q0 -176 -363 -414l-69 49q383 246 383 387q0 48 -53 75q-42 22 -95 22q-115 0 -277 -88
q-131 -72 -241 -170q-185 -164 -301 -362q-135 -231 -135 -445q0 -152 89 -249q93 -101 243 -101q147 0 311 122q14 99 55 187q57 123 133 123q25 0 25 -25q0 -8 -19 -37q-23 -33 -26 -39q-36 -75 -78 -207q-65 -203 -69 -213q-72 -204 -188 -300q-127 -105 -333 -105
q-98 0 -211 15z" />
    <glyph glyph-name="H" unicode="H" horiz-adv-x="1475" 
d="M1063 397h-33q-227 0 -409 43q254 -160 342 -352zM-502 109l62 57q189 -135 395 -135q403 0 563 518l262 850l111 37l-262 -829q-11 -34 -36 -99q-3 -9 -9 -24q186 -52 415 -52q13 0 39 1t39 1l312 1008l114 39l-345 -1047q87 4 148 12l-6 -36q-54 -5 -92 -8l-61 -5
l-125 -397h-57q-110 265 -402 434q-106 -215 -244 -321q-157 -119 -380 -119q-253 0 -441 115z" />
    <glyph glyph-name="I" unicode="I" horiz-adv-x="973" 
d="M588 524q235 595 235 822q0 94 -47 94q-44 0 -102 -84q-193 -281 -193 -555q0 -193 107 -277zM-313 78l39 61q218 -108 352 -108q183 0 314 145q91 101 181 311q-170 119 -170 355q0 212 156 438q133 193 227 193q91 0 91 -164q0 -326 -213 -832q56 -23 149 -39l-6 -28
q-61 7 -156 34q-192 -446 -579 -446q-175 0 -385 80z" />
    <glyph glyph-name="J" unicode="J" horiz-adv-x="872" 
d="M438 383q-374 -65 -596 -260q-237 -208 -237 -422q0 -61 26 -107q32 -57 88 -57q96 0 275 174q255 248 444 672zM461 651l-60 -73q-47 151 -47 256q0 262 138 475q104 161 198 161q98 0 98 -176q0 -351 -225 -848l109 -2l-27 -51h-108q-159 -344 -342 -559
q-99 -117 -214 -208q-157 -126 -260 -126q-69 0 -110 60q-37 53 -37 125q0 248 254 477t629 276q270 612 270 905q0 89 -55 89q-58 0 -131 -121q-115 -190 -115 -441q0 -108 35 -219z" />
    <glyph glyph-name="K" unicode="K" horiz-adv-x="1380" 
d="M1073 61l-67 -53q-416 488 -416 527q0 20 371 441l436 490l108 7l-831 -877q-17 -18 -17 -27q0 -39 416 -508zM-502 61l60 54q146 -72 282 -72q208 0 353 128q119 105 217 318q165 359 309 920l104 66q-97 -369 -139 -506q-89 -286 -192 -488q-246 -481 -689 -481
q-122 0 -305 61z" />
    <glyph glyph-name="L" unicode="L" horiz-adv-x="1161" 
d="M342 160q-216 90 -389 90q-219 0 -219 -123q0 -67 83 -100q60 -23 140 -23q215 0 385 156zM383 147q-191 -174 -436 -174q-87 0 -157 35q-87 44 -87 123q0 92 107 135q77 31 184 31q173 0 401 -80q66 112 151 395q85 287 145.5 427.5t155.5 263.5q128 167 236 167
q61 0 94 -56q27 -46 27 -111q0 -104 -98 -373l-92 -27q135 351 135 440q0 93 -68 93q-157 0 -315 -443q-26 -74 -64 -195q-131 -421 -276 -597q302 -123 459 -131l-72 -74q-187 35 -430 151z" />
    <glyph glyph-name="M" unicode="M" horiz-adv-x="1569" 
d="M68 0h-86q385 1111 385 1327q0 100 -50 100q-82 0 -179 -227q-57 -134 -101 -295l-64 70q50 160 127 291q114 194 226 194q90 0 90 -176q0 -198 -112 -566q-37 -123 -187 -548q236 493 334 669q303 545 454 545q86 0 86 -110q0 -64 -39 -188q-21 -68 -131 -347l-11 -28
q-214 -545 -214 -566q0 -20 16 -20q22 0 121 213q104 224 195 401q124 241 188 341q162 255 268 255q101 0 101 -133q0 -107 -127 -462q-39 -108 -101 -287q-67 -202 -122 -387q-47 -159 -60 -234l-63 72q60 296 241 788l107 291q67 182 67 254q0 61 -59 61
q-133 0 -498 -747q-40 -81 -108 -228q-149 -321 -205 -321q-37 0 -37 78q0 127 139 475l84 210q189 470 189 525q0 56 -49 56q-174 0 -815 -1346z" />
    <glyph glyph-name="N" unicode="N" horiz-adv-x="1200" 
d="M94 0h-80q385 1264 385 1380q0 50 -24 50q-59 0 -192 -266q-84 -167 -146 -324l-60 61q268 565 396 565q82 0 82 -108q0 -221 -318 -1208q622 1245 883 1245q108 0 108 -129q0 -126 -159 -609l-61 -185q-156 -475 -199 -675l-76 62q31 171 193 632l83 238
q162 478 162 565q0 28 -23 47t-51 19q-227 0 -903 -1360z" />
    <glyph glyph-name="O" unicode="O" horiz-adv-x="1341" 
d="M1124 989q0 190 -86 309q-98 136 -280 136q-214 0 -398 -181q-153 -151 -243 -363.5t-90 -426.5q0 -184 98 -309q107 -136 287 -136q149 0 297 113q121 92 219 238q196 293 196 620zM-59 539q0 328 213 606q245 319 591 319q229 0 361 -160q123 -148 123 -382
q0 -347 -250.5 -639.5t-560.5 -292.5q-234 0 -361 161q-116 148 -116 388z" />
    <glyph glyph-name="P" unicode="P" horiz-adv-x="1010" 
d="M-150 -203l-71 66q169 487 243 754q120 429 150 776l90 40q-2 -115 -45 -331l-72 -326q317 694 641 694q112 0 174 -83q54 -74 54 -191q0 -303 -295 -586q-250 -240 -604 -299l26 80h11q276 0 466 182q150 144 232 345q74 181 74 305q0 88 -38 144q-44 65 -128 65
q-156 0 -345 -252q-132 -174 -229 -387q-85 -185 -178 -493q-133 -437 -156 -503z" />
    <glyph glyph-name="Q" unicode="Q" horiz-adv-x="1270" 
d="M514 43q-135 209 -235 209q-48 0 -77.5 -31.5t-29.5 -79.5q0 -65 74 -98q56 -25 129 -25q54 0 139 25zM580 72q196 105 321 301q186 291 186 631q0 181 -83 301q-96 137 -269 137q-264 0 -491 -285q-117 -147 -185.5 -338t-68.5 -377q0 -298 188 -391q-43 57 -43 111
q0 66 47 110.5t113 44.5q130 0 285 -245zM838 -156l-37 -55q-168 62 -264 225q-94 -26 -166 -26q-222 0 -351 133t-129 356q0 203 96 411q90 195 242 347q241 242 504 242q203 0 329 -152q118 -142 118 -350q0 -303 -154 -552q-156 -253 -428 -380q93 -144 240 -199z" />
    <glyph glyph-name="R" unicode="R" horiz-adv-x="1085" 
d="M-156 -10l-61 35q333 869 446 1382l105 51q-82 -328 -318 -1032q526 1040 906 1040q88 0 141 -77q47 -68 47 -160q0 -223 -240 -432q-119 -104 -305 -178q-111 -45 -338 -109q72 -138 459 -459l-61 -51q-133 100 -267 230q-198 190 -198 270q0 28 134 75q87 29 173 58
q306 139 463 366q110 159 110 295q0 62 -38.5 101t-100.5 39q-262 0 -633 -610q-210 -346 -424 -834z" />
    <glyph glyph-name="S" unicode="S" horiz-adv-x="1157" 
d="M-326 94l66 74q237 -133 571 -133q174 0 303 65q164 82 164 240q0 101 -105 206q-40 41 -186 152q-127 96 -175 149q-91 100 -91 202q0 145 158 256q242 170 543 170q97 0 166 -31q92 -42 92 -127q0 -148 -283 -322l-94 49q149 93 186 121q125 97 125 172q0 57 -70 85
q-51 20 -118 20q-157 0 -338 -78q-102 -44 -186 -117q-107 -94 -107 -182q0 -57 63 -141q36 -47 145 -127q156 -115 163 -121q184 -153 184 -316q0 -197 -214 -293q-159 -71 -384 -71q-237 0 -578 98z" />
    <glyph glyph-name="T" unicode="T" horiz-adv-x="1120" 
d="M-170 82l61 57q164 -110 326 -110q342 0 566 537q100 241 229 818q-147 7 -334 7q-234 0 -332 -11q-266 -30 -266 -131q0 -107 389 -153l-66 -68q-350 70 -350 217q0 158 416 206q163 19 520 19h131q-129 -664 -301 -1028q-212 -448 -653 -448q-142 0 -336 88z" />
    <glyph glyph-name="U" unicode="U" horiz-adv-x="1233" 
d="M63 999l-59 54q216 420 365 420q73 0 73 -107q0 -88 -123 -482l-10 -32q-176 -563 -176 -666q0 -137 123 -137q234 0 521 587q161 330 310 783l97 19q-262 -782 -377 -1440l-82 49q79 421 215 881q-391 -934 -711 -934q-178 0 -178 207q0 129 150 600q42 131 97 296
q83 248 83 279q0 54 -35 54q-74 0 -283 -431z" />
    <glyph glyph-name="V" unicode="V" horiz-adv-x="1124" 
d="M66 1026l-50 76q186 375 283 375q104 0 104 -256q0 -174 -54 -518t-54 -517q0 -153 80 -153q94 0 224 151q90 104 161 232q256 457 379 1034l100 31q-164 -642 -434 -1080q-88 -143 -190 -250q-147 -155 -259 -155q-137 0 -137 270q0 142 42 439l15 102q70 455 70 551
q0 86 -47 86q-55 0 -141 -188q-19 -40 -92 -230z" />
    <glyph glyph-name="W" unicode="W" horiz-adv-x="1753" 
d="M70 1030l-60 57q222 377 338 377q92 0 92 -198q0 -52 -67 -571l-4 -31q-3 -21 -42 -261q-38 -232 -38 -280q0 -55 26 -55q48 0 211 265q122 199 181 320q151 307 325 815h70q-180 -877 -180 -1230q0 -191 86 -191q90 0 238 186q97 121 179 265q224 390 332 940l96 37
q-142 -577 -376 -973q-97 -165 -212 -302q-173 -206 -284 -206q-137 0 -137 282q0 284 117 895q-109 -294 -290 -650q-266 -523 -399 -523q-59 0 -59 115q0 124 27 300q26 149 51 298q27 163 55 325q29 192 29 328q0 72 -35 72q-74 0 -270 -406z" />
    <glyph glyph-name="X" unicode="X" horiz-adv-x="1124" 
d="M461 723q-9 -11 -297 -355q-181 -217 -277 -368l-96 20q326 348 340 363q193 211 322 379l-35 151q-59 256 -185 543l82 17q124 -255 205 -642l28 31q407 450 523 600l105 -14q-191 -185 -404 -404l-242 -247l91 -369q45 -184 141 -403l-88 -25q-89 198 -139 410z" />
    <glyph glyph-name="Y" unicode="Y" horiz-adv-x="1190" 
d="M-119 -457l39 76q161 -51 260 -51q177 0 293 143q62 77 164 303q168 373 369 1090q-579 -1104 -879 -1104q-121 0 -121 154q0 128 150 563q34 98 78 224q137 390 137 454q0 32 -21 32q-78 0 -303 -426l-51 72q233 389 362 389q31 0 51 -31q19 -27 19 -59
q0 -133 -227 -804l-23 -68q-100 -296 -100 -398q0 -67 61 -67q196 0 557 590q224 366 408 764l86 8q-148 -520 -202 -688q-131 -417 -253 -668q-129 -266 -250 -375q-160 -145 -413 -145q-81 0 -191 22z" />
    <glyph glyph-name="Z" unicode="Z" horiz-adv-x="1200" 
d="M483 1069l-45 -61q-366 77 -366 227q0 142 264 202q159 36 369 36q146 0 315 -20q264 -30 264 -91q0 -64 -300 -308q-64 -52 -351 -270q-795 -604 -795 -680q0 -20 41 -20q7 0 47 3q198 15 396 15q335 0 579 -28l-51 -76q-144 18 -610 18q-193 0 -405 -17q-62 -5 -75 -5
q-41 0 -41 39q0 104 768 686q709 537 709 594q0 50 -248 74q-152 14 -297 14q-177 0 -311 -22q-240 -40 -240 -140q0 -79 162 -127q39 -11 221 -43z" />
    <glyph glyph-name="bracketleft" unicode="[" horiz-adv-x="797" 
d="M109 -446h-199l532 1914h193v-22h-127l-516 -1868h117v-24z" />
    <glyph glyph-name="backslash" unicode="\" horiz-adv-x="379" 
d="M-18 1470l133 -1939h-45l-136 1939h48z" />
    <glyph glyph-name="bracketright" unicode="]" horiz-adv-x="797" 
d="M344 1468h199l-533 -1914h-192v24h125l518 1868h-117v22z" />
    <glyph glyph-name="asciicircum" unicode="^" horiz-adv-x="2048" 
d="M946 1462h152l534 -565h-84l-526 465l-530 -465h-80z" />
    <glyph glyph-name="underscore" unicode="_" horiz-adv-x="1024" 
d="M0 -403h1024v-80h-1024v80z" />
    <glyph glyph-name="grave" unicode="`" horiz-adv-x="1024" 
d="M412 547q-34 0 -111 74q-86 83 -86 133q0 39 37 39q30 0 43 -58q9 -39 16 -55q9 -21 62 -62q45 -34 45 -65q-2 -6 -6 -6z" />
    <glyph glyph-name="a" unicode="a" 
d="M340 158l4 -27q-116 -133 -192 -133q-60 0 -60 63q0 59 49 191q-171 -254 -272 -254q-96 0 -96 106q0 92 112 222q110 127 224 127q20 0 68 -8q3 0 5 -1l-20 -41q-47 21 -76 21q-65 0 -117 -59q-116 -132 -116 -246q0 -62 53 -62q121 0 311 383l66 4l-107 -313
q-8 -23 -8 -41q0 -35 27 -35q48 0 145 103z" />
    <glyph glyph-name="b" unicode="b" horiz-adv-x="530" 
d="M115 412q-63 0 -146 -101q-112 -137 -112 -241q0 -47 49 -47q65 0 151 92q111 118 111 229q0 68 -53 68zM137 1262l96 20l-315 -997q123 166 221 166q105 0 105 -121q0 -130 -127 -236q-118 -98 -240 -98q-80 0 -80 74q0 27 72 274z" />
    <glyph glyph-name="c" unicode="c" horiz-adv-x="446" 
d="M125 154v-27q-151 -133 -246 -133q-53 0 -85 34t-32 87q0 101 107 221q98 110 229 110q78 0 78 -34q0 -19 -18 -41q-84 43 -121 43q-50 0 -96 -56q-93 -114 -93 -231q0 -84 82 -84q75 0 195 111z" />
    <glyph glyph-name="d" unicode="d" 
d="M104 426q-94 0 -174 -105q-75 -99 -75 -196q0 -88 65 -88q62 0 143 113q101 142 101 212q0 64 -60 64zM340 160l2 -35q-112 -127 -176 -127q-60 0 -60 74q0 45 27 143q-125 -219 -246 -219q-116 0 -116 121q0 95 102 211q107 121 236 121q30 0 81 -17l242 832l109 47
l-301 -957q-64 -203 -64 -252t29 -49q41 0 135 107z" />
    <glyph glyph-name="e" unicode="e" horiz-adv-x="446" 
d="M-141 127q86 38 152 95q87 76 87 149q0 51 -41 51q-67 0 -130 -119q-45 -83 -68 -176zM133 162l4 -27q-145 -145 -248 -145q-112 0 -112 112q0 104 98 220q109 129 201 129q74 0 74 -82q0 -85 -108 -168q-78 -61 -183 -101v-8q0 -63 65 -63q74 0 209 133z" />
    <glyph glyph-name="f" unicode="f" horiz-adv-x="375" 
d="M-186 238q73 63 83 95q5 15 10 34q94 342 133 462q88 267 186 440q88 156 145 156t57 -88q0 -169 -123 -456q-130 -303 -317 -494l-35 -119q66 6 190 88l7 -24q-55 -51 -207 -101q-129 -444 -211 -665l-109 -35q100 233 242 696zM4 449q111 121 215 337q59 123 110 269
q66 187 66 278q0 53 -24 53q-91 0 -367 -937z" />
    <glyph glyph-name="g" unicode="g" 
d="M70 -39q-83 -67 -165 -162q-110 -127 -110 -194q0 -51 45 -51q100 0 230 407zM131 211q-153 -211 -256 -211q-96 0 -96 113q0 117 129 235q113 103 250 103q35 0 104 -13l-16 -43q-63 25 -103 25q-102 0 -180 -84q-102 -109 -102 -221q0 -64 49 -64q112 0 280 309l54 -18
l-76 -281q66 46 113 99l16 -23q-76 -67 -141 -114q-127 -496 -326 -496q-68 0 -68 78q0 148 318 393z" />
    <glyph glyph-name="h" unicode="h" horiz-adv-x="592" 
d="M-176 0h-66l363 1249l94 25l-350 -1161q207 338 301 338q70 0 70 -78q0 -58 -45.5 -161.5t-45.5 -133.5q0 -33 29 -33q40 0 135 117l17 -19q-127 -149 -191 -149q-67 0 -67 69q0 23 28 90q10 23 25 60q51 132 51 168q0 37 -33 37q-46 0 -172 -187q-79 -116 -143 -231z
" />
    <glyph glyph-name="i" unicode="i" horiz-adv-x="342" 
d="M-102 430l94 19q-105 -304 -105 -365q0 -25 29 -25q26 0 127 111l14 -20q-137 -158 -202 -158q-50 0 -50 69q0 32 40 176q52 190 53 193zM-25 662q0 51 50 51q45 0 45 -47q0 -52 -52 -52q-43 0 -43 48z" />
    <glyph glyph-name="j" unicode="j" horiz-adv-x="295" 
d="M-143 52q15 13 28 26q59 57 86 80l13 -23q-89 -72 -144 -137q-157 -467 -198 -467q-29 0 -29 45q0 131 127 334l162 508l84 31zM-33 662q0 51 51 51q45 0 45 -47q0 -52 -51 -52q-45 0 -45 48z" />
    <glyph glyph-name="k" unicode="k" horiz-adv-x="559" 
d="M-170 4l-68 -4l369 1249l102 45l-354 -1153q192 303 318 303q82 0 82 -86q0 -94 -103 -155q-15 -9 -41 -21q-49 -23 -49 -45q0 -9 47 -47q28 -23 66 -55l-56 -51q-12 10 -43 37q-94 82 -94 102q0 12 56 53q14 10 19 14q128 98 128 162q0 45 -53 45q-120 0 -326 -393z" />
    <glyph glyph-name="l" unicode="l" horiz-adv-x="379" 
d="M-188 283l96 116q78 304 175 568q170 463 290 463q43 0 43 -97q0 -300 -412 -858q-94 -349 -94 -401q0 -25 35 -25q40 0 143 113l10 -29q-129 -141 -198 -141q-64 0 -64 65q0 74 60 281l-76 -84zM23 543q364 540 364 790q0 49 -16 49q-74 0 -208 -383q-75 -215 -140 -456
z" />
    <glyph glyph-name="m" unicode="m" horiz-adv-x="858" 
d="M-160 0h-73l102 414l84 24l-88 -336q94 159 122 199q103 148 167 148q67 0 67 -82q0 -73 -57 -232q179 314 262 314q70 0 70 -99q0 -54 -34 -150t-34 -126q0 -27 27 -27q34 0 135 109l16 -21q-137 -149 -211 -149q-51 0 -51 53q0 26 26 99q3 8 7 20q59 184 59 219
q0 26 -28 26q-83 0 -289 -403h-88q129 331 129 371q0 32 -31 32q-48 0 -161 -179q-69 -110 -128 -224z" />
    <glyph glyph-name="n" unicode="n" horiz-adv-x="592" 
d="M-176 -4h-68q80 244 117 416l94 41q-6 -37 -54 -188q-30 -94 -50 -163q209 347 303 347q67 0 67 -80q0 -51 -44 -156.5t-44 -142.5q0 -29 29 -29q40 0 135 117l15 -21q-126 -147 -189 -147q-67 0 -67 67q0 25 31 102l20 50q53 136 53 168q0 37 -35 37q-76 0 -313 -418z
" />
    <glyph glyph-name="o" unicode="o" horiz-adv-x="483" 
d="M-221 143q0 115 78 209q83 99 196 99q144 0 144 -160q0 -122 -80 -212q-82 -93 -203 -93q-64 0 -101 48q-34 43 -34 109zM53 426q-62 0 -127 -96q-78 -114 -78 -236q0 -84 76 -84q86 0 149 131q54 111 54 207q0 78 -74 78z" />
    <glyph glyph-name="p" unicode="p" 
d="M-281 -451l-92 -16l269 907l88 21l-131 -430q70 177 118 257q100 171 203 171q59 0 93 -47q30 -42 30 -103q0 -115 -78 -210q-83 -99 -196 -99q-49 0 -99 31l15 26q34 -28 71 -28q75 0 127 80q86 132 86 239q0 82 -59 82q-123 0 -281 -389q-85 -210 -164 -492z" />
    <glyph glyph-name="q" unicode="q" 
d="M135 33q-135 -367 -135 -418q0 -45 20 -45q62 0 103 142q31 109 31 192q0 49 -19 129zM133 37q125 47 180 125l21 -21q-78 -84 -148 -116q0 -17 3.5 -51.5t3.5 -51.5q0 -117 -50 -240q-63 -155 -163 -155q-60 0 -60 59q0 128 211 625q-153 -211 -256 -211q-96 0 -96 113
q0 117 129 235q113 103 250 103q35 0 104 -13l-16 -43q-63 25 -103 25q-100 0 -182 -86q-39 -40 -69 -103q-33 -68 -33 -118q0 -23 17 -42.5t40 -19.5q106 0 274 309l54 -18z" />
    <glyph glyph-name="r" unicode="r" horiz-adv-x="418" 
d="M-154 0h-61l86 414l78 24l-60 -305q147 305 222 305q45 0 45 -67q0 -16 -10 -80l-1 -4l-71 -51q12 92 12 110q0 29 -14 29q-44 0 -226 -375z" />
    <glyph glyph-name="s" unicode="s" horiz-adv-x="403" 
d="M-186 207l-15 14l176 190q17 111 82 111q35 0 35 -33q0 -18 -37 -52t-37 -38l35 -74q35 -74 35 -139q0 -84 -65 -139q-61 -53 -146 -53q-38 0 -77 14q-50 19 -50 51q0 33 33 33q21 0 66.5 -31.5t68.5 -31.5q48 0 76 44q24 38 24 89q0 49 -30 160q-9 32 -14 56z" />
    <glyph glyph-name="t" unicode="t" horiz-adv-x="336" 
d="M59 154l17 -21q-147 -137 -217 -137q-74 0 -74 74q0 33 43 172l82 266h-60l15 37h53l94 311l90 25l-100 -336h143l-12 -37h-147l-90 -311q-27 -93 -27 -123q0 -29 29 -29q44 0 161 109z" />
    <glyph glyph-name="u" unicode="u" 
d="M-106 428l77 23q-94 -333 -94 -390q0 -22 29 -22q78 0 280 395l88 4q-96 -322 -96 -356q0 -29 31 -29q29 0 123 103l14 -25q-119 -135 -184 -135q-62 0 -62 70q0 60 68 280q-194 -350 -291 -350q-74 0 -74 86q0 54 91 346z" />
    <glyph glyph-name="v" unicode="v" horiz-adv-x="487" 
d="M-113 426l86 23q-86 -292 -86 -369q0 -55 39 -55q60 0 151 176q61 118 99 229l70 4q-60 -136 -138 -257q-120 -185 -204 -185q-80 0 -80 112q0 113 63 322z" />
    <glyph glyph-name="w" unicode="w" horiz-adv-x="750" 
d="M-111 434l78 15q-92 -300 -92 -371q0 -45 33 -45q58 0 152 172q65 121 102 225l80 12q-97 -267 -97 -333q0 -74 54 -74q70 0 144 171q48 112 75 230l63 6q-42 -144 -110 -266q-100 -180 -199 -180q-86 0 -86 123q0 32 10 100q-125 -223 -211 -223q-67 0 -67 96
q0 137 71 342z" />
    <glyph glyph-name="x" unicode="x" horiz-adv-x="412" 
d="M-70 182l-163 -176l-68 -4l225 203l-51 229l74 6l30 -170l125 168l60 6l-178 -198l55 -246h-70z" />
    <glyph glyph-name="y" unicode="y" horiz-adv-x="592" 
d="M53 -86q-217 -200 -217 -313q0 -52 33 -52q99 0 184 365zM-113 430l82 14l-9 -29q-87 -280 -87 -333q0 -47 31 -47q92 0 289 405h73l-106 -385l100 99l19 -19l-127 -121q-130 -489 -283 -489q-64 0 -64 65q0 131 254 365l103 371q-177 -328 -283 -328q-72 0 -72 88
q0 59 80 344z" />
    <glyph glyph-name="z" unicode="z" horiz-adv-x="455" 
d="M-264 0v33l372 339h-29q-20 -1 -30 -1q-7 0 -20.5 1t-20.5 1q-29 0 -78 -4q-59 -5 -77 -6l32 69q16 1 57 3q96 5 134 5q49 0 110 -4l-2 -18l-366 -348q15 0 46 -1t46 -1q74 0 188 8l-8 -76h-354z" />
    <glyph glyph-name="braceleft" unicode="{" horiz-adv-x="1024" 
d="M844 1516v-47q-154 -2 -208 -56.5t-54 -208.5v-147q0 -205 -52 -288q-63 -101 -251 -134q188 -32 251 -133q52 -83 52 -289v-147q0 -154 54 -208.5t208 -56.5v-45h-10q-207 0 -287 69q-86 74 -86 277v222q0 156 -65 217q-59 54 -220 67v56q163 14 220 67q65 60 65 217
v221q0 203 86 278q80 69 287 69h10z" />
    <glyph glyph-name="bar" unicode="|" horiz-adv-x="1024" 
d="M467 1565h90v-2048h-90v2048z" />
    <glyph glyph-name="braceright" unicode="}" horiz-adv-x="1024" 
d="M178 1516h10q207 0 288 -69q87 -75 87 -278v-221q0 -158 64 -217q58 -53 221 -67v-56q-161 -13 -220 -67q-65 -61 -65 -217v-222q0 -202 -88 -277q-80 -69 -287 -69h-10v45q154 2 209 56.5t55 208.5v147q0 206 52 289q62 99 251 133q-188 33 -251 134q-52 83 -52 288v147
q0 154 -55 208.5t-209 56.5v47z" />
    <glyph glyph-name="asciitilde" unicode="~" horiz-adv-x="1706" 
d="M1530 739v-92q-211 -147 -387 -147q-99 0 -266 61l-22 8q-9 3 -33 12q-166 60 -257 60q-161 0 -387 -160v92q207 146 387 146q102 0 271 -61q15 -6 46 -17q168 -61 261 -61q160 0 387 159z" />
    <glyph glyph-name="exclamdown" unicode="&#xa1;" horiz-adv-x="371" 
d="M211 1143h29q-166 -552 -291 -1047l-119 -51q151 378 381 1098zM350 1413q0 -57 -59 -57q-60 0 -60 59q0 55 58 55q61 0 61 -57z" />
    <glyph glyph-name="cent" unicode="&#xa2;" horiz-adv-x="739" 
d="M133 414q-74 -15 -129 -120q-49 -93 -49 -177q0 -72 59 -72h11zM233 154v-27q-57 -69 -188 -121l-51 -174h-33l49 164q-3 0 -10 -1t-10 -1q-119 0 -119 121q0 102 86 202q82 94 184 125l47 160h33l-47 -156q6 0 18.5 1.5t18.5 1.5q74 0 74 -37q0 -18 -21 -41q-8 3 -32 15
q-49 24 -64 24h-4l-106 -363q81 17 175 107z" />
    <glyph glyph-name="sterling" unicode="&#xa3;" horiz-adv-x="739" 
d="M39 96q-119 47 -201 47q-123 0 -123 -63q0 -32 42 -51q33 -15 69 -15q108 0 213 82zM80 82q-119 -94 -250 -94q-147 0 -147 96q0 52 60 82q48 24 105 24q100 0 226 -51q48 109 73 213h-120l12 39h117q38 150 110 286q103 197 207 197q82 0 82 -102q0 -74 -49 -223
l-72 -21q76 208 76 265t-41 57q-110 0 -229 -459h120l-14 -39h-119q-47 -134 -114 -229q138 -54 284 -64l-49 -63h-16q-92 0 -252 86z" />
    <glyph glyph-name="currency" unicode="&#xa4;" horiz-adv-x="739" 
d="M39 537h287l-17 -37h-289q-33 -60 -56 -123h284l-17 -37h-280q-17 -70 -17 -119q0 -190 199 -190q147 0 277 88l4 -27q-159 -98 -324 -98q-110 0 -178 61t-68 170q0 38 15 115h-105l17 37h100q18 51 59 123h-131l17 37h137q91 133 237 233q166 113 308 113q108 0 108 -82
q0 -92 -221 -195l10 70q180 61 180 125q0 59 -77 59q-123 0 -263 -109q-120 -93 -196 -214z" />
    <glyph glyph-name="yen" unicode="&#xa5;" horiz-adv-x="739" 
d="M623 864q-140 -143 -316 -346h168l-8 -35h-186q-52 -64 -111 -127h229l-8 -34h-235l-86 -332l-70 10l90 322h-244l9 34h233l-26 109q-5 20 -5 22q2 -1 2 -4h-178l8 35h162q-33 131 -114 352l69 13q85 -195 146 -506q252 308 378 500z" />
    <glyph glyph-name="brokenbar" unicode="&#xa6;" horiz-adv-x="1024" 
d="M467 408h90v-758h-90v758zM467 1432h90v-758h-90v758z" />
    <glyph glyph-name="section" unicode="&#xa7;" horiz-adv-x="750" 
d="M281 336q237 51 237 182q0 76 -67 178l-185 281q-233 -42 -233 -178q0 -78 53 -160zM-281 -61l54 65q138 -115 286 -115q88 0 154 50q72 55 72 141q0 54 -54 143l-196 322q-62 102 -62 188q0 108 80 191q71 73 183 106q-50 92 -50 154q0 128 120 210q107 74 241 74
q108 0 256 -79l-41 -58q-141 92 -262 92q-90 0 -159 -47q-79 -53 -79 -139q0 -52 84 -188l137 -222q92 -149 92 -237q0 -228 -262 -305q49 -86 49 -156q0 -126 -119 -209q-107 -74 -239 -74q-127 0 -285 93z" />
    <glyph glyph-name="dieresis" unicode="&#xa8;" horiz-adv-x="1024" 
d="M412 655q0 45 43 45q45 0 45 -49q0 -39 -43 -39q-45 0 -45 43zM219 655q0 45 43 45q45 0 45 -49q0 -39 -45 -39q-43 0 -43 43z" />
    <glyph glyph-name="copyright" unicode="&#xa9;" horiz-adv-x="1683" 
d="M1118 1093l31 1v-308h-37q-65 275 -285 275q-258 0 -258 -377q0 -383 277 -383q178 0 287 172l30 -20q-112 -207 -336 -207q-169 0 -284 125q-111 122 -111 293q0 176 106 302q112 134 285 134q57 0 138.5 -34t91.5 -34q57 0 65 61zM844 1298q-255 0 -435 -183t-180 -437
q0 -257 181 -438t432 -181q257 0 432 181q182 188 182 438q0 262 -179 441t-433 179zM844 1370q282 0 485 -201t203 -491q0 -206 -118.5 -382.5t-307.5 -255.5q-125 -52 -264 -52q-285 0 -487.5 201.5t-202.5 488.5q0 285 201.5 488.5t490.5 203.5z" />
    <glyph glyph-name="ordfeminine" unicode="&#xaa;" horiz-adv-x="451" 
d="M106 1077h259q67 0 67 -22q0 -31 -78 -31h-250q-49 0 -49 25q0 28 51 28zM383 1460l-21 -43q-36 15 -55 15q-57 0 -110 -75q-50 -70 -50 -130q0 -39 31 -39q87 0 223 268l68 4l-78 -227q-6 -17 -6 -21q0 -22 18 -22q33 0 109 80l4 -39q-90 -98 -154 -98q-53 0 -53 55
q0 29 17 82q-107 -137 -176 -137q-80 0 -80 79q0 98 120 199q66 55 138 55q25 0 55 -6z" />
    <glyph glyph-name="guillemotleft" unicode="&#xab;" horiz-adv-x="635" 
d="M379 436q-129 -105 -266 -192l147 -248l-74 -25l-141 244l274 221h60zM137 436q-120 -99 -268 -192l147 -248l-71 -25l-142 244l275 221h59z" />
    <glyph glyph-name="logicalnot" unicode="&#xac;" horiz-adv-x="1706" 
d="M254 856h1198v-502h-78v420h-1120v82z" />
    <glyph glyph-name="registered" unicode="&#xae;" horiz-adv-x="1683" 
d="M717 717q24 -2 67 -2q263 0 263 176q0 85 -70 129q-58 37 -148 37q-112 0 -112 -76v-264zM469 1087h391q121 0 205 -38q111 -51 111 -158q0 -143 -291 -199q168 -55 211 -215q5 -19 12 -59q15 -88 55 -88q78 0 80 128l37 1v-8q0 -177 -150 -177q-97 0 -124 70
q-15 38 -16.5 111.5t-10.5 101.5q-43 127 -223 127q-7 0 -19.5 -1t-19.5 -1v-248q0 -62 39 -84q28 -16 98 -19v-38h-385v38q70 3 98 19q39 22 39 84v512q0 62 -39 86q-29 17 -98 19v36zM844 1298q-255 0 -435 -183t-180 -437q0 -257 181 -438t432 -181q257 0 432 181
q182 188 182 438q0 262 -179 441t-433 179zM844 1370q282 0 485 -201t203 -491q0 -206 -118.5 -382.5t-307.5 -255.5q-125 -52 -264 -52q-285 0 -487.5 201.5t-202.5 488.5q0 285 201.5 488.5t490.5 203.5z" />
    <glyph glyph-name="degree" unicode="&#xb0;" horiz-adv-x="674" 
d="M338 1389q-90 0 -151.5 -61.5t-61.5 -151.5q0 -89 62 -151t151 -62t151 62t62 151t-62 151t-151 62zM338 1450q113 0 192.5 -80.5t79.5 -193.5q0 -115 -79.5 -194t-194.5 -79q-116 0 -194.5 78.5t-78.5 194.5q0 115 80 194.5t195 79.5z" />
    <glyph glyph-name="plusminus" unicode="&#xb1;" horiz-adv-x="1706" 
d="M254 141h1198v-82h-1198v82zM813 1161h80v-354h559v-80h-559v-352h-80v352h-559v80h559v354z" />
    <glyph glyph-name="twosuperior" unicode="&#xb2;" horiz-adv-x="487" 
d="M-113 350v10q359 239 359 398q0 104 -101 104q-124 0 -174 -155l-39 12q65 162 218 162q65 0 110 -38t45 -102q0 -83 -133 -199q-47 -41 -199 -147h256l-16 -45h-326z" />
    <glyph glyph-name="threesuperior" unicode="&#xb3;" horiz-adv-x="487" 
d="M-150 377l11 45q97 -57 172 -57q70 0 123 39q59 42 59 110q0 90 -109 90q-22 0 -46 -6l-3 12q199 78 199 178q0 72 -86 72q-107 0 -180 -115l-29 21q105 111 219 111q125 0 125 -89q0 -88 -180 -163v-6q147 -4 147 -105q0 -81 -94 -129q-77 -39 -166 -39q-75 0 -162 31z
" />
    <glyph glyph-name="acute" unicode="&#xb4;" horiz-adv-x="1024" 
d="M287 555q0 6 62 46q67 43 77 58q2 3 30 75q20 52 44 52q37 0 37 -30q0 -57 -105 -140q-87 -69 -133 -69q-12 0 -12 8z" />
    <glyph glyph-name="paragraph" unicode="&#xb6;" horiz-adv-x="1024" 
d="M932 1479v-64h-129v-1415h-70v1415h-192v-1415h-70v782q-165 8 -268 94q-113 94 -113 254q0 166 117 261q109 88 278 88h447z" />
    <glyph glyph-name="cedilla" unicode="&#xb8;" horiz-adv-x="1024" 
d="M-47 -229l12 24q76 -35 133 -35q127 0 127 80q0 62 -94 62q-10 0 -37 -4h-6l64 114h28l-43 -78h25q125 0 125 -84q0 -58 -54 -92q-47 -30 -108 -30q-82 0 -172 43z" />
    <glyph glyph-name="onesuperior" unicode="&#xb9;" horiz-adv-x="487" 
d="M59 350h-53l137 430l-75 -96l-17 12q122 136 139 181h29q-38 -150 -160 -527z" />
    <glyph glyph-name="ordmasculine" unicode="&#xba;" horiz-adv-x="362" 
d="M102 1077h152q68 0 68 -22q0 -31 -78 -31h-144q-49 0 -49 25q0 28 51 28zM348 1384q0 52 -51 52q-57 0 -100 -90q-37 -76 -37 -140q0 -53 45 -53q61 0 105 88q38 75 38 143zM301 1464q119 0 119 -121q0 -91 -66 -155t-157 -64q-50 0 -80.5 33t-30.5 84q0 87 64.5 155
t150.5 68z" />
    <glyph glyph-name="guillemotright" unicode="&#xbb;" horiz-adv-x="635" 
d="M-37 -29q127 106 266 195l-147 246l72 24l143 -243l-274 -222h-60zM-281 -29q124 102 269 195l-148 246l72 24l141 -243l-274 -222h-60z" />
    <glyph glyph-name="onequarter" unicode="&#xbc;" horiz-adv-x="1274" 
d="M928 -20l-51 -15l41 125h-236l297 399l39 3l-293 -371h205l98 303l51 12l-100 -315h82l-10 -31h-84zM131 -10h-49l661 893h52zM57 385h-53l131 401l-72 -90l-14 11q117 127 133 170h25q-40 -152 -150 -492z" />
    <glyph glyph-name="onehalf" unicode="&#xbd;" horiz-adv-x="1274" 
d="M700 0v10q344 222 344 369q0 100 -98 100q-116 0 -164 -147l-37 12q60 150 205 150q61 0 104 -32q46 -36 46 -95q0 -80 -126 -187q-49 -42 -190 -137h244l-14 -43h-314zM131 -10h-49l661 893h52zM57 385h-53l131 401l-72 -90l-14 11q117 127 133 170h25
q-40 -152 -150 -492z" />
    <glyph glyph-name="threequarters" unicode="&#xbe;" horiz-adv-x="1274" 
d="M926 -20l-52 -15l41 125h-235l297 399l39 3l-293 -371h205l98 303l51 12l-100 -315h82l-10 -31h-84zM129 -10h-49l661 893h52zM-141 410l8 41q94 -52 164 -52q66 0 117 35q57 39 57 103q0 86 -103 86q-21 0 -45 -6l-2 10q189 73 189 168q0 65 -82 65q-99 0 -172 -106
l-27 18q99 105 209 105q119 0 119 -84q0 -81 -172 -152l2 -6q139 -4 139 -96q0 -77 -90 -122q-73 -36 -158 -36q-68 0 -153 29z" />
    <glyph glyph-name="questiondown" unicode="&#xbf;" horiz-adv-x="494" 
d="M305 993h21q-60 -257 -226 -456q-44 -53 -89 -102q-156 -171 -156 -261q0 -102 104 -102q155 0 301 303l45 -62q-144 -270 -330 -270q-72 0 -118.5 43t-46.5 115q0 150 266 423l41 42q122 128 188 327zM428 1464q59 0 59 -55q0 -57 -61 -57q-53 0 -53 61q0 51 55 51z" />
    <glyph glyph-name="Agrave" unicode="&#xc0;" horiz-adv-x="1341" 
d="M911 403h-49q-167 0 -274 21q113 -137 215 -358zM537 471q127 -37 307 -37q12 0 53 3q14 1 23 1l227 674q63 187 63 236q0 28 -12 28q-30 0 -319 -411zM-647 47l76 51q204 -84 344 -84q241 0 478 207q161 140 347 408l135 194q449 645 506 645q55 0 55 -94
q0 -153 -168 -639l-102 -295h20q19 0 62 4h6l-2 -32q-36 -6 -74 -6h-26l-136 -406l-79 -4q-146 336 -281 448q-350 -467 -793 -467q-162 0 -368 70zM1344 1583q-34 0 -111 74q-86 83 -86 133q0 39 37 39q30 0 43 -58q9 -39 16 -55q9 -21 62 -62q45 -34 45 -65q-2 -6 -6 -6z
" />
    <glyph glyph-name="Aacute" unicode="&#xc1;" horiz-adv-x="1341" 
d="M911 403h-49q-167 0 -274 21q113 -137 215 -358zM537 471q127 -37 307 -37q12 0 53 3q14 1 23 1l227 674q63 187 63 236q0 28 -12 28q-30 0 -319 -411zM-647 47l76 51q204 -84 344 -84q241 0 478 207q161 140 347 408l135 194q449 645 506 645q55 0 55 -94
q0 -153 -168 -639l-102 -295h20q19 0 62 4h6l-2 -32q-36 -6 -74 -6h-26l-136 -406l-79 -4q-146 336 -281 448q-350 -467 -793 -467q-162 0 -368 70zM1219 1591q0 6 62 46q67 43 77 58q2 3 30 75q20 52 44 52q37 0 37 -30q0 -57 -105 -140q-87 -69 -133 -69q-12 0 -12 8z" />
    <glyph glyph-name="Acircumflex" unicode="&#xc2;" horiz-adv-x="1341" 
d="M911 403h-49q-167 0 -274 21q113 -137 215 -358zM537 471q127 -37 307 -37q12 0 53 3q14 1 23 1l227 674q63 187 63 236q0 28 -12 28q-30 0 -319 -411zM-647 47l76 51q204 -84 344 -84q241 0 478 207q161 140 347 408l135 194q449 645 506 645q55 0 55 -94
q0 -153 -168 -639l-102 -295h20q19 0 62 4h6l-2 -32q-36 -6 -74 -6h-26l-136 -406l-79 -4q-146 336 -281 448q-350 -467 -793 -467q-162 0 -368 70zM1305 1718q-153 -143 -176 -143q-17 0 -17 14q82 92 199 229h20q22 -103 78 -198q15 -26 15 -31q0 -12 -13 -12
q-28 0 -106 141z" />
    <glyph glyph-name="Atilde" unicode="&#xc3;" horiz-adv-x="1341" 
d="M911 403h-49q-167 0 -274 21q113 -137 215 -358zM537 471q127 -37 307 -37q12 0 53 3q14 1 23 1l227 674q63 187 63 236q0 28 -12 28q-30 0 -319 -411zM-647 47l76 51q204 -84 344 -84q241 0 478 207q161 140 347 408l135 194q449 645 506 645q55 0 55 -94
q0 -153 -168 -639l-102 -295h20q19 0 62 4h6l-2 -32q-36 -6 -74 -6h-26l-136 -406l-79 -4q-146 336 -281 448q-350 -467 -793 -467q-162 0 -368 70zM1120 1620l-16 4q4 129 88 129q31 0 104 -33t105 -33q42 0 66 88h20q-12 -139 -92 -139q-33 0 -109 33t-104 33
q-48 0 -62 -82z" />
    <glyph glyph-name="Adieresis" unicode="&#xc4;" horiz-adv-x="1341" 
d="M911 403h-49q-167 0 -274 21q113 -137 215 -358zM537 471q127 -37 307 -37q12 0 53 3q14 1 23 1l227 674q63 187 63 236q0 28 -12 28q-30 0 -319 -411zM-647 47l76 51q204 -84 344 -84q241 0 478 207q161 140 347 408l135 194q449 645 506 645q55 0 55 -94
q0 -153 -168 -639l-102 -295h20q19 0 62 4h6l-2 -32q-36 -6 -74 -6h-26l-136 -406l-79 -4q-146 336 -281 448q-350 -467 -793 -467q-162 0 -368 70zM1344 1691q0 45 43 45q45 0 45 -49q0 -39 -43 -39q-45 0 -45 43zM1151 1691q0 45 43 45q45 0 45 -49q0 -39 -45 -39
q-43 0 -43 43z" />
    <glyph glyph-name="Aring" unicode="&#xc5;" horiz-adv-x="1341" 
d="M1171 1708q0 -58 40 -97.5t98 -39.5q57 0 96 40t39 97t-39 96t-96 39t-97.5 -39t-40.5 -96zM1130 1709q-1 75 51.5 125t127.5 50t125.5 -50.5t50.5 -125.5t-50.5 -126.5t-125.5 -51.5t-126.5 51.5t-52.5 127.5zM911 403h-49q-167 0 -274 21q113 -137 215 -358zM537 471
q127 -37 307 -37q12 0 53 3q14 1 23 1l147 428q143 416 143 480q0 30 -14 30q-36 0 -260 -331q-239 -352 -399 -574zM-647 47l76 51q197 -82 340 -82q245 0 481 204q162 140 348 409l101 146q479 693 540 693q55 0 55 -94q0 -153 -168 -639l-102 -295h20q19 0 62 4h6l-2 -30
q-52 -8 -100 -8l-142 -406l-73 -4q-146 336 -281 448q-350 -467 -793 -467q-162 0 -368 70z" />
    <glyph glyph-name="AE" unicode="&#xc6;" horiz-adv-x="2099" 
d="M911 403h-49q-167 0 -274 21q113 -137 215 -358zM537 471q127 -37 307 -37q12 0 53 3q14 1 23 1l186 539q100 290 100 385q0 16 -14 16q-28 0 -264 -345q-213 -312 -391 -562zM-647 47l76 51q197 -82 340 -82q245 0 481 204q162 140 348 409l101 146q479 693 540 693
q55 0 55 -92q0 -220 -235 -807q111 140 403 295q-92 148 -92 205q0 134 225 272q207 127 412 127q68 0 119 -26q63 -32 63 -94q0 -68 -149 -306l-51 70q114 163 114 242q0 82 -98 82q-163 0 -346 -121q-219 -145 -219 -273q0 -50 32.5 -121t32.5 -73q0 -49 -129 -131
q-86 -55 -143 -99q-270 -209 -270 -385q0 -103 83 -154q69 -42 179 -42q297 0 633 174l-23 -107q-324 -110 -557 -110q-277 0 -348 180l-62 -174l-73 -4q-146 336 -281 448q-350 -467 -793 -467q-162 0 -368 70z" />
    <glyph glyph-name="Ccedilla" unicode="&#xc7;" horiz-adv-x="1081" 
d="M801 186l2 -32q-242 -162 -502 -162q-177 0 -279 107t-102 284q0 194 101 399q91 184 241 338q177 181 406 281q159 69 266 69q172 0 172 -135q0 -197 -475 -381l16 99q420 168 420 295q0 98 -127 98q-138 0 -325 -123q-142 -93 -273 -227q-138 -141 -228 -320
q-100 -201 -100 -377q0 -167 92.5 -263.5t258.5 -96.5q243 0 436 147zM129 -229l12 24q76 -35 133 -35q127 0 127 80q0 62 -94 62q-10 0 -37 -4h-6l64 114h28l-43 -78h25q125 0 125 -84q0 -58 -54 -92q-47 -30 -108 -30q-82 0 -172 43z" />
    <glyph glyph-name="Egrave" unicode="&#xc8;" horiz-adv-x="1042" 
d="M762 211l-23 -107q-322 -110 -557 -110q-154 0 -253 62q-117 74 -117 220q0 286 550 601q-90 144 -90 192q0 132 228 272q206 127 422 127q170 0 170 -120q0 -71 -150 -306l-49 70q119 172 119 240q0 82 -111 82q-114 0 -248 -68q-309 -157 -309 -324q0 -50 33 -121
t33 -73q0 -49 -129 -131q-93 -59 -144 -99q-272 -212 -272 -385q0 -102 85 -154q70 -42 179 -42q299 0 633 174zM975 1583q-34 0 -111 74q-86 83 -86 133q0 39 37 39q30 0 43 -58q9 -39 16 -55q9 -21 62 -62q45 -34 45 -65q-2 -6 -6 -6z" />
    <glyph glyph-name="Eacute" unicode="&#xc9;" horiz-adv-x="1042" 
d="M762 211l-23 -107q-322 -110 -557 -110q-154 0 -253 62q-117 74 -117 220q0 286 550 601q-90 144 -90 192q0 132 228 272q206 127 422 127q170 0 170 -120q0 -71 -150 -306l-49 70q119 172 119 240q0 82 -111 82q-114 0 -248 -68q-309 -157 -309 -324q0 -50 33 -121
t33 -73q0 -49 -129 -131q-93 -59 -144 -99q-272 -212 -272 -385q0 -102 85 -154q70 -42 179 -42q299 0 633 174zM850 1591q0 6 62 46q67 43 77 58q2 3 30 75q20 52 44 52q37 0 37 -30q0 -57 -105 -140q-87 -69 -133 -69q-12 0 -12 8z" />
    <glyph glyph-name="Ecircumflex" unicode="&#xca;" horiz-adv-x="1042" 
d="M762 211l-23 -107q-322 -110 -557 -110q-154 0 -253 62q-117 74 -117 220q0 286 550 601q-90 144 -90 192q0 132 228 272q206 127 422 127q170 0 170 -120q0 -71 -150 -306l-49 70q119 172 119 240q0 82 -111 82q-114 0 -248 -68q-309 -157 -309 -324q0 -50 33 -121
t33 -73q0 -49 -129 -131q-93 -59 -144 -99q-272 -212 -272 -385q0 -102 85 -154q70 -42 179 -42q299 0 633 174zM936 1718q-153 -143 -176 -143q-17 0 -17 14q82 92 199 229h20q22 -103 78 -198q15 -26 15 -31q0 -12 -13 -12q-28 0 -106 141z" />
    <glyph glyph-name="Edieresis" unicode="&#xcb;" horiz-adv-x="1042" 
d="M762 211l-23 -107q-322 -110 -557 -110q-154 0 -253 62q-117 74 -117 220q0 286 550 601q-90 144 -90 192q0 132 228 272q206 127 422 127q170 0 170 -120q0 -71 -150 -306l-49 70q119 172 119 240q0 82 -111 82q-114 0 -248 -68q-309 -157 -309 -324q0 -50 33 -121
t33 -73q0 -49 -129 -131q-93 -59 -144 -99q-272 -212 -272 -385q0 -102 85 -154q70 -42 179 -42q299 0 633 174zM975 1691q0 45 43 45q45 0 45 -49q0 -39 -43 -39q-45 0 -45 43zM782 1691q0 45 43 45q45 0 45 -49q0 -39 -45 -39q-43 0 -43 43z" />
    <glyph glyph-name="Igrave" unicode="&#xcc;" horiz-adv-x="973" 
d="M588 524q235 595 235 822q0 94 -47 94q-44 0 -102 -84q-193 -281 -193 -555q0 -193 107 -277zM-313 78l39 61q218 -108 352 -108q183 0 314 145q91 101 181 311q-170 119 -170 355q0 212 156 438q133 193 227 193q91 0 91 -164q0 -326 -213 -832q56 -23 149 -39l-6 -28
q-61 7 -156 34q-192 -446 -579 -446q-175 0 -385 80zM879 1583q-34 0 -111 74q-86 83 -86 133q0 39 37 39q30 0 43 -58q9 -39 16 -55q9 -21 62 -62q45 -34 45 -65q-2 -6 -6 -6z" />
    <glyph glyph-name="Iacute" unicode="&#xcd;" horiz-adv-x="973" 
d="M588 524q235 595 235 822q0 94 -47 94q-44 0 -102 -84q-193 -281 -193 -555q0 -193 107 -277zM-313 78l39 61q218 -108 352 -108q183 0 314 145q91 101 181 311q-170 119 -170 355q0 212 156 438q133 193 227 193q91 0 91 -164q0 -326 -213 -832q56 -23 149 -39l-6 -28
q-61 7 -156 34q-192 -446 -579 -446q-175 0 -385 80zM754 1591q0 6 62 46q67 43 77 58q2 3 30 75q20 52 44 52q37 0 37 -30q0 -57 -105 -140q-87 -69 -133 -69q-12 0 -12 8z" />
    <glyph glyph-name="Icircumflex" unicode="&#xce;" horiz-adv-x="973" 
d="M588 524q235 595 235 822q0 94 -47 94q-44 0 -102 -84q-193 -281 -193 -555q0 -193 107 -277zM-313 78l39 61q218 -108 352 -108q183 0 314 145q91 101 181 311q-170 119 -170 355q0 212 156 438q133 193 227 193q91 0 91 -164q0 -326 -213 -832q56 -23 149 -39l-6 -28
q-61 7 -156 34q-192 -446 -579 -446q-175 0 -385 80zM840 1718q-153 -143 -176 -143q-17 0 -17 14q82 92 199 229h20q22 -103 78 -198q15 -26 15 -31q0 -12 -13 -12q-28 0 -106 141z" />
    <glyph glyph-name="Idieresis" unicode="&#xcf;" horiz-adv-x="973" 
d="M588 524q235 595 235 822q0 94 -47 94q-44 0 -102 -84q-193 -281 -193 -555q0 -193 107 -277zM-313 78l39 61q218 -108 352 -108q183 0 314 145q91 101 181 311q-170 119 -170 355q0 212 156 438q133 193 227 193q91 0 91 -164q0 -326 -213 -832q56 -23 149 -39l-6 -28
q-61 7 -156 34q-192 -446 -579 -446q-175 0 -385 80zM879 1691q0 45 43 45q45 0 45 -49q0 -39 -43 -39q-45 0 -45 43zM686 1691q0 45 43 45q45 0 45 -49q0 -39 -45 -39q-43 0 -43 43z" />
    <glyph glyph-name="Eth" unicode="&#xd0;" horiz-adv-x="1712" 
d="M1063 1161q-67 -226 -170 -499h266l-10 -37h-272q-135 -315 -320 -484q229 -75 414 -75q465 0 465 409q0 184 -115 379q-99 167 -258 307zM428 100q-154 54 -276 54q-191 0 -191 -78q0 -76 176 -76q155 0 291 100zM492 78q-168 -111 -342 -111q-84 0 -149 20
q-97 29 -97 95q0 72 108 107q75 24 166 24q130 0 324 -53q177 189 291 465h-203l10 37h207q126 320 199 555q-313 231 -603 231q-204 0 -204 -139q0 -137 243 -338l-75 -37q-222 202 -222 356q0 189 271 189q318 0 614 -193l45 135l88 31l-71 -213q403 -337 403 -698
q0 -253 -153.5 -402t-407.5 -149q-201 0 -442 88z" />
    <glyph glyph-name="Ntilde" unicode="&#xd1;" horiz-adv-x="1200" 
d="M94 0h-80q385 1264 385 1380q0 50 -24 50q-59 0 -192 -266q-84 -167 -146 -324l-60 61q268 565 396 565q82 0 82 -108q0 -221 -318 -1208q622 1245 883 1245q108 0 108 -129q0 -126 -159 -609l-61 -185q-156 -475 -199 -675l-76 62q31 171 193 632l83 238
q162 478 162 565q0 28 -23 47t-51 19q-227 0 -903 -1360zM688 1620l-16 4q4 129 88 129q31 0 104 -33t105 -33q42 0 66 88h20q-12 -139 -92 -139q-33 0 -109 33t-104 33q-48 0 -62 -82z" />
    <glyph glyph-name="Ograve" unicode="&#xd2;" horiz-adv-x="1341" 
d="M1124 989q0 190 -86 309q-98 136 -280 136q-214 0 -398 -181q-153 -151 -243 -363.5t-90 -426.5q0 -184 98 -309q107 -136 287 -136q149 0 297 113q121 92 219 238q196 293 196 620zM-59 539q0 328 213 606q245 319 591 319q229 0 361 -160q123 -148 123 -382
q0 -347 -250.5 -639.5t-560.5 -292.5q-234 0 -361 161q-116 148 -116 388zM871 1583q-34 0 -111 74q-86 83 -86 133q0 39 37 39q30 0 43 -58q9 -39 16 -55q9 -21 62 -62q45 -34 45 -65q-2 -6 -6 -6z" />
    <glyph glyph-name="Oacute" unicode="&#xd3;" horiz-adv-x="1341" 
d="M1124 989q0 190 -86 309q-98 136 -280 136q-214 0 -398 -181q-153 -151 -243 -363.5t-90 -426.5q0 -184 98 -309q107 -136 287 -136q149 0 297 113q121 92 219 238q196 293 196 620zM-59 539q0 328 213 606q245 319 591 319q229 0 361 -160q123 -148 123 -382
q0 -347 -250.5 -639.5t-560.5 -292.5q-234 0 -361 161q-116 148 -116 388zM746 1591q0 6 62 46q67 43 77 58q2 3 30 75q20 52 44 52q37 0 37 -30q0 -57 -105 -140q-87 -69 -133 -69q-12 0 -12 8z" />
    <glyph glyph-name="Ocircumflex" unicode="&#xd4;" horiz-adv-x="1341" 
d="M1124 989q0 190 -86 309q-98 136 -280 136q-214 0 -398 -181q-153 -151 -243 -363.5t-90 -426.5q0 -184 98 -309q107 -136 287 -136q149 0 297 113q121 92 219 238q196 293 196 620zM-59 539q0 328 213 606q245 319 591 319q229 0 361 -160q123 -148 123 -382
q0 -347 -250.5 -639.5t-560.5 -292.5q-234 0 -361 161q-116 148 -116 388zM832 1718q-153 -143 -176 -143q-17 0 -17 14q82 92 199 229h20q22 -103 78 -198q15 -26 15 -31q0 -12 -13 -12q-28 0 -106 141z" />
    <glyph glyph-name="Otilde" unicode="&#xd5;" horiz-adv-x="1341" 
d="M1124 989q0 190 -86 309q-98 136 -280 136q-214 0 -398 -181q-153 -151 -243 -363.5t-90 -426.5q0 -184 98 -309q107 -136 287 -136q149 0 297 113q121 92 219 238q196 293 196 620zM-59 539q0 328 213 606q245 319 591 319q229 0 361 -160q123 -148 123 -382
q0 -347 -250.5 -639.5t-560.5 -292.5q-234 0 -361 161q-116 148 -116 388zM647 1620l-16 4q4 129 88 129q31 0 104 -33t105 -33q42 0 66 88h20q-12 -139 -92 -139q-33 0 -109 33t-104 33q-48 0 -62 -82z" />
    <glyph glyph-name="Odieresis" unicode="&#xd6;" horiz-adv-x="1341" 
d="M1124 989q0 190 -86 309q-98 136 -280 136q-214 0 -398 -181q-153 -151 -243 -363.5t-90 -426.5q0 -184 98 -309q107 -136 287 -136q149 0 297 113q121 92 219 238q196 293 196 620zM-59 539q0 328 213 606q245 319 591 319q229 0 361 -160q123 -148 123 -382
q0 -347 -250.5 -639.5t-560.5 -292.5q-234 0 -361 161q-116 148 -116 388zM871 1691q0 45 43 45q45 0 45 -49q0 -39 -43 -39q-45 0 -45 43zM678 1691q0 45 43 45q45 0 45 -49q0 -39 -45 -39q-43 0 -43 43z" />
    <glyph glyph-name="multiply" unicode="&#xd7;" horiz-adv-x="1706" 
d="M367 1155l487 -487l487 487l58 -57l-488 -488l488 -487l-58 -57l-487 487l-487 -487l-58 57l488 487l-488 488z" />
    <glyph glyph-name="Oslash" unicode="&#xd8;" horiz-adv-x="1341" 
d="M1044 1288l-903 -1147q98 -123 271 -123q147 0 297 113q121 92 219 238q196 291 196 618q0 172 -80 301zM111 176l907 1145q-91 113 -260 113q-214 0 -398 -181q-153 -151 -243 -363.5t-90 -426.5q0 -158 84 -287zM78 125q-137 157 -137 426q0 262 150 505
q154 250 391 353q128 55 263 55q182 0 308 -104l184 242h49l-203 -273q146 -171 146 -389q0 -362 -249 -656t-564 -294q-182 0 -303 106l-250 -317l-49 4z" />
    <glyph glyph-name="Ugrave" unicode="&#xd9;" horiz-adv-x="1233" 
d="M63 999l-59 54q216 420 365 420q73 0 73 -107q0 -88 -123 -482l-10 -32q-176 -563 -176 -666q0 -137 123 -137q234 0 521 587q161 330 310 783l97 19q-262 -782 -377 -1440l-82 49q79 421 215 881q-391 -934 -711 -934q-178 0 -178 207q0 129 150 600q42 131 97 296
q83 248 83 279q0 54 -35 54q-74 0 -283 -431zM883 1583q-34 0 -111 74q-86 83 -86 133q0 39 37 39q30 0 43 -58q9 -39 16 -55q9 -21 62 -62q45 -34 45 -65q-2 -6 -6 -6z" />
    <glyph glyph-name="Uacute" unicode="&#xda;" horiz-adv-x="1233" 
d="M63 999l-59 54q216 420 365 420q73 0 73 -107q0 -88 -123 -482l-10 -32q-176 -563 -176 -666q0 -137 123 -137q234 0 521 587q161 330 310 783l97 19q-262 -782 -377 -1440l-82 49q79 421 215 881q-391 -934 -711 -934q-178 0 -178 207q0 129 150 600q42 131 97 296
q83 248 83 279q0 54 -35 54q-74 0 -283 -431zM758 1591q0 6 62 46q67 43 77 58q2 3 30 75q20 52 44 52q37 0 37 -30q0 -57 -105 -140q-87 -69 -133 -69q-12 0 -12 8z" />
    <glyph glyph-name="Ucircumflex" unicode="&#xdb;" horiz-adv-x="1233" 
d="M63 999l-59 54q216 420 365 420q73 0 73 -107q0 -88 -123 -482l-10 -32q-176 -563 -176 -666q0 -137 123 -137q234 0 521 587q161 330 310 783l97 19q-262 -782 -377 -1440l-82 49q79 421 215 881q-391 -934 -711 -934q-178 0 -178 207q0 129 150 600q42 131 97 296
q83 248 83 279q0 54 -35 54q-74 0 -283 -431zM844 1718q-153 -143 -176 -143q-17 0 -17 14q82 92 199 229h20q22 -103 78 -198q15 -26 15 -31q0 -12 -13 -12q-28 0 -106 141z" />
    <glyph glyph-name="Udieresis" unicode="&#xdc;" horiz-adv-x="1233" 
d="M63 999l-59 54q216 420 365 420q73 0 73 -107q0 -88 -123 -482l-10 -32q-176 -563 -176 -666q0 -137 123 -137q234 0 521 587q161 330 310 783l97 19q-262 -782 -377 -1440l-82 49q79 421 215 881q-391 -934 -711 -934q-178 0 -178 207q0 129 150 600q42 131 97 296
q83 248 83 279q0 54 -35 54q-74 0 -283 -431zM883 1691q0 45 43 45q45 0 45 -49q0 -39 -43 -39q-45 0 -45 43zM690 1691q0 45 43 45q45 0 45 -49q0 -39 -45 -39q-43 0 -43 43z" />
    <glyph glyph-name="Yacute" unicode="&#xdd;" horiz-adv-x="1190" 
d="M-119 -457l39 76q161 -51 260 -51q177 0 293 143q62 77 164 303q168 373 369 1090q-579 -1104 -879 -1104q-121 0 -121 154q0 128 150 563q34 98 78 224q137 390 137 454q0 32 -21 32q-78 0 -303 -426l-51 72q233 389 362 389q31 0 51 -31q19 -27 19 -59
q0 -133 -227 -804l-23 -68q-100 -296 -100 -398q0 -67 61 -67q196 0 557 590q224 366 408 764l86 8q-148 -520 -202 -688q-131 -417 -253 -668q-129 -266 -250 -375q-160 -145 -413 -145q-81 0 -191 22zM862 1591q0 6 62 46q67 43 77 58q2 3 30 75q20 52 44 52q37 0 37 -30
q0 -57 -105 -140q-87 -69 -133 -69q-12 0 -12 8z" />
    <glyph glyph-name="Thorn" unicode="&#xde;" horiz-adv-x="1010" 
d="M109 631q301 606 600 606q112 0 173 -84q54 -74 54 -190q0 -302 -295 -586q-251 -242 -602 -299l24 80h19q269 0 459 182q149 143 231 344q74 181 74 305q0 89 -38 144q-43 65 -128 65q-161 0 -355 -266q-131 -179 -233 -406q-56 -124 -127 -358q-98 -322 -115 -371
l-71 66q169 490 243 754q120 430 150 776l90 41q0 -148 -57 -404q-48 -200 -96 -399z" />
    <glyph glyph-name="germandbls" unicode="&#xdf;" horiz-adv-x="631" 
d="M-270 -422l-109 -47q90 200 185 514q76 263 151 526q258 895 422 895q74 0 74 -120q0 -190 -142 -469q-6 -12 -107 -175q-85 -139 -85 -157t50 -76q33 -39 67 -78q71 -98 71 -201q0 -92 -75 -150q-69 -52 -164 -52q-138 0 -138 75q0 46 47 46q18 0 59.5 -45.5t69.5 -45.5
q50 0 81 53q26 45 26 99q0 84 -61 182q-13 21 -40 58q-49 67 -49 100q0 22 89 169q106 178 112 189q156 311 156 506q0 62 -37 62q-80 0 -382 -965l-5 -16z" />
    <glyph glyph-name="agrave" unicode="&#xe0;" 
d="M340 158l4 -27q-116 -133 -192 -133q-60 0 -60 63q0 59 49 191q-171 -254 -272 -254q-96 0 -96 106q0 92 112 222q110 127 224 127q20 0 68 -8q3 0 5 -1l-20 -41q-47 21 -76 21q-65 0 -117 -59q-116 -132 -116 -246q0 -62 53 -62q121 0 311 383l66 4l-107 -313
q-8 -23 -8 -41q0 -35 27 -35q48 0 145 103zM234 547q-34 0 -111 74q-86 83 -86 133q0 39 37 39q30 0 43 -58q9 -39 16 -55q9 -21 62 -62q45 -34 45 -65q-2 -6 -6 -6z" />
    <glyph glyph-name="aacute" unicode="&#xe1;" 
d="M340 158l4 -27q-116 -133 -192 -133q-60 0 -60 63q0 59 49 191q-171 -254 -272 -254q-96 0 -96 106q0 92 112 222q110 127 224 127q20 0 68 -8q3 0 5 -1l-20 -41q-47 21 -76 21q-65 0 -117 -59q-116 -132 -116 -246q0 -62 53 -62q121 0 311 383l66 4l-107 -313
q-8 -23 -8 -41q0 -35 27 -35q48 0 145 103zM109 555q0 6 62 46q67 43 77 58q2 3 30 75q20 52 44 52q37 0 37 -30q0 -57 -105 -140q-87 -69 -133 -69q-12 0 -12 8z" />
    <glyph glyph-name="acircumflex" unicode="&#xe2;" 
d="M340 158l4 -27q-116 -133 -192 -133q-60 0 -60 63q0 59 49 191q-171 -254 -272 -254q-96 0 -96 106q0 92 112 222q110 127 224 127q20 0 68 -8q3 0 5 -1l-20 -41q-47 21 -76 21q-65 0 -117 -59q-116 -132 -116 -246q0 -62 53 -62q121 0 311 383l66 4l-107 -313
q-8 -23 -8 -41q0 -35 27 -35q48 0 145 103zM195 682q-153 -143 -176 -143q-17 0 -17 14q82 92 199 229h20q22 -103 78 -198q15 -26 15 -31q0 -12 -13 -12q-28 0 -106 141z" />
    <glyph glyph-name="atilde" unicode="&#xe3;" 
d="M340 158l4 -27q-116 -133 -192 -133q-60 0 -60 63q0 59 49 191q-171 -254 -272 -254q-96 0 -96 106q0 92 112 222q110 127 224 127q20 0 68 -8q3 0 5 -1l-20 -41q-47 21 -76 21q-65 0 -117 -59q-116 -132 -116 -246q0 -62 53 -62q121 0 311 383l66 4l-107 -313
q-8 -23 -8 -41q0 -35 27 -35q48 0 145 103zM10 584l-16 4q4 129 88 129q31 0 104 -33t105 -33q42 0 66 88h20q-12 -139 -92 -139q-33 0 -109 33t-104 33q-48 0 -62 -82z" />
    <glyph glyph-name="adieresis" unicode="&#xe4;" 
d="M340 158l4 -27q-116 -133 -192 -133q-60 0 -60 63q0 59 49 191q-171 -254 -272 -254q-96 0 -96 106q0 92 112 222q110 127 224 127q20 0 68 -8q3 0 5 -1l-20 -41q-47 21 -76 21q-65 0 -117 -59q-116 -132 -116 -246q0 -62 53 -62q121 0 311 383l66 4l-107 -313
q-8 -23 -8 -41q0 -35 27 -35q48 0 145 103zM234 655q0 45 43 45q45 0 45 -49q0 -39 -43 -39q-45 0 -45 43zM41 655q0 45 43 45q45 0 45 -49q0 -39 -45 -39q-43 0 -43 43z" />
    <glyph glyph-name="aring" unicode="&#xe5;" 
d="M55 702q0 -51 33 -84.5t84 -33.5q50 0 84.5 34t34.5 84q0 49 -35 83t-84 34q-50 0 -83.5 -33.5t-33.5 -83.5zM20 702q0 66 44 109t110 43q65 0 108.5 -43.5t43.5 -108.5q0 -64 -44 -108.5t-108 -44.5q-65 0 -109.5 44t-44.5 109zM340 158l4 -27q-116 -133 -192 -133
q-60 0 -60 68q0 35 35 142l14 43q-172 -253 -272 -253q-96 0 -96 106q0 89 112 222q107 127 224 127q20 0 68 -8q3 0 5 -1l-20 -41q-47 21 -76 21q-66 0 -119 -62q-114 -132 -114 -243q0 -62 53 -62q121 0 311 383l66 4l-107 -313q-8 -23 -8 -41q0 -35 31 -35q42 0 141 103z
" />
    <glyph glyph-name="ae" unicode="&#xe6;" horiz-adv-x="764" 
d="M174 127q80 36 150 95q92 77 92 143q0 51 -43 51q-68 0 -131 -115q-45 -82 -68 -174zM242 375q71 67 149 67q76 0 76 -73q0 -85 -109 -168q-79 -61 -184 -101v-8q0 -63 66 -63q72 0 209 133l6 -27q-147 -145 -244 -145q-117 0 -117 112q0 56 47 150q-171 -254 -272 -254
q-96 0 -96 106q0 97 111 223t225 126q20 0 68 -8q3 0 5 -1l-20 -41q-40 21 -76 21q-66 0 -123 -64q-110 -123 -110 -241q0 -62 53 -62q121 0 311 383l64 4z" />
    <glyph glyph-name="ccedilla" unicode="&#xe7;" horiz-adv-x="446" 
d="M125 154v-27q-151 -133 -246 -133q-53 0 -85 34t-32 87q0 101 107 221q98 110 229 110q78 0 78 -34q0 -19 -18 -41q-84 43 -121 43q-50 0 -96 -56q-93 -114 -93 -231q0 -84 82 -84q75 0 195 111zM-303 -229l12 24q76 -35 133 -35q127 0 127 80q0 62 -94 62q-10 0 -37 -4
h-6l64 114h28l-43 -78h25q125 0 125 -84q0 -58 -54 -92q-47 -30 -108 -30q-82 0 -172 43z" />
    <glyph glyph-name="egrave" unicode="&#xe8;" horiz-adv-x="446" 
d="M-141 127q86 38 152 95q87 76 87 149q0 51 -41 51q-67 0 -130 -119q-45 -83 -68 -176zM133 162l4 -27q-145 -145 -248 -145q-112 0 -112 112q0 104 98 220q109 129 201 129q74 0 74 -82q0 -85 -108 -168q-78 -61 -183 -101v-8q0 -63 65 -63q74 0 209 133zM144 547
q-34 0 -111 74q-86 83 -86 133q0 39 37 39q30 0 43 -58q9 -39 16 -55q9 -21 62 -62q45 -34 45 -65q-2 -6 -6 -6z" />
    <glyph glyph-name="eacute" unicode="&#xe9;" horiz-adv-x="446" 
d="M-141 127q86 38 152 95q87 76 87 149q0 51 -41 51q-67 0 -130 -119q-45 -83 -68 -176zM133 162l4 -27q-145 -145 -248 -145q-112 0 -112 112q0 104 98 220q109 129 201 129q74 0 74 -82q0 -85 -108 -168q-78 -61 -183 -101v-8q0 -63 65 -63q74 0 209 133zM19 555
q0 6 62 46q67 43 77 58q2 3 30 75q20 52 44 52q37 0 37 -30q0 -57 -105 -140q-87 -69 -133 -69q-12 0 -12 8z" />
    <glyph glyph-name="ecircumflex" unicode="&#xea;" horiz-adv-x="446" 
d="M-141 127q86 38 152 95q87 76 87 149q0 51 -41 51q-67 0 -130 -119q-45 -83 -68 -176zM133 162l4 -27q-145 -145 -248 -145q-112 0 -112 112q0 104 98 220q109 129 201 129q74 0 74 -82q0 -85 -108 -168q-78 -61 -183 -101v-8q0 -63 65 -63q74 0 209 133zM105 682
q-153 -143 -176 -143q-17 0 -17 14q82 92 199 229h20q22 -103 78 -198q15 -26 15 -31q0 -12 -13 -12q-28 0 -106 141z" />
    <glyph glyph-name="edieresis" unicode="&#xeb;" horiz-adv-x="446" 
d="M-141 127q86 38 152 95q87 76 87 149q0 51 -41 51q-67 0 -130 -119q-45 -83 -68 -176zM133 162l4 -27q-145 -145 -248 -145q-112 0 -112 112q0 104 98 220q109 129 201 129q74 0 74 -82q0 -85 -108 -168q-78 -61 -183 -101v-8q0 -63 65 -63q74 0 209 133zM144 655
q0 45 43 45q45 0 45 -49q0 -39 -43 -39q-45 0 -45 43zM-49 655q0 45 43 45q45 0 45 -49q0 -39 -45 -39q-43 0 -43 43z" />
    <glyph glyph-name="igrave" unicode="&#xec;" horiz-adv-x="342" 
d="M-102 430l94 19q-105 -304 -105 -365q0 -25 29 -25q26 0 127 111l14 -20q-137 -158 -202 -158q-50 0 -50 69q0 32 40 176q52 190 53 193zM50 547q-34 0 -111 74q-86 83 -86 133q0 39 37 39q30 0 43 -58q9 -39 16 -55q9 -21 62 -62q45 -34 45 -65q-2 -6 -6 -6z" />
    <glyph glyph-name="iacute" unicode="&#xed;" horiz-adv-x="342" 
d="M-102 430l94 19q-105 -304 -105 -365q0 -25 29 -25q26 0 127 111l14 -20q-137 -158 -202 -158q-50 0 -50 69q0 32 40 176q52 190 53 193zM-75 555q0 6 62 46q67 43 77 58q2 3 30 75q20 52 44 52q37 0 37 -30q0 -57 -105 -140q-87 -69 -133 -69q-12 0 -12 8z" />
    <glyph glyph-name="icircumflex" unicode="&#xee;" horiz-adv-x="342" 
d="M-102 430l94 19q-105 -304 -105 -365q0 -25 29 -25q26 0 127 111l14 -20q-137 -158 -202 -158q-50 0 -50 69q0 32 40 176q52 190 53 193zM11 682q-153 -143 -176 -143q-17 0 -17 14q82 92 199 229h20q22 -103 78 -198q15 -26 15 -31q0 -12 -13 -12q-28 0 -106 141z" />
    <glyph glyph-name="idieresis" unicode="&#xef;" horiz-adv-x="342" 
d="M-102 430l94 19q-105 -304 -105 -365q0 -25 29 -25q26 0 127 111l14 -20q-137 -158 -202 -158q-50 0 -50 69q0 32 40 176q52 190 53 193zM50 655q0 45 43 45q45 0 45 -49q0 -39 -43 -39q-45 0 -45 43zM-143 655q0 45 43 45q45 0 45 -49q0 -39 -45 -39q-43 0 -43 43z" />
    <glyph glyph-name="eth" unicode="&#xf0;" horiz-adv-x="483" 
d="M125 437q-8 142 -45 257l-201 -61l-6 24l197 66q-34 121 -133 242l12 14q86 -80 168 -242l202 62l7 -25l-195 -63q74 -210 74 -344q0 -156 -66 -259q-78 -122 -225 -122q-64 0 -102 46q-35 43 -35 109q0 115 79 210q84 100 197 100q25 0 72 -14zM57 426q-85 0 -152 -129
q-57 -111 -57 -205q0 -82 76 -82q86 0 150 131q55 111 55 207q0 78 -72 78z" />
    <glyph glyph-name="ntilde" unicode="&#xf1;" horiz-adv-x="592" 
d="M-176 -4h-68q80 244 117 416l94 41q-6 -37 -54 -188q-30 -94 -50 -163q209 347 303 347q67 0 67 -80q0 -51 -44 -156.5t-44 -142.5q0 -29 29 -29q40 0 135 117l15 -21q-126 -147 -189 -147q-67 0 -67 67q0 25 31 102l20 50q53 136 53 168q0 37 -35 37q-76 0 -313 -418z
M-52 584l-16 4q4 129 88 129q31 0 104 -33t105 -33q42 0 66 88h20q-12 -139 -92 -139q-33 0 -109 33t-104 33q-48 0 -62 -82z" />
    <glyph glyph-name="ograve" unicode="&#xf2;" horiz-adv-x="483" 
d="M-221 143q0 115 78 209q83 99 196 99q144 0 144 -160q0 -122 -80 -212q-82 -93 -203 -93q-64 0 -101 48q-34 43 -34 109zM53 426q-62 0 -127 -96q-78 -114 -78 -236q0 -84 76 -84q86 0 149 131q54 111 54 207q0 78 -74 78zM166 547q-34 0 -111 74q-86 83 -86 133
q0 39 37 39q30 0 43 -58q9 -39 16 -55q9 -21 62 -62q45 -34 45 -65q-2 -6 -6 -6z" />
    <glyph glyph-name="oacute" unicode="&#xf3;" horiz-adv-x="483" 
d="M-221 143q0 115 78 209q83 99 196 99q144 0 144 -160q0 -122 -80 -212q-82 -93 -203 -93q-64 0 -101 48q-34 43 -34 109zM53 426q-62 0 -127 -96q-78 -114 -78 -236q0 -84 76 -84q86 0 149 131q54 111 54 207q0 78 -74 78zM41 555q0 6 62 46q67 43 77 58q2 3 30 75
q20 52 44 52q37 0 37 -30q0 -57 -105 -140q-87 -69 -133 -69q-12 0 -12 8z" />
    <glyph glyph-name="ocircumflex" unicode="&#xf4;" horiz-adv-x="483" 
d="M-221 143q0 115 78 209q83 99 196 99q144 0 144 -160q0 -122 -80 -212q-82 -93 -203 -93q-64 0 -101 48q-34 43 -34 109zM53 426q-62 0 -127 -96q-78 -114 -78 -236q0 -84 76 -84q86 0 149 131q54 111 54 207q0 78 -74 78zM127 682q-153 -143 -176 -143q-17 0 -17 14
q82 92 199 229h20q22 -103 78 -198q15 -26 15 -31q0 -12 -13 -12q-28 0 -106 141z" />
    <glyph glyph-name="otilde" unicode="&#xf5;" horiz-adv-x="483" 
d="M-221 143q0 115 78 209q83 99 196 99q144 0 144 -160q0 -122 -80 -212q-82 -93 -203 -93q-64 0 -101 48q-34 43 -34 109zM53 426q-62 0 -127 -96q-78 -114 -78 -236q0 -84 76 -84q86 0 149 131q54 111 54 207q0 78 -74 78zM-58 584l-16 4q4 129 88 129q31 0 104 -33
t105 -33q42 0 66 88h20q-12 -139 -92 -139q-33 0 -109 33t-104 33q-48 0 -62 -82z" />
    <glyph glyph-name="odieresis" unicode="&#xf6;" horiz-adv-x="483" 
d="M-221 143q0 115 78 209q83 99 196 99q144 0 144 -160q0 -122 -80 -212q-82 -93 -203 -93q-64 0 -101 48q-34 43 -34 109zM53 426q-62 0 -127 -96q-78 -114 -78 -236q0 -84 76 -84q86 0 149 131q54 111 54 207q0 78 -74 78zM166 655q0 45 43 45q45 0 45 -49q0 -39 -43 -39
q-45 0 -45 43zM-27 655q0 45 43 45q45 0 45 -49q0 -39 -45 -39q-43 0 -43 43z" />
    <glyph glyph-name="divide" unicode="&#xf7;" horiz-adv-x="1706" 
d="M854 365q42 0 70 -29.5t28 -71.5q0 -41 -28.5 -69.5t-69.5 -28.5t-69.5 28.5t-28.5 69.5t28.5 71t69.5 30zM254 651h1198v-82h-1198v82zM854 1055q42 0 70 -28.5t28 -70.5q0 -41 -28.5 -70.5t-69.5 -29.5t-69.5 29.5t-28.5 70.5t28.5 70t69.5 29z" />
    <glyph glyph-name="oslash" unicode="&#xf8;" horiz-adv-x="483" 
d="M127 399l-246 -376q27 -9 45 -9q62 0 115 72q36 49 65 121q31 79 31 133q0 29 -10 59zM-141 41l245 379q-14 10 -43 10q-73 0 -135 -90q-84 -121 -84 -242q0 -31 17 -57zM-156 12q-65 40 -65 135q0 116 79 208q83 96 197 96h33q24 0 32 -6l54 83h35l-64 -100
q56 -52 56 -129q0 -124 -82 -214q-84 -93 -207 -93q-19 0 -43 12l-55 -84h-35z" />
    <glyph glyph-name="ugrave" unicode="&#xf9;" 
d="M-106 428l77 23q-94 -333 -94 -390q0 -22 29 -22q78 0 280 395l88 4q-96 -322 -96 -356q0 -29 31 -29q29 0 123 103l14 -25q-119 -135 -184 -135q-62 0 -62 70q0 60 68 280q-194 -350 -291 -350q-74 0 -74 86q0 54 91 346zM181 547q-34 0 -111 74q-86 83 -86 133
q0 39 37 39q30 0 43 -58q9 -39 16 -55q9 -21 62 -62q45 -34 45 -65q-2 -6 -6 -6z" />
    <glyph glyph-name="uacute" unicode="&#xfa;" 
d="M-106 428l77 23q-94 -333 -94 -390q0 -22 29 -22q78 0 280 395l88 4q-96 -322 -96 -356q0 -29 31 -29q29 0 123 103l14 -25q-119 -135 -184 -135q-62 0 -62 70q0 60 68 280q-194 -350 -291 -350q-74 0 -74 86q0 54 91 346zM56 555q0 6 62 46q67 43 77 58q2 3 30 75
q20 52 44 52q37 0 37 -30q0 -57 -105 -140q-87 -69 -133 -69q-12 0 -12 8z" />
    <glyph glyph-name="ucircumflex" unicode="&#xfb;" 
d="M-106 428l77 23q-94 -333 -94 -390q0 -22 29 -22q78 0 280 395l88 4q-96 -322 -96 -356q0 -29 31 -29q29 0 123 103l14 -25q-119 -135 -184 -135q-62 0 -62 70q0 60 68 280q-194 -350 -291 -350q-74 0 -74 86q0 54 91 346zM142 682q-153 -143 -176 -143q-17 0 -17 14
q82 92 199 229h20q22 -103 78 -198q15 -26 15 -31q0 -12 -13 -12q-28 0 -106 141z" />
    <glyph glyph-name="udieresis" unicode="&#xfc;" 
d="M-106 428l77 23q-94 -333 -94 -390q0 -22 29 -22q78 0 280 395l88 4q-96 -322 -96 -356q0 -29 31 -29q29 0 123 103l14 -25q-119 -135 -184 -135q-62 0 -62 70q0 60 68 280q-194 -350 -291 -350q-74 0 -74 86q0 54 91 346zM181 655q0 45 43 45q45 0 45 -49q0 -39 -43 -39
q-45 0 -45 43zM-12 655q0 45 43 45q45 0 45 -49q0 -39 -45 -39q-43 0 -43 43z" />
    <glyph glyph-name="yacute" unicode="&#xfd;" horiz-adv-x="592" 
d="M53 -86q-217 -200 -217 -313q0 -52 33 -52q99 0 184 365zM-113 430l82 14l-9 -29q-87 -280 -87 -333q0 -47 31 -47q92 0 289 405h73l-106 -385l100 99l19 -19l-127 -121q-130 -489 -283 -489q-64 0 -64 65q0 131 254 365l103 371q-177 -328 -283 -328q-72 0 -72 88
q0 59 80 344zM72 555q0 6 62 46q67 43 77 58q2 3 30 75q20 52 44 52q37 0 37 -30q0 -57 -105 -140q-87 -69 -133 -69q-12 0 -12 8z" />
    <glyph glyph-name="thorn" unicode="&#xfe;" 
d="M131 1249l94 25l-372 -1243q70 177 118 257q100 171 203 171q59 0 93 -47q30 -42 30 -103q0 -116 -78 -210q-82 -99 -196 -99q-47 0 -99 31l15 26q34 -28 71 -28q75 0 127 80q86 131 86 231q0 90 -59 90q-123 0 -281 -389q-85 -210 -164 -492l-92 -16z" />
    <glyph glyph-name="ydieresis" unicode="&#xff;" horiz-adv-x="592" 
d="M53 -86q-217 -200 -217 -313q0 -52 33 -52q99 0 184 365zM-113 430l82 14l-9 -29q-87 -280 -87 -333q0 -47 31 -47q92 0 289 405h73l-106 -385l100 99l19 -19l-127 -121q-130 -489 -283 -489q-64 0 -64 65q0 131 254 365l103 371q-177 -328 -283 -328q-72 0 -72 88
q0 59 80 344zM197 655q0 45 43 45q45 0 45 -49q0 -39 -43 -39q-45 0 -45 43zM4 655q0 45 43 45q45 0 45 -49q0 -39 -45 -39q-43 0 -43 43z" />
    <glyph glyph-name="Cacute" unicode="&#x106;" horiz-adv-x="1081" 
d="M801 186l2 -32q-242 -162 -502 -162q-177 0 -279 107t-102 284q0 194 101 399q91 184 241 338q177 181 406 281q159 69 266 69q172 0 172 -135q0 -197 -475 -381l16 99q420 168 420 295q0 98 -127 98q-138 0 -325 -123q-142 -93 -273 -227q-138 -141 -228 -320
q-100 -201 -100 -377q0 -167 92.5 -263.5t258.5 -96.5q243 0 436 147zM885 1591q0 6 62 46q67 43 77 58q2 3 30 75q20 52 44 52q37 0 37 -30q0 -57 -105 -140q-87 -69 -133 -69q-12 0 -12 8z" />
    <glyph glyph-name="cacute" unicode="&#x107;" horiz-adv-x="446" 
d="M125 154v-27q-151 -133 -246 -133q-53 0 -85 34t-32 87q0 101 107 221q98 110 229 110q78 0 78 -34q0 -19 -18 -41q-84 43 -121 43q-50 0 -96 -56q-93 -114 -93 -231q0 -84 82 -84q75 0 195 111zM27 555q0 6 62 46q67 43 77 58q2 3 30 75q20 52 44 52q37 0 37 -30
q0 -57 -105 -140q-87 -69 -133 -69q-12 0 -12 8z" />
    <glyph glyph-name="Ccaron" unicode="&#x10c;" horiz-adv-x="1081" 
d="M801 186l2 -32q-242 -162 -502 -162q-177 0 -279 107t-102 284q0 194 101 399q91 184 241 338q177 181 406 281q159 69 266 69q172 0 172 -135q0 -197 -475 -381l16 99q420 168 420 295q0 98 -127 98q-138 0 -325 -123q-142 -93 -273 -227q-138 -141 -228 -320
q-100 -201 -100 -377q0 -167 92.5 -263.5t258.5 -96.5q243 0 436 147zM950 1675q153 143 176 143q17 0 17 -14q-82 -92 -199 -229h-20q-22 103 -78 198q-15 26 -15 31q2 14 13 14q25 0 106 -143z" />
    <glyph glyph-name="ccaron" unicode="&#x10d;" horiz-adv-x="446" 
d="M125 154v-27q-151 -133 -246 -133q-53 0 -85 34t-32 87q0 101 107 221q98 110 229 110q78 0 78 -34q0 -19 -18 -41q-84 43 -121 43q-50 0 -96 -56q-93 -114 -93 -231q0 -84 82 -84q75 0 195 111zM92 639q153 143 176 143q17 0 17 -14q-82 -92 -199 -229h-20
q-22 103 -78 198q-15 26 -15 31q2 14 13 14q25 0 106 -143z" />
    <glyph glyph-name="Dslash" unicode="&#x110;" horiz-adv-x="1712" 
d="M1063 1161q-67 -226 -170 -499h266l-10 -37h-272q-135 -315 -320 -484q229 -75 414 -75q465 0 465 409q0 184 -115 379q-99 167 -258 307zM428 100q-154 54 -276 54q-191 0 -191 -78q0 -76 176 -76q155 0 291 100zM492 78q-168 -111 -342 -111q-84 0 -149 20
q-97 29 -97 95q0 72 108 107q75 24 166 24q130 0 324 -53q177 189 291 465h-203l10 37h207q126 320 199 555q-313 231 -603 231q-204 0 -204 -139q0 -137 243 -338l-75 -37q-222 202 -222 356q0 189 271 189q318 0 614 -193l45 135l88 31l-71 -213q403 -337 403 -698
q0 -253 -153.5 -402t-407.5 -149q-201 0 -442 88z" />
    <glyph glyph-name="dcroat" unicode="&#x111;" 
d="M111 426q-96 0 -178 -104q-78 -98 -78 -197q0 -88 65 -88q62 0 143 113q101 140 101 212q0 64 -53 64zM340 160l2 -35q-112 -127 -176 -127q-61 0 -60 74q1 32 27 143q-127 -219 -246 -219q-53 0 -84.5 34t-31.5 87q0 111 127 237q96 95 211 95q38 0 81 -17l168 574h-143
l12 32h142l63 226l109 47l-86 -273h118l-12 -32h-117l-204 -652q-64 -205 -64 -252q0 -48 29 -49q41 -1 135 107z" />
    <glyph glyph-name="Gbreve" unicode="&#x11e;" horiz-adv-x="1118" 
d="M-70 -456l-18 79q177 -61 281 -61q185 0 295 169q72 111 128 337q-170 -76 -309 -76q-185 0 -294 109t-109 294q0 327 301 660q153 170 345 282q224 131 421 131q178 0 178 -149q0 -176 -363 -414l-69 49q383 246 383 387q0 48 -53 75q-42 22 -95 22q-115 0 -277 -88
q-131 -72 -241 -170q-185 -164 -301 -362q-135 -231 -135 -445q0 -152 89 -249q93 -101 243 -101q147 0 311 122q14 99 55 187q57 123 133 123q25 0 25 -25q0 -8 -19 -37q-23 -33 -26 -39q-36 -75 -78 -207q-65 -203 -69 -213q-72 -204 -188 -300q-127 -105 -333 -105
q-98 0 -211 15zM736 1757q0 14 14 14q8 0 19 -25q2 -5 5 -13q33 -74 109 -74q69 0 144 53l75 53q12 0 12 -10q0 -27 -86 -90q-69 -51 -139 -51q-61 0 -107 41.5t-46 101.5z" />
    <glyph glyph-name="gbreve" unicode="&#x11f;" 
d="M70 -39q-83 -67 -165 -162q-110 -127 -110 -194q0 -51 45 -51q100 0 230 407zM131 211q-153 -211 -256 -211q-96 0 -96 113q0 117 129 235q113 103 250 103q35 0 104 -13l-16 -43q-63 25 -103 25q-102 0 -180 -84q-102 -109 -102 -221q0 -64 49 -64q112 0 280 309l54 -18
l-76 -281q66 46 113 99l16 -23q-76 -67 -141 -114q-127 -496 -326 -496q-68 0 -68 78q0 148 318 393zM-14 721q0 14 14 14q8 0 19 -25q2 -5 5 -13q33 -74 109 -74q69 0 144 53l75 53q12 0 12 -10q0 -27 -86 -90q-69 -51 -139 -51q-61 0 -107 41.5t-46 101.5z" />
    <glyph glyph-name="Idotaccent" unicode="&#x130;" horiz-adv-x="973" 
d="M588 524q235 595 235 822q0 94 -47 94q-44 0 -102 -84q-193 -281 -193 -555q0 -193 107 -277zM-313 78l39 61q218 -108 352 -108q183 0 314 145q91 101 181 311q-170 119 -170 355q0 212 156 438q133 193 227 193q91 0 91 -164q0 -326 -213 -832q56 -23 149 -39l-6 -28
q-61 7 -156 34q-192 -446 -579 -446q-175 0 -385 80zM774 1691q0 54 51 54q54 0 54 -58q0 -47 -54 -47q-51 0 -51 51z" />
    <glyph glyph-name="dotlessi" unicode="&#x131;" horiz-adv-x="342" 
d="M-102 430l94 19q-105 -304 -105 -365q0 -25 29 -25q26 0 127 111l14 -20q-137 -158 -202 -158q-50 0 -50 69q0 32 40 176q52 190 53 193z" />
    <glyph glyph-name="Lslash" unicode="&#x141;" horiz-adv-x="1161" 
d="M383 147q-191 -174 -436 -174q-87 0 -157 35q-87 44 -87 123q0 92 107 135q77 31 184 31q173 0 401 -80q74 124 148 387l-246 -90l16 47l242 86q71 259 186 483q173 340 342 340q61 0 94 -56q27 -46 27 -111q0 -104 -98 -373l-92 -27q135 351 135 440q0 93 -68 93
q-198 0 -413 -752l243 88l-16 -45l-242 -88q-96 -283 -227 -438q302 -123 459 -131l-72 -74q-187 35 -430 151zM342 160q-216 90 -389 90q-219 0 -219 -123q0 -67 83 -100q60 -23 140 -23q215 0 385 156z" />
    <glyph glyph-name="lslash" unicode="&#x142;" horiz-adv-x="379" 
d="M88 162l10 -29q-129 -141 -198 -141q-64 0 -64 65q0 52 47 250l-129 -65l17 43l120 63q84 325 182 595q177 487 300 487q43 0 43 -97q0 -300 -412 -858q-5 -32 -27 -94l129 65l-16 -43l-123 -64q-2 -10 -14 -58q-43 -179 -43 -207q0 -25 35 -25q40 0 143 113zM23 543
q364 540 364 790q0 49 -16 49q-74 0 -208 -383q-75 -215 -140 -456z" />
    <glyph glyph-name="OE" unicode="&#x152;" horiz-adv-x="2157" 
d="M1855 104q-324 -110 -550 -110q-317 0 -373 237q-235 -241 -516 -241q-231 0 -358 161q-117 147 -117 384q0 332 213 610q244 319 591 319q213 0 347 -144q131 -140 131 -355q0 -196 -60 -312q115 97 320 213q-92 156 -92 203q0 134 225 272q204 125 412 125
q69 0 118 -25q64 -31 64 -93q0 -70 -150 -306l-51 70q119 171 119 242q0 39 -42 62q-36 20 -77 20q-147 0 -332 -123q-217 -145 -217 -271q0 -50 33 -121t33 -73q0 -49 -129 -131q-91 -58 -144 -99q-270 -208 -270 -385q0 -102 85 -154q70 -42 179 -42q295 0 631 174z
M1124 989q0 190 -86 309q-98 136 -280 136q-214 0 -398 -181q-153 -151 -243 -363.5t-90 -426.5q0 -184 98 -309q107 -136 287 -136q149 0 297 113q121 92 219 238q196 293 196 620z" />
    <glyph glyph-name="oe" unicode="&#x153;" horiz-adv-x="754" 
d="M164 127q80 36 149 95q90 77 90 143q0 51 -43 51q-66 0 -129 -116q-44 -82 -67 -173zM55 426q-66 0 -127 -88q-78 -112 -78 -238q0 -82 74 -82q86 0 151 131q56 111 56 207q0 70 -61 70h-15zM438 162l4 -27q-143 -145 -243 -145q-87 0 -109 67q-71 -67 -174 -67
q-64 0 -102 48q-35 44 -35 109q0 116 79 208q83 96 197 96q118 0 140 -111q94 104 184 104q76 0 76 -75q0 -85 -108 -168q-78 -61 -183 -101v-8q0 -63 65 -63q74 0 209 133z" />
    <glyph glyph-name="Scedilla" unicode="&#x15e;" horiz-adv-x="1157" 
d="M-326 94l66 74q237 -133 571 -133q174 0 303 65q164 82 164 240q0 101 -105 206q-40 41 -186 152q-127 96 -175 149q-91 100 -91 202q0 145 158 256q242 170 543 170q97 0 166 -31q92 -42 92 -127q0 -148 -283 -322l-94 49q149 93 186 121q125 97 125 172q0 57 -70 85
q-51 20 -118 20q-157 0 -338 -78q-102 -44 -186 -117q-107 -94 -107 -182q0 -57 63 -141q36 -47 145 -127q156 -115 163 -121q184 -153 184 -316q0 -197 -214 -293q-159 -71 -384 -71q-237 0 -578 98zM21 -229l12 24q76 -35 133 -35q127 0 127 80q0 62 -94 62q-10 0 -37 -4
h-6l64 114h28l-43 -78h25q125 0 125 -84q0 -58 -54 -92q-47 -30 -108 -30q-82 0 -172 43z" />
    <glyph glyph-name="scedilla" unicode="&#x15f;" horiz-adv-x="403" 
d="M-186 207l-15 14l176 190q17 111 82 111q35 0 35 -33q0 -18 -37 -52t-37 -38l35 -74q35 -74 35 -139q0 -84 -65 -139q-61 -53 -146 -53q-38 0 -77 14q-50 19 -50 51q0 33 33 33q21 0 66.5 -31.5t68.5 -31.5q48 0 76 44q24 38 24 89q0 49 -30 160q-9 32 -14 56zM-356 -229
l12 24q76 -35 133 -35q127 0 127 80q0 62 -94 62q-10 0 -37 -4h-6l64 114h28l-43 -78h25q125 0 125 -84q0 -58 -54 -92q-47 -30 -108 -30q-82 0 -172 43z" />
    <glyph glyph-name="Scaron" unicode="&#x160;" horiz-adv-x="1157" 
d="M-326 94l66 74q237 -133 571 -133q174 0 303 65q164 82 164 240q0 101 -105 206q-40 41 -186 152q-127 96 -175 149q-91 100 -91 202q0 145 158 256q242 170 543 170q97 0 166 -31q92 -42 92 -127q0 -148 -283 -322l-94 49q149 93 186 121q125 97 125 172q0 57 -70 85
q-51 20 -118 20q-157 0 -338 -78q-102 -44 -186 -117q-107 -94 -107 -182q0 -57 63 -141q36 -47 145 -127q156 -115 163 -121q184 -153 184 -316q0 -197 -214 -293q-159 -71 -384 -71q-237 0 -578 98zM911 1675q153 143 176 143q17 0 17 -14q-82 -92 -199 -229h-20
q-22 103 -78 198q-15 26 -15 31q2 14 13 14q25 0 106 -143z" />
    <glyph glyph-name="scaron" unicode="&#x161;" horiz-adv-x="403" 
d="M-186 207l-15 14l176 190q17 111 82 111q35 0 35 -33q0 -18 -37 -52t-37 -38l35 -74q35 -74 35 -139q0 -84 -65 -139q-61 -53 -146 -53q-38 0 -77 14q-50 19 -50 51q0 33 33 33q21 0 66.5 -31.5t68.5 -31.5q48 0 76 44q24 38 24 89q0 49 -30 160q-9 32 -14 56zM43 639
q153 143 176 143q17 0 17 -14q-82 -92 -199 -229h-20q-22 103 -78 198q-15 26 -15 31q2 14 13 14q25 0 106 -143z" />
    <glyph glyph-name="Ydieresis" unicode="&#x178;" horiz-adv-x="1190" 
d="M-119 -457l39 76q161 -51 260 -51q177 0 293 143q62 77 164 303q168 373 369 1090q-579 -1104 -879 -1104q-121 0 -121 154q0 128 150 563q34 98 78 224q137 390 137 454q0 32 -21 32q-78 0 -303 -426l-51 72q233 389 362 389q31 0 51 -31q19 -27 19 -59
q0 -133 -227 -804l-23 -68q-100 -296 -100 -398q0 -67 61 -67q196 0 557 590q224 366 408 764l86 8q-148 -520 -202 -688q-131 -417 -253 -668q-129 -266 -250 -375q-160 -145 -413 -145q-81 0 -191 22zM987 1691q0 45 43 45q45 0 45 -49q0 -39 -43 -39q-45 0 -45 43z
M794 1691q0 45 43 45q45 0 45 -49q0 -39 -45 -39q-43 0 -43 43z" />
    <glyph glyph-name="Zcaron" unicode="&#x17d;" horiz-adv-x="1200" 
d="M483 1069l-45 -61q-366 77 -366 227q0 142 264 202q159 36 369 36q146 0 315 -20q264 -30 264 -91q0 -64 -300 -308q-64 -52 -351 -270q-795 -604 -795 -680q0 -20 41 -20q7 0 47 3q198 15 396 15q335 0 579 -28l-51 -76q-144 18 -610 18q-193 0 -405 -17q-62 -5 -75 -5
q-41 0 -41 39q0 104 768 686q709 537 709 594q0 50 -248 74q-152 14 -297 14q-177 0 -311 -22q-240 -40 -240 -140q0 -79 162 -127q39 -11 221 -43zM932 1675q153 143 176 143q17 0 17 -14q-82 -92 -199 -229h-20q-22 103 -78 198q-15 26 -15 31q2 14 13 14q25 0 106 -143z
" />
    <glyph glyph-name="zcaron" unicode="&#x17e;" horiz-adv-x="455" 
d="M-264 0v33l372 339h-29q-20 -1 -30 -1q-7 0 -20.5 1t-20.5 1q-29 0 -78 -4q-59 -5 -77 -6l32 69q16 1 57 3q96 5 134 5q49 0 110 -4l-2 -18l-366 -348q15 0 46 -1t46 -1q74 0 188 8l-8 -76h-354zM67 639q153 143 176 143q17 0 17 -14q-82 -92 -199 -229h-20
q-22 103 -78 198q-15 26 -15 31q2 14 13 14q25 0 106 -143z" />
    <glyph glyph-name="florin" unicode="&#x192;" horiz-adv-x="739" 
d="M315 424h-135q-172 -774 -360 -774q-78 0 -78 155q0 119 72 279l84 37q-107 -240 -107 -393q0 -54 29 -54q109 0 280 750h-131l15 37h129q103 442 256 442q106 0 106 -147q0 -90 -22 -170l-86 -23q49 154 49 228q0 88 -49 88q-56 0 -117 -189q-9 -28 -60 -229h140z" />
    <glyph glyph-name="circumflex" unicode="&#x2c6;" horiz-adv-x="1024" 
d="M373 682q-153 -143 -176 -143q-17 0 -17 14q82 92 199 229h20q22 -103 78 -198q15 -26 15 -31q0 -12 -13 -12q-28 0 -106 141z" />
    <glyph glyph-name="caron" unicode="&#x2c7;" horiz-adv-x="1024" 
d="M352 639q153 143 176 143q17 0 17 -14q-82 -92 -199 -229h-20q-22 103 -78 198q-15 26 -15 31q2 14 13 14q25 0 106 -143z" />
    <glyph glyph-name="macron" unicode="&#xaf;" horiz-adv-x="1024" 
d="M446 633h-202q-49 0 -49 26q0 27 55 27h237q52 0 52 -22q0 -31 -93 -31z" />
    <glyph glyph-name="macron" unicode="&#x2c9;" horiz-adv-x="1024" 
d="M446 633h-202q-49 0 -49 26q0 27 55 27h237q52 0 52 -22q0 -31 -93 -31z" />
    <glyph glyph-name="breve" unicode="&#x2d8;" horiz-adv-x="1024" 
d="M197 721q0 14 14 14q8 0 19 -25q2 -5 5 -13q33 -74 109 -74q69 0 144 53l75 53q12 0 12 -10q0 -27 -86 -90q-69 -51 -139 -51q-61 0 -107 41.5t-46 101.5z" />
    <glyph glyph-name="dotaccent" unicode="&#x2d9;" horiz-adv-x="1024" 
d="M307 655q0 54 51 54q54 0 54 -58q0 -47 -54 -47q-51 0 -51 51z" />
    <glyph glyph-name="ring" unicode="&#x2da;" horiz-adv-x="1024" 
d="M217 692q0 66 44 109t110 43q65 0 108 -43.5t43 -108.5t-43 -109t-108 -44q-66 0 -110 43.5t-44 109.5zM252 692q0 -51 33 -85t84 -34q50 0 84 34.5t34 84.5q0 49 -34.5 83t-83.5 34q-50 0 -83.5 -33.5t-33.5 -83.5z" />
    <glyph glyph-name="ogonek" unicode="&#x2db;" horiz-adv-x="1024" 
d="M215 12q-147 -91 -147 -162q0 -73 82 -73q49 0 96 49l16 -10q-42 -78 -143 -78q-45 0 -77 24q-36 27 -36 70q0 94 172 180h37z" />
    <glyph glyph-name="tilde" unicode="&#x2dc;" horiz-adv-x="1024" 
d="M188 584l-16 4q4 129 88 129q31 0 104 -33t105 -33q42 0 66 88h20q-12 -139 -92 -139q-33 0 -109 33t-104 33q-48 0 -62 -82z" />
    <glyph glyph-name="hungarumlaut" unicode="&#x2dd;" horiz-adv-x="1024" 
d="M373 555q0 7 36 26q79 40 112 141q21 64 42 64q35 0 35 -30q0 -57 -94 -140q-78 -69 -121 -69q-10 0 -10 8zM225 555q0 2 43 30q47 31 54 38q19 19 51 97q28 66 43 66q35 0 35 -30q0 -57 -95 -140q-79 -69 -118 -69q-13 0 -13 8z" />
    <glyph glyph-name="Delta" unicode="&#x394;" horiz-adv-x="995" 
d="M485 1272l-391 -1172h768zM492 1497h26l486 -1497h-1010z" />
    <glyph glyph-name="Delta" unicode="&#x2206;" horiz-adv-x="995" 
d="M485 1272l-391 -1172h768zM492 1497h26l486 -1497h-1010z" />
    <glyph glyph-name="Omega" unicode="&#x3a9;" horiz-adv-x="1565" 
d="M1079 123v-23h318l78 232h59l-98 -332h-492q313 520 313 864q0 246 -110 397q-125 171 -361 171q-235 0 -361 -171q-112 -153 -112 -397q0 -349 314 -864h-492l-98 332h59l78 -232h318v23q-297 395 -297 760q0 272 158 441q163 173 433 173q271 0 433 -172
q159 -169 159 -442q0 -361 -299 -760z" />
    <glyph glyph-name="Omega" unicode="&#x2126;" horiz-adv-x="1565" 
d="M1079 123v-23h318l78 232h59l-98 -332h-492q313 520 313 864q0 246 -110 397q-125 171 -361 171q-235 0 -361 -171q-112 -153 -112 -397q0 -349 314 -864h-492l-98 332h59l78 -232h318v23q-297 395 -297 760q0 272 158 441q163 173 433 173q271 0 433 -172
q159 -169 159 -442q0 -361 -299 -760z" />
    <glyph glyph-name="mu" unicode="&#xb5;" horiz-adv-x="1051" 
d="M162 190q-21 -129 -41 -330q-28 -276 -101 -276q-69 0 -69 62q0 96 65 351q92 365 93 368l108 520h119l-111 -518q-8 -37 -8 -88q0 -86 40 -144q46 -67 128 -67q203 0 279 335l110 482h119l-117 -527q-26 -117 -26 -178q0 -94 75 -94q89 0 131 102q16 39 30 79
q25 71 44 71q27 0 27 -31q0 -79 -53 -176q-80 -145 -211 -145q-144 0 -144 174q0 6 1 16.5t1 16.5q-85 -213 -270 -213q-190 0 -219 210z" />
    <glyph glyph-name="mu" unicode="&#x3bc;" horiz-adv-x="1051" 
d="M162 190q-21 -129 -41 -330q-28 -276 -101 -276q-69 0 -69 62q0 96 65 351q92 365 93 368l108 520h119l-111 -518q-8 -37 -8 -88q0 -86 40 -144q46 -67 128 -67q203 0 279 335l110 482h119l-117 -527q-26 -117 -26 -178q0 -94 75 -94q89 0 131 102q16 39 30 79
q25 71 44 71q27 0 27 -31q0 -79 -53 -176q-80 -145 -211 -145q-144 0 -144 174q0 6 1 16.5t1 16.5q-85 -213 -270 -213q-190 0 -219 210z" />
    <glyph glyph-name="pi" unicode="&#x3c0;" horiz-adv-x="1298" 
d="M1268 885l-25 -109h-311q-32 -229 -65 -458q-59 -361 -126 -361q-75 0 -75 80q0 33 95 348q109 364 116 391h-361l-64 -458q-59 -361 -126 -361q-76 0 -76 80q0 33 95 348q109 364 116 391h-189q-87 0 -133 -85q-23 -45 -49 -163h-65q29 171 91 253q80 104 236 104h916z
" />
    <glyph glyph-name="endash" unicode="&#x2013;" horiz-adv-x="1024" 
d="M-262 205l24 47h1024l-24 -47h-1024z" />
    <glyph glyph-name="emdash" unicode="&#x2014;" horiz-adv-x="2048" 
d="M-262 207l24 51h2048l-24 -51h-2048z" />
    <glyph glyph-name="quoteleft" unicode="&#x2018;" horiz-adv-x="256" 
d="M193 1477l10 -15q-31 -38 -44 -57q-27 -40 -28 -65q70 -7 70 -54q0 -59 -54 -59q-59 0 -59 71q0 86 105 179z" />
    <glyph glyph-name="quoteright" unicode="&#x2019;" horiz-adv-x="256" 
d="M94 1225l-14 14q65 65 75 123q-71 6 -71 53q0 62 55 62q60 0 60 -74q0 -85 -105 -178z" />
    <glyph glyph-name="quotesinglbase" unicode="&#x201a;" horiz-adv-x="256" 
d="M-147 -145l-15 14q65 65 75 123q-70 6 -71 53q-1 61 54 61q59 0 59 -73q0 -88 -102 -178z" />
    <glyph glyph-name="quotedblleft" unicode="&#x201c;" horiz-adv-x="455" 
d="M391 1477l10 -15q-30 -37 -44 -57q-26 -39 -27 -65q69 -7 69 -54q0 -59 -53 -59q-57 0 -57 71q0 87 102 179zM193 1477l10 -15q-31 -38 -44 -57q-27 -40 -28 -65q70 -7 70 -54q0 -59 -54 -59q-59 0 -59 71q0 86 105 179z" />
    <glyph glyph-name="quotedblright" unicode="&#x201d;" horiz-adv-x="455" 
d="M297 1225l-14 14q63 65 75 123q-71 6 -71 53q0 62 55 62q59 0 59 -74q0 -86 -104 -178zM94 1225l-14 14q65 65 75 123q-71 6 -71 53q0 62 55 62q60 0 60 -74q0 -85 -105 -178z" />
    <glyph glyph-name="quotedblbase" unicode="&#x201e;" horiz-adv-x="455" 
d="M-135 -145l-15 14q64 64 76 122q-71 7 -71 54q0 61 55 61q59 0 59 -73q0 -86 -104 -178zM68 -145l-15 14q64 64 76 123q-71 5 -72 53q-1 61 56 61q59 0 59 -73q0 -86 -104 -178z" />
    <glyph glyph-name="dagger" unicode="&#x2020;" horiz-adv-x="750" 
d="M51 -150l-57 87q165 441 313 1017h-358l26 52h342q39 163 74 413l109 39q-36 -182 -101 -452h344l-24 -52h-330q-117 -432 -153 -557q-92 -315 -185 -547z" />
    <glyph glyph-name="daggerdbl" unicode="&#x2021;" horiz-adv-x="750" 
d="M51 -150l-57 87l141 403h-317l14 51h313q52 134 168 592h-323l14 51h320q35 169 67 385l109 39q-23 -101 -80 -359l-14 -65h309l-15 -51h-305q-38 -149 -77 -298q-47 -176 -91 -294h316l-15 -51h-311q-87 -280 -166 -490z" />
    <glyph glyph-name="bullet" unicode="&#x2022;" horiz-adv-x="1208" 
d="M307 762q0 124 86.5 209.5t210.5 85.5q123 0 209 -86t86 -209t-87 -210t-210 -87q-124 0 -209.5 86.5t-85.5 210.5z" />
    <glyph glyph-name="ellipsis" unicode="&#x2026;" horiz-adv-x="2048" 
d="M-10 57q0 24 18 41t42 17q57 0 57 -60q0 -55 -55 -55q-62 0 -62 57zM672 57q0 24 18 41t42 17q57 0 57 -60q0 -55 -55 -55q-62 0 -62 57zM1356 57q0 24 18 41t42 17q57 0 57 -60q0 -55 -55 -55q-62 0 -62 57z" />
    <glyph glyph-name="perthousand" unicode="&#x2030;" horiz-adv-x="1778" 
d="M1348 489q-65 0 -115 -71q-103 -145 -103 -307q0 -109 80 -109q67 0 123 82q97 143 97 301q0 104 -82 104zM1063 170q0 117 75 226q83 120 195 120q77 0 119 -59q37 -53 37 -133q0 -121 -72 -228q-80 -119 -196 -119q-79 0 -121 59q-37 52 -37 134zM817 489
q-65 0 -115 -71q-102 -146 -102 -307q0 -109 80 -109q65 0 121 82q98 143 98 301q0 104 -82 104zM530 170q0 117 76 226q83 120 195 120q77 0 119 -60q38 -52 38 -132q0 -121 -72 -228q-80 -119 -196 -119q-79 0 -122 59q-38 52 -38 134zM4 465q0 -115 82 -115q72 0 129 92
q33 53 58.5 140t25.5 149q0 107 -78 107q-93 0 -160 -146q-57 -122 -57 -227zM154 -186l-54 -2l537 1032q-108 -53 -182 -53q-62 0 -140 20q43 -66 43 -147q0 -116 -75 -222q-82 -116 -193 -116q-74 0 -118 61q-40 54 -40 131q0 119 77 228q85 120 200 120q30 0 108 -24.5
t125 -24.5q117 0 242 96l39 -2z" />
    <glyph glyph-name="guilsinglleft" unicode="&#x2039;" horiz-adv-x="371" 
d="M137 436q-120 -99 -268 -192l147 -248l-71 -25l-142 244l275 221h59z" />
    <glyph glyph-name="guilsinglright" unicode="&#x203a;" horiz-adv-x="371" 
d="M-266 -29q112 94 268 195l-147 246l71 24l142 -243l-275 -222h-59z" />
    <glyph glyph-name="fraction" unicode="&#x2044;" horiz-adv-x="342" 
d="M-336 -10h-49l661 893h52z" />
    <glyph glyph-name="franc" unicode="&#x20a3;" horiz-adv-x="1536" 
d="M471 1071l-51 -65q-365 66 -365 235q0 140 303 199q179 35 404 35q262 0 514 -39l-64 -72q-291 39 -591 39q-535 0 -535 -158q0 -85 160 -132q66 -20 225 -42zM-313 82l55 51q155 -119 354 -119q381 0 576 447h-215l16 47h219q119 322 269 782l106 43q-90 -277 -281 -825
h181l-15 -47h-180q-188 -477 -682 -477q-219 0 -403 98zM964 0h-61l86 414l78 24l-60 -305q147 305 222 305q45 0 45 -67q0 -16 -10 -80l-1 -4l-71 -51q12 92 12 110q0 29 -14 29q-44 0 -226 -375z" />
    <glyph glyph-name="u20AB" unicode="&#x20ab;" horiz-adv-x="472" 
d="M100 811q-74 0 -138 -80q-59 -76 -59 -153q0 -68 50 -68q47 0 110 88q78 108 78 164q0 49 -41 49zM277 605l2 -27q-87 -98 -136 -98q-48 0 -47 57q1 25 21 111q-98 -169 -190 -169q-89 0 -89 93q0 86 98 183q74 74 163 74q29 0 62 -13l130 443h-110l9 25h110l48 174
l85 37l-67 -211h91l-9 -25h-90l-158 -504q-49 -158 -49 -194q0 -38 22 -38q32 -1 104 82zM-137 399h238v-62h-238v62z" />
    <glyph glyph-name="trademark" unicode="&#x2122;" horiz-adv-x="1683" 
d="M801 1432h170l145 -414l158 414h162v-25h-31q-49 0 -49 -55v-369q0 -55 49 -55h31v-25h-228v25h31q49 0 49 55v406l-186 -490h-8l-174 487v-403q0 -55 49 -55h30v-25h-198v23h30q50 0 50 57v367q0 57 -50 57h-30v25zM264 1432h436l11 -175h-23q-15 152 -143 152h-23v-426
q0 -55 49 -55h31v-25h-242v25h33q49 0 49 55v426h-22q-129 0 -144 -152h-22z" />
    <glyph glyph-name="partialdiff" unicode="&#x2202;" horiz-adv-x="1024" 
d="M750 578q22 138 22 305q0 354 -154 354q-39 0 -99.5 -73.5t-108.5 -73.5q-68 0 -68 65q0 69 74 110q61 35 135 35q188 0 279 -192q69 -145 69 -356q0 -266 -96 -489q-126 -290 -359 -290q-152 0 -236 120q-73 106 -73 265q0 164 99 288q106 132 266 132q191 0 250 -200z
M713 459q0 256 -185 256q-141 0 -212 -167q-52 -125 -52 -288q0 -242 185 -242q136 0 208 162q56 125 56 279z" />
    <glyph glyph-name="product" unicode="&#x220f;" horiz-adv-x="1538" 
d="M61 1473h1416v-64h-187v-1739h187v-63h-494v63h207v1739h-842v-1739h207v-63h-494v63h187v1739h-187v64z" />
    <glyph glyph-name="summation" unicode="&#x2211;" horiz-adv-x="1384" 
d="M8 1473h1090l80 -304h-68l-55 209q-8 31 -49 31h-824l951 -879v-36l-914 -789h895q57 0 74 8q27 12 41 58l71 229h68l-119 -393h-1237v10l1018 872l-1022 941v43z" />
    <glyph glyph-name="minus" unicode="&#x2212;" horiz-adv-x="1706" 
d="M254 651h1198v-82h-1198v82z" />
    <glyph glyph-name="periodcentered" horiz-adv-x="371" 
d="M-76 438q0 60 58 60q61 0 61 -60q0 -59 -61 -59q-58 0 -58 59z" />
    <glyph glyph-name="radical" unicode="&#x221a;" horiz-adv-x="1264" 
d="M1092 1626h172v-61h-129l-596 -1606h-31l-330 907l-110 -39l-15 50l230 79l278 -759z" />
    <glyph glyph-name="infinity" unicode="&#x221e;" horiz-adv-x="1706" 
d="M889 557q107 -205 287 -205q113 0 181 84q64 78 64 193q0 109 -56 187q-62 87 -167 87q-107 0 -196 -126q-49 -69 -113 -220zM819 670q-104 204 -287 204q-113 0 -181 -83q-64 -77 -64 -193q0 -108 56 -186q62 -86 167 -86q109 0 197 125q48 68 112 219zM870 510
q-135 -266 -321 -266q-141 0 -230 116q-81 107 -81 252q0 150 68 252q79 117 222 117q190 0 308 -268q130 274 323 274q142 0 229 -118q80 -107 80 -253q0 -150 -68 -253q-80 -119 -222 -119q-175 0 -308 266z" />
    <glyph glyph-name="integral" unicode="&#x222b;" horiz-adv-x="948" 
d="M401 578q0 366 41 569q81 399 314 399q61 0 102 -31q45 -35 45 -94q0 -98 -102 -98q-62 0 -101.5 64.5t-33.5 64.5q-95 0 -116 -391q-3 -51 -3 -455q0 -375 -39 -574q-80 -403 -315 -403q-58 0 -100 30q-48 34 -48 89q0 107 105 107q63 0 96 -56q1 -2 12 -45
q8 -30 25 -30q93 0 115 394q3 64 3 460z" />
    <glyph glyph-name="approxequal" unicode="&#x2248;" horiz-adv-x="1706" 
d="M1530 578v-93q-211 -147 -387 -147q-100 0 -292 70.5t-286 70.5q-157 0 -387 -160v93q209 145 387 145q100 0 291.5 -69.5t286.5 -69.5q157 0 387 160zM1530 903v-94q-209 -145 -387 -145q-100 0 -291.5 69.5t-286.5 69.5q-157 0 -387 -160v92q209 148 387 148
q100 0 292 -71t286 -71q151 0 387 162z" />
    <glyph glyph-name="approxequal" unicode="&#x22f2;" horiz-adv-x="1706" 
d="M1530 578v-93q-211 -147 -387 -147q-100 0 -292 70.5t-286 70.5q-157 0 -387 -160v93q209 145 387 145q100 0 291.5 -69.5t286.5 -69.5q157 0 387 160zM1530 903v-94q-209 -145 -387 -145q-100 0 -291.5 69.5t-286.5 69.5q-157 0 -387 -160v92q209 148 387 148
q100 0 292 -71t286 -71q151 0 387 162z" />
    <glyph glyph-name="notequal" unicode="&#x2260;" horiz-adv-x="1706" 
d="M1217 1157l63 -49l-217 -277h389v-79h-440l-219 -283h659v-82h-711l-254 -324l-61 48l215 276h-387v82h436l221 283h-657v79h709z" />
    <glyph glyph-name="lessequal" unicode="&#x2264;" horiz-adv-x="1706" 
d="M264 129h1178v-80h-1178v80zM1442 1171v-88l-1043 -350l1043 -352v-88l-1178 405v70z" />
    <glyph glyph-name="greaterequal" unicode="&#x2265;" horiz-adv-x="1706" 
d="M264 129h1178v-80h-1178v80zM264 1171l1178 -403v-70l-1178 -405v88l1043 352l-1043 350v88z" />
    <glyph glyph-name="glyph255" horiz-adv-x="1024" 
d="M287 555q0 6 62 46q67 43 77 58q2 3 30 75q20 52 44 52q37 0 37 -30q0 -57 -105 -140q-87 -69 -133 -69q-12 0 -12 8z" />
    <glyph glyph-name="house" unicode="&#x2302;" horiz-adv-x="1024" 
d="M412 547q-34 0 -111 74q-86 83 -86 133q0 39 37 39q30 0 43 -58q9 -39 16 -55q9 -21 62 -62q45 -34 45 -65q-2 -6 -6 -6z" />
    <glyph glyph-name="glyph257" horiz-adv-x="494" 
d="M47 471h-20q58 257 225 457q28 33 90 101q156 170 156 261q0 103 -105 103q-151 0 -299 -303l-47 61q144 270 330 270q72 0 119 -43t47 -114q0 -149 -267 -423q-3 -3 -40 -42q-124 -130 -189 -328zM-74 0q-61 0 -61 55q0 58 61 58q54 0 54 -60q0 -53 -54 -53z" />
    <glyph glyph-name="revlogicalnot" unicode="&#x2310;" horiz-adv-x="371" 
d="M-166 57q0 24 18 41t42 17q57 0 57 -60q0 -55 -55 -55q-62 0 -62 57z" />
    <glyph glyph-name="SF370000" unicode="&#x255f;" horiz-adv-x="1341" 
d="M911 403h-49q-167 0 -274 21q113 -137 215 -358zM537 471q127 -37 307 -37q12 0 53 3q14 1 23 1l227 674q63 187 63 236q0 28 -12 28q-30 0 -319 -411zM-647 47l76 51q204 -84 344 -84q241 0 478 207q161 140 347 408l135 194q449 645 506 645q55 0 55 -94
q0 -153 -168 -639l-102 -295h20q19 0 62 4h6l-2 -32q-36 -6 -74 -6h-26l-136 -406l-79 -4q-146 336 -281 448q-350 -467 -793 -467q-162 0 -368 70z" />
    <glyph glyph-name="SF420000" unicode="&#x2560;" horiz-adv-x="1042" 
d="M762 211l-23 -107q-322 -110 -557 -110q-154 0 -253 62q-117 74 -117 220q0 286 550 601q-90 144 -90 192q0 132 228 272q206 127 422 127q170 0 170 -120q0 -71 -150 -306l-49 70q119 172 119 240q0 82 -111 82q-114 0 -248 -68q-309 -157 -309 -324q0 -50 33 -121
t33 -73q0 -49 -129 -131q-93 -59 -144 -99q-272 -212 -272 -385q0 -102 85 -154q70 -42 179 -42q299 0 633 174z" />
    <glyph glyph-name="SF190000" unicode="&#x2561;" horiz-adv-x="973" 
d="M588 524q235 595 235 822q0 94 -47 94q-44 0 -102 -84q-193 -281 -193 -555q0 -193 107 -277zM-313 78l39 61q218 -108 352 -108q183 0 314 145q91 101 181 311q-170 119 -170 355q0 212 156 438q133 193 227 193q91 0 91 -164q0 -326 -213 -832q56 -23 149 -39l-6 -28
q-61 7 -156 34q-192 -446 -579 -446q-175 0 -385 80z" />
    <glyph glyph-name="SF200000" unicode="&#x2562;" horiz-adv-x="1341" 
d="M1124 989q0 190 -86 309q-98 136 -280 136q-214 0 -398 -181q-153 -151 -243 -363.5t-90 -426.5q0 -184 98 -309q107 -136 287 -136q149 0 297 113q121 92 219 238q196 293 196 620zM-59 539q0 328 213 606q245 319 591 319q229 0 361 -160q123 -148 123 -382
q0 -347 -250.5 -639.5t-560.5 -292.5q-234 0 -361 161q-116 148 -116 388z" />
    <glyph glyph-name="SF230000" unicode="&#x2563;" horiz-adv-x="1233" 
d="M63 999l-59 54q216 420 365 420q73 0 73 -107q0 -88 -123 -482l-10 -32q-176 -563 -176 -666q0 -137 123 -137q234 0 521 587q161 330 310 783l97 19q-262 -782 -377 -1440l-82 49q79 421 215 881q-391 -934 -711 -934q-178 0 -178 207q0 129 150 600q42 131 97 296
q83 248 83 279q0 54 -35 54q-74 0 -283 -431z" />
    <glyph glyph-name="SF470000" unicode="&#x2564;" horiz-adv-x="1190" 
d="M-119 -457l39 76q161 -51 260 -51q177 0 293 143q62 77 164 303q168 373 369 1090q-579 -1104 -879 -1104q-121 0 -121 154q0 128 150 563q34 98 78 224q137 390 137 454q0 32 -21 32q-78 0 -303 -426l-51 72q233 389 362 389q31 0 51 -31q19 -27 19 -59
q0 -133 -227 -804l-23 -68q-100 -296 -100 -398q0 -67 61 -67q196 0 557 590q224 366 408 764l86 8q-148 -520 -202 -688q-131 -417 -253 -668q-129 -266 -250 -375q-160 -145 -413 -145q-81 0 -191 22z" />
    <glyph glyph-name="SF480000" unicode="&#x2565;" 
d="M340 158l4 -27q-116 -133 -192 -133q-60 0 -60 63q0 59 49 191q-171 -254 -272 -254q-96 0 -96 106q0 92 112 222q110 127 224 127q20 0 68 -8q3 0 5 -1l-20 -41q-47 21 -76 21q-65 0 -117 -59q-116 -132 -116 -246q0 -62 53 -62q121 0 311 383l66 4l-107 -313
q-8 -23 -8 -41q0 -35 27 -35q48 0 145 103z" />
    <glyph glyph-name="SF410000" unicode="&#x2566;" horiz-adv-x="446" 
d="M-141 127q86 38 152 95q87 76 87 149q0 51 -41 51q-67 0 -130 -119q-45 -83 -68 -176zM133 162l4 -27q-145 -145 -248 -145q-112 0 -112 112q0 104 98 220q109 129 201 129q74 0 74 -82q0 -85 -108 -168q-78 -61 -183 -101v-8q0 -63 65 -63q74 0 209 133z" />
    <glyph glyph-name="SF450000" unicode="&#x2567;" horiz-adv-x="342" 
d="M-102 430l94 19q-105 -304 -105 -365q0 -25 29 -25q26 0 127 111l14 -20q-137 -158 -202 -158q-50 0 -50 69q0 32 40 176q52 190 53 193zM-25 662q0 51 50 51q45 0 45 -47q0 -52 -52 -52q-43 0 -43 48z" />
    <glyph glyph-name="SF460000" unicode="&#x2568;" horiz-adv-x="342" 
d="M-102 430l94 19q-105 -304 -105 -365q0 -25 29 -25q26 0 127 111l14 -20q-137 -158 -202 -158q-50 0 -50 69q0 32 40 176q52 190 53 193z" />
    <glyph glyph-name="SF400000" unicode="&#x2569;" horiz-adv-x="483" 
d="M-221 143q0 115 78 209q83 99 196 99q144 0 144 -160q0 -122 -80 -212q-82 -93 -203 -93q-64 0 -101 48q-34 43 -34 109zM53 426q-62 0 -127 -96q-78 -114 -78 -236q0 -84 76 -84q86 0 149 131q54 111 54 207q0 78 -74 78z" />
    <glyph glyph-name="SF540000" unicode="&#x256a;" 
d="M-106 428l77 23q-94 -333 -94 -390q0 -22 29 -22q78 0 280 395l88 4q-96 -322 -96 -356q0 -29 31 -29q29 0 123 103l14 -25q-119 -135 -184 -135q-62 0 -62 70q0 60 68 280q-194 -350 -291 -350q-74 0 -74 86q0 54 91 346z" />
    <glyph glyph-name="SF530000" unicode="&#x256b;" horiz-adv-x="592" 
d="M53 -86q-217 -200 -217 -313q0 -52 33 -52q99 0 184 365zM-113 430l82 14l-9 -29q-87 -280 -87 -333q0 -47 31 -47q92 0 289 405h73l-106 -385l100 99l19 -19l-127 -121q-130 -489 -283 -489q-64 0 -64 65q0 131 254 365l103 371q-177 -328 -283 -328q-72 0 -72 88
q0 59 80 344z" />
    <glyph glyph-name="lozenge" unicode="&#x25ca;" horiz-adv-x="1012" 
d="M506 1409l-385 -817l385 -825l385 825zM506 1653l500 -1061l-500 -1069l-500 1069z" />
    <glyph glyph-name="fi" unicode="&#xf001;" horiz-adv-x="721" 
d="M354 662q0 51 49 51q46 0 46 -47q0 -52 -52 -52q-43 0 -43 41v7zM276 430l95 19q-105 -304 -105 -365q0 -25 29 -25q26 0 127 111l14 -20q-137 -158 -203 -158q-49 0 -49 67q0 34 39 178q52 187 53 193zM4 449q111 121 215 337q59 123 110 269q66 187 66 278q0 53 -24 53
q-91 0 -367 -937zM-186 238q73 63 83 95q5 15 10 34q94 342 133 462q88 267 186 440q88 156 145 156t57 -88q0 -169 -123 -456q-130 -303 -317 -494l-35 -119q66 6 190 88l7 -24q-55 -51 -207 -101q-129 -444 -211 -665l-109 -35q100 233 242 696z" />
    <glyph glyph-name="fl" unicode="&#xf002;" horiz-adv-x="754" 
d="M399 543q365 538 365 790q0 49 -14 49q-73 0 -209 -383q-76 -215 -142 -456zM188 283l97 116q78 304 175 568q170 463 290 463q43 0 43 -97q0 -300 -412 -858q-92 -338 -92 -401q0 -25 33 -25q40 0 143 113l10 -29q-129 -141 -199 -141q-63 0 -63 65q0 70 59 281l-75 -84
zM4 449q111 121 215 337q59 123 110 269q66 187 66 278q0 53 -24 53q-91 0 -367 -937zM-186 238q73 63 83 95q5 15 10 34q94 342 133 462q88 267 186 440q88 156 145 156t57 -88q0 -169 -123 -456q-130 -303 -317 -494l-35 -119q66 6 190 88l7 -24q-55 -51 -207 -101
q-129 -444 -211 -665l-109 -35q100 233 242 696z" />
    <glyph glyph-name="glyph275" horiz-adv-x="371" 
 />
    <glyph glyph-name="glyph276" horiz-adv-x="371" 
 />
    <glyph glyph-name="nonbreakingspace" unicode="&#xa0;" horiz-adv-x="739" 
 />
    <glyph glyph-name="apple" unicode="&#xf000;" horiz-adv-x="1618" 
d="M836 1216q-2 12 -2 37q0 132 101 237q96 99 230 124q2 -20 2 -62q0 -117 -94 -226q-97 -112 -213 -112h-8q-3 0 -8 1t-8 1zM1505 403q-90 -196 -152 -279q-118 -159 -257 -159q-46 0 -130 33t-124 33q-44 0 -130 -33t-128 -33q-129 0 -258 176q-213 291 -213 596
q0 211 117 348q124 146 331 146q57 0 149.5 -34t129.5 -34q32 0 124.5 35t149.5 35q216 0 359 -164q-201 -128 -201 -328q0 -233 233 -338z" />
    <glyph glyph-name="sfthyphen" unicode="&#xad;" horiz-adv-x="371" 
d="M-182 199l18 57h211l-16 -57h-213z" />
    <glyph glyph-name="ch270" unicode="&#xb7;" horiz-adv-x="371" 
d="M-76 438q0 60 58 60q61 0 61 -60q0 -59 -61 -59q-58 0 -58 59z" />
    <glyph glyph-name="ch270" unicode="&#x2219;" horiz-adv-x="371" 
d="M-76 438q0 60 58 60q61 0 61 -60q0 -59 -61 -59q-58 0 -58 59z" />
    <glyph glyph-name="euro" horiz-adv-x="739" 
d="M39 537h287l-17 -37h-289q-33 -60 -56 -123h284l-17 -37h-280q-17 -70 -17 -119q0 -190 199 -190q147 0 277 88l4 -27q-159 -98 -324 -98q-110 0 -178 61t-68 170q0 38 15 115h-105l17 37h100q18 51 59 123h-131l17 37h137q91 133 237 233q166 113 308 113q108 0 108 -82
q0 -92 -221 -195l10 70q180 61 180 125q0 59 -77 59q-123 0 -263 -109q-120 -93 -196 -214z" />
    <glyph glyph-name="glyph261" horiz-adv-x="1024" 
d="M366 532h-29q15 67 59 119q7 8 23 26q41 44 41 68q0 27 -28 27q-39 0 -78 -79l-13 24q10 43 34 66.5t56 23.5q36 0 58.5 -29t4.5 -70q-14 -30 -69 -80l-10 -11q-32 -34 -49 -85z" />
    <glyph glyph-name="glyph262" 
d="M195 682q-153 -143 -176 -143q-17 0 -17 14q82 92 199 229h20q22 -103 78 -198q15 -26 15 -31q0 -12 -13 -12q-28 0 -106 141zM99 858q0 6 62 46q67 43 77 58q2 3 30 75q20 52 44 52q37 0 37 -30q0 -57 -105 -140q-87 -69 -133 -69q-12 0 -12 8z" />
    <glyph glyph-name="glyph263" 
d="M195 682q-153 -143 -176 -143q-17 0 -17 14q82 92 199 229h20q22 -103 78 -198q15 -26 15 -31q0 -12 -13 -12q-28 0 -106 141zM376 841q-34 0 -111 74q-86 83 -86 133q0 39 37 39q30 0 43 -58q9 -39 16 -55q9 -21 62 -62q45 -34 45 -65q-2 -6 -6 -6z" />
    <glyph glyph-name="glyph264" 
d="M195 682q-153 -143 -176 -143q-17 0 -17 14q82 92 199 229h20q22 -103 78 -198q15 -26 15 -31q0 -12 -13 -12q-28 0 -106 141zM243 813h-29q15 67 59 119q7 8 23 26q41 44 41 68q0 27 -28 27q-39 0 -78 -79l-13 24q10 43 34 66.5t56 23.5q36 0 58.5 -29t4.5 -70
q-14 -30 -69 -80l-10 -11q-32 -34 -49 -85z" />
    <glyph glyph-name="glyph265" 
d="M195 682q-153 -143 -176 -143q-17 0 -17 14q82 92 199 229h20q22 -103 78 -198q15 -26 15 -31q0 -12 -13 -12q-28 0 -106 141zM120 852l-16 4q4 129 88 129q31 0 104 -33t105 -33q42 0 66 88h20q-12 -139 -92 -139q-33 0 -109 33t-104 33q-48 0 -62 -82z" />
    <glyph glyph-name="glyph266" 
d="M7 721q0 14 14 14q8 0 19 -25q2 -5 5 -13q33 -74 109 -74q69 0 144 53l75 53q12 0 12 -10q0 -27 -86 -90q-69 -51 -139 -51q-61 0 -107 41.5t-46 101.5zM99 858q0 6 62 46q67 43 77 58q2 3 30 75q20 52 44 52q37 0 37 -30q0 -57 -105 -140q-87 -69 -133 -69q-12 0 -12 8z
" />
    <glyph glyph-name="glyph267" 
d="M7 721q0 14 14 14q8 0 19 -25q2 -5 5 -13q33 -74 109 -74q69 0 144 53l75 53q12 0 12 -10q0 -27 -86 -90q-69 -51 -139 -51q-61 0 -107 41.5t-46 101.5zM308 841q-34 0 -111 74q-86 83 -86 133q0 39 37 39q30 0 43 -58q9 -39 16 -55q9 -21 62 -62q45 -34 45 -65
q-2 -6 -6 -6z" />
    <glyph glyph-name="glyph268" 
d="M7 721q0 14 14 14q8 0 19 -25q2 -5 5 -13q33 -74 109 -74q69 0 144 53l75 53q12 0 12 -10q0 -27 -86 -90q-69 -51 -139 -51q-61 0 -107 41.5t-46 101.5zM202 813h-29q15 67 59 119q7 8 23 26q41 44 41 68q0 27 -28 27q-39 0 -78 -79l-13 24q10 43 34 66.5t56 23.5
q36 0 58.5 -29t4.5 -70q-14 -30 -69 -80l-10 -11q-32 -34 -49 -85z" />
    <glyph glyph-name="glyph269" 
d="M7 721q0 14 14 14q8 0 19 -25q2 -5 5 -13q33 -74 109 -74q69 0 144 53l75 53q12 0 12 -10q0 -27 -86 -90q-69 -51 -139 -51q-61 0 -107 41.5t-46 101.5zM120 852l-16 4q4 129 88 129q31 0 104 -33t105 -33q42 0 66 88h20q-12 -139 -92 -139q-33 0 -109 33t-104 33
q-48 0 -62 -82z" />
    <glyph glyph-name="glyph270" horiz-adv-x="371" 
 />
    <glyph glyph-name="glyph271" unicode="&#x102;" horiz-adv-x="1341" 
d="M911 403h-49q-167 0 -274 21q113 -137 215 -358zM537 471q127 -37 307 -37q12 0 53 3q14 1 23 1l227 674q63 187 63 236q0 28 -12 28q-30 0 -319 -411zM-647 47l76 51q204 -84 344 -84q241 0 478 207q161 140 347 408l135 194q449 645 506 645q55 0 55 -94
q0 -153 -168 -639l-102 -295h20q19 0 62 4h6l-2 -32q-36 -6 -74 -6h-26l-136 -406l-79 -4q-146 336 -281 448q-350 -467 -793 -467q-162 0 -368 70zM1140 1760q0 14 14 14q8 0 19 -25q2 -5 5 -13q33 -74 109 -74q69 0 144 53l75 53q12 0 12 -10q0 -27 -86 -90
q-69 -51 -139 -51q-61 0 -107 41.5t-46 101.5z" />
    <glyph glyph-name="glyph272" unicode="&#x103;" 
d="M340 158l4 -27q-116 -133 -192 -133q-60 0 -60 63q0 59 49 191q-171 -254 -272 -254q-96 0 -96 106q0 92 112 222q110 127 224 127q20 0 68 -8q3 0 5 -1l-20 -41q-47 21 -76 21q-65 0 -117 -59q-116 -132 -116 -246q0 -62 53 -62q121 0 311 383l66 4l-107 -313
q-8 -23 -8 -41q0 -35 27 -35q48 0 145 103zM7 721q0 14 14 14q8 0 19 -25q2 -5 5 -13q33 -74 109 -74q69 0 144 53l75 53q12 0 12 -10q0 -27 -86 -90q-69 -51 -139 -51q-61 0 -107 41.5t-46 101.5z" />
    <glyph glyph-name="glyph273" unicode="&#x128;" horiz-adv-x="973" 
d="M588 524q235 595 235 822q0 94 -47 94q-44 0 -102 -84q-193 -281 -193 -555q0 -193 107 -277zM-313 78l39 61q218 -108 352 -108q183 0 314 145q91 101 181 311q-170 119 -170 355q0 212 156 438q133 193 227 193q91 0 91 -164q0 -326 -213 -832q56 -23 149 -39l-6 -28
q-61 7 -156 34q-192 -446 -579 -446q-175 0 -385 80zM647 1620l-16 4q4 129 88 129q31 0 104 -33t105 -33q42 0 66 88h20q-12 -139 -92 -139q-33 0 -109 33t-104 33q-48 0 -62 -82z" />
    <glyph glyph-name="glyph274" unicode="&#x129;" horiz-adv-x="342" 
d="M-102 430l94 19q-105 -304 -105 -365q0 -25 29 -25q26 0 127 111l14 -20q-137 -158 -202 -158q-50 0 -50 69q0 32 40 176q52 190 53 193zM-149 584l-16 4q4 129 88 129q31 0 104 -33t105 -33q42 0 66 88h20q-12 -139 -92 -139q-33 0 -109 33t-104 33q-48 0 -62 -82z" />
    <glyph glyph-name="glyph275" unicode="&#x168;" horiz-adv-x="1233" 
d="M63 999l-59 54q216 420 365 420q73 0 73 -107q0 -88 -123 -482l-10 -32q-176 -563 -176 -666q0 -137 123 -137q234 0 521 587q161 330 310 783l97 19q-262 -782 -377 -1440l-82 49q79 421 215 881q-391 -934 -711 -934q-178 0 -178 207q0 129 150 600q42 131 97 296
q83 248 83 279q0 54 -35 54q-74 0 -283 -431zM647 1620l-16 4q4 129 88 129q31 0 104 -33t105 -33q42 0 66 88h20q-12 -139 -92 -139q-33 0 -109 33t-104 33q-48 0 -62 -82z" />
    <glyph glyph-name="glyph276" unicode="&#x169;" 
d="M-106 428l77 23q-94 -333 -94 -390q0 -22 29 -22q78 0 280 395l88 4q-96 -322 -96 -356q0 -29 31 -29q29 0 123 103l14 -25q-119 -135 -184 -135q-62 0 -62 70q0 60 68 280q-194 -350 -291 -350q-74 0 -74 86q0 54 91 346zM-58 584l-16 4q4 129 88 129q31 0 104 -33
t105 -33q42 0 66 88h20q-12 -139 -92 -139q-33 0 -109 33t-104 33q-48 0 -62 -82z" />
    <glyph glyph-name="glyph277" unicode="&#x1a0;" horiz-adv-x="1341" 
d="M1124 989q0 190 -86 309q-98 136 -280 136q-214 0 -398 -181q-153 -151 -243 -363.5t-90 -426.5q0 -184 98 -309q107 -136 287 -136q149 0 297 113q121 92 219 238q196 293 196 620zM1129 1274q36 45 43 88q-71 6 -71 53q0 62 55 62q60 0 60 -74q0 -72 -74 -148
q87 -136 87 -333q0 -163 -65.5 -331.5t-184.5 -307.5q-251 -293 -561 -293q-234 0 -361 161q-116 148 -116 388q0 328 213 606q245 319 591 319q248 0 384 -190z" />
    <glyph glyph-name="glyph278" unicode="&#x1a1;" horiz-adv-x="483" 
d="M53 426q-62 0 -127 -96q-78 -114 -78 -236q0 -84 76 -84q86 0 149 131q54 111 54 207q0 78 -74 78zM185 366q36 45 43 88q-71 6 -71 53q0 62 55 62q60 0 60 -74q0 -75 -80 -155q5 -22 5 -49q0 -122 -80 -212q-82 -93 -203 -93q-64 0 -101 48q-34 43 -34 109q0 115 78 209
q83 99 196 99q99 0 132 -85z" />
    <glyph glyph-name="glyph279" unicode="&#x1af;" horiz-adv-x="1233" 
d="M1125 1258q49 54 57 104q-12 1 -22 3q-18 -54 -35 -107zM1121 1225l-5 5q-209 -660 -309 -1232l-82 49q79 421 215 881q-391 -934 -711 -934q-178 0 -178 207q0 129 150 600q42 131 97 296q83 248 83 279q0 54 -35 54q-74 0 -283 -431l-59 54q216 420 365 420
q73 0 73 -107q0 -88 -123 -482l-10 -32q-176 -563 -176 -666q0 -137 123 -137q234 0 521 587q161 330 310 783l24 5q5 53 55 53q60 0 60 -74q0 -85 -105 -178z" />
    <glyph glyph-name="glyph280" unicode="&#x1b0;" 
d="M244 317l-5 5q-33 -114 -44 -157q-17 -63 -17 -83q0 -29 31 -29q29 0 123 103l14 -25q-119 -135 -184 -135q-62 0 -62 70q0 60 68 280q-194 -350 -291 -350q-74 0 -74 86q0 54 91 346l77 23q-94 -333 -94 -390q0 -22 29 -22q78 0 280 395l88 4l-26 -89q49 55 57 105
q-71 6 -71 53q0 62 55 62q60 0 60 -74q0 -85 -105 -178z" />
    <glyph glyph-name="glyph281" unicode="&#x1ea0;" horiz-adv-x="1341" 
d="M911 403h-49q-167 0 -274 21q113 -137 215 -358zM537 471q127 -37 307 -37q12 0 53 3q14 1 23 1l227 674q63 187 63 236q0 28 -12 28q-30 0 -319 -411zM-647 47l76 51q204 -84 344 -84q241 0 478 207q161 140 347 408l135 194q449 645 506 645q55 0 55 -94
q0 -153 -168 -639l-102 -295h20q19 0 62 4h6l-2 -32q-36 -6 -74 -6h-26l-136 -406l-79 -4q-146 336 -281 448q-350 -467 -793 -467q-162 0 -368 70zM335 -192q0 24 18 41t42 17q57 0 57 -60q0 -55 -55 -55q-62 0 -62 57z" />
    <glyph glyph-name="glyph282" unicode="&#x1ea1;" 
d="M340 158l4 -27q-116 -133 -192 -133q-60 0 -60 63q0 59 49 191q-171 -254 -272 -254q-96 0 -96 106q0 92 112 222q110 127 224 127q20 0 68 -8q3 0 5 -1l-20 -41q-47 21 -76 21q-65 0 -117 -59q-116 -132 -116 -246q0 -62 53 -62q121 0 311 383l66 4l-107 -313
q-8 -23 -8 -41q0 -35 27 -35q48 0 145 103zM-138 -192q0 24 18 41t42 17q57 0 57 -60q0 -55 -55 -55q-62 0 -62 57z" />
    <glyph glyph-name="glyph283" unicode="&#x1ea2;" horiz-adv-x="1341" 
d="M911 403h-49q-167 0 -274 21q113 -137 215 -358zM537 471q127 -37 307 -37q12 0 53 3q14 1 23 1l227 674q63 187 63 236q0 28 -12 28q-30 0 -319 -411zM-647 47l76 51q204 -84 344 -84q241 0 478 207q161 140 347 408l135 194q449 645 506 645q55 0 55 -94
q0 -153 -168 -639l-102 -295h20q19 0 62 4h6l-2 -32q-36 -6 -74 -6h-26l-136 -406l-79 -4q-146 336 -281 448q-350 -467 -793 -467q-162 0 -368 70zM1297 1573h-29q15 67 59 119q7 8 23 26q41 44 41 68q0 27 -28 27q-39 0 -78 -79l-13 24q10 43 34 66.5t56 23.5
q36 0 58.5 -29t4.5 -70q-14 -30 -69 -80l-10 -11q-32 -34 -49 -85z" />
    <glyph glyph-name="glyph284" unicode="&#x1ea3;" 
d="M340 158l4 -27q-116 -133 -192 -133q-60 0 -60 63q0 59 49 191q-171 -254 -272 -254q-96 0 -96 106q0 92 112 222q110 127 224 127q20 0 68 -8q3 0 5 -1l-20 -41q-47 21 -76 21q-65 0 -117 -59q-116 -132 -116 -246q0 -62 53 -62q121 0 311 383l66 4l-107 -313
q-8 -23 -8 -41q0 -35 27 -35q48 0 145 103zM164 532h-29q15 67 59 119q7 8 23 26q41 44 41 68q0 27 -28 27q-39 0 -78 -79l-13 24q10 43 34 66.5t56 23.5q36 0 58.5 -29t4.5 -70q-14 -30 -69 -80l-10 -11q-32 -34 -49 -85z" />
    <glyph glyph-name="glyph285" unicode="&#x1ea4;" horiz-adv-x="1341" 
d="M911 403h-49q-167 0 -274 21q113 -137 215 -358zM537 471q127 -37 307 -37q12 0 53 3q14 1 23 1l227 674q63 187 63 236q0 28 -12 28q-30 0 -319 -411zM-647 47l76 51q204 -84 344 -84q241 0 478 207q161 140 347 408l135 194q449 645 506 645q55 0 55 -94
q0 -153 -168 -639l-102 -295h20q19 0 62 4h6l-2 -32q-36 -6 -74 -6h-26l-136 -406l-79 -4q-146 336 -281 448q-350 -467 -793 -467q-162 0 -368 70zM1305 1718q-153 -143 -176 -143q-17 0 -17 14q82 92 199 229h20q22 -103 78 -198q15 -26 15 -31q0 -12 -13 -12
q-28 0 -106 141zM1211 1895q0 6 62 46q67 43 77 58q2 3 30 75q20 52 44 52q37 0 37 -30q0 -57 -105 -140q-87 -69 -133 -69q-12 0 -12 8z" />
    <glyph glyph-name="glyph286" unicode="&#x1ea5;" 
d="M340 158l4 -27q-116 -133 -192 -133q-60 0 -60 63q0 59 49 191q-171 -254 -272 -254q-96 0 -96 106q0 92 112 222q110 127 224 127q20 0 68 -8q3 0 5 -1l-20 -41q-47 21 -76 21q-65 0 -117 -59q-116 -132 -116 -246q0 -62 53 -62q121 0 311 383l66 4l-107 -313
q-8 -23 -8 -41q0 -35 27 -35q48 0 145 103zM195 682q-153 -143 -176 -143q-17 0 -17 14q82 92 199 229h20q22 -103 78 -198q15 -26 15 -31q0 -12 -13 -12q-28 0 -106 141zM99 858q0 6 62 46q67 43 77 58q2 3 30 75q20 52 44 52q37 0 37 -30q0 -57 -105 -140
q-87 -69 -133 -69q-12 0 -12 8z" />
    <glyph glyph-name="glyph287" unicode="&#x1ea6;" horiz-adv-x="1341" 
d="M911 403h-49q-167 0 -274 21q113 -137 215 -358zM537 471q127 -37 307 -37q12 0 53 3q14 1 23 1l227 674q63 187 63 236q0 28 -12 28q-30 0 -319 -411zM-647 47l76 51q204 -84 344 -84q241 0 478 207q161 140 347 408l135 194q449 645 506 645q55 0 55 -94
q0 -153 -168 -639l-102 -295h20q19 0 62 4h6l-2 -32q-36 -6 -74 -6h-26l-136 -406l-79 -4q-146 336 -281 448q-350 -467 -793 -467q-162 0 -368 70zM1305 1718q-153 -143 -176 -143q-17 0 -17 14q82 92 199 229h20q22 -103 78 -198q15 -26 15 -31q0 -12 -13 -12
q-28 0 -106 141zM1486 1877q-34 0 -111 74q-86 83 -86 133q0 39 37 39q30 0 43 -58q9 -39 16 -55q9 -21 62 -62q45 -34 45 -65q-2 -6 -6 -6z" />
    <glyph glyph-name="glyph288" unicode="&#x1ea7;" 
d="M340 158l4 -27q-116 -133 -192 -133q-60 0 -60 63q0 59 49 191q-171 -254 -272 -254q-96 0 -96 106q0 92 112 222q110 127 224 127q20 0 68 -8q3 0 5 -1l-20 -41q-47 21 -76 21q-65 0 -117 -59q-116 -132 -116 -246q0 -62 53 -62q121 0 311 383l66 4l-107 -313
q-8 -23 -8 -41q0 -35 27 -35q48 0 145 103zM195 682q-153 -143 -176 -143q-17 0 -17 14q82 92 199 229h20q22 -103 78 -198q15 -26 15 -31q0 -12 -13 -12q-28 0 -106 141zM376 841q-34 0 -111 74q-86 83 -86 133q0 39 37 39q30 0 43 -58q9 -39 16 -55q9 -21 62 -62
q45 -34 45 -65q-2 -6 -6 -6z" />
    <glyph glyph-name="glyph289" unicode="&#x1ea8;" horiz-adv-x="1341" 
d="M911 403h-49q-167 0 -274 21q113 -137 215 -358zM537 471q127 -37 307 -37q12 0 53 3q14 1 23 1l227 674q63 187 63 236q0 28 -12 28q-30 0 -319 -411zM-647 47l76 51q204 -84 344 -84q241 0 478 207q161 140 347 408l135 194q449 645 506 645q55 0 55 -94
q0 -153 -168 -639l-102 -295h20q19 0 62 4h6l-2 -32q-36 -6 -74 -6h-26l-136 -406l-79 -4q-146 336 -281 448q-350 -467 -793 -467q-162 0 -368 70zM1305 1718q-153 -143 -176 -143q-17 0 -17 14q82 92 199 229h20q22 -103 78 -198q15 -26 15 -31q0 -12 -13 -12
q-28 0 -106 141zM1353 1849h-29q15 67 59 119q7 8 23 26q41 44 41 68q0 27 -28 27q-39 0 -78 -79l-13 24q10 43 34 66.5t56 23.5q36 0 58.5 -29t4.5 -70q-14 -30 -69 -80l-10 -11q-32 -34 -49 -85z" />
    <glyph glyph-name="glyph290" unicode="&#x1ea9;" 
d="M340 158l4 -27q-116 -133 -192 -133q-60 0 -60 63q0 59 49 191q-171 -254 -272 -254q-96 0 -96 106q0 92 112 222q110 127 224 127q20 0 68 -8q3 0 5 -1l-20 -41q-47 21 -76 21q-65 0 -117 -59q-116 -132 -116 -246q0 -62 53 -62q121 0 311 383l66 4l-107 -313
q-8 -23 -8 -41q0 -35 27 -35q48 0 145 103zM195 682q-153 -143 -176 -143q-17 0 -17 14q82 92 199 229h20q22 -103 78 -198q15 -26 15 -31q0 -12 -13 -12q-28 0 -106 141zM243 813h-29q15 67 59 119q7 8 23 26q41 44 41 68q0 27 -28 27q-39 0 -78 -79l-13 24q10 43 34 66.5
t56 23.5q36 0 58.5 -29t4.5 -70q-14 -30 -69 -80l-10 -11q-32 -34 -49 -85z" />
    <glyph glyph-name="glyph291" unicode="&#x1eaa;" horiz-adv-x="1341" 
d="M911 403h-49q-167 0 -274 21q113 -137 215 -358zM537 471q127 -37 307 -37q12 0 53 3q14 1 23 1l227 674q63 187 63 236q0 28 -12 28q-30 0 -319 -411zM-647 47l76 51q204 -84 344 -84q241 0 478 207q161 140 347 408l135 194q449 645 506 645q55 0 55 -94
q0 -153 -168 -639l-102 -295h20q19 0 62 4h6l-2 -32q-36 -6 -74 -6h-26l-136 -406l-79 -4q-146 336 -281 448q-350 -467 -793 -467q-162 0 -368 70zM1305 1718q-153 -143 -176 -143q-17 0 -17 14q82 92 199 229h20q22 -103 78 -198q15 -26 15 -31q0 -12 -13 -12
q-28 0 -106 141zM1230 1888l-16 4q4 129 88 129q31 0 104 -33t105 -33q42 0 66 88h20q-12 -139 -92 -139q-33 0 -109 33t-104 33q-48 0 -62 -82z" />
    <glyph glyph-name="glyph292" unicode="&#x1eab;" 
d="M340 158l4 -27q-116 -133 -192 -133q-60 0 -60 63q0 59 49 191q-171 -254 -272 -254q-96 0 -96 106q0 92 112 222q110 127 224 127q20 0 68 -8q3 0 5 -1l-20 -41q-47 21 -76 21q-65 0 -117 -59q-116 -132 -116 -246q0 -62 53 -62q121 0 311 383l66 4l-107 -313
q-8 -23 -8 -41q0 -35 27 -35q48 0 145 103zM195 682q-153 -143 -176 -143q-17 0 -17 14q82 92 199 229h20q22 -103 78 -198q15 -26 15 -31q0 -12 -13 -12q-28 0 -106 141zM120 852l-16 4q4 129 88 129q31 0 104 -33t105 -33q42 0 66 88h20q-12 -139 -92 -139q-33 0 -109 33
t-104 33q-48 0 -62 -82z" />
    <glyph glyph-name="glyph293" unicode="&#x1eac;" horiz-adv-x="1341" 
d="M911 403h-49q-167 0 -274 21q113 -137 215 -358zM537 471q127 -37 307 -37q12 0 53 3q14 1 23 1l227 674q63 187 63 236q0 28 -12 28q-30 0 -319 -411zM-647 47l76 51q204 -84 344 -84q241 0 478 207q161 140 347 408l135 194q449 645 506 645q55 0 55 -94
q0 -153 -168 -639l-102 -295h20q19 0 62 4h6l-2 -32q-36 -6 -74 -6h-26l-136 -406l-79 -4q-146 336 -281 448q-350 -467 -793 -467q-162 0 -368 70zM1305 1718q-153 -143 -176 -143q-17 0 -17 14q82 92 199 229h20q22 -103 78 -198q15 -26 15 -31q0 -12 -13 -12
q-28 0 -106 141zM335 -192q0 24 18 41t42 17q57 0 57 -60q0 -55 -55 -55q-62 0 -62 57z" />
    <glyph glyph-name="glyph294" unicode="&#x1ead;" 
d="M340 158l4 -27q-116 -133 -192 -133q-60 0 -60 63q0 59 49 191q-171 -254 -272 -254q-96 0 -96 106q0 92 112 222q110 127 224 127q20 0 68 -8q3 0 5 -1l-20 -41q-47 21 -76 21q-65 0 -117 -59q-116 -132 -116 -246q0 -62 53 -62q121 0 311 383l66 4l-107 -313
q-8 -23 -8 -41q0 -35 27 -35q48 0 145 103zM195 682q-153 -143 -176 -143q-17 0 -17 14q82 92 199 229h20q22 -103 78 -198q15 -26 15 -31q0 -12 -13 -12q-28 0 -106 141zM-138 -192q0 24 18 41t42 17q57 0 57 -60q0 -55 -55 -55q-62 0 -62 57z" />
    <glyph glyph-name="glyph295" unicode="&#x1eae;" horiz-adv-x="1341" 
d="M911 403h-49q-167 0 -274 21q113 -137 215 -358zM537 471q127 -37 307 -37q12 0 53 3q14 1 23 1l227 674q63 187 63 236q0 28 -12 28q-30 0 -319 -411zM-647 47l76 51q204 -84 344 -84q241 0 478 207q161 140 347 408l135 194q449 645 506 645q55 0 55 -94
q0 -153 -168 -639l-102 -295h20q19 0 62 4h6l-2 -32q-36 -6 -74 -6h-26l-136 -406l-79 -4q-146 336 -281 448q-350 -467 -793 -467q-162 0 -368 70zM1140 1760q0 14 14 14q8 0 19 -25q2 -5 5 -13q33 -74 109 -74q69 0 144 53l75 53q12 0 12 -10q0 -27 -86 -90
q-69 -51 -139 -51q-61 0 -107 41.5t-46 101.5zM1233 1897q0 6 62 46q67 43 77 58q2 3 30 75q20 52 44 52q37 0 37 -30q0 -57 -105 -140q-87 -69 -133 -69q-12 0 -12 8z" />
    <glyph glyph-name="glyph296" unicode="&#x1eaf;" 
d="M340 158l4 -27q-116 -133 -192 -133q-60 0 -60 63q0 59 49 191q-171 -254 -272 -254q-96 0 -96 106q0 92 112 222q110 127 224 127q20 0 68 -8q3 0 5 -1l-20 -41q-47 21 -76 21q-65 0 -117 -59q-116 -132 -116 -246q0 -62 53 -62q121 0 311 383l66 4l-107 -313
q-8 -23 -8 -41q0 -35 27 -35q48 0 145 103zM7 721q0 14 14 14q8 0 19 -25q2 -5 5 -13q33 -74 109 -74q69 0 144 53l75 53q12 0 12 -10q0 -27 -86 -90q-69 -51 -139 -51q-61 0 -107 41.5t-46 101.5zM99 858q0 6 62 46q67 43 77 58q2 3 30 75q20 52 44 52q37 0 37 -30
q0 -57 -105 -140q-87 -69 -133 -69q-12 0 -12 8z" />
    <glyph glyph-name="glyph297" unicode="&#x1eb0;" horiz-adv-x="1341" 
d="M911 403h-49q-167 0 -274 21q113 -137 215 -358zM537 471q127 -37 307 -37q12 0 53 3q14 1 23 1l227 674q63 187 63 236q0 28 -12 28q-30 0 -319 -411zM-647 47l76 51q204 -84 344 -84q241 0 478 207q161 140 347 408l135 194q449 645 506 645q55 0 55 -94
q0 -153 -168 -639l-102 -295h20q19 0 62 4h6l-2 -32q-36 -6 -74 -6h-26l-136 -406l-79 -4q-146 336 -281 448q-350 -467 -793 -467q-162 0 -368 70zM1140 1760q0 14 14 14q8 0 19 -25q2 -5 5 -13q33 -74 109 -74q69 0 144 53l75 53q12 0 12 -10q0 -27 -86 -90
q-69 -51 -139 -51q-61 0 -107 41.5t-46 101.5zM1441 1880q-34 0 -111 74q-86 83 -86 133q0 39 37 39q30 0 43 -58q9 -39 16 -55q9 -21 62 -62q45 -34 45 -65q-2 -6 -6 -6z" />
    <glyph glyph-name="glyph298" unicode="&#x1eb1;" 
d="M340 158l4 -27q-116 -133 -192 -133q-60 0 -60 63q0 59 49 191q-171 -254 -272 -254q-96 0 -96 106q0 92 112 222q110 127 224 127q20 0 68 -8q3 0 5 -1l-20 -41q-47 21 -76 21q-65 0 -117 -59q-116 -132 -116 -246q0 -62 53 -62q121 0 311 383l66 4l-107 -313
q-8 -23 -8 -41q0 -35 27 -35q48 0 145 103zM7 721q0 14 14 14q8 0 19 -25q2 -5 5 -13q33 -74 109 -74q69 0 144 53l75 53q12 0 12 -10q0 -27 -86 -90q-69 -51 -139 -51q-61 0 -107 41.5t-46 101.5zM308 841q-34 0 -111 74q-86 83 -86 133q0 39 37 39q30 0 43 -58
q9 -39 16 -55q9 -21 62 -62q45 -34 45 -65q-2 -6 -6 -6z" />
    <glyph glyph-name="glyph299" unicode="&#x1eb2;" horiz-adv-x="1341" 
d="M911 403h-49q-167 0 -274 21q113 -137 215 -358zM537 471q127 -37 307 -37q12 0 53 3q14 1 23 1l227 674q63 187 63 236q0 28 -12 28q-30 0 -319 -411zM-647 47l76 51q204 -84 344 -84q241 0 478 207q161 140 347 408l135 194q449 645 506 645q55 0 55 -94
q0 -153 -168 -639l-102 -295h20q19 0 62 4h6l-2 -32q-36 -6 -74 -6h-26l-136 -406l-79 -4q-146 336 -281 448q-350 -467 -793 -467q-162 0 -368 70zM1140 1760q0 14 14 14q8 0 19 -25q2 -5 5 -13q33 -74 109 -74q69 0 144 53l75 53q12 0 12 -10q0 -27 -86 -90
q-69 -51 -139 -51q-61 0 -107 41.5t-46 101.5zM1336 1852h-29q15 67 59 119q7 8 23 26q41 44 41 68q0 27 -28 27q-39 0 -78 -79l-13 24q10 43 34 66.5t56 23.5q36 0 58.5 -29t4.5 -70q-14 -30 -69 -80l-10 -11q-32 -34 -49 -85z" />
    <glyph glyph-name="glyph300" unicode="&#x1eb3;" 
d="M340 158l4 -27q-116 -133 -192 -133q-60 0 -60 63q0 59 49 191q-171 -254 -272 -254q-96 0 -96 106q0 92 112 222q110 127 224 127q20 0 68 -8q3 0 5 -1l-20 -41q-47 21 -76 21q-65 0 -117 -59q-116 -132 -116 -246q0 -62 53 -62q121 0 311 383l66 4l-107 -313
q-8 -23 -8 -41q0 -35 27 -35q48 0 145 103zM7 721q0 14 14 14q8 0 19 -25q2 -5 5 -13q33 -74 109 -74q69 0 144 53l75 53q12 0 12 -10q0 -27 -86 -90q-69 -51 -139 -51q-61 0 -107 41.5t-46 101.5zM202 813h-29q15 67 59 119q7 8 23 26q41 44 41 68q0 27 -28 27
q-39 0 -78 -79l-13 24q10 43 34 66.5t56 23.5q36 0 58.5 -29t4.5 -70q-14 -30 -69 -80l-10 -11q-32 -34 -49 -85z" />
    <glyph glyph-name="glyph301" unicode="&#x1eb4;" horiz-adv-x="1341" 
d="M911 403h-49q-167 0 -274 21q113 -137 215 -358zM537 471q127 -37 307 -37q12 0 53 3q14 1 23 1l227 674q63 187 63 236q0 28 -12 28q-30 0 -319 -411zM-647 47l76 51q204 -84 344 -84q241 0 478 207q161 140 347 408l135 194q449 645 506 645q55 0 55 -94
q0 -153 -168 -639l-102 -295h20q19 0 62 4h6l-2 -32q-36 -6 -74 -6h-26l-136 -406l-79 -4q-146 336 -281 448q-350 -467 -793 -467q-162 0 -368 70zM1140 1760q0 14 14 14q8 0 19 -25q2 -5 5 -13q33 -74 109 -74q69 0 144 53l75 53q12 0 12 -10q0 -27 -86 -90
q-69 -51 -139 -51q-61 0 -107 41.5t-46 101.5zM1252 1890l-16 4q4 129 88 129q31 0 104 -33t105 -33q42 0 66 88h20q-12 -139 -92 -139q-33 0 -109 33t-104 33q-48 0 -62 -82z" />
    <glyph glyph-name="glyph302" unicode="&#x1eb5;" 
d="M340 158l4 -27q-116 -133 -192 -133q-60 0 -60 63q0 59 49 191q-171 -254 -272 -254q-96 0 -96 106q0 92 112 222q110 127 224 127q20 0 68 -8q3 0 5 -1l-20 -41q-47 21 -76 21q-65 0 -117 -59q-116 -132 -116 -246q0 -62 53 -62q121 0 311 383l66 4l-107 -313
q-8 -23 -8 -41q0 -35 27 -35q48 0 145 103zM7 721q0 14 14 14q8 0 19 -25q2 -5 5 -13q33 -74 109 -74q69 0 144 53l75 53q12 0 12 -10q0 -27 -86 -90q-69 -51 -139 -51q-61 0 -107 41.5t-46 101.5zM120 852l-16 4q4 129 88 129q31 0 104 -33t105 -33q42 0 66 88h20
q-12 -139 -92 -139q-33 0 -109 33t-104 33q-48 0 -62 -82z" />
    <glyph glyph-name="glyph303" unicode="&#x1eb6;" horiz-adv-x="1341" 
d="M911 403h-49q-167 0 -274 21q113 -137 215 -358zM537 471q127 -37 307 -37q12 0 53 3q14 1 23 1l227 674q63 187 63 236q0 28 -12 28q-30 0 -319 -411zM-647 47l76 51q204 -84 344 -84q241 0 478 207q161 140 347 408l135 194q449 645 506 645q55 0 55 -94
q0 -153 -168 -639l-102 -295h20q19 0 62 4h6l-2 -32q-36 -6 -74 -6h-26l-136 -406l-79 -4q-146 336 -281 448q-350 -467 -793 -467q-162 0 -368 70zM1140 1760q0 14 14 14q8 0 19 -25q2 -5 5 -13q33 -74 109 -74q69 0 144 53l75 53q12 0 12 -10q0 -27 -86 -90
q-69 -51 -139 -51q-61 0 -107 41.5t-46 101.5zM335 -192q0 24 18 41t42 17q57 0 57 -60q0 -55 -55 -55q-62 0 -62 57z" />
    <glyph glyph-name="glyph304" unicode="&#x1eb7;" 
d="M340 158l4 -27q-116 -133 -192 -133q-60 0 -60 63q0 59 49 191q-171 -254 -272 -254q-96 0 -96 106q0 92 112 222q110 127 224 127q20 0 68 -8q3 0 5 -1l-20 -41q-47 21 -76 21q-65 0 -117 -59q-116 -132 -116 -246q0 -62 53 -62q121 0 311 383l66 4l-107 -313
q-8 -23 -8 -41q0 -35 27 -35q48 0 145 103zM7 721q0 14 14 14q8 0 19 -25q2 -5 5 -13q33 -74 109 -74q69 0 144 53l75 53q12 0 12 -10q0 -27 -86 -90q-69 -51 -139 -51q-61 0 -107 41.5t-46 101.5zM-138 -192q0 24 18 41t42 17q57 0 57 -60q0 -55 -55 -55q-62 0 -62 57z" />
    <glyph glyph-name="glyph305" unicode="&#x1eb8;" horiz-adv-x="1042" 
d="M762 211l-23 -107q-322 -110 -557 -110q-154 0 -253 62q-117 74 -117 220q0 286 550 601q-90 144 -90 192q0 132 228 272q206 127 422 127q170 0 170 -120q0 -71 -150 -306l-49 70q119 172 119 240q0 82 -111 82q-114 0 -248 -68q-309 -157 -309 -324q0 -50 33 -121
t33 -73q0 -49 -129 -131q-93 -59 -144 -99q-272 -212 -272 -385q0 -102 85 -154q70 -42 179 -42q299 0 633 174zM90 -192q0 24 18 41t42 17q57 0 57 -60q0 -55 -55 -55q-62 0 -62 57z" />
    <glyph glyph-name="glyph306" unicode="&#x1eb9;" horiz-adv-x="446" 
d="M-141 127q86 38 152 95q87 76 87 149q0 51 -41 51q-67 0 -130 -119q-45 -83 -68 -176zM133 162l4 -27q-145 -145 -248 -145q-112 0 -112 112q0 104 98 220q109 129 201 129q74 0 74 -82q0 -85 -108 -168q-78 -61 -183 -101v-8q0 -63 65 -63q74 0 209 133zM-218 -192
q0 24 18 41t42 17q57 0 57 -60q0 -55 -55 -55q-62 0 -62 57z" />
    <glyph glyph-name="glyph307" unicode="&#x1eba;" horiz-adv-x="1042" 
d="M762 211l-23 -107q-322 -110 -557 -110q-154 0 -253 62q-117 74 -117 220q0 286 550 601q-90 144 -90 192q0 132 228 272q206 127 422 127q170 0 170 -120q0 -71 -150 -306l-49 70q119 172 119 240q0 82 -111 82q-114 0 -248 -68q-309 -157 -309 -324q0 -50 33 -121
t33 -73q0 -49 -129 -131q-93 -59 -144 -99q-272 -212 -272 -385q0 -102 85 -154q70 -42 179 -42q299 0 633 174zM841 1573h-29q15 67 59 119q7 8 23 26q41 44 41 68q0 27 -28 27q-39 0 -78 -79l-13 24q10 43 34 66.5t56 23.5q36 0 58.5 -29t4.5 -70q-14 -30 -69 -80l-10 -11
q-32 -34 -49 -85z" />
    <glyph glyph-name="glyph308" unicode="&#x1ebb;" horiz-adv-x="446" 
d="M-141 127q86 38 152 95q87 76 87 149q0 51 -41 51q-67 0 -130 -119q-45 -83 -68 -176zM133 162l4 -27q-145 -145 -248 -145q-112 0 -112 112q0 104 98 220q109 129 201 129q74 0 74 -82q0 -85 -108 -168q-78 -61 -183 -101v-8q0 -63 65 -63q74 0 209 133zM67 532h-29
q15 67 59 119q7 8 23 26q41 44 41 68q0 27 -28 27q-39 0 -78 -79l-13 24q10 43 34 66.5t56 23.5q36 0 58.5 -29t4.5 -70q-14 -30 -69 -80l-10 -11q-32 -34 -49 -85z" />
    <glyph glyph-name="glyph309" unicode="&#x1ebc;" horiz-adv-x="1042" 
d="M762 211l-23 -107q-322 -110 -557 -110q-154 0 -253 62q-117 74 -117 220q0 286 550 601q-90 144 -90 192q0 132 228 272q206 127 422 127q170 0 170 -120q0 -71 -150 -306l-49 70q119 172 119 240q0 82 -111 82q-114 0 -248 -68q-309 -157 -309 -324q0 -50 33 -121
t33 -73q0 -49 -129 -131q-93 -59 -144 -99q-272 -212 -272 -385q0 -102 85 -154q70 -42 179 -42q299 0 633 174zM647 1620l-16 4q4 129 88 129q31 0 104 -33t105 -33q42 0 66 88h20q-12 -139 -92 -139q-33 0 -109 33t-104 33q-48 0 -62 -82z" />
    <glyph glyph-name="glyph310" unicode="&#x1ebd;" horiz-adv-x="446" 
d="M-141 127q86 38 152 95q87 76 87 149q0 51 -41 51q-67 0 -130 -119q-45 -83 -68 -176zM133 162l4 -27q-145 -145 -248 -145q-112 0 -112 112q0 104 98 220q109 129 201 129q74 0 74 -82q0 -85 -108 -168q-78 -61 -183 -101v-8q0 -63 65 -63q74 0 209 133zM-58 584l-16 4
q4 129 88 129q31 0 104 -33t105 -33q42 0 66 88h20q-12 -139 -92 -139q-33 0 -109 33t-104 33q-48 0 -62 -82z" />
    <glyph glyph-name="glyph311" unicode="&#x1ebe;" horiz-adv-x="1042" 
d="M762 211l-23 -107q-322 -110 -557 -110q-154 0 -253 62q-117 74 -117 220q0 286 550 601q-90 144 -90 192q0 132 228 272q206 127 422 127q170 0 170 -120q0 -71 -150 -306l-49 70q119 172 119 240q0 82 -111 82q-114 0 -248 -68q-309 -157 -309 -324q0 -50 33 -121
t33 -73q0 -49 -129 -131q-93 -59 -144 -99q-272 -212 -272 -385q0 -102 85 -154q70 -42 179 -42q299 0 633 174zM936 1718q-153 -143 -176 -143q-17 0 -17 14q82 92 199 229h20q22 -103 78 -198q15 -26 15 -31q0 -12 -13 -12q-28 0 -106 141zM841 1894q0 6 62 46
q67 43 77 58q2 3 30 75q20 52 44 52q37 0 37 -30q0 -57 -105 -140q-87 -69 -133 -69q-12 0 -12 8z" />
    <glyph glyph-name="glyph312" unicode="&#x1ebf;" horiz-adv-x="446" 
d="M-141 127q86 38 152 95q87 76 87 149q0 51 -41 51q-67 0 -130 -119q-45 -83 -68 -176zM133 162l4 -27q-145 -145 -248 -145q-112 0 -112 112q0 104 98 220q109 129 201 129q74 0 74 -82q0 -85 -108 -168q-78 -61 -183 -101v-8q0 -63 65 -63q74 0 209 133zM105 682
q-153 -143 -176 -143q-17 0 -17 14q82 92 199 229h20q22 -103 78 -198q15 -26 15 -31q0 -12 -13 -12q-28 0 -106 141zM10 858q0 6 62 46q67 43 77 58q2 3 30 75q20 52 44 52q37 0 37 -30q0 -57 -105 -140q-87 -69 -133 -69q-12 0 -12 8z" />
    <glyph glyph-name="glyph313" unicode="&#x1ec0;" horiz-adv-x="1042" 
d="M762 211l-23 -107q-322 -110 -557 -110q-154 0 -253 62q-117 74 -117 220q0 286 550 601q-90 144 -90 192q0 132 228 272q206 127 422 127q170 0 170 -120q0 -71 -150 -306l-49 70q119 172 119 240q0 82 -111 82q-114 0 -248 -68q-309 -157 -309 -324q0 -50 33 -121
t33 -73q0 -49 -129 -131q-93 -59 -144 -99q-272 -212 -272 -385q0 -102 85 -154q70 -42 179 -42q299 0 633 174zM936 1718q-153 -143 -176 -143q-17 0 -17 14q82 92 199 229h20q22 -103 78 -198q15 -26 15 -31q0 -12 -13 -12q-28 0 -106 141zM1117 1877q-34 0 -111 74
q-86 83 -86 133q0 39 37 39q30 0 43 -58q9 -39 16 -55q9 -21 62 -62q45 -34 45 -65q-2 -6 -6 -6z" />
    <glyph glyph-name="glyph314" unicode="&#x1ec1;" horiz-adv-x="446" 
d="M-141 127q86 38 152 95q87 76 87 149q0 51 -41 51q-67 0 -130 -119q-45 -83 -68 -176zM133 162l4 -27q-145 -145 -248 -145q-112 0 -112 112q0 104 98 220q109 129 201 129q74 0 74 -82q0 -85 -108 -168q-78 -61 -183 -101v-8q0 -63 65 -63q74 0 209 133zM105 682
q-153 -143 -176 -143q-17 0 -17 14q82 92 199 229h20q22 -103 78 -198q15 -26 15 -31q0 -12 -13 -12q-28 0 -106 141zM287 841q-34 0 -111 74q-86 83 -86 133q0 39 37 39q30 0 43 -58q9 -39 16 -55q9 -21 62 -62q45 -34 45 -65q-2 -6 -6 -6z" />
    <glyph glyph-name="glyph315" unicode="&#x1ec2;" horiz-adv-x="1042" 
d="M762 211l-23 -107q-322 -110 -557 -110q-154 0 -253 62q-117 74 -117 220q0 286 550 601q-90 144 -90 192q0 132 228 272q206 127 422 127q170 0 170 -120q0 -71 -150 -306l-49 70q119 172 119 240q0 82 -111 82q-114 0 -248 -68q-309 -157 -309 -324q0 -50 33 -121
t33 -73q0 -49 -129 -131q-93 -59 -144 -99q-272 -212 -272 -385q0 -102 85 -154q70 -42 179 -42q299 0 633 174zM936 1718q-153 -143 -176 -143q-17 0 -17 14q82 92 199 229h20q22 -103 78 -198q15 -26 15 -31q0 -12 -13 -12q-28 0 -106 141zM984 1849h-29q15 67 59 119
q7 8 23 26q41 44 41 68q0 27 -28 27q-39 0 -78 -79l-13 24q10 43 34 66.5t56 23.5q36 0 58.5 -29t4.5 -70q-14 -30 -69 -80l-10 -11q-32 -34 -49 -85z" />
    <glyph glyph-name="glyph316" unicode="&#x1ec3;" horiz-adv-x="446" 
d="M-141 127q86 38 152 95q87 76 87 149q0 51 -41 51q-67 0 -130 -119q-45 -83 -68 -176zM133 162l4 -27q-145 -145 -248 -145q-112 0 -112 112q0 104 98 220q109 129 201 129q74 0 74 -82q0 -85 -108 -168q-78 -61 -183 -101v-8q0 -63 65 -63q74 0 209 133zM105 682
q-153 -143 -176 -143q-17 0 -17 14q82 92 199 229h20q22 -103 78 -198q15 -26 15 -31q0 -12 -13 -12q-28 0 -106 141zM152 813h-29q15 67 59 119q7 8 23 26q41 44 41 68q0 27 -28 27q-39 0 -78 -79l-13 24q10 43 34 66.5t56 23.5q36 0 58.5 -29t4.5 -70q-14 -30 -69 -80
l-10 -11q-32 -34 -49 -85z" />
    <glyph glyph-name="glyph317" unicode="&#x1ec4;" horiz-adv-x="1042" 
d="M762 211l-23 -107q-322 -110 -557 -110q-154 0 -253 62q-117 74 -117 220q0 286 550 601q-90 144 -90 192q0 132 228 272q206 127 422 127q170 0 170 -120q0 -71 -150 -306l-49 70q119 172 119 240q0 82 -111 82q-114 0 -248 -68q-309 -157 -309 -324q0 -50 33 -121
t33 -73q0 -49 -129 -131q-93 -59 -144 -99q-272 -212 -272 -385q0 -102 85 -154q70 -42 179 -42q299 0 633 174zM936 1718q-153 -143 -176 -143q-17 0 -17 14q82 92 199 229h20q22 -103 78 -198q15 -26 15 -31q0 -12 -13 -12q-28 0 -106 141zM860 1888l-16 4q4 129 88 129
q31 0 104 -33t105 -33q42 0 66 88h20q-12 -139 -92 -139q-33 0 -109 33t-104 33q-48 0 -62 -82z" />
    <glyph glyph-name="glyph318" unicode="&#x1ec5;" horiz-adv-x="446" 
d="M-141 127q86 38 152 95q87 76 87 149q0 51 -41 51q-67 0 -130 -119q-45 -83 -68 -176zM133 162l4 -27q-145 -145 -248 -145q-112 0 -112 112q0 104 98 220q109 129 201 129q74 0 74 -82q0 -85 -108 -168q-78 -61 -183 -101v-8q0 -63 65 -63q74 0 209 133zM105 682
q-153 -143 -176 -143q-17 0 -17 14q82 92 199 229h20q22 -103 78 -198q15 -26 15 -31q0 -12 -13 -12q-28 0 -106 141zM30 852l-16 4q4 129 88 129q31 0 104 -33t105 -33q42 0 66 88h20q-12 -139 -92 -139q-33 0 -109 33t-104 33q-48 0 -62 -82z" />
    <glyph glyph-name="glyph319" unicode="&#x1ec6;" horiz-adv-x="1042" 
d="M762 211l-23 -107q-322 -110 -557 -110q-154 0 -253 62q-117 74 -117 220q0 286 550 601q-90 144 -90 192q0 132 228 272q206 127 422 127q170 0 170 -120q0 -71 -150 -306l-49 70q119 172 119 240q0 82 -111 82q-114 0 -248 -68q-309 -157 -309 -324q0 -50 33 -121
t33 -73q0 -49 -129 -131q-93 -59 -144 -99q-272 -212 -272 -385q0 -102 85 -154q70 -42 179 -42q299 0 633 174zM936 1718q-153 -143 -176 -143q-17 0 -17 14q82 92 199 229h20q22 -103 78 -198q15 -26 15 -31q0 -12 -13 -12q-28 0 -106 141zM90 -192q0 24 18 41t42 17
q57 0 57 -60q0 -55 -55 -55q-62 0 -62 57z" />
    <glyph glyph-name="glyph320" unicode="&#x1ec7;" horiz-adv-x="446" 
d="M-141 127q86 38 152 95q87 76 87 149q0 51 -41 51q-67 0 -130 -119q-45 -83 -68 -176zM133 162l4 -27q-145 -145 -248 -145q-112 0 -112 112q0 104 98 220q109 129 201 129q74 0 74 -82q0 -85 -108 -168q-78 -61 -183 -101v-8q0 -63 65 -63q74 0 209 133zM105 682
q-153 -143 -176 -143q-17 0 -17 14q82 92 199 229h20q22 -103 78 -198q15 -26 15 -31q0 -12 -13 -12q-28 0 -106 141zM-218 -192q0 24 18 41t42 17q57 0 57 -60q0 -55 -55 -55q-62 0 -62 57z" />
    <glyph glyph-name="glyph321" unicode="&#x1ec8;" horiz-adv-x="973" 
d="M588 524q235 595 235 822q0 94 -47 94q-44 0 -102 -84q-193 -281 -193 -555q0 -193 107 -277zM-313 78l39 61q218 -108 352 -108q183 0 314 145q91 101 181 311q-170 119 -170 355q0 212 156 438q133 193 227 193q91 0 91 -164q0 -326 -213 -832q56 -23 149 -39l-6 -28
q-61 7 -156 34q-192 -446 -579 -446q-175 0 -385 80zM812 1573h-29q15 67 59 119q7 8 23 26q41 44 41 68q0 27 -28 27q-39 0 -78 -79l-13 24q10 43 34 66.5t56 23.5q36 0 58.5 -29t4.5 -70q-14 -30 -69 -80l-10 -11q-32 -34 -49 -85z" />
    <glyph glyph-name="glyph322" unicode="&#x1ec9;" horiz-adv-x="342" 
d="M-102 430l94 19q-105 -304 -105 -365q0 -25 29 -25q26 0 127 111l14 -20q-137 -158 -202 -158q-50 0 -50 69q0 32 40 176q52 190 53 193zM-39 532h-29q15 67 59 119q7 8 23 26q41 44 41 68q0 27 -28 27q-39 0 -78 -79l-13 24q10 43 34 66.5t56 23.5q36 0 58.5 -29
t4.5 -70q-14 -30 -69 -80l-10 -11q-32 -34 -49 -85z" />
    <glyph glyph-name="glyph323" unicode="&#x1eca;" horiz-adv-x="973" 
d="M588 524q235 595 235 822q0 94 -47 94q-44 0 -102 -84q-193 -281 -193 -555q0 -193 107 -277zM-313 78l39 61q218 -108 352 -108q183 0 314 145q91 101 181 311q-170 119 -170 355q0 212 156 438q133 193 227 193q91 0 91 -164q0 -326 -213 -832q56 -23 149 -39l-6 -28
q-61 7 -156 34q-192 -446 -579 -446q-175 0 -385 80zM90 -192q0 24 18 41t42 17q57 0 57 -60q0 -55 -55 -55q-62 0 -62 57z" />
    <glyph glyph-name="glyph324" unicode="&#x1ecb;" horiz-adv-x="342" 
d="M-102 430l94 19q-105 -304 -105 -365q0 -25 29 -25q26 0 127 111l14 -20q-137 -158 -202 -158q-50 0 -50 69q0 32 40 176q52 190 53 193zM-25 662q0 51 50 51q45 0 45 -47q0 -52 -52 -52q-43 0 -43 48zM-256 -192q0 24 18 41t42 17q57 0 57 -60q0 -55 -55 -55
q-62 0 -62 57z" />
    <glyph glyph-name="glyph325" unicode="&#x1ecc;" horiz-adv-x="1341" 
d="M1124 989q0 190 -86 309q-98 136 -280 136q-214 0 -398 -181q-153 -151 -243 -363.5t-90 -426.5q0 -184 98 -309q107 -136 287 -136q149 0 297 113q121 92 219 238q196 293 196 620zM-59 539q0 328 213 606q245 319 591 319q229 0 361 -160q123 -148 123 -382
q0 -347 -250.5 -639.5t-560.5 -292.5q-234 0 -361 161q-116 148 -116 388zM250 -192q0 24 18 41t42 17q57 0 57 -60q0 -55 -55 -55q-62 0 -62 57z" />
    <glyph glyph-name="glyph326" unicode="&#x1ecd;" horiz-adv-x="483" 
d="M-221 143q0 115 78 209q83 99 196 99q144 0 144 -160q0 -122 -80 -212q-82 -93 -203 -93q-64 0 -101 48q-34 43 -34 109zM53 426q-62 0 -127 -96q-78 -114 -78 -236q0 -84 76 -84q86 0 149 131q54 111 54 207q0 78 -74 78zM-183 -192q0 24 18 41t42 17q57 0 57 -60
q0 -55 -55 -55q-62 0 -62 57z" />
    <glyph glyph-name="glyph327" unicode="&#x1ece;" horiz-adv-x="1341" 
d="M1124 989q0 190 -86 309q-98 136 -280 136q-214 0 -398 -181q-153 -151 -243 -363.5t-90 -426.5q0 -184 98 -309q107 -136 287 -136q149 0 297 113q121 92 219 238q196 293 196 620zM-59 539q0 328 213 606q245 319 591 319q229 0 361 -160q123 -148 123 -382
q0 -347 -250.5 -639.5t-560.5 -292.5q-234 0 -361 161q-116 148 -116 388zM875 1573h-29q15 67 59 119q7 8 23 26q41 44 41 68q0 27 -28 27q-39 0 -78 -79l-13 24q10 43 34 66.5t56 23.5q36 0 58.5 -29t4.5 -70q-14 -30 -69 -80l-10 -11q-32 -34 -49 -85z" />
    <glyph glyph-name="glyph328" unicode="&#x1ecf;" horiz-adv-x="483" 
d="M-221 143q0 115 78 209q83 99 196 99q144 0 144 -160q0 -122 -80 -212q-82 -93 -203 -93q-64 0 -101 48q-34 43 -34 109zM53 426q-62 0 -127 -96q-78 -114 -78 -236q0 -84 76 -84q86 0 149 131q54 111 54 207q0 78 -74 78zM87 532h-29q15 67 59 119q7 8 23 26
q41 44 41 68q0 27 -28 27q-39 0 -78 -79l-13 24q10 43 34 66.5t56 23.5q36 0 58.5 -29t4.5 -70q-14 -30 -69 -80l-10 -11q-32 -34 -49 -85z" />
    <glyph glyph-name="glyph329" unicode="&#x1ed0;" horiz-adv-x="1341" 
d="M1124 989q0 190 -86 309q-98 136 -280 136q-214 0 -398 -181q-153 -151 -243 -363.5t-90 -426.5q0 -184 98 -309q107 -136 287 -136q149 0 297 113q121 92 219 238q196 293 196 620zM-59 539q0 328 213 606q245 319 591 319q229 0 361 -160q123 -148 123 -382
q0 -347 -250.5 -639.5t-560.5 -292.5q-234 0 -361 161q-116 148 -116 388zM832 1718q-153 -143 -176 -143q-17 0 -17 14q82 92 199 229h20q22 -103 78 -198q15 -26 15 -31q0 -12 -13 -12q-28 0 -106 141zM737 1894q0 6 62 46q67 43 77 58q2 3 30 75q20 52 44 52q37 0 37 -30
q0 -57 -105 -140q-87 -69 -133 -69q-12 0 -12 8z" />
    <glyph glyph-name="glyph330" unicode="&#x1ed1;" horiz-adv-x="483" 
d="M-221 143q0 115 78 209q83 99 196 99q144 0 144 -160q0 -122 -80 -212q-82 -93 -203 -93q-64 0 -101 48q-34 43 -34 109zM53 426q-62 0 -127 -96q-78 -114 -78 -236q0 -84 76 -84q86 0 149 131q54 111 54 207q0 78 -74 78zM127 682q-153 -143 -176 -143q-17 0 -17 14
q82 92 199 229h20q22 -103 78 -198q15 -26 15 -31q0 -12 -13 -12q-28 0 -106 141zM32 858q0 6 62 46q67 43 77 58q2 3 30 75q20 52 44 52q37 0 37 -30q0 -57 -105 -140q-87 -69 -133 -69q-12 0 -12 8z" />
    <glyph glyph-name="glyph331" unicode="&#x1ed2;" horiz-adv-x="1341" 
d="M1124 989q0 190 -86 309q-98 136 -280 136q-214 0 -398 -181q-153 -151 -243 -363.5t-90 -426.5q0 -184 98 -309q107 -136 287 -136q149 0 297 113q121 92 219 238q196 293 196 620zM-59 539q0 328 213 606q245 319 591 319q229 0 361 -160q123 -148 123 -382
q0 -347 -250.5 -639.5t-560.5 -292.5q-234 0 -361 161q-116 148 -116 388zM832 1718q-153 -143 -176 -143q-17 0 -17 14q82 92 199 229h20q22 -103 78 -198q15 -26 15 -31q0 -12 -13 -12q-28 0 -106 141zM1013 1877q-34 0 -111 74q-86 83 -86 133q0 39 37 39q30 0 43 -58
q9 -39 16 -55q9 -21 62 -62q45 -34 45 -65q-2 -6 -6 -6z" />
    <glyph glyph-name="glyph332" unicode="&#x1ed3;" horiz-adv-x="483" 
d="M-221 143q0 115 78 209q83 99 196 99q144 0 144 -160q0 -122 -80 -212q-82 -93 -203 -93q-64 0 -101 48q-34 43 -34 109zM53 426q-62 0 -127 -96q-78 -114 -78 -236q0 -84 76 -84q86 0 149 131q54 111 54 207q0 78 -74 78zM127 682q-153 -143 -176 -143q-17 0 -17 14
q82 92 199 229h20q22 -103 78 -198q15 -26 15 -31q0 -12 -13 -12q-28 0 -106 141zM308 841q-34 0 -111 74q-86 83 -86 133q0 39 37 39q30 0 43 -58q9 -39 16 -55q9 -21 62 -62q45 -34 45 -65q-2 -6 -6 -6z" />
    <glyph glyph-name="glyph333" unicode="&#x1ed4;" horiz-adv-x="1341" 
d="M1124 989q0 190 -86 309q-98 136 -280 136q-214 0 -398 -181q-153 -151 -243 -363.5t-90 -426.5q0 -184 98 -309q107 -136 287 -136q149 0 297 113q121 92 219 238q196 293 196 620zM-59 539q0 328 213 606q245 319 591 319q229 0 361 -160q123 -148 123 -382
q0 -347 -250.5 -639.5t-560.5 -292.5q-234 0 -361 161q-116 148 -116 388zM832 1718q-153 -143 -176 -143q-17 0 -17 14q82 92 199 229h20q22 -103 78 -198q15 -26 15 -31q0 -12 -13 -12q-28 0 -106 141zM880 1849h-29q15 67 59 119q7 8 23 26q41 44 41 68q0 27 -28 27
q-39 0 -78 -79l-13 24q10 43 34 66.5t56 23.5q36 0 58.5 -29t4.5 -70q-14 -30 -69 -80l-10 -11q-32 -34 -49 -85z" />
    <glyph glyph-name="glyph334" unicode="&#x1ed5;" horiz-adv-x="483" 
d="M-221 143q0 115 78 209q83 99 196 99q144 0 144 -160q0 -122 -80 -212q-82 -93 -203 -93q-64 0 -101 48q-34 43 -34 109zM53 426q-62 0 -127 -96q-78 -114 -78 -236q0 -84 76 -84q86 0 149 131q54 111 54 207q0 78 -74 78zM127 682q-153 -143 -176 -143q-17 0 -17 14
q82 92 199 229h20q22 -103 78 -198q15 -26 15 -31q0 -12 -13 -12q-28 0 -106 141zM175 813h-29q15 67 59 119q7 8 23 26q41 44 41 68q0 27 -28 27q-39 0 -78 -79l-13 24q10 43 34 66.5t56 23.5q36 0 58.5 -29t4.5 -70q-14 -30 -69 -80l-10 -11q-32 -34 -49 -85z" />
    <glyph glyph-name="glyph335" unicode="&#x1ed6;" horiz-adv-x="1341" 
d="M1124 989q0 190 -86 309q-98 136 -280 136q-214 0 -398 -181q-153 -151 -243 -363.5t-90 -426.5q0 -184 98 -309q107 -136 287 -136q149 0 297 113q121 92 219 238q196 293 196 620zM-59 539q0 328 213 606q245 319 591 319q229 0 361 -160q123 -148 123 -382
q0 -347 -250.5 -639.5t-560.5 -292.5q-234 0 -361 161q-116 148 -116 388zM832 1718q-153 -143 -176 -143q-17 0 -17 14q82 92 199 229h20q22 -103 78 -198q15 -26 15 -31q0 -12 -13 -12q-28 0 -106 141zM757 1888l-16 4q4 129 88 129q31 0 104 -33t105 -33q42 0 66 88h20
q-12 -139 -92 -139q-33 0 -109 33t-104 33q-48 0 -62 -82z" />
    <glyph glyph-name="glyph336" unicode="&#x1ed7;" horiz-adv-x="483" 
d="M-221 143q0 115 78 209q83 99 196 99q144 0 144 -160q0 -122 -80 -212q-82 -93 -203 -93q-64 0 -101 48q-34 43 -34 109zM53 426q-62 0 -127 -96q-78 -114 -78 -236q0 -84 76 -84q86 0 149 131q54 111 54 207q0 78 -74 78zM127 682q-153 -143 -176 -143q-17 0 -17 14
q82 92 199 229h20q22 -103 78 -198q15 -26 15 -31q0 -12 -13 -12q-28 0 -106 141zM52 852l-16 4q4 129 88 129q31 0 104 -33t105 -33q42 0 66 88h20q-12 -139 -92 -139q-33 0 -109 33t-104 33q-48 0 -62 -82z" />
    <glyph glyph-name="glyph337" unicode="&#x1ed8;" horiz-adv-x="1341" 
d="M1124 989q0 190 -86 309q-98 136 -280 136q-214 0 -398 -181q-153 -151 -243 -363.5t-90 -426.5q0 -184 98 -309q107 -136 287 -136q149 0 297 113q121 92 219 238q196 293 196 620zM-59 539q0 328 213 606q245 319 591 319q229 0 361 -160q123 -148 123 -382
q0 -347 -250.5 -639.5t-560.5 -292.5q-234 0 -361 161q-116 148 -116 388zM832 1718q-153 -143 -176 -143q-17 0 -17 14q82 92 199 229h20q22 -103 78 -198q15 -26 15 -31q0 -12 -13 -12q-28 0 -106 141zM250 -192q0 24 18 41t42 17q57 0 57 -60q0 -55 -55 -55q-62 0 -62 57
z" />
    <glyph glyph-name="glyph338" unicode="&#x1ed9;" horiz-adv-x="483" 
d="M-221 143q0 115 78 209q83 99 196 99q144 0 144 -160q0 -122 -80 -212q-82 -93 -203 -93q-64 0 -101 48q-34 43 -34 109zM53 426q-62 0 -127 -96q-78 -114 -78 -236q0 -84 76 -84q86 0 149 131q54 111 54 207q0 78 -74 78zM127 682q-153 -143 -176 -143q-17 0 -17 14
q82 92 199 229h20q22 -103 78 -198q15 -26 15 -31q0 -12 -13 -12q-28 0 -106 141zM-183 -192q0 24 18 41t42 17q57 0 57 -60q0 -55 -55 -55q-62 0 -62 57z" />
    <glyph glyph-name="glyph339" unicode="&#x1eda;" horiz-adv-x="1341" 
d="M1124 989q0 190 -86 309q-98 136 -280 136q-214 0 -398 -181q-153 -151 -243 -363.5t-90 -426.5q0 -184 98 -309q107 -136 287 -136q149 0 297 113q121 92 219 238q196 293 196 620zM1129 1274q36 45 43 88q-71 6 -71 53q0 62 55 62q60 0 60 -74q0 -72 -74 -148
q87 -136 87 -333q0 -163 -65.5 -331.5t-184.5 -307.5q-251 -293 -561 -293q-234 0 -361 161q-116 148 -116 388q0 328 213 606q245 319 591 319q248 0 384 -190zM746 1591q0 6 62 46q67 43 77 58q2 3 30 75q20 52 44 52q37 0 37 -30q0 -57 -105 -140q-87 -69 -133 -69
q-12 0 -12 8z" />
    <glyph glyph-name="glyph340" unicode="&#x1edb;" horiz-adv-x="483" 
d="M53 426q-62 0 -127 -96q-78 -114 -78 -236q0 -84 76 -84q86 0 149 131q54 111 54 207q0 78 -74 78zM185 366q36 45 43 88q-71 6 -71 53q0 62 55 62q60 0 60 -74q0 -75 -80 -155q5 -22 5 -49q0 -122 -80 -212q-82 -93 -203 -93q-64 0 -101 48q-34 43 -34 109q0 115 78 209
q83 99 196 99q99 0 132 -85zM11 555q0 6 62 46q67 43 77 58q2 3 30 75q20 52 44 52q37 0 37 -30q0 -57 -105 -140q-87 -69 -133 -69q-12 0 -12 8z" />
    <glyph glyph-name="glyph341" unicode="&#x1edc;" horiz-adv-x="1341" 
d="M1124 989q0 190 -86 309q-98 136 -280 136q-214 0 -398 -181q-153 -151 -243 -363.5t-90 -426.5q0 -184 98 -309q107 -136 287 -136q149 0 297 113q121 92 219 238q196 293 196 620zM1129 1274q36 45 43 88q-71 6 -71 53q0 62 55 62q60 0 60 -74q0 -72 -74 -148
q87 -136 87 -333q0 -163 -65.5 -331.5t-184.5 -307.5q-251 -293 -561 -293q-234 0 -361 161q-116 148 -116 388q0 328 213 606q245 319 591 319q248 0 384 -190zM871 1583q-34 0 -111 74q-86 83 -86 133q0 39 37 39q30 0 43 -58q9 -39 16 -55q9 -21 62 -62q45 -34 45 -65
q-2 -6 -6 -6z" />
    <glyph glyph-name="glyph342" unicode="&#x1edd;" horiz-adv-x="483" 
d="M53 426q-62 0 -127 -96q-78 -114 -78 -236q0 -84 76 -84q86 0 149 131q54 111 54 207q0 78 -74 78zM185 366q36 45 43 88q-71 6 -71 53q0 62 55 62q60 0 60 -74q0 -75 -80 -155q5 -22 5 -49q0 -122 -80 -212q-82 -93 -203 -93q-64 0 -101 48q-34 43 -34 109q0 115 78 209
q83 99 196 99q99 0 132 -85zM122 547q-34 0 -111 74q-86 83 -86 133q0 39 37 39q30 0 43 -58q9 -39 16 -55q9 -21 62 -62q45 -34 45 -65q-2 -6 -6 -6z" />
    <glyph glyph-name="glyph343" unicode="&#x1ede;" horiz-adv-x="1341" 
d="M1124 989q0 190 -86 309q-98 136 -280 136q-214 0 -398 -181q-153 -151 -243 -363.5t-90 -426.5q0 -184 98 -309q107 -136 287 -136q149 0 297 113q121 92 219 238q196 293 196 620zM1129 1274q36 45 43 88q-71 6 -71 53q0 62 55 62q60 0 60 -74q0 -72 -74 -148
q87 -136 87 -333q0 -163 -65.5 -331.5t-184.5 -307.5q-251 -293 -561 -293q-234 0 -361 161q-116 148 -116 388q0 328 213 606q245 319 591 319q248 0 384 -190zM875 1573h-29q15 67 59 119q7 8 23 26q41 44 41 68q0 27 -28 27q-39 0 -78 -79l-13 24q10 43 34 66.5t56 23.5
q36 0 58.5 -29t4.5 -70q-14 -30 -69 -80l-10 -11q-32 -34 -49 -85z" />
    <glyph glyph-name="glyph344" unicode="&#x1edf;" horiz-adv-x="483" 
d="M53 426q-62 0 -127 -96q-78 -114 -78 -236q0 -84 76 -84q86 0 149 131q54 111 54 207q0 78 -74 78zM185 366q36 45 43 88q-71 6 -71 53q0 62 55 62q60 0 60 -74q0 -75 -80 -155q5 -22 5 -49q0 -122 -80 -212q-82 -93 -203 -93q-64 0 -101 48q-34 43 -34 109q0 115 78 209
q83 99 196 99q99 0 132 -85zM87 532h-29q15 67 59 119q7 8 23 26q41 44 41 68q0 27 -28 27q-39 0 -78 -79l-13 24q10 43 34 66.5t56 23.5q36 0 58.5 -29t4.5 -70q-14 -30 -69 -80l-10 -11q-32 -34 -49 -85z" />
    <glyph glyph-name="glyph345" unicode="&#x1ee0;" horiz-adv-x="1341" 
d="M1124 989q0 190 -86 309q-98 136 -280 136q-214 0 -398 -181q-153 -151 -243 -363.5t-90 -426.5q0 -184 98 -309q107 -136 287 -136q149 0 297 113q121 92 219 238q196 293 196 620zM1129 1274q36 45 43 88q-71 6 -71 53q0 62 55 62q60 0 60 -74q0 -72 -74 -148
q87 -136 87 -333q0 -163 -65.5 -331.5t-184.5 -307.5q-251 -293 -561 -293q-234 0 -361 161q-116 148 -116 388q0 328 213 606q245 319 591 319q248 0 384 -190zM647 1620l-16 4q4 129 88 129q31 0 104 -33t105 -33q42 0 66 88h20q-12 -139 -92 -139q-33 0 -109 33t-104 33
q-48 0 -62 -82z" />
    <glyph glyph-name="glyph346" unicode="&#x1ee1;" horiz-adv-x="483" 
d="M53 426q-62 0 -127 -96q-78 -114 -78 -236q0 -84 76 -84q86 0 149 131q54 111 54 207q0 78 -74 78zM185 366q36 45 43 88q-71 6 -71 53q0 62 55 62q60 0 60 -74q0 -75 -80 -155q5 -22 5 -49q0 -122 -80 -212q-82 -93 -203 -93q-64 0 -101 48q-34 43 -34 109q0 115 78 209
q83 99 196 99q99 0 132 -85zM-58 584l-16 4q4 129 88 129q31 0 104 -33t105 -33q42 0 66 88h20q-12 -139 -92 -139q-33 0 -109 33t-104 33q-48 0 -62 -82z" />
    <glyph glyph-name="glyph347" unicode="&#x1ee2;" horiz-adv-x="1341" 
d="M1124 989q0 190 -86 309q-98 136 -280 136q-214 0 -398 -181q-153 -151 -243 -363.5t-90 -426.5q0 -184 98 -309q107 -136 287 -136q149 0 297 113q121 92 219 238q196 293 196 620zM1129 1274q36 45 43 88q-71 6 -71 53q0 62 55 62q60 0 60 -74q0 -72 -74 -148
q87 -136 87 -333q0 -163 -65.5 -331.5t-184.5 -307.5q-251 -293 -561 -293q-234 0 -361 161q-116 148 -116 388q0 328 213 606q245 319 591 319q248 0 384 -190zM250 -192q0 24 18 41t42 17q57 0 57 -60q0 -55 -55 -55q-62 0 -62 57z" />
    <glyph glyph-name="glyph348" unicode="&#x1ee3;" horiz-adv-x="483" 
d="M53 426q-62 0 -127 -96q-78 -114 -78 -236q0 -84 76 -84q86 0 149 131q54 111 54 207q0 78 -74 78zM185 366q36 45 43 88q-71 6 -71 53q0 62 55 62q60 0 60 -74q0 -75 -80 -155q5 -22 5 -49q0 -122 -80 -212q-82 -93 -203 -93q-64 0 -101 48q-34 43 -34 109q0 115 78 209
q83 99 196 99q99 0 132 -85zM-183 -192q0 24 18 41t42 17q57 0 57 -60q0 -55 -55 -55q-62 0 -62 57z" />
    <glyph glyph-name="glyph349" unicode="&#x1ee4;" horiz-adv-x="1233" 
d="M63 999l-59 54q216 420 365 420q73 0 73 -107q0 -88 -123 -482l-10 -32q-176 -563 -176 -666q0 -137 123 -137q234 0 521 587q161 330 310 783l97 19q-262 -782 -377 -1440l-82 49q79 421 215 881q-391 -934 -711 -934q-178 0 -178 207q0 129 150 600q42 131 97 296
q83 248 83 279q0 54 -35 54q-74 0 -283 -431zM280 -192q0 24 18 41t42 17q57 0 57 -60q0 -55 -55 -55q-62 0 -62 57z" />
    <glyph glyph-name="glyph350" unicode="&#x1ee5;" 
d="M-106 428l77 23q-94 -333 -94 -390q0 -22 29 -22q78 0 280 395l88 4q-96 -322 -96 -356q0 -29 31 -29q29 0 123 103l14 -25q-119 -135 -184 -135q-62 0 -62 70q0 60 68 280q-194 -350 -291 -350q-74 0 -74 86q0 54 91 346zM-118 -192q0 24 18 41t42 17q57 0 57 -60
q0 -55 -55 -55q-62 0 -62 57z" />
    <glyph glyph-name="glyph351" unicode="&#x1ee6;" horiz-adv-x="1233" 
d="M63 999l-59 54q216 420 365 420q73 0 73 -107q0 -88 -123 -482l-10 -32q-176 -563 -176 -666q0 -137 123 -137q234 0 521 587q161 330 310 783l97 19q-262 -782 -377 -1440l-82 49q79 421 215 881q-391 -934 -711 -934q-178 0 -178 207q0 129 150 600q42 131 97 296
q83 248 83 279q0 54 -35 54q-74 0 -283 -431zM812 1573h-29q15 67 59 119q7 8 23 26q41 44 41 68q0 27 -28 27q-39 0 -78 -79l-13 24q10 43 34 66.5t56 23.5q36 0 58.5 -29t4.5 -70q-14 -30 -69 -80l-10 -11q-32 -34 -49 -85z" />
    <glyph glyph-name="glyph352" unicode="&#x1ee7;" 
d="M-106 428l77 23q-94 -333 -94 -390q0 -22 29 -22q78 0 280 395l88 4q-96 -322 -96 -356q0 -29 31 -29q29 0 123 103l14 -25q-119 -135 -184 -135q-62 0 -62 70q0 60 68 280q-194 -350 -291 -350q-74 0 -74 86q0 54 91 346zM87 532h-29q15 67 59 119q7 8 23 26
q41 44 41 68q0 27 -28 27q-39 0 -78 -79l-13 24q10 43 34 66.5t56 23.5q36 0 58.5 -29t4.5 -70q-14 -30 -69 -80l-10 -11q-32 -34 -49 -85z" />
    <glyph glyph-name="glyph353" unicode="&#x1ee8;" horiz-adv-x="1233" 
d="M1125 1258q49 54 57 104q-12 1 -22 3q-18 -54 -35 -107zM1121 1225l-5 5q-209 -660 -309 -1232l-82 49q79 421 215 881q-391 -934 -711 -934q-178 0 -178 207q0 129 150 600q42 131 97 296q83 248 83 279q0 54 -35 54q-74 0 -283 -431l-59 54q216 420 365 420
q73 0 73 -107q0 -88 -123 -482l-10 -32q-176 -563 -176 -666q0 -137 123 -137q234 0 521 587q161 330 310 783l24 5q5 53 55 53q60 0 60 -74q0 -85 -105 -178zM758 1591q0 6 62 46q67 43 77 58q2 3 30 75q20 52 44 52q37 0 37 -30q0 -57 -105 -140q-87 -69 -133 -69
q-12 0 -12 8z" />
    <glyph glyph-name="glyph354" unicode="&#x1ee9;" 
d="M244 317l-5 5q-33 -114 -44 -157q-17 -63 -17 -83q0 -29 31 -29q29 0 123 103l14 -25q-119 -135 -184 -135q-62 0 -62 70q0 60 68 280q-194 -350 -291 -350q-74 0 -74 86q0 54 91 346l77 23q-94 -333 -94 -390q0 -22 29 -22q78 0 280 395l88 4l-26 -89q49 55 57 105
q-71 6 -71 53q0 62 55 62q60 0 60 -74q0 -85 -105 -178zM38 555q0 6 62 46q67 43 77 58q2 3 30 75q20 52 44 52q37 0 37 -30q0 -57 -105 -140q-87 -69 -133 -69q-12 0 -12 8z" />
    <glyph glyph-name="glyph355" unicode="&#x1eea;" horiz-adv-x="1233" 
d="M1125 1258q49 54 57 104q-12 1 -22 3q-18 -54 -35 -107zM1121 1225l-5 5q-209 -660 -309 -1232l-82 49q79 421 215 881q-391 -934 -711 -934q-178 0 -178 207q0 129 150 600q42 131 97 296q83 248 83 279q0 54 -35 54q-74 0 -283 -431l-59 54q216 420 365 420
q73 0 73 -107q0 -88 -123 -482l-10 -32q-176 -563 -176 -666q0 -137 123 -137q234 0 521 587q161 330 310 783l24 5q5 53 55 53q60 0 60 -74q0 -85 -105 -178zM883 1583q-34 0 -111 74q-86 83 -86 133q0 39 37 39q30 0 43 -58q9 -39 16 -55q9 -21 62 -62q45 -34 45 -65
q-2 -6 -6 -6z" />
    <glyph glyph-name="glyph356" unicode="&#x1eeb;" 
d="M244 317l-5 5q-33 -114 -44 -157q-17 -63 -17 -83q0 -29 31 -29q29 0 123 103l14 -25q-119 -135 -184 -135q-62 0 -62 70q0 60 68 280q-194 -350 -291 -350q-74 0 -74 86q0 54 91 346l77 23q-94 -333 -94 -390q0 -22 29 -22q78 0 280 395l88 4l-26 -89q49 55 57 105
q-71 6 -71 53q0 62 55 62q60 0 60 -74q0 -85 -105 -178zM181 547q-34 0 -111 74q-86 83 -86 133q0 39 37 39q30 0 43 -58q9 -39 16 -55q9 -21 62 -62q45 -34 45 -65q-2 -6 -6 -6z" />
    <glyph glyph-name="glyph357" unicode="&#x1eec;" horiz-adv-x="1233" 
d="M1125 1258q49 54 57 104q-12 1 -22 3q-18 -54 -35 -107zM1121 1225l-5 5q-209 -660 -309 -1232l-82 49q79 421 215 881q-391 -934 -711 -934q-178 0 -178 207q0 129 150 600q42 131 97 296q83 248 83 279q0 54 -35 54q-74 0 -283 -431l-59 54q216 420 365 420
q73 0 73 -107q0 -88 -123 -482l-10 -32q-176 -563 -176 -666q0 -137 123 -137q234 0 521 587q161 330 310 783l24 5q5 53 55 53q60 0 60 -74q0 -85 -105 -178zM812 1573h-29q15 67 59 119q7 8 23 26q41 44 41 68q0 27 -28 27q-39 0 -78 -79l-13 24q10 43 34 66.5t56 23.5
q36 0 58.5 -29t4.5 -70q-14 -30 -69 -80l-10 -11q-32 -34 -49 -85z" />
    <glyph glyph-name="glyph358" unicode="&#x1eed;" 
d="M244 317l-5 5q-33 -114 -44 -157q-17 -63 -17 -83q0 -29 31 -29q29 0 123 103l14 -25q-119 -135 -184 -135q-62 0 -62 70q0 60 68 280q-194 -350 -291 -350q-74 0 -74 86q0 54 91 346l77 23q-94 -333 -94 -390q0 -22 29 -22q78 0 280 395l88 4l-26 -89q49 55 57 105
q-71 6 -71 53q0 62 55 62q60 0 60 -74q0 -85 -105 -178zM87 532h-29q15 67 59 119q7 8 23 26q41 44 41 68q0 27 -28 27q-39 0 -78 -79l-13 24q10 43 34 66.5t56 23.5q36 0 58.5 -29t4.5 -70q-14 -30 -69 -80l-10 -11q-32 -34 -49 -85z" />
    <glyph glyph-name="glyph359" unicode="&#x1eee;" horiz-adv-x="1233" 
d="M1125 1258q49 54 57 104q-12 1 -22 3q-18 -54 -35 -107zM1121 1225l-5 5q-209 -660 -309 -1232l-82 49q79 421 215 881q-391 -934 -711 -934q-178 0 -178 207q0 129 150 600q42 131 97 296q83 248 83 279q0 54 -35 54q-74 0 -283 -431l-59 54q216 420 365 420
q73 0 73 -107q0 -88 -123 -482l-10 -32q-176 -563 -176 -666q0 -137 123 -137q234 0 521 587q161 330 310 783l24 5q5 53 55 53q60 0 60 -74q0 -85 -105 -178zM647 1620l-16 4q4 129 88 129q31 0 104 -33t105 -33q42 0 66 88h20q-12 -139 -92 -139q-33 0 -109 33t-104 33
q-48 0 -62 -82z" />
    <glyph glyph-name="glyph360" unicode="&#x1eef;" 
d="M244 317l-5 5q-33 -114 -44 -157q-17 -63 -17 -83q0 -29 31 -29q29 0 123 103l14 -25q-119 -135 -184 -135q-62 0 -62 70q0 60 68 280q-194 -350 -291 -350q-74 0 -74 86q0 54 91 346l77 23q-94 -333 -94 -390q0 -22 29 -22q78 0 280 395l88 4l-26 -89q49 55 57 105
q-71 6 -71 53q0 62 55 62q60 0 60 -74q0 -85 -105 -178zM-58 584l-16 4q4 129 88 129q31 0 104 -33t105 -33q42 0 66 88h20q-12 -139 -92 -139q-33 0 -109 33t-104 33q-48 0 -62 -82z" />
    <glyph glyph-name="glyph361" unicode="&#x1ef0;" horiz-adv-x="1233" 
d="M1125 1258q49 54 57 104q-12 1 -22 3q-18 -54 -35 -107zM1121 1225l-5 5q-209 -660 -309 -1232l-82 49q79 421 215 881q-391 -934 -711 -934q-178 0 -178 207q0 129 150 600q42 131 97 296q83 248 83 279q0 54 -35 54q-74 0 -283 -431l-59 54q216 420 365 420
q73 0 73 -107q0 -88 -123 -482l-10 -32q-176 -563 -176 -666q0 -137 123 -137q234 0 521 587q161 330 310 783l24 5q5 53 55 53q60 0 60 -74q0 -85 -105 -178zM280 -192q0 24 18 41t42 17q57 0 57 -60q0 -55 -55 -55q-62 0 -62 57z" />
    <glyph glyph-name="glyph362" unicode="&#x1ef1;" 
d="M244 317l-5 5q-33 -114 -44 -157q-17 -63 -17 -83q0 -29 31 -29q29 0 123 103l14 -25q-119 -135 -184 -135q-62 0 -62 70q0 60 68 280q-194 -350 -291 -350q-74 0 -74 86q0 54 91 346l77 23q-94 -333 -94 -390q0 -22 29 -22q78 0 280 395l88 4l-26 -89q49 55 57 105
q-71 6 -71 53q0 62 55 62q60 0 60 -74q0 -85 -105 -178zM-118 -192q0 24 18 41t42 17q57 0 57 -60q0 -55 -55 -55q-62 0 -62 57z" />
    <glyph glyph-name="glyph363" unicode="&#x1ef2;" horiz-adv-x="1190" 
d="M-119 -457l39 76q161 -51 260 -51q177 0 293 143q62 77 164 303q168 373 369 1090q-579 -1104 -879 -1104q-121 0 -121 154q0 128 150 563q34 98 78 224q137 390 137 454q0 32 -21 32q-78 0 -303 -426l-51 72q233 389 362 389q31 0 51 -31q19 -27 19 -59
q0 -133 -227 -804l-23 -68q-100 -296 -100 -398q0 -67 61 -67q196 0 557 590q224 366 408 764l86 8q-148 -520 -202 -688q-131 -417 -253 -668q-129 -266 -250 -375q-160 -145 -413 -145q-81 0 -191 22zM871 1583q-34 0 -111 74q-86 83 -86 133q0 39 37 39q30 0 43 -58
q9 -39 16 -55q9 -21 62 -62q45 -34 45 -65q-2 -6 -6 -6z" />
    <glyph glyph-name="glyph364" unicode="&#x1ef3;" horiz-adv-x="592" 
d="M53 -86q-217 -200 -217 -313q0 -52 33 -52q99 0 184 365zM-113 430l82 14l-9 -29q-87 -280 -87 -333q0 -47 31 -47q92 0 289 405h73l-106 -385l100 99l19 -19l-127 -121q-130 -489 -283 -489q-64 0 -64 65q0 131 254 365l103 371q-177 -328 -283 -328q-72 0 -72 88
q0 59 80 344zM166 547q-34 0 -111 74q-86 83 -86 133q0 39 37 39q30 0 43 -58q9 -39 16 -55q9 -21 62 -62q45 -34 45 -65q-2 -6 -6 -6z" />
    <glyph glyph-name="glyph365" unicode="&#x1ef4;" horiz-adv-x="1190" 
d="M-119 -457l39 76q161 -51 260 -51q177 0 293 143q62 77 164 303q168 373 369 1090q-579 -1104 -879 -1104q-121 0 -121 154q0 128 150 563q34 98 78 224q137 390 137 454q0 32 -21 32q-78 0 -303 -426l-51 72q233 389 362 389q31 0 51 -31q19 -27 19 -59
q0 -133 -227 -804l-23 -68q-100 -296 -100 -398q0 -67 61 -67q196 0 557 590q224 366 408 764l86 8q-148 -520 -202 -688q-131 -417 -253 -668q-129 -266 -250 -375q-160 -145 -413 -145q-81 0 -191 22zM195 -192q0 24 18 41t42 17q57 0 57 -60q0 -55 -55 -55q-62 0 -62 57z
" />
    <glyph glyph-name="glyph366" unicode="&#x1ef5;" horiz-adv-x="592" 
d="M53 -86q-217 -200 -217 -313q0 -52 33 -52q99 0 184 365zM-113 430l82 14l-9 -29q-87 -280 -87 -333q0 -47 31 -47q92 0 289 405h73l-106 -385l100 99l19 -19l-127 -121q-130 -489 -283 -489q-64 0 -64 65q0 131 254 365l103 371q-177 -328 -283 -328q-72 0 -72 88
q0 59 80 344zM-251 -192q0 24 18 41t42 17q57 0 57 -60q0 -55 -55 -55q-62 0 -62 57z" />
    <glyph glyph-name="glyph367" unicode="&#x1ef6;" horiz-adv-x="1190" 
d="M-119 -457l39 76q161 -51 260 -51q177 0 293 143q62 77 164 303q168 373 369 1090q-579 -1104 -879 -1104q-121 0 -121 154q0 128 150 563q34 98 78 224q137 390 137 454q0 32 -21 32q-78 0 -303 -426l-51 72q233 389 362 389q31 0 51 -31q19 -27 19 -59
q0 -133 -227 -804l-23 -68q-100 -296 -100 -398q0 -67 61 -67q196 0 557 590q224 366 408 764l86 8q-148 -520 -202 -688q-131 -417 -253 -668q-129 -266 -250 -375q-160 -145 -413 -145q-81 0 -191 22zM812 1573h-29q15 67 59 119q7 8 23 26q41 44 41 68q0 27 -28 27
q-39 0 -78 -79l-13 24q10 43 34 66.5t56 23.5q36 0 58.5 -29t4.5 -70q-14 -30 -69 -80l-10 -11q-32 -34 -49 -85z" />
    <glyph glyph-name="glyph368" unicode="&#x1ef7;" horiz-adv-x="592" 
d="M53 -86q-217 -200 -217 -313q0 -52 33 -52q99 0 184 365zM-113 430l82 14l-9 -29q-87 -280 -87 -333q0 -47 31 -47q92 0 289 405h73l-106 -385l100 99l19 -19l-127 -121q-130 -489 -283 -489q-64 0 -64 65q0 131 254 365l103 371q-177 -328 -283 -328q-72 0 -72 88
q0 59 80 344zM87 532h-29q15 67 59 119q7 8 23 26q41 44 41 68q0 27 -28 27q-39 0 -78 -79l-13 24q10 43 34 66.5t56 23.5q36 0 58.5 -29t4.5 -70q-14 -30 -69 -80l-10 -11q-32 -34 -49 -85z" />
    <glyph glyph-name="glyph369" unicode="&#x1ef8;" horiz-adv-x="1190" 
d="M-119 -457l39 76q161 -51 260 -51q177 0 293 143q62 77 164 303q168 373 369 1090q-579 -1104 -879 -1104q-121 0 -121 154q0 128 150 563q34 98 78 224q137 390 137 454q0 32 -21 32q-78 0 -303 -426l-51 72q233 389 362 389q31 0 51 -31q19 -27 19 -59
q0 -133 -227 -804l-23 -68q-100 -296 -100 -398q0 -67 61 -67q196 0 557 590q224 366 408 764l86 8q-148 -520 -202 -688q-131 -417 -253 -668q-129 -266 -250 -375q-160 -145 -413 -145q-81 0 -191 22zM647 1620l-16 4q4 129 88 129q31 0 104 -33t105 -33q42 0 66 88h20
q-12 -139 -92 -139q-33 0 -109 33t-104 33q-48 0 -62 -82z" />
    <glyph glyph-name="glyph370" unicode="&#x1ef9;" horiz-adv-x="592" 
d="M53 -86q-217 -200 -217 -313q0 -52 33 -52q99 0 184 365zM-113 430l82 14l-9 -29q-87 -280 -87 -333q0 -47 31 -47q92 0 289 405h73l-106 -385l100 99l19 -19l-127 -121q-130 -489 -283 -489q-64 0 -64 65q0 131 254 365l103 371q-177 -328 -283 -328q-72 0 -72 88
q0 59 80 344zM-58 584l-16 4q4 129 88 129q31 0 104 -33t105 -33q42 0 66 88h20q-12 -139 -92 -139q-33 0 -109 33t-104 33q-48 0 -62 -82z" />
    </font>
</defs>
</svg>
