<?xml version="1.0" standalone="no"?>
<!DOCTYPE svg PUBLIC "-//W3C//DTD SVG 1.1//EN" "http://www.w3.org/Graphics/SVG/1.1/DTD/svg11.dtd" >
<svg>
<metadata>
Created by FontForge 20120731 at Tue Nov  4 21:24:06 2014
 By root
Copyright (c) 1995 Luu Minh Qui'. All Rights Reserved.
</metadata>
<defs>
<font id="Fujiyama2Plain" horiz-adv-x="1184" >
  <font-face 
    font-family="KV-Fujiyama2"
    font-weight="400"
    font-stretch="normal"
    units-per-em="2048"
    panose-1="2 11 114 0 0 0 0 0 0 0"
    ascent="1638"
    descent="-410"
    x-height="961"
    cap-height="1544"
    bbox="-1139 -549 2280 2551"
    underline-thickness="25"
    underline-position="-38"
    unicode-range="U+0020-F002"
  />
<missing-glyph horiz-adv-x="1805" 
d="M112 0v1805h1581v-1805h-1581zM1581 112v1581h-1357v-1581h1357z" />
    <glyph glyph-name=".notdef" horiz-adv-x="1805" 
d="M112 0v1805h1581v-1805h-1581zM1581 112v1581h-1357v-1581h1357z" />
    <glyph glyph-name=".null" horiz-adv-x="0" 
 />
    <glyph glyph-name="nonmarkingreturn" horiz-adv-x="592" 
 />
    <glyph glyph-name="space" unicode=" " horiz-adv-x="592" 
 />
    <glyph glyph-name="exclam" unicode="!" horiz-adv-x="656" 
d="M324 193q53 0 84 -36q28 -32 28 -81q0 -47 -32 -85t-80 -38q-56 0 -87 34t-36 85q0 45 35 85q32 36 88 36zM236 1544h188v-1187h-188v1187z" />
    <glyph glyph-name="quotedbl" unicode="&#x22;" horiz-adv-x="899" 
d="M516 1544h201l-37 -671h-127zM185 1544h200l-37 -671h-129z" />
    <glyph glyph-name="numbersign" unicode="#" 
d="M373 1075l72 398h159l-75 -398h256l71 398h160l-72 -398h189v-167h-217l-56 -312h205v-164h-237l-80 -432h-156l76 432h-252l-84 -432h-152l76 432h-205v164h238l55 312h-215v167h244zM756 908h-252l-55 -312h252z" />
    <glyph glyph-name="dollar" unicode="$" 
d="M580 1579v185h104v-187q47 0 92.5 -15.5t98.5 -48.5q99 -60 157 -173l-159 -93q-39 66 -78.5 99.5t-110.5 54.5v-485q396 -155 396 -471q0 -104 -38.5 -191t-100.5 -149q-32 -32 -61.5 -54.5t-65.5 -41.5q-68 -35 -130 -42v-195h-104v195q-68 0 -126 17.5t-114 54.5
q-104 65 -165 164t-70 193l184 40q24 -133 93.5 -204t197.5 -84v616q-141 63 -221.5 124.5t-111.5 127.5q-15 34 -24.5 75t-9.5 85q0 76 37.5 165t120 156.5t209.5 81.5zM580 965v436q-73 -9 -133 -68t-60 -149q0 -78 53 -129.5t140 -89.5zM684 717v-557q95 21 152 99
q30 41 45.5 82.5t15.5 86.5q0 176 -213 289z" />
    <glyph glyph-name="percent" unicode="%" horiz-adv-x="1448" 
d="M396 1456q-98 0 -169 -67.5t-71 -159.5q0 -64 32 -115.5t87 -82.5t121 -31q64 0 118 30t86.5 83.5t32.5 115.5q0 61 -31.5 113t-86 83t-119.5 31zM396 1577q97 0 179.5 -47t131.5 -127.5t49 -173.5q0 -97 -48.5 -177t-131.5 -127.5t-180 -47.5q-99 0 -180 46t-130 127.5
t-49 178.5q0 94 48 174q23 39 56.5 71.5t74.5 55.5q83 47 180 47zM1057 549q-62 0 -117.5 -30t-88 -83.5t-32.5 -115.5q0 -95 70.5 -161.5t167.5 -66.5q64 0 119 30t88 83t33 115t-32 115t-88 83.5t-120 30.5zM1057 672q96 0 179 -47t131 -129t48 -176t-47.5 -175.5
t-130.5 -129.5t-180 -48q-50 0 -93 11t-86 37q-82 46 -131.5 127t-49.5 178q0 95 48.5 175.5t132 128.5t179.5 48zM1133 1577l92 -53l-905 -1557l-92 54z" />
    <glyph glyph-name="ampersand" unicode="&#x26;" horiz-adv-x="1415" 
d="M932 344l-344 420q-110 -74 -156 -109q-51 -39 -97 -104t-46 -139q0 -70 42 -134t109.5 -101t143.5 -37q42 0 83 13.5t86 40.5q80 49 179 150zM1239 692l125 -129l-188 -219l276 -344h-239l-164 209q-34 -38 -69 -70.5t-74 -60.5q-72 -52 -158 -83q-81 -28 -164 -28
q-122 0 -227 53t-173 149q-35 49 -55 104t-20 112q0 108 36.5 191.5t112.5 155.5q81 76 217 167q-60 66 -96 120.5t-54 108.5t-18 109q0 97 40.5 173.5t122.5 121.5t190 45q110 0 189.5 -43.5t123 -117t43.5 -160.5q0 -115 -77.5 -204.5t-203.5 -178.5l326 -394zM629 1004
q83 57 126 99q23 22 37.5 41t25.5 40q18 38 18 80q0 43 -14.5 75t-42.5 51q-55 38 -123 38q-35 0 -64.5 -12t-54.5 -34q-47 -42 -53 -110q0 -110 145 -268z" />
    <glyph glyph-name="quotesingle" unicode="'" horiz-adv-x="568" 
d="M285 1579l160 -63l-273 -547l-116 47z" />
    <glyph glyph-name="parenleft" unicode="(" horiz-adv-x="600" 
d="M332 1657l147 -113q-80 -166 -127 -408q-24 -129 -36.5 -251t-12.5 -252q0 -129 11.5 -244.5t35.5 -245.5q43 -235 129 -428l-147 -111q-66 124 -115 291t-76 353q-12 89 -20 189t-8 192q0 138 14.5 276t42.5 276q55 264 162 476z" />
    <glyph glyph-name="parenright" unicode=")" horiz-adv-x="600" 
d="M269 -396l-152 111q40 83 73 193q15 49 29 106t26 117q21 116 33 243q0 40 7 159q4 68 4 96q0 537 -172 920l147 112q69 -130 117 -296t73 -354.5t25 -385.5q0 -188 -23 -368.5t-70 -346t-117 -306.5z" />
    <glyph glyph-name="asterisk" unicode="*" horiz-adv-x="885" 
d="M303 1225l-172 102l66 117l180 -100v200h143v-192l164 96l72 -121l-176 -102l176 -100l-72 -121l-164 100v-196h-143v200l-176 -100l-72 117z" />
    <glyph glyph-name="plus" unicode="+" 
d="M504 613v436h176v-436h436v-177h-436v-436h-176v436h-436v177h436z" />
    <glyph glyph-name="comma" unicode="," horiz-adv-x="592" 
d="M336 244l160 -64l-273 -549l-110 49z" />
    <glyph glyph-name="hyphen" unicode="-" 
d="M83 601h1048v-176h-1048v176z" />
    <glyph glyph-name="period" unicode="." horiz-adv-x="592" 
d="M297 205q51 0 85 -35.5t34 -85.5q0 -46 -34 -81.5t-85 -35.5q-48 0 -82.5 35.5t-34.5 81.5q0 51 34.5 86t82.5 35z" />
    <glyph glyph-name="slash" unicode="/" horiz-adv-x="1129" 
d="M920 1780l145 -68l-852 -1972l-149 67z" />
    <glyph glyph-name="zero" unicode="0" 
d="M592 1579q125 0 225 -61.5t171 -173.5q35 -55 61 -117.5t46 -139.5q38 -147 38 -315q0 -219 -68 -404.5t-192 -293t-281 -107.5q-156 0 -280 107.5t-192.5 292.5t-68.5 405q0 164 38 312.5t109 259t172 173t222 62.5zM592 1415q-100 0 -185 -88q-81 -85 -126 -231
t-45 -320q0 -133 25 -246.5t73.5 -202.5t114.5 -138t143 -49q103 0 184.5 84.5t126.5 231.5t45 320q0 133 -25.5 249.5t-73 204.5t-113 136.5t-144.5 48.5z" />
    <glyph glyph-name="one" unicode="1" 
d="M520 1368h-268l109 176h344v-1544h-185v1368z" />
    <glyph glyph-name="two" unicode="2" 
d="M92 0l697 856q114 146 114 256q0 74 -41.5 141t-109 107.5t-139.5 40.5q-94 0 -163 -42.5t-107 -108.5q-19 -32 -29.5 -65t-10.5 -64h-190q13 129 72 232t163 163q53 29 115 45t133 16q100 0 187.5 -35t157 -99.5t107.5 -149.5q20 -45 30 -88t10 -93q0 -177 -111 -311
l-508 -625h623v-176h-1000z" />
    <glyph glyph-name="three" unicode="3" 
d="M563 897q142 0 221 62q40 32 62.5 75.5t22.5 98.5q0 128 -81 203t-192 75q-93 0 -164 -56.5t-88 -166.5h-192q62 391 457 391q123 0 225 -52.5t160.5 -147.5t58.5 -215q0 -236 -197 -353q217 -102 217 -381v-22v-15q-2 -9 -2 -12q0 -52 -17.5 -102.5t-49.5 -100.5
q-59 -95 -167.5 -153t-256.5 -58q-137 0 -242 57.5t-165 152.5q-32 51 -48 100.5t-16 103.5h188q0 -35 11.5 -65t34.5 -62q40 -57 109 -88q34 -15 70.5 -23t77.5 -8q87 0 151.5 40.5t100.5 109.5q17 35 27 72t10 75q0 77 -29.5 146.5t-94.5 113t-165 43.5h-37v162z" />
    <glyph glyph-name="four" unicode="4" 
d="M776 1037l-440 -646h440v646zM961 1612v-1221h176v-168h-176v-223h-185v223h-759z" />
    <glyph glyph-name="five" unicode="5" 
d="M465 1544h619v-176h-488l-96 -315l53 2l56 2q101 0 192 -42t159 -115t105 -169q19 -50 29 -98.5t10 -99.5q0 -231 -138.5 -386.5t-385.5 -179.5l-51 -2q-112 0 -206 40t-158 101q-67 64 -105 130l145 137q14 -44 57.5 -95t117.5 -92q38 -21 76 -31.5t81 -10.5
q110 0 197 51t135 138q24 42 37.5 90t13.5 97q0 92 -45.5 175.5t-128.5 136.5q-43 28 -87.5 42.5t-95.5 14.5q-192 0 -299 -137h-41z" />
    <glyph glyph-name="six" unicode="6" 
d="M776 1577l140 -92l-412 -557l4 -4q69 37 152 37q112 0 216 -61.5t168 -174t64 -256.5q0 -51 -11 -101t-31 -96q-40 -90 -110.5 -158t-161 -107.5t-181.5 -39.5q-136 0 -258 67q-61 33 -110 77t-87.5 100.5t-58 116t-19.5 121.5q4 11 4 22q0 60 11 107.5t34 96.5
q41 84 123 198zM924 465q0 79 -48 155t-127.5 122.5t-168.5 46.5q-41 0 -78.5 -12.5t-76.5 -38.5q-70 -46 -112.5 -115t-48.5 -139q0 -90 45.5 -170.5t119.5 -127.5q37 -24 78 -37.5t81 -13.5q13 5 29 5q41 0 77 12.5t76 37.5q70 43 112 117t42 158z" />
    <glyph glyph-name="seven" unicode="7" 
d="M897 1368h-800v176h1112l-965 -1577l-147 93z" />
    <glyph glyph-name="eight" unicode="8" 
d="M856 1145q0 74 -34.5 134.5t-96 96t-133.5 35.5q-71 0 -131 -37t-96.5 -98t-36.5 -123q0 -64 39 -127t102.5 -102t126.5 -39q51 0 112 37.5t104.5 98.5t43.5 124zM893 428q0 90 -47 158t-116 101.5t-138 33.5q-71 0 -139 -29.5t-114 -95t-46 -160.5q0 -84 44.5 -151.5
t115.5 -106t143 -38.5q70 0 139.5 39t113.5 106t44 143zM353 801q-108 65 -156.5 157.5t-48.5 217.5q0 96 55 193q28 48 64.5 84.5t89.5 67.5q98 58 231 58q140 0 241.5 -59.5t154.5 -158.5t53 -216q0 -96 -49 -189t-156 -155q111 -33 177 -135.5t66 -237.5q0 -128 -60 -233
t-172 -166.5t-259 -61.5q-80 0 -142.5 16t-118.5 52q-107 69 -160.5 177t-53.5 224q0 71 18.5 129t55.5 109q68 92 170 127z" />
    <glyph glyph-name="nine" unicode="9" 
d="M709 637q-24 -16 -59.5 -26.5t-81.5 -10.5q-62 0 -120 19t-114 55q-104 68 -162.5 178.5t-58.5 239.5q0 83 34 171t98.5 159.5t156.5 116.5q47 23 99.5 35.5t107.5 12.5q152 0 272.5 -73.5t188 -188.5t67.5 -229v-4q0 -72 -22 -141t-57 -131q-16 -28 -35.5 -57.5
t-42.5 -61.5l-83 -113l-452 -613l-142 101l414 553zM625 1415q-83 0 -162 -48q-74 -45 -120 -119.5t-46 -155.5t43.5 -156.5t119.5 -121.5t165 -46t165 43.5t119.5 119t43.5 161.5q0 88 -46.5 162.5t-121 117.5t-160.5 43z" />
    <glyph glyph-name="colon" unicode=":" horiz-adv-x="592" 
d="M297 987q50 0 84.5 -33.5t34.5 -84.5q0 -48 -35 -84.5t-84 -36.5q-47 0 -85 36q-36 38 -36 85q0 49 35 83.5t86 34.5zM297 205q50 0 84.5 -34.5t34.5 -82.5q0 -51 -34.5 -86t-84.5 -35q-49 0 -85 35.5t-36 85.5q0 47 36.5 82t84.5 35z" />
    <glyph glyph-name="semicolon" unicode=";" horiz-adv-x="592" 
d="M396 987q48 0 82 -37t34 -85q0 -46 -34.5 -79.5t-81.5 -33.5q-56 0 -87.5 35t-31.5 86q0 45 34 79.5t85 34.5zM320 244l159 -64l-270 -549l-112 49z" />
    <glyph glyph-name="less" unicode="&#x3c;" 
d="M68 596l1048 424v-192l-788 -303l788 -306v-190l-1048 424v143z" />
    <glyph glyph-name="equal" unicode="=" 
d="M68 789h1048v-176h-1048v176zM68 436h1048v-176h-1048v176z" />
    <glyph glyph-name="greater" unicode="&#x3e;" 
d="M1116 457l-1048 -424v186l788 306l-788 303v192l1048 -424v-139z" />
    <glyph glyph-name="question" unicode="?" horiz-adv-x="928" 
d="M469 205q37 0 63 -17.5t42 -45.5q14 -28 14 -54q0 -49 -35 -84q-34 -37 -84 -37q-53 0 -84.5 36t-31.5 81t33 83t83 38zM109 1164q0 20 -8 73q0 45 13.5 87.5t40.5 83.5q51 78 134.5 123.5t179.5 45.5q130 0 213.5 -60t120.5 -144.5t37 -155.5q0 -85 -29.5 -150
t-85.5 -110q-44 -36 -94.5 -57.5t-118 -40.5t-96.5 -35q-44 -20 -68 -53t-24 -79q0 -28 11 -52t33 -47q41 -44 101 -44q68 0 108 47t40 113h184q0 -72 -36.5 -148t-112.5 -128q-39 -27 -84 -41.5t-97 -14.5q-86 0 -163 42.5t-124 119.5q-24 39 -36.5 82t-12.5 92l4 5l1 3
q0 41 8 71.5t25 59.5q31 52 78.5 84t110.5 57l122 48q154 57 168 155q0 64 -25 111t-69 74q-42 24 -89 24q-71 0 -125.5 -52.5t-54.5 -123.5q7 -32 10 -65h-190z" />
    <glyph glyph-name="at" unicode="@" horiz-adv-x="1641" 
d="M1028 740l2 36l2 33q0 111 -56 161q-60 54 -140 54q-117 0 -196 -85q-41 -44 -64 -96t-23 -112q0 -98 51 -178q26 -39 63.5 -60.5t84.5 -21.5l5 3l3 1q52 0 97 17.5t81 51.5q69 66 90 196zM1256 1164l-111 -568l-7 -44l-5 -32q6 -48 35 -55l18 -4q39 0 89 50t87 138
q20 47 31.5 94t11.5 97q0 144 -60.5 276t-185.5 214q-128 85 -311 85q-114 0 -221.5 -44.5t-194.5 -127.5t-138 -197q-27 -60 -40.5 -120.5t-13.5 -128.5q0 -216 93 -362.5t235 -225.5q69 -39 153.5 -59.5t181.5 -20.5q62 0 111.5 7t107.5 22q100 27 146 70l152 -119
q-103 -58 -184 -87q-40 -15 -81.5 -26t-85.5 -17q-86 -12 -213 -12q-128 0 -262.5 49t-253.5 150t-193.5 258t-74.5 357q4 13 4 43q0 103 30 199t87 186q109 173 286.5 271.5t376.5 98.5q69 0 137.5 -14t132.5 -40q127 -52 227.5 -146t158 -223.5t57.5 -278.5
q0 -61 -16 -127q-12 -51 -42 -127q-48 -126 -141 -213q-47 -44 -103 -69t-118 -25q-113 0 -133 129q-123 -129 -281 -129q-94 0 -173.5 54t-126 144t-46.5 195l2 43q12 104 63 202.5t141 162.5q46 32 99 49.5t111 17.5q172 0 279 -147l28 127h144z" />
    <glyph glyph-name="A" unicode="A" horiz-adv-x="1440" 
d="M721 1612l739 -1612h-208l-177 387h-706l-176 -387h-210zM721 1188l-272 -625h547z" />
    <glyph glyph-name="B" unicode="B" horiz-adv-x="1096" 
d="M131 1544h193q141 0 261 -29t204 -115q45 -45 70.5 -102.5t25.5 -129.5q0 -260 -176 -344q83 -7 156 -61.5t118 -145t45 -197.5q0 -135 -71 -229t-194 -142.5t-275 -48.5h-357v1544zM324 1372v-512h88q293 0 293 256q0 101 -54.5 178.5t-246.5 77.5h-80zM324 709v-537
h155q172 0 264.5 63.5t92.5 188.5q0 149 -107 217t-260 68h-145z" />
    <glyph glyph-name="C" unicode="C" horiz-adv-x="1352" 
d="M1272 303v-227q-191 -109 -403 -109q-81 0 -156.5 15t-150.5 47q-148 62 -260.5 175t-177 263.5t-64.5 325.5q0 133 43 252q39 108 113 202q139 177 322.5 253.5t334.5 76.5q127 0 218 -24.5t181 -75.5v-225q-179 153 -412 153q-123 0 -234 -50t-195.5 -138.5
t-131.5 -198.5t-47 -225q0 -139 48 -258.5t134 -207t195 -135.5q58 -24 114 -36t117 -12q221 0 412 159z" />
    <glyph glyph-name="D" unicode="D" horiz-adv-x="1360" 
d="M131 1544h322q152 0 301.5 -38t277 -126.5t206.5 -234.5q40 -75 61.5 -162.5t21.5 -189.5q0 -157 -49 -298.5t-153.5 -253.5t-267.5 -176.5t-380 -64.5h-340v1544zM324 1368v-1192h117q220 0 373.5 76t232 212.5t78.5 311.5q0 139 -47.5 250t-139 187.5t-222.5 115.5
t-296 39h-96z" />
    <glyph glyph-name="E" unicode="E" horiz-adv-x="1067" 
d="M148 1544h829v-176h-637v-432h621v-176h-621v-584h637v-176h-829v1544z" />
    <glyph glyph-name="F" unicode="F" horiz-adv-x="973" 
d="M144 1544h749v-176h-553v-432h537v-176h-537v-760h-196v1544z" />
    <glyph glyph-name="G" unicode="G" horiz-adv-x="1596" 
d="M944 781h613v-68q0 -164 -57.5 -302.5t-158 -237t-232 -153.5t-275.5 -55h-26h-18q-10 2 -14 2q-89 0 -175 28q-74 24 -152 70q-72 42 -128 91.5t-102 112.5q-91 123 -134.5 258.5t-43.5 253.5q0 104 29 202q24 82 73 171q85 156 205.5 248t246 133.5t229.5 41.5
q186 0 341 -59.5t312 -237.5l-141 -131q-85 112 -200 177q-60 35 -136 55t-164 20q-140 0 -280 -76t-231 -216q-46 -69 -69.5 -148.5t-23.5 -167.5l4 -12q0 -90 22.5 -171.5t67.5 -156.5q87 -145 221 -227t264 -82q135 0 255.5 60.5t196.5 166.5q41 58 63 114.5t22 118.5
h-404v177z" />
    <glyph glyph-name="H" unicode="H" horiz-adv-x="1385" 
d="M131 1544h193v-620h737v620h191v-1544h-191v744h-737v-744h-193v1544z" />
    <glyph glyph-name="I" unicode="I" horiz-adv-x="475" 
d="M140 1544h192v-1544h-192v1544z" />
    <glyph glyph-name="J" unicode="J" horiz-adv-x="740" 
d="M428 1544h193v-999q0 -345 -137 -477q-101 -101 -291 -101q-61 0 -120.5 18.5t-113.5 51.5l97 160q39 -24 78 -38.5t79 -14.5q45 0 80.5 18t60.5 51q47 61 60.5 142t13.5 190v999z" />
    <glyph glyph-name="K" unicode="K" horiz-adv-x="1229" 
d="M148 1544h192v-667l656 667h251l-694 -692l707 -852h-260l-584 721l-76 -78v-643h-192v1544z" />
    <glyph glyph-name="L" unicode="L" horiz-adv-x="789" 
d="M148 1544h192v-1368h469v-176h-661v1544z" />
    <glyph glyph-name="M" unicode="M" horiz-adv-x="1745" 
d="M873 391l532 1221l316 -1612h-201l-180 1028l-467 -1065l-465 1069l-185 -1032h-194l315 1612z" />
    <glyph glyph-name="N" unicode="N" horiz-adv-x="1608" 
d="M129 1620l1159 -1220v1144h197v-1608l-1165 1217v-1153h-191v1620z" />
    <glyph glyph-name="O" unicode="O" horiz-adv-x="1696" 
d="M848 1401q-166 0 -307.5 -83t-225 -228.5t-83.5 -317.5q0 -169 82.5 -312.5t225 -227.5t308.5 -84t307.5 83.5t225.5 228.5t84 312q0 170 -82.5 314.5t-224.5 229.5t-310 85zM848 1577q166 0 313.5 -62.5t258.5 -172.5t174 -257.5t63 -312.5q0 -218 -108.5 -402.5
t-295 -293.5t-405.5 -109q-217 0 -402.5 108t-295 295t-109.5 402q0 218 109.5 403.5t294.5 293.5t403 108z" />
    <glyph glyph-name="P" unicode="P" horiz-adv-x="1012" 
d="M148 1544h243q80 0 142.5 -5t129.5 -18q125 -23 226.5 -122t101.5 -303q0 -122 -48.5 -211.5t-122.5 -140t-160.5 -74t-163.5 -23.5h-156v-647h-196zM424 1372h-84v-553l64 -2q203 0 305 72t102 223q0 132 -107 196t-280 64z" />
    <glyph glyph-name="Q" unicode="Q" horiz-adv-x="1696" 
d="M1155 236l-354 344h244l243 -244q83 88 130 201.5t47 271.5q0 62 -14.5 121t-41.5 118q-51 109 -140 189q-43 39 -93.5 69.5t-107.5 51.5q-113 43 -240 43q-57 0 -114 -13.5t-114 -38.5q-106 -46 -189.5 -131t-131 -204.5t-47.5 -257.5q0 -113 46.5 -223t129.5 -198
q43 -44 90.5 -78t103.5 -59.5t115.5 -39.5t118.5 -14q80 0 159.5 23.5t159.5 68.5zM1288 105q-211 -142 -432 -142q-87 0 -168.5 16t-157.5 49q-151 65 -261 178t-169 256.5t-59 293.5q0 180 65.5 332.5t177 260.5t257 168t295.5 60q216 0 406 -109.5t302.5 -295.5
t112.5 -400q0 -171 -66.5 -320.5t-175.5 -246.5l242 -238h-233z" />
    <glyph glyph-name="R" unicode="R" horiz-adv-x="1112" 
d="M148 1544h276q271 0 387 -84q86 -61 133 -149t47 -199q0 -89 -27 -164t-78 -133t-117.5 -94.5t-147.5 -48.5l487 -672h-231l-457 652h-80v-652h-192v1544zM340 1372v-561q78 0 145 6t117 17q102 24 153 86q27 32 41.5 77.5t14.5 102.5q0 118 -93 195t-314 77h-64z" />
    <glyph glyph-name="S" unicode="S" horiz-adv-x="1100" 
d="M836 1252q-87 149 -252 149q-72 0 -132 -33q-56 -30 -90 -81t-34 -99q0 -132 151 -205l176 -68q102 -40 203 -110q96 -67 137.5 -164.5t41.5 -195.5q0 -99 -38.5 -185t-106 -150t-156.5 -102q-48 -20 -93 -30.5t-94 -10.5q-122 0 -226 53t-173 153.5t-82 226.5l192 41
q0 -47 12 -87.5t35 -75.5q43 -65 112 -97.5t140 -32.5q104 0 185 68t96 188l4 51q0 120 -82 184.5t-221.5 120.5t-218.5 103t-133 128t-54 201q0 68 30.5 136.5t90 125t146 91t190.5 34.5q127 0 228 -60t167 -175z" />
    <glyph glyph-name="T" unicode="T" horiz-adv-x="932" 
d="M373 1368h-369v176h928v-176h-369v-1368h-190v1368z" />
    <glyph glyph-name="U" unicode="U" horiz-adv-x="1372" 
d="M1061 1544h191v-981q0 -129 -40.5 -239.5t-116.5 -190t-180.5 -123t-230.5 -43.5q-188 0 -315.5 88.5t-187.5 223t-60 274.5v991h191v-944q0 -181 85.5 -316.5t286.5 -135.5q192 0 284.5 123.5t92.5 345.5v927z" />
    <glyph glyph-name="V" unicode="V" horiz-adv-x="1313" 
d="M-17 1544h214l459 -1140l460 1140h211l-671 -1624z" />
    <glyph glyph-name="W" unicode="W" horiz-adv-x="2104" 
d="M1053 1579l440 -1138l430 1103h209l-639 -1604l-440 1131l-436 -1135l-642 1608h210l432 -1103z" />
    <glyph glyph-name="X" unicode="X" horiz-adv-x="1176" 
d="M484 811l-424 733h221l315 -561l336 561h221l-448 -735l471 -809h-219l-361 637l-381 -637h-215z" />
    <glyph glyph-name="Y" unicode="Y" horiz-adv-x="1172" 
d="M492 672l-505 872h222l379 -659l381 659h219l-504 -872v-672h-192v672z" />
    <glyph glyph-name="Z" unicode="Z" horiz-adv-x="1133" 
d="M801 1368h-672v176h987l-784 -1368h784v-176h-1095z" />
    <glyph glyph-name="bracketleft" unicode="[" horiz-adv-x="637" 
d="M125 1661h391v-176h-204v-1708h204v-173h-391v2045v12z" />
    <glyph glyph-name="backslash" unicode="\" horiz-adv-x="1129" 
d="M64 1780h172l829 -1780h-172z" />
    <glyph glyph-name="bracketright" unicode="]" horiz-adv-x="637" 
d="M516 -396h-391v173h199v1712h-199v172h391v-2046v-11z" />
    <glyph glyph-name="asciicircum" unicode="^" 
d="M475 1544h234l407 -911h-192l-332 744l-332 -744h-192z" />
    <glyph glyph-name="underscore" unicode="_" horiz-adv-x="1024" 
d="M0 -232h1024v-153h-1024v153z" />
    <glyph glyph-name="grave" unicode="`" horiz-adv-x="735" 
d="M156 1415l168 88l256 -339l-88 -56z" />
    <glyph glyph-name="a" unicode="a" horiz-adv-x="1141" 
d="M844 961h184v-961h-184v156q-134 -189 -332 -189q-53 0 -98.5 9t-88.5 30q-83 39 -144.5 108.5t-95.5 165t-34 204.5q0 153 64.5 268.5t171.5 175t225 59.5q30 0 55 -4t59 -16q62 -19 119.5 -62t98.5 -112v168zM852 488q0 133 -80 232q-40 51 -97 77.5t-130 26.5
q-75 0 -145.5 -39.5t-117 -116.5t-46.5 -184q0 -105 42 -186.5t111.5 -125t143.5 -43.5q138 0 228.5 97.5t90.5 261.5z" />
    <glyph glyph-name="b" unicode="b" horiz-adv-x="1141" 
d="M113 0v1780h184v-987q62 95 145 144.5t187 49.5q113 0 216.5 -55t171.5 -168q34 -56 52.5 -124t18.5 -144q0 -72 -10 -129t-33 -112q-42 -103 -108.5 -165t-145.5 -92.5t-148 -30.5q-133 0 -203.5 48t-142.5 141v-156h-184zM903 488q0 87 -34.5 162t-106.5 123
q-35 24 -78.5 37.5t-91.5 13.5q-77 0 -146.5 -41t-113 -118.5t-43.5 -180.5q0 -73 29 -154.5t99 -140t179 -58.5q84 0 154 40t111.5 121.5t41.5 195.5z" />
    <glyph glyph-name="c" unicode="c" horiz-adv-x="903" 
d="M832 264v-235q-116 -58 -260 -58q-140 0 -258.5 63.5t-190.5 177.5q-34 57 -53 122t-19 135q0 143 70.5 261t190.5 185.5t260 67.5q149 0 260 -59v-240q-110 131 -283 131q-70 0 -125.5 -27.5t-99 -79.5t-66 -107t-22.5 -113q0 -87 36.5 -166t109.5 -129
q38 -26 80.5 -39.5t92.5 -13.5q80 0 140 23.5t137 100.5z" />
    <glyph glyph-name="d" unicode="d" horiz-adv-x="1141" 
d="M844 1780h184v-1780h-184v156q-68 -103 -159 -146t-169 -43q-119 0 -207 47q-46 24 -81 53t-65 69q-58 77 -84 164q-14 46 -21 87t-7 84q0 163 66 281.5t169 176.5t222 58q92 0 190.5 -52.5t145.5 -141.5v987zM852 475q0 102 -38 181.5t-111 123.5t-166 44
q-97 0 -166 -53.5t-102 -133.5t-33 -166q0 -65 27.5 -144.5t95.5 -137.5t174 -58q105 0 177.5 50t107 128.5t34.5 165.5z" />
    <glyph glyph-name="e" unicode="e" horiz-adv-x="1000" 
d="M811 320l158 -92q-60 -99 -164.5 -180t-288.5 -81q-53 0 -100 10.5t-93 32.5q-42 18 -78 45t-68 64q-61 72 -93.5 173.5t-32.5 223.5q0 49 9 91t29 94q34 86 91 149t144 100t192 37q157 0 259 -72t147 -182.5t45 -226.5l-2 -57h-725q0 -135 81.5 -227.5t215.5 -92.5
q82 0 156 52t118 139zM785 588q-15 107 -84 173.5t-172 66.5q-91 0 -175 -55t-106 -185h537z" />
    <glyph glyph-name="f" unicode="f" horiz-adv-x="563" 
d="M164 789h-84v172h84v475q0 201 96 297q33 31 89.5 51.5t119.5 20.5q75 0 135 -25v-188q-71 41 -129 41q-127 0 -127 -232v-440h256v-172h-256v-789h-184v789z" />
    <glyph glyph-name="g" unicode="g" horiz-adv-x="1137" 
d="M840 789v172h184v-961q0 -229 -71.5 -351.5t-173 -160t-216.5 -37.5q-139 0 -244.5 54t-163.5 153t-58 225h184q0 -100 59.5 -184t239.5 -84q128 0 194 81t66 236v224l-41 -62q-20 -31 -56 -60q-32 -28 -92 -47.5t-151 -19.5q-131 0 -233 66t-159 189t-57 278
q0 83 28.5 168.5t86 158t142.5 115.5q42 22 89.5 33.5t98.5 11.5q98 0 189.5 -48t154.5 -150zM852 488q0 110 -48 187t-118 113t-137 36q-97 0 -167.5 -46.5t-107.5 -122.5q-19 -39 -28.5 -79.5t-9.5 -83.5q0 -93 34 -176t101 -132q34 -25 76 -39t90 -14q89 0 162 44
t113 124t40 189z" />
    <glyph glyph-name="h" unicode="h" horiz-adv-x="1071" 
d="M129 1780h183v-948h4q92 155 293 155q335 0 335 -387v-600h-184v600q0 115 -50 169.5t-177 54.5q-109 0 -165 -77t-56 -222v-525h-183v1780z" />
    <glyph glyph-name="i" unicode="i" horiz-adv-x="520" 
d="M260 1528q54 0 90.5 -38.5t36.5 -92.5t-40.5 -89.5t-90.5 -35.5q-55 0 -91 40q-34 42 -34 93q0 46 38.5 84.5t90.5 38.5zM168 961h185v-961h-185v961z" />
    <glyph glyph-name="j" unicode="j" horiz-adv-x="520" 
d="M260 1528q60 0 95 -43q32 -40 32 -92q0 -48 -38.5 -84.5t-88.5 -36.5q-58 0 -93.5 40.5t-35.5 92.5q0 24 10.5 45t30.5 41q38 37 88 37zM168 961h185v-1510h-185v1510z" />
    <glyph glyph-name="k" unicode="k" horiz-adv-x="948" 
d="M324 596l360 365h244l-408 -402l453 -559h-242l-344 436l-63 -63v-373h-184v1780h184v-1184z" />
    <glyph glyph-name="l" unicode="l" horiz-adv-x="457" 
d="M135 1780h185v-1780h-185v1780z" />
    <glyph glyph-name="m" unicode="m" horiz-adv-x="1573" 
d="M303 961v-121h4q13 25 48 57q36 35 91 62.5t117 27.5q91 0 160.5 -43.5t116.5 -128.5q42 72 116.5 122t176.5 50q163 0 241 -105t78 -294v-588h-184v549q0 145 -42.5 210t-141.5 65q-97 0 -150 -78.5t-53 -225.5v-520h-184v512q0 142 -39 227t-154 85q-201 0 -201 -320
v-504h-182v961h182z" />
    <glyph glyph-name="n" unicode="n" horiz-adv-x="1071" 
d="M129 961h183v-137q56 86 125 124.5t172 38.5q178 0 256.5 -104t78.5 -307v-576h-184v580q0 139 -51.5 191.5t-159.5 52.5q-60 0 -105.5 -20t-75.5 -57q-56 -74 -56 -222v-525h-183v961z" />
    <glyph glyph-name="o" unicode="o" horiz-adv-x="1104" 
d="M553 811q-88 0 -164 -45t-121 -122.5t-45 -168.5q0 -88 44 -164.5t121 -121.5t165 -45t163 44.5t120 121.5t45 165q0 90 -44.5 167.5t-120 123t-163.5 45.5zM553 987q140 0 257 -68.5t186 -186t69 -257.5q0 -136 -68.5 -253t-186.5 -186t-257 -69q-136 0 -255 69
t-188 186t-69 253q0 140 69 257.5t187.5 186t255.5 68.5z" />
    <glyph glyph-name="p" unicode="p" horiz-adv-x="1141" 
d="M297 961v-160h6q23 43 72.5 85.5t114.5 70.5q34 14 69.5 22t73.5 8q121 0 225 -61.5t165 -177t61 -264.5q0 -131 -53 -250t-153.5 -193t-234.5 -74q-220 0 -346 189v-705h-184v1510h184zM903 479q0 156 -89.5 250.5t-225.5 94.5q-75 0 -143.5 -39.5t-112 -116.5
t-43.5 -184q0 -148 82.5 -251.5t224.5 -103.5l4 1l4 1q45 0 85.5 13t74.5 37q66 48 102 126q18 40 27.5 82.5t9.5 89.5z" />
    <glyph glyph-name="q" unicode="q" horiz-adv-x="1141" 
d="M844 961h184v-1510h-184v705q-46 -75 -135 -132t-193 -57q-109 0 -195 41.5t-147 115t-92 164.5t-31 187q0 123 52 241t149 191q48 37 106 58.5t121 21.5q104 0 201.5 -43.5t163.5 -150.5v168zM852 475q0 121 -46.5 197.5t-121.5 114t-155 37.5q-58 0 -109.5 -27
t-96.5 -76q-87 -95 -87 -237q0 -139 79.5 -246t229.5 -107q99 0 168.5 48.5t104 127.5t34.5 168z" />
    <glyph glyph-name="r" unicode="r" horiz-adv-x="721" 
d="M324 961v-164q44 98 114 144t150 46q92 0 156 -43l-84 -172q-46 37 -123 37q-115 0 -164 -95.5t-49 -225.5v-488h-184v961h184z" />
    <glyph glyph-name="s" unicode="s" horiz-adv-x="789" 
d="M512 740q-42 84 -125 84q-42 0 -70 -28t-28 -71q0 -54 86 -99l161 -79q39 -18 73.5 -42.5t64.5 -55.5t45.5 -73.5t15.5 -98.5q0 -74 -42 -147t-115 -118t-158 -45q-143 0 -228.5 64.5t-119.5 148.5l160 76q25 -59 73.5 -93t98.5 -34q47 0 90 31t55 84q0 40 -21 72
q-12 18 -23 30t-30 26q-34 24 -72 44l-71 37q-115 58 -165 119.5t-50 140.5q0 33 9 64t27 65q34 63 97 104t150 41q171 0 264 -168z" />
    <glyph glyph-name="t" unicode="t" horiz-adv-x="492" 
d="M152 961v366h184v-366h184v-172h-184v-789h-184v789h-101v172h101z" />
    <glyph glyph-name="u" unicode="u" horiz-adv-x="1049" 
d="M748 961h184v-553q0 -121 -41 -223.5t-130.5 -167t-227.5 -64.5q-115 0 -208.5 54.5t-148.5 154.5t-55 229v570h182v-545q0 -105 56 -196t174 -91q112 0 163.5 79t51.5 208v545z" />
    <glyph glyph-name="v" unicode="v" horiz-adv-x="912" 
d="M731 961h209l-483 -994l-486 994h209l277 -600z" />
    <glyph glyph-name="w" unicode="w" horiz-adv-x="1473" 
d="M-33 961h209l281 -613l278 664l285 -664l277 613h211l-488 -994l-285 642l-278 -642z" />
    <glyph glyph-name="x" unicode="x" horiz-adv-x="1000" 
d="M400 520l-344 441h217l227 -314l248 314h225l-352 -441l411 -520h-217l-315 387l-303 -387h-226z" />
    <glyph glyph-name="y" unicode="y" horiz-adv-x="991" 
d="M412 164l-441 797h218l323 -613l299 613h209l-776 -1510h-207z" />
    <glyph glyph-name="z" unicode="z" horiz-adv-x="1012" 
d="M652 789h-535v172h895l-647 -789h618v-172h-979z" />
    <glyph glyph-name="braceleft" unicode="{" horiz-adv-x="684" 
d="M101 705q71 23 111 106.5t40 192.5v405q0 54 27 112.5t67.5 99t77.5 40.5h160v-172h-84q-59 0 -59 -96v-428q0 -210 -156 -336q72 -48 114 -143t42 -205v-406q0 -60 17 -79t62 -19h64v-173h-156q-36 0 -78.5 38t-70 98.5t-27.5 119.5v396q0 236 -151 299v150z" />
    <glyph glyph-name="bar" unicode="|" horiz-adv-x="1168" 
d="M496 1780h176v-1780h-176v1780z" />
    <glyph glyph-name="braceright" unicode="}" horiz-adv-x="684" 
d="M584 555q-70 -21 -111 -106.5t-41 -192.5v-391q0 -61 -22.5 -120.5t-66 -100t-99.5 -40.5h-143v173h84q59 0 59 92v428q0 92 37.5 181.5t118.5 154.5q-71 50 -113.5 144t-42.5 204v408q0 57 -18 78q-16 22 -62 22l-63 -4v176h143q56 0 98.5 -37.5t66 -98t23.5 -120.5
v-401q0 -230 152 -295v-154z" />
    <glyph glyph-name="asciitilde" unicode="~" 
d="M1121 580q-137 -248 -328 -248q-25 0 -51 7.5t-56 22.5q-55 29 -123 76t-115 73t-87 26q-42 -12 -75.5 -44.5t-88.5 -119.5l-129 96l43 57q38 54 76.5 93t96.5 68.5t132 29.5q64 -9 121 -40.5t118 -80t92.5 -68.5t67.5 -20q45 9 79.5 46.5t86.5 129.5z" />
    <glyph glyph-name="florin" unicode="&#x192;" 
d="M508 897h-131l14 140h146l43 251q6 37 13.5 73t15.5 69q15 57 55 125t116 112.5t189 44.5q64 0 135 -12l-29 -176q-64 16 -98 16q-155 0 -192 -209l-58 -294h264l-18 -140h-268l-133 -729q-26 -137 -66.5 -234.5t-141 -168t-276.5 -70.5h-26h-22q-8 2 -11 2l31 174l41 -2
q106 0 164 48t82 114t40 162z" />
    <glyph glyph-name="quotedblbase" unicode="&#x201e;" horiz-adv-x="899" 
d="M215 -369l-110 49l223 564l160 -64zM559 -369l-114 49l223 564l160 -68z" />
    <glyph glyph-name="ellipsis" unicode="&#x2026;" horiz-adv-x="2048" 
d="M340 205q49 0 84 -35q37 -34 37 -82q0 -49 -36 -85t-85 -36t-85 36.5t-36 84.5q0 46 37 81.5t84 35.5zM1024 205q49 0 84 -35q37 -34 37 -82q0 -49 -36 -85t-85 -36t-82 36q-34 34 -34 85q0 47 34.5 82t81.5 35zM1708 205q51 0 86 -35t35 -82q0 -50 -35.5 -85.5
t-85.5 -35.5q-49 0 -85 36.5t-36 84.5q0 46 37 81.5t84 35.5z" />
    <glyph glyph-name="dagger" unicode="&#x2020;" 
d="M500 1217v563h184v-563h373v-176h-373v-1221h-184v1221h-371v176h371z" />
    <glyph glyph-name="daggerdbl" unicode="&#x2021;" 
d="M500 1288v492h184v-492h373v-176h-373v-247h373v-177h-373v-868h-184v868h-371v177h371v247h-371v176h371z" />
    <glyph glyph-name="circumflex" unicode="&#x2c6;" horiz-adv-x="965" 
d="M479 1503l330 -294l-121 -97l-209 197l-206 -197l-121 97z" />
    <glyph glyph-name="perthousand" unicode="&#x2030;" horiz-adv-x="2271" 
d="M1141 1577l92 -53l-901 -1557l-96 54zM408 1577q97 0 179.5 -47t131.5 -127.5t49 -177.5q0 -96 -48.5 -176.5t-132 -128t-179.5 -47.5q-99 0 -182.5 47.5t-133 129.5t-49.5 175t50 176t134.5 129.5t180.5 46.5zM404 1456q-96 0 -166 -67.5t-70 -159.5q0 -62 31.5 -115.5
t86 -85.5t118.5 -32q65 0 120.5 31.5t87 84.5t31.5 117q0 93 -70 160q-33 33 -76.5 50t-92.5 17zM1067 672q96 0 179.5 -47t132.5 -130t49 -175q0 -95 -49 -177t-132.5 -131t-179.5 -49q-95 0 -178.5 48t-131.5 131t-48 178q0 94 48 175t130.5 129t179.5 48zM1067 549
q-98 0 -168.5 -67.5t-70.5 -161.5q0 -95 70.5 -161.5t168.5 -66.5q64 0 118 30t87 83t33 115q0 60 -32 113.5t-86.5 84.5t-119.5 31zM1872 672q97 0 180.5 -47.5t132 -129t48.5 -175.5q0 -96 -48.5 -178t-131.5 -130.5t-181 -48.5q-97 0 -179.5 47.5t-131.5 131t-49 178.5
q0 94 48.5 175.5t131 129t180.5 47.5zM1872 549q-63 0 -116.5 -30t-86 -83.5t-32.5 -115.5q0 -95 68.5 -161.5t166.5 -66.5q65 0 118.5 29.5t85.5 83t32 115.5q0 94 -67.5 161.5t-168.5 67.5z" />
    <glyph glyph-name="guilsinglleft" unicode="&#x2039;" horiz-adv-x="688" 
d="M416 1149l117 -84l-305 -409l305 -392l-113 -84l-377 476z" />
    <glyph glyph-name="OE" unicode="&#x152;" horiz-adv-x="2341" 
d="M1473 1544h807v-176h-631v-432h614v-176h-614v-584h631v-176h-807v260q-120 -155 -281 -224t-336 -69q-170 0 -319.5 63t-262.5 176t-173 256.5t-60 297.5q0 177 66 328.5t180 261.5t259.5 169.5t301.5 59.5q130 0 257.5 -46t225.5 -118.5t142 -146.5v276zM1465 760
q0 176 -78 323.5t-218.5 232.5t-316.5 85q-142 0 -257.5 -52t-196 -142t-123.5 -205.5t-43 -241.5q0 -111 43.5 -219t127 -198.5t197 -142.5t248.5 -52q143 0 258.5 54t195.5 145.5t121.5 200t41.5 212.5z" />
    <glyph glyph-name="quoteleft" unicode="&#x2018;" horiz-adv-x="568" 
d="M396 1577l112 -45l-223 -563l-160 63z" />
    <glyph glyph-name="quoteright" unicode="&#x2019;" horiz-adv-x="568" 
d="M285 1579l160 -63l-273 -547l-116 47z" />
    <glyph glyph-name="quotedblleft" unicode="&#x201c;" horiz-adv-x="899" 
d="M735 1577l113 -49l-223 -563l-160 67zM391 1577l117 -45l-223 -563l-160 63z" />
    <glyph glyph-name="quotedblright" unicode="&#x201d;" horiz-adv-x="899" 
d="M164 965l-117 47l230 565l159 -65zM504 965l-117 47l230 565l159 -65z" />
    <glyph glyph-name="bullet" unicode="&#x2022;" horiz-adv-x="592" 
d="M297 643q49 0 84 -33.5t35 -84.5q0 -47 -35.5 -84t-83.5 -37q-47 0 -85 36q-36 38 -36 85q0 49 35 83.5t86 34.5z" />
    <glyph glyph-name="endash" unicode="&#x2013;" horiz-adv-x="1024" 
d="M0 735h1024v-155h-1024v155z" />
    <glyph glyph-name="emdash" unicode="&#x2014;" horiz-adv-x="2048" 
d="M0 580v151h2044h4v-151h-2044h-4z" />
    <glyph glyph-name="tilde" unicode="&#x2dc;" horiz-adv-x="1045" 
d="M819 1411l97 -80q-32 -70 -100 -118.5t-144 -48.5q-48 6 -79 19l-105 43q-76 32 -115 42h-20q-75 0 -125 -92l-97 80q95 164 230 164q38 0 73.5 -12.5t82.5 -35.5l78 -37q29 -12 65 -18q12 0 20 -4q43 0 78.5 25.5t60.5 72.5z" />
    <glyph glyph-name="trademark" unicode="&#x2122;" horiz-adv-x="1923" 
d="M68 1544h700v-129h-284v-731h-131v731h-285v129zM924 1544h217l248 -608l256 608h211v-860h-131v731l-297 -731h-80l-287 731h-4v-731h-133v860z" />
    <glyph glyph-name="guilsinglright" unicode="&#x203a;" horiz-adv-x="688" 
d="M273 180l-117 84l305 392l-305 409l113 84l374 -493z" />
    <glyph glyph-name="oe" unicode="&#x153;" horiz-adv-x="1835" 
d="M1620 588q-15 122 -96.5 181t-200.5 59q-86 -9 -153 -73.5t-86 -166.5h536zM881 471q0 83 -41 162.5t-113.5 128.5t-167.5 49q-127 0 -225 -84q-50 -43 -78 -101t-28 -130q0 -84 35 -161t101 -127.5t156 -59.5q143 0 247 82q54 42 84 103t30 138zM1649 320l160 -92
q-39 -76 -107.5 -134.5t-155 -92.5t-174.5 -34q-141 0 -243.5 55.5t-163.5 157.5q-47 -72 -120 -122q-69 -47 -146 -71q-38 -11 -75.5 -17.5t-70.5 -6.5q-127 0 -243 63t-190 177q-38 58 -58.5 119t-20.5 127q0 135 47 237t123 171q73 64 157.5 97t156.5 33q126 0 246 -57
t194 -158q70 107 165.5 161t241.5 54q157 0 255 -80t140 -194.5t42 -224.5v-39h-734q18 -163 102.5 -240.5t190.5 -77.5q92 0 169 55.5t112 133.5z" />
    <glyph glyph-name="nonbreakingspace" unicode="&#xa0;" horiz-adv-x="250" 
 />
    <glyph glyph-name="exclamdown" unicode="&#xa1;" horiz-adv-x="656" 
d="M324 801q-106 0 -115 111q0 51 33 92t82 41q56 0 88.5 -37t32.5 -88q0 -49 -32 -84t-89 -35zM424 -529h-184v1189h184v-1189z" />
    <glyph glyph-name="cent" unicode="&#xa2;" 
d="M633 1284v160h98v-156q68 0 131.5 -16.5t118.5 -46.5v-242q-44 60 -111.5 96.5t-138.5 36.5v-667q68 0 130.5 31.5t119.5 91.5v-240q-50 -26 -122 -42.5t-132 -16.5v-172h-94v180q-120 16 -218.5 85.5t-154 181.5t-55.5 245q0 52 14 106t40 107q51 107 147.5 182.5
t226.5 95.5zM633 1104q-68 -8 -124.5 -57.5t-90 -126t-33.5 -160.5q0 -36 8.5 -67t27.5 -70q33 -67 88.5 -113.5t123.5 -56.5v651z" />
    <glyph glyph-name="sterling" unicode="&#xa3;" 
d="M957 1028l2 43q0 92 -38 166t-105 117q-35 22 -73 34.5t-79 12.5q-76 0 -154 -44t-130 -116.5t-52 -148.5q0 -47 10.5 -87.5t30 -81.5t46.5 -87l60 -101h301v-118h-256q29 -89 29 -176q0 -17 -1 -35t-3.5 -35.5t-4 -30.5t-7.5 -38l-8 -38q51 -15 133 -48l125 -48
q20 -6 43.5 -11t42.5 -5q33 0 57.5 14t43.5 36.5t37 51.5l30 49l155 -94q-47 -106 -133 -174t-194 -68q-60 0 -112.5 15t-134.5 48t-138 50t-115 17q-131 0 -180 -130l-160 80q58 104 128 168q36 32 81.5 49t101.5 17q29 90 29 168q0 100 -45 168h-264v118h204
q-56 101 -86 196.5t-30 180.5l4 60q12 91 76.5 184.5t174.5 156.5q54 30 117.5 47t130.5 17q170 0 323 -104q80 -55 125.5 -148.5t45.5 -224.5z" />
    <glyph glyph-name="currency" unicode="&#xa4;" 
d="M948 643q0 40 -12 78.5t-35 77.5q-41 73 -119 117q-41 24 -86 36.5t-100 12.5q-111 0 -193.5 -48.5t-126.5 -129.5t-44 -170q0 -79 45 -160.5t125.5 -134.5t181.5 -53q163 0 263.5 106t100.5 268zM156 908l-84 88l125 125l92 -93q124 101 303 101q171 0 305 -101l90 93
l125 -125l-84 -88q88 -128 88 -299q0 -79 -22.5 -149t-65.5 -136l84 -92l-125 -119l-90 88q-128 -96 -313 -96q-164 0 -295 96l-92 -88l-125 119l84 92q-88 149 -88 280q0 159 88 304z" />
    <glyph glyph-name="yen" unicode="&#xa5;" 
d="M-8 1544h221l379 -659l381 659h219l-323 -561h303v-118h-371l-113 -193v-20h484v-119h-484v-533h-192v533h-483v119h483v20l-111 193h-372v118h303z" />
    <glyph glyph-name="brokenbar" unicode="&#xa6;" horiz-adv-x="692" 
d="M484 1772h176v-1772h-176v1772z" />
    <glyph glyph-name="section" unicode="&#xa7;" 
d="M809 1436q0 80 -67 130q-62 46 -154 46t-147.5 -54.5t-67.5 -146.5q0 -25 8.5 -48t23.5 -45q24 -36 59 -62q34 -23 104 -64l154 -74l163 -81q120 -70 169.5 -135.5t49.5 -161.5q0 -43 -14.5 -87t-40.5 -91q-50 -88 -129 -146q108 -108 108 -256q0 -113 -63.5 -201
t-173 -137.5t-228.5 -49.5q-113 0 -197 37.5t-136 106.5q-101 136 -101 324h183q0 -82 31 -147t92 -108q32 -22 67 -33.5t78 -11.5q112 0 188 69.5t76 158.5q0 60 -39 117q-26 28 -84 64t-115 64l-144 67l-122 57q-102 54 -148 88q-51 38 -81.5 93t-30.5 138q0 194 201 332
q-46 47 -71 103t-25 120q0 48 14 93t41 90q54 84 145 135t195 51q118 0 210 -47q46 -23 81 -53.5t62 -71.5t40.5 -82.5t13.5 -89.5h-178zM797 508q63 44 93 97t30 104q0 44 -14 75.5t-33 47.5q-34 30 -114 74l-202 103q-119 58 -170 87q-59 -39 -91 -93.5t-32 -125.5l4 -26
q1 -14 5 -23q19 -57 84.5 -98t207.5 -106q138 -62 232 -116z" />
    <glyph glyph-name="dieresis" unicode="&#xa8;" horiz-adv-x="965" 
d="M264 1424q51 0 87 -36t36 -87q0 -52 -35.5 -88.5t-87.5 -36.5q-50 0 -87 36t-37 89q0 49 37 86t87 37zM697 1424q50 0 86 -36t36 -87q0 -52 -35.5 -88.5t-86.5 -36.5q-50 0 -87.5 36t-37.5 89q0 49 38 86t87 37z" />
    <glyph glyph-name="copyright" unicode="&#xa9;" horiz-adv-x="1641" 
d="M1104 940q-23 92 -93.5 132t-170.5 40q-146 0 -224.5 -98.5t-78.5 -249.5q0 -46 10.5 -86.5t30.5 -78.5q38 -70 108.5 -110t169.5 -40q96 0 161 45.5t87 134.5h125q-12 -95 -66 -166t-135.5 -109t-171.5 -38q-117 0 -217.5 51.5t-163.5 152.5q-33 53 -52 113.5t-19 126.5
q0 164 64.5 272.5t168 159.5t219.5 51q101 0 178 -37t128 -107t67 -159h-125zM819 1577q166 0 313.5 -62.5t258.5 -172.5t174 -257.5t63 -312.5q0 -218 -108.5 -402.5t-295 -293.5t-405.5 -109q-217 0 -402 108t-294.5 293t-109.5 404t108.5 404t294.5 293t403 108z
M819 1448q-182 0 -337.5 -90.5t-246.5 -246t-91 -339.5q0 -183 91.5 -338t246.5 -244t337 -89q184 0 338.5 89t246 244t91.5 338q0 138 -51 260t-144.5 216.5t-218 147t-262.5 52.5z" />
    <glyph glyph-name="ordfeminine" unicode="&#xaa;" horiz-adv-x="684" 
d="M25 852h635v-96h-635v96zM545 1268q0 92 -54 151q-57 62 -151 62q-76 0 -135 -56q-30 -28 -45.5 -64t-15.5 -81q0 -89 53.5 -152t142.5 -63q78 0 140 49q32 24 48.5 62.5t16.5 91.5zM660 1561v-578h-119v97q-35 -49 -93 -82t-120 -33q-70 0 -126 23.5t-97 69.5
q-80 91 -80 218q0 82 35.5 150t103 110.5t152.5 42.5q138 0 225 -114v96h119z" />
    <glyph glyph-name="guillemotleft" unicode="&#xab;" horiz-adv-x="1071" 
d="M828 1149l116 -84l-307 -409l307 -392l-116 -84l-371 476zM436 1149l113 -84l-305 -409l305 -392l-113 -84l-376 472z" />
    <glyph glyph-name="logicalnot" unicode="&#xac;" 
d="M940 613h-872v176h1048v-553h-176v377z" />
    <glyph glyph-name="registered" unicode="&#xae;" horiz-adv-x="1641" 
d="M508 1221h391q301 0 301 -238q0 -121 -68.5 -186.5t-170.5 -65.5l227 -419h-147l-232 419h-168v-419h-133v909zM893 1088h-252v-223h271q159 0 159 104q0 119 -178 119zM819 1448q-182 0 -337.5 -90.5t-246.5 -246t-91 -339.5q0 -183 91.5 -338t246.5 -244t337 -89
q184 0 338.5 89t246 244t91.5 338q0 138 -51 260t-144.5 216.5t-218 147t-262.5 52.5zM819 1577q166 0 313.5 -62.5t258.5 -172.5t174 -257.5t63 -312.5q0 -218 -108.5 -402.5t-295 -293.5t-405.5 -109q-217 0 -402 108t-294.5 293t-109.5 404t108.5 404t294.5 293t403 108z
" />
    <glyph glyph-name="plusminus" unicode="&#xb1;" 
d="M68 176h1048v-176h-1048v176zM504 1153h176v-356h436v-176h-436v-352h-176v352h-436v176h436v356z" />
    <glyph glyph-name="twosuperior" unicode="&#xb2;" horiz-adv-x="709" 
d="M33 621l446 508q66 75 66 147q0 66 -53.5 119t-122.5 53q-87 0 -136 -46q-24 -22 -38.5 -50.5t-14.5 -58.5h-137q5 39 16.5 73t31.5 66q39 62 108 99q35 18 76 28t86 10q81 0 154.5 -38t119 -103.5t45.5 -147.5q0 -107 -71 -188l-312 -357h383v-114h-647z" />
    <glyph glyph-name="threesuperior" unicode="&#xb3;" horiz-adv-x="709" 
d="M332 1180q94 0 144 35q26 19 39.5 43t13.5 55q0 68 -55 105.5t-121 37.5q-65 0 -106.5 -29t-41.5 -83h-141q45 235 305 235q121 0 204 -70t83 -182q0 -135 -131 -206q147 -68 147 -256q-9 -106 -94 -179t-230 -73q-91 0 -160 34.5t-106 90.5q-20 30 -30.5 59.5
t-10.5 62.5h127q9 -65 56 -99t133 -34q74 0 129 47.5t55 118.5q0 45 -24.5 84.5t-70 63.5t-106.5 24h-8v115z" />
    <glyph glyph-name="acute" unicode="&#xb4;" horiz-adv-x="735" 
d="M412 1503l172 -88l-340 -307l-88 56z" />
    <glyph glyph-name="mu" unicode="&#xb5;" horiz-adv-x="1049" 
d="M748 961h184v-553q0 -188 -94.5 -314.5t-296.5 -126.5q-61 0 -115 22t-123 67v-605h-182v1510h182v-545q0 -111 48.5 -193.5t177.5 -82.5q219 0 219 276v545z" />
    <glyph glyph-name="paragraph" unicode="&#xb6;" 
d="M504 580q-56 0 -101.5 11t-87.5 33q-81 41 -132 110t-75 154.5t-24 176.5q0 64 17 125t49.5 116.5t72 98.5t89.5 76q98 63 192 63h600v-172h-127v-1684h-172v1684h-125v-1684h-176v892z" />
    <glyph glyph-name="periodcentered" unicode="&#xb7;" 
d="M592 1159q106 0 196 -51t141.5 -139.5t51.5 -192.5q0 -105 -51.5 -194.5t-142.5 -142t-195 -52.5t-192.5 52t-141.5 143t-53 194t52.5 192t141.5 140t193 51z" />
    <glyph glyph-name="periodcentered" unicode="&#x2219;" 
d="M592 1159q106 0 196 -51t141.5 -139.5t51.5 -192.5q0 -105 -51.5 -194.5t-142.5 -142t-195 -52.5t-192.5 52t-141.5 143t-53 194t52.5 192t141.5 140t193 51z" />
    <glyph glyph-name="cedilla" unicode="&#xb8;" horiz-adv-x="676" 
d="M357 -37l143 -60l-215 -276l-109 57z" />
    <glyph glyph-name="onesuperior" unicode="&#xb9;" horiz-adv-x="709" 
d="M307 1428h-176l74 116h236v-923h-134v807z" />
    <glyph glyph-name="ordmasculine" unicode="&#xba;" horiz-adv-x="664" 
d="M545 1272q0 89 -65 145t-144 56q-62 0 -110.5 -27t-76.5 -73t-28 -101q0 -83 62 -142t149 -59q61 0 110 29.5t76 76.5t27 95zM0 1272q0 67 35.5 138t112.5 120t188 49q96 0 171 -43.5t116 -114.5t41 -149q0 -82 -43.5 -153t-124.5 -112.5t-189 -41.5q-44 0 -86 14.5
t-79 38.5q-69 45 -105.5 113.5t-36.5 140.5zM0 852h664v-96h-664v96z" />
    <glyph glyph-name="guillemotright" unicode="&#xbb;" horiz-adv-x="1071" 
d="M248 168l-117 88l310 404l-310 393l117 88l373 -481zM641 168l-116 84l307 412l-307 389l116 84l375 -473z" />
    <glyph glyph-name="onequarter" unicode="&#xbc;" horiz-adv-x="1776" 
d="M260 1428h-172l68 116h235v-923h-131v807zM1465 600l-261 -348h261v348zM1596 969v-717h100v-117h-100v-135h-131v135h-496zM496 -33l-105 58l902 1552l108 -53z" />
    <glyph glyph-name="onehalf" unicode="&#xbd;" horiz-adv-x="1776" 
d="M260 1428h-172l68 116h235v-923h-131v807zM391 -33l-102 58l899 1552l105 -53zM1049 0l446 512q66 75 66 144q0 65 -54.5 118.5t-121.5 53.5q-87 0 -137 -47q-25 -24 -38.5 -51t-13.5 -58h-135q8 79 46.5 141t106.5 97q35 19 75.5 28.5t87.5 9.5q79 0 153 -36t120 -102
t46 -146q0 -104 -72 -193l-311 -350h383v-121h-647z" />
    <glyph glyph-name="threequarters" unicode="&#xbe;" horiz-adv-x="1776" 
d="M613 -33l-105 58l901 1552l107 -53zM1596 969v-717h100v-117h-100v-135h-131v135h-496zM1465 600l-261 -348h261v348zM381 1180q88 0 138 36q26 19 39.5 42.5t13.5 54.5q0 67 -53 105t-119 38t-109 -29t-43 -83h-135q36 235 299 235q122 0 205.5 -69.5t83.5 -182.5
q0 -136 -133 -206q80 -34 114.5 -98.5t34.5 -157.5q-9 -106 -94.5 -179t-231.5 -73q-89 0 -158 34.5t-107 90.5q-19 29 -30.5 60.5t-11.5 61.5h131q6 -64 52.5 -98.5t132.5 -34.5q74 0 129 47.5t55 118.5v4q0 47 -25 85.5t-70.5 60.5t-107.5 22v115z" />
    <glyph glyph-name="questiondown" unicode="&#xbf;" horiz-adv-x="928" 
d="M457 805q-52 0 -84.5 37.5t-32.5 81.5q0 45 35.5 83t85.5 38q47 0 81 -36t34 -81q0 -48 -35 -85.5t-84 -37.5zM815 -131q4 -25 4 -78q0 -92 -49.5 -170.5t-130.5 -124t-174 -45.5q-132 0 -216 62t-122.5 148.5t-38.5 158.5q0 163 117 256q45 36 92 55.5t119.5 41
t99.5 36.5q84 38 84 119q0 61 -40.5 106t-94.5 45q-70 0 -111.5 -47t-41.5 -112h-183q0 73 37.5 150t114.5 128q40 26 85 40t99 14q81 0 156 -42.5t121.5 -123t46.5 -179.5q0 -37 -8.5 -69.5t-24.5 -60.5q-29 -54 -74 -84q-22 -15 -45.5 -27.5t-55.5 -24.5l-112 -41
q-85 -33 -137.5 -75.5t-58.5 -88.5q0 -68 23 -115.5t63.5 -72.5t93.5 -25q48 0 89.5 23.5t68 64.5t26.5 88q0 32 -12 70h190z" />
    <glyph glyph-name="Agrave" unicode="&#xc0;" horiz-adv-x="1360" 
d="M131 1544h322q152 0 301.5 -38t277 -126.5t206.5 -234.5q40 -75 61.5 -162.5t21.5 -189.5q0 -157 -49 -298.5t-153.5 -253.5t-267.5 -176.5t-380 -64.5h-340v744h-131v180h131v620zM324 1368v-444h276v-180h-276v-568h117q220 0 373.5 76t232 212.5t78.5 311.5
q0 139 -47.5 250t-139 187.5t-222.5 115.5t-296 39h-96z" />
    <glyph glyph-name="Aacute" unicode="&#xc1;" horiz-adv-x="0" 
d="M-705 2091l172 -86l-340 -309l-88 55z" />
    <glyph glyph-name="Acircumflex" unicode="&#xc2;" horiz-adv-x="0" 
d="M-940 2005l168 86l256 -340l-88 -55z" />
    <glyph glyph-name="Atilde" unicode="&#xc3;" horiz-adv-x="0" 
d="M-722 2158q-38 0 -56.5 -15t-18.5 -39q0 -17 9.5 -33.5t26.5 -29.5q3 -11 3 -19q0 -24 -20 -38.5t-47 -14.5q-24 0 -40.5 14t-16.5 42q0 81 51 132q57 58 166 58q121 0 183 -35q76 -43 76 -143q0 -61 -56 -120q-40 -42 -86 -66q-24 -18 -49 -36q-22 -22 -22 -65h-72
q0 73 69.5 138.5t69.5 105.5q2 16 2 24q0 62 -47 101t-125 39z" />
    <glyph glyph-name="Adieresis" unicode="&#xc4;" horiz-adv-x="0" 
d="M-436 2001l96 -80q-32 -70 -98 -118q-34 -25 -70 -38.5t-75 -13.5q-24 4 -47.5 10.5t-46.5 16.5l-105 43q-60 25 -102 35h-19q-75 0 -125 -92l-96 79q92 164 227 164q49 0 79 -12l104 -48q75 -36 118 -42q13 0 21 -4q44 0 79 26t60 74z" />
    <glyph glyph-name="Aring" unicode="&#xc5;" horiz-adv-x="0" 
d="M-663 -292q54 0 90.5 -38.5t36.5 -92.5t-40.5 -89.5t-90.5 -35.5q-55 0 -91 40q-34 42 -34 93q0 46 38.5 84.5t90.5 38.5z" />
    <glyph glyph-name="AE" unicode="&#xc6;" horiz-adv-x="0" 
d="M-555 2511l172 -86l-340 -309l-88 55z" />
    <glyph glyph-name="Ccedilla" unicode="&#xc7;" horiz-adv-x="0" 
d="M-970 2440l168 86l256 -340l-88 -55z" />
    <glyph glyph-name="Egrave" unicode="&#xc8;" horiz-adv-x="0" 
d="M-885 2386l-4 29q0 35 21.5 67t54.5 50.5t72 18.5q52 0 85 -24t48 -57.5t15 -62.5q0 -34 -11.5 -60t-33 -43t-38.5 -24q-5 -2 -19 -7t-29 -10q-17 -4 -23.5 -6.5t-15.5 -6.5q-36 -18 -36 -53q0 -21 17 -39t41 -18q26 0 42.5 18.5t16.5 45.5h73q0 -31 -14.5 -60.5t-45 -51
t-72.5 -21.5q-35 0 -65.5 17t-48.5 48q-20 31 -20 69l2 2q0 31 13.5 53.5t32.5 34.5q7 6 18.5 11.5t24.5 10.5l49 19q61 24 67 62q0 26 -10 45t-27 29t-36 10q-28 0 -50 -20q-22 -22 -22 -50l4 -26h-76z" />
    <glyph glyph-name="Eacute" unicode="&#xc9;" horiz-adv-x="0" 
d="M-451 2421l96 -80q-32 -70 -98 -118q-34 -25 -70 -38.5t-75 -13.5q-24 4 -47.5 10.5t-46.5 16.5l-105 43q-60 25 -102 35h-19q-75 0 -125 -92l-96 79q92 164 227 164q49 0 79 -12l104 -48q75 -36 118 -42q13 0 21 -4q44 0 79 26t60 74z" />
    <glyph glyph-name="Ecircumflex" unicode="&#xca;" horiz-adv-x="1440" 
d="M721 1612l739 -1612h-208l-177 387h-706l-176 -387h-210zM721 1188l-272 -625h547zM721 2091l328 -295l-121 -96l-207 197l-209 -197l-121 96z" />
    <glyph glyph-name="Edieresis" unicode="&#xcb;" horiz-adv-x="0" 
d="M-45 2316l172 -86l-340 -309l-88 55z" />
    <glyph glyph-name="Igrave" unicode="&#xcc;" horiz-adv-x="0" 
d="M-475 2305l168 86l256 -340l-88 -55z" />
    <glyph glyph-name="Iacute" unicode="&#xcd;" horiz-adv-x="41" 
d="M-248 2361q-38 0 -56.5 -15t-18.5 -39q0 -17 9.5 -33.5t26.5 -29.5q3 -11 3 -19q0 -24 -20 -38.5t-47 -14.5q-24 0 -40.5 14t-16.5 42q0 81 51 132q57 58 166 58q121 0 183 -35q76 -43 76 -143q0 -61 -56 -120q-40 -42 -86 -66q-24 -18 -49 -36q-22 -22 -22 -65h-72
q0 73 69.5 138.5t69.5 105.5q2 16 2 24q0 62 -47 101t-125 39z" />
    <glyph glyph-name="Icircumflex" unicode="&#xce;" horiz-adv-x="0" 
d="M-211 2406l96 -80q-32 -70 -98 -118q-34 -25 -70 -38.5t-75 -13.5q-24 4 -47.5 10.5t-46.5 16.5l-105 43q-60 25 -102 35h-19q-75 0 -125 -92l-96 79q92 164 227 164q49 0 79 -12l104 -48q75 -36 118 -42q13 0 21 -4q44 0 79 26t60 74z" />
    <glyph glyph-name="Idieresis" unicode="&#xcf;" horiz-adv-x="1067" 
d="M148 1544h829v-176h-637v-432h621v-176h-621v-584h637v-176h-829v1544zM533 2091l327 -295l-120 -96l-207 197l-209 -197l-119 96z" />
    <glyph glyph-name="Eth" unicode="&#xd0;" horiz-adv-x="1360" 
d="M131 1544h322q152 0 301.5 -38t277 -126.5t206.5 -234.5q40 -75 61.5 -162.5t21.5 -189.5q0 -157 -49 -298.5t-153.5 -253.5t-267.5 -176.5t-380 -64.5h-340v744h-131v180h131v620zM324 1368v-444h276v-180h-276v-568h117q220 0 373.5 76t232 212.5t78.5 311.5
q0 139 -47.5 250t-139 187.5t-222.5 115.5t-296 39h-96z" />
    <glyph glyph-name="Ntilde" unicode="&#xd1;" horiz-adv-x="475" 
d="M140 1544h192v-1544h-192v1544zM281 2091l172 -86l-340 -309l-88 55z" />
    <glyph glyph-name="Ograve" unicode="&#xd2;" horiz-adv-x="475" 
d="M144 1544h192v-1544h-192v1544zM25 2005l168 86l256 -340l-88 -55z" />
    <glyph glyph-name="Oacute" unicode="&#xd3;" horiz-adv-x="475" 
d="M144 1544h192v-1544h-192v1544zM172 2181q-38 0 -56.5 -15t-18.5 -39q0 -17 9.5 -33.5t26.5 -29.5q3 -11 3 -19q0 -24 -20 -38.5t-47 -14.5q-24 0 -40.5 14t-16.5 42q0 81 51 132q57 58 166 58q121 0 183 -35q76 -43 76 -143q0 -61 -56 -120q-40 -42 -86 -66
q-25 -18 -49 -36q-22 -22 -22 -65h-72q0 73 69.5 138.5t69.5 105.5q2 16 2 24q0 62 -47 101t-125 39z" />
    <glyph glyph-name="Ocircumflex" unicode="&#xd4;" horiz-adv-x="475" 
d="M144 1544h192v-1544h-192v1544zM509 2001l96 -80q-32 -70 -98 -118q-34 -25 -70 -38.5t-75 -13.5q-24 4 -47.5 10.5t-46.5 16.5l-105 43q-60 25 -102 35h-19q-75 0 -125 -92l-96 79q92 164 227 164q49 0 79 -12l104 -48q75 -36 118 -42q13 0 21 -4q44 0 79 26t60 74z" />
    <glyph glyph-name="Otilde" unicode="&#xd5;" horiz-adv-x="475" 
d="M144 1544h192v-1544h-192v1544zM260 -292q54 0 90.5 -38.5t36.5 -92.5t-40.5 -89.5t-90.5 -35.5q-55 0 -91 40q-34 42 -34 93q0 46 38.5 84.5t90.5 38.5z" />
    <glyph glyph-name="Odieresis" unicode="&#xd6;" horiz-adv-x="1696" 
d="M848 1401q-166 0 -307.5 -83t-225 -228.5t-83.5 -317.5q0 -169 82.5 -312.5t225 -227.5t308.5 -84t307.5 83.5t225.5 228.5t84 312q0 170 -82.5 314.5t-224.5 229.5t-310 85zM848 1577q166 0 313.5 -62.5t258.5 -172.5t174 -257.5t63 -312.5q0 -218 -108.5 -402.5
t-295 -293.5t-405.5 -109q-217 0 -402.5 108t-295 295t-109.5 402q0 218 109.5 403.5t294.5 293.5t403 108zM848 2091l328 -295l-119 -96l-209 197l-207 -197l-121 96z" />
    <glyph glyph-name="Oslash" unicode="&#xd8;" horiz-adv-x="1696" 
d="M457 289q81 -66 171 -103.5t220 -37.5q166 0 307.5 83.5t225.5 228.5t84 312q0 209 -134 387zM365 369l887 878q-169 154 -404 154q-166 0 -307.5 -83t-225 -228.5t-83.5 -317.5q0 -224 133 -403zM848 1577q100 0 195.5 -24t180.5 -69.5t161 -111.5l202 207l84 -84
l-206 -207q91 -107 141.5 -239t50.5 -277q0 -218 -108.5 -402.5t-295 -293.5t-405.5 -109q-293 0 -532 193l-203 -203l-84 86l199 201q-187 205 -187 528q0 218 109.5 403.5t294.5 293.5t403 108z" />
    <glyph glyph-name="Ugrave" unicode="&#xd9;" horiz-adv-x="1440" 
d="M1049 1955l-52 -50q-68 -61 -124 -94q-85 -50 -152 -50q-66 0 -151 50q-62 36 -127 94l-52 50l121 96q43 -32 70 -48q82 -48 139 -48q56 0 137 48q27 16 70 48zM1460 0h-208l-177 387h-706l-176 -387h-210l738 1612zM996 563l-275 625l-272 -625h547z" />
    <glyph glyph-name="Uacute" unicode="&#xda;" horiz-adv-x="1696" 
d="M848 1401q-166 0 -307.5 -83t-225 -228.5t-83.5 -317.5q0 -169 82.5 -312.5t225 -227.5t308.5 -84t307.5 83.5t225.5 228.5t84 312q0 170 -82.5 314.5t-224.5 229.5t-310 85zM1454 1305q51 111 51 277v222h191v-276q0 -129 -41 -241q-32 -88 -85 -152q8 -14 12 -22.5
t12 -28.5q63 -147 63 -312q0 -218 -108.5 -402.5t-295 -293.5t-405.5 -109q-217 0 -402.5 108t-295 295t-109.5 402q0 218 109.5 403.5t294.5 293.5t403 108q166 0 313.5 -62.5t258.5 -173.5z" />
    <glyph glyph-name="Ucircumflex" unicode="&#xdb;" horiz-adv-x="1372" 
d="M1256 987v-424q0 -129 -40.5 -239.5t-116.5 -190t-180.5 -123t-230.5 -43.5q-188 0 -315.5 88.5t-187.5 223t-60 274.5v991h191v-944q0 -183 84 -317.5t288 -134.5q192 0 284.5 123.5t92.5 345.5v927h191v-336l17 23q92 124 92 346v222h191v-276q0 -129 -40.5 -239.5
t-117.5 -190.5q-61 -64 -142 -106z" />
    <glyph glyph-name="Udieresis" unicode="&#xdc;" horiz-adv-x="1372" 
d="M1065 1544h191v-981q0 -129 -40.5 -239.5t-116.5 -190t-180.5 -123t-230.5 -43.5q-188 0 -315.5 88.5t-187.5 223t-60 274.5v991h191v-944q0 -183 84 -317.5t288 -134.5q192 0 284.5 123.5t92.5 345.5v927zM471 2011q53 0 89 -35.5t36 -86.5q0 -53 -36 -89t-89 -36
q-49 0 -86 36t-37 89q0 50 36 86t87 36zM903 2011q54 0 89.5 -35.5t35.5 -86.5q0 -52 -36 -90q-37 -35 -89 -35q-51 0 -86.5 36.5t-35.5 88.5q0 51 35.5 86.5t86.5 35.5z" />
    <glyph glyph-name="Yacute" unicode="&#xdd;" horiz-adv-x="1172" 
d="M492 672l-505 872h222l379 -659l381 659h219l-504 -872v-672h-192v672zM709 2085l172 -88l-340 -309l-88 57z" />
    <glyph glyph-name="Thorn" unicode="&#xde;" horiz-adv-x="1012" 
d="M148 1544h192v-284q27 0 47 -4q604 0 604 -437q0 -168 -78.5 -271t-193 -145t-227.5 -42h-152v-361h-196zM432 1088h-92v-555h45q140 0 234 27t143 89.5t49 165.5q0 143 -113 208t-266 65z" />
    <glyph glyph-name="germandbls" unicode="&#xdf;" horiz-adv-x="1188" 
d="M140 793h-84v172h84v328q0 104 23 191.5t71.5 163.5t136.5 116.5t213 40.5q127 0 230.5 -61t163 -167t59.5 -229q0 -211 -193 -328q83 -25 155.5 -95.5t117 -173.5t44.5 -216v-23v-15q-2 -10 -2 -13q0 -58 -20.5 -117.5t-58.5 -124.5q-68 -119 -198 -197t-306 -78v173
q53 0 101.5 13.5t97.5 41.5q93 53 147.5 141t54.5 193q0 97 -43 180.5t-134 137.5q-47 28 -103.5 44.5t-120.5 16.5v180q72 0 136.5 35.5t104 99t39.5 141.5q0 73 -37.5 133t-102 95.5t-136.5 35.5q-141 0 -198.5 -115.5t-57.5 -273.5v-1239h-184v793z" />
    <glyph glyph-name="agrave" unicode="&#xe0;" horiz-adv-x="1141" 
d="M852 475q0 102 -38 181.5t-111 123.5t-166 44q-97 0 -166 -53.5t-102 -133.5t-33 -166q0 -65 27.5 -144.5t95.5 -137.5t174 -58q105 0 177.5 50t107 128.5t34.5 165.5zM844 1339h-272v155h272v286h184v-286h117v-155h-117v-1339h-184v156q-68 -103 -159 -146t-169 -43
q-119 0 -207 47q-46 24 -81 53t-65 69q-58 77 -84 164q-14 46 -21 87t-7 84q0 163 66 281.5t169 176.5t222 58q92 0 190.5 -52.5t145.5 -141.5v546z" />
    <glyph glyph-name="aacute" unicode="&#xe1;" horiz-adv-x="0" 
d="M-557 1503l172 -88l-340 -307l-88 56z" />
    <glyph glyph-name="acircumflex" unicode="&#xe2;" horiz-adv-x="0" 
d="M-824 1415l168 88l256 -339l-88 -56z" />
    <glyph glyph-name="atilde" unicode="&#xe3;" horiz-adv-x="41" 
d="M-758 1776q-38 0 -56.5 -15t-18.5 -39q0 -17 9.5 -33.5t26.5 -29.5q3 -11 3 -19q0 -24 -20 -38.5t-47 -14.5q-24 0 -40.5 14t-16.5 42q0 81 51 132q57 58 166 58q121 0 183 -35q76 -43 76 -143q0 -61 -56 -120q-40 -42 -86 -66q-24 -18 -49 -36q-22 -22 -22 -65h-72
q0 73 69.5 138.5t69.5 105.5q2 16 2 24q0 62 -47 101t-125 39z" />
    <glyph glyph-name="adieresis" unicode="&#xe4;" horiz-adv-x="0" 
d="M-316 1411l96 -80q-34 -71 -99 -117q-35 -25 -70 -37.5t-75 -12.5q-45 6 -77 18l-106 44q-77 32 -118 42h-20q-75 0 -123 -92l-97 80q92 164 228 164q39 0 74 -12q22 -8 40 -15.5t46 -22.5l78 -37q24 -10 63 -16q13 0 18 -4q42 0 78 25.5t64 72.5z" />
    <glyph glyph-name="aring" unicode="&#xe5;" horiz-adv-x="0" 
d="M-604 -292q54 0 90.5 -38.5t36.5 -92.5t-40.5 -89.5t-90.5 -35.5q-55 0 -91 40q-34 42 -34 93q0 46 38.5 84.5t90.5 38.5z" />
    <glyph glyph-name="ae" unicode="&#xe6;" horiz-adv-x="0" 
d="M-405 1911l172 -86l-340 -309l-88 55z" />
    <glyph glyph-name="ccedilla" unicode="&#xe7;" horiz-adv-x="0" 
d="M-805 1885l168 86l256 -340l-88 -55z" />
    <glyph glyph-name="egrave" unicode="&#xe8;" horiz-adv-x="0" 
d="M-755 1775l-4 29q0 35 21.5 67t54.5 50.5t72 18.5q52 0 85 -24t48 -57.5t15 -62.5q0 -34 -11.5 -60t-33 -43t-38.5 -24q-5 -2 -19 -7t-29 -10q-17 -4 -23.5 -6.5t-15.5 -6.5q-36 -18 -36 -53q0 -21 17 -39t41 -18q26 0 42.5 18.5t16.5 45.5h73q0 -31 -14.5 -60.5t-45 -51
t-72.5 -21.5q-35 0 -65.5 17t-48.5 48q-20 31 -20 69l2 2q0 31 13.5 53.5t32.5 34.5q7 6 18.5 11.5t24.5 10.5l49 19q61 24 67 62q0 26 -10 45t-27 29t-36 10q-28 0 -50 -20q-22 -22 -22 -50l4 -26h-76z" />
    <glyph glyph-name="eacute" unicode="&#xe9;" horiz-adv-x="0" 
d="M-331 1836l96 -80q-32 -70 -98 -118q-34 -25 -70 -38.5t-75 -13.5q-24 4 -47.5 10.5t-46.5 16.5l-105 43q-60 25 -102 35h-19q-75 0 -125 -92l-96 79q92 164 227 164q49 0 79 -12l104 -48q75 -36 118 -42q13 0 21 -4q44 0 79 26t60 74z" />
    <glyph glyph-name="ecircumflex" unicode="&#xea;" horiz-adv-x="1141" 
d="M844 961h184v-961h-184v156q-134 -189 -332 -189q-53 0 -98.5 9t-88.5 30q-83 39 -144.5 108.5t-95.5 165t-34 204.5q0 153 64.5 268.5t171.5 175t225 59.5q30 0 55 -4t59 -16q62 -19 119.5 -62t98.5 -112v168zM852 488q0 133 -80 232q-40 51 -97 77.5t-130 26.5
q-75 0 -145.5 -39.5t-117 -116.5t-46.5 -184q0 -105 42 -186.5t111.5 -125t143.5 -43.5q138 0 228.5 97.5t90.5 261.5zM568 1503l329 -294l-121 -97l-208 197l-207 -197l-121 97z" />
    <glyph glyph-name="edieresis" unicode="&#xeb;" horiz-adv-x="0" 
d="M0 1731l172 -86l-340 -309l-88 55z" />
    <glyph glyph-name="igrave" unicode="&#xec;" horiz-adv-x="0" 
d="M-400 1675l168 86l256 -340l-88 -55z" />
    <glyph glyph-name="iacute" unicode="&#xed;" horiz-adv-x="41" 
d="M-173 1866q-38 0 -56.5 -15t-18.5 -39q0 -17 9.5 -33.5t26.5 -29.5q3 -11 3 -19q0 -24 -20 -38.5t-47 -14.5q-24 0 -40.5 14t-16.5 42q0 81 51 132q57 58 166 58q121 0 183 -35q76 -43 76 -143q0 -61 -56 -120q-40 -42 -86 -66q-24 -18 -49 -36q-22 -22 -22 -65h-72
q0 73 69.5 138.5t69.5 105.5q2 16 2 24q0 62 -47 101t-125 39z" />
    <glyph glyph-name="icircumflex" unicode="&#xee;" horiz-adv-x="0" 
d="M-121 1866l96 -80q-32 -70 -98 -118q-34 -25 -70 -38.5t-75 -13.5q-24 4 -47.5 10.5t-46.5 16.5l-105 43q-60 25 -102 35h-19q-75 0 -125 -92l-96 79q92 164 227 164q49 0 79 -12l104 -48q75 -36 118 -42q13 0 21 -4q44 0 79 26t60 74z" />
    <glyph glyph-name="idieresis" unicode="&#xef;" horiz-adv-x="1000" 
d="M811 320l158 -92q-60 -99 -164.5 -180t-288.5 -81q-53 0 -100 10.5t-93 32.5q-42 18 -78 45t-68 64q-61 72 -93.5 173.5t-32.5 223.5q0 49 9 91t29 94q34 86 91 149t144 100t192 37q157 0 259 -72t147 -182.5t45 -226.5l-2 -57h-725q0 -135 81.5 -227.5t215.5 -92.5
q82 0 156 52t118 139zM785 588q-15 107 -84 173.5t-172 66.5q-91 0 -175 -55t-106 -185h537zM500 1503l328 -294l-119 -97l-209 197l-207 -197l-121 97z" />
    <glyph glyph-name="eth" unicode="&#xf0;" horiz-adv-x="1104" 
d="M553 811q-88 0 -164 -45t-121 -122.5t-45 -168.5q0 -87 46.5 -165.5t123 -126.5t162.5 -48q90 0 163 47.5t116 127.5t43 169t-43 165.5t-117 121.5t-164 45zM88 1684l160 92l209 -227l299 172l100 -113l-297 -172q39 -45 80.5 -99.5t91.5 -124.5q102 -142 168 -251
q166 -266 166 -486q0 -149 -67 -264.5t-184.5 -179.5t-260.5 -64q-139 0 -255 66t-183.5 184t-67.5 258q0 141 66.5 259t183 185.5t256.5 67.5q40 0 72.5 -6t62.5 -20q-39 80 -135.5 205t-152.5 178l-324 -185l-105 113l326 188z" />
    <glyph glyph-name="ntilde" unicode="&#xf1;" horiz-adv-x="520" 
d="M168 961h185v-961h-185v961zM299 1503l172 -88l-340 -307l-88 56z" />
    <glyph glyph-name="ograve" unicode="&#xf2;" horiz-adv-x="520" 
d="M168 961h185v-961h-185v961zM47 1415l168 88l256 -339l-86 -56z" />
    <glyph glyph-name="oacute" unicode="&#xf3;" horiz-adv-x="520" 
d="M168 961h185v-961h-185v961zM172 1626q-38 0 -56.5 -15t-18.5 -39q0 -17 9.5 -33.5t26.5 -29.5q3 -11 3 -19q0 -24 -20 -38.5t-47 -14.5q-24 0 -40.5 14t-16.5 42q0 81 51 132q57 58 166 58q121 0 183 -35q76 -43 76 -143q0 -61 -56 -120q-40 -42 -86 -66
q-25 -18 -49 -36q-22 -22 -22 -65h-72q0 73 69.5 138.5t69.5 105.5q2 16 2 24q0 62 -47 101t-125 39z" />
    <glyph glyph-name="ocircumflex" unicode="&#xf4;" horiz-adv-x="520" 
d="M168 961h185v-961h-185v961zM569 1461l96 -80q-32 -70 -98 -118q-34 -25 -70 -38.5t-75 -13.5q-24 4 -47.5 10.5t-46.5 16.5l-105 43q-60 25 -102 35h-19q-75 0 -125 -92l-96 79q92 164 227 164q49 0 79 -12l104 -48q75 -36 118 -42q13 0 21 -4q44 0 79 26t60 74z" />
    <glyph glyph-name="otilde" unicode="&#xf5;" horiz-adv-x="520" 
d="M260 1528q54 0 90.5 -38.5t36.5 -92.5t-40.5 -89.5t-90.5 -35.5q-55 0 -91 40q-34 42 -34 93q0 46 38.5 84.5t90.5 38.5zM168 961h185v-961h-185v961zM260 -292q54 0 90.5 -38.5t36.5 -92.5t-40.5 -89.5t-90.5 -35.5q-55 0 -91 40q-34 42 -34 93q0 46 38.5 84.5
t90.5 38.5z" />
    <glyph glyph-name="odieresis" unicode="&#xf6;" horiz-adv-x="1104" 
d="M553 811q-88 0 -164 -45t-121 -122.5t-45 -168.5q0 -88 44 -164.5t121 -121.5t165 -45t163 44.5t120 121.5t45 165q0 90 -44.5 167.5t-120 123t-163.5 45.5zM553 987q140 0 257 -68.5t186 -186t69 -257.5q0 -136 -68.5 -253t-186.5 -186t-257 -69q-136 0 -255 69
t-188 186t-69 253q0 140 69 257.5t187.5 186t255.5 68.5zM553 1503l328 -294l-121 -97l-207 197l-209 -197l-121 97z" />
    <glyph glyph-name="oslash" unicode="&#xf8;" horiz-adv-x="1104" 
d="M1075 940l-131 -131q121 -155 121 -340q0 -105 -39.5 -195.5t-110.5 -160t-165.5 -110t-200.5 -40.5q-190 0 -330 121l-122 -127l-64 60l123 127q-59 78 -89 159.5t-30 175.5q0 67 18.5 130.5t54.5 123.5q68 116 187 186q59 34 122 51t134 17q186 0 328 -118l131 135z
M748 744q-88 65 -195 65q-91 0 -165 -46.5t-117 -124.5q-23 -41 -35.5 -82.5t-12.5 -84.5q0 -53 18 -101.5t52 -92.5zM809 676l-452 -467q37 -33 83 -51t101 -18q87 0 168 48.5t126.5 125t45.5 165.5q0 107 -72 197z" />
    <glyph glyph-name="ugrave" unicode="&#xf9;" horiz-adv-x="1141" 
d="M844 961h184v-961h-184v156q-134 -189 -332 -189q-53 0 -98.5 9t-88.5 30q-83 39 -144.5 108.5t-95.5 165t-34 204.5q0 153 64.5 268.5t171.5 175t225 59.5q30 0 55 -4t59 -16q62 -19 119.5 -62t98.5 -112v168zM852 488q0 133 -80 232q-40 51 -97 77.5t-130 26.5
q-75 0 -145.5 -39.5t-117 -116.5t-46.5 -184q0 -105 42 -186.5t111.5 -125t143.5 -43.5q138 0 228.5 97.5t90.5 261.5zM906 1357l-52 -50q-68 -61 -124 -94q-85 -50 -152 -50q-66 0 -151 50q-62 36 -127 94l-52 50l121 96q43 -32 70 -48q82 -48 139 -48q56 0 137 48
q27 16 70 48z" />
    <glyph glyph-name="uacute" unicode="&#xfa;" horiz-adv-x="1104" 
d="M553 811q-88 0 -164 -45t-121 -122.5t-45 -168.5q0 -88 44 -164.5t121 -121.5t165 -45t163 44.5t120 121.5t45 165q0 90 -44.5 167.5t-120 123t-163.5 45.5zM899 853q8 7 13 13q10 13 16 20q92 124 92 346v62h191v-116q0 -129 -40.5 -239.5t-117.5 -190.5l-43 -41
q55 -106 55 -232q0 -136 -68.5 -253t-186.5 -186t-257 -69q-136 0 -255 69t-188 186t-69 253q0 140 69 257.5t187.5 186t255.5 68.5q140 0 257 -68q49 -29 89 -66z" />
    <glyph glyph-name="ucircumflex" unicode="&#xfb;" horiz-adv-x="1049" 
d="M932 653v-245q0 -121 -41 -223.5t-130.5 -167t-227.5 -64.5q-115 0 -208.5 54.5t-148.5 154.5t-55 229v570h182v-545q0 -105 56 -196t174 -91q112 0 163.5 79t51.5 208v545h184v-70q88 124 88 341v62h191v-116q0 -129 -40.5 -239.5t-117.5 -190.5q-52 -55 -121 -95z" />
    <glyph glyph-name="udieresis" unicode="&#xfc;" horiz-adv-x="1049" 
d="M748 957h184v-553q0 -120 -41 -223.5t-130.5 -167.5t-227.5 -64q-115 0 -208.5 53.5t-148.5 154t-55 230.5v570h182v-545q0 -105 56 -196t174 -91q112 0 163.5 79t51.5 208v545zM312 1420q50 0 87 -36t37 -87q0 -52 -36 -90q-37 -35 -88 -35t-87 36t-36 89
q0 48 36.5 85.5t86.5 37.5zM744 1420q50 0 87.5 -36.5t37.5 -86.5q0 -53 -37.5 -89t-87.5 -36q-51 0 -87 36t-36 89q0 48 36.5 85.5t86.5 37.5z" />
    <glyph glyph-name="yacute" unicode="&#xfd;" horiz-adv-x="991" 
d="M412 164l-441 797h218l323 -613l299 613h209l-776 -1510h-207zM537 1503l172 -88l-340 -307l-88 56z" />
    <glyph glyph-name="thorn" unicode="&#xfe;" horiz-adv-x="1141" 
d="M297 1780v-979h6q23 43 72.5 85.5t114.5 70.5q34 14 69.5 22t73.5 8q121 0 225 -61.5t165 -177t61 -264.5q0 -131 -53 -250t-153.5 -193t-234.5 -74q-220 0 -346 189v-705h-184v2044v285h184zM903 479q0 156 -89.5 250.5t-225.5 94.5q-75 0 -143.5 -39.5t-112 -116.5
t-43.5 -184q0 -148 82.5 -251.5t224.5 -103.5l4 1l4 1q45 0 85.5 13t74.5 37q66 48 102 126q18 40 27.5 82.5t9.5 89.5z" />
    <glyph glyph-name="ydieresis" unicode="&#xff;" horiz-adv-x="991" 
d="M412 164l-441 797h218l323 -613l299 613h209l-776 -1510h-207zM684 -292q54 0 90.5 -38.5t36.5 -92.5t-40.5 -89.5t-90.5 -35.5q-55 0 -91 40q-34 42 -34 93q0 46 38.5 84.5t90.5 38.5z" />
    <glyph glyph-name="breve" unicode="&#x2d8;" horiz-adv-x="1004" 
d="M713 1424h147q-21 -98 -77 -161.5t-138.5 -94.5t-183.5 -31q-54 0 -103.5 23t-99.5 67q-90 80 -114 197h149q47 -141 186 -156q89 0 148.5 40.5t85.5 115.5z" />
    <glyph glyph-name="dotlessi" unicode="&#x131;" horiz-adv-x="520" 
d="M168 961h185v-961h-185v961z" />
    <glyph glyph-name="ring" unicode="&#x2da;" horiz-adv-x="735" 
d="M373 1503q49 0 90.5 -24.5t66.5 -66.5t25 -91q0 -50 -24 -93.5t-66.5 -69t-91.5 -25.5q-78 0 -133 54.5t-55 133.5q0 74 55.5 128t132.5 54zM373 1411q-42 0 -69 -26t-27 -64q0 -39 28 -67.5t68 -28.5q36 0 64 28t28 68q0 37 -28 63.5t-64 26.5z" />
    <glyph glyph-name="fi" unicode="&#xf001;" horiz-adv-x="1049" 
d="M164 789h-84v172h84v475q0 201 96 297q33 31 89.5 51.5t119.5 20.5q75 0 135 -25v-188q-71 41 -129 41q-127 0 -127 -232v-440h256v-172h-256v-789h-184v789zM793 1528q52 0 87.5 -39.5t35.5 -91.5q0 -54 -39.5 -89.5t-87.5 -35.5q-58 0 -93.5 40.5t-35.5 92.5
q0 46 40 84.5t93 38.5zM697 961h184v-961h-184v961z" />
    <glyph glyph-name="fl" unicode="&#xf002;" horiz-adv-x="1016" 
d="M164 789h-84v172h84v475q0 201 96 297q33 31 89.5 51.5t119.5 20.5q75 0 135 -25v-188q-71 41 -129 41q-127 0 -127 -232v-440h256v-172h-256v-789h-184v789zM701 1780h184v-1780h-184v1780z" />
  </font>
</defs>
</svg>
