<?xml version="1.0" standalone="no"?>
<!DOCTYPE svg PUBLIC "-//W3C//DTD SVG 1.1//EN" "http://www.w3.org/Graphics/SVG/1.1/DTD/svg11.dtd" >
<svg xmlns="http://www.w3.org/2000/svg">
<metadata></metadata>
<defs>
<font id="arrus-blackregular" horiz-adv-x="1843" >
<font-face units-per-em="2048" ascent="1638" descent="-410" />
<missing-glyph horiz-adv-x="674" />
<glyph horiz-adv-x="0" />
<glyph unicode="&#xd;" horiz-adv-x="0" />
<glyph unicode=" "  horiz-adv-x="674" />
<glyph unicode="&#x09;" horiz-adv-x="674" />
<glyph unicode="&#xa0;" horiz-adv-x="674" />
<glyph unicode="!" horiz-adv-x="682" d="M182 1403q0 62 37.5 88.5t120.5 26.5q87 0 123.5 -26.5t36.5 -90.5q0 -11 -4 -55l-119 -969h-72l-119 969q-4 44 -4 57zM186 131q0 43 20.5 79t56.5 56.5t77 20.5q63 0 109.5 -45.5t46.5 -110.5q0 -63 -46.5 -109.5t-109.5 -46.5t-108.5 45.5t-45.5 110.5z" />
<glyph unicode="&#x22;" horiz-adv-x="717" d="M74 1346q0 54 29.5 86t80.5 32t82 -31t31 -85q0 -15 -4 -39l-86 -463h-43l-86 463q-4 24 -4 37zM420 1346q0 54 29.5 86t80.5 32q52 0 81.5 -31.5t29.5 -84.5q0 -27 -2 -39l-86 -463h-45l-84 463q-4 24 -4 37z" />
<glyph unicode="#" horiz-adv-x="1575" d="M23 381l86 229h272l82 234h-285l86 229h281l139 393h248l-139 -393h241l140 393h247l-139 -393h270l-86 -229h-266l-82 -234h277l-84 -229h-275l-141 -393h-248l141 393h-241l-141 -393h-248l141 393h-276zM621 610h253l84 234h-253z" />
<glyph unicode="$" horiz-adv-x="1346" d="M170 1051q0 116 56.5 206.5t163.5 145.5t257 67v240h133v-237q173 -11 252.5 -33.5t79.5 -69.5q0 -35 -39 -80q27 -84 27 -186v-39h-92q-19 260 -228 305v-475q117 -43 200 -89t137 -99.5t81 -119t27 -147.5q0 -185 -127 -300t-365 -140v-250h-133v248 q-147 5 -238.5 16.5t-135.5 36.5t-44 68q0 33 41 104q-39 123 -39 242v35h97q22 -182 103.5 -284.5t215.5 -123.5v514q-221 80 -325.5 186.5t-104.5 258.5zM479 1167q0 -73 41 -125t127 -96v420q-75 -9 -121.5 -64t-46.5 -135zM733 94q87 15 134.5 74t47.5 149 q0 81 -44.5 139t-137.5 99v-461z" />
<glyph unicode="%" horiz-adv-x="1933" d="M47 1059q0 123 54 223t147 156.5t207 56.5q112 0 206.5 -57t148.5 -157t54 -222q0 -93 -30.5 -173t-86 -139t-131.5 -92.5t-161 -33.5q-111 0 -205.5 57t-148.5 157.5t-54 223.5zM311 1059q0 -365 144 -365q145 0 145 365q0 364 -145 364q-74 0 -109 -90t-35 -274z M406 -25l944 1518h186l-944 -1518h-186zM1077 414q0 123 54 223t147 156.5t207 56.5q112 0 206.5 -57t148.5 -157t54 -222q0 -93 -30.5 -173.5t-86 -139.5t-131.5 -92.5t-161 -33.5q-111 0 -205 57t-148.5 158t-54.5 224zM1341 414q0 -367 144 -367q145 0 145 367 q0 364 -145 364q-51 0 -82.5 -40t-46.5 -121.5t-15 -202.5z" />
<glyph unicode="&#x26;" horiz-adv-x="2034" d="M102 385q0 93 46 175.5t134 142.5t210 94q-121 142 -121 311q0 114 57.5 206t162 144.5t238.5 52.5q62 0 134 -12t81 -12q40 0 70 41l80 -31q-19 -56 -66 -119q13 -108 13 -198q0 -25 -2 -56h-99q-22 152 -87 230t-162 78q-81 0 -134 -57t-53 -150q0 -72 43.5 -153.5 t133.5 -179.5t216 -204t295 -233q25 81 25 135q0 134 -69.5 203t-223.5 92v69q183 -10 369 -53q206 47 368 53v-69q-102 -16 -149 -36t-70.5 -53.5t-48.5 -105.5q-8 -25 -24 -78.5t-36 -107.5t-47 -113q127 -96 220 -153.5t174.5 -88t148.5 -30.5q64 0 123 26l35 -67 q-163 -113 -367 -113q-82 0 -161.5 20.5t-163.5 60.5t-172 97q-226 -172 -541 -172q-177 0 -309 52t-201.5 146.5t-69.5 215.5zM391 555q0 -98 69.5 -194.5t188.5 -158t256 -61.5q134 0 225 66q-124 89 -220.5 172t-186 169t-133 119t-78.5 33q-52 0 -86.5 -39.5 t-34.5 -105.5z" />
<glyph unicode="'" horiz-adv-x="371" d="M74 1346q0 53 31.5 85.5t80.5 32.5q52 0 81.5 -31.5t29.5 -84.5q0 -15 -4 -39l-86 -463h-43l-86 463q-4 24 -4 37z" />
<glyph unicode="(" horiz-adv-x="854" d="M139 530q0 128 34.5 258.5t102 256t170 246t232.5 227.5l117 -56q-314 -389 -314 -932q0 -545 314 -933l-117 -56q-130 108 -232.5 228.5t-170 246.5t-102 257t-34.5 257z" />
<glyph unicode=")" horiz-adv-x="854" d="M59 -403q155 191 233.5 428.5t78.5 504.5q0 132 -19.5 258.5t-59.5 247t-99 228t-134 198.5l115 56q177 -147 297.5 -309t182 -333t61.5 -346t-61.5 -346t-182 -333.5t-297.5 -309.5z" />
<glyph unicode="*" horiz-adv-x="1024" d="M113 930q0 43 33.5 71t86.5 31q94 5 136.5 11.5t101.5 39.5q-72 31 -120 37.5t-115 9.5q-56 5 -89.5 33.5t-33.5 71.5q0 44 34 86.5t72 42.5q41 0 68 -22t64.5 -76.5t65 -87t77.5 -62.5q-5 68 -21 106.5t-46 101t-30 91.5q0 49 30 76t85 27t85 -26.5t30 -76.5 q0 -29 -30 -91.5t-46 -101t-21 -106.5q48 29 78 64t65.5 87.5t62.5 74.5t69 22q23 0 48.5 -20t41.5 -50t16 -59q0 -41 -33.5 -70.5t-89.5 -34.5q-68 -3 -115.5 -9.5t-119.5 -37.5q40 -24 80.5 -34t75 -12.5t82.5 -4.5q54 -3 87 -31t33 -71q0 -27 -15.5 -58t-41.5 -52 t-55 -21q-38 0 -63 22t-59 73t-65.5 87.5t-79.5 62.5q4 -66 20 -106.5t45.5 -100t29.5 -89.5q0 -105 -115 -105t-115 100q0 33 31.5 99t45.5 102t18 100q-48 -26 -76 -58.5t-65.5 -87.5t-62 -77t-63.5 -22q-42 0 -77 42t-35 89z" />
<glyph unicode="+" horiz-adv-x="1706" d="M254 496v231h481v494h238v-494h479v-231h-479v-496h-238v496h-481z" />
<glyph unicode="," horiz-adv-x="674" d="M150 -317q172 160 172 317q0 46 -22 75t-56 29q-20 0 -60 -14q-24 36 -24 78q0 66 52.5 108.5t131.5 42.5q82 0 130 -53.5t48 -144.5q0 -73 -36 -159t-104 -170.5t-169 -162.5z" />
<glyph unicode="-" horiz-adv-x="758" d="M100 365v321q161 -8 279 -8q134 0 278 8v-321q-163 8 -278 8q-102 0 -279 -8z" />
<glyph unicode="." horiz-adv-x="674" d="M164 150q0 72 51 122t123 50q71 0 120.5 -50.5t49.5 -121.5q0 -48 -22.5 -87t-62.5 -63.5t-85 -24.5q-71 0 -122.5 52.5t-51.5 122.5z" />
<glyph unicode="/" horiz-adv-x="569" d="M-104 -190l544 1708h178l-546 -1708h-176z" />
<glyph unicode="0" horiz-adv-x="1346" d="M74 735q0 217 80.5 390.5t218 270.5t299.5 97q123 0 231.5 -55t191 -155.5t130 -241t47.5 -306.5q0 -165 -47 -304t-130.5 -241.5t-193 -157.5t-229.5 -55t-228 55t-192 158.5t-131 242t-47 302.5zM485 737q0 -169 9 -299t29.5 -212.5t57 -124.5t91.5 -42 q71 0 111.5 73.5t57.5 224t17 380.5q0 240 -16.5 385.5t-56.5 218t-113 72.5q-71 0 -112 -72.5t-58 -223t-17 -380.5z" />
<glyph unicode="1" horiz-adv-x="1346" d="M276 0v72q112 4 159.5 36.5t58 98.5t10.5 219v553q0 133 -4 198t-19.5 106t-54 61t-107.5 20h-6v70q137 10 211 10q91 0 170 -8q73 46 140 71l53 -39q-29 -171 -29 -362v-719q0 -96 5.5 -151.5t26.5 -90.5t65.5 -51.5t131.5 -21.5v-72q-114 3 -216.5 16t-192.5 39 q-166 -49 -402 -55z" />
<glyph unicode="2" horiz-adv-x="1346" d="M51 0v80q250 184 409 346.5t236.5 329t77.5 356.5q0 291 -164 291q-67 0 -111 -53t-44 -136q0 -98 69 -204q-94 -58 -205 -58q-88 0 -139 51t-51 140q0 94 67 173.5t188.5 127t277.5 47.5q113 0 206.5 -28.5t157.5 -80t97.5 -124t33.5 -164.5q0 -186 -176 -394.5 t-535 -443.5h310q122 0 186.5 10.5t107 46.5t64.5 115l82 -8q-32 -153 -90 -242q39 -57 39 -90q0 -46 -33 -66t-106 -20q-24 0 -71.5 1.5t-108 2.5t-113.5 1.5t-170 0.5q-380 0 -492 -8z" />
<glyph unicode="3" horiz-adv-x="1346" d="M55 233l86 80q147 -172 338 -172q86 0 155.5 36t108.5 101t39 150q0 131 -80 202.5t-233 71.5q-30 0 -48 -0.5t-40 -1.5v107h6q381 0 381 340q0 129 -42.5 196.5t-125.5 67.5q-68 0 -108.5 -45.5t-40.5 -126.5q0 -75 36 -156q-69 -49 -163 -49q-74 0 -119 43.5t-45 114.5 q0 84 58.5 152.5t168.5 108.5t256 40q153 0 264 -44.5t170.5 -125.5t59.5 -186q0 -137 -102 -232t-296 -131q216 -16 328.5 -110.5t112.5 -257.5q0 -118 -74.5 -217t-210 -156.5t-307.5 -57.5q-189 0 -328.5 69t-204.5 189z" />
<glyph unicode="4" horiz-adv-x="1346" d="M76 420v147l680 914l118 -21l142 21q-4 -366 -4 -430q0 -95 4 -451q96 0 148 16.5t75 61.5l43 -16q-18 -58 -61 -115q20 -48 20 -64q0 -37 -38 -49t-126 -12h-65v-64q0 -106 13.5 -164.5t54 -86t126.5 -35.5v-72q-214 9 -362 55q-150 -46 -355 -55v72q92 8 132.5 41.5 t52 97t16.5 217.5h-272q-193 0 -342 -8zM270 594q32 1 82 1.5t111.5 1t107 1t119.5 2.5l10 580z" />
<glyph unicode="5" horiz-adv-x="1346" d="M55 131l72 98q131 -108 289 -108q99 0 176 43t119.5 119t42.5 176q0 177 -124.5 277t-353.5 100h-24l78 612q190 -12 368 -12q171 0 265.5 17t144.5 69l45 -21q-18 -75 -59 -143q24 -41 24 -68q0 -42 -29 -59.5t-84.5 -22t-179.5 -4.5h-30q-91 0 -198 3.5t-169 6.5 l-29 -237q246 0 414.5 -56.5t255 -165t86.5 -263.5q0 -108 -47.5 -201.5t-136.5 -165t-211.5 -111t-267.5 -39.5q-126 0 -244.5 42.5t-192.5 113.5z" />
<glyph unicode="6" horiz-adv-x="1346" d="M111 553q0 180 62.5 337.5t183.5 285.5t298 218t400 134l30 -101q-462 -119 -555 -579q56 38 127 58t148 20q101 0 188.5 -34t150 -93.5t97.5 -139t35 -170.5q0 -108 -42.5 -202t-121 -164t-186 -109t-232.5 -39q-173 0 -305 72t-205 204t-73 302zM489 422 q0 -168 56 -265.5t149 -97.5q94 0 151.5 95.5t57.5 267.5q0 189 -53 290t-148 101q-98 0 -155.5 -103.5t-57.5 -287.5z" />
<glyph unicode="7" horiz-adv-x="1346" d="M184 1094q20 118 68 206q-37 46 -37 86q0 47 32 63.5t107 16.5q38 0 76 -0.5t76.5 -1t85 -1.5t131.5 -1h209q178 0 301 8v-96q-99 -189 -182 -376t-152 -376t-125 -386q-35 -122 -48 -160.5t-40.5 -65t-77.5 -26.5q-56 0 -139 47q-64 -29 -170 -56l-41 35 q86 150 192 327.5t166.5 277t161.5 261t209 328.5q-104 8 -223 8h-94q-140 0 -215 -7t-120.5 -35t-64.5 -89z" />
<glyph unicode="8" horiz-adv-x="1346" d="M113 350q0 110 70.5 206.5t205.5 166.5q-99 61 -157 147t-58 197q0 121 67 218t191 151.5t287 54.5q136 0 245.5 -48.5t169.5 -131.5t60 -183q0 -201 -248 -337q277 -143 277 -379q0 -93 -41.5 -173t-117 -138t-184 -91t-235.5 -33q-166 0 -285.5 47t-183 132.5 t-63.5 193.5zM381 416q0 -150 83 -246t210 -96q70 0 123.5 28.5t83.5 79t30 109.5q0 83 -47.5 142t-130.5 108t-250 133q-102 -113 -102 -258zM471 1192q0 -67 40.5 -124.5t122 -111t208.5 -112.5q60 52 94.5 127.5t34.5 154.5q0 84 -35 146.5t-96 96.5t-138 34 q-103 0 -167 -59t-64 -152z" />
<glyph unicode="9" horiz-adv-x="1346" d="M86 983q0 140 75.5 257t213.5 185t313 68q163 0 291.5 -72.5t201 -206t72.5 -309.5q0 -180 -64 -336t-191 -281t-310.5 -213t-421.5 -136l-24 86q161 45 290.5 134t209 210.5t100.5 257.5q-122 -86 -291 -86q-100 0 -184.5 33t-148 93.5t-98 141.5t-34.5 174zM457 1057 q0 -127 26.5 -216t73 -136.5t109.5 -47.5q61 0 106.5 42t71.5 122.5t26 192.5q0 187 -58.5 291t-158.5 104q-56 0 -101 -40.5t-70 -120.5t-25 -191z" />
<glyph unicode=":" horiz-adv-x="717" d="M186 150q0 49 22.5 87.5t62 61.5t87.5 23q72 0 122 -51t50 -121q0 -48 -23 -87.5t-63 -63.5t-86 -24q-72 0 -122 52t-50 123zM186 838q0 49 22.5 87.5t62 61.5t87.5 23q72 0 122 -51t50 -121q0 -71 -50.5 -122.5t-123.5 -51.5q-69 0 -119.5 51.5t-50.5 122.5z" />
<glyph unicode=";" horiz-adv-x="717" d="M172 -317q172 159 172 317q0 47 -22.5 75.5t-57.5 28.5q-28 0 -59 -14q-25 35 -25 78q0 66 52.5 108.5t132.5 42.5q82 0 130 -53.5t48 -144.5q0 -73 -36 -159t-104.5 -170.5t-169.5 -162.5zM186 838q0 49 22.5 87.5t62 61.5t87.5 23q72 0 122 -51t50 -121 q0 -71 -50.5 -122.5t-123.5 -51.5q-69 0 -119.5 51.5t-50.5 122.5z" />
<glyph unicode="&#x3c;" horiz-adv-x="1706" d="M264 494v233l1178 487v-253l-854 -351l854 -348v-254z" />
<glyph unicode="=" horiz-adv-x="1706" d="M254 272v230h1198v-230h-1198zM254 719v231h1198v-231h-1198z" />
<glyph unicode="&#x3e;" horiz-adv-x="1706" d="M264 8v254l854 348l-854 351v253l1178 -487v-233z" />
<glyph unicode="?" horiz-adv-x="1018" d="M66 1253q0 54 30.5 102.5t88.5 85t140.5 57t184.5 20.5q132 0 228 -40.5t147 -115t51 -174.5q0 -98 -43.5 -168.5t-103 -117t-224.5 -163.5q-123 -85 -123 -164q0 -35 20 -55t54 -20q3 0 29 4q-3 -72 -25 -94.5t-86 -22.5q-68 0 -109.5 46.5t-41.5 125.5q0 76 37 144 t118 161q49 56 78 98t47.5 104.5t18.5 154.5q0 93 -37 147.5t-94 54.5q-51 0 -84 -35.5t-33 -95.5q0 -62 39 -129q-67 -53 -156 -53q-70 0 -110.5 38.5t-40.5 104.5zM264 131q0 64 45 110t111 46q39 0 75 -21t57 -57.5t21 -77.5q0 -39 -20.5 -76t-56 -58.5t-76.5 -21.5 q-64 0 -110 46t-46 110z" />
<glyph unicode="@" horiz-adv-x="2019" d="M129 539q0 201 87.5 380t252.5 314q277 227 653 227q176 0 317.5 -49t243.5 -141t155.5 -220.5t53.5 -283.5q0 -166 -59.5 -303.5t-171.5 -237.5q-122 -108 -268 -108q-98 0 -156 52t-66 144q-121 -192 -278 -192q-104 0 -176.5 40.5t-111 119t-38.5 186.5q0 115 50 223 t147 197q68 62 150 95.5t167 33.5q190 0 217 -176l48 157h208l-174 -624q-14 -58 -14 -88q0 -47 19 -73t51 -26q28 0 82.5 27t103.5 70q199 179 199 485q0 244 -135 391q-100 111 -235.5 167t-299.5 56q-281 0 -498 -157q-111 -80 -188 -189t-116.5 -241.5t-39.5 -276.5 q0 -167 53 -302t153 -230t242 -145t314 -50q164 0 317 51t314 156l41 -57q-306 -228 -672 -228q-214 0 -389 58.5t-299.5 169t-189 263.5t-64.5 335zM801 352q0 -73 32.5 -114t86.5 -41q119 0 223 241q27 61 50 136t32.5 133t9.5 96q0 67 -27.5 103t-79.5 36 q-63 0 -112 -44.5t-96 -139.5q-38 -76 -65.5 -151.5t-40.5 -139t-13 -115.5z" />
<glyph unicode="A" horiz-adv-x="1612" d="M-82 0v72q74 3 129.5 47.5t103.5 127.5t92.5 190t139.5 341l297 727l151 -24l154 24l293 -739q25 -64 99.5 -253t117 -272.5t88.5 -126t105 -42.5h6v-72q-198 6 -389 57q-199 -54 -371 -57v72q75 6 109 29t34 73q0 29 -18.5 94t-59.5 168l-36 96q-109 3 -248 3 q-129 0 -252 -3l-39 -96q-39 -97 -58.5 -173t-19.5 -99q0 -43 29 -64t98 -30v-70q-144 3 -278 49q-141 -43 -277 -49zM506 645q74 -2 211 -2t205 2q-16 48 -69 192.5t-130 346.5q-125 -284 -217 -539z" />
<glyph unicode="B" horiz-adv-x="1579" d="M47 0v70q94 10 137 54t54.5 124t11.5 241v500q0 163 -11.5 245.5t-54.5 129t-137 59.5v70q189 -9 371 -57q183 63 416 63q131 0 231.5 -21t167 -62t100 -101.5t33.5 -140.5q0 -84 -41 -153.5t-122.5 -119t-196.5 -76.5v-12q234 -18 356.5 -119t122.5 -276 q0 -131 -73.5 -226.5t-220 -146.5t-353.5 -51q-242 0 -420 63q-182 -48 -371 -57zM627 365q0 -74 4.5 -125.5t18.5 -84.5t46 -51t86 -18q128 0 200.5 79.5t72.5 221.5q0 367 -369 367q-15 1 -27.5 1.5t-31.5 0.5v-391zM629 850q52 -4 67 -4q129 0 198 68t69 196 q0 95 -31 159.5t-90 99t-142 34.5q-28 0 -63 -4q-8 -64 -8 -195v-354z" />
<glyph unicode="C" horiz-adv-x="1673" d="M72 727q0 172 62 317.5t183.5 252.5t294 164t387.5 57q88 0 160 -10t149 -24t107 -14q29 0 72 35l69 -26q-20 -87 -53 -154q23 -153 23 -272v-27h-105q-24 195 -128 295t-279 100q-145 0 -257 -77t-174.5 -226t-62.5 -352q0 -321 141.5 -501.5t382.5 -180.5 q173 0 280.5 85.5t137.5 248.5h103q-16 -109 -47 -232q18 -49 24 -96q-104 -52 -246 -83.5t-297 -31.5q-216 0 -388 52.5t-293.5 153t-183.5 239t-62 307.5z" />
<glyph unicode="D" horiz-adv-x="1878" d="M47 0v72q93 10 136.5 53.5t55 123t11.5 240.5v519q0 129 -5 194t-24 112t-61.5 74.5t-112.5 34.5v70q230 -16 385 -57q94 30 211 46.5t244 16.5q218 0 389 -53.5t289.5 -154.5t178.5 -238t60 -308q0 -173 -62 -313t-182.5 -239t-295 -151t-398.5 -52q-121 0 -227 16 t-207 51q-175 -45 -385 -57zM637 602q0 -220 2 -311t8 -113q15 -49 56.5 -70.5t125.5 -21.5q167 0 289 74t187 217t65 342q0 327 -150.5 505.5t-426.5 178.5q-60 0 -142 -14q-6 -57 -10 -189t-4 -309v-289z" />
<glyph unicode="E" horiz-adv-x="1401" d="M47 0v70q94 10 137 54t54.5 124t11.5 241v500q0 163 -11.5 245.5t-54.5 129t-137 59.5v70q217 -12 363 -57q129 33 283.5 45t377.5 12q86 0 117 -10.5t31 -44.5q0 -33 -33 -74q22 -110 22 -188q0 -14 -0.5 -22.5t-1.5 -18.5h-82q-5 91 -32.5 137.5t-85 63t-162.5 16.5 h-201q-8 -184 -8 -295v-221h170q115 0 163.5 30t55.5 123h88q-6 -115 -39 -217q36 -123 39 -221h-88q-3 67 -24 98.5t-65 42t-130 10.5h-170v-299q0 -114 16 -165.5t68.5 -69.5t171.5 -18q122 0 194 20.5t110.5 75.5t53.5 160h94q-12 -131 -57 -250q25 -43 25 -70 q0 -55 -61 -69.5t-228 -14.5q-110 0 -176.5 1t-147.5 7t-146.5 16t-141.5 31q-182 -48 -363 -57z" />
<glyph unicode="F" horiz-adv-x="1319" d="M47 0v70q94 10 137 54t54.5 124t11.5 241v500q0 163 -11.5 245.5t-54.5 129t-137 59.5v70q196 -9 363 -57q108 28 254.5 42.5t328.5 14.5h74q99 0 135.5 -10.5t36.5 -48.5q0 -26 -35 -70q25 -110 25 -190q0 -13 -0.5 -21t-1.5 -18h-84q-5 93 -32.5 138.5t-85 62 t-161.5 16.5h-221q-8 -184 -8 -295v-246h207q116 0 164 30.5t55 123.5h88q-6 -117 -39 -217q36 -123 39 -222h-88q-4 97 -49.5 124.5t-169.5 27.5h-207v-143q0 -187 13 -278t64.5 -137t170.5 -50v-70q-94 1 -199.5 15.5t-241.5 41.5q-260 -52 -395 -57z" />
<glyph unicode="G" horiz-adv-x="1819" d="M72 727q0 175 63.5 322.5t183 251.5t296 160.5t393.5 56.5q88 0 159.5 -9.5t150.5 -24t107 -14.5q29 0 72 35l70 -26q-22 -89 -54 -154q21 -134 21 -266v-33h-102q-15 124 -65.5 212.5t-137 133.5t-205.5 45q-149 0 -263.5 -80t-177.5 -232t-63 -355q0 -313 148.5 -493.5 t390.5 -180.5q80 0 118 16t51 49t13 95v137q0 92 -19 146.5t-67 83.5t-135 38v70q105 -4 212 -18.5t202 -37.5q172 42 325 56v-70q-56 -21 -88 -54.5t-45.5 -83t-13.5 -118.5v-82q0 -66 13.5 -87t62.5 -21v-74q-147 -69 -322 -107.5t-356 -38.5q-221 0 -397 52.5 t-295.5 150.5t-182.5 238.5t-63 310.5z" />
<glyph unicode="H" horiz-adv-x="1915" d="M47 0v70q94 10 137 54t54.5 124t11.5 241v500q0 163 -11.5 245.5t-54.5 129t-137 59.5v70q155 -8 395 -57q243 49 396 57v-70q-70 -7 -111.5 -34t-61 -75t-25 -119t-5.5 -189v-179q42 -1 118.5 -1t116 -0.5t86.5 -0.5h87t117.5 0.5t119.5 1.5v162q0 163 -11.5 245.5 t-54.5 129t-137 59.5v70q154 -8 396 -57q240 49 395 57v-70q-72 -7 -113 -34t-61 -77t-25.5 -124.5t-5.5 -196.5v-471q0 -118 5 -195t24 -130t61 -84t115 -41v-70q-174 9 -395 57q-262 -52 -396 -57v70q94 10 137 54t54.5 124t11.5 241v209q-247 7 -324 7q-74 0 -321 -7 v-192q0 -119 5.5 -193t25.5 -125t59.5 -79t112.5 -39v-70q-154 8 -396 57q-260 -52 -395 -57z" />
<glyph unicode="I" horiz-adv-x="924" d="M68 0v70q93 10 136 54t54.5 124t11.5 241v500q0 163 -11.5 245.5t-55 129t-135.5 59.5v70q150 -8 393 -57q241 49 397 57v-70q-70 -7 -112 -34t-62 -78.5t-25.5 -124.5t-5.5 -195v-471q0 -118 5 -195t25.5 -130.5t61 -84t113.5 -40.5v-70q-161 5 -395 57 q-243 -52 -395 -57z" />
<glyph unicode="J" horiz-adv-x="924" d="M68 1423v70q150 -8 393 -57q241 49 397 57v-70q-70 -7 -112 -34t-62 -78.5t-25.5 -124.5t-5.5 -195v-608q0 -163 -14 -266t-61.5 -191t-149.5 -172q-145 -117 -326 -153l-28 59q83 36 126 124t56.5 229.5t13.5 365.5v610q0 163 -11.5 245.5t-55 129t-135.5 59.5z" />
<glyph unicode="K" horiz-adv-x="1812" d="M47 0v70q94 10 137 54t54.5 124t11.5 241v500q0 163 -11.5 245.5t-54.5 129t-137 59.5v70q155 -8 395 -57q243 49 396 57v-70q-70 -7 -111.5 -34t-61 -75t-25 -119t-5.5 -189v-500q0 -119 5.5 -193t25.5 -125t59.5 -79t112.5 -39v-70q-154 8 -396 57q-260 -52 -395 -57z M700 778l588 658q30 33 52.5 47t58.5 14q47 0 127 -33q130 26 229 29v-72q-115 -6 -215 -61.5t-213 -165.5l-289 -281l271 -419q88 -137 176.5 -234t174 -143.5t175.5 -46.5h8v-70q-123 -18 -219 -18q-160 0 -272.5 40t-218.5 150q-55 58 -103.5 120.5t-102 142.5 t-123 185.5t-104.5 157.5z" />
<glyph unicode="L" horiz-adv-x="1364" d="M47 0v70q94 10 137 54t54.5 124t11.5 241v500q0 163 -11.5 245.5t-54.5 129t-137 59.5v70q155 -8 395 -57q243 49 396 57v-70q-70 -7 -111.5 -34t-61 -75t-25 -119t-5.5 -189v-568q0 -97 7 -149.5t28 -82t64.5 -42t127.5 -12.5q127 0 201.5 21.5t117.5 75.5t64 157h92 q-14 -120 -71 -252q28 -42 28 -70q0 -38 -32 -56t-99 -23t-184 -5q-176 0 -310 12t-259 45q-219 -52 -363 -57z" />
<glyph unicode="M" horiz-adv-x="2275" d="M66 0v72q71 14 106.5 43.5t51.5 76.5t28 134q17 134 37 444q10 176 15 275t5 155q0 81 -19 126.5t-62 67.5t-119 27v72q173 -7 292 -45q147 45 207 45q34 0 55.5 -17t38 -51t52.5 -120q79 -190 156 -360.5t140 -296.5t95 -181q66 129 128.5 259.5t118.5 252t93 202.5 t76 160q45 92 67 120t66 28q46 0 159 -41q109 29 287 45v-72q-70 -8 -100.5 -31.5t-39.5 -69.5t-9 -140q0 -74 4 -168l28 -635q7 -124 19.5 -184t48 -90t111.5 -31v-72q-200 13 -338 57q-161 -45 -346 -57v72q87 7 118 68t31 200q0 60 -4 166l-16 323q-9 175 -21 297 q-81 -160 -169.5 -350.5t-169 -378.5t-163.5 -397h-133q-314 693 -508 1106q-19 -288 -30 -488.5t-11 -293.5q0 -86 17.5 -139.5t57 -81t108.5 -31.5v-72q-156 6 -285 47q-121 -37 -274 -47z" />
<glyph unicode="N" horiz-adv-x="1819" d="M39 0v72q98 4 144.5 53.5t59.5 150t13 293.5v375q0 189 -11.5 279.5t-57.5 139t-148 58.5v72q123 -3 274 -43q137 45 187 45q29 0 90.5 -65t220 -258.5t278.5 -333t328 -363.5v541q0 158 -13.5 239.5t-58 122t-139.5 43.5v72q167 -10 295 -47q125 35 291 47v-72 q-72 -1 -115 -36t-63 -107t-25.5 -180t-5.5 -293v-488q0 -80 8 -342l-92 23l-141 -10q-121 148 -248.5 302.5t-224.5 269t-229.5 266t-233.5 257.5v-292q0 -121 4.5 -263t11.5 -217.5t17 -113.5q31 -116 207 -125v-72q-54 3 -109.5 9t-119 18t-95.5 20q-163 -41 -299 -47z " />
<glyph unicode="O" d="M72 748q0 162 62 304.5t175 246.5t269 161.5t344 57.5q189 0 345.5 -58t269 -161.5t174 -244.5t61.5 -306q0 -161 -61 -304.5t-175.5 -248.5t-271.5 -162.5t-342 -57.5q-186 0 -343.5 58t-271 163t-174.5 248t-61 304zM522 748q0 -216 48 -369t138.5 -230t213.5 -77 t213.5 77t139 229t48.5 370q0 169 -27.5 293t-78.5 208t-126 128t-169 44q-125 0 -214.5 -76.5t-137.5 -229t-48 -367.5z" />
<glyph unicode="P" horiz-adv-x="1460" d="M47 0v70q94 10 137 54t54.5 124t11.5 241v500q0 163 -11.5 245.5t-54.5 129t-137 59.5v70q186 -9 348 -51q213 57 426 57q600 0 600 -403q0 -134 -70 -237.5t-201 -159.5t-302 -56q-97 0 -154 21l17 81q44 -4 65 -4q108 0 170 80t62 223q0 181 -70.5 269t-216.5 88 q-15 0 -80 -6q-3 -60 -4.5 -145.5t-1.5 -168.5v-569q0 -127 6.5 -205.5t29 -130t68 -76.5t131.5 -30v-70q-203 0 -428 57q-241 -52 -395 -57z" />
<glyph unicode="Q" d="M72 748q0 162 61 304.5t174.5 246.5t269.5 161.5t345 57.5q188 0 344.5 -57.5t269.5 -161t174.5 -246t61.5 -305.5q0 -133 -39.5 -250.5t-117 -213.5t-185.5 -160.5t-242 -94.5q77 -62 155 -111t152.5 -80.5t145.5 -48t141 -16.5q68 0 139 18l31 -78q-201 -92 -447 -92 q-218 0 -404 89.5t-376 281.5q-201 40 -348 147t-226 266t-79 343zM522 748q0 -216 48 -369t138.5 -230t213.5 -77t213.5 77t139 229t48.5 370q0 169 -27.5 293t-78.5 208t-126 128t-169 44q-125 0 -214.5 -76.5t-137.5 -229t-48 -367.5z" />
<glyph unicode="R" horiz-adv-x="1749" d="M27 1423v70q222 -6 370 -51q203 53 447 53q203 0 335.5 -41.5t198.5 -126t66 -213.5q0 -125 -71 -218t-206 -144q78 -175 149 -300t145.5 -211t151 -127.5t161.5 -41.5h10v-72q-111 -18 -221 -18q-98 0 -171.5 11.5t-132.5 39.5t-106 73q-39 39 -73 87.5t-63.5 107.5 t-53.5 115t-56 129q-17 42 -37 63.5t-47 29t-98 10t-96 3.5v-155q0 -163 10.5 -244t53.5 -124.5t138 -55.5v-72q-171 3 -391 57q-234 -52 -393 -57v72q93 10 136.5 53.5t55 123t11.5 240.5v508q0 165 -12.5 246t-60 125.5t-150.5 54.5zM629 745q63 -8 106 -8q144 0 218.5 79 t74.5 231q0 167 -79 257.5t-222 90.5q-47 0 -94 -6q-4 -104 -4 -304v-340z" />
<glyph unicode="S" horiz-adv-x="1350" d="M156 1075q0 98 36 178.5t104 140t165.5 92t222.5 32.5q69 0 127.5 -9t112.5 -21.5t67 -12.5q54 0 72 43l92 -13q-15 -70 -45 -147q20 -117 20 -209q0 -18 -0.5 -29t-1.5 -24h-96q-6 105 -45 178t-107 110t-157 37q-117 0 -182.5 -59.5t-65.5 -153.5q0 -60 26 -103 t73.5 -75t101 -56t194.5 -81q132 -54 218 -114t129 -141t43 -189q0 -141 -69.5 -248t-201.5 -165.5t-305 -58.5q-97 0 -169 15t-131 34t-75 19q-44 0 -61 -51l-86 16q10 73 43 185q-33 138 -33 284v27h100q25 -209 127.5 -320.5t266.5 -111.5q77 0 137.5 29.5t93.5 83.5 t33 120q0 79 -40 130t-108 87t-215 97q-142 56 -230.5 116t-134.5 142t-46 196z" />
<glyph unicode="T" horiz-adv-x="1546" d="M49 1094q12 140 60 290q-24 70 -27 146h78q1 -28 42.5 -37.5t133.5 -9.5q41 1 77 1.5t105 0.5h529q64 0 97.5 -0.5t72.5 -1.5q86 0 125.5 9t43.5 38h78q-3 -67 -28 -146q47 -152 59 -290h-86q-19 97 -50.5 152.5t-88 84t-148.5 37.5h-145q-12 -192 -12 -491v-269 q0 -108 1 -158.5t5 -113.5t12.5 -103.5t22.5 -68.5q22 -39 71.5 -60.5t136.5 -33.5v-70q-184 5 -442 57q-128 -27 -238.5 -41.5t-203.5 -15.5v70q91 11 142.5 32.5t72.5 61.5q22 43 28.5 124t6.5 255v438q0 231 -11 387h-147q-132 0 -195.5 -63t-91.5 -211h-86z" />
<glyph unicode="U" horiz-adv-x="1835" d="M61 1421v72q136 -5 375 -57q221 52 375 57v-72q-87 -7 -128 -50t-51.5 -121.5t-10.5 -237.5v-107q0 -201 13 -339.5t42 -213.5q43 -102 130 -156.5t210 -54.5q241 0 342 191q40 74 52.5 190t12.5 314v200q0 154 -12 226t-57.5 110.5t-147.5 48.5v72q130 -6 297 -45 q176 38 283 45v-72q-88 -4 -130.5 -40t-54.5 -103.5t-12 -194.5v-325q0 -137 -9.5 -232t-37 -178.5t-76.5 -148.5q-54 -72 -135.5 -123t-190 -76t-233.5 -25q-317 0 -485 152q-72 64 -111.5 151.5t-54 196t-14.5 262.5v330q0 110 -4 166t-20.5 97.5t-53.5 64t-103 26.5z" />
<glyph unicode="V" horiz-adv-x="1630" d="M-6 1421v72q224 -16 360 -57q176 45 371 57v-72q-65 -9 -91 -31.5t-26 -72.5q0 -66 83 -289t241 -573q146 373 213 570.5t67 272.5q0 59 -30 86.5t-103 36.5v72q129 -6 289 -45q145 36 277 45v-72q-65 -6 -110.5 -37t-80 -85.5t-76.5 -149.5q-51 -119 -81.5 -190.5 t-91.5 -222.5t-128.5 -325.5t-154.5 -410.5l-80 18l-113 -18q-116 276 -246.5 587.5t-211.5 485t-145.5 261t-121.5 87.5h-10z" />
<glyph unicode="W" horiz-adv-x="2384" d="M25 1421v72q183 -12 333 -51q143 38 340 51v-72q-125 -9 -125 -123q0 -42 25.5 -143t72.5 -251t130 -390q40 99 80.5 206.5t97 260t99 268t89.5 244.5l86 -16l90 16q183 -492 396 -981q111 309 168 501t57 271q0 64 -35.5 96t-116.5 41v72q181 -14 289 -45q130 35 275 45 v-72q-65 -9 -106 -39.5t-69 -80.5t-63 -138q-27 -70 -69.5 -184t-79 -218t-103.5 -307t-145 -454l-94 18l-93 -18q-94 269 -187.5 515.5t-205.5 518.5q-196 -516 -381 -1034l-88 18l-100 -18q-227 746 -369 1145q-37 106 -60 158.5t-56 83t-82 34.5z" />
<glyph unicode="X" horiz-adv-x="1636" d="M23 0v72q71 11 134 45.5t126.5 99t126.5 154.5l243 338l-149 223q-156 232 -209.5 307t-115.5 128.5t-128 53.5h-2v72q164 -6 359 -57q165 45 352 57v-72q-54 -6 -75 -20t-21 -47q0 -26 38.5 -100t106.5 -175l82 -121l110 154q119 162 119 234q0 66 -100 75v72 q149 -9 266 -45q129 36 281 45v-72q-75 -7 -142 -55.5t-126.5 -121t-178.5 -232.5l-133 -181l168 -256q119 -177 163.5 -240.5t103 -128t114.5 -97.5t121 -37v-72q-255 13 -426 57q-184 -48 -369 -57v72q63 5 88 23t25 61q0 27 -23.5 80.5t-70.5 125.5l-138 213l-129 -186 q-120 -171 -120 -242q0 -66 94 -75v-72q-128 6 -289 45q-168 -38 -276 -45z" />
<glyph unicode="Y" horiz-adv-x="1526" d="M-25 1421v72q184 -9 363 -51q71 20 155.5 32t188.5 19v-72q-55 -8 -78.5 -23t-23.5 -48q0 -86 303 -557q87 148 145 253t86.5 174t28.5 111q0 84 -129 90v72q151 -6 299 -45q128 35 268 45v-72q-69 -7 -120 -44t-95 -94t-127 -181q-171 -265 -213 -361q-37 -87 -37 -215 v-20q0 -165 14 -250.5t62.5 -131t148.5 -54.5v-70q-167 5 -413 57q-245 -52 -416 -57v70q88 5 136.5 38t68.5 101.5t20 183.5v72q0 66 -5 106.5t-25 79.5q-22 49 -84.5 146.5t-161.5 240.5q-109 159 -159.5 227t-100.5 111.5t-99 44.5z" />
<glyph unicode="Z" horiz-adv-x="1561" d="M66 0v98q167 227 288.5 396.5t226.5 320.5t193.5 282.5t181.5 278.5h-180q-205 0 -299.5 -12.5t-152.5 -65t-78 -168.5h-86q17 134 55 234q-18 40 -18 72q0 63 88 63q21 0 190 -3t260 -3h230q335 0 465 8v-94q-105 -127 -244 -314t-309 -437.5t-347 -528.5h256 q186 0 280 6.5t166.5 33.5t118 90.5t66.5 174.5h101q-20 -147 -82 -268q34 -57 34 -94q0 -41 -33 -57.5t-110 -16.5q-12 0 -62 1t-137.5 2.5t-192 3t-308.5 1.5h-209q-228 0 -352 -4z" />
<glyph unicode="[" horiz-adv-x="854" d="M184 -434q9 586 9 964q0 453 -9 963h600v-78l-264 -14q-16 -475 -16 -871q0 -195 3.5 -400.5t12.5 -469.5l264 -16v-78h-600z" />
<glyph unicode="\" horiz-adv-x="569" d="M-49 1518h176l547 -1708h-176z" />
<glyph unicode="]" horiz-adv-x="854" d="M68 -356l266 16q6 185 9.5 341.5t5 269.5t1.5 259q0 386 -16 871l-266 14v78h602q-4 -221 -5 -326.5t-2 -267t-1 -369.5q0 -473 8 -964h-602v78z" />
<glyph unicode="^" horiz-adv-x="2048" d="M412 897l481 565h260l479 -565h-121l-489 348l-490 -348h-120z" />
<glyph unicode="_" horiz-adv-x="1024" d="M0 -244h1024v-239h-1024v239z" />
<glyph unicode="`" horiz-adv-x="1024" d="M180 1427q0 46 32.5 77.5t78.5 31.5q38 0 74 -23t81 -73l279 -295h-115l-325 162q-54 26 -79.5 54.5t-25.5 65.5z" />
<glyph unicode="a" horiz-adv-x="1270" d="M76 231q0 68 28.5 118.5t84 85t141.5 60t194 44.5q94 17 134.5 30t57.5 40t17 83q0 90 -10 142.5t-39.5 79t-87.5 26.5q-63 0 -103 -39t-40 -102q0 -54 26 -117q-70 -37 -164 -37q-62 0 -99.5 35t-37.5 94q0 70 56 128.5t162.5 93t246.5 34.5q160 0 255.5 -45.5t138 -140 t42.5 -246.5v-203q0 -87 5.5 -134.5t24 -71t56.5 -23.5q23 0 64 16l28 -55q-56 -66 -131 -102.5t-143 -36.5q-181 0 -215 172q-53 -81 -154 -128.5t-227 -47.5q-146 0 -228.5 66.5t-82.5 180.5zM444 281q0 -40 16.5 -71t46 -48t68.5 -17q154 0 154 199v156 q-118 -35 -170 -56t-83.5 -58.5t-31.5 -104.5z" />
<glyph unicode="b" horiz-adv-x="1380" d="M2 1405v72q129 12 211 12q62 0 127 -6q50 48 123 88l63 -37q-20 -151 -20 -420v-207q54 60 137.5 92.5t190.5 32.5q139 0 248 -62.5t170 -175.5t61 -255q0 -164 -79.5 -293.5t-220.5 -201t-315 -71.5q-269 0 -391 107q-67 -55 -129 -105l-55 31q29 113 29 350v734 q0 135 -6.5 194.5t-35.5 90t-94 30.5h-14zM506 397q0 -116 14.5 -187t53 -105.5t110.5 -34.5q116 0 179 94t63 272q0 217 -64 330t-180 113q-102 0 -176 -93v-389z" />
<glyph unicode="c" horiz-adv-x="1096" d="M61 471q0 124 45.5 227.5t128.5 178.5t198.5 116t252.5 41q109 0 188.5 -30.5t121.5 -81.5t42 -111q0 -128 -207 -137q-18 126 -71.5 192t-134.5 66q-94 0 -149.5 -76.5t-55.5 -214.5q0 -149 47.5 -266t133.5 -181.5t196 -64.5q123 0 233 76l39 -70q-75 -74 -197 -116 t-270 -42q-167 0 -288.5 60t-187 173t-65.5 261z" />
<glyph unicode="d" horiz-adv-x="1421" d="M63 473q0 158 76 284t216 195.5t321 69.5q103 0 190 -27v195q0 84 -12.5 129.5t-45.5 65.5t-97 20h-31v72q114 12 215 12q75 0 162 -6q53 50 121 88l63 -37q-18 -136 -18 -420v-659q0 -159 29.5 -230t107.5 -71q5 0 47 4l12 -78q-137 -29 -274 -29q-47 0 -70 2 q-59 -27 -108 -67l-62 34q-17 60 -20 140q-47 -83 -141.5 -129.5t-223.5 -46.5q-135 0 -239.5 61t-161 172t-56.5 256zM442 580q0 -127 35 -221.5t97 -145.5t135 -51q63 0 107 36t54 97q-4 94 -4 252v280q-24 47 -68 74t-98 27q-80 0 -138.5 -40.5t-89 -120t-30.5 -187.5z " />
<glyph unicode="e" horiz-adv-x="1165" d="M63 485q0 156 74 282t204.5 196.5t291.5 70.5q134 0 240.5 -52t166.5 -140t60 -193q0 -21 -4 -61h-561q-42 0 -64.5 -6.5t-30.5 -22t-8 -45.5q0 -104 46.5 -191t130.5 -138.5t192 -51.5q77 0 155 28.5t140 82.5l34 -66q-78 -94 -213.5 -148.5t-306.5 -54.5 q-123 0 -223.5 36t-173 104t-111.5 162.5t-39 207.5zM422 717q1 -12 1.5 -21.5t0.5 -17.5h289q35 0 48 7.5t13 35.5q0 88 -53.5 152.5t-130.5 64.5q-75 0 -121.5 -60.5t-46.5 -160.5z" />
<glyph unicode="f" horiz-adv-x="840" d="M57 0v72q72 4 104.5 36.5t40 93.5t7.5 201v428h-135v87h8q50 0 74 9t34 29t13 42.5t10 99.5q16 144 83 246t177 156t250 54q109 0 176.5 -48t67.5 -120q0 -56 -44.5 -89t-129.5 -37q-13 85 -52 132.5t-92 47.5q-50 0 -81 -40t-31 -112q0 -27 7.5 -89t12.5 -131.5 t6 -117.5l275 4v-129l-275 6v-440q0 -137 9.5 -195.5t48.5 -89t129 -34.5v-72q-153 5 -363 51q-187 -46 -330 -51z" />
<glyph unicode="g" horiz-adv-x="1233" d="M47 -354q0 74 40 125t122 82t199 38v21q-112 10 -173 55.5t-61 116.5q0 67 63 116t177 62v10q-73 16 -131 47t-100 77t-63.5 105t-21.5 122q0 116 57 205t165.5 138.5t254.5 49.5q85 0 143.5 -11t128 -29t97.5 -18q79 0 293 41l-27 -125q-8 -35 -39 -48t-94 -13h-41 q49 -82 49 -172q0 -167 -120 -273t-332 -122q-19 -1 -54.5 -2t-63 -7.5t-43 -21t-15.5 -43.5q0 -36 29.5 -54t77 -26t157.5 -20q126 -12 216 -33.5t152.5 -58t92.5 -90.5t30 -134q0 -82 -45.5 -155t-128.5 -125.5t-200.5 -81.5t-253.5 -29q-173 0 -292.5 34.5t-182 98.5 t-62.5 148zM322 -350q0 -83 73 -135t201 -52q97 0 167.5 25t108 69t37.5 101q0 84 -78.5 130t-222.5 46q-136 0 -211 -50t-75 -134zM436 659q0 -101 20 -173.5t58.5 -109t93.5 -36.5q76 0 117 65.5t41 194.5q0 324 -166 324q-83 0 -123.5 -65t-40.5 -200z" />
<glyph unicode="h" horiz-adv-x="1456" d="M53 0v72q72 4 104.5 36.5t40 93.5t7.5 201v723q0 123 -7 175.5t-35.5 78t-92.5 25.5h-17v72q117 12 201 12q65 0 139 -6q53 50 121 88l66 -37q-21 -149 -21 -420v-256q43 79 129 122.5t205 43.5q208 0 300.5 -120t92.5 -372v-161q0 -117 8 -175.5t40 -88t102 -35.5v-72 q-138 0 -312 47q-118 -39 -219 -47q19 152 19 489q0 139 -13 221t-51 122t-115 40q-95 0 -140.5 -79.5t-45.5 -241.5v-164q0 -101 4 -151.5t18 -85.5t45 -54.5t85 -23.5v-72q-169 6 -332 51q-184 -46 -326 -51z" />
<glyph unicode="i" horiz-adv-x="782" d="M57 0v72q82 4 117 34t44 89t9 194v211q0 116 -7 165t-34.5 73t-91.5 24h-12v70q145 22 242 22q43 0 90 -2q56 45 125 82l63 -39q-10 -59 -14 -142t-4 -167v-321q0 -83 4.5 -134.5t20 -85t49 -50.5t94.5 -23v-72q-173 3 -349 51q-183 -48 -346 -51zM293 1321 q0 50 33.5 83.5t83.5 33.5q51 0 83.5 -34t32.5 -83q0 -48 -32.5 -82.5t-83.5 -34.5q-49 0 -83 34t-34 83z" />
<glyph unicode="j" horiz-adv-x="754" d="M41 -578q71 46 104 120t41.5 174.5t8.5 269.5v614q0 108 -7 161.5t-35 77t-92 23.5h-12v70q157 24 248 24q43 0 88 -2q58 46 121 80l65 -39q-20 -122 -20 -309v-670q0 -195 -37.5 -314t-139.5 -198t-304 -135zM256 1321q0 50 33.5 83.5t83.5 33.5q51 0 83.5 -34t32.5 -83 q0 -48 -32.5 -82.5t-83.5 -34.5q-49 0 -83 34t-34 83z" />
<glyph unicode="k" horiz-adv-x="1391" d="M53 0v72q72 4 104.5 36.5t40 93.5t7.5 201v705q0 129 -6.5 185t-35.5 84t-95 28h-15v72q117 12 201 12q65 0 139 -6q53 50 121 88l66 -37q-21 -149 -21 -420v-727q0 -101 4 -151.5t18 -85.5t45 -54.5t85 -23.5v-72q-169 6 -332 51q-184 -46 -326 -51zM584 614l315 306 q39 38 62 53.5t47 15.5q43 0 96 -35q124 28 239 37v-71q-236 -26 -436 -172q104 -218 199 -371.5t175 -228.5t149 -76v-72q-140 -18 -205 -18q-119 0 -202.5 38.5t-152.5 126.5q-18 23 -60.5 94t-96.5 163.5t-129 209.5z" />
<glyph unicode="l" horiz-adv-x="758" d="M35 0v72q61 3 96.5 20.5t50.5 53.5t19 86.5t4 156.5v748q0 119 -7 169.5t-36.5 74.5t-95.5 24h-31v72q126 12 215 12q60 0 143 -6q53 50 121 88l66 -37q-21 -149 -21 -420v-725q0 -133 9 -191.5t44.5 -89t116.5 -36.5v-72q-156 5 -350 51q-179 -42 -344 -51z" />
<glyph unicode="m" horiz-adv-x="2105" d="M57 0v72q72 4 104.5 36.5t40 93.5t7.5 201v181q0 123 -7.5 175.5t-35.5 77.5t-92 25h-17v72q124 22 275 22h39q72 56 116 78l54 -35q-13 -74 -17 -149l19 -8q47 90 132.5 139t194.5 49q122 0 204 -48.5t136 -154.5q50 97 139.5 150t200.5 53q206 0 296.5 -118t90.5 -369 v-172q0 -117 8.5 -175.5t39.5 -88t102 -35.5v-72q-135 3 -311 47q-122 -36 -215 -47q20 185 20 498q0 137 -12.5 218.5t-48.5 122t-105 40.5q-63 0 -101.5 -36.5t-56.5 -112t-18 -187.5v-158q0 -101 4 -151t18.5 -85.5t45.5 -54t84 -22.5v-72q-128 3 -295 47 q-103 -34 -215 -47q20 185 20 498q0 133 -12 215.5t-45.5 124t-98.5 41.5q-97 0 -141.5 -78t-44.5 -240v-158q0 -108 4 -161t17.5 -91t43.5 -56t87 -23v-72q-144 5 -328 51q-184 -46 -326 -51z" />
<glyph unicode="n" horiz-adv-x="1460" d="M57 0v72q72 4 104.5 36.5t40 93.5t7.5 201v181q0 123 -7.5 175.5t-35.5 77.5t-92 25h-17v72q151 24 262 24q17 0 28 -0.5t24 -1.5q72 56 116 78l54 -35q-13 -74 -17 -149l23 -8q33 62 83.5 104.5t121 65t149.5 22.5q207 0 298 -119.5t91 -371.5v-158q0 -101 4 -151 t18.5 -85.5t45.5 -54t84 -22.5v-72q-142 0 -316 47q-120 -38 -217 -47q10 78 15.5 200t5.5 289q0 149 -12.5 230.5t-51 122.5t-114.5 41q-189 0 -189 -322v-174q0 -101 4 -151.5t18 -85.5t45 -54.5t85 -23.5v-72q-164 6 -328 51q-187 -46 -330 -51z" />
<glyph unicode="o" horiz-adv-x="1358" d="M63 504q0 111 42.5 210t123 170.5t194 110.5t255.5 39q141 0 255.5 -39.5t194 -110.5t122 -168.5t42.5 -211.5q0 -151 -74 -271.5t-213.5 -189t-326.5 -68.5q-186 0 -326 68.5t-214.5 189t-74.5 271.5zM457 506q0 -216 56 -326t165 -110t166 109.5t57 326.5t-57 325.5 t-166 108.5q-110 0 -165.5 -109t-55.5 -325z" />
<glyph unicode="p" horiz-adv-x="1417" d="M39 -522q72 4 104 38t39.5 95.5t7.5 198.5v772q0 123 -7.5 175.5t-35.5 77.5t-92 25h-16v70q138 22 274 22h33q71 53 123 78l53 -35q-15 -95 -18 -149l24 -6q36 60 88 102.5t114.5 64t139.5 21.5q105 0 190.5 -35t147.5 -100t96.5 -157.5t34.5 -203.5q0 -159 -76 -283 t-215.5 -193.5t-318.5 -69.5q-99 0 -184 26v-198q0 -108 5 -161t25 -91.5t63 -58t122 -25.5v-70q-170 5 -393 51q-188 -46 -328 -51v70zM545 160q73 -84 172 -84q80 0 135.5 42.5t84 129t28.5 211.5q0 129 -29 218.5t-82.5 136t-122.5 46.5q-102 0 -144 -77t-42 -242v-381z " />
<glyph unicode="q" horiz-adv-x="1380" d="M74 459q0 129 44 233.5t127 178.5t204.5 114.5t271.5 40.5q193 0 348 -70q40 51 80 82l100 -16q-24 -150 -24 -379v-844q0 -98 4.5 -148.5t21.5 -85.5t55 -56.5t105 -30.5v-70q-146 8 -364 51q-191 -48 -349 -51v70q80 1 116 31t45 90t9 196v307q-54 -61 -137.5 -93 t-191.5 -32q-139 0 -244.5 60t-163 169.5t-57.5 252.5zM444 563q0 -196 78 -311t205 -115q97 0 143 78v317q1 53 1.5 95t0.5 96q0 130 -27 172.5t-126 42.5q-127 0 -201 -97.5t-74 -277.5z" />
<glyph unicode="r" horiz-adv-x="1006" d="M57 0v72q72 4 104.5 36.5t40 93.5t7.5 201v181q0 123 -7.5 175.5t-35.5 77.5t-92 25h-17v70q95 18 293 22q81 55 123 78l53 -35q-19 -113 -22 -229l26 -6q39 131 110.5 198.5t168.5 67.5q51 0 92 -19t63.5 -52t22.5 -74q0 -49 -33 -98t-96 -89q-56 97 -151 97 q-78 0 -111 -63t-33 -204v-104q0 -147 10 -210.5t54.5 -98t146.5 -41.5v-72q-192 6 -387 51q-179 -42 -330 -51z" />
<glyph unicode="s" horiz-adv-x="1110" d="M117 113q0 26 30 71q-22 104 -22 185h98q8 -95 45 -161.5t99 -101t141 -34.5q84 0 132 37t48 98q0 41 -19.5 68t-52.5 45t-89.5 39t-118.5 44q-148 59 -214.5 132t-66.5 182q0 98 54.5 168t162 106.5t258.5 36.5q108 0 192.5 -17t131.5 -46.5t47 -63.5q0 -31 -29 -72 q18 -67 21 -139h-88q-20 80 -57 134.5t-91.5 82t-120.5 27.5q-71 0 -112 -32t-41 -83q0 -43 24 -70.5t72 -50t127 -51.5q126 -49 198.5 -90.5t111 -100t38.5 -143.5q0 -156 -134.5 -243.5t-383.5 -87.5q-184 0 -287.5 36.5t-103.5 94.5z" />
<glyph unicode="t" horiz-adv-x="891" d="M70 831v87q144 16 222 96t95 229h162v-293l239 4v-129l-239 6v-444q0 -130 38.5 -192t125.5 -62q78 0 153 66l43 -72q-148 -145 -360 -145q-117 0 -189 32t-109.5 94.5t-50 153.5t-12.5 219v350h-118z" />
<glyph unicode="u" horiz-adv-x="1450" d="M41 852v70q150 24 311 24q57 47 127 84l66 -39q-17 -116 -17 -389v-110q0 -132 14 -209t50.5 -116.5t103.5 -39.5q94 0 145.5 77.5t51.5 227.5v154q0 120 -7 171t-32.5 76t-87.5 27v72q129 22 274 22h35q57 47 127 84l66 -37q-23 -150 -23 -311v-235q0 -102 13 -169.5 t43.5 -99.5t82.5 -32q4 0 46 4l12 -78q-121 -33 -305 -33h-37q-62 -32 -105 -65l-67 38q-19 61 -19 158q-29 -63 -83.5 -108t-131.5 -69t-174 -24q-106 0 -173 30t-106.5 90t-56 151.5t-16.5 214.5v131q0 113 -7 161t-32.5 71.5t-87.5 25.5z" />
<glyph unicode="v" horiz-adv-x="1305" d="M-18 924v67q164 0 331 -51q173 48 326 51v-69q-46 -8 -66 -27.5t-20 -56.5q0 -41 44 -154t175 -422q91 222 133.5 347.5t42.5 181.5q0 63 -29.5 93t-97.5 38v69q136 -3 260 -43q107 33 242 43v-67q-76 -3 -151 -103t-162.5 -291.5t-225.5 -529.5l-108 27l-154 -35 q-135 330 -229 531t-167.5 301t-135.5 100h-8z" />
<glyph unicode="w" horiz-adv-x="1862" d="M-25 924v67q182 -6 324 -51q141 42 291 51v-67q-32 -9 -46 -26t-14 -48q0 -46 45 -186.5t140 -374.5q111 294 155 418q-48 121 -77.5 167t-83.5 50v67q143 -6 295 -51q124 42 264 51v-67q-35 -7 -51.5 -23.5t-16.5 -48.5q0 -34 19.5 -104t52.5 -164t104 -289 q85 212 122.5 325t37.5 177q0 121 -113 127v67q120 -6 242 -43q96 33 223 43v-67q-65 -10 -121.5 -71t-115 -178.5t-93.5 -209t-176 -465.5l-88 18l-153 -24q-89 271 -213 575q-123 -311 -209 -569l-88 18l-152 -24q-102 258 -169 428.5t-119.5 280.5t-103 165.5 t-110.5 55.5h-2z" />
<glyph unicode="x" horiz-adv-x="1223" d="M10 0v72q107 13 179 67t163 168l113 144l-236 319q-53 74 -99 111t-101 43v67q168 -6 307 -53q174 48 305 53v-67q-63 -9 -63 -52q0 -34 47 -100l86 -121l55 80q63 91 63 146q0 41 -71 47v67q116 -6 225 -39q112 36 211 39v-67q-55 -6 -100 -27t-87 -58.5t-81 -85 t-88 -114.5l-64 -82l225 -307q34 -47 66 -83t73 -60.5t99 -34.5v-72q-166 6 -334 49q-194 -49 -299 -49v72q72 3 72 43q0 29 -39 84l-111 159l-82 -112q-36 -52 -36 -103q0 -35 21.5 -51t70.5 -20v-72q-112 3 -246 41q-129 -35 -244 -41z" />
<glyph unicode="y" horiz-adv-x="1210" d="M-35 924v67q171 -6 314 -53q138 44 317 53v-67q-82 -6 -82 -78q0 -37 29.5 -124t89.5 -206l92 -184l88 211q61 144 61 235q0 137 -124 146v67q130 -3 276 -41q119 35 225 41v-67q-74 -1 -137 -75.5t-128.5 -209.5t-180.5 -403q-124 -286 -180 -409t-124 -230t-142 -160 t-171 -53q-67 0 -108 34t-41 86q0 71 45 119q58 -39 119 -39q74 0 132 38t110 117.5t104 197.5q-11 30 -35 85t-43 92.5t-36.5 72.5l-28.5 57l-156 311q-71 140 -111 210.5t-82 112.5t-92 46z" />
<glyph unicode="z" horiz-adv-x="1165" d="M76 0v104q158 201 248 318t177 240.5t158 240.5h-47q-136 0 -218.5 -16t-128.5 -59.5t-64 -129.5h-88q16 98 57 176q-18 31 -18 50q0 40 19.5 50.5t72.5 10.5h51q30 0 75.5 -0.5t100.5 -1t184 -0.5q252 0 416 8v-96q-137 -173 -230 -296.5t-185 -255t-169 -253.5h148 q129 0 214.5 23.5t137 76t72.5 140.5h90q-15 -105 -68 -207q25 -45 25 -68q0 -34 -26 -44.5t-85 -10.5q-50 0 -123 1.5t-148 2.5t-134 1.5t-184 0.5q-165 0 -330 -6z" />
<glyph unicode="{" horiz-adv-x="1024" d="M178 596v80q108 11 163.5 41.5t77 92t21.5 173.5v186q0 101 20 167t65.5 105.5t121 57t193.5 17.5h12v-66q-61 -1 -99 -16t-58.5 -45t-28 -78.5t-7.5 -122.5v-131q0 -138 -16 -217.5t-65 -129.5t-154 -75q104 -25 153.5 -74t65.5 -129.5t16 -216.5v-131 q0 -100 14.5 -154.5t56.5 -81.5t122 -28v-64h-12q-118 0 -193.5 17.5t-121 57t-65.5 105.5t-20 166v187q0 112 -21.5 173t-78.5 92.5t-162 41.5z" />
<glyph unicode="|" horiz-adv-x="1024" d="M393 -483v2048h240v-2048h-240z" />
<glyph unicode="}" horiz-adv-x="1024" d="M172 -180q118 3 155.5 59t37.5 205v131q0 99 8.5 170t32 119.5t71 80.5t123.5 50q-80 21 -125 53t-69 80.5t-32.5 119.5t-8.5 169v131q0 74 -7.5 122.5t-28 78.5t-57.5 44.5t-100 16.5v66h12q119 0 194.5 -17.5t121.5 -57.5t65 -105.5t19 -166.5v-186q0 -112 21.5 -173.5 t77 -92t163.5 -41.5v-80q-105 -10 -162 -41.5t-78.5 -92.5t-21.5 -173v-187q0 -100 -19 -165.5t-65 -105.5t-121.5 -57.5t-194.5 -17.5h-12v64z" />
<glyph unicode="~" horiz-adv-x="1706" d="M178 401v254q221 144 387 144q78 0 148 -16t147 -42q33 -11 92.5 -31.5t110.5 -31t96 -10.5q57 0 116 16.5t124.5 51.5t130.5 83v-254q-199 -137 -377 -137q-94 0 -172 29q-140 50 -234.5 76t-185.5 26q-162 0 -383 -158z" />
<glyph unicode="&#xad;" horiz-adv-x="758" d="M100 365v321q161 -8 279 -8q134 0 278 8v-321q-163 8 -278 8q-102 0 -279 -8z" />
<glyph unicode="&#xc0;" horiz-adv-x="1612" d="M-82 0v72q74 3 129.5 47.5t103.5 127.5t92.5 190t139.5 341l297 727l151 -24l154 24l293 -739q25 -64 99.5 -253t117 -272.5t88.5 -126t105 -42.5h6v-72q-198 6 -389 57q-199 -54 -371 -57v72q75 6 109 29t34 73q0 29 -18.5 94t-59.5 168l-36 96q-109 3 -248 3 q-129 0 -252 -3l-39 -96q-39 -97 -58.5 -173t-19.5 -99q0 -43 29 -64t98 -30v-70q-144 3 -278 49q-141 -43 -277 -49zM506 645q74 -2 211 -2t205 2q-16 48 -69 192.5t-130 346.5q-125 -284 -217 -539zM680 1831q0 34 22 55t54 21q44 0 104 -66l197 -203h-80l-227 113 q-36 18 -53 36.5t-17 43.5z" />
<glyph unicode="&#xc1;" horiz-adv-x="1612" d="M-82 0v72q74 3 129.5 47.5t103.5 127.5t92.5 190t139.5 341l297 727l151 -24l154 24l293 -739q25 -64 99.5 -253t117 -272.5t88.5 -126t105 -42.5h6v-72q-198 6 -389 57q-199 -54 -371 -57v72q75 6 109 29t34 73q0 29 -18.5 94t-59.5 168l-36 96q-109 3 -248 3 q-129 0 -252 -3l-39 -96q-39 -97 -58.5 -173t-19.5 -99q0 -43 29 -64t98 -30v-70q-144 3 -278 49q-141 -43 -277 -49zM506 645q74 -2 211 -2t205 2q-16 48 -69 192.5t-130 346.5q-125 -284 -217 -539zM709 1624l194 205q59 65 105 65q31 0 53 -22t22 -53q0 -48 -69 -80 l-226 -115h-79z" />
<glyph unicode="&#xc2;" horiz-adv-x="1612" d="M-82 0v72q74 3 129.5 47.5t103.5 127.5t92.5 190t139.5 341l297 727l151 -24l154 24l293 -739q25 -64 99.5 -253t117 -272.5t88.5 -126t105 -42.5h6v-72q-198 6 -389 57q-199 -54 -371 -57v72q75 6 109 29t34 73q0 29 -18.5 94t-59.5 168l-36 96q-109 3 -248 3 q-129 0 -252 -3l-39 -96q-39 -97 -58.5 -173t-19.5 -99q0 -43 29 -64t98 -30v-70q-144 3 -278 49q-141 -43 -277 -49zM506 645q74 -2 211 -2t205 2q-16 48 -69 192.5t-130 346.5q-125 -284 -217 -539zM592 1591l172 258h135l172 -258h-74l-166 119l-165 -119h-74z" />
<glyph unicode="&#xc3;" horiz-adv-x="1612" d="M-82 0v72q74 3 129.5 47.5t103.5 127.5t92.5 190t139.5 341l297 727l151 -24l154 24l293 -739q25 -64 99.5 -253t117 -272.5t88.5 -126t105 -42.5h6v-72q-198 6 -389 57q-199 -54 -371 -57v72q75 6 109 29t34 73q0 29 -18.5 94t-59.5 168l-36 96q-109 3 -248 3 q-129 0 -252 -3l-39 -96q-39 -97 -58.5 -173t-19.5 -99q0 -43 29 -64t98 -30v-70q-144 3 -278 49q-141 -43 -277 -49zM506 645q74 -2 211 -2t205 2q-16 48 -69 192.5t-130 346.5q-125 -284 -217 -539zM647 1618q34 182 160 182q35 0 53 -4l84 -20q24 -4 29 -4q25 0 40 13.5 t25 47.5l49 2q-18 -94 -56 -138t-103 -44q-27 0 -41 4l-80 22q-19 4 -37 4q-53 0 -65 -65h-58z" />
<glyph unicode="&#xc8;" horiz-adv-x="1401" d="M47 0v70q94 10 137 54t54.5 124t11.5 241v500q0 163 -11.5 245.5t-54.5 129t-137 59.5v70q217 -12 363 -57q129 33 283.5 45t377.5 12q86 0 117 -10.5t31 -44.5q0 -33 -33 -74q22 -110 22 -188q0 -14 -0.5 -22.5t-1.5 -18.5h-82q-5 91 -32.5 137.5t-85 63t-162.5 16.5 h-201q-8 -184 -8 -295v-221h170q115 0 163.5 30t55.5 123h88q-6 -115 -39 -217q36 -123 39 -221h-88q-3 67 -24 98.5t-65 42t-130 10.5h-170v-299q0 -114 16 -165.5t68.5 -69.5t171.5 -18q122 0 194 20.5t110.5 75.5t53.5 160h94q-12 -131 -57 -250q25 -43 25 -70 q0 -55 -61 -69.5t-228 -14.5q-110 0 -176.5 1t-147.5 7t-146.5 16t-141.5 31q-182 -48 -363 -57zM457 1819q0 31 22 53t53 22q46 0 105 -65l197 -203h-80l-228 113q-69 32 -69 80z" />
<glyph unicode="&#xc9;" horiz-adv-x="1401" d="M47 0v70q94 10 137 54t54.5 124t11.5 241v500q0 163 -11.5 245.5t-54.5 129t-137 59.5v70q217 -12 363 -57q129 33 283.5 45t377.5 12q86 0 117 -10.5t31 -44.5q0 -33 -33 -74q22 -110 22 -188q0 -14 -0.5 -22.5t-1.5 -18.5h-82q-5 91 -32.5 137.5t-85 63t-162.5 16.5 h-201q-8 -184 -8 -295v-221h170q115 0 163.5 30t55.5 123h88q-6 -115 -39 -217q36 -123 39 -221h-88q-3 67 -24 98.5t-65 42t-130 10.5h-170v-299q0 -114 16 -165.5t68.5 -69.5t171.5 -18q122 0 194 20.5t110.5 75.5t53.5 160h94q-12 -131 -57 -250q25 -43 25 -70 q0 -55 -61 -69.5t-228 -14.5q-110 0 -176.5 1t-147.5 7t-146.5 16t-141.5 31q-182 -48 -363 -57zM588 1622l194 205q59 65 105 65q33 0 54.5 -21.5t21.5 -53.5q0 -47 -70 -80l-225 -115h-80z" />
<glyph unicode="&#xca;" horiz-adv-x="1401" d="M47 0v70q94 10 137 54t54.5 124t11.5 241v500q0 163 -11.5 245.5t-54.5 129t-137 59.5v70q217 -12 363 -57q129 33 283.5 45t377.5 12q86 0 117 -10.5t31 -44.5q0 -33 -33 -74q22 -110 22 -188q0 -14 -0.5 -22.5t-1.5 -18.5h-82q-5 91 -32.5 137.5t-85 63t-162.5 16.5 h-201q-8 -184 -8 -295v-221h170q115 0 163.5 30t55.5 123h88q-6 -115 -39 -217q36 -123 39 -221h-88q-3 67 -24 98.5t-65 42t-130 10.5h-170v-299q0 -114 16 -165.5t68.5 -69.5t171.5 -18q122 0 194 20.5t110.5 75.5t53.5 160h94q-12 -131 -57 -250q25 -43 25 -70 q0 -55 -61 -69.5t-228 -14.5q-110 0 -176.5 1t-147.5 7t-146.5 16t-141.5 31q-182 -48 -363 -57zM438 1593l172 258h135l173 -258h-74l-166 119l-166 -119h-74z" />
<glyph unicode="&#xcc;" horiz-adv-x="924" d="M68 0v70q93 10 136 54t54.5 124t11.5 241v500q0 163 -11.5 245.5t-55 129t-135.5 59.5v70q150 -8 393 -57q241 49 397 57v-70q-70 -7 -112 -34t-62 -78.5t-25.5 -124.5t-5.5 -195v-471q0 -118 5 -195t25.5 -130.5t61 -84t113.5 -40.5v-70q-161 5 -395 57 q-243 -52 -395 -57zM266 1819q0 32 22.5 53.5t53.5 21.5q47 0 104 -65l197 -203h-80l-227 113q-37 18 -53.5 36.5t-16.5 43.5z" />
<glyph unicode="&#xcd;" horiz-adv-x="924" d="M68 0v70q93 10 136 54t54.5 124t11.5 241v500q0 163 -11.5 245.5t-55 129t-135.5 59.5v70q150 -8 393 -57q241 49 397 57v-70q-70 -7 -112 -34t-62 -78.5t-25.5 -124.5t-5.5 -195v-471q0 -118 5 -195t25.5 -130.5t61 -84t113.5 -40.5v-70q-161 5 -395 57 q-243 -52 -395 -57zM315 1622l195 205q30 33 54 49t50 16q33 0 54.5 -21.5t21.5 -53.5q0 -48 -69 -80l-226 -115h-80z" />
<glyph unicode="&#xd2;" d="M72 748q0 162 62 304.5t175 246.5t269 161.5t344 57.5q189 0 345.5 -58t269 -161.5t174 -244.5t61.5 -306q0 -161 -61 -304.5t-175.5 -248.5t-271.5 -162.5t-342 -57.5q-186 0 -343.5 58t-271 163t-174.5 248t-61 304zM522 748q0 -216 48 -369t138.5 -230t213.5 -77 t213.5 77t139 229t48.5 370q0 169 -27.5 293t-78.5 208t-126 128t-169 44q-125 0 -214.5 -76.5t-137.5 -229t-48 -367.5zM745 1823q0 32 22.5 53.5t53.5 21.5q46 0 105 -65l196 -203h-80l-227 113q-37 18 -53.5 36.5t-16.5 43.5z" />
<glyph unicode="&#xd3;" d="M72 748q0 162 62 304.5t175 246.5t269 161.5t344 57.5q189 0 345.5 -58t269 -161.5t174 -244.5t61.5 -306q0 -161 -61 -304.5t-175.5 -248.5t-271.5 -162.5t-342 -57.5q-186 0 -343.5 58t-271 163t-174.5 248t-61 304zM522 748q0 -216 48 -369t138.5 -230t213.5 -77 t213.5 77t139 229t48.5 370q0 169 -27.5 293t-78.5 208t-126 128t-169 44q-125 0 -214.5 -76.5t-137.5 -229t-48 -367.5zM764 1636l194 205q60 66 105 66q19 0 37.5 -10t28.5 -28.5t10 -37.5q0 -46 -70 -80l-225 -115h-80z" />
<glyph unicode="&#xd4;" d="M72 748q0 162 62 304.5t175 246.5t269 161.5t344 57.5q189 0 345.5 -58t269 -161.5t174 -244.5t61.5 -306q0 -161 -61 -304.5t-175.5 -248.5t-271.5 -162.5t-342 -57.5q-186 0 -343.5 58t-271 163t-174.5 248t-61 304zM522 748q0 -216 48 -369t138.5 -230t213.5 -77 t213.5 77t139 229t48.5 370q0 169 -27.5 293t-78.5 208t-126 128t-169 44q-125 0 -214.5 -76.5t-137.5 -229t-48 -367.5zM688 1593l172 258h135l172 -258h-73l-166 119l-166 -119h-74z" />
<glyph unicode="&#xd5;" d="M72 748q0 162 62 304.5t175 246.5t269 161.5t344 57.5q189 0 345.5 -58t269 -161.5t174 -244.5t61.5 -306q0 -161 -61 -304.5t-175.5 -248.5t-271.5 -162.5t-342 -57.5q-186 0 -343.5 58t-271 163t-174.5 248t-61 304zM522 748q0 -216 48 -369t138.5 -230t213.5 -77 t213.5 77t139 229t48.5 370q0 169 -27.5 293t-78.5 208t-126 128t-169 44q-125 0 -214.5 -76.5t-137.5 -229t-48 -367.5zM702 1620q34 182 160 182q35 0 53 -4l84 -20q26 -4 29 -4q48 0 66 61l49 2q-18 -93 -56.5 -137.5t-103.5 -44.5q-27 0 -41 4l-80 22q-18 5 -37 5 q-53 0 -65 -66h-58z" />
<glyph unicode="&#xd9;" horiz-adv-x="1835" d="M61 1421v72q136 -5 375 -57q221 52 375 57v-72q-87 -7 -128 -50t-51.5 -121.5t-10.5 -237.5v-107q0 -201 13 -339.5t42 -213.5q43 -102 130 -156.5t210 -54.5q241 0 342 191q40 74 52.5 190t12.5 314v200q0 154 -12 226t-57.5 110.5t-147.5 48.5v72q130 -6 297 -45 q176 38 283 45v-72q-88 -4 -130.5 -40t-54.5 -103.5t-12 -194.5v-325q0 -137 -9.5 -232t-37 -178.5t-76.5 -148.5q-54 -72 -135.5 -123t-190 -76t-233.5 -25q-317 0 -485 152q-72 64 -111.5 151.5t-54 196t-14.5 262.5v330q0 110 -4 166t-20.5 97.5t-53.5 64t-103 26.5z M707 1808q0 33 21.5 54.5t53.5 21.5q46 0 105 -65l196 -203h-79l-228 113q-69 32 -69 79z" />
<glyph unicode="&#xda;" horiz-adv-x="1835" d="M61 1421v72q136 -5 375 -57q221 52 375 57v-72q-87 -7 -128 -50t-51.5 -121.5t-10.5 -237.5v-107q0 -201 13 -339.5t42 -213.5q43 -102 130 -156.5t210 -54.5q241 0 342 191q40 74 52.5 190t12.5 314v200q0 154 -12 226t-57.5 110.5t-147.5 48.5v72q130 -6 297 -45 q176 38 283 45v-72q-88 -4 -130.5 -40t-54.5 -103.5t-12 -194.5v-325q0 -137 -9.5 -232t-37 -178.5t-76.5 -148.5q-54 -72 -135.5 -123t-190 -76t-233.5 -25q-317 0 -485 152q-72 64 -111.5 151.5t-54 196t-14.5 262.5v330q0 110 -4 166t-20.5 97.5t-53.5 64t-103 26.5z M961 1622l194 205q59 65 105 65q31 0 53 -22t22 -53q0 -48 -69 -80l-226 -115h-79z" />
<glyph unicode="&#xdd;" horiz-adv-x="1526" d="M-25 1421v72q184 -9 363 -51q71 20 155.5 32t188.5 19v-72q-55 -8 -78.5 -23t-23.5 -48q0 -86 303 -557q87 148 145 253t86.5 174t28.5 111q0 84 -129 90v72q151 -6 299 -45q128 35 268 45v-72q-69 -7 -120 -44t-95 -94t-127 -181q-171 -265 -213 -361q-37 -87 -37 -215 v-20q0 -165 14 -250.5t62.5 -131t148.5 -54.5v-70q-167 5 -413 57q-245 -52 -416 -57v70q88 5 136.5 38t68.5 101.5t20 183.5v72q0 66 -5 106.5t-25 79.5q-22 49 -84.5 146.5t-161.5 240.5q-109 159 -159.5 227t-100.5 111.5t-99 44.5zM774 1612l195 205q32 36 54 50.5 t50 14.5q19 0 37.5 -10t28.5 -28.5t10 -37.5q0 -46 -70 -80l-225 -114h-80z" />
<glyph unicode="&#xe0;" horiz-adv-x="1270" d="M76 231q0 68 28.5 118.5t84 85t141.5 60t194 44.5q94 17 134.5 30t57.5 40t17 83q0 90 -10 142.5t-39.5 79t-87.5 26.5q-63 0 -103 -39t-40 -102q0 -54 26 -117q-70 -37 -164 -37q-62 0 -99.5 35t-37.5 94q0 70 56 128.5t162.5 93t246.5 34.5q160 0 255.5 -45.5t138 -140 t42.5 -246.5v-203q0 -87 5.5 -134.5t24 -71t56.5 -23.5q23 0 64 16l28 -55q-56 -66 -131 -102.5t-143 -36.5q-181 0 -215 172q-53 -81 -154 -128.5t-227 -47.5q-146 0 -228.5 66.5t-82.5 180.5zM444 281q0 -40 16.5 -71t46 -48t68.5 -17q154 0 154 199v156 q-118 -35 -170 -56t-83.5 -58.5t-31.5 -104.5zM469 1325q0 34 22 55t54 21q44 0 104 -66l197 -202h-80l-227 112q-38 20 -54 37.5t-16 42.5z" />
<glyph unicode="&#xe1;" horiz-adv-x="1270" d="M76 231q0 68 28.5 118.5t84 85t141.5 60t194 44.5q94 17 134.5 30t57.5 40t17 83q0 90 -10 142.5t-39.5 79t-87.5 26.5q-63 0 -103 -39t-40 -102q0 -54 26 -117q-70 -37 -164 -37q-62 0 -99.5 35t-37.5 94q0 70 56 128.5t162.5 93t246.5 34.5q160 0 255.5 -45.5t138 -140 t42.5 -246.5v-203q0 -87 5.5 -134.5t24 -71t56.5 -23.5q23 0 64 16l28 -55q-56 -66 -131 -102.5t-143 -36.5q-181 0 -215 172q-53 -81 -154 -128.5t-227 -47.5q-146 0 -228.5 66.5t-82.5 180.5zM444 281q0 -40 16.5 -71t46 -48t68.5 -17q154 0 154 199v156 q-118 -35 -170 -56t-83.5 -58.5t-31.5 -104.5zM518 1128l195 205q60 66 104 66q19 0 37.5 -10t28.5 -28.5t10 -37.5q0 -46 -70 -80l-225 -115h-80z" />
<glyph unicode="&#xe2;" horiz-adv-x="1270" d="M76 231q0 68 28.5 118.5t84 85t141.5 60t194 44.5q94 17 134.5 30t57.5 40t17 83q0 90 -10 142.5t-39.5 79t-87.5 26.5q-63 0 -103 -39t-40 -102q0 -54 26 -117q-70 -37 -164 -37q-62 0 -99.5 35t-37.5 94q0 70 56 128.5t162.5 93t246.5 34.5q160 0 255.5 -45.5t138 -140 t42.5 -246.5v-203q0 -87 5.5 -134.5t24 -71t56.5 -23.5q23 0 64 16l28 -55q-56 -66 -131 -102.5t-143 -36.5q-181 0 -215 172q-53 -81 -154 -128.5t-227 -47.5q-146 0 -228.5 66.5t-82.5 180.5zM383 1122l172 258h135l172 -258h-74l-165 119l-166 -119h-74zM444 281 q0 -40 16.5 -71t46 -48t68.5 -17q154 0 154 199v156q-118 -35 -170 -56t-83.5 -58.5t-31.5 -104.5z" />
<glyph unicode="&#xe3;" horiz-adv-x="1270" d="M76 231q0 68 28.5 118.5t84 85t141.5 60t194 44.5q94 17 134.5 30t57.5 40t17 83q0 90 -10 142.5t-39.5 79t-87.5 26.5q-63 0 -103 -39t-40 -102q0 -54 26 -117q-70 -37 -164 -37q-62 0 -99.5 35t-37.5 94q0 70 56 128.5t162.5 93t246.5 34.5q160 0 255.5 -45.5t138 -140 t42.5 -246.5v-203q0 -87 5.5 -134.5t24 -71t56.5 -23.5q23 0 64 16l28 -55q-56 -66 -131 -102.5t-143 -36.5q-181 0 -215 172q-53 -81 -154 -128.5t-227 -47.5q-146 0 -228.5 66.5t-82.5 180.5zM416 1143q33 182 159 182q35 0 54 -4l84 -21q24 -4 28 -4q25 0 41 15t25 47 l49 2q-18 -93 -56.5 -137.5t-103.5 -44.5q-26 0 -41 4l-80 22q-18 4 -36 4q-54 0 -66 -65h-57zM444 281q0 -40 16.5 -71t46 -48t68.5 -17q154 0 154 199v156q-118 -35 -170 -56t-83.5 -58.5t-31.5 -104.5z" />
<glyph unicode="&#xe8;" horiz-adv-x="1165" d="M63 485q0 156 74 282t204.5 196.5t291.5 70.5q134 0 240.5 -52t166.5 -140t60 -193q0 -21 -4 -61h-561q-42 0 -64.5 -6.5t-30.5 -22t-8 -45.5q0 -104 46.5 -191t130.5 -138.5t192 -51.5q77 0 155 28.5t140 82.5l34 -66q-78 -94 -213.5 -148.5t-306.5 -54.5 q-123 0 -223.5 36t-173 104t-111.5 162.5t-39 207.5zM399 1339q0 34 22 55t54 21q46 0 105 -65l196 -203h-80l-227 113q-70 33 -70 79zM422 717q1 -12 1.5 -21.5t0.5 -17.5h289q35 0 48 7.5t13 35.5q0 88 -53.5 152.5t-130.5 64.5q-75 0 -121.5 -60.5t-46.5 -160.5z" />
<glyph unicode="&#xe9;" horiz-adv-x="1165" d="M63 485q0 156 74 282t204.5 196.5t291.5 70.5q134 0 240.5 -52t166.5 -140t60 -193q0 -21 -4 -61h-561q-42 0 -64.5 -6.5t-30.5 -22t-8 -45.5q0 -104 46.5 -191t130.5 -138.5t192 -51.5q77 0 155 28.5t140 82.5l34 -66q-78 -94 -213.5 -148.5t-306.5 -54.5 q-123 0 -223.5 36t-173 104t-111.5 162.5t-39 207.5zM422 717q1 -12 1.5 -21.5t0.5 -17.5h289q35 0 48 7.5t13 35.5q0 88 -53.5 152.5t-130.5 64.5q-75 0 -121.5 -60.5t-46.5 -160.5zM428 1163l195 205q60 66 104 66q19 0 37.5 -10t28.5 -28.5t10 -37.5q0 -47 -70 -80 l-225 -115h-80z" />
<glyph unicode="&#xea;" horiz-adv-x="1165" d="M63 485q0 156 74 282t204.5 196.5t291.5 70.5q134 0 240.5 -52t166.5 -140t60 -193q0 -21 -4 -61h-561q-42 0 -64.5 -6.5t-30.5 -22t-8 -45.5q0 -104 46.5 -191t130.5 -138.5t192 -51.5q77 0 155 28.5t140 82.5l34 -66q-78 -94 -213.5 -148.5t-306.5 -54.5 q-123 0 -223.5 36t-173 104t-111.5 162.5t-39 207.5zM352 1118l172 258h135l172 -258h-73l-166 119l-166 -119h-74zM422 717q1 -12 1.5 -21.5t0.5 -17.5h289q35 0 48 7.5t13 35.5q0 88 -53.5 152.5t-130.5 64.5q-75 0 -121.5 -60.5t-46.5 -160.5z" />
<glyph unicode="&#xec;" horiz-adv-x="782" d="M57 0v72q82 4 117 34t44 89t9 194v211q0 116 -7 165t-34.5 73t-91.5 24h-12v70q145 22 242 22q43 0 90 -2q56 45 125 82l63 -39q-10 -59 -14 -142t-4 -167v-321q0 -83 4.5 -134.5t20 -85t49 -50.5t94.5 -23v-72q-173 3 -349 51q-183 -48 -346 -51zM246 1372q0 34 22 55 t54 21q44 0 104 -66l197 -202h-80l-228 112q-69 34 -69 80z" />
<glyph unicode="&#xed;" horiz-adv-x="782" d="M57 0v72q82 4 117 34t44 89t9 194v211q0 116 -7 165t-34.5 73t-91.5 24h-12v70q145 22 242 22q43 0 90 -2q56 45 125 82l63 -39q-10 -59 -14 -142t-4 -167v-321q0 -83 4.5 -134.5t20 -85t49 -50.5t94.5 -23v-72q-173 3 -349 51q-183 -48 -346 -51zM233 1176l195 204 q60 66 104 66q19 0 37.5 -10t28.5 -28.5t10 -37.5q0 -46 -69 -80l-226 -114h-80z" />
<glyph unicode="&#xf2;" horiz-adv-x="1358" d="M63 504q0 111 42.5 210t123 170.5t194 110.5t255.5 39q141 0 255.5 -39.5t194 -110.5t122 -168.5t42.5 -211.5q0 -151 -74 -271.5t-213.5 -189t-326.5 -68.5q-186 0 -326 68.5t-214.5 189t-74.5 271.5zM457 506q0 -216 56 -326t165 -110t166 109.5t57 326.5t-57 325.5 t-166 108.5q-110 0 -165.5 -109t-55.5 -325zM502 1339q0 34 22 55t54 21q45 0 104 -65l197 -203h-80l-228 113q-69 32 -69 79z" />
<glyph unicode="&#xf3;" horiz-adv-x="1358" d="M63 504q0 111 42.5 210t123 170.5t194 110.5t255.5 39q141 0 255.5 -39.5t194 -110.5t122 -168.5t42.5 -211.5q0 -151 -74 -271.5t-213.5 -189t-326.5 -68.5q-186 0 -326 68.5t-214.5 189t-74.5 271.5zM457 506q0 -216 56 -326t165 -110t166 109.5t57 326.5t-57 325.5 t-166 108.5q-110 0 -165.5 -109t-55.5 -325zM541 1153l194 205q59 65 105 65q31 0 53 -22t22 -53q0 -48 -69 -80l-225 -115h-80z" />
<glyph unicode="&#xf4;" horiz-adv-x="1358" d="M63 504q0 111 42.5 210t123 170.5t194 110.5t255.5 39q141 0 255.5 -39.5t194 -110.5t122 -168.5t42.5 -211.5q0 -151 -74 -271.5t-213.5 -189t-326.5 -68.5q-186 0 -326 68.5t-214.5 189t-74.5 271.5zM444 1116l172 258h136l172 -258h-74l-166 119l-166 -119h-74z M457 506q0 -216 56 -326t165 -110t166 109.5t57 326.5t-57 325.5t-166 108.5q-110 0 -165.5 -109t-55.5 -325z" />
<glyph unicode="&#xf5;" horiz-adv-x="1358" d="M63 504q0 111 42.5 210t123 170.5t194 110.5t255.5 39q141 0 255.5 -39.5t194 -110.5t122 -168.5t42.5 -211.5q0 -151 -74 -271.5t-213.5 -189t-326.5 -68.5q-186 0 -326 68.5t-214.5 189t-74.5 271.5zM457 506q0 -216 56 -326t165 -110t166 109.5t57 326.5t-57 325.5 t-166 108.5q-110 0 -165.5 -109t-55.5 -325zM479 1137q34 182 160 182q35 0 53 -4l84 -21q24 -4 29 -4q26 0 40.5 14t24.5 48l50 2q-18 -93 -57 -138t-103 -45q-27 0 -41 5l-80 22q-18 4 -37 4q-53 0 -65 -65h-58z" />
<glyph unicode="&#xf9;" horiz-adv-x="1450" d="M41 852v70q150 24 311 24q57 47 127 84l66 -39q-17 -116 -17 -389v-110q0 -132 14 -209t50.5 -116.5t103.5 -39.5q94 0 145.5 77.5t51.5 227.5v154q0 120 -7 171t-32.5 76t-87.5 27v72q129 22 274 22h35q57 47 127 84l66 -37q-23 -150 -23 -311v-235q0 -102 13 -169.5 t43.5 -99.5t82.5 -32q4 0 46 4l12 -78q-121 -33 -305 -33h-37q-62 -32 -105 -65l-67 38q-19 61 -19 158q-29 -63 -83.5 -108t-131.5 -69t-174 -24q-106 0 -173 30t-106.5 90t-56 151.5t-16.5 214.5v131q0 113 -7 161t-32.5 71.5t-87.5 25.5zM545 1333q0 34 22 55t54 21 q44 0 104 -66l197 -202h-80l-228 112q-69 34 -69 80z" />
<glyph unicode="&#xfa;" horiz-adv-x="1450" d="M41 852v70q150 24 311 24q57 47 127 84l66 -39q-17 -116 -17 -389v-110q0 -132 14 -209t50.5 -116.5t103.5 -39.5q94 0 145.5 77.5t51.5 227.5v154q0 120 -7 171t-32.5 76t-87.5 27v72q129 22 274 22h35q57 47 127 84l66 -37q-23 -150 -23 -311v-235q0 -102 13 -169.5 t43.5 -99.5t82.5 -32q4 0 46 4l12 -78q-121 -33 -305 -33h-37q-62 -32 -105 -65l-67 38q-19 61 -19 158q-29 -63 -83.5 -108t-131.5 -69t-174 -24q-106 0 -173 30t-106.5 90t-56 151.5t-16.5 214.5v131q0 113 -7 161t-32.5 71.5t-87.5 25.5zM645 1137l195 204q60 66 104 66 q19 0 37.5 -10t28.5 -28.5t10 -37.5q0 -46 -70 -80l-225 -114h-80z" />
<glyph unicode="&#xfd;" horiz-adv-x="1210" d="M-35 924v67q171 -6 314 -53q138 44 317 53v-67q-82 -6 -82 -78q0 -37 29.5 -124t89.5 -206l92 -184l88 211q61 144 61 235q0 137 -124 146v67q130 -3 276 -41q119 35 225 41v-67q-74 -1 -137 -75.5t-128.5 -209.5t-180.5 -403q-124 -286 -180 -409t-124 -230t-142 -160 t-171 -53q-67 0 -108 34t-41 86q0 71 45 119q58 -39 119 -39q74 0 132 38t110 117.5t104 197.5q-11 30 -35 85t-43 92.5t-36.5 72.5l-28.5 57l-156 311q-71 140 -111 210.5t-82 112.5t-92 46zM584 1130l194 205q60 66 105 66q32 0 53.5 -21.5t21.5 -54.5q0 -46 -69 -80 l-225 -115h-80z" />
<glyph unicode="&#x102;" horiz-adv-x="1612" d="M-82 0v72q74 3 129.5 47.5t103.5 127.5t92.5 190t139.5 341l297 727l151 -24l154 24l293 -739q25 -64 99.5 -253t117 -272.5t88.5 -126t105 -42.5h6v-72q-198 6 -389 57q-199 -54 -371 -57v72q75 6 109 29t34 73q0 29 -18.5 94t-59.5 168l-36 96q-109 3 -248 3 q-129 0 -252 -3l-39 -96q-39 -97 -58.5 -173t-19.5 -99q0 -43 29 -64t98 -30v-70q-144 3 -278 49q-141 -43 -277 -49zM506 645q74 -2 211 -2t205 2q-16 48 -69 192.5t-130 346.5q-125 -284 -217 -539zM621 1798h65q8 -29 27.5 -48t51 -27.5t81.5 -8.5q70 0 108 20t50 64h65 q-14 -103 -72 -158t-151 -55t-152 54.5t-73 158.5z" />
<glyph unicode="&#x103;" horiz-adv-x="1270" d="M76 231q0 68 28.5 118.5t84 85t141.5 60t194 44.5q94 17 134.5 30t57.5 40t17 83q0 90 -10 142.5t-39.5 79t-87.5 26.5q-63 0 -103 -39t-40 -102q0 -54 26 -117q-70 -37 -164 -37q-62 0 -99.5 35t-37.5 94q0 70 56 128.5t162.5 93t246.5 34.5q160 0 255.5 -45.5t138 -140 t42.5 -246.5v-203q0 -87 5.5 -134.5t24 -71t56.5 -23.5q23 0 64 16l28 -55q-56 -66 -131 -102.5t-143 -36.5q-181 0 -215 172q-53 -81 -154 -128.5t-227 -47.5q-146 0 -228.5 66.5t-82.5 180.5zM442 1329h66q13 -46 50 -65t110 -19q70 0 107.5 20t49.5 64h66 q-14 -103 -72 -158t-151 -55t-152 54.5t-74 158.5zM444 281q0 -40 16.5 -71t46 -48t68.5 -17q154 0 154 199v156q-118 -35 -170 -56t-83.5 -58.5t-31.5 -104.5z" />
<glyph unicode="&#x110;" horiz-adv-x="1972" d="M94 698v140l252 -7v177q0 129 -5 194t-24 112t-61.5 74.5t-112.5 34.5v70q229 -16 383 -57q94 31 210.5 47t244.5 16q218 0 390.5 -53.5t290.5 -154.5t178.5 -239.5t60.5 -306.5q0 -174 -62.5 -313.5t-183.5 -238.5t-295.5 -151t-398.5 -52q-83 0 -155 7t-147 23t-133 37 q-174 -45 -383 -57v72q93 10 136.5 53.5t55 123t11.5 240.5v216zM731 602q0 -220 2 -311t8 -113q15 -49 57 -70.5t126 -21.5q166 0 288 74t187 217t65 342q0 327 -150.5 505.5t-426.5 178.5q-57 0 -139 -14q-9 -86 -13 -224.5t-4 -273.5v-60l367 7v-140l-367 7v-103z" />
<glyph unicode="&#x128;" horiz-adv-x="924" d="M68 0v70q93 10 136 54t54.5 124t11.5 241v500q0 163 -11.5 245.5t-55 129t-135.5 59.5v70q150 -8 393 -57q241 49 397 57v-70q-70 -7 -112 -34t-62 -78.5t-25.5 -124.5t-5.5 -195v-471q0 -118 5 -195t25.5 -130.5t61 -84t113.5 -40.5v-70q-161 5 -395 57 q-243 -52 -395 -57zM254 1606q33 182 160 182q35 0 53 -4l84 -21q24 -4 29 -4q24 0 40 15t25 47l49 2q-18 -94 -56.5 -138.5t-102.5 -44.5q-27 0 -41 5l-80 22q-19 4 -37 4q-54 0 -66 -65h-57z" />
<glyph unicode="&#x129;" horiz-adv-x="782" d="M57 0v72q82 4 117 34t44 89t9 194v211q0 116 -7 165t-34.5 73t-91.5 24h-12v70q145 22 242 22q43 0 90 -2q56 45 125 82l63 -39q-10 -59 -14 -142t-4 -167v-321q0 -83 4.5 -134.5t20 -85t49 -50.5t94.5 -23v-72q-173 3 -349 51q-183 -48 -346 -51zM182 1169q18 93 57 138 t103 45q35 0 53 -4l84 -21q26 -4 29 -4q25 0 40 13.5t25 47.5l50 2q-18 -92 -57 -137t-103 -45q-27 0 -41 4l-80 23q-18 4 -37 4q-53 0 -65 -66h-58z" />
<glyph unicode="&#x168;" horiz-adv-x="1835" d="M61 1421v72q136 -5 375 -57q221 52 375 57v-72q-87 -7 -128 -50t-51.5 -121.5t-10.5 -237.5v-107q0 -201 13 -339.5t42 -213.5q43 -102 130 -156.5t210 -54.5q241 0 342 191q40 74 52.5 190t12.5 314v200q0 154 -12 226t-57.5 110.5t-147.5 48.5v72q130 -6 297 -45 q176 38 283 45v-72q-88 -4 -130.5 -40t-54.5 -103.5t-12 -194.5v-325q0 -137 -9.5 -232t-37 -178.5t-76.5 -148.5q-54 -72 -135.5 -123t-190 -76t-233.5 -25q-317 0 -485 152q-72 64 -111.5 151.5t-54 196t-14.5 262.5v330q0 110 -4 166t-20.5 97.5t-53.5 64t-103 26.5z M807 1606q33 182 160 182q34 0 53 -4l84 -21q24 -4 29 -4q24 0 40 15t25 47l49 2q-18 -94 -56.5 -138.5t-103.5 -44.5q-26 0 -40 5l-80 22q-19 4 -37 4q-54 0 -66 -65h-57z" />
<glyph unicode="&#x169;" horiz-adv-x="1450" d="M41 852v70q150 24 311 24q57 47 127 84l66 -39q-17 -116 -17 -389v-110q0 -132 14 -209t50.5 -116.5t103.5 -39.5q94 0 145.5 77.5t51.5 227.5v154q0 120 -7 171t-32.5 76t-87.5 27v72q129 22 274 22h35q57 47 127 84l66 -37q-23 -150 -23 -311v-235q0 -102 13 -169.5 t43.5 -99.5t82.5 -32q4 0 46 4l12 -78q-121 -33 -305 -33h-37q-62 -32 -105 -65l-67 38q-19 61 -19 158q-29 -63 -83.5 -108t-131.5 -69t-174 -24q-106 0 -173 30t-106.5 90t-56 151.5t-16.5 214.5v131q0 113 -7 161t-32.5 71.5t-87.5 25.5zM532 1151q34 182 160 182 q35 0 53 -4l84 -20q26 -4 29 -4q48 0 66 61l49 2q-18 -93 -56.5 -137.5t-103.5 -44.5q-27 0 -41 4l-80 22q-18 5 -37 5q-53 0 -65 -66h-58z" />
<glyph unicode="&#x1a0;" d="M72 748q0 162 62 304.5t175 246.5t269 161.5t344 57.5q170 0 308.5 -45t232.5 -113.5t151 -147.5q38 2 86.5 33.5t54.5 61.5q8 24 8 36q0 48 -57 48q-14 20 -14 43q0 35 31.5 59.5t70.5 24.5q45 0 72.5 -31.5t27.5 -71.5q0 -64 -42.5 -127.5t-98.5 -103t-88 -39.5 q32 -49 56.5 -115t37.5 -141.5t13 -140.5q0 -161 -61 -304.5t-175.5 -248.5t-271.5 -162.5t-342 -57.5q-186 0 -343.5 58t-271 163t-174.5 248t-61 304zM522 748q0 -216 48 -369t138.5 -230t213.5 -77t213.5 77t139 229t48.5 370q0 169 -27.5 293t-78.5 208t-126 128 t-169 44q-125 0 -214.5 -76.5t-137.5 -229t-48 -367.5z" />
<glyph unicode="&#x1a1;" horiz-adv-x="1358" d="M63 504q0 111 42.5 210t123 170.5t194 110.5t255.5 39q103 0 193.5 -21.5t159 -59.5t124.5 -97.5t88 -128.5q31 6 69 36t44 58q8 26 8 37q0 47 -57 47q-15 20 -15 43q0 35 31.5 59.5t71.5 24.5q45 0 72.5 -30.5t27.5 -71.5q0 -53 -43 -115.5t-98.5 -104.5t-85.5 -42 q24 -77 24 -164q0 -151 -74 -271.5t-213.5 -189t-326.5 -68.5q-186 0 -326 68.5t-214.5 189t-74.5 271.5zM457 506q0 -216 56 -326t165 -110t166 109.5t57 326.5t-57 325.5t-166 108.5q-110 0 -165.5 -109t-55.5 -325z" />
<glyph unicode="&#x1af;" horiz-adv-x="1835" d="M61 1421v72q136 -5 375 -57q221 52 375 57v-72q-87 -7 -128 -50t-51.5 -121.5t-10.5 -237.5v-107q0 -201 13 -339.5t42 -213.5q43 -102 130 -156.5t210 -54.5q241 0 342 191q40 74 52.5 190t12.5 314v200q0 154 -12 226t-57.5 110.5t-147.5 48.5v72q130 -6 297 -45 q23 5 51.5 11t34.5 7v-280q37 1 86.5 34t55.5 60q8 24 8 37q0 47 -58 47q-14 20 -14 43q0 35 31.5 59.5t70.5 24.5q45 0 73 -30t28 -72q-4 -74 -57.5 -136t-121 -97.5t-102.5 -35.5v-362q0 -137 -9.5 -232t-37 -178.5t-76.5 -148.5q-54 -72 -135.5 -123t-190 -76t-233.5 -25 q-317 0 -485 152q-72 64 -111.5 151.5t-54 196t-14.5 262.5v330q0 110 -4 166t-20.5 97.5t-53.5 64t-103 26.5z" />
<glyph unicode="&#x1b0;" horiz-adv-x="1450" d="M41 852v70q150 24 311 24q57 47 127 84l66 -39q-17 -116 -17 -389v-110q0 -132 14 -209t50.5 -116.5t103.5 -39.5q94 0 145.5 77.5t51.5 227.5v154q0 120 -7 171t-32.5 76t-87.5 27v72q129 22 274 22h35q57 47 127 84l43 -26v-287q37 1 86 33.5t55 60.5q9 22 9 37 q0 47 -58 47q-14 21 -14 43q0 35 31.5 59.5t70.5 24.5q45 0 73 -30t28 -72q-4 -74 -57.5 -136t-121 -97.5t-102.5 -35.5v-204q0 -102 13 -169.5t43.5 -99.5t82.5 -32q4 0 46 4l12 -78q-121 -33 -305 -33h-37q-62 -32 -105 -65l-67 38q-19 61 -19 158q-29 -63 -83.5 -108 t-131.5 -69t-174 -24q-106 0 -173 30t-106.5 90t-56 151.5t-16.5 214.5v131q0 113 -7 161t-32.5 71.5t-87.5 25.5z" />
<glyph unicode="&#x1ea0;" horiz-adv-x="1612" d="M-82 0v72q74 3 129.5 47.5t103.5 127.5t92.5 190t139.5 341l297 727l151 -24l154 24l293 -739q25 -64 99.5 -253t117 -272.5t88.5 -126t105 -42.5h6v-72q-198 6 -389 57q-199 -54 -371 -57v72q75 6 109 29t34 73q0 29 -18.5 94t-59.5 168l-36 96q-109 3 -248 3 q-129 0 -252 -3l-39 -96q-39 -97 -58.5 -173t-19.5 -99q0 -43 29 -64t98 -30v-70q-144 3 -278 49q-141 -43 -277 -49zM506 645q74 -2 211 -2t205 2q-16 48 -69 192.5t-130 346.5q-125 -284 -217 -539zM688 -219q0 50 33.5 83.5t83.5 33.5q51 0 84 -34t33 -83 q0 -48 -33.5 -82.5t-83.5 -34.5q-49 0 -83 34t-34 83z" />
<glyph unicode="&#x1ea1;" horiz-adv-x="1270" d="M76 231q0 68 28.5 118.5t84 85t141.5 60t194 44.5q94 17 134.5 30t57.5 40t17 83q0 90 -10 142.5t-39.5 79t-87.5 26.5q-63 0 -103 -39t-40 -102q0 -54 26 -117q-70 -37 -164 -37q-62 0 -99.5 35t-37.5 94q0 70 56 128.5t162.5 93t246.5 34.5q160 0 255.5 -45.5t138 -140 t42.5 -246.5v-203q0 -87 5.5 -134.5t24 -71t56.5 -23.5q23 0 64 16l28 -55q-56 -66 -131 -102.5t-143 -36.5q-181 0 -215 172q-53 -81 -154 -128.5t-227 -47.5q-146 0 -228.5 66.5t-82.5 180.5zM444 281q0 -40 16.5 -71t46 -48t68.5 -17q154 0 154 199v156 q-118 -35 -170 -56t-83.5 -58.5t-31.5 -104.5zM539 -225q0 51 33.5 83.5t82.5 32.5q33 0 59.5 -15.5t42 -41.5t15.5 -59q0 -48 -33.5 -82.5t-83.5 -34.5q-48 0 -82 34t-34 83z" />
<glyph unicode="&#x1ea2;" horiz-adv-x="1612" d="M-82 0v72q74 3 129.5 47.5t103.5 127.5t92.5 190t139.5 341l297 727l151 -24l154 24l293 -739q25 -64 99.5 -253t117 -272.5t88.5 -126t105 -42.5h6v-72q-198 6 -389 57q-199 -54 -371 -57v72q75 6 109 29t34 73q0 29 -18.5 94t-59.5 168l-36 96q-109 3 -248 3 q-129 0 -252 -3l-39 -96q-39 -97 -58.5 -173t-19.5 -99q0 -43 29 -64t98 -30v-70q-144 3 -278 49q-141 -43 -277 -49zM506 645q74 -2 211 -2t205 2q-16 48 -69 192.5t-130 346.5q-125 -284 -217 -539zM692 1919q0 39 48 65.5t128 26.5t125 -31t45 -84q0 -24 -10.5 -44.5 t-28 -36t-47 -34.5t-61.5 -38q-49 -28 -49 -53t26 -25h9q0 -24 -8.5 -31.5t-32.5 -7.5q-25 0 -42.5 16.5t-17.5 43.5q0 26 15 49t47 55q32 34 43.5 55.5t11.5 65.5q0 31 -14 49t-35 18q-45 0 -45 -43q0 -20 12 -43l2 -4q-24 -16 -61 -16q-60 0 -60 47z" />
<glyph unicode="&#x1ea3;" horiz-adv-x="1270" d="M76 231q0 68 28.5 118.5t84 85t141.5 60t194 44.5q94 17 134.5 30t57.5 40t17 83q0 90 -10 142.5t-39.5 79t-87.5 26.5q-63 0 -103 -39t-40 -102q0 -54 26 -117q-70 -37 -164 -37q-62 0 -99.5 35t-37.5 94q0 70 56 128.5t162.5 93t246.5 34.5q160 0 255.5 -45.5t138 -140 t42.5 -246.5v-203q0 -87 5.5 -134.5t24 -71t56.5 -23.5q23 0 64 16l28 -55q-56 -66 -131 -102.5t-143 -36.5q-181 0 -215 172q-53 -81 -154 -128.5t-227 -47.5q-146 0 -228.5 66.5t-82.5 180.5zM444 281q0 -40 16.5 -71t46 -48t68.5 -17q154 0 154 199v156 q-118 -35 -170 -56t-83.5 -58.5t-31.5 -104.5zM512 1444q0 39 48 65.5t128 26.5t125 -31t45 -84q0 -24 -10.5 -44.5t-28 -36t-47 -34.5t-61.5 -38q-49 -28 -49 -54q0 -24 26 -24h8q0 -24 -8 -31.5t-33 -7.5q-26 0 -42.5 15.5t-16.5 43.5q0 42 61 105q31 31 43.5 54t12.5 67 q0 31 -14 49t-35 18q-46 0 -46 -43q0 -19 13 -43l2 -4q-25 -16 -62 -16q-59 0 -59 47z" />
<glyph unicode="&#x1ea4;" horiz-adv-x="1612" d="M-82 0v72q74 3 129.5 47.5t103.5 127.5t92.5 190t139.5 341l297 727l151 -24l154 24l293 -739q25 -64 99.5 -253t117 -272.5t88.5 -126t105 -42.5h6v-72q-198 6 -389 57q-199 -54 -371 -57v72q75 6 109 29t34 73q0 29 -18.5 94t-59.5 168l-36 96q-109 3 -248 3 q-129 0 -252 -3l-39 -96q-39 -97 -58.5 -173t-19.5 -99q0 -43 29 -64t98 -30v-70q-144 3 -278 49q-141 -43 -277 -49zM506 645q74 -2 211 -2t205 2q-16 48 -69 192.5t-130 346.5q-125 -284 -217 -539zM592 1591l172 258h135l172 -258h-74l-166 119l-165 -119h-74zM1044 1763 l195 205q60 66 104 66q19 0 37.5 -10t28.5 -28.5t10 -37.5q0 -46 -69 -80l-226 -115h-80z" />
<glyph unicode="&#x1ea5;" horiz-adv-x="1270" d="M76 231q0 68 28.5 118.5t84 85t141.5 60t194 44.5q94 17 134.5 30t57.5 40t17 83q0 90 -10 142.5t-39.5 79t-87.5 26.5q-63 0 -103 -39t-40 -102q0 -54 26 -117q-70 -37 -164 -37q-62 0 -99.5 35t-37.5 94q0 70 56 128.5t162.5 93t246.5 34.5q160 0 255.5 -45.5t138 -140 t42.5 -246.5v-203q0 -87 5.5 -134.5t24 -71t56.5 -23.5q23 0 64 16l28 -55q-56 -66 -131 -102.5t-143 -36.5q-181 0 -215 172q-53 -81 -154 -128.5t-227 -47.5q-146 0 -228.5 66.5t-82.5 180.5zM383 1122l172 258h135l172 -258h-74l-165 119l-166 -119h-74zM444 281 q0 -40 16.5 -71t46 -48t68.5 -17q154 0 154 199v156q-118 -35 -170 -56t-83.5 -58.5t-31.5 -104.5zM836 1294l194 205q60 66 105 66q32 0 53.5 -21.5t21.5 -54.5q0 -46 -69 -80l-226 -115h-79z" />
<glyph unicode="&#x1ea6;" horiz-adv-x="1612" d="M-82 0v72q74 3 129.5 47.5t103.5 127.5t92.5 190t139.5 341l297 727l151 -24l154 24l293 -739q25 -64 99.5 -253t117 -272.5t88.5 -126t105 -42.5h6v-72q-198 6 -389 57q-199 -54 -371 -57v72q75 6 109 29t34 73q0 29 -18.5 94t-59.5 168l-36 96q-109 3 -248 3 q-129 0 -252 -3l-39 -96q-39 -97 -58.5 -173t-19.5 -99q0 -43 29 -64t98 -30v-70q-144 3 -278 49q-141 -43 -277 -49zM506 645q74 -2 211 -2t205 2q-16 48 -69 192.5t-130 346.5q-125 -284 -217 -539zM592 1591l172 258h135l172 -258h-74l-166 119l-165 -119h-74zM780 2042 q0 34 22 55t54 21q45 0 105 -66l196 -203h-80l-227 113q-38 20 -54 37.5t-16 42.5z" />
<glyph unicode="&#x1ea7;" horiz-adv-x="1270" d="M76 231q0 68 28.5 118.5t84 85t141.5 60t194 44.5q94 17 134.5 30t57.5 40t17 83q0 90 -10 142.5t-39.5 79t-87.5 26.5q-63 0 -103 -39t-40 -102q0 -54 26 -117q-70 -37 -164 -37q-62 0 -99.5 35t-37.5 94q0 70 56 128.5t162.5 93t246.5 34.5q160 0 255.5 -45.5t138 -140 t42.5 -246.5v-203q0 -87 5.5 -134.5t24 -71t56.5 -23.5q23 0 64 16l28 -55q-56 -66 -131 -102.5t-143 -36.5q-181 0 -215 172q-53 -81 -154 -128.5t-227 -47.5q-146 0 -228.5 66.5t-82.5 180.5zM383 1122l172 258h135l172 -258h-74l-165 119l-166 -119h-74zM444 281 q0 -40 16.5 -71t46 -48t68.5 -17q154 0 154 199v156q-118 -35 -170 -56t-83.5 -58.5t-31.5 -104.5zM571 1573q0 34 22 55t54 21q45 0 105 -66l196 -203h-80l-227 113q-38 20 -54 37.5t-16 42.5z" />
<glyph unicode="&#x1ea8;" horiz-adv-x="1612" d="M-82 0v72q74 3 129.5 47.5t103.5 127.5t92.5 190t139.5 341l297 727l151 -24l154 24l293 -739q25 -64 99.5 -253t117 -272.5t88.5 -126t105 -42.5h6v-72q-198 6 -389 57q-199 -54 -371 -57v72q75 6 109 29t34 73q0 29 -18.5 94t-59.5 168l-36 96q-109 3 -248 3 q-129 0 -252 -3l-39 -96q-39 -97 -58.5 -173t-19.5 -99q0 -43 29 -64t98 -30v-70q-144 3 -278 49q-141 -43 -277 -49zM506 645q74 -2 211 -2t205 2q-16 48 -69 192.5t-130 346.5q-125 -284 -217 -539zM592 1591l172 258h135l172 -258h-74l-166 119l-165 -119h-74zM936 2038 q0 39 48.5 65.5t127.5 26.5q80 0 125 -31t45 -84q0 -24 -10.5 -44.5t-28 -36t-47 -34.5t-61.5 -38q-50 -29 -50 -54q0 -24 27 -24h8q0 -24 -8 -31.5t-33 -7.5t-42 16t-17 43q0 44 61 105q29 27 42.5 51.5t13.5 69.5q0 31 -14 49t-36 18q-19 0 -32 -12t-13 -31q0 -20 13 -43 l2 -4q-25 -16 -62 -16q-59 0 -59 47z" />
<glyph unicode="&#x1ea9;" horiz-adv-x="1270" d="M76 231q0 68 28.5 118.5t84 85t141.5 60t194 44.5q94 17 134.5 30t57.5 40t17 83q0 90 -10 142.5t-39.5 79t-87.5 26.5q-63 0 -103 -39t-40 -102q0 -54 26 -117q-70 -37 -164 -37q-62 0 -99.5 35t-37.5 94q0 70 56 128.5t162.5 93t246.5 34.5q160 0 255.5 -45.5t138 -140 t42.5 -246.5v-203q0 -87 5.5 -134.5t24 -71t56.5 -23.5q23 0 64 16l28 -55q-56 -66 -131 -102.5t-143 -36.5q-181 0 -215 172q-53 -81 -154 -128.5t-227 -47.5q-146 0 -228.5 66.5t-82.5 180.5zM383 1122l172 258h135l172 -258h-74l-165 119l-166 -119h-74zM444 281 q0 -40 16.5 -71t46 -48t68.5 -17q154 0 154 199v156q-118 -35 -170 -56t-83.5 -58.5t-31.5 -104.5zM727 1569q0 39 48 65.5t128 26.5t125 -31t45 -84q0 -24 -10.5 -44.5t-28 -36t-47 -34.5t-61.5 -38q-49 -28 -49 -54q0 -24 26 -24h8q0 -24 -8 -31.5t-33 -7.5 q-26 0 -42.5 15.5t-16.5 43.5q0 42 61 105q29 27 42.5 51.5t13.5 69.5q0 31 -14 49t-35 18q-45 0 -45 -43q0 -22 12 -43l2 -4q-25 -16 -62 -16q-59 0 -59 47z" />
<glyph unicode="&#x1eaa;" horiz-adv-x="1612" d="M-82 0v72q74 3 129.5 47.5t103.5 127.5t92.5 190t139.5 341l297 727l151 -24l154 24l293 -739q25 -64 99.5 -253t117 -272.5t88.5 -126t105 -42.5h6v-72q-198 6 -389 57q-199 -54 -371 -57v72q75 6 109 29t34 73q0 29 -18.5 94t-59.5 168l-36 96q-109 3 -248 3 q-129 0 -252 -3l-39 -96q-39 -97 -58.5 -173t-19.5 -99q0 -43 29 -64t98 -30v-70q-144 3 -278 49q-141 -43 -277 -49zM506 645q74 -2 211 -2t205 2q-16 48 -69 192.5t-130 346.5q-125 -284 -217 -539zM592 1591l172 258h135l172 -258h-74l-166 119l-165 -119h-74zM645 1931 q18 93 57 138t103 45q35 0 53 -5l84 -20q24 -4 29 -4q25 0 40 13.5t25 47.5l49 2q-18 -94 -56 -138t-103 -44q-27 0 -41 4l-80 23q-19 4 -37 4q-52 0 -66 -66h-57z" />
<glyph unicode="&#x1eab;" horiz-adv-x="1270" d="M76 231q0 68 28.5 118.5t84 85t141.5 60t194 44.5q94 17 134.5 30t57.5 40t17 83q0 90 -10 142.5t-39.5 79t-87.5 26.5q-63 0 -103 -39t-40 -102q0 -54 26 -117q-70 -37 -164 -37q-62 0 -99.5 35t-37.5 94q0 70 56 128.5t162.5 93t246.5 34.5q160 0 255.5 -45.5t138 -140 t42.5 -246.5v-203q0 -87 5.5 -134.5t24 -71t56.5 -23.5q23 0 64 16l28 -55q-56 -66 -131 -102.5t-143 -36.5q-181 0 -215 172q-53 -81 -154 -128.5t-227 -47.5q-146 0 -228.5 66.5t-82.5 180.5zM383 1122l172 258h135l172 -258h-74l-165 119l-166 -119h-74zM436 1462 q18 93 57 138t103 45q35 0 53 -5l84 -20q24 -4 29 -4q25 0 40 13.5t25 47.5l50 2q-18 -93 -56.5 -137.5t-103.5 -44.5q-27 0 -41 4l-80 23q-18 4 -37 4q-53 0 -65 -66h-58zM444 281q0 -40 16.5 -71t46 -48t68.5 -17q154 0 154 199v156q-118 -35 -170 -56t-83.5 -58.5 t-31.5 -104.5z" />
<glyph unicode="&#x1eac;" horiz-adv-x="1612" d="M-82 0v72q74 3 129.5 47.5t103.5 127.5t92.5 190t139.5 341l297 727l151 -24l154 24l293 -739q25 -64 99.5 -253t117 -272.5t88.5 -126t105 -42.5h6v-72q-198 6 -389 57q-199 -54 -371 -57v72q75 6 109 29t34 73q0 29 -18.5 94t-59.5 168l-36 96q-109 3 -248 3 q-129 0 -252 -3l-39 -96q-39 -97 -58.5 -173t-19.5 -99q0 -43 29 -64t98 -30v-70q-144 3 -278 49q-141 -43 -277 -49zM506 645q74 -2 211 -2t205 2q-16 48 -69 192.5t-130 346.5q-125 -284 -217 -539zM592 1591l172 258h135l172 -258h-74l-166 119l-165 -119h-74zM666 -238 q0 50 33.5 83.5t82.5 33.5q51 0 84 -34t33 -83q0 -47 -33.5 -81.5t-83.5 -34.5q-48 0 -82 34t-34 82z" />
<glyph unicode="&#x1ead;" horiz-adv-x="1270" d="M76 231q0 68 28.5 118.5t84 85t141.5 60t194 44.5q94 17 134.5 30t57.5 40t17 83q0 90 -10 142.5t-39.5 79t-87.5 26.5q-63 0 -103 -39t-40 -102q0 -54 26 -117q-70 -37 -164 -37q-62 0 -99.5 35t-37.5 94q0 70 56 128.5t162.5 93t246.5 34.5q160 0 255.5 -45.5t138 -140 t42.5 -246.5v-203q0 -87 5.5 -134.5t24 -71t56.5 -23.5q23 0 64 16l28 -55q-56 -66 -131 -102.5t-143 -36.5q-181 0 -215 172q-53 -81 -154 -128.5t-227 -47.5q-146 0 -228.5 66.5t-82.5 180.5zM383 1122l172 258h135l172 -258h-74l-165 119l-166 -119h-74zM444 281 q0 -40 16.5 -71t46 -48t68.5 -17q154 0 154 199v156q-118 -35 -170 -56t-83.5 -58.5t-31.5 -104.5zM498 -236q0 50 33.5 83.5t82.5 33.5q51 0 84 -34t33 -83q0 -47 -33.5 -81.5t-83.5 -34.5q-48 0 -82 34t-34 82z" />
<glyph unicode="&#x1eae;" horiz-adv-x="1612" d="M-82 0v72q74 3 129.5 47.5t103.5 127.5t92.5 190t139.5 341l297 727l151 -24l154 24l293 -739q25 -64 99.5 -253t117 -272.5t88.5 -126t105 -42.5h6v-72q-198 6 -389 57q-199 -54 -371 -57v72q75 6 109 29t34 73q0 29 -18.5 94t-59.5 168l-36 96q-109 3 -248 3 q-129 0 -252 -3l-39 -96q-39 -97 -58.5 -173t-19.5 -99q0 -43 29 -64t98 -30v-70q-144 3 -278 49q-141 -43 -277 -49zM506 645q74 -2 211 -2t205 2q-16 48 -69 192.5t-130 346.5q-125 -284 -217 -539zM621 1798h65q8 -29 27.5 -48t51 -27.5t81.5 -8.5q70 0 108 20t50 64h65 q-14 -103 -72 -158t-151 -55t-152 54.5t-73 158.5zM799 1866l194 205q59 65 105 65q19 0 37.5 -10t28.5 -28.5t10 -37.5q0 -46 -70 -80l-225 -114h-80z" />
<glyph unicode="&#x1eaf;" horiz-adv-x="1270" d="M76 231q0 68 28.5 118.5t84 85t141.5 60t194 44.5q94 17 134.5 30t57.5 40t17 83q0 90 -10 142.5t-39.5 79t-87.5 26.5q-63 0 -103 -39t-40 -102q0 -54 26 -117q-70 -37 -164 -37q-62 0 -99.5 35t-37.5 94q0 70 56 128.5t162.5 93t246.5 34.5q160 0 255.5 -45.5t138 -140 t42.5 -246.5v-203q0 -87 5.5 -134.5t24 -71t56.5 -23.5q23 0 64 16l28 -55q-56 -66 -131 -102.5t-143 -36.5q-181 0 -215 172q-53 -81 -154 -128.5t-227 -47.5q-146 0 -228.5 66.5t-82.5 180.5zM442 1329h66q13 -46 50 -65t110 -19q70 0 107.5 20t49.5 64h66 q-14 -103 -72 -158t-151 -55t-152 54.5t-74 158.5zM444 281q0 -40 16.5 -71t46 -48t68.5 -17q154 0 154 199v156q-118 -35 -170 -56t-83.5 -58.5t-31.5 -104.5zM621 1397l194 205q59 65 105 65q32 0 53.5 -21.5t21.5 -54.5q0 -46 -69 -80l-226 -114h-79z" />
<glyph unicode="&#x1eb0;" horiz-adv-x="1612" d="M-82 0v72q74 3 129.5 47.5t103.5 127.5t92.5 190t139.5 341l297 727l151 -24l154 24l293 -739q25 -64 99.5 -253t117 -272.5t88.5 -126t105 -42.5h6v-72q-198 6 -389 57q-199 -54 -371 -57v72q75 6 109 29t34 73q0 29 -18.5 94t-59.5 168l-36 96q-109 3 -248 3 q-129 0 -252 -3l-39 -96q-39 -97 -58.5 -173t-19.5 -99q0 -43 29 -64t98 -30v-70q-144 3 -278 49q-141 -43 -277 -49zM506 645q74 -2 211 -2t205 2q-16 48 -69 192.5t-130 346.5q-125 -284 -217 -539zM565 2052q0 34 22 55t54 21q46 0 104 -66l197 -202h-80l-227 112 q-38 20 -54 37.5t-16 42.5zM621 1798h65q8 -29 27.5 -48t51 -27.5t81.5 -8.5q70 0 108 20t50 64h65q-14 -103 -72 -158t-151 -55t-152 54.5t-73 158.5z" />
<glyph unicode="&#x1eb1;" horiz-adv-x="1270" d="M76 231q0 68 28.5 118.5t84 85t141.5 60t194 44.5q94 17 134.5 30t57.5 40t17 83q0 90 -10 142.5t-39.5 79t-87.5 26.5q-63 0 -103 -39t-40 -102q0 -54 26 -117q-70 -37 -164 -37q-62 0 -99.5 35t-37.5 94q0 70 56 128.5t162.5 93t246.5 34.5q160 0 255.5 -45.5t138 -140 t42.5 -246.5v-203q0 -87 5.5 -134.5t24 -71t56.5 -23.5q23 0 64 16l28 -55q-56 -66 -131 -102.5t-143 -36.5q-181 0 -215 172q-53 -81 -154 -128.5t-227 -47.5q-146 0 -228.5 66.5t-82.5 180.5zM387 1583q0 34 22 55t54 21q44 0 104 -66l197 -202h-80l-227 112 q-38 20 -54 37.5t-16 42.5zM442 1329h66q13 -46 50 -65t110 -19q70 0 107.5 20t49.5 64h66q-14 -103 -72 -158t-151 -55t-152 54.5t-74 158.5zM444 281q0 -40 16.5 -71t46 -48t68.5 -17q154 0 154 199v156q-118 -35 -170 -56t-83.5 -58.5t-31.5 -104.5z" />
<glyph unicode="&#x1eb2;" horiz-adv-x="1612" d="M-82 0v72q74 3 129.5 47.5t103.5 127.5t92.5 190t139.5 341l297 727l151 -24l154 24l293 -739q25 -64 99.5 -253t117 -272.5t88.5 -126t105 -42.5h6v-72q-198 6 -389 57q-199 -54 -371 -57v72q75 6 109 29t34 73q0 29 -18.5 94t-59.5 168l-36 96q-109 3 -248 3 q-129 0 -252 -3l-39 -96q-39 -97 -58.5 -173t-19.5 -99q0 -43 29 -64t98 -30v-70q-144 3 -278 49q-141 -43 -277 -49zM506 645q74 -2 211 -2t205 2q-16 48 -69 192.5t-130 346.5q-125 -284 -217 -539zM621 1798h65q8 -29 27.5 -48t51 -27.5t81.5 -8.5q70 0 108 20t50 64h65 q-14 -103 -72 -158t-151 -55t-152 54.5t-73 158.5zM721 2099q0 39 48.5 65.5t127.5 26.5q80 0 125 -31t45 -83q0 -25 -10.5 -45.5t-28 -36t-47 -34.5t-61.5 -38q-50 -27 -50 -53q0 -25 27 -25h8q0 -24 -8 -31.5t-33 -7.5t-42 17t-17 43q0 43 61 104q31 31 43.5 54t12.5 67 q0 22 -6.5 37t-18.5 23t-25 8q-20 0 -32.5 -11.5t-12.5 -31.5q0 -23 13 -43l2 -5q-25 -16 -62 -16q-59 0 -59 47z" />
<glyph unicode="&#x1eb3;" horiz-adv-x="1270" d="M76 231q0 68 28.5 118.5t84 85t141.5 60t194 44.5q94 17 134.5 30t57.5 40t17 83q0 90 -10 142.5t-39.5 79t-87.5 26.5q-63 0 -103 -39t-40 -102q0 -54 26 -117q-70 -37 -164 -37q-62 0 -99.5 35t-37.5 94q0 70 56 128.5t162.5 93t246.5 34.5q160 0 255.5 -45.5t138 -140 t42.5 -246.5v-203q0 -87 5.5 -134.5t24 -71t56.5 -23.5q23 0 64 16l28 -55q-56 -66 -131 -102.5t-143 -36.5q-181 0 -215 172q-53 -81 -154 -128.5t-227 -47.5q-146 0 -228.5 66.5t-82.5 180.5zM442 1329h66q13 -46 50 -65t110 -19q70 0 107.5 20t49.5 64h66 q-14 -103 -72 -158t-151 -55t-152 54.5t-74 158.5zM444 281q0 -40 16.5 -71t46 -48t68.5 -17q154 0 154 199v156q-118 -35 -170 -56t-83.5 -58.5t-31.5 -104.5zM543 1661q0 39 48.5 65.5t127.5 26.5q80 0 125 -31t45 -84q0 -24 -10.5 -44.5t-28.5 -36t-47.5 -34.5t-61.5 -38 q-49 -29 -49 -53q0 -25 27 -25h8q0 -24 -8 -31.5t-33 -7.5t-42 16t-17 43q0 44 61 105q29 29 42 53t13 68q0 31 -13 49t-36 18q-19 0 -32 -12t-13 -31q0 -21 13 -43l2 -4q-25 -16 -62 -16q-59 0 -59 47z" />
<glyph unicode="&#x1eb4;" horiz-adv-x="1612" d="M-82 0v72q74 3 129.5 47.5t103.5 127.5t92.5 190t139.5 341l297 727l151 -24l154 24l293 -739q25 -64 99.5 -253t117 -272.5t88.5 -126t105 -42.5h6v-72q-198 6 -389 57q-199 -54 -371 -57v72q75 6 109 29t34 73q0 29 -18.5 94t-59.5 168l-36 96q-109 3 -248 3 q-129 0 -252 -3l-39 -96q-39 -97 -58.5 -173t-19.5 -99q0 -43 29 -64t98 -30v-70q-144 3 -278 49q-141 -43 -277 -49zM506 645q74 -2 211 -2t205 2q-16 48 -69 192.5t-130 346.5q-125 -284 -217 -539zM621 1798h65q8 -29 27.5 -48t51 -27.5t81.5 -8.5q70 0 108 20t50 64h65 q-14 -103 -72 -158t-151 -55t-152 54.5t-73 158.5zM645 1880q34 182 160 182q35 0 53 -4l84 -20q24 -4 29 -4q25 0 40 13.5t25 47.5l49 2q-18 -94 -56 -138t-103 -44q-27 0 -41 4l-80 23q-19 4 -37 4q-52 0 -66 -66h-57z" />
<glyph unicode="&#x1eb5;" horiz-adv-x="1270" d="M76 231q0 68 28.5 118.5t84 85t141.5 60t194 44.5q94 17 134.5 30t57.5 40t17 83q0 90 -10 142.5t-39.5 79t-87.5 26.5q-63 0 -103 -39t-40 -102q0 -54 26 -117q-70 -37 -164 -37q-62 0 -99.5 35t-37.5 94q0 70 56 128.5t162.5 93t246.5 34.5q160 0 255.5 -45.5t138 -140 t42.5 -246.5v-203q0 -87 5.5 -134.5t24 -71t56.5 -23.5q23 0 64 16l28 -55q-56 -66 -131 -102.5t-143 -36.5q-181 0 -215 172q-53 -81 -154 -128.5t-227 -47.5q-146 0 -228.5 66.5t-82.5 180.5zM442 1329h66q13 -46 50 -65t110 -19q70 0 107.5 20t49.5 64h66 q-14 -103 -72 -158t-151 -55t-152 54.5t-74 158.5zM444 281q0 -40 16.5 -71t46 -48t68.5 -17q154 0 154 199v156q-118 -35 -170 -56t-83.5 -58.5t-31.5 -104.5zM467 1411q33 182 160 182q35 0 53 -4l84 -20q24 -4 29 -4q48 0 65 61l49 2q-18 -94 -56 -138t-103 -44 q-27 0 -41 4l-80 23q-19 4 -37 4q-54 0 -66 -66h-57z" />
<glyph unicode="&#x1eb6;" horiz-adv-x="1612" d="M-82 0v72q74 3 129.5 47.5t103.5 127.5t92.5 190t139.5 341l297 727l151 -24l154 24l293 -739q25 -64 99.5 -253t117 -272.5t88.5 -126t105 -42.5h6v-72q-198 6 -389 57q-199 -54 -371 -57v72q75 6 109 29t34 73q0 29 -18.5 94t-59.5 168l-36 96q-109 3 -248 3 q-129 0 -252 -3l-39 -96q-39 -97 -58.5 -173t-19.5 -99q0 -43 29 -64t98 -30v-70q-144 3 -278 49q-141 -43 -277 -49zM506 645q74 -2 211 -2t205 2q-16 48 -69 192.5t-130 346.5q-125 -284 -217 -539zM621 1798h65q8 -29 27.5 -48t51 -27.5t81.5 -8.5q70 0 108 20t50 64h65 q-14 -103 -72 -158t-151 -55t-152 54.5t-73 158.5zM676 -227q0 51 33.5 83.5t83.5 32.5q33 0 59 -15.5t41.5 -41.5t15.5 -59q0 -48 -32.5 -82.5t-83.5 -34.5q-49 0 -83 34t-34 83z" />
<glyph unicode="&#x1eb7;" horiz-adv-x="1270" d="M76 231q0 68 28.5 118.5t84 85t141.5 60t194 44.5q94 17 134.5 30t57.5 40t17 83q0 90 -10 142.5t-39.5 79t-87.5 26.5q-63 0 -103 -39t-40 -102q0 -54 26 -117q-70 -37 -164 -37q-62 0 -99.5 35t-37.5 94q0 70 56 128.5t162.5 93t246.5 34.5q160 0 255.5 -45.5t138 -140 t42.5 -246.5v-203q0 -87 5.5 -134.5t24 -71t56.5 -23.5q23 0 64 16l28 -55q-56 -66 -131 -102.5t-143 -36.5q-181 0 -215 172q-53 -81 -154 -128.5t-227 -47.5q-146 0 -228.5 66.5t-82.5 180.5zM442 1329h66q13 -46 50 -65t110 -19q70 0 107.5 20t49.5 64h66 q-14 -103 -72 -158t-151 -55t-152 54.5t-74 158.5zM444 281q0 -40 16.5 -71t46 -48t68.5 -17q154 0 154 199v156q-118 -35 -170 -56t-83.5 -58.5t-31.5 -104.5zM518 -225q0 51 33.5 83.5t83.5 32.5q33 0 59.5 -15.5t42 -43t15.5 -57.5q0 -48 -33.5 -82.5t-83.5 -34.5 q-49 0 -83 34t-34 83z" />
<glyph unicode="&#x1eb8;" horiz-adv-x="1401" d="M47 0v70q94 10 137 54t54.5 124t11.5 241v500q0 163 -11.5 245.5t-54.5 129t-137 59.5v70q217 -12 363 -57q129 33 283.5 45t377.5 12q86 0 117 -10.5t31 -44.5q0 -33 -33 -74q22 -110 22 -188q0 -14 -0.5 -22.5t-1.5 -18.5h-82q-5 91 -32.5 137.5t-85 63t-162.5 16.5 h-201q-8 -184 -8 -295v-221h170q115 0 163.5 30t55.5 123h88q-6 -115 -39 -217q36 -123 39 -221h-88q-3 67 -24 98.5t-65 42t-130 10.5h-170v-299q0 -114 16 -165.5t68.5 -69.5t171.5 -18q122 0 194 20.5t110.5 75.5t53.5 160h94q-12 -131 -57 -250q25 -43 25 -70 q0 -55 -61 -69.5t-228 -14.5q-110 0 -176.5 1t-147.5 7t-146.5 16t-141.5 31q-182 -48 -363 -57zM578 -219q0 50 33.5 83.5t82.5 33.5q51 0 84 -34t33 -83q0 -48 -33.5 -82.5t-83.5 -34.5q-48 0 -82 34t-34 83z" />
<glyph unicode="&#x1eb9;" horiz-adv-x="1165" d="M63 485q0 156 74 282t204.5 196.5t291.5 70.5q134 0 240.5 -52t166.5 -140t60 -193q0 -21 -4 -61h-561q-42 0 -64.5 -6.5t-30.5 -22t-8 -45.5q0 -104 46.5 -191t130.5 -138.5t192 -51.5q77 0 155 28.5t140 82.5l34 -66q-78 -94 -213.5 -148.5t-306.5 -54.5 q-123 0 -223.5 36t-173 104t-111.5 162.5t-39 207.5zM422 717q1 -12 1.5 -21.5t0.5 -17.5h289q35 0 48 7.5t13 35.5q0 88 -53.5 152.5t-130.5 64.5q-75 0 -121.5 -60.5t-46.5 -160.5zM479 -244q0 50 33.5 83.5t83.5 33.5q51 0 84 -34t33 -83q0 -47 -33.5 -81.5t-83.5 -34.5 q-49 0 -83 34t-34 82z" />
<glyph unicode="&#x1eba;" horiz-adv-x="1401" d="M47 0v70q94 10 137 54t54.5 124t11.5 241v500q0 163 -11.5 245.5t-54.5 129t-137 59.5v70q217 -12 363 -57q129 33 283.5 45t377.5 12q86 0 117 -10.5t31 -44.5q0 -33 -33 -74q22 -110 22 -188q0 -14 -0.5 -22.5t-1.5 -18.5h-82q-5 91 -32.5 137.5t-85 63t-162.5 16.5 h-201q-8 -184 -8 -295v-221h170q115 0 163.5 30t55.5 123h88q-6 -115 -39 -217q36 -123 39 -221h-88q-3 67 -24 98.5t-65 42t-130 10.5h-170v-299q0 -114 16 -165.5t68.5 -69.5t171.5 -18q122 0 194 20.5t110.5 75.5t53.5 160h94q-12 -131 -57 -250q25 -43 25 -70 q0 -55 -61 -69.5t-228 -14.5q-110 0 -176.5 1t-147.5 7t-146.5 16t-141.5 31q-182 -48 -363 -57zM561 1907q0 39 48 65.5t128 26.5t125 -31t45 -84q0 -48 -26 -70.5t-121 -82.5q-49 -28 -49 -54q0 -24 26 -24h8q0 -24 -8 -31.5t-32 -7.5q-25 0 -42.5 15.5t-17.5 43.5 q0 27 15 50t47 55q29 29 42 52.5t13 67.5q0 32 -14 50t-35 18q-45 0 -45 -43q0 -22 12 -43l2 -4q-24 -16 -61 -16q-60 0 -60 47z" />
<glyph unicode="&#x1ebb;" horiz-adv-x="1165" d="M63 485q0 156 74 282t204.5 196.5t291.5 70.5q134 0 240.5 -52t166.5 -140t60 -193q0 -21 -4 -61h-561q-42 0 -64.5 -6.5t-30.5 -22t-8 -45.5q0 -104 46.5 -191t130.5 -138.5t192 -51.5q77 0 155 28.5t140 82.5l34 -66q-78 -94 -213.5 -148.5t-306.5 -54.5 q-123 0 -223.5 36t-173 104t-111.5 162.5t-39 207.5zM422 717q1 -12 1.5 -21.5t0.5 -17.5h289q35 0 48 7.5t13 35.5q0 88 -53.5 152.5t-130.5 64.5q-75 0 -121.5 -60.5t-46.5 -160.5zM483 1427q0 38 48 65.5t128 27.5t125 -31t45 -84q0 -48 -28.5 -72.5t-118.5 -81.5 q-49 -27 -49 -53q0 -24 26 -24h9q0 -24 -8.5 -31.5t-32.5 -7.5q-25 0 -42.5 15.5t-17.5 43.5q0 44 62 104q30 32 42.5 54.5t12.5 66.5q0 33 -13 50.5t-36 17.5q-21 0 -33 -12t-12 -31q0 -22 12 -43l2 -4q-24 -17 -61 -17q-26 0 -43 13t-17 34z" />
<glyph unicode="&#x1ebc;" horiz-adv-x="1401" d="M47 0v70q94 10 137 54t54.5 124t11.5 241v500q0 163 -11.5 245.5t-54.5 129t-137 59.5v70q217 -12 363 -57q129 33 283.5 45t377.5 12q86 0 117 -10.5t31 -44.5q0 -33 -33 -74q22 -110 22 -188q0 -14 -0.5 -22.5t-1.5 -18.5h-82q-5 91 -32.5 137.5t-85 63t-162.5 16.5 h-201q-8 -184 -8 -295v-221h170q115 0 163.5 30t55.5 123h88q-6 -115 -39 -217q36 -123 39 -221h-88q-3 67 -24 98.5t-65 42t-130 10.5h-170v-299q0 -114 16 -165.5t68.5 -69.5t171.5 -18q122 0 194 20.5t110.5 75.5t53.5 160h94q-12 -131 -57 -250q25 -43 25 -70 q0 -55 -61 -69.5t-228 -14.5q-110 0 -176.5 1t-147.5 7t-146.5 16t-141.5 31q-182 -48 -363 -57zM526 1616q34 182 160 182q35 0 53 -4l84 -20q7 -1 17 -3t12 -2q26 0 41.5 14.5t24.5 47.5l49 2q-18 -93 -56.5 -137.5t-103.5 -44.5q-27 0 -41 4l-80 22q-18 4 -37 4 q-53 0 -65 -65h-58z" />
<glyph unicode="&#x1ebd;" horiz-adv-x="1165" d="M63 485q0 156 74 282t204.5 196.5t291.5 70.5q134 0 240.5 -52t166.5 -140t60 -193q0 -21 -4 -61h-561q-42 0 -64.5 -6.5t-30.5 -22t-8 -45.5q0 -104 46.5 -191t130.5 -138.5t192 -51.5q77 0 155 28.5t140 82.5l34 -66q-78 -94 -213.5 -148.5t-306.5 -54.5 q-123 0 -223.5 36t-173 104t-111.5 162.5t-39 207.5zM418 1126q16 90 56 136.5t104 46.5q34 0 53 -4l84 -21q24 -4 28 -4q49 0 66 61l49 2q-35 -182 -160 -182q-26 0 -41 4l-79 23q-19 4 -37 4q-54 0 -66 -66h-57zM422 717q1 -12 1.5 -21.5t0.5 -17.5h289q35 0 48 7.5 t13 35.5q0 88 -53.5 152.5t-130.5 64.5q-75 0 -121.5 -60.5t-46.5 -160.5z" />
<glyph unicode="&#x1ebe;" horiz-adv-x="1401" d="M47 0v70q94 10 137 54t54.5 124t11.5 241v500q0 163 -11.5 245.5t-54.5 129t-137 59.5v70q217 -12 363 -57q129 33 283.5 45t377.5 12q86 0 117 -10.5t31 -44.5q0 -33 -33 -74q22 -110 22 -188q0 -14 -0.5 -22.5t-1.5 -18.5h-82q-5 91 -32.5 137.5t-85 63t-162.5 16.5 h-201q-8 -184 -8 -295v-221h170q115 0 163.5 30t55.5 123h88q-6 -115 -39 -217q36 -123 39 -221h-88q-3 67 -24 98.5t-65 42t-130 10.5h-170v-299q0 -114 16 -165.5t68.5 -69.5t171.5 -18q122 0 194 20.5t110.5 75.5t53.5 160h94q-12 -131 -57 -250q25 -43 25 -70 q0 -55 -61 -69.5t-228 -14.5q-110 0 -176.5 1t-147.5 7t-146.5 16t-141.5 31q-182 -48 -363 -57zM438 1593l172 258h135l173 -258h-74l-166 119l-166 -119h-74zM891 1765l194 205q60 66 105 66q19 0 37.5 -10t28.5 -28.5t10 -37.5q0 -46 -70 -80l-225 -115h-80z" />
<glyph unicode="&#x1ebf;" horiz-adv-x="1165" d="M63 485q0 156 74 282t204.5 196.5t291.5 70.5q134 0 240.5 -52t166.5 -140t60 -193q0 -21 -4 -61h-561q-42 0 -64.5 -6.5t-30.5 -22t-8 -45.5q0 -104 46.5 -191t130.5 -138.5t192 -51.5q77 0 155 28.5t140 82.5l34 -66q-78 -94 -213.5 -148.5t-306.5 -54.5 q-123 0 -223.5 36t-173 104t-111.5 162.5t-39 207.5zM352 1118l172 258h135l172 -258h-73l-166 119l-166 -119h-74zM422 717q1 -12 1.5 -21.5t0.5 -17.5h289q35 0 48 7.5t13 35.5q0 88 -53.5 152.5t-130.5 64.5q-75 0 -121.5 -60.5t-46.5 -160.5zM805 1290l194 205 q60 66 105 66q19 0 37.5 -10t28.5 -28.5t10 -37.5q0 -47 -70 -80l-225 -115h-80z" />
<glyph unicode="&#x1ec0;" horiz-adv-x="1401" d="M47 0v70q94 10 137 54t54.5 124t11.5 241v500q0 163 -11.5 245.5t-54.5 129t-137 59.5v70q217 -12 363 -57q129 33 283.5 45t377.5 12q86 0 117 -10.5t31 -44.5q0 -33 -33 -74q22 -110 22 -188q0 -14 -0.5 -22.5t-1.5 -18.5h-82q-5 91 -32.5 137.5t-85 63t-162.5 16.5 h-201q-8 -184 -8 -295v-221h170q115 0 163.5 30t55.5 123h88q-6 -115 -39 -217q36 -123 39 -221h-88q-3 67 -24 98.5t-65 42t-130 10.5h-170v-299q0 -114 16 -165.5t68.5 -69.5t171.5 -18q122 0 194 20.5t110.5 75.5t53.5 160h94q-12 -131 -57 -250q25 -43 25 -70 q0 -55 -61 -69.5t-228 -14.5q-110 0 -176.5 1t-147.5 7t-146.5 16t-141.5 31q-182 -48 -363 -57zM438 1593l172 258h135l173 -258h-74l-166 119l-166 -119h-74zM627 2044q0 33 21.5 54.5t53.5 21.5q45 0 105 -66l197 -203h-80l-228 113q-69 34 -69 80z" />
<glyph unicode="&#x1ec1;" horiz-adv-x="1165" d="M63 485q0 156 74 282t204.5 196.5t291.5 70.5q134 0 240.5 -52t166.5 -140t60 -193q0 -21 -4 -61h-561q-42 0 -64.5 -6.5t-30.5 -22t-8 -45.5q0 -104 46.5 -191t130.5 -138.5t192 -51.5q77 0 155 28.5t140 82.5l34 -66q-78 -94 -213.5 -148.5t-306.5 -54.5 q-123 0 -223.5 36t-173 104t-111.5 162.5t-39 207.5zM352 1118l172 258h135l172 -258h-73l-166 119l-166 -119h-74zM422 717q1 -12 1.5 -21.5t0.5 -17.5h289q35 0 48 7.5t13 35.5q0 88 -53.5 152.5t-130.5 64.5q-75 0 -121.5 -60.5t-46.5 -160.5zM541 1569q0 33 21.5 54.5 t53.5 21.5q45 0 105 -66l197 -203h-80l-228 113q-69 32 -69 80z" />
<glyph unicode="&#x1ec2;" horiz-adv-x="1401" d="M47 0v70q94 10 137 54t54.5 124t11.5 241v500q0 163 -11.5 245.5t-54.5 129t-137 59.5v70q217 -12 363 -57q129 33 283.5 45t377.5 12q86 0 117 -10.5t31 -44.5q0 -33 -33 -74q22 -110 22 -188q0 -14 -0.5 -22.5t-1.5 -18.5h-82q-5 91 -32.5 137.5t-85 63t-162.5 16.5 h-201q-8 -184 -8 -295v-221h170q115 0 163.5 30t55.5 123h88q-6 -115 -39 -217q36 -123 39 -221h-88q-3 67 -24 98.5t-65 42t-130 10.5h-170v-299q0 -114 16 -165.5t68.5 -69.5t171.5 -18q122 0 194 20.5t110.5 75.5t53.5 160h94q-12 -131 -57 -250q25 -43 25 -70 q0 -55 -61 -69.5t-228 -14.5q-110 0 -176.5 1t-147.5 7t-146.5 16t-141.5 31q-182 -48 -363 -57zM438 1593l172 258h135l173 -258h-74l-166 119l-166 -119h-74zM782 2040q0 39 48 65.5t128 26.5t125 -31t45 -84q0 -24 -10.5 -44.5t-28 -36t-47 -34.5t-61.5 -38 q-49 -28 -49 -54q0 -24 26 -24h9q0 -24 -8.5 -31.5t-32.5 -7.5q-25 0 -42.5 15.5t-17.5 43.5q0 27 15 50t47 55q32 34 43.5 55.5t11.5 65.5q0 31 -13 49t-36 18q-45 0 -45 -43q0 -20 12 -43l2 -4q-24 -16 -61 -16q-60 0 -60 47z" />
<glyph unicode="&#x1ec3;" horiz-adv-x="1165" d="M63 485q0 156 74 282t204.5 196.5t291.5 70.5q134 0 240.5 -52t166.5 -140t60 -193q0 -21 -4 -61h-561q-42 0 -64.5 -6.5t-30.5 -22t-8 -45.5q0 -104 46.5 -191t130.5 -138.5t192 -51.5q77 0 155 28.5t140 82.5l34 -66q-78 -94 -213.5 -148.5t-306.5 -54.5 q-123 0 -223.5 36t-173 104t-111.5 162.5t-39 207.5zM352 1118l172 258h135l172 -258h-73l-166 119l-166 -119h-74zM422 717q1 -12 1.5 -21.5t0.5 -17.5h289q35 0 48 7.5t13 35.5q0 88 -53.5 152.5t-130.5 64.5q-75 0 -121.5 -60.5t-46.5 -160.5zM696 1565q0 39 48 65.5 t128 26.5t125 -31t45 -84q0 -48 -26 -70.5t-121 -82.5q-49 -28 -49 -54q0 -24 26 -24h9q0 -24 -8.5 -31.5t-32.5 -7.5q-25 0 -42.5 15.5t-17.5 43.5q0 27 15 50t47 55q29 29 42 52.5t13 67.5q0 33 -13 50.5t-36 17.5q-45 0 -45 -43q0 -22 12 -43l2 -4q-24 -16 -61 -16 q-60 0 -60 47z" />
<glyph unicode="&#x1ec4;" horiz-adv-x="1401" d="M47 0v70q94 10 137 54t54.5 124t11.5 241v500q0 163 -11.5 245.5t-54.5 129t-137 59.5v70q217 -12 363 -57q129 33 283.5 45t377.5 12q86 0 117 -10.5t31 -44.5q0 -33 -33 -74q22 -110 22 -188q0 -14 -0.5 -22.5t-1.5 -18.5h-82q-5 91 -32.5 137.5t-85 63t-162.5 16.5 h-201q-8 -184 -8 -295v-221h170q115 0 163.5 30t55.5 123h88q-6 -115 -39 -217q36 -123 39 -221h-88q-3 67 -24 98.5t-65 42t-130 10.5h-170v-299q0 -114 16 -165.5t68.5 -69.5t171.5 -18q122 0 194 20.5t110.5 75.5t53.5 160h94q-12 -131 -57 -250q25 -43 25 -70 q0 -55 -61 -69.5t-228 -14.5q-110 0 -176.5 1t-147.5 7t-146.5 16t-141.5 31q-182 -48 -363 -57zM438 1593l172 258h135l173 -258h-74l-166 119l-166 -119h-74zM492 1933q33 183 159 183q35 0 54 -5l83 -20q26 -4 29 -4q48 0 66 61l49 2q-18 -93 -56.5 -137.5t-103.5 -44.5 q-27 0 -41 4l-80 23q-18 4 -37 4q-53 0 -65 -66h-57z" />
<glyph unicode="&#x1ec5;" horiz-adv-x="1165" d="M63 485q0 156 74 282t204.5 196.5t291.5 70.5q134 0 240.5 -52t166.5 -140t60 -193q0 -21 -4 -61h-561q-42 0 -64.5 -6.5t-30.5 -22t-8 -45.5q0 -104 46.5 -191t130.5 -138.5t192 -51.5q77 0 155 28.5t140 82.5l34 -66q-78 -94 -213.5 -148.5t-306.5 -54.5 q-123 0 -223.5 36t-173 104t-111.5 162.5t-39 207.5zM352 1118l172 258h135l172 -258h-73l-166 119l-166 -119h-74zM406 1458q33 182 159 182q35 0 53 -4l84 -20q26 -4 29 -4q48 0 66 61l49 2q-18 -93 -56.5 -137.5t-103.5 -44.5q-27 0 -41 4l-80 23q-18 4 -37 4 q-53 0 -65 -66h-57zM422 717q1 -12 1.5 -21.5t0.5 -17.5h289q35 0 48 7.5t13 35.5q0 88 -53.5 152.5t-130.5 64.5q-75 0 -121.5 -60.5t-46.5 -160.5z" />
<glyph unicode="&#x1ec6;" horiz-adv-x="1401" d="M47 0v70q94 10 137 54t54.5 124t11.5 241v500q0 163 -11.5 245.5t-54.5 129t-137 59.5v70q217 -12 363 -57q129 33 283.5 45t377.5 12q86 0 117 -10.5t31 -44.5q0 -33 -33 -74q22 -110 22 -188q0 -14 -0.5 -22.5t-1.5 -18.5h-82q-5 91 -32.5 137.5t-85 63t-162.5 16.5 h-201q-8 -184 -8 -295v-221h170q115 0 163.5 30t55.5 123h88q-6 -115 -39 -217q36 -123 39 -221h-88q-3 67 -24 98.5t-65 42t-130 10.5h-170v-299q0 -114 16 -165.5t68.5 -69.5t171.5 -18q122 0 194 20.5t110.5 75.5t53.5 160h94q-12 -131 -57 -250q25 -43 25 -70 q0 -55 -61 -69.5t-228 -14.5q-110 0 -176.5 1t-147.5 7t-146.5 16t-141.5 31q-182 -48 -363 -57zM438 1593l172 258h135l173 -258h-74l-166 119l-166 -119h-74zM584 -225q0 51 33.5 83.5t82.5 32.5q33 0 59.5 -15.5t42 -41.5t15.5 -59q0 -48 -33.5 -82.5t-83.5 -34.5 q-48 0 -82 34t-34 83z" />
<glyph unicode="&#x1ec7;" horiz-adv-x="1165" d="M63 485q0 156 74 282t204.5 196.5t291.5 70.5q134 0 240.5 -52t166.5 -140t60 -193q0 -21 -4 -61h-561q-42 0 -64.5 -6.5t-30.5 -22t-8 -45.5q0 -104 46.5 -191t130.5 -138.5t192 -51.5q77 0 155 28.5t140 82.5l34 -66q-78 -94 -213.5 -148.5t-306.5 -54.5 q-123 0 -223.5 36t-173 104t-111.5 162.5t-39 207.5zM352 1118l172 258h135l172 -258h-73l-166 119l-166 -119h-74zM422 717q1 -12 1.5 -21.5t0.5 -17.5h289q35 0 48 7.5t13 35.5q0 88 -53.5 152.5t-130.5 64.5q-75 0 -121.5 -60.5t-46.5 -160.5zM487 -240q0 50 33.5 83.5 t83.5 33.5q51 0 84 -34t33 -83q0 -47 -33.5 -81.5t-83.5 -34.5q-49 0 -83 34t-34 82z" />
<glyph unicode="&#x1ec8;" horiz-adv-x="924" d="M68 0v70q93 10 136 54t54.5 124t11.5 241v500q0 163 -11.5 245.5t-55 129t-135.5 59.5v70q150 -8 393 -57q241 49 397 57v-70q-70 -7 -112 -34t-62 -78.5t-25.5 -124.5t-5.5 -195v-471q0 -118 5 -195t25.5 -130.5t61 -84t113.5 -40.5v-70q-161 5 -395 57 q-243 -52 -395 -57zM340 1896q0 38 48 65.5t128 27.5t125 -31t45 -84q0 -48 -28.5 -72.5t-118.5 -81.5q-50 -27 -50 -53q0 -25 27 -25h8q0 -23 -8 -30.5t-33 -7.5q-26 0 -42.5 15.5t-16.5 43.5q0 43 61 104q30 30 43 53.5t13 67.5q0 22 -6.5 37t-17.5 23t-25 8 q-46 0 -46 -43q0 -20 13 -43l2 -4q-25 -17 -62 -17q-59 0 -59 47z" />
<glyph unicode="&#x1ec9;" horiz-adv-x="782" d="M57 0v72q82 4 117 34t44 89t9 194v211q0 116 -7 165t-34.5 73t-91.5 24h-12v70q145 22 242 22q43 0 90 -2q56 45 125 82l63 -39q-10 -59 -14 -142t-4 -167v-321q0 -83 4.5 -134.5t20 -85t49 -50.5t94.5 -23v-72q-173 3 -349 51q-183 -48 -346 -51zM248 1450 q0 39 48.5 65.5t127.5 26.5q80 0 125 -31t45 -84q0 -24 -10.5 -44.5t-28.5 -36t-47.5 -34.5t-61.5 -38q-49 -29 -49 -53q0 -25 27 -25h8q0 -24 -8 -31.5t-33 -7.5t-42 17t-17 43q0 43 61 104q31 31 43.5 54t12.5 67q0 31 -14 49t-36 18q-19 0 -32 -12t-13 -31q0 -21 13 -43 l2 -4q-25 -16 -62 -16q-59 0 -59 47z" />
<glyph unicode="&#x1eca;" horiz-adv-x="924" d="M68 0v70q93 10 136 54t54.5 124t11.5 241v500q0 163 -11.5 245.5t-55 129t-135.5 59.5v70q150 -8 393 -57q241 49 397 57v-70q-70 -7 -112 -34t-62 -78.5t-25.5 -124.5t-5.5 -195v-471q0 -118 5 -195t25.5 -130.5t61 -84t113.5 -40.5v-70q-161 5 -395 57 q-243 -52 -395 -57zM346 -219q0 50 33.5 83.5t83.5 33.5q51 0 84 -34t33 -83q0 -48 -33.5 -82.5t-83.5 -34.5q-49 0 -83 34t-34 83z" />
<glyph unicode="&#x1ecb;" horiz-adv-x="782" d="M57 0v72q82 4 117 34t44 89t9 194v211q0 116 -7 165t-34.5 73t-91.5 24h-12v70q145 22 242 22q43 0 90 -2q56 45 125 82l63 -39q-10 -59 -14 -142t-4 -167v-321q0 -83 4.5 -134.5t20 -85t49 -50.5t94.5 -23v-72q-173 3 -349 51q-183 -48 -346 -51zM287 -240 q0 50 33.5 83.5t82.5 33.5q51 0 84 -34t33 -83q0 -47 -33.5 -81.5t-83.5 -34.5q-48 0 -82 34t-34 82zM293 1321q0 50 33.5 83.5t83.5 33.5q51 0 83.5 -34t32.5 -83q0 -48 -32.5 -82.5t-83.5 -34.5q-49 0 -83 34t-34 83z" />
<glyph unicode="&#x1ecc;" d="M72 748q0 162 62 304.5t175 246.5t269 161.5t344 57.5q189 0 345.5 -58t269 -161.5t174 -244.5t61.5 -306q0 -161 -61 -304.5t-175.5 -248.5t-271.5 -162.5t-342 -57.5q-186 0 -343.5 58t-271 163t-174.5 248t-61 304zM522 748q0 -216 48 -369t138.5 -230t213.5 -77 t213.5 77t139 229t48.5 370q0 169 -27.5 293t-78.5 208t-126 128t-169 44q-125 0 -214.5 -76.5t-137.5 -229t-48 -367.5zM805 -244q0 50 33.5 83.5t83.5 33.5q51 0 83.5 -34t32.5 -83q0 -47 -32.5 -81.5t-83.5 -34.5q-49 0 -83 34t-34 82z" />
<glyph unicode="&#x1ecd;" horiz-adv-x="1358" d="M63 504q0 111 42.5 210t123 170.5t194 110.5t255.5 39q141 0 255.5 -39.5t194 -110.5t122 -168.5t42.5 -211.5q0 -151 -74 -271.5t-213.5 -189t-326.5 -68.5q-186 0 -326 68.5t-214.5 189t-74.5 271.5zM457 506q0 -216 56 -326t165 -110t166 109.5t57 326.5t-57 325.5 t-166 108.5q-110 0 -165.5 -109t-55.5 -325zM561 -244q0 50 33.5 83.5t83.5 33.5q51 0 84 -34t33 -83q0 -47 -33.5 -81.5t-83.5 -34.5q-49 0 -83 34t-34 82z" />
<glyph unicode="&#x1ece;" d="M72 748q0 162 62 304.5t175 246.5t269 161.5t344 57.5q189 0 345.5 -58t269 -161.5t174 -244.5t61.5 -306q0 -161 -61 -304.5t-175.5 -248.5t-271.5 -162.5t-342 -57.5q-186 0 -343.5 58t-271 163t-174.5 248t-61 304zM522 748q0 -216 48 -369t138.5 -230t213.5 -77 t213.5 77t139 229t48.5 370q0 169 -27.5 293t-78.5 208t-126 128t-169 44q-125 0 -214.5 -76.5t-137.5 -229t-48 -367.5zM799 1921q0 39 48.5 65.5t127.5 26.5q80 0 125 -31t45 -84q0 -24 -10.5 -44.5t-28.5 -36t-47.5 -34.5t-61.5 -38q-49 -29 -49 -53q0 -25 27 -25h8 q0 -24 -8 -31.5t-33 -7.5t-42 17t-17 43q0 43 61 104q29 29 42 53t13 68q0 31 -13 49t-36 18q-19 0 -32 -12t-13 -31q0 -21 13 -43l2 -4q-25 -16 -62 -16q-59 0 -59 47z" />
<glyph unicode="&#x1ecf;" horiz-adv-x="1358" d="M63 504q0 111 42.5 210t123 170.5t194 110.5t255.5 39q141 0 255.5 -39.5t194 -110.5t122 -168.5t42.5 -211.5q0 -151 -74 -271.5t-213.5 -189t-326.5 -68.5q-186 0 -326 68.5t-214.5 189t-74.5 271.5zM457 506q0 -216 56 -326t165 -110t166 109.5t57 326.5t-57 325.5 t-166 108.5q-110 0 -165.5 -109t-55.5 -325zM555 1448q0 39 48 65.5t128 26.5t125 -31t45 -84q0 -24 -10.5 -44.5t-28 -36t-47 -34.5t-61.5 -38q-49 -28 -49 -53t26 -25h8q0 -24 -8 -31.5t-33 -7.5q-26 0 -42.5 15.5t-16.5 43.5q0 42 61 105q31 31 43.5 54t12.5 67 q0 31 -14 49t-35 18q-45 0 -45 -43q0 -20 12 -43l2 -4q-25 -16 -62 -16q-59 0 -59 47z" />
<glyph unicode="&#x1ed0;" d="M72 748q0 162 62 304.5t175 246.5t269 161.5t344 57.5q189 0 345.5 -58t269 -161.5t174 -244.5t61.5 -306q0 -161 -61 -304.5t-175.5 -248.5t-271.5 -162.5t-342 -57.5q-186 0 -343.5 58t-271 163t-174.5 248t-61 304zM522 748q0 -216 48 -369t138.5 -230t213.5 -77 t213.5 77t139 229t48.5 370q0 169 -27.5 293t-78.5 208t-126 128t-169 44q-125 0 -214.5 -76.5t-137.5 -229t-48 -367.5zM688 1593l172 258h135l172 -258h-73l-166 119l-166 -119h-74zM1141 1765l194 205q60 66 105 66q19 0 37.5 -10t28.5 -28.5t10 -37.5q0 -46 -70 -80 l-225 -115h-80z" />
<glyph unicode="&#x1ed1;" horiz-adv-x="1358" d="M63 504q0 111 42.5 210t123 170.5t194 110.5t255.5 39q141 0 255.5 -39.5t194 -110.5t122 -168.5t42.5 -211.5q0 -151 -74 -271.5t-213.5 -189t-326.5 -68.5q-186 0 -326 68.5t-214.5 189t-74.5 271.5zM444 1116l172 258h136l172 -258h-74l-166 119l-166 -119h-74z M457 506q0 -216 56 -326t165 -110t166 109.5t57 326.5t-57 325.5t-166 108.5q-110 0 -165.5 -109t-55.5 -325zM897 1288l195 205q58 66 104 66q19 0 37.5 -10t28.5 -28.5t10 -37.5q0 -47 -70 -80l-225 -115h-80z" />
<glyph unicode="&#x1ed2;" d="M72 748q0 162 62 304.5t175 246.5t269 161.5t344 57.5q189 0 345.5 -58t269 -161.5t174 -244.5t61.5 -306q0 -161 -61 -304.5t-175.5 -248.5t-271.5 -162.5t-342 -57.5q-186 0 -343.5 58t-271 163t-174.5 248t-61 304zM522 748q0 -216 48 -369t138.5 -230t213.5 -77 t213.5 77t139 229t48.5 370q0 169 -27.5 293t-78.5 208t-126 128t-169 44q-125 0 -214.5 -76.5t-137.5 -229t-48 -367.5zM688 1593l172 258h135l172 -258h-73l-166 119l-166 -119h-74zM877 2044q0 33 21.5 54.5t53.5 21.5q45 0 105 -66l196 -203h-79l-228 113q-69 34 -69 80 z" />
<glyph unicode="&#x1ed3;" horiz-adv-x="1358" d="M63 504q0 111 42.5 210t123 170.5t194 110.5t255.5 39q141 0 255.5 -39.5t194 -110.5t122 -168.5t42.5 -211.5q0 -151 -74 -271.5t-213.5 -189t-326.5 -68.5q-186 0 -326 68.5t-214.5 189t-74.5 271.5zM444 1116l172 258h136l172 -258h-74l-166 119l-166 -119h-74z M457 506q0 -216 56 -326t165 -110t166 109.5t57 326.5t-57 325.5t-166 108.5q-110 0 -165.5 -109t-55.5 -325zM633 1567q0 32 22.5 53.5t53.5 21.5q45 0 104 -65l197 -203h-80l-228 113q-69 32 -69 80z" />
<glyph unicode="&#x1ed4;" d="M72 748q0 162 62 304.5t175 246.5t269 161.5t344 57.5q189 0 345.5 -58t269 -161.5t174 -244.5t61.5 -306q0 -161 -61 -304.5t-175.5 -248.5t-271.5 -162.5t-342 -57.5q-186 0 -343.5 58t-271 163t-174.5 248t-61 304zM522 748q0 -216 48 -369t138.5 -230t213.5 -77 t213.5 77t139 229t48.5 370q0 169 -27.5 293t-78.5 208t-126 128t-169 44q-125 0 -214.5 -76.5t-137.5 -229t-48 -367.5zM688 1593l172 258h135l172 -258h-73l-166 119l-166 -119h-74zM1032 2040q0 39 48 65.5t128 26.5t125 -31t45 -84q0 -24 -10.5 -44.5t-28 -36t-47 -34.5 t-61.5 -38q-49 -28 -49 -54q0 -24 26 -24h9q0 -24 -8.5 -31.5t-32.5 -7.5q-25 0 -42.5 15.5t-17.5 43.5q0 27 15 50t47 55q32 34 43.5 55.5t11.5 65.5q0 31 -14 49t-35 18q-45 0 -45 -43q0 -20 12 -43l2 -4q-24 -16 -61 -16q-60 0 -60 47z" />
<glyph unicode="&#x1ed5;" horiz-adv-x="1358" d="M63 504q0 111 42.5 210t123 170.5t194 110.5t255.5 39q141 0 255.5 -39.5t194 -110.5t122 -168.5t42.5 -211.5q0 -151 -74 -271.5t-213.5 -189t-326.5 -68.5q-186 0 -326 68.5t-214.5 189t-74.5 271.5zM444 1116l172 258h136l172 -258h-74l-166 119l-166 -119h-74z M457 506q0 -216 56 -326t165 -110t166 109.5t57 326.5t-57 325.5t-166 108.5q-110 0 -165.5 -109t-55.5 -325zM788 1563q0 39 48 65.5t129 26.5q80 0 125 -31t45 -84q0 -48 -29 -72.5t-119 -81.5q-49 -27 -49 -53q0 -24 27 -24h8q0 -24 -8 -31.5t-33 -7.5t-42.5 15.5 t-17.5 43.5q0 27 15 50t47 55q27 25 41 50.5t14 69.5q0 33 -13 50.5t-36 17.5q-45 0 -45 -43q0 -22 12 -43l2 -4q-24 -16 -61 -16q-60 0 -60 47z" />
<glyph unicode="&#x1ed6;" d="M72 748q0 162 62 304.5t175 246.5t269 161.5t344 57.5q189 0 345.5 -58t269 -161.5t174 -244.5t61.5 -306q0 -161 -61 -304.5t-175.5 -248.5t-271.5 -162.5t-342 -57.5q-186 0 -343.5 58t-271 163t-174.5 248t-61 304zM522 748q0 -216 48 -369t138.5 -230t213.5 -77 t213.5 77t139 229t48.5 370q0 169 -27.5 293t-78.5 208t-126 128t-169 44q-125 0 -214.5 -76.5t-137.5 -229t-48 -367.5zM688 1593l172 258h135l172 -258h-73l-166 119l-166 -119h-74zM741 1933q18 93 57 138t103 45q35 0 53 -5l84 -20q26 -4 29 -4q48 0 66 61l49 2 q-18 -93 -56.5 -137.5t-103.5 -44.5q-27 0 -41 4l-80 23q-18 4 -37 4q-53 0 -65 -66h-58z" />
<glyph unicode="&#x1ed7;" horiz-adv-x="1358" d="M63 504q0 111 42.5 210t123 170.5t194 110.5t255.5 39q141 0 255.5 -39.5t194 -110.5t122 -168.5t42.5 -211.5q0 -151 -74 -271.5t-213.5 -189t-326.5 -68.5q-186 0 -326 68.5t-214.5 189t-74.5 271.5zM444 1116l172 258h136l172 -258h-74l-166 119l-166 -119h-74z M457 506q0 -216 56 -326t165 -110t166 109.5t57 326.5t-57 325.5t-166 108.5q-110 0 -165.5 -109t-55.5 -325zM498 1456q33 182 159 182q35 0 54 -4l84 -20q24 -4 28 -4q49 0 66 61l49 2q-18 -93 -56.5 -137.5t-103.5 -44.5q-26 0 -41 4l-80 23q-18 4 -36 4q-54 0 -66 -66 h-57z" />
<glyph unicode="&#x1ed8;" d="M72 748q0 162 62 304.5t175 246.5t269 161.5t344 57.5q189 0 345.5 -58t269 -161.5t174 -244.5t61.5 -306q0 -161 -61 -304.5t-175.5 -248.5t-271.5 -162.5t-342 -57.5q-186 0 -343.5 58t-271 163t-174.5 248t-61 304zM522 748q0 -216 48 -369t138.5 -230t213.5 -77 t213.5 77t139 229t48.5 370q0 169 -27.5 293t-78.5 208t-126 128t-169 44q-125 0 -214.5 -76.5t-137.5 -229t-48 -367.5zM688 1593l172 258h135l172 -258h-73l-166 119l-166 -119h-74zM803 -225q0 51 33.5 83.5t83.5 32.5q33 0 59 -15.5t41.5 -41.5t15.5 -59 q0 -48 -32.5 -82.5t-83.5 -34.5q-49 0 -83 34t-34 83z" />
<glyph unicode="&#x1ed9;" horiz-adv-x="1358" d="M63 504q0 111 42.5 210t123 170.5t194 110.5t255.5 39q141 0 255.5 -39.5t194 -110.5t122 -168.5t42.5 -211.5q0 -151 -74 -271.5t-213.5 -189t-326.5 -68.5q-186 0 -326 68.5t-214.5 189t-74.5 271.5zM444 1116l172 258h136l172 -258h-74l-166 119l-166 -119h-74z M457 506q0 -216 56 -326t165 -110t166 109.5t57 326.5t-57 325.5t-166 108.5q-110 0 -165.5 -109t-55.5 -325zM559 -242q0 50 33.5 83.5t83.5 33.5q51 0 84 -34t33 -83q0 -47 -33.5 -81.5t-83.5 -34.5q-49 0 -83 34t-34 82z" />
<glyph unicode="&#x1eda;" d="M72 748q0 162 62 304.5t175 246.5t269 161.5t344 57.5q170 0 308.5 -45t232.5 -113.5t151 -147.5q38 2 86.5 33.5t54.5 61.5q8 24 8 36q0 48 -57 48q-14 20 -14 43q0 35 31.5 59.5t70.5 24.5q45 0 72.5 -31.5t27.5 -71.5q0 -64 -42.5 -127.5t-98.5 -103t-88 -39.5 q32 -49 56.5 -115t37.5 -141.5t13 -140.5q0 -161 -61 -304.5t-175.5 -248.5t-271.5 -162.5t-342 -57.5q-186 0 -343.5 58t-271 163t-174.5 248t-61 304zM522 748q0 -216 48 -369t138.5 -230t213.5 -77t213.5 77t139 229t48.5 370q0 169 -27.5 293t-78.5 208t-126 128 t-169 44q-125 0 -214.5 -76.5t-137.5 -229t-48 -367.5zM764 1636l194 205q60 66 105 66q19 0 37.5 -10t28.5 -28.5t10 -37.5q0 -46 -70 -80l-225 -115h-80z" />
<glyph unicode="&#x1edb;" horiz-adv-x="1358" d="M63 504q0 111 42.5 210t123 170.5t194 110.5t255.5 39q103 0 193.5 -21.5t159 -59.5t124.5 -97.5t88 -128.5q31 6 69 36t44 58q8 26 8 37q0 47 -57 47q-15 20 -15 43q0 35 31.5 59.5t71.5 24.5q45 0 72.5 -30.5t27.5 -71.5q0 -53 -43 -115.5t-98.5 -104.5t-85.5 -42 q24 -77 24 -164q0 -151 -74 -271.5t-213.5 -189t-326.5 -68.5q-186 0 -326 68.5t-214.5 189t-74.5 271.5zM457 506q0 -216 56 -326t165 -110t166 109.5t57 326.5t-57 325.5t-166 108.5q-110 0 -165.5 -109t-55.5 -325zM541 1153l194 205q59 65 105 65q31 0 53 -22t22 -53 q0 -48 -69 -80l-225 -115h-80z" />
<glyph unicode="&#x1edc;" d="M72 748q0 162 62 304.5t175 246.5t269 161.5t344 57.5q170 0 308.5 -45t232.5 -113.5t151 -147.5q38 2 86.5 33.5t54.5 61.5q8 24 8 36q0 48 -57 48q-14 20 -14 43q0 35 31.5 59.5t70.5 24.5q45 0 72.5 -31.5t27.5 -71.5q0 -64 -42.5 -127.5t-98.5 -103t-88 -39.5 q32 -49 56.5 -115t37.5 -141.5t13 -140.5q0 -161 -61 -304.5t-175.5 -248.5t-271.5 -162.5t-342 -57.5q-186 0 -343.5 58t-271 163t-174.5 248t-61 304zM522 748q0 -216 48 -369t138.5 -230t213.5 -77t213.5 77t139 229t48.5 370q0 169 -27.5 293t-78.5 208t-126 128 t-169 44q-125 0 -214.5 -76.5t-137.5 -229t-48 -367.5zM745 1823q0 32 22.5 53.5t53.5 21.5q46 0 105 -65l196 -203h-80l-227 113q-37 18 -53.5 36.5t-16.5 43.5z" />
<glyph unicode="&#x1edd;" horiz-adv-x="1358" d="M63 504q0 111 42.5 210t123 170.5t194 110.5t255.5 39q103 0 193.5 -21.5t159 -59.5t124.5 -97.5t88 -128.5q31 6 69 36t44 58q8 26 8 37q0 47 -57 47q-15 20 -15 43q0 35 31.5 59.5t71.5 24.5q45 0 72.5 -30.5t27.5 -71.5q0 -53 -43 -115.5t-98.5 -104.5t-85.5 -42 q24 -77 24 -164q0 -151 -74 -271.5t-213.5 -189t-326.5 -68.5q-186 0 -326 68.5t-214.5 189t-74.5 271.5zM457 506q0 -216 56 -326t165 -110t166 109.5t57 326.5t-57 325.5t-166 108.5q-110 0 -165.5 -109t-55.5 -325zM502 1339q0 34 22 55t54 21q45 0 104 -65l197 -203h-80 l-228 113q-69 32 -69 79z" />
<glyph unicode="&#x1ede;" d="M72 748q0 162 62 304.5t175 246.5t269 161.5t344 57.5q170 0 308.5 -45t232.5 -113.5t151 -147.5q38 2 86.5 33.5t54.5 61.5q8 24 8 36q0 48 -57 48q-14 20 -14 43q0 35 31.5 59.5t70.5 24.5q45 0 72.5 -31.5t27.5 -71.5q0 -64 -42.5 -127.5t-98.5 -103t-88 -39.5 q32 -49 56.5 -115t37.5 -141.5t13 -140.5q0 -161 -61 -304.5t-175.5 -248.5t-271.5 -162.5t-342 -57.5q-186 0 -343.5 58t-271 163t-174.5 248t-61 304zM522 748q0 -216 48 -369t138.5 -230t213.5 -77t213.5 77t139 229t48.5 370q0 169 -27.5 293t-78.5 208t-126 128 t-169 44q-125 0 -214.5 -76.5t-137.5 -229t-48 -367.5zM799 1921q0 39 48.5 65.5t127.5 26.5q80 0 125 -31t45 -84q0 -24 -10.5 -44.5t-28.5 -36t-47.5 -34.5t-61.5 -38q-49 -29 -49 -53q0 -25 27 -25h8q0 -24 -8 -31.5t-33 -7.5t-42 17t-17 43q0 43 61 104q29 29 42 53 t13 68q0 31 -13 49t-36 18q-19 0 -32 -12t-13 -31q0 -21 13 -43l2 -4q-25 -16 -62 -16q-59 0 -59 47z" />
<glyph unicode="&#x1edf;" horiz-adv-x="1358" d="M63 504q0 111 42.5 210t123 170.5t194 110.5t255.5 39q103 0 193.5 -21.5t159 -59.5t124.5 -97.5t88 -128.5q31 6 69 36t44 58q8 26 8 37q0 47 -57 47q-15 20 -15 43q0 35 31.5 59.5t71.5 24.5q45 0 72.5 -30.5t27.5 -71.5q0 -53 -43 -115.5t-98.5 -104.5t-85.5 -42 q24 -77 24 -164q0 -151 -74 -271.5t-213.5 -189t-326.5 -68.5q-186 0 -326 68.5t-214.5 189t-74.5 271.5zM457 506q0 -216 56 -326t165 -110t166 109.5t57 326.5t-57 325.5t-166 108.5q-110 0 -165.5 -109t-55.5 -325zM555 1448q0 39 48 65.5t128 26.5t125 -31t45 -84 q0 -24 -10.5 -44.5t-28 -36t-47 -34.5t-61.5 -38q-49 -28 -49 -53t26 -25h8q0 -24 -8 -31.5t-33 -7.5q-26 0 -42.5 15.5t-16.5 43.5q0 42 61 105q31 31 43.5 54t12.5 67q0 31 -14 49t-35 18q-45 0 -45 -43q0 -20 12 -43l2 -4q-25 -16 -62 -16q-59 0 -59 47z" />
<glyph unicode="&#x1ee0;" d="M72 748q0 162 62 304.5t175 246.5t269 161.5t344 57.5q170 0 308.5 -45t232.5 -113.5t151 -147.5q38 2 86.5 33.5t54.5 61.5q8 24 8 36q0 48 -57 48q-14 20 -14 43q0 35 31.5 59.5t70.5 24.5q45 0 72.5 -31.5t27.5 -71.5q0 -64 -42.5 -127.5t-98.5 -103t-88 -39.5 q32 -49 56.5 -115t37.5 -141.5t13 -140.5q0 -161 -61 -304.5t-175.5 -248.5t-271.5 -162.5t-342 -57.5q-186 0 -343.5 58t-271 163t-174.5 248t-61 304zM522 748q0 -216 48 -369t138.5 -230t213.5 -77t213.5 77t139 229t48.5 370q0 169 -27.5 293t-78.5 208t-126 128 t-169 44q-125 0 -214.5 -76.5t-137.5 -229t-48 -367.5zM702 1620q34 182 160 182q35 0 53 -4l84 -20q26 -4 29 -4q48 0 66 61l49 2q-18 -93 -56.5 -137.5t-103.5 -44.5q-27 0 -41 4l-80 22q-18 5 -37 5q-53 0 -65 -66h-58z" />
<glyph unicode="&#x1ee1;" horiz-adv-x="1358" d="M63 504q0 111 42.5 210t123 170.5t194 110.5t255.5 39q103 0 193.5 -21.5t159 -59.5t124.5 -97.5t88 -128.5q31 6 69 36t44 58q8 26 8 37q0 47 -57 47q-15 20 -15 43q0 35 31.5 59.5t71.5 24.5q45 0 72.5 -30.5t27.5 -71.5q0 -53 -43 -115.5t-98.5 -104.5t-85.5 -42 q24 -77 24 -164q0 -151 -74 -271.5t-213.5 -189t-326.5 -68.5q-186 0 -326 68.5t-214.5 189t-74.5 271.5zM457 506q0 -216 56 -326t165 -110t166 109.5t57 326.5t-57 325.5t-166 108.5q-110 0 -165.5 -109t-55.5 -325zM479 1137q34 182 160 182q35 0 53 -4l84 -21 q24 -4 29 -4q26 0 40.5 14t24.5 48l50 2q-18 -93 -57 -138t-103 -45q-27 0 -41 5l-80 22q-18 4 -37 4q-53 0 -65 -65h-58z" />
<glyph unicode="&#x1ee2;" d="M72 748q0 162 62 304.5t175 246.5t269 161.5t344 57.5q170 0 308.5 -45t232.5 -113.5t151 -147.5q38 2 86.5 33.5t54.5 61.5q8 24 8 36q0 48 -57 48q-14 20 -14 43q0 35 31.5 59.5t70.5 24.5q45 0 72.5 -31.5t27.5 -71.5q0 -64 -42.5 -127.5t-98.5 -103t-88 -39.5 q32 -49 56.5 -115t37.5 -141.5t13 -140.5q0 -161 -61 -304.5t-175.5 -248.5t-271.5 -162.5t-342 -57.5q-186 0 -343.5 58t-271 163t-174.5 248t-61 304zM522 748q0 -216 48 -369t138.5 -230t213.5 -77t213.5 77t139 229t48.5 370q0 169 -27.5 293t-78.5 208t-126 128 t-169 44q-125 0 -214.5 -76.5t-137.5 -229t-48 -367.5zM805 -244q0 50 33.5 83.5t83.5 33.5q51 0 83.5 -34t32.5 -83q0 -47 -32.5 -81.5t-83.5 -34.5q-49 0 -83 34t-34 82z" />
<glyph unicode="&#x1ee3;" horiz-adv-x="1358" d="M63 504q0 111 42.5 210t123 170.5t194 110.5t255.5 39q103 0 193.5 -21.5t159 -59.5t124.5 -97.5t88 -128.5q31 6 69 36t44 58q8 26 8 37q0 47 -57 47q-15 20 -15 43q0 35 31.5 59.5t71.5 24.5q45 0 72.5 -30.5t27.5 -71.5q0 -53 -43 -115.5t-98.5 -104.5t-85.5 -42 q24 -77 24 -164q0 -151 -74 -271.5t-213.5 -189t-326.5 -68.5q-186 0 -326 68.5t-214.5 189t-74.5 271.5zM457 506q0 -216 56 -326t165 -110t166 109.5t57 326.5t-57 325.5t-166 108.5q-110 0 -165.5 -109t-55.5 -325zM561 -244q0 50 33.5 83.5t83.5 33.5q51 0 84 -34 t33 -83q0 -47 -33.5 -81.5t-83.5 -34.5q-49 0 -83 34t-34 82z" />
<glyph unicode="&#x1ee4;" horiz-adv-x="1835" d="M61 1421v72q136 -5 375 -57q221 52 375 57v-72q-87 -7 -128 -50t-51.5 -121.5t-10.5 -237.5v-107q0 -201 13 -339.5t42 -213.5q43 -102 130 -156.5t210 -54.5q241 0 342 191q40 74 52.5 190t12.5 314v200q0 154 -12 226t-57.5 110.5t-147.5 48.5v72q130 -6 297 -45 q176 38 283 45v-72q-88 -4 -130.5 -40t-54.5 -103.5t-12 -194.5v-325q0 -137 -9.5 -232t-37 -178.5t-76.5 -148.5q-54 -72 -135.5 -123t-190 -76t-233.5 -25q-317 0 -485 152q-72 64 -111.5 151.5t-54 196t-14.5 262.5v330q0 110 -4 166t-20.5 97.5t-53.5 64t-103 26.5z M807 -244q0 50 33.5 83.5t83.5 33.5q51 0 83.5 -34t32.5 -83q0 -47 -32.5 -81.5t-83.5 -34.5q-49 0 -83 34t-34 82z" />
<glyph unicode="&#x1ee5;" horiz-adv-x="1450" d="M41 852v70q150 24 311 24q57 47 127 84l66 -39q-17 -116 -17 -389v-110q0 -132 14 -209t50.5 -116.5t103.5 -39.5q94 0 145.5 77.5t51.5 227.5v154q0 120 -7 171t-32.5 76t-87.5 27v72q129 22 274 22h35q57 47 127 84l66 -37q-23 -150 -23 -311v-235q0 -102 13 -169.5 t43.5 -99.5t82.5 -32q4 0 46 4l12 -78q-121 -33 -305 -33h-37q-62 -32 -105 -65l-67 38q-19 61 -19 158q-29 -63 -83.5 -108t-131.5 -69t-174 -24q-106 0 -173 30t-106.5 90t-56 151.5t-16.5 214.5v131q0 113 -7 161t-32.5 71.5t-87.5 25.5zM625 -242q0 50 33.5 83.5 t82.5 33.5q51 0 84 -34t33 -83q0 -47 -33.5 -81.5t-83.5 -34.5q-48 0 -82 34t-34 82z" />
<glyph unicode="&#x1ee6;" horiz-adv-x="1835" d="M61 1421v72q136 -5 375 -57q221 52 375 57v-72q-87 -7 -128 -50t-51.5 -121.5t-10.5 -237.5v-107q0 -201 13 -339.5t42 -213.5q43 -102 130 -156.5t210 -54.5q241 0 342 191q40 74 52.5 190t12.5 314v200q0 154 -12 226t-57.5 110.5t-147.5 48.5v72q130 -6 297 -45 q176 38 283 45v-72q-88 -4 -130.5 -40t-54.5 -103.5t-12 -194.5v-325q0 -137 -9.5 -232t-37 -178.5t-76.5 -148.5q-54 -72 -135.5 -123t-190 -76t-233.5 -25q-317 0 -485 152q-72 64 -111.5 151.5t-54 196t-14.5 262.5v330q0 110 -4 166t-20.5 97.5t-53.5 64t-103 26.5z M872 1907q0 39 48 65.5t129 26.5q80 0 125 -31t45 -84q0 -48 -26.5 -70.5t-121.5 -82.5q-49 -28 -49 -54q0 -24 27 -24h8q0 -24 -8 -31.5t-33 -7.5t-42.5 15.5t-17.5 43.5q0 27 15 50t47 55q27 25 41 50.5t14 69.5q0 32 -13 50t-36 18q-45 0 -45 -43q0 -22 12 -43l2 -4 q-24 -16 -61 -16q-60 0 -60 47z" />
<glyph unicode="&#x1ee7;" horiz-adv-x="1450" d="M41 852v70q150 24 311 24q57 47 127 84l66 -39q-17 -116 -17 -389v-110q0 -132 14 -209t50.5 -116.5t103.5 -39.5q94 0 145.5 77.5t51.5 227.5v154q0 120 -7 171t-32.5 76t-87.5 27v72q129 22 274 22h35q57 47 127 84l66 -37q-23 -150 -23 -311v-235q0 -102 13 -169.5 t43.5 -99.5t82.5 -32q4 0 46 4l12 -78q-121 -33 -305 -33h-37q-62 -32 -105 -65l-67 38q-19 61 -19 158q-29 -63 -83.5 -108t-131.5 -69t-174 -24q-106 0 -173 30t-106.5 90t-56 151.5t-16.5 214.5v131q0 113 -7 161t-32.5 71.5t-87.5 25.5zM670 1421q0 39 48.5 65.5 t127.5 26.5q80 0 125 -31t45 -83q0 -25 -10.5 -45.5t-28.5 -36t-47.5 -34.5t-61.5 -38q-49 -28 -49 -53t27 -25h8q0 -24 -8 -31.5t-33 -7.5t-42 17t-17 43q0 43 61 104q28 28 41.5 52.5t13.5 68.5q0 33 -13 50.5t-36 17.5q-20 0 -32.5 -11.5t-12.5 -31.5q0 -22 12 -43l3 -4 q-25 -17 -62 -17q-59 0 -59 47z" />
<glyph unicode="&#x1ee8;" horiz-adv-x="1835" d="M61 1421v72q136 -5 375 -57q221 52 375 57v-72q-87 -7 -128 -50t-51.5 -121.5t-10.5 -237.5v-107q0 -201 13 -339.5t42 -213.5q43 -102 130 -156.5t210 -54.5q241 0 342 191q40 74 52.5 190t12.5 314v200q0 154 -12 226t-57.5 110.5t-147.5 48.5v72q130 -6 297 -45 q23 5 51.5 11t34.5 7v-280q37 1 86.5 34t55.5 60q8 24 8 37q0 47 -58 47q-14 20 -14 43q0 35 31.5 59.5t70.5 24.5q45 0 73 -30t28 -72q-4 -74 -57.5 -136t-121 -97.5t-102.5 -35.5v-362q0 -137 -9.5 -232t-37 -178.5t-76.5 -148.5q-54 -72 -135.5 -123t-190 -76t-233.5 -25 q-317 0 -485 152q-72 64 -111.5 151.5t-54 196t-14.5 262.5v330q0 110 -4 166t-20.5 97.5t-53.5 64t-103 26.5zM961 1622l194 205q59 65 105 65q31 0 53 -22t22 -53q0 -48 -69 -80l-226 -115h-79z" />
<glyph unicode="&#x1ee9;" horiz-adv-x="1450" d="M41 852v70q150 24 311 24q57 47 127 84l66 -39q-17 -116 -17 -389v-110q0 -132 14 -209t50.5 -116.5t103.5 -39.5q94 0 145.5 77.5t51.5 227.5v154q0 120 -7 171t-32.5 76t-87.5 27v72q129 22 274 22h35q57 47 127 84l43 -26v-287q37 1 86 33.5t55 60.5q9 22 9 37 q0 47 -58 47q-14 21 -14 43q0 35 31.5 59.5t70.5 24.5q45 0 73 -30t28 -72q-4 -74 -57.5 -136t-121 -97.5t-102.5 -35.5v-204q0 -102 13 -169.5t43.5 -99.5t82.5 -32q4 0 46 4l12 -78q-121 -33 -305 -33h-37q-62 -32 -105 -65l-67 38q-19 61 -19 158q-29 -63 -83.5 -108 t-131.5 -69t-174 -24q-106 0 -173 30t-106.5 90t-56 151.5t-16.5 214.5v131q0 113 -7 161t-32.5 71.5t-87.5 25.5zM623 1147l194 205q59 65 105 65q32 0 53.5 -21.5t21.5 -54.5q0 -47 -69 -79l-226 -115h-79z" />
<glyph unicode="&#x1eea;" horiz-adv-x="1835" d="M61 1421v72q136 -5 375 -57q221 52 375 57v-72q-87 -7 -128 -50t-51.5 -121.5t-10.5 -237.5v-107q0 -201 13 -339.5t42 -213.5q43 -102 130 -156.5t210 -54.5q241 0 342 191q40 74 52.5 190t12.5 314v200q0 154 -12 226t-57.5 110.5t-147.5 48.5v72q130 -6 297 -45 q23 5 51.5 11t34.5 7v-280q37 1 86.5 34t55.5 60q8 24 8 37q0 47 -58 47q-14 20 -14 43q0 35 31.5 59.5t70.5 24.5q45 0 73 -30t28 -72q-4 -74 -57.5 -136t-121 -97.5t-102.5 -35.5v-362q0 -137 -9.5 -232t-37 -178.5t-76.5 -148.5q-54 -72 -135.5 -123t-190 -76t-233.5 -25 q-317 0 -485 152q-72 64 -111.5 151.5t-54 196t-14.5 262.5v330q0 110 -4 166t-20.5 97.5t-53.5 64t-103 26.5zM707 1808q0 33 21.5 54.5t53.5 21.5q46 0 105 -65l196 -203h-79l-228 113q-69 32 -69 79z" />
<glyph unicode="&#x1eeb;" horiz-adv-x="1450" d="M41 852v70q150 24 311 24q57 47 127 84l66 -39q-17 -116 -17 -389v-110q0 -132 14 -209t50.5 -116.5t103.5 -39.5q94 0 145.5 77.5t51.5 227.5v154q0 120 -7 171t-32.5 76t-87.5 27v72q129 22 274 22h35q57 47 127 84l43 -26v-287q37 1 86 33.5t55 60.5q9 22 9 37 q0 47 -58 47q-14 21 -14 43q0 35 31.5 59.5t70.5 24.5q45 0 73 -30t28 -72q-4 -74 -57.5 -136t-121 -97.5t-102.5 -35.5v-204q0 -102 13 -169.5t43.5 -99.5t82.5 -32q4 0 46 4l12 -78q-121 -33 -305 -33h-37q-62 -32 -105 -65l-67 38q-19 61 -19 158q-29 -63 -83.5 -108 t-131.5 -69t-174 -24q-106 0 -173 30t-106.5 90t-56 151.5t-16.5 214.5v131q0 113 -7 161t-32.5 71.5t-87.5 25.5zM522 1343q0 34 22 55t54 21q47 0 104 -65l197 -203h-80l-227 113q-70 33 -70 79z" />
<glyph unicode="&#x1eec;" horiz-adv-x="1835" d="M61 1421v72q136 -5 375 -57q221 52 375 57v-72q-87 -7 -128 -50t-51.5 -121.5t-10.5 -237.5v-107q0 -201 13 -339.5t42 -213.5q43 -102 130 -156.5t210 -54.5q241 0 342 191q40 74 52.5 190t12.5 314v200q0 154 -12 226t-57.5 110.5t-147.5 48.5v72q130 -6 297 -45 q23 5 51.5 11t34.5 7v-280q37 1 86.5 34t55.5 60q8 24 8 37q0 47 -58 47q-14 20 -14 43q0 35 31.5 59.5t70.5 24.5q45 0 73 -30t28 -72q-4 -74 -57.5 -136t-121 -97.5t-102.5 -35.5v-362q0 -137 -9.5 -232t-37 -178.5t-76.5 -148.5q-54 -72 -135.5 -123t-190 -76t-233.5 -25 q-317 0 -485 152q-72 64 -111.5 151.5t-54 196t-14.5 262.5v330q0 110 -4 166t-20.5 97.5t-53.5 64t-103 26.5zM872 1907q0 39 48 65.5t129 26.5q80 0 125 -31t45 -84q0 -48 -26.5 -70.5t-121.5 -82.5q-49 -28 -49 -54q0 -24 27 -24h8q0 -24 -8 -31.5t-33 -7.5t-42.5 15.5 t-17.5 43.5q0 27 15 50t47 55q27 25 41 50.5t14 69.5q0 32 -13 50t-36 18q-45 0 -45 -43q0 -22 12 -43l2 -4q-24 -16 -61 -16q-60 0 -60 47z" />
<glyph unicode="&#x1eed;" horiz-adv-x="1450" d="M41 852v70q150 24 311 24q57 47 127 84l66 -39q-17 -116 -17 -389v-110q0 -132 14 -209t50.5 -116.5t103.5 -39.5q94 0 145.5 77.5t51.5 227.5v154q0 120 -7 171t-32.5 76t-87.5 27v72q129 22 274 22h35q57 47 127 84l43 -26v-287q37 1 86 33.5t55 60.5q9 22 9 37 q0 47 -58 47q-14 21 -14 43q0 35 31.5 59.5t70.5 24.5q45 0 73 -30t28 -72q-4 -74 -57.5 -136t-121 -97.5t-102.5 -35.5v-204q0 -102 13 -169.5t43.5 -99.5t82.5 -32q4 0 46 4l12 -78q-121 -33 -305 -33h-37q-62 -32 -105 -65l-67 38q-19 61 -19 158q-29 -63 -83.5 -108 t-131.5 -69t-174 -24q-106 0 -173 30t-106.5 90t-56 151.5t-16.5 214.5v131q0 113 -7 161t-32.5 71.5t-87.5 25.5zM647 1432q0 39 48 65.5t128 26.5t125 -31t45 -84q0 -48 -28.5 -72.5t-118.5 -81.5q-49 -27 -49 -53q0 -24 26 -24h8q0 -24 -8 -31.5t-32 -7.5 q-25 0 -42.5 15.5t-17.5 43.5q0 27 15 50t47 55q29 29 42 52.5t13 67.5q0 22 -6.5 37t-17.5 23t-25 8q-45 0 -45 -43q0 -22 12 -43l2 -4q-25 -17 -61 -17q-26 0 -43 13.5t-17 34.5z" />
<glyph unicode="&#x1eee;" horiz-adv-x="1835" d="M61 1421v72q136 -5 375 -57q221 52 375 57v-72q-87 -7 -128 -50t-51.5 -121.5t-10.5 -237.5v-107q0 -201 13 -339.5t42 -213.5q43 -102 130 -156.5t210 -54.5q241 0 342 191q40 74 52.5 190t12.5 314v200q0 154 -12 226t-57.5 110.5t-147.5 48.5v72q130 -6 297 -45 q23 5 51.5 11t34.5 7v-280q37 1 86.5 34t55.5 60q8 24 8 37q0 47 -58 47q-14 20 -14 43q0 35 31.5 59.5t70.5 24.5q45 0 73 -30t28 -72q-4 -74 -57.5 -136t-121 -97.5t-102.5 -35.5v-362q0 -137 -9.5 -232t-37 -178.5t-76.5 -148.5q-54 -72 -135.5 -123t-190 -76t-233.5 -25 q-317 0 -485 152q-72 64 -111.5 151.5t-54 196t-14.5 262.5v330q0 110 -4 166t-20.5 97.5t-53.5 64t-103 26.5zM807 1606q33 182 160 182q34 0 53 -4l84 -21q24 -4 29 -4q24 0 40 15t25 47l49 2q-18 -94 -56.5 -138.5t-103.5 -44.5q-26 0 -40 5l-80 22q-19 4 -37 4 q-54 0 -66 -65h-57z" />
<glyph unicode="&#x1eef;" horiz-adv-x="1450" d="M41 852v70q150 24 311 24q57 47 127 84l66 -39q-17 -116 -17 -389v-110q0 -132 14 -209t50.5 -116.5t103.5 -39.5q94 0 145.5 77.5t51.5 227.5v154q0 120 -7 171t-32.5 76t-87.5 27v72q129 22 274 22h35q57 47 127 84l43 -26v-287q37 1 86 33.5t55 60.5q9 22 9 37 q0 47 -58 47q-14 21 -14 43q0 35 31.5 59.5t70.5 24.5q45 0 73 -30t28 -72q-4 -74 -57.5 -136t-121 -97.5t-102.5 -35.5v-204q0 -102 13 -169.5t43.5 -99.5t82.5 -32q4 0 46 4l12 -78q-121 -33 -305 -33h-37q-62 -32 -105 -65l-67 38q-19 61 -19 158q-29 -63 -83.5 -108 t-131.5 -69t-174 -24q-106 0 -173 30t-106.5 90t-56 151.5t-16.5 214.5v131q0 113 -7 161t-32.5 71.5t-87.5 25.5zM510 1161q33 182 160 182q35 0 53 -4l84 -20q24 -4 29 -4q48 0 65 61l49 2q-18 -94 -56 -138t-103 -44q-27 0 -41 4l-80 23q-19 4 -37 4q-54 0 -66 -66h-57z " />
<glyph unicode="&#x1ef0;" horiz-adv-x="1835" d="M61 1421v72q136 -5 375 -57q221 52 375 57v-72q-87 -7 -128 -50t-51.5 -121.5t-10.5 -237.5v-107q0 -201 13 -339.5t42 -213.5q43 -102 130 -156.5t210 -54.5q241 0 342 191q40 74 52.5 190t12.5 314v200q0 154 -12 226t-57.5 110.5t-147.5 48.5v72q130 -6 297 -45 q23 5 51.5 11t34.5 7v-280q37 1 86.5 34t55.5 60q8 24 8 37q0 47 -58 47q-14 20 -14 43q0 35 31.5 59.5t70.5 24.5q45 0 73 -30t28 -72q-4 -74 -57.5 -136t-121 -97.5t-102.5 -35.5v-362q0 -137 -9.5 -232t-37 -178.5t-76.5 -148.5q-54 -72 -135.5 -123t-190 -76t-233.5 -25 q-317 0 -485 152q-72 64 -111.5 151.5t-54 196t-14.5 262.5v330q0 110 -4 166t-20.5 97.5t-53.5 64t-103 26.5zM807 -244q0 50 33.5 83.5t83.5 33.5q51 0 83.5 -34t32.5 -83q0 -47 -32.5 -81.5t-83.5 -34.5q-49 0 -83 34t-34 82z" />
<glyph unicode="&#x1ef1;" horiz-adv-x="1450" d="M41 852v70q150 24 311 24q57 47 127 84l66 -39q-17 -116 -17 -389v-110q0 -132 14 -209t50.5 -116.5t103.5 -39.5q94 0 145.5 77.5t51.5 227.5v154q0 120 -7 171t-32.5 76t-87.5 27v72q129 22 274 22h35q57 47 127 84l43 -26v-287q37 1 86 33.5t55 60.5q9 22 9 37 q0 47 -58 47q-14 21 -14 43q0 35 31.5 59.5t70.5 24.5q45 0 73 -30t28 -72q-4 -74 -57.5 -136t-121 -97.5t-102.5 -35.5v-204q0 -102 13 -169.5t43.5 -99.5t82.5 -32q4 0 46 4l12 -78q-121 -33 -305 -33h-37q-62 -32 -105 -65l-67 38q-19 61 -19 158q-29 -63 -83.5 -108 t-131.5 -69t-174 -24q-106 0 -173 30t-106.5 90t-56 151.5t-16.5 214.5v131q0 113 -7 161t-32.5 71.5t-87.5 25.5zM602 -231q0 51 33.5 83.5t83.5 32.5q33 0 59.5 -15.5t42 -43t15.5 -57.5q0 -48 -33.5 -82.5t-83.5 -34.5q-49 0 -83 34t-34 83z" />
<glyph unicode="&#x1ef2;" horiz-adv-x="1526" d="M-25 1421v72q184 -9 363 -51q71 20 155.5 32t188.5 19v-72q-55 -8 -78.5 -23t-23.5 -48q0 -86 303 -557q87 148 145 253t86.5 174t28.5 111q0 84 -129 90v72q151 -6 299 -45q128 35 268 45v-72q-69 -7 -120 -44t-95 -94t-127 -181q-171 -265 -213 -361q-37 -87 -37 -215 v-20q0 -165 14 -250.5t62.5 -131t148.5 -54.5v-70q-167 5 -413 57q-245 -52 -416 -57v70q88 5 136.5 38t68.5 101.5t20 183.5v72q0 66 -5 106.5t-25 79.5q-22 49 -84.5 146.5t-161.5 240.5q-109 159 -159.5 227t-100.5 111.5t-99 44.5zM571 1808q0 34 22 55t54 21 q46 0 105 -65l196 -203h-80l-227 113q-70 33 -70 79z" />
<glyph unicode="&#x1ef3;" horiz-adv-x="1210" d="M-35 924v67q171 -6 314 -53q138 44 317 53v-67q-82 -6 -82 -78q0 -37 29.5 -124t89.5 -206l92 -184l88 211q61 144 61 235q0 137 -124 146v67q130 -3 276 -41q119 35 225 41v-67q-74 -1 -137 -75.5t-128.5 -209.5t-180.5 -403q-124 -286 -180 -409t-124 -230t-142 -160 t-171 -53q-67 0 -108 34t-41 86q0 71 45 119q58 -39 119 -39q74 0 132 38t110 117.5t104 197.5q-11 30 -35 85t-43 92.5t-36.5 72.5l-28.5 57l-156 311q-71 140 -111 210.5t-82 112.5t-92 46zM371 1327q0 33 21.5 54.5t53.5 21.5q45 0 105 -66l197 -202h-80l-228 112 q-69 34 -69 80z" />
<glyph unicode="&#x1ef4;" horiz-adv-x="1526" d="M-25 1421v72q184 -9 363 -51q71 20 155.5 32t188.5 19v-72q-55 -8 -78.5 -23t-23.5 -48q0 -86 303 -557q87 148 145 253t86.5 174t28.5 111q0 84 -129 90v72q151 -6 299 -45q128 35 268 45v-72q-69 -7 -120 -44t-95 -94t-127 -181q-171 -265 -213 -361q-37 -87 -37 -215 v-20q0 -165 14 -250.5t62.5 -131t148.5 -54.5v-70q-167 5 -413 57q-245 -52 -416 -57v70q88 5 136.5 38t68.5 101.5t20 183.5v72q0 66 -5 106.5t-25 79.5q-22 49 -84.5 146.5t-161.5 240.5q-109 159 -159.5 227t-100.5 111.5t-99 44.5zM692 -229q0 51 33.5 83.5t83.5 32.5 q33 0 59.5 -15.5t42 -41.5t15.5 -59q0 -48 -33.5 -82.5t-83.5 -34.5q-49 0 -83 34t-34 83z" />
<glyph unicode="&#x1ef5;" horiz-adv-x="1210" d="M-35 924v67q171 -6 314 -53q138 44 317 53v-67q-82 -6 -82 -78q0 -37 29.5 -124t89.5 -206l92 -184l88 211q61 144 61 235q0 137 -124 146v67q130 -3 276 -41q119 35 225 41v-67q-74 -1 -137 -75.5t-128.5 -209.5t-180.5 -403q-124 -286 -180 -409t-124 -230t-142 -160 t-171 -53q-67 0 -108 34t-41 86q0 71 45 119q58 -39 119 -39q74 0 132 38t110 117.5t104 197.5q-11 30 -35 85t-43 92.5t-36.5 72.5l-28.5 57l-156 311q-71 140 -111 210.5t-82 112.5t-92 46zM594 -498q0 50 33.5 83.5t83.5 33.5q51 0 83.5 -34t32.5 -83q0 -47 -32.5 -81.5 t-83.5 -34.5q-49 0 -83 34t-34 82z" />
<glyph unicode="&#x1ef6;" horiz-adv-x="1526" d="M-25 1421v72q184 -9 363 -51q71 20 155.5 32t188.5 19v-72q-55 -8 -78.5 -23t-23.5 -48q0 -86 303 -557q87 148 145 253t86.5 174t28.5 111q0 84 -129 90v72q151 -6 299 -45q128 35 268 45v-72q-69 -7 -120 -44t-95 -94t-127 -181q-171 -265 -213 -361q-37 -87 -37 -215 v-20q0 -165 14 -250.5t62.5 -131t148.5 -54.5v-70q-167 5 -413 57q-245 -52 -416 -57v70q88 5 136.5 38t68.5 101.5t20 183.5v72q0 66 -5 106.5t-25 79.5q-22 49 -84.5 146.5t-161.5 240.5q-109 159 -159.5 227t-100.5 111.5t-99 44.5zM686 1907q0 39 48 65.5t128 26.5 t125 -31t45 -84q0 -48 -26 -70.5t-121 -82.5q-49 -28 -49 -54q0 -24 26 -24h8q0 -24 -8 -31.5t-33 -7.5q-26 0 -42.5 15.5t-16.5 43.5q0 42 61 105q29 27 42.5 51.5t13.5 68.5q0 32 -14 50t-35 18q-45 0 -45 -43q0 -22 12 -43l2 -4q-25 -16 -62 -16q-59 0 -59 47z" />
<glyph unicode="&#x1ef7;" horiz-adv-x="1210" d="M-35 924v67q171 -6 314 -53q138 44 317 53v-67q-82 -6 -82 -78q0 -37 29.5 -124t89.5 -206l92 -184l88 211q61 144 61 235q0 137 -124 146v67q130 -3 276 -41q119 35 225 41v-67q-74 -1 -137 -75.5t-128.5 -209.5t-180.5 -403q-124 -286 -180 -409t-124 -230t-142 -160 t-171 -53q-67 0 -108 34t-41 86q0 71 45 119q58 -39 119 -39q74 0 132 38t110 117.5t104 197.5q-11 30 -35 85t-43 92.5t-36.5 72.5l-28.5 57l-156 311q-71 140 -111 210.5t-82 112.5t-92 46zM516 1405q0 39 48 65.5t128 26.5t125 -31t45 -84q0 -24 -10.5 -44.5t-28 -36 t-47 -34.5t-61.5 -38q-49 -28 -49 -53t26 -25h8q0 -24 -8 -31.5t-33 -7.5q-26 0 -42.5 15.5t-16.5 43.5q0 27 15 50t47 55q32 34 43.5 55.5t11.5 65.5q0 31 -14 49t-35 18q-45 0 -45 -43q0 -20 12 -43l2 -4q-25 -16 -62 -16q-59 0 -59 47z" />
<glyph unicode="&#x1ef8;" horiz-adv-x="1526" d="M-25 1421v72q184 -9 363 -51q71 20 155.5 32t188.5 19v-72q-55 -8 -78.5 -23t-23.5 -48q0 -86 303 -557q87 148 145 253t86.5 174t28.5 111q0 84 -129 90v72q151 -6 299 -45q128 35 268 45v-72q-69 -7 -120 -44t-95 -94t-127 -181q-171 -265 -213 -361q-37 -87 -37 -215 v-20q0 -165 14 -250.5t62.5 -131t148.5 -54.5v-70q-167 5 -413 57q-245 -52 -416 -57v70q88 5 136.5 38t68.5 101.5t20 183.5v72q0 66 -5 106.5t-25 79.5q-22 49 -84.5 146.5t-161.5 240.5q-109 159 -159.5 227t-100.5 111.5t-99 44.5zM631 1606q33 182 160 182q34 0 53 -4 l84 -21q24 -4 28 -4q25 0 41 15t25 47l49 2q-35 -183 -160 -183q-26 0 -41 5l-79 22q-19 4 -37 4q-54 0 -66 -65h-57z" />
<glyph unicode="&#x1ef9;" horiz-adv-x="1210" d="M-35 924v67q171 -6 314 -53q138 44 317 53v-67q-82 -6 -82 -78q0 -37 29.5 -124t89.5 -206l92 -184l88 211q61 144 61 235q0 137 -124 146v67q130 -3 276 -41q119 35 225 41v-67q-74 -1 -137 -75.5t-128.5 -209.5t-180.5 -403q-124 -286 -180 -409t-124 -230t-142 -160 t-171 -53q-67 0 -108 34t-41 86q0 71 45 119q58 -39 119 -39q74 0 132 38t110 117.5t104 197.5q-11 30 -35 85t-43 92.5t-36.5 72.5l-28.5 57l-156 311q-71 140 -111 210.5t-82 112.5t-92 46zM461 1104q33 182 160 182q34 0 53 -4l84 -20q30 -5 28 -5q25 0 41 15t25 47l49 2 q-35 -182 -160 -182q-26 0 -41 4l-79 22q-19 4 -37 4q-54 0 -66 -65h-57z" />
<glyph unicode="&#x2000;" horiz-adv-x="1095" />
<glyph unicode="&#x2001;" horiz-adv-x="2191" />
<glyph unicode="&#x2002;" horiz-adv-x="1095" />
<glyph unicode="&#x2003;" horiz-adv-x="2191" />
<glyph unicode="&#x2004;" horiz-adv-x="730" />
<glyph unicode="&#x2005;" horiz-adv-x="547" />
<glyph unicode="&#x2006;" horiz-adv-x="365" />
<glyph unicode="&#x2007;" horiz-adv-x="365" />
<glyph unicode="&#x2008;" horiz-adv-x="273" />
<glyph unicode="&#x2009;" horiz-adv-x="438" />
<glyph unicode="&#x200a;" horiz-adv-x="121" />
<glyph unicode="&#x2010;" horiz-adv-x="758" d="M100 365v321q161 -8 279 -8q134 0 278 8v-321q-163 8 -278 8q-102 0 -279 -8z" />
<glyph unicode="&#x2011;" horiz-adv-x="758" d="M100 365v321q161 -8 279 -8q134 0 278 8v-321q-163 8 -278 8q-102 0 -279 -8z" />
<glyph unicode="&#x2012;" horiz-adv-x="758" d="M100 365v321q161 -8 279 -8q134 0 278 8v-321q-163 8 -278 8q-102 0 -279 -8z" />
<glyph unicode="&#x2013;" horiz-adv-x="1024" d="M-14 412v227h1052v-227h-1052z" />
<glyph unicode="&#x2014;" horiz-adv-x="2048" d="M-14 412v227h2076v-227h-2076z" />
<glyph unicode="&#x2018;" horiz-adv-x="717" d="M168 1090q0 70 32 149.5t96 163.5t155 158l69 -45q-151 -155 -151 -299q0 -51 21 -81t59 -30q23 0 57 16q22 -30 22 -71q0 -73 -49.5 -115.5t-126.5 -42.5q-85 0 -134.5 53t-49.5 144z" />
<glyph unicode="&#x2019;" horiz-adv-x="717" d="M199 1366q0 67 50.5 109.5t131.5 42.5q80 0 129 -52t49 -137q0 -73 -32 -155.5t-96.5 -166t-154.5 -157.5l-67 45q151 157 151 299q0 52 -21.5 81.5t-59.5 29.5q-20 0 -56 -17q-24 34 -24 78z" />
<glyph unicode="&#x201c;" horiz-adv-x="1208" d="M168 1090q0 70 32 149.5t96 163.5t155 158l69 -45q-151 -155 -151 -299q0 -51 21 -81t59 -30q23 0 57 16q22 -30 22 -71q0 -73 -49.5 -115.5t-126.5 -42.5q-85 0 -134.5 53t-49.5 144zM655 1090q0 70 31.5 149.5t94 161.5t157.5 160l70 -45q-152 -155 -152 -299 q0 -52 21.5 -81.5t58.5 -29.5q25 0 57 16q25 -32 25 -71q0 -72 -51 -115t-127 -43q-57 0 -99 24t-64 69t-22 104z" />
<glyph unicode="&#x201d;" horiz-adv-x="1208" d="M199 1366q0 67 50.5 109.5t131.5 42.5q80 0 129 -52t49 -137q0 -73 -32 -155.5t-96.5 -166t-154.5 -157.5l-67 45q151 157 151 299q0 52 -21.5 81.5t-59.5 29.5q-20 0 -56 -17q-24 34 -24 78zM686 1366q0 44 24 79t66.5 54t93.5 19q53 0 93.5 -24t63 -67t22.5 -98 q0 -113 -72.5 -239t-210.5 -240l-70 45q152 157 152 299q0 53 -22 82t-60 29q-21 0 -55 -17q-25 32 -25 78z" />
<glyph unicode="&#x2026;" horiz-adv-x="2048" d="M168 150q0 72 51 122t123 50q71 0 120.5 -50.5t49.5 -121.5q0 -48 -22.5 -87t-62.5 -63.5t-85 -24.5q-71 0 -122.5 52.5t-51.5 122.5zM850 150q0 72 51 122t123 50q71 0 120.5 -50.5t49.5 -121.5q0 -48 -22.5 -87t-62.5 -63.5t-85 -24.5q-71 0 -122.5 52.5t-51.5 122.5z M1534 150q0 72 51 122t123 50q71 0 120.5 -50.5t49.5 -121.5q0 -48 -22.5 -87t-62.5 -63.5t-85 -24.5q-71 0 -122.5 52.5t-51.5 122.5z" />
<glyph unicode="&#x202f;" horiz-adv-x="438" />
<glyph unicode="&#x205f;" horiz-adv-x="547" />
<glyph unicode="&#x25fc;" horiz-adv-x="990" d="M0 0v990h990v-990h-990z" />
</font>
</defs>
</svg>
