<?xml version="1.0" standalone="no"?>
<!DOCTYPE svg PUBLIC "-//W3C//DTD SVG 1.1//EN" "http://www.w3.org/Graphics/SVG/1.1/DTD/svg11.dtd" >
<svg xmlns="http://www.w3.org/2000/svg">
<metadata></metadata>
<defs>
<font id="uvn_ben_xuanregular" horiz-adv-x="748" >
<font-face units-per-em="2048" ascent="1638" descent="-410" />
<missing-glyph horiz-adv-x="512" />
<glyph horiz-adv-x="0" />
<glyph unicode="&#xd;" horiz-adv-x="512" />
<glyph unicode=" "  horiz-adv-x="512" />
<glyph unicode="&#x09;" horiz-adv-x="512" />
<glyph unicode="&#xa0;" horiz-adv-x="512" />
<glyph unicode="!" horiz-adv-x="481" d="M154 23q0 21 51 47l74 36q8 -8 8 -24q0 -41 -14 -79q-18 -52 -52 -52q-67 0 -67 72zM221 274q0 84 127 344t127 295q-5 7 -18 17q11 31 48 40l7 -1q70 -42 70 -88q0 -43 -86 -176q-242 -374 -242 -455q0 -17 -12 -25l-13 11q-8 16 -8 38z" />
<glyph unicode="&#x22;" horiz-adv-x="535" d="M432 969q15 95 57 278q5 15 31 15q17 0 42 -8q30 -9 30 -22q0 -15 -131 -271l-10 -9zM637 969q16 94 57 278q5 17 31 17q60 0 72 -39q-46 -94 -133 -264l-11 -9z" />
<glyph unicode="#" horiz-adv-x="1227" d="M43 370q0 27 39 27q10 0 14 -8q0 -7 68 -10q73 -4 223 -4q59 104 127 188q-68 -4 -156 -4q-42 0 -99 20q-69 25 -69 58q0 27 37 27q11 0 15 -9q60 -10 180 -10h147q58 72 80 101q66 86 66 102l-8 6q-16 -5 -27 -6q34 47 72 47q94 0 94 -51q0 -18 -150 -197q97 0 273 4 q56 70 77 98q64 83 64 99l-8 6q-22 -6 -26 -6h-1q27 47 70 47q29 0 58 -13q36 -16 36 -42q-4 -14 -143 -189q59 4 159 4q78 0 78 -41q-5 -12 -21 -14q-10 -1 -30 2q-23 4 -27 4q18 0 -206 -8q-57 -71 -170 -213q86 4 227 4q80 0 80 -43q0 -8 -23 -10q-16 -1 -44 0 q-34 2 -31 2q-85 0 -252 -14q-81 -117 -109 -166q-53 -94 -74 -185l-8 -10q-12 9 -12 27q0 134 115 329l-326 -20q-132 -197 -162 -326l-8 -10q-12 8 -12 25q0 54 36 157q32 94 66 152q-57 -4 -137 -4q-38 0 -95 22q-67 25 -67 55zM483 379l299 4q44 69 140 203l-293 -19 q-51 -64 -146 -188z" />
<glyph unicode="$" horiz-adv-x="676" d="M61 12q0 12 80 47q49 22 99 43q28 80 118 279q-11 -1 -86 -15q-53 -10 -86 -10q-40 0 -81 27q-44 30 -44 68q0 102 216 226q166 95 309 134q38 75 98 215l8 8q27 -18 27 -71q0 -20 -70 -138q16 6 35 6q43 0 70.5 -31t27.5 -75q0 -47 -57 -74l-6 4q22 44 22 45 q0 19 -32 19q-44 0 -138 -33q-37 -73 -139 -260q152 -6 152 -143q0 -92 -128 -184q-97 -68 -214 -107q-36 -104 -56 -201l-10 -12q-11 -1 -11 15q0 22 36 192q-15 -4 -47 -4q-53 0 -84 18zM139 432q0 -26 37 -26q40 0 102 8q85 11 101 12q75 143 119 233q-88 -32 -205 -97 q-154 -86 -154 -130zM293 131q223 135 223 205q0 49 -106 49q-40 -84 -117 -254z" />
<glyph unicode="%" horiz-adv-x="1073" d="M80 -174q0 4 4 16q62 171 318 475q20 23 290 312q237 254 238 268l-12 10l-25 -2q32 41 82 41q22 0 39.5 -26.5t17.5 -49.5q0 -21 -12 -32q-358 -343 -484 -478q-257 -274 -419 -534q-7 -12 -21 -12q-16 0 -16 12zM188 635q0 91 133 227q119 121 214 160q32 -11 61 -59 l-18 -23q92 -66 92 -133q0 -98 -134 -198q-126 -95 -229 -95q-47 0 -83 37t-36 84zM279 583q0 -30 40 -30q71 0 181 95q114 98 114 173q0 40 -20 59q-14 13 -57 29q-78 -52 -160 -145q-98 -112 -98 -181zM481 68q0 94 132 224q106 104 214 163q33 -13 62 -60l-19 -22 q93 -68 93 -133q0 -99 -133 -199q-126 -94 -230 -94q-47 0 -83 37t-36 84zM571 16q0 -30 41 -30q73 0 182 95q113 97 113 173q0 40 -20 59q-14 13 -58 29q-78 -52 -160 -146q-98 -112 -98 -180z" />
<glyph unicode="&#x26;" horiz-adv-x="1286" d="M80 139q0 112 178 236q62 43 277 157l4 7q-5 19 -42 75q-28 44 -28 101q0 110 115 219q113 106 217 106q21 0 46 -33t25 -53q0 -17 -30 -26q-303 -89 -303 -262q0 -27 13 -65q15 -46 36 -46q60 0 214 104q159 108 159 160q0 26 -33 41l-4 8l14 13q55 -19 55 -90 q0 -125 -329 -320l-7 -16q3 -23 50 -112q43 -82 43 -150q0 -67 -64 -76l-6 4q25 53 25 59q0 43 -37 148q-41 112 -68 112q-55 0 -235 -129q-195 -140 -195 -225q0 -102 258 -102q172 0 344 56q232 75 232 210q0 69 -36 69q-12 0 -36.5 -4t-36.5 -4q-64 0 -64 64q0 12 9 16 l14 -16q8 -6 20 -6q66 0 199 23.5t201 23.5q86 0 100 -23q-11 -7 -183 -30q-154 -21 -153 -52q4 -8 33 -47q19 -25 19 -57q0 -139 -251 -229q-197 -70 -368 -70q-147 0 -250 43q-141 60 -141 188z" />
<glyph unicode="'" horiz-adv-x="391" d="M431 969q0 6 27.5 136.5t30.5 141.5q5 15 31 15q17 0 42 -8q30 -10 30 -22q0 -15 -131 -271l-10 -9q-20 -1 -20 17z" />
<glyph unicode="(" horiz-adv-x="659" d="M117 37q0 316 153 635q150 314 395 523q238 202 435 202q59 0 59 -31q0 -45 -125 -70q-115 -23 -299 -174q-259 -212 -406 -495q-155 -299 -155 -619q0 -188 59 -397q7 -25 7 -37q0 -11 -9 -16q-46 14 -84 220q-30 168 -30 259z" />
<glyph unicode=")" horiz-adv-x="739" d="M-326 -434q1 16 41 33q259 108 422 245q179 151 301 384q176 334 176 728q0 187 -43 283q-28 62 -28 98q0 45 28 45q68 0 111 -185q33 -139 33 -239q0 -451 -266 -850q-279 -420 -699 -534q-51 -14 -61 -14t-15 6z" />
<glyph unicode="*" horiz-adv-x="674" d="M297 1100l8 43l176 -39l17 178h45l16 -178l174 41l12 -43l-161 -72l92 -151l-39 -27l-117 133l-117 -137l-36 24l92 156z" />
<glyph unicode="+" horiz-adv-x="836" d="M154 371v67h245v271h74v-271h248v-67h-248v-271h-74v271h-245z" />
<glyph unicode="," horiz-adv-x="414" d="M2 -190l92 110q88 106 88 158q0 12 -10 18l16 13q58 -43 58 -95q0 -68 -89 -132q-35 -24 -147 -81z" />
<glyph unicode="-" horiz-adv-x="842" d="M195 487q0 22 18 21q24 -19 117 -19q61 0 183 6.5t183 6.5q45 0 45 -47l-16 -15q-17 6 -29 6q-68 0 -205 -22.5t-206 -22.5q-90 0 -90 86z" />
<glyph unicode="." horiz-adv-x="414" d="M125 47q0 19 53 48l74 38q6 -9 6 -27q0 -39 -13 -79q-18 -52 -50 -52q-26 0 -48 23t-22 49z" />
<glyph unicode="/" horiz-adv-x="791" d="M-33 -229q2 11 8 24q116 264 409 600q178 206 512 530q89 86 126 125q105 107 106 130q-4 12 -36 16q33 51 110 51q43 0 43 -61q0 -44 -45 -88q-239 -218 -700 -672q-230 -245 -387 -468q-38 -61 -117 -181q-9 -12 -21 -17z" />
<glyph unicode="0" horiz-adv-x="877" d="M41 164q0 179 184 389q149 172 338 285q33 20 60 20q26 0 59 -34.5t33 -58.5q0 -7 -22.5 -23t-28.5 -33q20 -27 75 -65q52 -37 72 -67q33 -48 33 -128q0 -181 -194 -339q-184 -151 -369 -151q-240 0 -240 205zM148 125q0 -102 100 -102q153 0 339 151q193 157 193 307 q0 67 -65 129q-61 58 -115 58q-103 0 -279 -219q-173 -214 -173 -324z" />
<glyph unicode="1" horiz-adv-x="567" d="M109 37q0 122 99 311q59 112 185 300q100 149 101 171l-7 6l-22 -6l-12 8q4 17 26 38.5t39 21.5q19 0 42.5 -29t23.5 -49q0 -58 -135 -319q-90 -171 -180 -341q-83 -172 -83 -245q0 -24 -14 -23q-63 36 -63 156z" />
<glyph unicode="2" horiz-adv-x="784" d="M61 102q0 107 162 257q39 36 301 241q162 127 162 178q0 58 -92 58q-35 0 -106 -19q-80 -21 -91 -41q4 -12 4 -14q0 -18 -42 -40q-38 -19 -57 -19q-26 0 -26 57q0 68 108 105q81 28 167 28q78 0 139 -33q76 -40 76 -112q0 -92 -154 -237q-143 -121 -286 -243 q-153 -135 -153 -203q0 -30 28 -30q34 0 237 58.5t289 58.5q10 0 14 -9q-9 -13 -270.5 -112t-288.5 -99q-56 0 -91 59q-30 51 -30 111z" />
<glyph unicode="3" horiz-adv-x="799" d="M-96 -53q0 30 18 30q13 0 24.5 -20t45.5 -20q151 0 387 155q252 166 252 305q0 82 -103 82q-53 0 -97.5 -24.5t-51.5 -24.5q-25 0 -44.5 19.5t-19.5 44.5q0 31 102 93q180 110 190 117q102 73 102 130q0 38 -50 38q-36 0 -153 -58t-162 -58q-29 0 -51.5 21t-22.5 50 q0 19 154 56q149 37 207 37q60 0 102 -27q49 -32 49 -90q0 -68 -117 -160q-141 -111 -151 -127q4 -5 37 -5q80 0 134 -48t54 -127q0 -165 -274 -337q-253 -159 -432 -159q-129 0 -129 107z" />
<glyph unicode="4" horiz-adv-x="797" d="M84 289q0 119 152 271q95 95 282 228q152 108 152 122.5t8 21.5q22 -1 60 -81q36 -76 36 -108q0 -49 -122 -262q-129 -225 -140 -280l12 -6q155 9 260 32l11 -6q-28 -57 -322 -117q-17 -10 -72 -143.5t-71 -144.5q-3 4 -4 12q0 40 33.5 136.5t33.5 106.5l-2 13l-12 6 q-32 -8 -72 -8q-94 0 -157 56q-66 58 -66 151zM166 252q0 -78 119 -78q101 0 141 10q13 3 25 27q21 44 120 268q101 228 101 234l-6 8q-74 -16 -280 -194q-220 -190 -220 -275z" />
<glyph unicode="5" horiz-adv-x="725" d="M-72 -111q0 54 17 54q5 -2 19 -12q10 -7 22 -7q130 0 360 184q236 190 236 316q0 65 -82 65q-95 0 -234 -83q-69 88 -69 141q0 31 66 114q45 53 91 107q-71 31 -71 93q0 23 22 36q9 -14 18 -27q5 -4 48 -4q87 0 260.5 24.5t259.5 24.5q17 0 24 -12q1 -26 -36 -26 q-27 0 -200 -40.5t-193 -52t-17 -51.5l-6 -20q-60 -68 -81 -94q-53 -65 -65 -97q2 -3 8 -4q25 0 80 12.5t84 12.5q175 0 175 -137q0 -166 -247 -378q-241 -206 -411 -206q-78 0 -78 67z" />
<glyph unicode="6" horiz-adv-x="872" d="M59 115q0 139 132 344q127 199 300 342q187 155 326 155q95 0 95 -91q0 -32 -15 -40l-10 9q-9 18 -37 18q-170 0 -437.5 -298t-267.5 -486q0 -91 88 -91q135 0 321 156q191 162 191 295q0 53 -59 53q-83 0 -198 -70q-152 -91 -164 -96l-5 7q1 16 48 61q153 149 313 149 q131 0 131 -133q0 -171 -199 -334q-190 -155 -366 -155q-91 0 -140 58q-47 54 -47 147z" />
<glyph unicode="7" horiz-adv-x="674" d="M94 -141q0 208 321 554q-79 -6 -106 -6q-37 0 -72 21q-41 24 -41 58q0 17 25 17q11 0 33.5 -6t32.5 -6q47 -4 198 -4q215 227 215 293q0 58 -98 58q-46 0 -132.5 -35t-131.5 -35q-66 0 -115 74l3 13l14 7l16 -4q76 18 152 35q90 20 155 20q89 0 146 -44q63 -49 63 -136 q0 -104 -105 -243q163 1 163 -45l-19 -14q-36 8 -53 8q-55 0 -139 -8q-20 -24 -276 -289q-163 -169 -204 -267q-7 -18 -12 -24q-9 -13 -21 -13q-12 6 -12 21z" />
<glyph unicode="8" horiz-adv-x="950" d="M35 102q0 102 99 191q66 59 189 122q108 55 113 64l-6 8q-141 90 -141 179q0 113 197 198q165 72 296 72q49 0 96 -24q56 -29 58 -74l-4 -7q-24 19 -82 19q-115 0 -263 -62q-177 -74 -177 -172q0 -33 37.5 -71.5t69.5 -38.5q6 0 40 14q162 66 288 156q183 131 183 250 q0 20 -10 39.5t-10 31.5q0 42 22 41q33 -22 33 -129q0 -184 -214 -332q-112 -66 -224 -133q7 -14 95 -95q68 -64 68 -144q0 -125 -191 -213q-160 -74 -302 -74q-98 0 -172 42q-88 51 -88 142zM129 57q0 -61 107 -61q137 0 278 59q176 73 176 189q0 48 -49 103.5t-95 55.5 q-83 0 -248 -132q-169 -135 -169 -214z" />
<glyph unicode="9" horiz-adv-x="918" d="M158 516q0 156 222 297q203 129 372 129q96 0 167.5 -72t71.5 -168q0 -145 -164 -328q-118 -131 -340 -301l-286 -216q-6 7 -6 28q0 72 180 244l334 318q180 191 180 311q0 108 -105 108q-140 0 -325 -128q-199 -137 -199 -269q0 -29 31 -29q81 0 262 113 q204 126 221 131l6 -8q0 -54 -205 -191q-200 -135 -264 -135q-61 0 -107 52t-46 114z" />
<glyph unicode=":" horiz-adv-x="414" d="M111 37q0 19 54 49q36 18 73 37q6 -9 6 -27q0 -39 -14 -79q-19 -52 -50 -52q-26 0 -47.5 23t-21.5 49zM227 428q0 23 25 31q35 19 106 51q4 -12 4 -25q0 -40 -13 -78q-18 -51 -50 -51q-26 0 -49 23t-23 49z" />
<glyph unicode=";" horiz-adv-x="414" d="M-4 -190q47 55 94 111q88 106 88 159q-5 13 -10 16l16 13q58 -43 58 -95q0 -57 -95 -135q-90 -75 -143 -75q-6 2 -8 6zM188 408q0 17 53 44q68 33 76 40q7 -9 7 -27q0 -41 -13 -78q-19 -49 -53 -49q-28 0 -49 21t-21 49z" />
<glyph unicode="&#x3c;" horiz-adv-x="836" d="M154 360v82l567 256v-73l-492 -224l492 -225v-74z" />
<glyph unicode="=" horiz-adv-x="836" d="M154 262v66h567v-66h-567zM154 471v66h567v-66h-567z" />
<glyph unicode="&#x3e;" horiz-adv-x="836" d="M154 102v74l493 225l-493 224v73l567 -256v-82z" />
<glyph unicode="?" horiz-adv-x="627" d="M143 23q0 15 56 49t71 34q6 0 6 -24q0 -42 -12 -79q-18 -52 -51 -52q-27 0 -48.5 22.5t-21.5 49.5zM205 283q0 86 130 214q18 17 242 208q130 112 130 157q0 51 -84 51q-63 0 -142 -25q-97 -30 -114 -75q-25 -16 -45 -16q-21 0 -21 37q0 59 121 104q100 37 176 37 q72 0 120 -31q56 -37 56 -106q0 -110 -142 -238q-22 -19 -261 -198q-137 -102 -129 -154q0 -3 3 -12t3 -13q0 -11 -12 -16q-31 12 -31 76z" />
<glyph unicode="@" horiz-adv-x="1346" d="M119 238q0 284 231 491q224 201 512 201q206 0 339.5 -128.5t133.5 -334.5q0 -173 -102 -312q-112 -153 -279 -153q-42 0 -73 20q-37 23 -37 62q0 56 27 121q25 57 49 114l-9 9q-16 -6 -178 -180q-152 -162 -213 -162q-40 0 -71 35t-31 75q0 106 215 329q220 228 338 228 q44 0 78 -40t34 -85q0 -18 -18 -18q-11 0 -26 19.5t-38 19.5q-109 0 -291 -179.5t-182 -289.5q0 -14 13 -14q32 0 230.5 188t240.5 188q51 0 51 -61q0 -22 -66.5 -136.5t-66.5 -160.5q0 -27 63 -27q127 0 217 146q80 129 80 264q0 188 -120.5 304t-309.5 116 q-257 0 -442 -202q-180 -196 -180 -456q0 -200 120 -337q126 -144 324 -144q261 0 414 100l14 -34q-158 -107 -436 -107q-248 0 -400 141q-155 144 -155 390z" />
<glyph unicode="A" horiz-adv-x="1423" d="M164 182q0 197 222 449q203 230 489 399q290 172 485 172q215 0 215 -162q0 -101 -88 -120l-10 10q1 5 18 53q12 33 12 55q0 62 -110 62q-181 0 -451 -179q-260 -171 -449 -401q-204 -247 -204 -422q0 -59 53 -59q110 0 375 187q139 98 446 347q231 187 258 187 q30 0 49 -25t19 -55q0 -26 -109.5 -279.5t-109.5 -334.5q0 -44 30 -44q7 0 20.5 3t18.5 4l13 -4q-16 -21 -74.5 -44.5t-89.5 -23.5q-72 0 -72 94q0 95 59 242q10 23 105 229q4 10 6 21l-4 6q-11 -3 -22 -12q-216 -179 -432 -357q-301 -225 -485 -225q-80 0 -134 76 q-49 69 -49 151z" />
<glyph unicode="B" horiz-adv-x="1346" d="M106 53q0 167 285 544q99 131 416 501l12 14q12 -6 12 -27q0 -73 -324.5 -545t-324.5 -546q0 -21 13 -27l6 -10q1 -14 -17 -14q-35 0 -58 39q-20 34 -20 71zM268 29q0 16 82 16q382 0 628 142q212 122 212 264q0 147 -234 147q-181 0 -348 -104q-10 18 -10 55 q0 75 169 193q156 102 313 204q169 116 169 184q0 87 -137 87q-96 0 -286 -46.5t-285 -46.5q-103 0 -103 68q0 43 72 43q10 0 16 -4q-11 -7 -16 -19q9 -8 27 -8q87 0 277 32t286 32q100 0 181 -42q99 -52 99 -145q0 -85 -121 -186q-75 -63 -225 -150q-124 -72 -127 -83 l11 -11q153 0 259 -47q142 -64 142 -198q0 -216 -262 -348q-214 -109 -453 -109q-87 0 -188 15q-148 23 -148 65z" />
<glyph unicode="C" horiz-adv-x="1100" d="M211 254q0 203 181 442q169 223 414 379q253 160 454 160q58 0 94.5 -37.5t36.5 -95.5q0 -46 -29 -88q-32 -47 -76 -47q-31 0 -31 22q0 9 28 48t28 65q0 33 -41 33q-12 0 -41 -7q-306 -74 -583 -376q-290 -315 -290 -617q0 -112 166 -112q123 0 283 59q137 51 246 135 q9 7 18 10l10 -12q0 -16 -18 -37q-84 -102 -252 -173q-161 -68 -299 -68q-143 0 -221 86t-78 231z" />
<glyph unicode="D" horiz-adv-x="1366" d="M154 -35q0 121 125 352q42 76 233 384q125 202 125 253q0 9 -16 33q-2 28 20 28q37 0 65 -49q25 -43 25 -83q0 -113 -152 -342q-116 -162 -232 -323.5t-165 -301.5q-4 -12 -12 -16q-16 14 -16 65zM285 1141q0 20 19 35.5t40 15.5q37 0 55 -10q-9 -12 -26 -37l6 -4 q4 1 303 68q180 40 309 40q235 0 375 -93q166 -110 166 -333q0 -197 -198 -419q-178 -201 -439.5 -342.5t-452.5 -141.5q-131 0 -131 72q0 13 13 18q61 -22 63 -22q14 0 23 4q334 151 625 372q411 310 411 556q0 124 -125 184q-95 45 -234 45q-112 0 -332.5 -43t-330.5 -43 q-139 0 -139 78z" />
<glyph unicode="E" horiz-adv-x="1069" d="M221 131q0 149 271 306q248 144 414 144q93 0 93 -120q0 -17 -34 -23q-303 -53 -464 -158q-184 -120 -184 -227q0 -110 215 -110q94 0 222 27q110 24 219 48h12q7 -2 10 -6q-19 -42 -207 -92q-170 -45 -245 -45q-118 0 -214 67q-108 74 -108 189zM248 750q0 144 228 267 q182 100 468 167q244 57 389 57q92 0 141 -79q42 -67 42 -165q0 -48 -47 -104t-93 -57l-12 12q1 12 47.5 66t46.5 90q0 67 -151 67q-246 0 -606 -134q-375 -139 -375 -253q0 -76 170 -98q111 -8 223 -17q-70 -39 -199 -39q-111 0 -186 53q-86 60 -86 167z" />
<glyph unicode="F" horiz-adv-x="1118" d="M229 18q-1 92 83 249q78 146 84 146v-1q0 6 -1 8q-37 9 -59 16q-47 16 -47 31q54 2 162 22q62 53 212 284q103 158 103 185.5t16 26.5l13 -10q16 -30 16 -62q0 -85 -69 -196q-93 -149 -105 -182l10 -5l200 40q119 22 202 22q186 0 186 -103q0 -13 -12 -18l-9 4l-10 20 q-17 7 -45 7q-227 0 -579 -78q-56 -43 -148 -246q-83 -181 -83 -251q0 -8 1 -15l-12 -12q-49 1 -79 35.5t-30 82.5zM322 1063q0 28 44.5 66.5t71.5 39.5q-22 -28 -32 -53q0 -24 59 -24q88 0 231 34q200 48 399 97q252 55 404 55q184 0 184 -102q0 -47 -98 -126 q-83 -68 -141 -92l-4 5q5 13 36 54q27 35 27 50q0 55 -162 55q-258 0 -667 -96q-158 -37 -234 -37q-118 0 -118 74z" />
<glyph unicode="G" horiz-adv-x="1501" d="M158 193q0 188 254 438q227 223 543.5 394t502.5 171q199 0 199 -168q0 -113 -96 -135l-9 10q2 8 25 66q16 42 16 67q0 54 -82 54q-282 0 -692 -311q-394 -299 -516 -574q-22 -49 -22 -82q0 -45 49 -45q99 0 336 157l410 292q224 157 290 157q76 0 76 -123 q0 -133 -70 -268l-1 -13l13 1q205 140 244 145l10 -8q-1 -15 -123 -99q-74 -49 -147 -98q-35 -25 -51 -47q-24 -47 -75 -135q-83 -133 -215 -289q-211 -250 -286 -250q-24 0 -45.5 34t-21.5 60q0 117 207 307q152 128 303 257q43 41 111.5 194.5t68.5 214.5q0 43 -27 43 q-26 0 -233 -168q-275 -224 -402 -313q-240 -168 -348 -168q-75 0 -137 80q-59 75 -59 152z" />
<glyph unicode="H" horiz-adv-x="1468" d="M143 61q0 113 222 474q-6 6 -91 13q-77 7 -94 56q99 7 248 37q44 21 177 222q126 191 126 231l-4 26q0 27 16 27q27 0 27 -74q0 -93 -54 -206q-8 -15 -106 -187q-4 -7 -4 -9q0 -9 8 -12q228 13 680 54q14 2 23 16q180 288 242 371q199 268 321 268q30 0 55 -22t25 -52 q0 -38 -23 -37q-9 5 -21 32q-9 22 -30 22q-68 0 -228 -253q-139 -221 -175 -327l10 -4q23 0 70 2t71 2q106 0 107 -14q-15 -14 -53 -30q-56 -30 -113 -59q-46 -22 -139 -22q-38 -17 -142 -283q-102 -262 -102 -325q0 -27 14 -27q6 0 18.5 4.5t18.5 4.5q14 0 19 -13 q0 -19 -52 -37q-44 -14 -71 -14q-99 0 -99 123t100 331q103 214 103 216l-12 8l-49 2q-69 3 -138 3q-244 0 -485 -36q-47 -44 -149 -257q-89 -187 -125 -292q-17 -49 -33 -49q-109 0 -109 96z" />
<glyph unicode="I" horiz-adv-x="1085" d="M90 274q0 34 11 78q14 58 36 58q15 0 15 -31q0 -13 -5.5 -40.5t-5.5 -41.5q0 -118 86.5 -201.5t204.5 -83.5q237 0 485 392q122 193 295 593q3 8 3 13l-9 8q-63 -15 -261 -142q-206 -133 -206 -174q0 -25 48 -36q54 -14 59 -21q0 -22 -70 -22q-38 0 -68 55q-25 47 -25 90 q0 100 191 215q73 44 281 139q144 65 305 168q13 -11 13 -47q0 -69 -64 -104q-77 -41 -92 -76l-184 -458q-141 -324 -279 -498q-187 -235 -393 -235q-151 0 -263 127q-108 122 -108 275z" />
<glyph unicode="J" horiz-adv-x="1518" d="M211 246q0 194 214 428q193 210 470.5 364t466.5 154q130 0 207 -61q84 -67 84 -193q0 -246 -312 -657q249 151 301 159l9 -8q-1 -19 -100 -77l-126 -70q-111 -66 -170 -142q-115 -150 -231 -300q-187 -226 -258 -226q-68 0 -68 80q0 120 170 265l260 208 q119 118 270 384q165 291 165 425q0 127 -138 127q-219 0 -548 -234q-293 -208 -443 -421q-119 -168 -119 -258q0 -74 82 -74q100 0 290 96q114 57 309 177q156 97 171 97l9 -6q-2 -21 -64 -73q-451 -379 -702 -379q-93 0 -147 62q-52 58 -52 153z" />
<glyph unicode="K" horiz-adv-x="1339" d="M309 1022q0 47 193 107q173 53 250 53q188 0 188 -158q0 -96 -70 -217q-75 -130 -77 -143q3 -1 9 -1q122 0 558 224q438 226 438 315q0 6 -3 16q-3 9 -3 13q0 11 12 16q21 -1 38 -60q13 -48 13 -79q0 -150 -424 -335q-271 -117 -571 -198q-105 -28 -104 -41v-4 q88 -189 195 -348q168 -248 284 -248q14 0 39 10.5t39 10.5q10 0 14 -8q-12 -26 -70 -45q-50 -17 -86 -17q-105 0 -214 105q-81 78 -174 227q-65 109 -130 217l-8 -6q-190 -319 -190 -440q0 -7 4 -20t4 -19q0 -4 -2 -6q-129 10 -129 123q0 79 64 205q43 83 120 197 q64 95 64 99q0 7 -17.5 22t-17.5 23q0 29 92 29q219 256 219 385q0 100 -129 100q-59 0 -173 -36q-126 -41 -144 -80q9 -6 16 -17q-26 -37 -57 -37q-23 0 -41.5 21t-18.5 45z" />
<glyph unicode="L" horiz-adv-x="969" d="M156 121q0 163 184 419q102 142 349 414q196 216 208 265q-1 1 -1 2q-7 8 -62 2l-5 2q38 59 72 59q45 0 77 -57q28 -50 28 -99q0 -86 -72 -163q-202 -211 -405 -421q-291 -323 -291 -444q0 -73 98 -73q70 0 208.5 29.5t209.5 29.5q53 0 95 -18q56 -24 56 -70 q0 -22 -18 -21q-33 17 -35 17q-47 0 -206 -43t-243 -43q-109 0 -174 51q-73 56 -73 162z" />
<glyph unicode="M" horiz-adv-x="2114" d="M318 1084q0 68 69 85l2 -2q-8 -15 -22 -47l2 -2q16 6 45 25q341 221 491 221q168 0 168 -180q0 -115 -72 -265q-66 -121 -133 -243l306 272q233 191 342 191q90 0 90 -86q0 -95 -98 -269q-106 -187 -111 -217l8 -10q9 5 16 12q188 197 274 271q203 174 330 174 q140 0 140 -195q0 -137 -138.5 -454.5t-138.5 -458.5q0 -33 -26 -33q-55 0 -85 52q-26 44 -26 102q0 118 83 316q23 55 154 325q83 171 83 225q0 55 -54 55q-175 0 -533 -403q-304 -342 -418 -564q-16 -32 -32 -32q-25 0 -43 31q-14 26 -14 53q0 94 133 337q47 85 248 416 q133 220 133 258q0 19 -16 19q-81 0 -359 -261q-200 -189 -338 -346q-194 -220 -352 -481q-18 -30 -35 -30q-43 0 -43 71q0 144 159 398q147 221 295 441q159 252 159 388q0 62 -56 62q-90 0 -296.5 -143.5t-239.5 -143.5q-51 0 -51 66z" />
<glyph unicode="N" horiz-adv-x="1595" d="M324 1032q0 121 254 226q218 90 368 90q156 0 156 -142q0 -98 -91 -262q-49 -88 -174 -271q-97 -143 -104 -177l6 -7q14 1 160 143q176 174 305 264q201 142 352 142q162 0 162 -170q0 -106 -161.5 -462.5t-161.5 -447.5q0 -17 4 -30q-4 -32 -39 -32q-50 0 -80.5 34 t-30.5 84q0 114 96 313q88 167 177 335q96 182 96 253q0 60 -59 60q-151 0 -486 -277q-360 -297 -643 -700q-9 -13 -27 -37q-51 24 -51 111q0 128 175 390q163 225 326 449q175 243 175 324q0 53 -70 53q-104 0 -323 -97q-237 -105 -248 -185q5 -10 18 -14q20 -5 23 -7 q-19 -22 -55 -22q-49 0 -49 69z" />
<glyph unicode="O" horiz-adv-x="1436" d="M197 645q0 158 249 318q173 111 390 184q31 10 117 92q80 76 102 76q26 0 41.5 -28.5t15.5 -59.5q0 -9 -2 -17l48 1h20q181 0 295 -70q145 -89 145 -275q0 -200 -193 -429q-177 -210 -436 -358.5t-454 -148.5q-131 0 -201 76q-68 73 -68 205q0 128 60 254q5 9 6 20l-6 11 q-129 49 -129 149zM279 610q0 -30 22.5 -52.5t52.5 -22.5l4 6q48 72 147 203t146 202l8 12h-12q-76 0 -221 -134q-147 -137 -147 -214zM350 176q0 -145 158 -145q193 0 448 190q204 152 352 309q222 235 222 390q0 184 -318 184q-80 0 -182 -12q-160 -112 -307 -265 q-170 -178 -234 -325q21 -25 97 -25q27 0 80 11.5t78 11.5q7 -2 10 -6q-1 -56 -199 -56q-17 0 -49 6.5t-47 6.5q-32 0 -72 -119q-37 -107 -37 -156z" />
<glyph unicode="P" horiz-adv-x="1384" d="M299 1087q0 21 31 41t53 21q-8 -5 -21 -19l7 -4q373 74 411 81q237 40 416 40q471 0 471 -319q0 -223 -290 -409q-261 -167 -496 -167q-77 0 -105 43q1 17 66 37q237 74 435 195q279 172 279 342q0 118 -117 175q-88 42 -220 42q-177 0 -495 -75l-176 -46 q-114 -29 -177 -29q-21 0 -45 15q-27 16 -27 36zM360 76q0 122 153 355q59 88 286 387q153 202 153 249q0 4 -10 33l6 12q41 -32 41 -100q0 -96 -139 -320l-260 -394q-139 -220 -139 -308q0 -18 21.5 -25t21.5 -18q-5 -13 -17 -13q-49 0 -85 48q-32 44 -32 94z" />
<glyph unicode="Q" horiz-adv-x="1489" d="M49 4q0 59 148 80q-11 33 -11 84q0 238 223 535q191 254 425 411q122 82 172 82q30 0 56.5 -27.5t29.5 -58.5q43 12 88 12q157 0 286 -101q138 -109 138 -261q0 -201 -209 -433q-177 -195 -391 -307q669 -127 669 -239q0 -46 -71.5 -98t-122.5 -52q-17 0 -25 11 q4 11 40 24q32 12 32 31q0 61 -298 155q-179 56 -372 99q-181 -80 -344 -80q-92 0 -170 40q-86 44 -123 122q-41 -5 -91.5 -29t-47.5 -24q-31 0 -31 24zM309 92q256 0 529 -47q213 125 399 329q229 250 229 443q0 110 -78 166q-68 49 -182 49q-62 0 -174 -23 q-122 -26 -160 -53q-200 -145 -368 -382q-195 -274 -195 -482zM324 31q16 -34 60 -60t83 -26q130 0 225 37q-176 36 -368 49z" />
<glyph unicode="R" horiz-adv-x="1333" d="M186 117q0 132 146 350q68 102 268 349q137 169 137 207q0 5 -3 12q-3 6 -3 9q0 12 10 17l9 -6q18 -28 18 -68q0 -100 -133 -315q-124 -189 -248 -377q-133 -209 -133 -293q0 -8 27 -31q-4 -7 -17 -14q-35 18 -58 70q-20 46 -20 90zM274 913q0 184 321 272q215 58 472 58 q649 0 649 -287q0 -141 -295 -282l-546 -228q-295 -131 -295 -247q0 -102 293 -153q194 -25 389 -50q0 -33 -105 -33q-227 0 -392 42q-261 67 -261 224q0 178 279 336q34 20 519 237q279 125 279 220q0 78 -203 117q-136 26 -282 26q-234 0 -432 -59q-176 -52 -359 -203 l-8 -4q-23 -1 -23 14z" />
<glyph unicode="S" horiz-adv-x="1077" d="M219 688q0 140 200 281q168 118 420 204q230 78 365 78q90 0 90 -174q0 -182 -86 -182q-20 0 -20 14q0 6 22.5 41t22.5 58q0 47 -90 47q-150 0 -456 -122q-341 -135 -341 -249q0 -78 194 -78q24 0 58 1t41 1q408 0 408 -229q0 -174 -262 -350q-244 -164 -425 -164 q-53 0 -93 30q-46 33 -46 85q0 16 30 20l42 2q174 23 390 139q259 140 259 281q0 125 -272 125q-35 0 -104.5 -5t-104.5 -5q-242 0 -242 151z" />
<glyph unicode="T" horiz-adv-x="944" d="M243 849q0 143 228 218q168 56 461 74q180 6 361 12q148 6 227 16q168 20 209 62q7 8 24 20l4 -10q0 -78 -85 -160t-165 -82q-103 0 -309.5 13.5t-310.5 13.5q-225 0 -341 -22q-239 -45 -239 -181q0 -60 43 -94q-107 28 -107 120zM492 70q0 161 185 434q144 200 288 399 l12 31q22 0 22 -68q0 -61 -120 -293q-82 -153 -164 -307q-125 -245 -125 -348q0 -28 -10 -41q-33 10 -62 84q-26 66 -26 109z" />
<glyph unicode="U" horiz-adv-x="1446" d="M315 1044q0 85 204 152q167 55 282 55q198 0 198 -151q0 -124 -116 -341q-30 -57 -216 -359q-116 -190 -116 -248q0 -29 27 -29q83 0 350 211q207 164 331 288q198 199 271 361q11 25 47 25q65 0 65 -74q0 -52 -183 -422t-183 -495q0 -15 14 -15q12 0 90 53 q-18 -50 -74 -96q-59 -49 -110 -49q-78 0 -78 96q0 88 78 271q16 36 123 260q12 25 16 41l-6 6q-16 -1 -210 -170q-246 -215 -373 -312q-220 -168 -300 -168q-100 0 -100 117q0 110 141 334q130 196 261 393q141 224 141 334q0 84 -125 84q-92 0 -207 -50 q-132 -57 -156 -132l19 -8l16 -7q-32 -18 -55 -18q-24 0 -45 19.5t-21 43.5z" />
<glyph unicode="V" horiz-adv-x="1260" d="M217 977q0 61 219 125q190 55 281 55q225 0 225 -186q0 -113 -83 -300q-12 -26 -155 -311q-83 -165 -83 -225q0 -13 8 -26l10 -5q39 1 294 308q337 405 503 571q307 307 471 307q57 0 113 -48q57 -51 57 -107q0 -25 -25 -25q-31 0 -41 56.5t-78 56.5q-133 0 -384 -281 q-133 -148 -446 -563q-262 -348 -355 -426q-32 -27 -74 -27q-72 0 -126 56.5t-54 128.5q0 83 170 440.5t170 468.5q0 82 -101 82q-79 0 -225 -48q-157 -53 -193 -102q15 -2 43 -6q-19 -22 -67 -22q-74 0 -74 53z" />
<glyph unicode="W" horiz-adv-x="1831" d="M289 952q0 88 198 158q163 57 279 57q215 0 215 -168q0 -110 -109 -282q-117 -186 -122 -213l2 -2q188 162 376 325q288 236 396 236q75 0 75 -90q0 -112 -104 -367.5t-104 -365.5q0 -15 8 -21q105 139 211 278q244 322 451 510q303 273 533 273q44 0 76 -18 q40 -23 40 -64q0 -40 -23 -39q-56 43 -98 43q-404 0 -1065 -1106q-95 -159 -176 -159q-70 0 -109 92q-31 71 -31 151q0 141 136 454q134 310 134 313l-10 9q-78 0 -374 -265q-323 -289 -613 -693q-39 -55 -65 -55q-47 0 -47 108q0 124 138 340q128 182 256 363 q138 196 138 274q0 80 -121 80q-86 0 -231 -54q-168 -62 -168 -126q0 -21 -45 -21q-47 0 -47 45z" />
<glyph unicode="X" horiz-adv-x="1038" d="M-25 -129q0 158 229 380q176 153 351 306q13 12 13 39q0 89 -34 224q-44 177 -108 177q-23 0 -45 -29q-26 -34 -39 -40q-16 -1 -16 30q0 48 99 122.5t153 74.5q55 0 86 -107q18 -61 37 -211q16 -126 30 -145q51 18 340 225q293 210 303 242l-10 6l-21 -2l-6 4 q40 68 107 68t67 -107q0 -34 -16 -61q-21 -36 -338 -226q-328 -198 -383 -261q-24 -28 -24 -68q0 -118 36 -294q49 -232 121 -232q21 0 45 29q34 40 39 44l4 -10q0 -60 -41.5 -97.5t-101.5 -37.5q-112 0 -184 196q-29 81 -70 287q-6 31 -18 31q-23 0 -174 -128 q-115 -97 -176 -155q-212 -200 -212 -260q0 -80 -20 -80q-23 0 -23 66z" />
<glyph unicode="Y" horiz-adv-x="1540" d="M301 164q0 123 173 341q47 59 320 362q173 190 173 247q0 41 -65 41q-82 0 -293.5 -103.5t-237.5 -103.5q-64 0 -64 70q0 42 55 65l7 -6l-7 -20l7 -8q130 52 260 103q153 56 274 56q154 0 154 -123q0 -93 -162 -315q-150 -191 -301 -383q-162 -208 -162 -270 q0 -29 29 -29q57 0 283 195q207 181 415 362q235 195 314 195q75 0 75 -131q0 -108 -74.5 -287t-74.5 -170q0 -9 6 -9t106 57q104 60 123 65l11 -9q-5 -12 -163 -115q-163 -106 -190 -147q-427 -653 -602 -653q-67 0 -67 88q0 84 212 299q167 170 298 268q53 40 96 86 q74 80 144 241q73 166 73 267q0 58 -29 58t-233 -200q-281 -278 -391 -373q-230 -200 -326 -200q-65 0 -117 63q-49 60 -49 126z" />
<glyph unicode="Z" horiz-adv-x="1272" d="M121 61q0 53 31 99q107 158 1077 844q53 38 53 65q0 22 -38 22q-88 0 -331 -60t-354 -60q-50 0 -90 60q-35 55 -35 108q0 70 94 71l13 -6l-19 -20l-6 -13q1 -14 53 -14q114 0 343 33t345 33q88 0 125 -14q64 -23 64 -95q0 -79 -54.5 -134.5t-361.5 -266.5 q-393 -269 -518 -363q-264 -197 -264 -256q0 -18 31 -18q24 0 83 16q334 90 654 90q91 0 124 -6q83 -15 83 -67q0 -107 -58 -107q-17 0 -24 10l8 19q-24 22 -107 22q-130 0 -379 -54q-27 -6 -227 -61q-188 -51 -196 -51q-54 0 -89 62q-30 53 -30 112z" />
<glyph unicode="[" horiz-adv-x="551" d="M55 -246l406 1587h307l-20 -81h-218l-370 -1424h225l-18 -82h-312z" />
<glyph unicode="\" horiz-adv-x="1092" d="M266 1276l56 22l682 -1519l-56 -23z" />
<glyph unicode="]" horiz-adv-x="551" d="M-12 -246l22 82h217l373 1426h-227l20 81h314l-410 -1589h-309z" />
<glyph unicode="^" horiz-adv-x="836" d="M217 547q0 40 174 180q180 145 250 145q81 0 149 -116q26 -45 82 -187q6 -16 6 -25q0 -16 -18 -16q-12 0 -92.5 123t-144.5 123q-66 0 -218.5 -123t-173.5 -123q-14 0 -14 19z" />
<glyph unicode="_" horiz-adv-x="1024" d="M0 -164h1024v-82h-1024v82z" />
<glyph unicode="`" horiz-adv-x="494" d="M344 915q0 15 11.5 31.5t25.5 16.5q20 0 142 -91t134 -114l-8 -6q-11 3 -139 63t-147 71.5t-19 28.5z" />
<glyph unicode="a" d="M0 74q0 118 235 359t359 241q50 0 85 -43.5t35 -94.5q0 -19 -20 -18q-10 5 -30 27q-14 16 -37 16q-121 0 -314.5 -193.5t-193.5 -310.5q0 -11 12 -16q36 1 248.5 203t259.5 202q53 0 53 -65q0 -22 -71 -148.5t-71 -187.5q0 -12 15 -12q57 0 205.5 148.5t157.5 148.5 l10 -11q-1 -52 -168 -198q-170 -148 -238 -148q-75 0 -75 97q0 59 34 129q41 86 48 114l-9 11q-32 -19 -203 -207q-147 -162 -216 -162q-44 0 -77.5 37t-33.5 82z" />
<glyph unicode="b" horiz-adv-x="766" d="M55 127q0 137 144 380q78 130 269 394q145 201 146 234q-6 9 -10 22q-1 10 8 10q31 0 54 -38q20 -33 20 -66q0 -70 -148 -270q-7 -9 -210 -265l-3 -13l9 1q183 127 297 127q59 0 100 -42.5t41 -102.5q0 -137 -245 -350q-236 -205 -357 -205q-45 0 -45 34q-2 3 -48 61 q-22 28 -22 89zM125 53q0 -30 27 -39q35 49 186 155q191 135 246 182q123 106 123 179q0 58 -68 58q-156 0 -335 -188.5t-179 -346.5z" />
<glyph unicode="c" horiz-adv-x="590" d="M35 100q0 128 177 351t286 223q36 0 78 -61q40 -57 40 -97q0 -26 -21 -55.5t-46 -34.5q-22 -1 -22 20q0 10 5 29.5t5 28.5q0 39 -31 39q-72 0 -224 -192q-155 -194 -155 -298q0 -47 57 -47q106 0 302 118q161 97 270 198l12 4q21 0 20 -17l-6 -12q-67 -100 -270 -227 q-211 -131 -322 -131q-70 0 -112.5 45t-42.5 116z" />
<glyph unicode="d" horiz-adv-x="760" d="M3 59q0 123 164 357q171 243 282 243q39 0 92 -33q57 -35 65 -69q1 -18 -24 -18q-15 0 -34.5 15t-29.5 15q-100 0 -251 -211q-146 -204 -146 -317q0 -33 20 -33q32 0 103 70q279 275 391 469q142 245 177 300q156 245 214 245q28 0 66 -22q41 -25 41 -50q0 -23 -10 -24 q23 3 -25 3q-70 0 -318 -415.5t-248 -534.5q0 -11 5 -22l18 -9q65 0 197 145q146 159 170 169l6 -8q-3 -62 -164.5 -214.5t-226.5 -152.5q-41 0 -68 39q-23 34 -23 76q0 88 76 252q-61 -87 -185 -223q-153 -169 -198 -169q-49 0 -92.5 39.5t-43.5 87.5z" />
<glyph unicode="e" horiz-adv-x="612" d="M6 96q0 128 183.5 351t297.5 223q55 0 96 -65q38 -58 38 -116q0 -78 -123 -165q-116 -83 -197 -83q-8 0 -8 11q0 12 134 106t134 158q0 31 -31 31q-105 0 -264.5 -190.5t-159.5 -314.5q0 -48 54 -48q109 0 342 156q111 80 223 159l10 -10q-29 -90 -244.5 -230.5 t-326.5 -140.5q-70 0 -114 48t-44 120z" />
<glyph unicode="f" horiz-adv-x="649" d="M-96 -319q0 137 99 362q69 156 185 354q99 169 99 168q0 17 -58.5 30t-58.5 34q8 6 82 6q81 0 98 20q66 76 134 176q98 140 98 191l-4 13l-9 7q-1 8 5 13q5 4 11 4h3q26 -6 53 -45t27 -68q0 -64 -74 -161q-84 -108 -94 -142l10 -6h319q11 0 15 -12q-12 -24 -211 -29 q-191 -5 -189 -37l7 -8q137 -58 137 -219q0 -193 -204 -492q-212 -311 -374 -311q-106 0 -106 152zM-43 -360q0 -64 43 -64q27 0 72 27q158 95 299 320q145 232 145 409q0 137 -102 192q-107 -92 -280 -419q-177 -335 -177 -465z" />
<glyph unicode="g" horiz-adv-x="782" d="M-113 -575q0 134 226 316q59 47 342 236q102 146 102 281q0 39 -16 39q-18 -6 -180 -162q-153 -147 -218 -147q-41 0 -80.5 50t-39.5 93q0 133 224 342q220 207 351 207q53 0 87 -66q28 -55 28 -114q0 -15 -23 -15q-12 0 -29 37t-61 37q-104 0 -294.5 -180.5 t-190.5 -282.5q0 -28 28 -28q53 0 252 166.5t238 166.5q45 0 45 -90q0 -45 -21 -113q-24 -79 -28 -110h8q144 102 244 188q33 34 98 91l12 6l15 -13q-29 -93 -390 -342q-20 -14 -36 -49q-90 -196 -251 -387q-206 -243 -364 -243q-78 0 -78 86zM-74 -588q0 -34 29 -34 q94 0 263 205q130 158 206 298l-4 4q-108 -37 -293 -201q-201 -178 -201 -272z" />
<glyph unicode="h" horiz-adv-x="801" d="M20 72q0 118 140 359q61 105 260 403q140 210 141 251q-12 27 -12 33q0 19 14 19q24 0 41 -36q14 -30 14 -57q0 -90 -91 -249q-37 -66 -172 -268q-96 -144 -103 -187l6 -8q16 5 99 89q100 101 162 148q104 78 181 78q46 0 74.5 -34.5t28.5 -80.5q0 -88 -99 -248 q-106 -170 -108 -182q69 45 205 138q64 53 196 141l9 -12q-1 -33 -220 -190q-234 -166 -258 -206q-29 -49 -61 -49q-64 0 -64 103q0 67 161 276t161 258q0 33 -37 33q-138 0 -389 -305q-120 -154 -240 -309l-12 6q-27 31 -27 86z" />
<glyph unicode="i" horiz-adv-x="389" d="M14 43q0 94 105 276q19 32 164 256q10 15 14 29l-6 14l8 19l10 4q26 0 53 -25t27 -51q0 -44 -151.5 -257.5t-151.5 -276.5q0 -21 16 -21q50 0 206 141q161 146 169 148l8 -10q-1 -44 -169 -188q-171 -146 -234 -146q-68 0 -68 88zM386 829q0 21 66 40q80 24 95 36 q6 -8 6 -28q0 -39 -35.5 -71t-73.5 -32q-58 0 -58 55z" />
<glyph unicode="j" horiz-adv-x="494" d="M-375 -481q0 114 120 223q66 60 234 162q140 85 162 123q152 263 230 548l-6 11q-11 -4 -33 -11l-4 5q13 41 55 41q36 0 65 -20q33 -22 33 -56q0 -45 -68 -201q-59 -135 -94 -192l3 -5q157 111 187 133q106 79 177 146l14 6l13 -12q-4 -11 -15 -23q-60 -65 -204 -173 q-217 -162 -218 -163q-17 -14 -26 -30q-327 -597 -523 -597q-102 0 -102 85zM-340 -483q0 -35 31 -35q78 0 240 196q155 189 150 245l-5 3l-10 -4q-130 -70 -247 -172q-159 -137 -159 -233zM428 834q0 14 66 38q90 34 96 37q3 -6 3 -17q0 -45 -29 -79.5t-72 -34.5 q-24 0 -44 16t-20 40z" />
<glyph unicode="k" horiz-adv-x="844" d="M27 53q0 137 173 401q71 108 315 428q148 195 148 237q0 4 -1 7q0 10 6 17q6 6 14 6h2q29 -5 29 -51q0 -86 -113 -265q-24 -38 -170 -245q-15 -21 -20 -35l4 -2q39 8 167 65q110 50 183 50q53 0 92 -33q41 -36 41 -88q0 -82 -147 -176q-136 -76 -273 -152 q-147 -85 -147 -147q0 -60 149 -60q46 0 135.5 14.5t133.5 14.5q21 0 30 -10q-3 -28 -141 -54q-116 -22 -174 -22q-191 0 -191 121q0 115 139 223q45 35 259 159q139 81 139 130q0 35 -37 35q-72 0 -213 -66q-136 -64 -192 -119q-4 9 -17 23q-99 -149 -153 -240 q-115 -193 -115 -250l12 -24q-3 -9 -16 -17l-8 4q-43 49 -43 121z" />
<glyph unicode="l" horiz-adv-x="385" d="M39 63q0 125 147 373q66 111 274 413q147 215 148 257l-6 12l-20 17q-1 18 28 18q30 0 47 -33q15 -27 15 -59q0 -74 -265.5 -505.5t-265.5 -543.5q0 -26 21 -26q63 0 218 161q172 177 189 185l6 -8q-3 -73 -181 -230t-257 -157q-47 0 -74 41q-24 35 -24 85z" />
<glyph unicode="m" horiz-adv-x="1245" d="M14 57q0 88 87 243q43 77 161 255q87 130 88 156l-10 20q-1 14 14 14q24 0 41 -28q15 -24 15 -49q0 -48 -39 -128l-62 -122q13 3 130 107q108 98 196 98q82 0 82 -95q0 -27 -13 -70q-14 -47 -16 -67l6 -8q17 5 94 74q94 83 152 122q98 64 172 64q98 0 98 -115 q0 -88 -91 -255.5t-91 -239.5q0 -31 23 -31q49 0 178 131.5t141 132.5l6 -6q-1 -52 -145 -184q-147 -135 -213 -135q-52 0 -82.5 35t-30.5 87q0 99 104.5 290.5t104.5 211.5q0 23 -24 23q-93 0 -283 -179q-180 -169 -297 -429q-6 -13 -14 -13q-31 0 -52.5 29t-21.5 61 q0 80 97 266t97 226q0 22 -18 22q-95 0 -292 -252q-154 -196 -232 -344q-6 -10 -11 -14q-49 29 -49 96z" />
<glyph unicode="n" horiz-adv-x="856" d="M12 33q0 103 174.5 381.5t175.5 296.5q-7 10 -14 22l10 17q74 -36 74 -99q0 -68 -77 -180q-88 -128 -99 -170l2 -4q29 12 117 96q108 103 163 143q101 74 175 74q41 0 75.5 -33.5t34.5 -74.5q0 -66 -95 -233t-95 -218q0 -22 16 -22q44 0 163.5 114t133.5 115l8 -8 q-2 -51 -144 -170q-145 -121 -210 -121q-44 0 -73 30t-29 74q0 73 107.5 247t107.5 216q0 25 -23 25q-100 0 -337 -233q-221 -216 -279 -336q-12 -24 -19 -24q-19 0 -32 29q-11 24 -11 46z" />
<glyph unicode="o" horiz-adv-x="686" d="M31 104q0 132 159 323q133 162 273 255q24 16 37 16q16 0 44.5 -30.5t28.5 -46.5q0 -14 -26 -43q54 -27 91 -76q42 -54 42 -109q0 -142 -180 -296q-175 -150 -320 -150q-65 0 -107 45.5t-42 111.5zM128 72q0 -66 65 -66q124 0 269.5 138t145.5 262q0 109 -112 129 q-110 -74 -227 -207q-141 -161 -141 -256z" />
<glyph unicode="p" horiz-adv-x="823" d="M-163 -335q0 128 126 368q63 118 235 392q127 201 127 237q0 12 -8 26l9 6q34 0 57 -32q20 -29 20 -64q0 -47 -28 -93q-34 -56 -39 -75l4 -4q22 6 86 56q76 59 124 84q82 44 163 44q125 0 125 -145q0 -143 -254 -312q-234 -157 -371 -157q-22 0 -35 2l-1 13l1 14 q167 111 333 222q259 178 259 259q0 51 -61 51q-81 0 -216 -84q-113 -70 -190 -147q-100 -100 -246 -330q-166 -260 -166 -361q0 -22 14 -31q19 -12 23 -22q1 -16 -28 -16q-63 0 -63 99z" />
<glyph unicode="q" horiz-adv-x="645" d="M-33 -74q0 42 64 58l88 22l-46 36q-18 16 -18 62q0 142 159 363q166 231 298 231q39 0 106 -42q72 -46 72 -85l-10 -10q-6 3 -41 25q-25 16 -45 16q-114 0 -277 -204q-158 -199 -158 -319q0 -46 36 -46q79 0 220 153q120 130 171 299q6 19 16 25q14 -6 14 -42 q0 -170 -157 -339q-127 -137 -238 -137q-11 0 -16 -6q10 -9 346 -156q272 -119 459 -119q73 0 172 36q89 32 89 36h-1q10 0 14 -12q-16 -63 -153 -117q-120 -47 -201 -47q-145 0 -327 91q-54 27 -287 170q-149 91 -214 91q-34 0 -61.5 -27.5t-46.5 -27.5q-27 0 -27 22z" />
<glyph unicode="r" horiz-adv-x="676" d="M23 231q107 129 243 304q-30 43 -30 88q0 38 31 88q33 55 67 55q31 0 58.5 -31t27.5 -63q0 -26 -19 -53q-21 -32 -24 -44q3 -4 11 -5q18 0 55 9t57 9q49 0 79.5 -33.5t30.5 -83.5q0 -76 -76.5 -226t-76.5 -173l10 -13q35 0 181 147q151 150 165 154l12 -14l-8 -20 q-343 -381 -403 -381q-34 0 -65.5 38t-31.5 74q0 60 105.5 224.5t105.5 224.5q0 37 -41 37q-15 0 -88 -17.5t-94 -25.5q-230 -279 -270 -279z" />
<glyph unicode="s" horiz-adv-x="485" d="M2 -51q0 22 76 65q113 63 143 86q76 58 76 115q0 43 -72.5 116.5t-72.5 137.5q0 73 91 140q85 63 158 63q23 0 47.5 -27.5t24.5 -50.5q0 -20 -110.5 -71t-110.5 -109q0 -33 69.5 -101.5t69.5 -122.5q0 -21 -8 -40l4 -5q23 14 128 107l101 90q11 0 15 -12 q-8 -31 -116 -131q-93 -86 -144 -123q-114 -172 -289 -172q-80 0 -80 45z" />
<glyph unicode="t" horiz-adv-x="496" d="M16 43q0 101 136 323.5t136 219.5q0 5 -1 6l-74 -2h-13q-73 0 -73 22q0 24 138 24q29 0 63 -1q205 268 207 313l-9 15q3 10 15 10q49 0 49 -58q0 -78 -127 -278h-5l81 2q23 1 42 1q39 0 64 -3q53 -5 53 -19q0 -24 -121 -27q-133 -3 -145 -11q-291 -462 -291 -553 q0 -29 27 -29q58 0 218 127t171 127l8 -8q-1 -53 -182 -188q-184 -138 -264 -138q-46 0 -76 40q-27 37 -27 85z" />
<glyph unicode="u" horiz-adv-x="764" d="M8 72q0 109 169 352q138 198 138 225q0 15 9 21q28 0 47.5 -24.5t19.5 -53.5q0 -63 -132 -254.5t-132 -271.5q0 -21 14 -21q53 0 271 216q199 197 256 280q34 49 57 49q20 0 43 -22.5t23 -43.5q0 -22 -108 -193t-108 -272q0 -30 21 -30q49 0 164.5 116.5t126.5 116.5 l6 -8q-1 -47 -131 -168q-133 -123 -193 -123q-94 0 -94 109q0 57 34 139q38 90 42 123l-2 4q-86 -94 -171 -188q-174 -181 -263 -181q-44 0 -75.5 29.5t-31.5 73.5z" />
<glyph unicode="v" horiz-adv-x="662" d="M39 72q0 96 84 255q67 122 133 244l2 6q-11 10 -22 17q16 29 38 29q32 0 56.5 -31.5t24.5 -64.5q0 -44 -112 -231t-112 -237q0 -36 27 -36q9 0 30 8q151 59 290 231q145 182 145 336q0 13 -4 43q-4 27 -4 42l1 9q89 -53 89 -149q0 -155 -214 -367q-210 -209 -350 -209 q-42 0 -72 31.5t-30 73.5z" />
<glyph unicode="w" horiz-adv-x="1133" d="M27 86q0 151 243 502q6 8 12 24l11 9q84 -21 84 -74q0 -20 -132 -211t-132 -273q0 -24 18 -24q55 0 193 145q76 81 234 272q122 147 136 150q27 -4 49.5 -28t22.5 -52q0 -31 -102 -187t-102 -255q0 -64 46 -64q134 0 343 262q204 258 204 411q0 11 -2 26.5t-2 23.5 q0 27 12 33q39 0 39 -121q0 -190 -198 -438q-207 -260 -394 -260q-64 0 -99 52q-30 45 -30 112q0 102 70 264q-80 -125 -196 -254q-157 -174 -240 -174q-43 0 -68 45q-20 37 -20 84z" />
<glyph unicode="x" horiz-adv-x="637" d="M-184 -225q0 33 395 444q27 63 27 285q0 119 -31 119l-19 -9l-6 7q0 41 72 41q64 0 87 -19q28 -22 28 -86q0 -25 -6.5 -75.5t-6.5 -75.5q0 -18 4 -23q37 16 222 212q171 181 229 181q24 0 31 -39l-10 -8q-50 -11 -251 -200t-231 -250q-8 -82 -8 -105q0 -129 66 -129 q53 0 196.5 114.5t145.5 114.5q17 0 16 -16q-2 -5 -6 -14q-60 -84 -188 -174q-142 -101 -232 -101q-121 0 -121 174l-18 -2q-172 -181 -375 -381q-10 4 -10 15z" />
<glyph unicode="y" horiz-adv-x="778" d="M-121 -467q0 117 234 290q36 27 342 220q19 12 55 72q172 288 172 366l-6 11q-63 -30 -287 -278q-200 -222 -285 -222q-40 0 -68 46q-24 40 -24 83q0 61 136 275l182 278q-16 6 -15 22q6 9 19 9q36 0 66 -29t30 -64q0 -44 -160.5 -256t-160.5 -270q0 -10 10 -14 q36 1 315 267.5t305 266.5q47 0 47 -67q0 -102 -161 -402v-10h10q131 78 283 156l12 -9q-12 -23 -162 -115q-161 -100 -184 -122q-14 -13 -29 -39q-115 -192 -247 -339q-194 -216 -334 -216q-95 0 -95 90zM-66 -444q0 -33 35 -33q73 0 251 178q169 169 198 250l-6 4 q-73 -20 -268 -170q-210 -162 -210 -229z" />
<glyph unicode="z" horiz-adv-x="602" d="M-90 -426q0 65 109 164q56 51 215 168q132 96 159 133q51 70 51 129q0 57 -63 57q-125 0 -303 -133q-21 0 -34 35q-11 27 -11 53q0 55 39 84q125 86 249 171q187 137 187 194q0 43 -57 43q-48 0 -119 -29t-109 -63l2 -12q0 -19 -28 -35q-24 -14 -44 -14q-26 0 -26 46 q0 67 122 118q101 42 183 42q125 0 125 -99q0 -67 -75 -144q-33 -35 -148 -127q-89 -72 -107 -109l9 -6q17 3 68 19q42 13 71 13q131 0 131 -120q0 -26 -8 -48l12 2q113 80 238 164l8 -8q-10 -31 -117 -113q-70 -50 -139 -100q-17 -13 -41 -59q-49 -95 -230 -270 q-198 -191 -280 -191q-39 0 -39 45z" />
<glyph unicode="{" horiz-adv-x="551" d="M148 -105q0 95 57.5 281t57.5 276q0 70 -70 103q119 34 188 243q57 180 115 360q87 184 260 181l-2 -16q-125 -55 -185 -231q-42 -157 -85 -315q-60 -173 -187 -224q70 -50 70 -124q0 -94 -61.5 -280t-61.5 -281q0 -67 67 -89l-2 -15l-22 -1q-139 -3 -139 132z" />
<glyph unicode="|" horiz-adv-x="512" d="M225 -512v2048h78v-2048h-78z" />
<glyph unicode="}" horiz-adv-x="551" d="M0 -240l2 17q124 55 183 229l86 312q59 173 184 227q-69 50 -69 123q0 96 63 286t63 286q0 74 -70 79l2 14l27 1q134 4 134 -131q0 -96 -57 -283t-57 -274q0 -70 72 -103q-119 -34 -187 -241q-57 -180 -115 -359q-87 -185 -261 -183z" />
<glyph unicode="~" horiz-adv-x="836" d="M174 360q0 46 71.5 113.5t121.5 67.5q44 0 128 -79t126 -79q41 0 79 55t50 56q12 -4 12 -15q0 -44 -72 -112t-121 -68q-48 0 -133 79t-121 79q-41 0 -78.5 -55t-50.5 -56q-12 4 -12 14z" />
<glyph unicode="&#xad;" horiz-adv-x="842" d="M195 487q0 22 18 21q24 -19 117 -19q61 0 183 6.5t183 6.5q45 0 45 -47l-16 -15q-17 6 -29 6q-68 0 -205 -22.5t-206 -22.5q-90 0 -90 86z" />
<glyph unicode="&#xc0;" horiz-adv-x="1423" d="M164 182q0 197 222 449q203 230 489 399q290 172 485 172q215 0 215 -162q0 -101 -88 -120l-10 10q1 5 18 53q12 33 12 55q0 62 -110 62q-181 0 -451 -179q-260 -171 -449 -401q-204 -247 -204 -422q0 -59 53 -59q110 0 375 187q139 98 446 347q231 187 258 187 q30 0 49 -25t19 -55q0 -26 -109.5 -279.5t-109.5 -334.5q0 -44 30 -44q7 0 20.5 3t18.5 4l13 -4q-16 -21 -74.5 -44.5t-89.5 -23.5q-72 0 -72 94q0 95 59 242q10 23 105 229q4 10 6 21l-4 6q-11 -3 -22 -12q-216 -179 -432 -357q-301 -225 -485 -225q-80 0 -134 76 q-49 69 -49 151zM1165 1458q0 15 11.5 31.5t25.5 16.5q20 0 142 -91t134 -114l-8 -6q-11 3 -139 63t-147 71.5t-19 28.5z" />
<glyph unicode="&#xc1;" horiz-adv-x="1423" d="M164 182q0 197 222 449q203 230 489 399q290 172 485 172q215 0 215 -162q0 -101 -88 -120l-10 10q1 5 18 53q12 33 12 55q0 62 -110 62q-181 0 -451 -179q-260 -171 -449 -401q-204 -247 -204 -422q0 -59 53 -59q110 0 375 187q139 98 446 347q231 187 258 187 q30 0 49 -25t19 -55q0 -26 -109.5 -279.5t-109.5 -334.5q0 -44 30 -44q7 0 20.5 3t18.5 4l13 -4q-16 -21 -74.5 -44.5t-89.5 -23.5q-72 0 -72 94q0 95 59 242q10 23 105 229q4 10 6 21l-4 6q-11 -3 -22 -12q-216 -179 -432 -357q-301 -225 -485 -225q-80 0 -134 76 q-49 69 -49 151zM1245 1295q16 25 136.5 115t140.5 90q14 0 25.5 -16.5t11.5 -31.5q0 -17 -19 -28q-24 -14 -148.5 -73t-137.5 -62z" />
<glyph unicode="&#xc2;" horiz-adv-x="1423" d="M164 182q0 197 222 449q203 230 489 399q290 172 485 172q215 0 215 -162q0 -101 -88 -120l-10 10q1 5 18 53q12 33 12 55q0 62 -110 62q-181 0 -451 -179q-260 -171 -449 -401q-204 -247 -204 -422q0 -59 53 -59q110 0 375 187q139 98 446 347q231 187 258 187 q30 0 49 -25t19 -55q0 -26 -109.5 -279.5t-109.5 -334.5q0 -44 30 -44q7 0 20.5 3t18.5 4l13 -4q-16 -21 -74.5 -44.5t-89.5 -23.5q-72 0 -72 94q0 95 59 242q10 23 105 229q4 10 6 21l-4 6q-11 -3 -22 -12q-216 -179 -432 -357q-301 -225 -485 -225q-80 0 -134 76 q-49 69 -49 151zM1161 1277l9 13q232 139 288 139q41 0 97 -74q53 -69 53 -108l-10 -9q-13 4 -69 71q-51 62 -99 62q-49 0 -132 -46q-88 -50 -126 -54z" />
<glyph unicode="&#xc3;" horiz-adv-x="1423" d="M164 182q0 197 222 449q203 230 489 399q290 172 485 172q215 0 215 -162q0 -101 -88 -120l-10 10q1 5 18 53q12 33 12 55q0 62 -110 62q-181 0 -451 -179q-260 -171 -449 -401q-204 -247 -204 -422q0 -59 53 -59q110 0 375 187q139 98 446 347q231 187 258 187 q30 0 49 -25t19 -55q0 -26 -109.5 -279.5t-109.5 -334.5q0 -44 30 -44q7 0 20.5 3t18.5 4l13 -4q-16 -21 -74.5 -44.5t-89.5 -23.5q-72 0 -72 94q0 95 59 242q10 23 105 229q4 10 6 21l-4 6q-11 -3 -22 -12q-216 -179 -432 -357q-301 -225 -485 -225q-80 0 -134 76 q-49 69 -49 151zM1149 1346q16 34 68.5 69t91.5 35q38 0 106.5 -46t103.5 -46q25 0 51 15q33 21 44 24l6 -6l-6 -15q-64 -69 -129 -69q-45 0 -117.5 46t-101.5 46q-46 0 -91 -55l-16 -7z" />
<glyph unicode="&#xc8;" horiz-adv-x="1069" d="M221 131q0 149 271 306q248 144 414 144q93 0 93 -120q0 -17 -34 -23q-303 -53 -464 -158q-184 -120 -184 -227q0 -110 215 -110q94 0 222 27q110 24 219 48h12q7 -2 10 -6q-19 -42 -207 -92q-170 -45 -245 -45q-118 0 -214 67q-108 74 -108 189zM248 750q0 144 228 267 q182 100 468 167q244 57 389 57q92 0 141 -79q42 -67 42 -165q0 -48 -47 -104t-93 -57l-12 12q1 12 47.5 66t46.5 90q0 67 -151 67q-246 0 -606 -134q-375 -139 -375 -253q0 -76 170 -98q111 -8 223 -17q-70 -39 -199 -39q-111 0 -186 53q-86 60 -86 167zM1055 1458 q0 15 11.5 31.5t25.5 16.5q20 0 142 -91t134 -114l-8 -6q-11 3 -139 63t-147 71.5t-19 28.5z" />
<glyph unicode="&#xc9;" horiz-adv-x="1069" d="M221 131q0 149 271 306q248 144 414 144q93 0 93 -120q0 -17 -34 -23q-303 -53 -464 -158q-184 -120 -184 -227q0 -110 215 -110q94 0 222 27q110 24 219 48h12q7 -2 10 -6q-19 -42 -207 -92q-170 -45 -245 -45q-118 0 -214 67q-108 74 -108 189zM248 750q0 144 228 267 q182 100 468 167q244 57 389 57q92 0 141 -79q42 -67 42 -165q0 -48 -47 -104t-93 -57l-12 12q1 12 47.5 66t46.5 90q0 67 -151 67q-246 0 -606 -134q-375 -139 -375 -253q0 -76 170 -98q111 -8 223 -17q-70 -39 -199 -39q-111 0 -186 53q-86 60 -86 167zM1085 1295 q16 25 136.5 115t140.5 90q14 0 25.5 -16.5t11.5 -31.5q0 -17 -19 -28q-24 -14 -148.5 -73t-137.5 -62z" />
<glyph unicode="&#xca;" horiz-adv-x="1069" d="M221 131q0 149 271 306q248 144 414 144q93 0 93 -120q0 -17 -34 -23q-303 -53 -464 -158q-184 -120 -184 -227q0 -110 215 -110q94 0 222 27q110 24 219 48h12q7 -2 10 -6q-19 -42 -207 -92q-170 -45 -245 -45q-118 0 -214 67q-108 74 -108 189zM248 750q0 144 228 267 q182 100 468 167q244 57 389 57q92 0 141 -79q42 -67 42 -165q0 -48 -47 -104t-93 -57l-12 12q1 12 47.5 66t46.5 90q0 67 -151 67q-246 0 -606 -134q-375 -139 -375 -253q0 -76 170 -98q111 -8 223 -17q-70 -39 -199 -39q-111 0 -186 53q-86 60 -86 167zM1071 1277l9 13 q232 139 288 139q41 0 97 -74q53 -69 53 -108l-10 -9q-13 4 -69 71q-51 62 -99 62q-49 0 -132 -46q-88 -50 -126 -54z" />
<glyph unicode="&#xcc;" horiz-adv-x="1085" d="M90 274q0 34 11 78q14 58 36 58q15 0 15 -31q0 -13 -5.5 -40.5t-5.5 -41.5q0 -118 86.5 -201.5t204.5 -83.5q237 0 485 392q122 193 295 593q3 8 3 13l-9 8q-63 -15 -261 -142q-206 -133 -206 -174q0 -25 48 -36q54 -14 59 -21q0 -22 -70 -22q-38 0 -68 55q-25 47 -25 90 q0 100 191 215q73 44 281 139q144 65 305 168q13 -11 13 -47q0 -69 -64 -104q-77 -41 -92 -76l-184 -458q-141 -324 -279 -498q-187 -235 -393 -235q-151 0 -263 127q-108 122 -108 275zM984 1458q0 15 11.5 31.5t25.5 16.5q20 0 142 -91t134 -114l-8 -6q-11 3 -139 63 t-147 71.5t-19 28.5z" />
<glyph unicode="&#xcd;" horiz-adv-x="1085" d="M90 274q0 34 11 78q14 58 36 58q15 0 15 -31q0 -13 -5.5 -40.5t-5.5 -41.5q0 -118 86.5 -201.5t204.5 -83.5q237 0 485 392q122 193 295 593q3 8 3 13l-9 8q-63 -15 -261 -142q-206 -133 -206 -174q0 -25 48 -36q54 -14 59 -21q0 -22 -70 -22q-38 0 -68 55q-25 47 -25 90 q0 100 191 215q73 44 281 139q144 65 305 168q13 -11 13 -47q0 -69 -64 -104q-77 -41 -92 -76l-184 -458q-141 -324 -279 -498q-187 -235 -393 -235q-151 0 -263 127q-108 122 -108 275zM1125 1295q16 25 136.5 115t140.5 90q14 0 25.5 -16.5t11.5 -31.5q0 -17 -19 -28 q-24 -14 -148.5 -73t-137.5 -62z" />
<glyph unicode="&#xd2;" horiz-adv-x="1436" d="M197 645q0 158 249 318q173 111 390 184q31 10 117 92q80 76 102 76q26 0 41.5 -28.5t15.5 -59.5q0 -9 -2 -17l48 1q195 4 315 -70q145 -89 145 -275q0 -200 -193 -429q-177 -210 -436 -358.5t-454 -148.5q-131 0 -201 76q-68 73 -68 205q0 128 60 254q5 9 6 20l-6 11 q-129 49 -129 149zM279 610q0 -30 22.5 -52.5t52.5 -22.5l4 6q48 72 147 203t146 202l8 12h-12q-76 0 -221 -134q-147 -137 -147 -214zM350 176q0 -145 158 -145q193 0 448 190q204 152 352 309q222 235 222 390q0 184 -318 184q-80 0 -182 -12q-160 -112 -307 -265 q-170 -178 -234 -325q21 -25 97 -25q27 0 80 11.5t78 11.5q7 -2 10 -6q-1 -56 -199 -56q-17 0 -49 6.5t-47 6.5q-32 0 -72 -119q-37 -107 -37 -156zM1144 1458q0 15 11.5 31.5t25.5 16.5q20 0 142 -91t134 -114l-8 -6q-11 3 -139 63t-147 71.5t-19 28.5z" />
<glyph unicode="&#xd3;" horiz-adv-x="1436" d="M197 645q0 158 249 318q173 111 390 184q31 10 117 92q80 76 102 76q26 0 41.5 -28.5t15.5 -59.5q0 -9 -2 -17l48 1q195 4 315 -70q145 -89 145 -275q0 -200 -193 -429q-177 -210 -436 -358.5t-454 -148.5q-131 0 -201 76q-68 73 -68 205q0 128 60 254q5 9 6 20l-6 11 q-129 49 -129 149zM279 610q0 -30 22.5 -52.5t52.5 -22.5l4 6q48 72 147 203t146 202l8 12h-12q-76 0 -221 -134q-147 -137 -147 -214zM350 176q0 -145 158 -145q193 0 448 190q204 152 352 309q222 235 222 390q0 184 -318 184q-80 0 -182 -12q-160 -112 -307 -265 q-170 -178 -234 -325q21 -25 97 -25q27 0 80 11.5t78 11.5q7 -2 10 -6q-1 -56 -199 -56q-17 0 -49 6.5t-47 6.5q-32 0 -72 -119q-37 -107 -37 -156zM1245 1295q16 25 136.5 115t140.5 90q14 0 25.5 -16.5t11.5 -31.5q0 -17 -19 -28q-24 -14 -148.5 -73t-137.5 -62z" />
<glyph unicode="&#xd4;" horiz-adv-x="1436" d="M197 645q0 158 249 318q173 111 390 184q31 10 117 92q80 76 102 76q26 0 41.5 -28.5t15.5 -59.5q0 -9 -2 -17l48 1q195 4 315 -70q145 -89 145 -275q0 -200 -193 -429q-177 -210 -436 -358.5t-454 -148.5q-131 0 -201 76q-68 73 -68 205q0 128 60 254q5 9 6 20l-6 11 q-129 49 -129 149zM279 610q0 -30 22.5 -52.5t52.5 -22.5l4 6q48 72 147 203t146 202l8 12h-12q-76 0 -221 -134q-147 -137 -147 -214zM350 176q0 -145 158 -145q193 0 448 190q204 152 352 309q222 235 222 390q0 184 -318 184q-80 0 -182 -12q-160 -112 -307 -265 q-170 -178 -234 -325q21 -25 97 -25q27 0 80 11.5t78 11.5q7 -2 10 -6q-1 -56 -199 -56q-17 0 -49 6.5t-47 6.5q-32 0 -72 -119q-37 -107 -37 -156zM1131 1277l9 13q232 139 288 139q41 0 97 -74q53 -69 53 -108l-10 -9q-13 4 -69 71q-51 62 -99 62q-49 0 -132 -46 q-88 -50 -126 -54z" />
<glyph unicode="&#xd5;" horiz-adv-x="1436" d="M197 645q0 158 249 318q173 111 390 184q31 10 117 92q80 76 102 76q26 0 41.5 -28.5t15.5 -59.5q0 -9 -2 -17l48 1q195 4 315 -70q145 -89 145 -275q0 -200 -193 -429q-177 -210 -436 -358.5t-454 -148.5q-131 0 -201 76q-68 73 -68 205q0 128 60 254q5 9 6 20l-6 11 q-129 49 -129 149zM279 610q0 -30 22.5 -52.5t52.5 -22.5l4 6q48 72 147 203t146 202l8 12h-12q-76 0 -221 -134q-147 -137 -147 -214zM350 176q0 -145 158 -145q193 0 448 190q204 152 352 309q222 235 222 390q0 184 -318 184q-80 0 -182 -12q-160 -112 -307 -265 q-170 -178 -234 -325q21 -25 97 -25q27 0 80 11.5t78 11.5q7 -2 10 -6q-1 -56 -199 -56q-17 0 -49 6.5t-47 6.5q-32 0 -72 -119q-37 -107 -37 -156zM1189 1346q16 34 68.5 69t91.5 35q38 0 106.5 -46t103.5 -46q25 0 51 15q33 21 44 24l6 -6l-6 -15q-64 -69 -129 -69 q-45 0 -117.5 46t-101.5 46q-46 0 -91 -55l-16 -7z" />
<glyph unicode="&#xd9;" horiz-adv-x="1446" d="M315 1044q0 85 204 152q167 55 282 55q198 0 198 -151q0 -124 -116 -341q-30 -57 -216 -359q-116 -190 -116 -248q0 -29 27 -29q83 0 350 211q207 164 331 288q198 199 271 361q11 25 47 25q65 0 65 -74q0 -52 -183 -422t-183 -495q0 -15 14 -15q12 0 90 53 q-18 -50 -74 -96q-59 -49 -110 -49q-78 0 -78 96q0 88 78 271q16 36 123 260q12 25 16 41l-6 6q-16 -1 -210 -170q-246 -215 -373 -312q-220 -168 -300 -168q-100 0 -100 117q0 110 141 334q130 196 261 393q141 224 141 334q0 84 -125 84q-92 0 -207 -50 q-132 -57 -156 -132l19 -8l16 -7q-32 -18 -55 -18q-24 0 -45 19.5t-21 43.5zM1144 1458q0 15 11.5 31.5t25.5 16.5q20 0 142 -91t134 -114l-8 -6q-11 3 -139 63t-147 71.5t-19 28.5z" />
<glyph unicode="&#xda;" horiz-adv-x="1446" d="M315 1044q0 85 204 152q167 55 282 55q198 0 198 -151q0 -124 -116 -341q-30 -57 -216 -359q-116 -190 -116 -248q0 -29 27 -29q83 0 350 211q207 164 331 288q198 199 271 361q11 25 47 25q65 0 65 -74q0 -52 -183 -422t-183 -495q0 -15 14 -15q12 0 90 53 q-18 -50 -74 -96q-59 -49 -110 -49q-78 0 -78 96q0 88 78 271q16 36 123 260q12 25 16 41l-6 6q-16 -1 -210 -170q-246 -215 -373 -312q-220 -168 -300 -168q-100 0 -100 117q0 110 141 334q130 196 261 393q141 224 141 334q0 84 -125 84q-92 0 -207 -50 q-132 -57 -156 -132l19 -8l16 -7q-32 -18 -55 -18q-24 0 -45 19.5t-21 43.5zM1294 1295q16 25 136.5 115t140.5 90q14 0 25.5 -16.5t11.5 -31.5q0 -17 -19 -28q-24 -14 -148.5 -73t-137.5 -62z" />
<glyph unicode="&#xdd;" horiz-adv-x="1540" d="M301 164q0 123 173 341q47 59 320 362q173 190 173 247q0 41 -65 41q-82 0 -293.5 -103.5t-237.5 -103.5q-64 0 -64 70q0 42 55 65l7 -6l-7 -20l7 -8q130 52 260 103q153 56 274 56q154 0 154 -123q0 -93 -162 -315q-150 -191 -301 -383q-162 -208 -162 -270 q0 -29 29 -29q57 0 283 195q207 181 415 362q235 195 314 195q75 0 75 -131q0 -108 -74.5 -287t-74.5 -170q0 -9 6 -9t106 57q104 60 123 65l11 -9q-5 -12 -163 -115q-163 -106 -190 -147q-427 -653 -602 -653q-67 0 -67 88q0 84 212 299q167 170 298 268q53 40 96 86 q74 80 144 241q73 166 73 267q0 58 -29 58t-233 -200q-281 -278 -391 -373q-230 -200 -326 -200q-65 0 -117 63q-49 60 -49 126zM1342 1295q16 25 136.5 115t140.5 90q14 0 25.5 -16.5t11.5 -31.5q0 -17 -19 -28q-24 -14 -148.5 -73t-137.5 -62z" />
<glyph unicode="&#xe0;" d="M0 74q0 118 235 359t359 241q50 0 85 -43.5t35 -94.5q0 -19 -20 -18q-10 5 -30 27q-14 16 -37 16q-121 0 -314.5 -193.5t-193.5 -310.5q0 -11 12 -16q36 1 248.5 203t259.5 202q53 0 53 -65q0 -22 -71 -148.5t-71 -187.5q0 -12 15 -12q57 0 205.5 148.5t157.5 148.5 l10 -11q-1 -52 -168 -198q-170 -148 -238 -148q-75 0 -75 97q0 59 34 129q41 86 48 114l-9 11q-32 -19 -203 -207q-147 -162 -216 -162q-44 0 -77.5 37t-33.5 82zM481 915q0 15 11.5 31.5t25.5 16.5q20 0 142 -91t134 -114l-8 -6q-11 3 -139 63t-147 71.5t-19 28.5z" />
<glyph unicode="&#xe1;" d="M0 74q0 118 235 359t359 241q50 0 85 -43.5t35 -94.5q0 -19 -20 -18q-10 5 -30 27q-14 16 -37 16q-121 0 -314.5 -193.5t-193.5 -310.5q0 -11 12 -16q36 1 248.5 203t259.5 202q53 0 53 -65q0 -22 -71 -148.5t-71 -187.5q0 -12 15 -12q57 0 205.5 148.5t157.5 148.5 l10 -11q-1 -52 -168 -198q-170 -148 -238 -148q-75 0 -75 97q0 59 34 129q41 86 48 114l-9 11q-32 -19 -203 -207q-147 -162 -216 -162q-44 0 -77.5 37t-33.5 82zM470 756q16 25 136.5 115t140.5 90q14 0 25.5 -16.5t11.5 -31.5q0 -17 -19 -28q-24 -14 -148.5 -73 t-137.5 -62z" />
<glyph unicode="&#xe2;" d="M0 74q0 118 235 359t359 241q50 0 85 -43.5t35 -94.5q0 -19 -20 -18q-10 5 -30 27q-14 16 -37 16q-121 0 -314.5 -193.5t-193.5 -310.5q0 -11 12 -16q36 1 248.5 203t259.5 202q53 0 53 -65q0 -22 -71 -148.5t-71 -187.5q0 -12 15 -12q57 0 205.5 148.5t157.5 148.5 l10 -11q-1 -52 -168 -198q-170 -148 -238 -148q-75 0 -75 97q0 59 34 129q41 86 48 114l-9 11q-32 -19 -203 -207q-147 -162 -216 -162q-44 0 -77.5 37t-33.5 82zM387 778l9 13q232 139 288 139q41 0 97 -74q53 -69 53 -108l-10 -9q-13 4 -69 71q-51 62 -99 62 q-49 0 -132 -46q-88 -50 -126 -54z" />
<glyph unicode="&#xe3;" d="M0 74q0 118 235 359t359 241q50 0 85 -43.5t35 -94.5q0 -19 -20 -18q-10 5 -30 27q-14 16 -37 16q-121 0 -314.5 -193.5t-193.5 -310.5q0 -11 12 -16q36 1 248.5 203t259.5 202q53 0 53 -65q0 -22 -71 -148.5t-71 -187.5q0 -12 15 -12q57 0 205.5 148.5t157.5 148.5 l10 -11q-1 -52 -168 -198q-170 -148 -238 -148q-75 0 -75 97q0 59 34 129q41 86 48 114l-9 11q-32 -19 -203 -207q-147 -162 -216 -162q-44 0 -77.5 37t-33.5 82zM392 793q16 34 68.5 69t91.5 35q38 0 106.5 -46t103.5 -46q25 0 51 15q33 21 44 24l6 -6l-6 -15 q-64 -69 -129 -69q-45 0 -117.5 46t-101.5 46q-46 0 -91 -55l-16 -7z" />
<glyph unicode="&#xe8;" horiz-adv-x="612" d="M6 96q0 128 183.5 351t297.5 223q55 0 96 -65q38 -58 38 -116q0 -78 -123 -165q-116 -83 -197 -83q-8 0 -8 11q0 12 134 106t134 158q0 31 -31 31q-105 0 -264.5 -190.5t-159.5 -314.5q0 -48 54 -48q109 0 342 156q111 80 223 159l10 -10q-29 -90 -244.5 -230.5 t-326.5 -140.5q-70 0 -114 48t-44 120zM349 915q0 15 11.5 31.5t25.5 16.5q20 0 142 -91t134 -114l-8 -6q-11 3 -139 63t-147 71.5t-19 28.5z" />
<glyph unicode="&#xe9;" horiz-adv-x="612" d="M6 96q0 128 183.5 351t297.5 223q55 0 96 -65q38 -58 38 -116q0 -78 -123 -165q-116 -83 -197 -83q-8 0 -8 11q0 12 134 106t134 158q0 31 -31 31q-105 0 -264.5 -190.5t-159.5 -314.5q0 -48 54 -48q109 0 342 156q111 80 223 159l10 -10q-29 -90 -244.5 -230.5 t-326.5 -140.5q-70 0 -114 48t-44 120zM360 756q16 25 136.5 115t140.5 90q14 0 25.5 -16.5t11.5 -31.5q0 -17 -19 -28q-24 -14 -148.5 -73t-137.5 -62z" />
<glyph unicode="&#xea;" horiz-adv-x="612" d="M6 96q0 128 183.5 351t297.5 223q55 0 96 -65q38 -58 38 -116q0 -78 -123 -165q-116 -83 -197 -83q-8 0 -8 11q0 12 134 106t134 158q0 31 -31 31q-105 0 -264.5 -190.5t-159.5 -314.5q0 -48 54 -48q109 0 342 156q111 80 223 159l10 -10q-29 -90 -244.5 -230.5 t-326.5 -140.5q-70 0 -114 48t-44 120zM317 778l9 13q232 139 288 139q41 0 97 -74q53 -69 53 -108l-10 -9q-13 4 -69 71q-51 62 -99 62q-49 0 -132 -46q-88 -50 -126 -54z" />
<glyph unicode="&#xec;" horiz-adv-x="389" d="M14 43q0 94 105 276q19 32 164 256q10 15 14 29l-6 14l8 19l10 4q26 0 53 -25t27 -51q0 -44 -151.5 -257.5t-151.5 -276.5q0 -21 16 -21q50 0 206 141q161 146 169 148l8 -10q-1 -44 -169 -188q-171 -146 -234 -146q-68 0 -68 88zM211 899q0 15 11.5 31t25.5 16 q21 0 143 -91t133 -114l-8 -6q-5 1 -138 64q-136 63 -149 71q-18 11 -18 29z" />
<glyph unicode="&#xed;" horiz-adv-x="389" d="M14 43q0 94 105 276q19 32 164 256q10 15 14 29l-6 14l8 19l10 4q26 0 53 -25t27 -51q0 -44 -151.5 -257.5t-151.5 -276.5q0 -21 16 -21q50 0 206 141q161 146 169 148l8 -10q-1 -44 -169 -188q-171 -146 -234 -146q-68 0 -68 88zM289 745q11 23 133 114t143 91 q14 0 25.5 -16t11.5 -31q0 -18 -18 -29q-14 -8 -148 -71t-139 -64z" />
<glyph unicode="&#xf2;" horiz-adv-x="686" d="M31 104q0 132 159 323q133 162 273 255q24 16 37 16q16 0 44.5 -30.5t28.5 -46.5q0 -14 -26 -43q54 -27 91 -76q42 -54 42 -109q0 -142 -180 -296q-175 -150 -320 -150q-65 0 -107 45.5t-42 111.5zM128 72q0 -66 65 -66q124 0 269.5 138t145.5 262q0 109 -112 129 q-110 -74 -227 -207q-141 -161 -141 -256zM369 915q0 15 11.5 31.5t25.5 16.5q20 0 142 -91t134 -114l-8 -6q-11 3 -139 63t-147 71.5t-19 28.5z" />
<glyph unicode="&#xf3;" horiz-adv-x="686" d="M31 104q0 132 159 323q133 162 273 255q24 16 37 16q16 0 44.5 -30.5t28.5 -46.5q0 -14 -26 -43q54 -27 91 -76q42 -54 42 -109q0 -142 -180 -296q-175 -150 -320 -150q-65 0 -107 45.5t-42 111.5zM128 72q0 -66 65 -66q124 0 269.5 138t145.5 262q0 109 -112 129 q-110 -74 -227 -207q-141 -161 -141 -256zM410 756q16 25 136.5 115t140.5 90q14 0 25.5 -16.5t11.5 -31.5q0 -17 -19 -28q-24 -14 -148.5 -73t-137.5 -62z" />
<glyph unicode="&#xf4;" horiz-adv-x="686" d="M31 104q0 132 159 323q133 162 273 255q24 16 37 16q16 0 44.5 -30.5t28.5 -46.5q0 -14 -26 -43q54 -27 91 -76q42 -54 42 -109q0 -142 -180 -296q-175 -150 -320 -150q-65 0 -107 45.5t-42 111.5zM128 72q0 -66 65 -66q124 0 269.5 138t145.5 262q0 109 -112 129 q-110 -74 -227 -207q-141 -161 -141 -256zM329 778l9 13q232 139 288 139q41 0 97 -74q53 -69 53 -108l-10 -9q-13 4 -69 71q-51 62 -99 62q-49 0 -132 -46q-88 -50 -126 -54z" />
<glyph unicode="&#xf5;" horiz-adv-x="686" d="M31 104q0 132 159 323q133 162 273 255q24 16 37 16q16 0 44.5 -30.5t28.5 -46.5q0 -14 -26 -43q54 -27 91 -76q42 -54 42 -109q0 -142 -180 -296q-175 -150 -320 -150q-65 0 -107 45.5t-42 111.5zM128 72q0 -66 65 -66q124 0 269.5 138t145.5 262q0 109 -112 129 q-110 -74 -227 -207q-141 -161 -141 -256zM372 793q16 34 68.5 69t91.5 35q38 0 106.5 -46t103.5 -46q25 0 51 15q33 21 44 24l6 -6l-6 -15q-64 -69 -129 -69q-45 0 -117.5 46t-101.5 46q-46 0 -91 -55l-16 -7z" />
<glyph unicode="&#xf9;" horiz-adv-x="764" d="M8 72q0 109 169 352q138 198 138 225q0 15 9 21q28 0 47.5 -24.5t19.5 -53.5q0 -63 -132 -254.5t-132 -271.5q0 -21 14 -21q53 0 271 216q199 197 256 280q34 49 57 49q20 0 43 -22.5t23 -43.5q0 -22 -108 -193t-108 -272q0 -30 21 -30q49 0 164.5 116.5t126.5 116.5 l6 -8q-1 -47 -131 -168q-133 -123 -193 -123q-94 0 -94 109q0 57 34 139q38 90 42 123l-2 4q-86 -94 -171 -188q-174 -181 -263 -181q-44 0 -75.5 29.5t-31.5 73.5zM379 915q0 15 11.5 31.5t25.5 16.5q20 0 142 -91t134 -114l-8 -6q-11 3 -139 63t-147 71.5t-19 28.5z" />
<glyph unicode="&#xfa;" horiz-adv-x="764" d="M8 72q0 109 169 352q138 198 138 225q0 15 9 21q28 0 47.5 -24.5t19.5 -53.5q0 -63 -132 -254.5t-132 -271.5q0 -21 14 -21q53 0 271 216q199 197 256 280q34 49 57 49q20 0 43 -22.5t23 -43.5q0 -22 -108 -193t-108 -272q0 -30 21 -30q49 0 164.5 116.5t126.5 116.5 l6 -8q-1 -47 -131 -168q-133 -123 -193 -123q-94 0 -94 109q0 57 34 139q38 90 42 123l-2 4q-86 -94 -171 -188q-174 -181 -263 -181q-44 0 -75.5 29.5t-31.5 73.5zM530 756q16 25 136.5 115t140.5 90q14 0 25.5 -16.5t11.5 -31.5q0 -17 -19 -28q-24 -14 -148.5 -73 t-137.5 -62z" />
<glyph unicode="&#xfd;" horiz-adv-x="778" d="M-121 -467q0 117 234 290q36 27 342 220q19 12 55 72q172 288 172 366l-6 11q-63 -30 -287 -278q-200 -222 -285 -222q-40 0 -68 46q-24 40 -24 83q0 61 136 275l182 278q-16 6 -15 22q6 9 19 9q36 0 66 -29t30 -64q0 -44 -160.5 -256t-160.5 -270q0 -10 10 -14 q36 1 315 267.5t305 266.5q47 0 47 -67q0 -102 -161 -402v-10h10q131 78 283 156l12 -9q-12 -23 -162 -115q-161 -100 -184 -122q-14 -13 -29 -39q-115 -192 -247 -339q-194 -216 -334 -216q-95 0 -95 90zM-66 -444q0 -33 35 -33q73 0 251 178q169 169 198 250l-6 4 q-73 -20 -268 -170q-210 -162 -210 -229zM550 756q16 25 136.5 115t140.5 90q14 0 25.5 -16.5t11.5 -31.5q0 -17 -19 -28q-24 -14 -148.5 -73t-137.5 -62z" />
<glyph unicode="&#x102;" horiz-adv-x="1423" d="M164 182q0 197 222 449q203 230 489 399q290 172 485 172q215 0 215 -162q0 -101 -88 -120l-10 10q1 5 18 53q12 33 12 55q0 62 -110 62q-181 0 -451 -179q-260 -171 -449 -401q-204 -247 -204 -422q0 -59 53 -59q110 0 375 187q139 98 446 347q231 187 258 187 q30 0 49 -25t19 -55q0 -26 -109.5 -279.5t-109.5 -334.5q0 -44 30 -44q7 0 20.5 3t18.5 4l13 -4q-16 -21 -74.5 -44.5t-89.5 -23.5q-72 0 -72 94q0 95 59 242q10 23 105 229q4 10 6 21l-4 6q-11 -3 -22 -12q-216 -179 -432 -357q-301 -225 -485 -225q-80 0 -134 76 q-49 69 -49 151zM1229 1401l19 7q10 -5 66 -64q37 -38 106 -38q142 0 225 145l30 -4l-3 -16l-1 2q-42 -97 -93 -141q-60 -51 -157 -51q-66 0 -125 47q-62 49 -67 113z" />
<glyph unicode="&#x103;" d="M0 74q0 118 235 359t359 241q50 0 85 -43.5t35 -94.5q0 -19 -20 -18q-10 5 -30 27q-14 16 -37 16q-121 0 -314.5 -193.5t-193.5 -310.5q0 -11 12 -16q36 1 248.5 203t259.5 202q53 0 53 -65q0 -22 -71 -148.5t-71 -187.5q0 -12 15 -12q57 0 205.5 148.5t157.5 148.5 l10 -11q-1 -52 -168 -198q-170 -148 -238 -148q-75 0 -75 97q0 59 34 129q41 86 48 114l-9 11q-32 -19 -203 -207q-147 -162 -216 -162q-44 0 -77.5 37t-33.5 82zM449 897l19 7q10 -5 66 -64q37 -38 106 -38q142 0 225 145l30 -4l-3 -16l-1 2q-42 -97 -93 -141 q-60 -51 -157 -51q-66 0 -125 47q-62 49 -67 113z" />
<glyph unicode="&#x110;" horiz-adv-x="1366" d="M154 -35q0 162 258 578q-74 -6 -131 -6q-36 0 -72 21q-41 24 -41 58q0 17 25 17q11 0 33.5 -5.5t32.5 -6.5q41 -3 200 -3q178 285 178 336q0 9 -16 33q-1 28 20 28q37 0 65 -49q25 -43 25 -83q0 -97 -102 -265q75 1 151 1q111 -5 111 -44l-19 -14q-36 8 -53 8 q-78 0 -235 -14l-246 -347q-106 -151 -156 -292q-4 -12 -12 -16q-16 14 -16 65zM285 1141q0 20 19 35.5t40 15.5q37 0 55 -10q-9 -12 -26 -37l6 -4q4 1 303 68q180 40 309 40q235 0 375 -93q166 -110 166 -333q0 -197 -198 -419q-178 -201 -439.5 -342.5t-452.5 -141.5 q-131 0 -131 72q0 13 13 18q61 -22 63 -22q14 0 23 4q334 151 625 372q411 310 411 556q0 124 -125 184q-95 45 -234 45q-112 0 -332.5 -43t-330.5 -43q-139 0 -139 78z" />
<glyph unicode="&#x111;" horiz-adv-x="760" d="M3 59q0 123 164 357q171 243 282 243q39 0 92 -33q57 -35 65 -69q1 -18 -24 -18q-15 0 -34.5 15t-29.5 15q-100 0 -251 -211q-146 -204 -146 -317q0 -33 20 -33q32 0 103 70q279 275 391 469q35 63 133 230l-91 2q-86 0 -86 22q0 6 17 11q49 15 193 19q165 261 225 261 q28 0 66 -22q41 -25 41 -50q0 -23 -10 -24q23 3 -25 3q-39 0 -158 -168q92 -1 159 -8q63 -7 63 -16q0 -33 -170 -33q-40 0 -91 1q-133 -198 -247 -416q-122 -236 -122 -310q0 -11 5 -22l18 -9q65 0 197 145q146 159 170 169l6 -8q-3 -62 -164.5 -214.5t-226.5 -152.5 q-41 0 -68 39q-23 34 -23 76q0 88 76 252q-61 -87 -185 -223q-153 -169 -198 -169q-49 0 -92.5 39.5t-43.5 87.5z" />
<glyph unicode="&#x128;" horiz-adv-x="1085" d="M90 274q0 34 11 78q14 58 36 58q15 0 15 -31q0 -13 -5.5 -40.5t-5.5 -41.5q0 -118 86.5 -201.5t204.5 -83.5q237 0 485 392q122 193 295 593q3 8 3 13l-9 8q-63 -15 -261 -142q-206 -133 -206 -174q0 -25 48 -36q54 -14 59 -21q0 -22 -70 -22q-38 0 -68 55q-25 47 -25 90 q0 100 191 215q73 44 281 139q144 65 305 168q13 -11 13 -47q0 -69 -64 -104q-77 -41 -92 -76l-184 -458q-141 -324 -279 -498q-187 -235 -393 -235q-151 0 -263 127q-108 122 -108 275zM959 1346q16 34 68.5 69t91.5 35q38 0 106.5 -46t103.5 -46q25 0 51 15q33 21 44 24 l6 -6l-6 -15q-64 -69 -129 -69q-45 0 -117.5 46t-101.5 46q-46 0 -91 -55l-16 -7z" />
<glyph unicode="&#x129;" horiz-adv-x="389" d="M14 43q0 94 105 276q19 32 164 256q10 15 14 29l-6 14l8 19l10 4q26 0 53 -25t27 -51q0 -44 -151.5 -257.5t-151.5 -276.5q0 -21 16 -21q50 0 206 141q161 146 169 148l8 -10q-1 -44 -169 -188q-171 -146 -234 -146q-68 0 -68 88zM202 793q16 34 68.5 69t91.5 35 q38 0 106.5 -46t103.5 -46q25 0 51 15q33 21 44 24l6 -6l-6 -15q-64 -69 -129 -69q-45 0 -117.5 46t-101.5 46q-46 0 -91 -55l-16 -7z" />
<glyph unicode="&#x168;" horiz-adv-x="1446" d="M315 1044q0 85 204 152q167 55 282 55q198 0 198 -151q0 -124 -116 -341q-30 -57 -216 -359q-116 -190 -116 -248q0 -29 27 -29q83 0 350 211q207 164 331 288q198 199 271 361q11 25 47 25q65 0 65 -74q0 -52 -183 -422t-183 -495q0 -15 14 -15q12 0 90 53 q-18 -50 -74 -96q-59 -49 -110 -49q-78 0 -78 96q0 88 78 271q16 36 123 260q12 25 16 41l-6 6q-16 -1 -210 -170q-246 -215 -373 -312q-220 -168 -300 -168q-100 0 -100 117q0 110 141 334q130 196 261 393q141 224 141 334q0 84 -125 84q-92 0 -207 -50 q-132 -57 -156 -132l19 -8l16 -7q-32 -18 -55 -18q-24 0 -45 19.5t-21 43.5zM1189 1346q16 34 68.5 69t91.5 35q38 0 106.5 -46t103.5 -46q25 0 51 15q33 21 44 24l6 -6l-6 -15q-64 -69 -129 -69q-45 0 -117.5 46t-101.5 46q-46 0 -91 -55l-16 -7z" />
<glyph unicode="&#x169;" horiz-adv-x="764" d="M8 72q0 109 169 352q138 198 138 225q0 15 9 21q28 0 47.5 -24.5t19.5 -53.5q0 -63 -132 -254.5t-132 -271.5q0 -21 14 -21q53 0 271 216q199 197 256 280q34 49 57 49q20 0 43 -22.5t23 -43.5q0 -22 -108 -193t-108 -272q0 -30 21 -30q49 0 164.5 116.5t126.5 116.5 l6 -8q-1 -47 -131 -168q-133 -123 -193 -123q-94 0 -94 109q0 57 34 139q38 90 42 123l-2 4q-86 -94 -171 -188q-174 -181 -263 -181q-44 0 -75.5 29.5t-31.5 73.5zM402 793q16 34 68.5 69t91.5 35q38 0 106.5 -46t103.5 -46q25 0 51 15q33 21 44 24l6 -6l-6 -15 q-64 -69 -129 -69q-45 0 -117.5 46t-101.5 46q-46 0 -91 -55l-16 -7z" />
<glyph unicode="&#x1a0;" horiz-adv-x="1436" d="M197 645q0 158 249 318q173 111 390 184q31 10 117 92q80 76 102 76q26 0 41.5 -28.5t15.5 -59.5q0 -9 -2 -17l48 1q195 4 315 -70q145 -89 145 -275q0 -200 -193 -429q-177 -210 -436 -358.5t-454 -148.5q-131 0 -201 76q-68 73 -68 205q0 128 60 254q5 9 6 20l-6 11 q-129 49 -129 149zM279 610q0 -30 22.5 -52.5t52.5 -22.5l4 6q48 72 147 203t146 202l8 12h-12q-76 0 -221 -134q-147 -137 -147 -214zM350 176q0 -145 158 -145q193 0 448 190q204 152 352 309q222 235 222 390q0 184 -318 184q-80 0 -182 -12q-160 -112 -307 -265 q-170 -178 -234 -325q21 -25 97 -25q27 0 80 11.5t78 11.5q7 -2 10 -6q-1 -56 -199 -56q-17 0 -49 6.5t-47 6.5q-32 0 -72 -119q-37 -107 -37 -156zM1468 922q17 32 114 111q82 65 97 151l11 8l7 -3q18 -37 18 -71q0 -61 -85.5 -134t-145.5 -70l-10 1z" />
<glyph unicode="&#x1a1;" horiz-adv-x="686" d="M31 104q0 132 159 323q133 162 273 255q24 16 37 16q16 0 44.5 -30.5t28.5 -46.5q0 -14 -26 -43q54 -27 91 -76q42 -54 42 -109q0 -142 -180 -296q-175 -150 -320 -150q-65 0 -107 45.5t-42 111.5zM128 72q0 -66 65 -66q124 0 269.5 138t145.5 262q0 109 -112 129 q-110 -74 -227 -207q-141 -161 -141 -256zM524 381q17 32 114 111q82 65 97 151l11 8l7 -3q18 -37 18 -71q0 -61 -85.5 -134t-145.5 -70l-10 1z" />
<glyph unicode="&#x1af;" horiz-adv-x="1446" d="M315 1044q0 85 204 152q167 55 282 55q198 0 198 -151q0 -124 -116 -341q-30 -57 -216 -359q-116 -190 -116 -248q0 -29 27 -29q83 0 350 211q207 164 331 288q198 199 271 361q11 25 47 25q65 0 65 -74q0 -52 -183 -422t-183 -495q0 -15 14 -15q12 0 90 53 q-18 -50 -74 -96q-59 -49 -110 -49q-78 0 -78 96q0 88 78 271q16 36 123 260q12 25 16 41l-6 6q-16 -1 -210 -170q-246 -215 -373 -312q-220 -168 -300 -168q-100 0 -100 117q0 110 141 334q130 196 261 393q141 224 141 334q0 84 -125 84q-92 0 -207 -50 q-132 -57 -156 -132l19 -8l16 -7q-32 -18 -55 -18q-24 0 -45 19.5t-21 43.5zM1548 922q17 32 114 111q82 65 97 151l11 8l7 -3q18 -37 18 -71q0 -61 -85.5 -134t-145.5 -70l-10 1z" />
<glyph unicode="&#x1b0;" horiz-adv-x="764" d="M8 72q0 109 169 352q138 198 138 225q0 15 9 21q28 0 47.5 -24.5t19.5 -53.5q0 -63 -132 -254.5t-132 -271.5q0 -21 14 -21q53 0 271 216q199 197 256 280q34 49 57 49q20 0 43 -22.5t23 -43.5q0 -22 -108 -193t-108 -272q0 -30 21 -30q49 0 164.5 116.5t126.5 116.5 l6 -8q-1 -47 -131 -168q-133 -123 -193 -123q-94 0 -94 109q0 57 34 139q38 90 42 123l-2 4q-86 -94 -171 -188q-174 -181 -263 -181q-44 0 -75.5 29.5t-31.5 73.5zM674 381q17 32 114 111q82 65 97 151l11 8l7 -3q18 -37 18 -71q0 -61 -85.5 -134t-145.5 -70l-10 1z" />
<glyph unicode="&#x1ea0;" horiz-adv-x="1423" d="M164 182q0 197 222 449q203 230 489 399q290 172 485 172q215 0 215 -162q0 -101 -88 -120l-10 10q1 5 18 53q12 33 12 55q0 62 -110 62q-181 0 -451 -179q-260 -171 -449 -401q-204 -247 -204 -422q0 -59 53 -59q110 0 375 187q139 98 446 347q231 187 258 187 q30 0 49 -25t19 -55q0 -26 -109.5 -279.5t-109.5 -334.5q0 -44 30 -44q7 0 20.5 3t18.5 4l13 -4q-16 -21 -74.5 -44.5t-89.5 -23.5q-72 0 -72 94q0 95 59 242q10 23 105 229q4 10 6 21l-4 6q-11 -3 -22 -12q-216 -179 -432 -357q-301 -225 -485 -225q-80 0 -134 76 q-49 69 -49 151zM587 -235q0 19 53 48l74 38q6 -9 6 -27q0 -39 -13 -79q-18 -52 -50 -52q-26 0 -48 23t-22 49z" />
<glyph unicode="&#x1ea1;" d="M0 74q0 118 235 359t359 241q50 0 85 -43.5t35 -94.5q0 -19 -20 -18q-10 5 -30 27q-14 16 -37 16q-121 0 -314.5 -193.5t-193.5 -310.5q0 -11 12 -16q36 1 248.5 203t259.5 202q53 0 53 -65q0 -22 -71 -148.5t-71 -187.5q0 -12 15 -12q57 0 205.5 148.5t157.5 148.5 l10 -11q-1 -52 -168 -198q-170 -148 -238 -148q-75 0 -75 97q0 59 34 129q41 86 48 114l-9 11q-32 -19 -203 -207q-147 -162 -216 -162q-44 0 -77.5 37t-33.5 82zM115 -244q0 19 53 48l74 38q6 -9 6 -27q0 -39 -13 -79q-18 -52 -50 -52q-26 0 -48 23t-22 49z" />
<glyph unicode="&#x1ea2;" horiz-adv-x="1423" d="M164 182q0 197 222 449q203 230 489 399q290 172 485 172q215 0 215 -162q0 -101 -88 -120l-10 10q1 5 18 53q12 33 12 55q0 62 -110 62q-181 0 -451 -179q-260 -171 -449 -401q-204 -247 -204 -422q0 -59 53 -59q110 0 375 187q139 98 446 347q231 187 258 187 q30 0 49 -25t19 -55q0 -26 -109.5 -279.5t-109.5 -334.5q0 -44 30 -44q7 0 20.5 3t18.5 4l13 -4q-16 -21 -74.5 -44.5t-89.5 -23.5q-72 0 -72 94q0 95 59 242q10 23 105 229q4 10 6 21l-4 6q-11 -3 -22 -12q-216 -179 -432 -357q-301 -225 -485 -225q-80 0 -134 76 q-49 69 -49 151zM1366 1278q0 40 89.5 114t89.5 92t-30 18q-76 0 -91 -36l-16 -5l-8 13q0 32 45 57q39 22 72 22q92 0 92 -78q0 -50 -105.5 -120.5t-102.5 -89.5l-9 -10l-13 -2z" />
<glyph unicode="&#x1ea3;" d="M0 74q0 118 235 359t359 241q50 0 85 -43.5t35 -94.5q0 -19 -20 -18q-10 5 -30 27q-14 16 -37 16q-121 0 -314.5 -193.5t-193.5 -310.5q0 -11 12 -16q36 1 248.5 203t259.5 202q53 0 53 -65q0 -22 -71 -148.5t-71 -187.5q0 -12 15 -12q57 0 205.5 148.5t157.5 148.5 l10 -11q-1 -52 -168 -198q-170 -148 -238 -148q-75 0 -75 97q0 59 34 129q41 86 48 114l-9 11q-32 -19 -203 -207q-147 -162 -216 -162q-44 0 -77.5 37t-33.5 82zM583 753q0 40 89.5 114t89.5 92t-30 18q-76 0 -91 -36l-16 -5l-8 13q0 32 45 57q39 22 72 22q92 0 92 -78 q0 -50 -105.5 -120.5t-102.5 -89.5l-9 -10l-13 -2z" />
<glyph unicode="&#x1ea4;" horiz-adv-x="1423" d="M164 182q0 197 222 449q203 230 489 399q290 172 485 172q215 0 215 -162q0 -101 -88 -120l-10 10q1 5 18 53q12 33 12 55q0 62 -110 62q-181 0 -451 -179q-260 -171 -449 -401q-204 -247 -204 -422q0 -59 53 -59q110 0 375 187q139 98 446 347q231 187 258 187 q30 0 49 -25t19 -55q0 -26 -109.5 -279.5t-109.5 -334.5q0 -44 30 -44q7 0 20.5 3t18.5 4l13 -4q-16 -21 -74.5 -44.5t-89.5 -23.5q-72 0 -72 94q0 95 59 242q10 23 105 229q4 10 6 21l-4 6q-11 -3 -22 -12q-216 -179 -432 -357q-301 -225 -485 -225q-80 0 -134 76 q-49 69 -49 151zM1161 1277l9 13q232 139 288 139q41 0 97 -74q53 -69 53 -108l-10 -9q-13 4 -69 71q-51 62 -99 62q-49 0 -132 -46q-88 -50 -126 -54zM1298 1462q16 25 136.5 115t140.5 90q14 0 25.5 -16.5t11.5 -31.5q0 -17 -19 -28q-24 -14 -148.5 -73t-137.5 -62z" />
<glyph unicode="&#x1ea5;" d="M0 74q0 118 235 359t359 241q50 0 85 -43.5t35 -94.5q0 -19 -20 -18q-10 5 -30 27q-14 16 -37 16q-121 0 -314.5 -193.5t-193.5 -310.5q0 -11 12 -16q36 1 248.5 203t259.5 202q53 0 53 -65q0 -22 -71 -148.5t-71 -187.5q0 -12 15 -12q57 0 205.5 148.5t157.5 148.5 l10 -11q-1 -52 -168 -198q-170 -148 -238 -148q-75 0 -75 97q0 59 34 129q41 86 48 114l-9 11q-32 -19 -203 -207q-147 -162 -216 -162q-44 0 -77.5 37t-33.5 82zM387 778l9 13q232 139 288 139q41 0 97 -74q53 -69 53 -108l-10 -9q-13 4 -69 71q-51 62 -99 62 q-49 0 -132 -46q-88 -50 -126 -54zM524 963q16 25 136.5 115t140.5 90q14 0 25.5 -16.5t11.5 -31.5q0 -17 -19 -28q-24 -14 -148.5 -73t-137.5 -62z" />
<glyph unicode="&#x1ea6;" horiz-adv-x="1423" d="M164 182q0 197 222 449q203 230 489 399q290 172 485 172q215 0 215 -162q0 -101 -88 -120l-10 10q1 5 18 53q12 33 12 55q0 62 -110 62q-181 0 -451 -179q-260 -171 -449 -401q-204 -247 -204 -422q0 -59 53 -59q110 0 375 187q139 98 446 347q231 187 258 187 q30 0 49 -25t19 -55q0 -26 -109.5 -279.5t-109.5 -334.5q0 -44 30 -44q7 0 20.5 3t18.5 4l13 -4q-16 -21 -74.5 -44.5t-89.5 -23.5q-72 0 -72 94q0 95 59 242q10 23 105 229q4 10 6 21l-4 6q-11 -3 -22 -12q-216 -179 -432 -357q-301 -225 -485 -225q-80 0 -134 76 q-49 69 -49 151zM1161 1277l9 13q232 139 288 139q41 0 97 -74q53 -69 53 -108l-10 -9q-13 4 -69 71q-51 62 -99 62q-49 0 -132 -46q-88 -50 -126 -54zM1310 1621q0 15 11.5 31.5t25.5 16.5q20 0 142 -91t134 -114l-8 -6q-11 3 -139 63t-147 71.5t-19 28.5z" />
<glyph unicode="&#x1ea7;" d="M0 74q0 118 235 359t359 241q50 0 85 -43.5t35 -94.5q0 -19 -20 -18q-10 5 -30 27q-14 16 -37 16q-121 0 -314.5 -193.5t-193.5 -310.5q0 -11 12 -16q36 1 248.5 203t259.5 202q53 0 53 -65q0 -22 -71 -148.5t-71 -187.5q0 -12 15 -12q57 0 205.5 148.5t157.5 148.5 l10 -11q-1 -52 -168 -198q-170 -148 -238 -148q-75 0 -75 97q0 59 34 129q41 86 48 114l-9 11q-32 -19 -203 -207q-147 -162 -216 -162q-44 0 -77.5 37t-33.5 82zM387 778l9 13q232 139 288 139q41 0 97 -74q53 -69 53 -108l-10 -9q-13 4 -69 71q-51 62 -99 62 q-49 0 -132 -46q-88 -50 -126 -54zM536 1122q0 15 11.5 31.5t25.5 16.5q20 0 142 -91t134 -114l-8 -6q-11 3 -139 63t-147 71.5t-19 28.5z" />
<glyph unicode="&#x1ea8;" horiz-adv-x="1423" d="M164 182q0 197 222 449q203 230 489 399q290 172 485 172q215 0 215 -162q0 -101 -88 -120l-10 10q1 5 18 53q12 33 12 55q0 62 -110 62q-181 0 -451 -179q-260 -171 -449 -401q-204 -247 -204 -422q0 -59 53 -59q110 0 375 187q139 98 446 347q231 187 258 187 q30 0 49 -25t19 -55q0 -26 -109.5 -279.5t-109.5 -334.5q0 -44 30 -44q7 0 20.5 3t18.5 4l13 -4q-16 -21 -74.5 -44.5t-89.5 -23.5q-72 0 -72 94q0 95 59 242q10 23 105 229q4 10 6 21l-4 6q-11 -3 -22 -12q-216 -179 -432 -357q-301 -225 -485 -225q-80 0 -134 76 q-49 69 -49 151zM1161 1277l9 13q232 139 288 139q41 0 97 -74q53 -69 53 -108l-10 -9q-13 4 -69 71q-51 62 -99 62q-49 0 -132 -46q-88 -50 -126 -54zM1545 1432q0 40 89.5 114t89.5 92t-30 18q-76 0 -91 -36l-16 -5l-8 13q0 32 45 57q39 22 72 22q92 0 92 -78 q0 -50 -105.5 -120.5t-102.5 -89.5l-9 -10l-13 -2z" />
<glyph unicode="&#x1ea9;" d="M0 74q0 118 235 359t359 241q50 0 85 -43.5t35 -94.5q0 -19 -20 -18q-10 5 -30 27q-14 16 -37 16q-121 0 -314.5 -193.5t-193.5 -310.5q0 -11 12 -16q36 1 248.5 203t259.5 202q53 0 53 -65q0 -22 -71 -148.5t-71 -187.5q0 -12 15 -12q57 0 205.5 148.5t157.5 148.5 l10 -11q-1 -52 -168 -198q-170 -148 -238 -148q-75 0 -75 97q0 59 34 129q41 86 48 114l-9 11q-32 -19 -203 -207q-147 -162 -216 -162q-44 0 -77.5 37t-33.5 82zM387 778l9 13q232 139 288 139q41 0 97 -74q53 -69 53 -108l-10 -9q-13 4 -69 71q-51 62 -99 62 q-49 0 -132 -46q-88 -50 -126 -54zM770 932q0 40 89.5 114t89.5 92t-30 18q-76 0 -91 -36l-16 -5l-8 13q0 32 45 57q39 22 72 22q92 0 92 -78q0 -50 -105.5 -120.5t-102.5 -89.5l-9 -10l-13 -2z" />
<glyph unicode="&#x1eaa;" horiz-adv-x="1423" d="M164 182q0 197 222 449q203 230 489 399q290 172 485 172q215 0 215 -162q0 -101 -88 -120l-10 10q1 5 18 53q12 33 12 55q0 62 -110 62q-181 0 -451 -179q-260 -171 -449 -401q-204 -247 -204 -422q0 -59 53 -59q110 0 375 187q139 98 446 347q231 187 258 187 q30 0 49 -25t19 -55q0 -26 -109.5 -279.5t-109.5 -334.5q0 -44 30 -44q7 0 20.5 3t18.5 4l13 -4q-16 -21 -74.5 -44.5t-89.5 -23.5q-72 0 -72 94q0 95 59 242q10 23 105 229q4 10 6 21l-4 6q-11 -3 -22 -12q-216 -179 -432 -357q-301 -225 -485 -225q-80 0 -134 76 q-49 69 -49 151zM1161 1277l9 13q232 139 288 139q41 0 97 -74q53 -69 53 -108l-10 -9q-13 4 -69 71q-51 62 -99 62q-49 0 -132 -46q-88 -50 -126 -54zM1299 1527q16 34 68.5 69t91.5 35q38 0 106.5 -46t103.5 -46q25 0 51 15q33 21 44 24l6 -6l-6 -15q-64 -69 -129 -69 q-45 0 -117.5 46t-101.5 46q-46 0 -91 -55l-16 -7z" />
<glyph unicode="&#x1eab;" d="M0 74q0 118 235 359t359 241q50 0 85 -43.5t35 -94.5q0 -19 -20 -18q-10 5 -30 27q-14 16 -37 16q-121 0 -314.5 -193.5t-193.5 -310.5q0 -11 12 -16q36 1 248.5 203t259.5 202q53 0 53 -65q0 -22 -71 -148.5t-71 -187.5q0 -12 15 -12q57 0 205.5 148.5t157.5 148.5 l10 -11q-1 -52 -168 -198q-170 -148 -238 -148q-75 0 -75 97q0 59 34 129q41 86 48 114l-9 11q-32 -19 -203 -207q-147 -162 -216 -162q-44 0 -77.5 37t-33.5 82zM387 778l9 13q232 139 288 139q41 0 97 -74q53 -69 53 -108l-10 -9q-13 4 -69 71q-51 62 -99 62 q-49 0 -132 -46q-88 -50 -126 -54zM526 1028q16 34 68.5 69t91.5 35q38 0 106.5 -46t103.5 -46q25 0 51 15q33 21 44 24l6 -6l-6 -15q-64 -69 -129 -69q-45 0 -117.5 46t-101.5 46q-46 0 -91 -55l-16 -7z" />
<glyph unicode="&#x1eac;" horiz-adv-x="1423" d="M164 182q0 197 222 449q203 230 489 399q290 172 485 172q215 0 215 -162q0 -101 -88 -120l-10 10q1 5 18 53q12 33 12 55q0 62 -110 62q-181 0 -451 -179q-260 -171 -449 -401q-204 -247 -204 -422q0 -59 53 -59q110 0 375 187q139 98 446 347q231 187 258 187 q30 0 49 -25t19 -55q0 -26 -109.5 -279.5t-109.5 -334.5q0 -44 30 -44q7 0 20.5 3t18.5 4l13 -4q-16 -21 -74.5 -44.5t-89.5 -23.5q-72 0 -72 94q0 95 59 242q10 23 105 229q4 10 6 21l-4 6q-11 -3 -22 -12q-216 -179 -432 -357q-301 -225 -485 -225q-80 0 -134 76 q-49 69 -49 151zM587 -244q0 19 53 48l74 38q6 -9 6 -27q0 -39 -13 -79q-18 -52 -50 -52q-26 0 -48 23t-22 49zM1161 1277l9 13q232 139 288 139q41 0 97 -74q53 -69 53 -108l-10 -9q-13 4 -69 71q-51 62 -99 62q-49 0 -132 -46q-88 -50 -126 -54z" />
<glyph unicode="&#x1ead;" d="M0 74q0 118 235 359t359 241q50 0 85 -43.5t35 -94.5q0 -19 -20 -18q-10 5 -30 27q-14 16 -37 16q-121 0 -314.5 -193.5t-193.5 -310.5q0 -11 12 -16q36 1 248.5 203t259.5 202q53 0 53 -65q0 -22 -71 -148.5t-71 -187.5q0 -12 15 -12q57 0 205.5 148.5t157.5 148.5 l10 -11q-1 -52 -168 -198q-170 -148 -238 -148q-75 0 -75 97q0 59 34 129q41 86 48 114l-9 11q-32 -19 -203 -207q-147 -162 -216 -162q-44 0 -77.5 37t-33.5 82zM115 -244q0 19 53 48l74 38q6 -9 6 -27q0 -39 -13 -79q-18 -52 -50 -52q-26 0 -48 23t-22 49zM387 778l9 13 q232 139 288 139q41 0 97 -74q53 -69 53 -108l-10 -9q-13 4 -69 71q-51 62 -99 62q-49 0 -132 -46q-88 -50 -126 -54z" />
<glyph unicode="&#x1eae;" horiz-adv-x="1423" d="M164 182q0 197 222 449q203 230 489 399q290 172 485 172q215 0 215 -162q0 -101 -88 -120l-10 10q1 5 18 53q12 33 12 55q0 62 -110 62q-181 0 -451 -179q-260 -171 -449 -401q-204 -247 -204 -422q0 -59 53 -59q110 0 375 187q139 98 446 347q231 187 258 187 q30 0 49 -25t19 -55q0 -26 -109.5 -279.5t-109.5 -334.5q0 -44 30 -44q7 0 20.5 3t18.5 4l13 -4q-16 -21 -74.5 -44.5t-89.5 -23.5q-72 0 -72 94q0 95 59 242q10 23 105 229q4 10 6 21l-4 6q-11 -3 -22 -12q-216 -179 -432 -357q-301 -225 -485 -225q-80 0 -134 76 q-49 69 -49 151zM1229 1401l19 7q10 -5 66 -64q37 -38 106 -38q142 0 225 145l30 -4l-3 -16l-1 2q-42 -97 -93 -141q-60 -51 -157 -51q-66 0 -125 47q-62 49 -67 113zM1344 1467q16 25 136.5 115t140.5 90q14 0 25.5 -16.5t11.5 -31.5q0 -17 -19 -28q-24 -14 -148.5 -73 t-137.5 -62z" />
<glyph unicode="&#x1eaf;" d="M0 74q0 118 235 359t359 241q50 0 85 -43.5t35 -94.5q0 -19 -20 -18q-10 5 -30 27q-14 16 -37 16q-121 0 -314.5 -193.5t-193.5 -310.5q0 -11 12 -16q36 1 248.5 203t259.5 202q53 0 53 -65q0 -22 -71 -148.5t-71 -187.5q0 -12 15 -12q57 0 205.5 148.5t157.5 148.5 l10 -11q-1 -52 -168 -198q-170 -148 -238 -148q-75 0 -75 97q0 59 34 129q41 86 48 114l-9 11q-32 -19 -203 -207q-147 -162 -216 -162q-44 0 -77.5 37t-33.5 82zM449 897l19 7q10 -5 66 -64q37 -38 106 -38q142 0 225 145l30 -4l-3 -16l-1 2q-42 -97 -93 -141 q-60 -51 -157 -51q-66 0 -125 47q-62 49 -67 113zM564 963q16 25 136.5 115t140.5 90q14 0 25.5 -16.5t11.5 -31.5q0 -17 -19 -28q-24 -14 -148.5 -73t-137.5 -62z" />
<glyph unicode="&#x1eb0;" horiz-adv-x="1423" d="M164 182q0 197 222 449q203 230 489 399q290 172 485 172q215 0 215 -162q0 -101 -88 -120l-10 10q1 5 18 53q12 33 12 55q0 62 -110 62q-181 0 -451 -179q-260 -171 -449 -401q-204 -247 -204 -422q0 -59 53 -59q110 0 375 187q139 98 446 347q231 187 258 187 q30 0 49 -25t19 -55q0 -26 -109.5 -279.5t-109.5 -334.5q0 -44 30 -44q7 0 20.5 3t18.5 4l13 -4q-16 -21 -74.5 -44.5t-89.5 -23.5q-72 0 -72 94q0 95 59 242q10 23 105 229q4 10 6 21l-4 6q-11 -3 -22 -12q-216 -179 -432 -357q-301 -225 -485 -225q-80 0 -134 76 q-49 69 -49 151zM1229 1401l19 7q10 -5 66 -64q37 -38 106 -38q142 0 225 145l30 -4l-3 -16l-1 2q-42 -97 -93 -141q-60 -51 -157 -51q-66 0 -125 47q-62 49 -67 113zM1256 1625q0 15 11.5 31.5t25.5 16.5q20 0 142 -91t134 -114l-8 -6q-11 3 -139 63t-147 71.5t-19 28.5z " />
<glyph unicode="&#x1eb1;" d="M0 74q0 118 235 359t359 241q50 0 85 -43.5t35 -94.5q0 -19 -20 -18q-10 5 -30 27q-14 16 -37 16q-121 0 -314.5 -193.5t-193.5 -310.5q0 -11 12 -16q36 1 248.5 203t259.5 202q53 0 53 -65q0 -22 -71 -148.5t-71 -187.5q0 -12 15 -12q57 0 205.5 148.5t157.5 148.5 l10 -11q-1 -52 -168 -198q-170 -148 -238 -148q-75 0 -75 97q0 59 34 129q41 86 48 114l-9 11q-32 -19 -203 -207q-147 -162 -216 -162q-44 0 -77.5 37t-33.5 82zM449 897l19 7q10 -5 66 -64q37 -38 106 -38q142 0 225 145l30 -4l-3 -16l-1 2q-42 -97 -93 -141 q-60 -51 -157 -51q-66 0 -125 47q-62 49 -67 113zM476 1122q0 15 11.5 31.5t25.5 16.5q20 0 142 -91t134 -114l-8 -6q-11 3 -139 63t-147 71.5t-19 28.5z" />
<glyph unicode="&#x1eb2;" horiz-adv-x="1423" d="M164 182q0 197 222 449q203 230 489 399q290 172 485 172q215 0 215 -162q0 -101 -88 -120l-10 10q1 5 18 53q12 33 12 55q0 62 -110 62q-181 0 -451 -179q-260 -171 -449 -401q-204 -247 -204 -422q0 -59 53 -59q110 0 375 187q139 98 446 347q231 187 258 187 q30 0 49 -25t19 -55q0 -26 -109.5 -279.5t-109.5 -334.5q0 -44 30 -44q7 0 20.5 3t18.5 4l13 -4q-16 -21 -74.5 -44.5t-89.5 -23.5q-72 0 -72 94q0 95 59 242q10 23 105 229q4 10 6 21l-4 6q-11 -3 -22 -12q-216 -179 -432 -357q-301 -225 -485 -225q-80 0 -134 76 q-49 69 -49 151zM1229 1401l19 7q10 -5 66 -64q37 -38 106 -38q142 0 225 145l30 -4l-3 -16l-1 2q-42 -97 -93 -141q-60 -51 -157 -51q-66 0 -125 47q-62 49 -67 113zM1382 1437q0 40 89.5 114t89.5 92t-30 18q-76 0 -91 -36l-16 -5l-8 13q0 32 45 57q39 22 72 22 q92 0 92 -78q0 -50 -105.5 -120.5t-102.5 -89.5l-9 -10l-13 -2z" />
<glyph unicode="&#x1eb3;" d="M0 74q0 118 235 359t359 241q50 0 85 -43.5t35 -94.5q0 -19 -20 -18q-10 5 -30 27q-14 16 -37 16q-121 0 -314.5 -193.5t-193.5 -310.5q0 -11 12 -16q36 1 248.5 203t259.5 202q53 0 53 -65q0 -22 -71 -148.5t-71 -187.5q0 -12 15 -12q57 0 205.5 148.5t157.5 148.5 l10 -11q-1 -52 -168 -198q-170 -148 -238 -148q-75 0 -75 97q0 59 34 129q41 86 48 114l-9 11q-32 -19 -203 -207q-147 -162 -216 -162q-44 0 -77.5 37t-33.5 82zM449 897l19 7q10 -5 66 -64q37 -38 106 -38q142 0 225 145l30 -4l-3 -16l-1 2q-42 -97 -93 -141 q-60 -51 -157 -51q-66 0 -125 47q-62 49 -67 113zM602 932q0 40 89.5 114t89.5 92t-30 18q-76 0 -91 -36l-16 -5l-8 13q0 32 45 57q39 22 72 22q92 0 92 -78q0 -50 -105.5 -120.5t-102.5 -89.5l-9 -10l-13 -2z" />
<glyph unicode="&#x1eb4;" horiz-adv-x="1423" d="M164 182q0 197 222 449q203 230 489 399q290 172 485 172q215 0 215 -162q0 -101 -88 -120l-10 10q1 5 18 53q12 33 12 55q0 62 -110 62q-181 0 -451 -179q-260 -171 -449 -401q-204 -247 -204 -422q0 -59 53 -59q110 0 375 187q139 98 446 347q231 187 258 187 q30 0 49 -25t19 -55q0 -26 -109.5 -279.5t-109.5 -334.5q0 -44 30 -44q7 0 20.5 3t18.5 4l13 -4q-16 -21 -74.5 -44.5t-89.5 -23.5q-72 0 -72 94q0 95 59 242q10 23 105 229q4 10 6 21l-4 6q-11 -3 -22 -12q-216 -179 -432 -357q-301 -225 -485 -225q-80 0 -134 76 q-49 69 -49 151zM1229 1401l19 7q10 -5 66 -64q37 -38 106 -38q142 0 225 145l30 -4l-3 -16l-1 2q-42 -97 -93 -141q-60 -51 -157 -51q-66 0 -125 47q-62 49 -67 113zM1305 1532q16 34 68.5 69t91.5 35q38 0 106.5 -46t103.5 -46q25 0 51 15q33 21 44 24l6 -6l-6 -15 q-64 -69 -129 -69q-45 0 -117.5 46t-101.5 46q-46 0 -91 -55l-16 -7z" />
<glyph unicode="&#x1eb5;" d="M0 74q0 118 235 359t359 241q50 0 85 -43.5t35 -94.5q0 -19 -20 -18q-10 5 -30 27q-14 16 -37 16q-121 0 -314.5 -193.5t-193.5 -310.5q0 -11 12 -16q36 1 248.5 203t259.5 202q53 0 53 -65q0 -22 -71 -148.5t-71 -187.5q0 -12 15 -12q57 0 205.5 148.5t157.5 148.5 l10 -11q-1 -52 -168 -198q-170 -148 -238 -148q-75 0 -75 97q0 59 34 129q41 86 48 114l-9 11q-32 -19 -203 -207q-147 -162 -216 -162q-44 0 -77.5 37t-33.5 82zM449 897l19 7q10 -5 66 -64q37 -38 106 -38q142 0 225 145l30 -4l-3 -16l-1 2q-42 -97 -93 -141 q-60 -51 -157 -51q-66 0 -125 47q-62 49 -67 113zM526 1028q16 34 68.5 69t91.5 35q38 0 106.5 -46t103.5 -46q25 0 51 15q33 21 44 24l6 -6l-6 -15q-64 -69 -129 -69q-45 0 -117.5 46t-101.5 46q-46 0 -91 -55l-16 -7z" />
<glyph unicode="&#x1eb6;" horiz-adv-x="1423" d="M164 182q0 197 222 449q203 230 489 399q290 172 485 172q215 0 215 -162q0 -101 -88 -120l-10 10q1 5 18 53q12 33 12 55q0 62 -110 62q-181 0 -451 -179q-260 -171 -449 -401q-204 -247 -204 -422q0 -59 53 -59q110 0 375 187q139 98 446 347q231 187 258 187 q30 0 49 -25t19 -55q0 -26 -109.5 -279.5t-109.5 -334.5q0 -44 30 -44q7 0 20.5 3t18.5 4l13 -4q-16 -21 -74.5 -44.5t-89.5 -23.5q-72 0 -72 94q0 95 59 242q10 23 105 229q4 10 6 21l-4 6q-11 -3 -22 -12q-216 -179 -432 -357q-301 -225 -485 -225q-80 0 -134 76 q-49 69 -49 151zM587 -244q0 19 53 48l74 38q6 -9 6 -27q0 -39 -13 -79q-18 -52 -50 -52q-26 0 -48 23t-22 49zM1229 1401l19 7q10 -5 66 -64q37 -38 106 -38q142 0 225 145l30 -4l-3 -16l-1 2q-42 -97 -93 -141q-60 -51 -157 -51q-66 0 -125 47q-62 49 -67 113z" />
<glyph unicode="&#x1eb7;" d="M0 74q0 118 235 359t359 241q50 0 85 -43.5t35 -94.5q0 -19 -20 -18q-10 5 -30 27q-14 16 -37 16q-121 0 -314.5 -193.5t-193.5 -310.5q0 -11 12 -16q36 1 248.5 203t259.5 202q53 0 53 -65q0 -22 -71 -148.5t-71 -187.5q0 -12 15 -12q57 0 205.5 148.5t157.5 148.5 l10 -11q-1 -52 -168 -198q-170 -148 -238 -148q-75 0 -75 97q0 59 34 129q41 86 48 114l-9 11q-32 -19 -203 -207q-147 -162 -216 -162q-44 0 -77.5 37t-33.5 82zM115 -244q0 19 53 48l74 38q6 -9 6 -27q0 -39 -13 -79q-18 -52 -50 -52q-26 0 -48 23t-22 49zM449 897l19 7 q10 -5 66 -64q37 -38 106 -38q142 0 225 145l30 -4l-3 -16l-1 2q-42 -97 -93 -141q-60 -51 -157 -51q-66 0 -125 47q-62 49 -67 113z" />
<glyph unicode="&#x1eb8;" horiz-adv-x="1069" d="M221 131q0 149 271 306q248 144 414 144q93 0 93 -120q0 -17 -34 -23q-303 -53 -464 -158q-184 -120 -184 -227q0 -110 215 -110q94 0 222 27q110 24 219 48h12q7 -2 10 -6q-19 -42 -207 -92q-170 -45 -245 -45q-118 0 -214 67q-108 74 -108 189zM248 750q0 144 228 267 q182 100 468 167q244 57 389 57q92 0 141 -79q42 -67 42 -165q0 -48 -47 -104t-93 -57l-12 12q1 12 47.5 66t46.5 90q0 67 -151 67q-246 0 -606 -134q-375 -139 -375 -253q0 -76 170 -98q111 -8 223 -17q-70 -39 -199 -39q-111 0 -186 53q-86 60 -86 167zM407 -244 q0 19 53 48l74 38q6 -9 6 -27q0 -39 -13 -79q-18 -52 -50 -52q-26 0 -48 23t-22 49z" />
<glyph unicode="&#x1eb9;" horiz-adv-x="612" d="M6 96q0 128 183.5 351t297.5 223q55 0 96 -65q38 -58 38 -116q0 -78 -123 -165q-116 -83 -197 -83q-8 0 -8 11q0 12 134 106t134 158q0 31 -31 31q-105 0 -264.5 -190.5t-159.5 -314.5q0 -48 54 -48q109 0 342 156q111 80 223 159l10 -10q-29 -90 -244.5 -230.5 t-326.5 -140.5q-70 0 -114 48t-44 120zM15 -244q0 19 53 48l74 38q6 -9 6 -27q0 -39 -13 -79q-18 -52 -50 -52q-26 0 -48 23t-22 49z" />
<glyph unicode="&#x1eba;" horiz-adv-x="1069" d="M221 131q0 149 271 306q248 144 414 144q93 0 93 -120q0 -17 -34 -23q-303 -53 -464 -158q-184 -120 -184 -227q0 -110 215 -110q94 0 222 27q110 24 219 48h12q7 -2 10 -6q-19 -42 -207 -92q-170 -45 -245 -45q-118 0 -214 67q-108 74 -108 189zM248 750q0 144 228 267 q182 100 468 167q244 57 389 57q92 0 141 -79q42 -67 42 -165q0 -48 -47 -104t-93 -57l-12 12q1 12 47.5 66t46.5 90q0 67 -151 67q-246 0 -606 -134q-375 -139 -375 -253q0 -76 170 -98q111 -8 223 -17q-70 -39 -199 -39q-111 0 -186 53q-86 60 -86 167zM1206 1278 q0 40 89.5 114t89.5 92t-30 18q-76 0 -91 -36l-16 -5l-8 13q0 32 45 57q39 22 72 22q92 0 92 -78q0 -50 -105.5 -120.5t-102.5 -89.5l-9 -10l-13 -2z" />
<glyph unicode="&#x1ebb;" horiz-adv-x="612" d="M6 96q0 128 183.5 351t297.5 223q55 0 96 -65q38 -58 38 -116q0 -78 -123 -165q-116 -83 -197 -83q-8 0 -8 11q0 12 134 106t134 158q0 31 -31 31q-105 0 -264.5 -190.5t-159.5 -314.5q0 -48 54 -48q109 0 342 156q111 80 223 159l10 -10q-29 -90 -244.5 -230.5 t-326.5 -140.5q-70 0 -114 48t-44 120zM463 753q0 40 89.5 114t89.5 92t-30 18q-76 0 -91 -36l-16 -5l-8 13q0 32 45 57q39 22 72 22q92 0 92 -78q0 -50 -105.5 -120.5t-102.5 -89.5l-9 -10l-13 -2z" />
<glyph unicode="&#x1ebc;" horiz-adv-x="1069" d="M221 131q0 149 271 306q248 144 414 144q93 0 93 -120q0 -17 -34 -23q-303 -53 -464 -158q-184 -120 -184 -227q0 -110 215 -110q94 0 222 27q110 24 219 48h12q7 -2 10 -6q-19 -42 -207 -92q-170 -45 -245 -45q-118 0 -214 67q-108 74 -108 189zM248 750q0 144 228 267 q182 100 468 167q244 57 389 57q92 0 141 -79q42 -67 42 -165q0 -48 -47 -104t-93 -57l-12 12q1 12 47.5 66t46.5 90q0 67 -151 67q-246 0 -606 -134q-375 -139 -375 -253q0 -76 170 -98q111 -8 223 -17q-70 -39 -199 -39q-111 0 -186 53q-86 60 -86 167zM1129 1346 q16 34 68.5 69t91.5 35q38 0 106.5 -46t103.5 -46q25 0 51 15q33 21 44 24l6 -6l-6 -15q-64 -69 -129 -69q-45 0 -117.5 46t-101.5 46q-46 0 -91 -55l-16 -7z" />
<glyph unicode="&#x1ebd;" horiz-adv-x="612" d="M6 96q0 128 183.5 351t297.5 223q55 0 96 -65q38 -58 38 -116q0 -78 -123 -165q-116 -83 -197 -83q-8 0 -8 11q0 12 134 106t134 158q0 31 -31 31q-105 0 -264.5 -190.5t-159.5 -314.5q0 -48 54 -48q109 0 342 156q111 80 223 159l10 -10q-29 -90 -244.5 -230.5 t-326.5 -140.5q-70 0 -114 48t-44 120zM362 793q16 34 68.5 69t91.5 35q38 0 106.5 -46t103.5 -46q25 0 51 15q33 21 44 24l6 -6l-6 -15q-64 -69 -129 -69q-45 0 -117.5 46t-101.5 46q-46 0 -91 -55l-16 -7z" />
<glyph unicode="&#x1ebe;" horiz-adv-x="1069" d="M221 131q0 149 271 306q248 144 414 144q93 0 93 -120q0 -17 -34 -23q-303 -53 -464 -158q-184 -120 -184 -227q0 -110 215 -110q94 0 222 27q110 24 219 48h12q7 -2 10 -6q-19 -42 -207 -92q-170 -45 -245 -45q-118 0 -214 67q-108 74 -108 189zM248 750q0 144 228 267 q182 100 468 167q244 57 389 57q92 0 141 -79q42 -67 42 -165q0 -48 -47 -104t-93 -57l-12 12q1 12 47.5 66t46.5 90q0 67 -151 67q-246 0 -606 -134q-375 -139 -375 -253q0 -76 170 -98q111 -8 223 -17q-70 -39 -199 -39q-111 0 -186 53q-86 60 -86 167zM1071 1277l9 13 q232 139 288 139q41 0 97 -74q53 -69 53 -108l-10 -9q-13 4 -69 71q-51 62 -99 62q-49 0 -132 -46q-88 -50 -126 -54zM1208 1462q16 25 136.5 115t140.5 90q14 0 25.5 -16.5t11.5 -31.5q0 -17 -19 -28q-24 -14 -148.5 -73t-137.5 -62z" />
<glyph unicode="&#x1ebf;" horiz-adv-x="612" d="M6 96q0 128 183.5 351t297.5 223q55 0 96 -65q38 -58 38 -116q0 -78 -123 -165q-116 -83 -197 -83q-8 0 -8 11q0 12 134 106t134 158q0 31 -31 31q-105 0 -264.5 -190.5t-159.5 -314.5q0 -48 54 -48q109 0 342 156q111 80 223 159l10 -10q-29 -90 -244.5 -230.5 t-326.5 -140.5q-70 0 -114 48t-44 120zM317 778l9 13q232 139 288 139q41 0 97 -74q53 -69 53 -108l-10 -9q-13 4 -69 71q-51 62 -99 62q-49 0 -132 -46q-88 -50 -126 -54zM454 963q16 25 136.5 115t140.5 90q14 0 25.5 -16.5t11.5 -31.5q0 -17 -19 -28q-24 -14 -148.5 -73 t-137.5 -62z" />
<glyph unicode="&#x1ec0;" horiz-adv-x="1069" d="M221 131q0 149 271 306q248 144 414 144q93 0 93 -120q0 -17 -34 -23q-303 -53 -464 -158q-184 -120 -184 -227q0 -110 215 -110q94 0 222 27q110 24 219 48h12q7 -2 10 -6q-19 -42 -207 -92q-170 -45 -245 -45q-118 0 -214 67q-108 74 -108 189zM248 750q0 144 228 267 q182 100 468 167q244 57 389 57q92 0 141 -79q42 -67 42 -165q0 -48 -47 -104t-93 -57l-12 12q1 12 47.5 66t46.5 90q0 67 -151 67q-246 0 -606 -134q-375 -139 -375 -253q0 -76 170 -98q111 -8 223 -17q-70 -39 -199 -39q-111 0 -186 53q-86 60 -86 167zM1071 1277l9 13 q232 139 288 139q41 0 97 -74q53 -69 53 -108l-10 -9q-13 4 -69 71q-51 62 -99 62q-49 0 -132 -46q-88 -50 -126 -54zM1220 1621q0 15 11.5 31.5t25.5 16.5q20 0 142 -91t134 -114l-8 -6q-11 3 -139 63t-147 71.5t-19 28.5z" />
<glyph unicode="&#x1ec1;" horiz-adv-x="612" d="M6 96q0 128 183.5 351t297.5 223q55 0 96 -65q38 -58 38 -116q0 -78 -123 -165q-116 -83 -197 -83q-8 0 -8 11q0 12 134 106t134 158q0 31 -31 31q-105 0 -264.5 -190.5t-159.5 -314.5q0 -48 54 -48q109 0 342 156q111 80 223 159l10 -10q-29 -90 -244.5 -230.5 t-326.5 -140.5q-70 0 -114 48t-44 120zM317 778l9 13q232 139 288 139q41 0 97 -74q53 -69 53 -108l-10 -9q-13 4 -69 71q-51 62 -99 62q-49 0 -132 -46q-88 -50 -126 -54zM466 1122q0 15 11.5 31.5t25.5 16.5q20 0 142 -91t134 -114l-8 -6q-11 3 -139 63t-147 71.5 t-19 28.5z" />
<glyph unicode="&#x1ec2;" horiz-adv-x="1069" d="M221 131q0 149 271 306q248 144 414 144q93 0 93 -120q0 -17 -34 -23q-303 -53 -464 -158q-184 -120 -184 -227q0 -110 215 -110q94 0 222 27q110 24 219 48h12q7 -2 10 -6q-19 -42 -207 -92q-170 -45 -245 -45q-118 0 -214 67q-108 74 -108 189zM248 750q0 144 228 267 q182 100 468 167q244 57 389 57q92 0 141 -79q42 -67 42 -165q0 -48 -47 -104t-93 -57l-12 12q1 12 47.5 66t46.5 90q0 67 -151 67q-246 0 -606 -134q-375 -139 -375 -253q0 -76 170 -98q111 -8 223 -17q-70 -39 -199 -39q-111 0 -186 53q-86 60 -86 167zM1071 1277l9 13 q232 139 288 139q41 0 97 -74q53 -69 53 -108l-10 -9q-13 4 -69 71q-51 62 -99 62q-49 0 -132 -46q-88 -50 -126 -54zM1455 1432q0 40 89.5 114t89.5 92t-30 18q-76 0 -91 -36l-16 -5l-8 13q0 32 45 57q39 22 72 22q92 0 92 -78q0 -50 -105.5 -120.5t-102.5 -89.5l-9 -10 l-13 -2z" />
<glyph unicode="&#x1ec3;" horiz-adv-x="612" d="M6 96q0 128 183.5 351t297.5 223q55 0 96 -65q38 -58 38 -116q0 -78 -123 -165q-116 -83 -197 -83q-8 0 -8 11q0 12 134 106t134 158q0 31 -31 31q-105 0 -264.5 -190.5t-159.5 -314.5q0 -48 54 -48q109 0 342 156q111 80 223 159l10 -10q-29 -90 -244.5 -230.5 t-326.5 -140.5q-70 0 -114 48t-44 120zM317 778l9 13q232 139 288 139q41 0 97 -74q53 -69 53 -108l-10 -9q-13 4 -69 71q-51 62 -99 62q-49 0 -132 -46q-88 -50 -126 -54zM700 932q0 40 89.5 114t89.5 92t-30 18q-76 0 -91 -36l-16 -5l-8 13q0 32 45 57q39 22 72 22 q92 0 92 -78q0 -50 -105.5 -120.5t-102.5 -89.5l-9 -10l-13 -2z" />
<glyph unicode="&#x1ec4;" horiz-adv-x="1069" d="M221 131q0 149 271 306q248 144 414 144q93 0 93 -120q0 -17 -34 -23q-303 -53 -464 -158q-184 -120 -184 -227q0 -110 215 -110q94 0 222 27q110 24 219 48h12q7 -2 10 -6q-19 -42 -207 -92q-170 -45 -245 -45q-118 0 -214 67q-108 74 -108 189zM248 750q0 144 228 267 q182 100 468 167q244 57 389 57q92 0 141 -79q42 -67 42 -165q0 -48 -47 -104t-93 -57l-12 12q1 12 47.5 66t46.5 90q0 67 -151 67q-246 0 -606 -134q-375 -139 -375 -253q0 -76 170 -98q111 -8 223 -17q-70 -39 -199 -39q-111 0 -186 53q-86 60 -86 167zM1071 1277l9 13 q232 139 288 139q41 0 97 -74q53 -69 53 -108l-10 -9q-13 4 -69 71q-51 62 -99 62q-49 0 -132 -46q-88 -50 -126 -54zM1209 1527q16 34 68.5 69t91.5 35q38 0 106.5 -46t103.5 -46q25 0 51 15q33 21 44 24l6 -6l-6 -15q-64 -69 -129 -69q-45 0 -117.5 46t-101.5 46 q-46 0 -91 -55l-16 -7z" />
<glyph unicode="&#x1ec5;" horiz-adv-x="612" d="M6 96q0 128 183.5 351t297.5 223q55 0 96 -65q38 -58 38 -116q0 -78 -123 -165q-116 -83 -197 -83q-8 0 -8 11q0 12 134 106t134 158q0 31 -31 31q-105 0 -264.5 -190.5t-159.5 -314.5q0 -48 54 -48q109 0 342 156q111 80 223 159l10 -10q-29 -90 -244.5 -230.5 t-326.5 -140.5q-70 0 -114 48t-44 120zM317 778l9 13q232 139 288 139q41 0 97 -74q53 -69 53 -108l-10 -9q-13 4 -69 71q-51 62 -99 62q-49 0 -132 -46q-88 -50 -126 -54zM456 1028q16 34 68.5 69t91.5 35q38 0 106.5 -46t103.5 -46q25 0 51 15q33 21 44 24l6 -6l-6 -15 q-64 -69 -129 -69q-45 0 -117.5 46t-101.5 46q-46 0 -91 -55l-16 -7z" />
<glyph unicode="&#x1ec6;" horiz-adv-x="1069" d="M221 131q0 149 271 306q248 144 414 144q93 0 93 -120q0 -17 -34 -23q-303 -53 -464 -158q-184 -120 -184 -227q0 -110 215 -110q94 0 222 27q110 24 219 48h12q7 -2 10 -6q-19 -42 -207 -92q-170 -45 -245 -45q-118 0 -214 67q-108 74 -108 189zM248 750q0 144 228 267 q182 100 468 167q244 57 389 57q92 0 141 -79q42 -67 42 -165q0 -48 -47 -104t-93 -57l-12 12q1 12 47.5 66t46.5 90q0 67 -151 67q-246 0 -606 -134q-375 -139 -375 -253q0 -76 170 -98q111 -8 223 -17q-70 -39 -199 -39q-111 0 -186 53q-86 60 -86 167zM407 -244 q0 19 53 48l74 38q6 -9 6 -27q0 -39 -13 -79q-18 -52 -50 -52q-26 0 -48 23t-22 49zM1071 1277l9 13q232 139 288 139q41 0 97 -74q53 -69 53 -108l-10 -9q-13 4 -69 71q-51 62 -99 62q-49 0 -132 -46q-88 -50 -126 -54z" />
<glyph unicode="&#x1ec7;" horiz-adv-x="612" d="M6 96q0 128 183.5 351t297.5 223q55 0 96 -65q38 -58 38 -116q0 -78 -123 -165q-116 -83 -197 -83q-8 0 -8 11q0 12 134 106t134 158q0 31 -31 31q-105 0 -264.5 -190.5t-159.5 -314.5q0 -48 54 -48q109 0 342 156q111 80 223 159l10 -10q-29 -90 -244.5 -230.5 t-326.5 -140.5q-70 0 -114 48t-44 120zM15 -244q0 19 53 48l74 38q6 -9 6 -27q0 -39 -13 -79q-18 -52 -50 -52q-26 0 -48 23t-22 49zM317 778l9 13q232 139 288 139q41 0 97 -74q53 -69 53 -108l-10 -9q-13 4 -69 71q-51 62 -99 62q-49 0 -132 -46q-88 -50 -126 -54z" />
<glyph unicode="&#x1ec8;" horiz-adv-x="1085" d="M90 274q0 34 11 78q14 58 36 58q15 0 15 -31q0 -13 -5.5 -40.5t-5.5 -41.5q0 -118 86.5 -201.5t204.5 -83.5q237 0 485 392q122 193 295 593q3 8 3 13l-9 8q-63 -15 -261 -142q-206 -133 -206 -174q0 -25 48 -36q54 -14 59 -21q0 -22 -70 -22q-38 0 -68 55q-25 47 -25 90 q0 100 191 215q73 44 281 139q144 65 305 168q13 -11 13 -47q0 -69 -64 -104q-77 -41 -92 -76l-184 -458q-141 -324 -279 -498q-187 -235 -393 -235q-151 0 -263 127q-108 122 -108 275zM1234 1278q0 40 89.5 114t89.5 92t-30 18q-76 0 -91 -36l-16 -5l-8 13q0 32 45 57 q39 22 72 22q92 0 92 -78q0 -50 -105.5 -120.5t-102.5 -89.5l-9 -10l-13 -2z" />
<glyph unicode="&#x1ec9;" horiz-adv-x="389" d="M14 43q0 94 105 276q19 32 164 256q10 15 14 29l-6 14l8 19l10 4q26 0 53 -25t27 -51q0 -44 -151.5 -257.5t-151.5 -276.5q0 -21 16 -21q50 0 206 141q161 146 169 148l8 -10q-1 -44 -169 -188q-171 -146 -234 -146q-68 0 -68 88zM373 753q0 40 89.5 114t89.5 92t-30 18 q-76 0 -91 -36l-16 -5l-8 13q0 32 45 57q39 22 72 22q92 0 92 -78q0 -50 -105.5 -120.5t-102.5 -89.5l-9 -10l-13 -2z" />
<glyph unicode="&#x1eca;" horiz-adv-x="1085" d="M90 274q0 34 11 78q14 58 36 58q15 0 15 -31q0 -13 -5.5 -40.5t-5.5 -41.5q0 -118 86.5 -201.5t204.5 -83.5q237 0 485 392q122 193 295 593q3 8 3 13l-9 8q-63 -15 -261 -142q-206 -133 -206 -174q0 -25 48 -36q54 -14 59 -21q0 -22 -70 -22q-38 0 -68 55q-25 47 -25 90 q0 100 191 215q73 44 281 139q144 65 305 168q13 -11 13 -47q0 -69 -64 -104q-77 -41 -92 -76l-184 -458q-141 -324 -279 -498q-187 -235 -393 -235q-151 0 -263 127q-108 122 -108 275zM357 -244q0 19 53 48l74 38q6 -9 6 -27q0 -39 -13 -79q-18 -52 -50 -52q-26 0 -48 23 t-22 49z" />
<glyph unicode="&#x1ecb;" horiz-adv-x="389" d="M-83 -244q0 19 53 48l74 38q6 -9 6 -27q0 -39 -13 -79q-18 -52 -50 -52q-26 0 -48 23t-22 49zM14 43q0 94 105 276q19 32 164 256q10 15 14 29l-6 14l8 19l10 4q26 0 53 -25t27 -51q0 -44 -151.5 -257.5t-151.5 -276.5q0 -21 16 -21q50 0 206 141q161 146 169 148l8 -10 q-1 -44 -169 -188q-171 -146 -234 -146q-68 0 -68 88zM386 829q0 21 66 40q80 24 95 36q6 -8 6 -28q0 -39 -35.5 -71t-73.5 -32q-58 0 -58 55z" />
<glyph unicode="&#x1ecc;" horiz-adv-x="1436" d="M197 645q0 158 249 318q173 111 390 184q31 10 117 92q80 76 102 76q26 0 41.5 -28.5t15.5 -59.5q0 -9 -2 -17l48 1q195 4 315 -70q145 -89 145 -275q0 -200 -193 -429q-177 -210 -436 -358.5t-454 -148.5q-131 0 -201 76q-68 73 -68 205q0 128 60 254q5 9 6 20l-6 11 q-129 49 -129 149zM279 610q0 -30 22.5 -52.5t52.5 -22.5l4 6q48 72 147 203t146 202l8 12h-12q-76 0 -221 -134q-147 -137 -147 -214zM327 -244q0 19 53 48l74 38q6 -9 6 -27q0 -39 -13 -79q-18 -52 -50 -52q-26 0 -48 23t-22 49zM350 176q0 -145 158 -145q193 0 448 190 q204 152 352 309q222 235 222 390q0 184 -318 184q-80 0 -182 -12q-160 -112 -307 -265q-170 -178 -234 -325q21 -25 97 -25q27 0 80 11.5t78 11.5q7 -2 10 -6q-1 -56 -199 -56q-17 0 -49 6.5t-47 6.5q-32 0 -72 -119q-37 -107 -37 -156z" />
<glyph unicode="&#x1ecd;" horiz-adv-x="686" d="M-15 -244q0 19 53 48l74 38q6 -9 6 -27q0 -39 -13 -79q-18 -52 -50 -52q-26 0 -48 23t-22 49zM31 104q0 132 159 323q133 162 273 255q24 16 37 16q16 0 44.5 -30.5t28.5 -46.5q0 -14 -26 -43q54 -27 91 -76q42 -54 42 -109q0 -142 -180 -296q-175 -150 -320 -150 q-65 0 -107 45.5t-42 111.5zM128 72q0 -66 65 -66q124 0 269.5 138t145.5 262q0 109 -112 129q-110 -74 -227 -207q-141 -161 -141 -256z" />
<glyph unicode="&#x1ece;" horiz-adv-x="1436" d="M197 645q0 158 249 318q173 111 390 184q31 10 117 92q80 76 102 76q26 0 41.5 -28.5t15.5 -59.5q0 -9 -2 -17l48 1q195 4 315 -70q145 -89 145 -275q0 -200 -193 -429q-177 -210 -436 -358.5t-454 -148.5q-131 0 -201 76q-68 73 -68 205q0 128 60 254q5 9 6 20l-6 11 q-129 49 -129 149zM279 610q0 -30 22.5 -52.5t52.5 -22.5l4 6q48 72 147 203t146 202l8 12h-12q-76 0 -221 -134q-147 -137 -147 -214zM350 176q0 -145 158 -145q193 0 448 190q204 152 352 309q222 235 222 390q0 184 -318 184q-80 0 -182 -12q-160 -112 -307 -265 q-170 -178 -234 -325q21 -25 97 -25q27 0 80 11.5t78 11.5q7 -2 10 -6q-1 -56 -199 -56q-17 0 -49 6.5t-47 6.5q-32 0 -72 -119q-37 -107 -37 -156zM1336 1278q0 40 89.5 114t89.5 92t-30 18q-76 0 -91 -36l-16 -5l-8 13q0 32 45 57q39 22 72 22q92 0 92 -78 q0 -50 -105.5 -120.5t-102.5 -89.5l-9 -10l-13 -2z" />
<glyph unicode="&#x1ecf;" horiz-adv-x="686" d="M31 104q0 132 159 323q133 162 273 255q24 16 37 16q16 0 44.5 -30.5t28.5 -46.5q0 -14 -26 -43q54 -27 91 -76q42 -54 42 -109q0 -142 -180 -296q-175 -150 -320 -150q-65 0 -107 45.5t-42 111.5zM128 72q0 -66 65 -66q124 0 269.5 138t145.5 262q0 109 -112 129 q-110 -74 -227 -207q-141 -161 -141 -256zM573 753q0 40 89.5 114t89.5 92t-30 18q-76 0 -91 -36l-16 -5l-8 13q0 32 45 57q39 22 72 22q92 0 92 -78q0 -50 -105.5 -120.5t-102.5 -89.5l-9 -10l-13 -2z" />
<glyph unicode="&#x1ed0;" horiz-adv-x="1436" d="M197 645q0 158 249 318q173 111 390 184q31 10 117 92q80 76 102 76q26 0 41.5 -28.5t15.5 -59.5q0 -9 -2 -17l48 1q195 4 315 -70q145 -89 145 -275q0 -200 -193 -429q-177 -210 -436 -358.5t-454 -148.5q-131 0 -201 76q-68 73 -68 205q0 128 60 254q5 9 6 20l-6 11 q-129 49 -129 149zM279 610q0 -30 22.5 -52.5t52.5 -22.5l4 6q48 72 147 203t146 202l8 12h-12q-76 0 -221 -134q-147 -137 -147 -214zM350 176q0 -145 158 -145q193 0 448 190q204 152 352 309q222 235 222 390q0 184 -318 184q-80 0 -182 -12q-160 -112 -307 -265 q-170 -178 -234 -325q21 -25 97 -25q27 0 80 11.5t78 11.5q7 -2 10 -6q-1 -56 -199 -56q-17 0 -49 6.5t-47 6.5q-32 0 -72 -119q-37 -107 -37 -156zM1131 1277l9 13q232 139 288 139q41 0 97 -74q53 -69 53 -108l-10 -9q-13 4 -69 71q-51 62 -99 62q-49 0 -132 -46 q-88 -50 -126 -54zM1268 1462q16 25 136.5 115t140.5 90q14 0 25.5 -16.5t11.5 -31.5q0 -17 -19 -28q-24 -14 -148.5 -73t-137.5 -62z" />
<glyph unicode="&#x1ed1;" horiz-adv-x="686" d="M31 104q0 132 159 323q133 162 273 255q24 16 37 16q16 0 44.5 -30.5t28.5 -46.5q0 -14 -26 -43q54 -27 91 -76q42 -54 42 -109q0 -142 -180 -296q-175 -150 -320 -150q-65 0 -107 45.5t-42 111.5zM128 72q0 -66 65 -66q124 0 269.5 138t145.5 262q0 109 -112 129 q-110 -74 -227 -207q-141 -161 -141 -256zM329 778l9 13q232 139 288 139q41 0 97 -74q53 -69 53 -108l-10 -9q-13 4 -69 71q-51 62 -99 62q-49 0 -132 -46q-88 -50 -126 -54zM466 963q16 25 136.5 115t140.5 90q14 0 25.5 -16.5t11.5 -31.5q0 -17 -19 -28 q-24 -14 -148.5 -73t-137.5 -62z" />
<glyph unicode="&#x1ed2;" horiz-adv-x="1436" d="M197 645q0 158 249 318q173 111 390 184q31 10 117 92q80 76 102 76q26 0 41.5 -28.5t15.5 -59.5q0 -9 -2 -17l48 1q195 4 315 -70q145 -89 145 -275q0 -200 -193 -429q-177 -210 -436 -358.5t-454 -148.5q-131 0 -201 76q-68 73 -68 205q0 128 60 254q5 9 6 20l-6 11 q-129 49 -129 149zM279 610q0 -30 22.5 -52.5t52.5 -22.5l4 6q48 72 147 203t146 202l8 12h-12q-76 0 -221 -134q-147 -137 -147 -214zM350 176q0 -145 158 -145q193 0 448 190q204 152 352 309q222 235 222 390q0 184 -318 184q-80 0 -182 -12q-160 -112 -307 -265 q-170 -178 -234 -325q21 -25 97 -25q27 0 80 11.5t78 11.5q7 -2 10 -6q-1 -56 -199 -56q-17 0 -49 6.5t-47 6.5q-32 0 -72 -119q-37 -107 -37 -156zM1131 1277l9 13q232 139 288 139q41 0 97 -74q53 -69 53 -108l-10 -9q-13 4 -69 71q-51 62 -99 62q-49 0 -132 -46 q-88 -50 -126 -54zM1280 1621q0 15 11.5 31.5t25.5 16.5q20 0 142 -91t134 -114l-8 -6q-11 3 -139 63t-147 71.5t-19 28.5z" />
<glyph unicode="&#x1ed3;" horiz-adv-x="686" d="M31 104q0 132 159 323q133 162 273 255q24 16 37 16q16 0 44.5 -30.5t28.5 -46.5q0 -14 -26 -43q54 -27 91 -76q42 -54 42 -109q0 -142 -180 -296q-175 -150 -320 -150q-65 0 -107 45.5t-42 111.5zM128 72q0 -66 65 -66q124 0 269.5 138t145.5 262q0 109 -112 129 q-110 -74 -227 -207q-141 -161 -141 -256zM329 778l9 13q232 139 288 139q41 0 97 -74q53 -69 53 -108l-10 -9q-13 4 -69 71q-51 62 -99 62q-49 0 -132 -46q-88 -50 -126 -54zM478 1122q0 15 11.5 31.5t25.5 16.5q20 0 142 -91t134 -114l-8 -6q-11 3 -139 63t-147 71.5 t-19 28.5z" />
<glyph unicode="&#x1ed4;" horiz-adv-x="1436" d="M197 645q0 158 249 318q173 111 390 184q31 10 117 92q80 76 102 76q26 0 41.5 -28.5t15.5 -59.5q0 -9 -2 -17l48 1q195 4 315 -70q145 -89 145 -275q0 -200 -193 -429q-177 -210 -436 -358.5t-454 -148.5q-131 0 -201 76q-68 73 -68 205q0 128 60 254q5 9 6 20l-6 11 q-129 49 -129 149zM279 610q0 -30 22.5 -52.5t52.5 -22.5l4 6q48 72 147 203t146 202l8 12h-12q-76 0 -221 -134q-147 -137 -147 -214zM350 176q0 -145 158 -145q193 0 448 190q204 152 352 309q222 235 222 390q0 184 -318 184q-80 0 -182 -12q-160 -112 -307 -265 q-170 -178 -234 -325q21 -25 97 -25q27 0 80 11.5t78 11.5q7 -2 10 -6q-1 -56 -199 -56q-17 0 -49 6.5t-47 6.5q-32 0 -72 -119q-37 -107 -37 -156zM1131 1277l9 13q232 139 288 139q41 0 97 -74q53 -69 53 -108l-10 -9q-13 4 -69 71q-51 62 -99 62q-49 0 -132 -46 q-88 -50 -126 -54zM1515 1432q0 40 89.5 114t89.5 92t-30 18q-76 0 -91 -36l-16 -5l-8 13q0 32 45 57q39 22 72 22q92 0 92 -78q0 -50 -105.5 -120.5t-102.5 -89.5l-9 -10l-13 -2z" />
<glyph unicode="&#x1ed5;" horiz-adv-x="686" d="M31 104q0 132 159 323q133 162 273 255q24 16 37 16q16 0 44.5 -30.5t28.5 -46.5q0 -14 -26 -43q54 -27 91 -76q42 -54 42 -109q0 -142 -180 -296q-175 -150 -320 -150q-65 0 -107 45.5t-42 111.5zM128 72q0 -66 65 -66q124 0 269.5 138t145.5 262q0 109 -112 129 q-110 -74 -227 -207q-141 -161 -141 -256zM329 778l9 13q232 139 288 139q41 0 97 -74q53 -69 53 -108l-10 -9q-13 4 -69 71q-51 62 -99 62q-49 0 -132 -46q-88 -50 -126 -54zM712 932q0 40 89.5 114t89.5 92t-30 18q-76 0 -91 -36l-16 -5l-8 13q0 32 45 57q39 22 72 22 q92 0 92 -78q0 -50 -105.5 -120.5t-102.5 -89.5l-9 -10l-13 -2z" />
<glyph unicode="&#x1ed6;" horiz-adv-x="1436" d="M197 645q0 158 249 318q173 111 390 184q31 10 117 92q80 76 102 76q26 0 41.5 -28.5t15.5 -59.5q0 -9 -2 -17l48 1q195 4 315 -70q145 -89 145 -275q0 -200 -193 -429q-177 -210 -436 -358.5t-454 -148.5q-131 0 -201 76q-68 73 -68 205q0 128 60 254q5 9 6 20l-6 11 q-129 49 -129 149zM279 610q0 -30 22.5 -52.5t52.5 -22.5l4 6q48 72 147 203t146 202l8 12h-12q-76 0 -221 -134q-147 -137 -147 -214zM350 176q0 -145 158 -145q193 0 448 190q204 152 352 309q222 235 222 390q0 184 -318 184q-80 0 -182 -12q-160 -112 -307 -265 q-170 -178 -234 -325q21 -25 97 -25q27 0 80 11.5t78 11.5q7 -2 10 -6q-1 -56 -199 -56q-17 0 -49 6.5t-47 6.5q-32 0 -72 -119q-37 -107 -37 -156zM1131 1277l9 13q232 139 288 139q41 0 97 -74q53 -69 53 -108l-10 -9q-13 4 -69 71q-51 62 -99 62q-49 0 -132 -46 q-88 -50 -126 -54zM1269 1527q16 34 68.5 69t91.5 35q38 0 106.5 -46t103.5 -46q25 0 51 15q33 21 44 24l6 -6l-6 -15q-64 -69 -129 -69q-45 0 -117.5 46t-101.5 46q-46 0 -91 -55l-16 -7z" />
<glyph unicode="&#x1ed7;" horiz-adv-x="686" d="M31 104q0 132 159 323q133 162 273 255q24 16 37 16q16 0 44.5 -30.5t28.5 -46.5q0 -14 -26 -43q54 -27 91 -76q42 -54 42 -109q0 -142 -180 -296q-175 -150 -320 -150q-65 0 -107 45.5t-42 111.5zM128 72q0 -66 65 -66q124 0 269.5 138t145.5 262q0 109 -112 129 q-110 -74 -227 -207q-141 -161 -141 -256zM329 778l9 13q232 139 288 139q41 0 97 -74q53 -69 53 -108l-10 -9q-13 4 -69 71q-51 62 -99 62q-49 0 -132 -46q-88 -50 -126 -54zM468 1028q16 34 68.5 69t91.5 35q38 0 106.5 -46t103.5 -46q25 0 51 15q33 21 44 24l6 -6l-6 -15 q-64 -69 -129 -69q-45 0 -117.5 46t-101.5 46q-46 0 -91 -55l-16 -7z" />
<glyph unicode="&#x1ed8;" horiz-adv-x="1436" d="M197 645q0 158 249 318q173 111 390 184q31 10 117 92q80 76 102 76q26 0 41.5 -28.5t15.5 -59.5q0 -9 -2 -17l48 1q195 4 315 -70q145 -89 145 -275q0 -200 -193 -429q-177 -210 -436 -358.5t-454 -148.5q-131 0 -201 76q-68 73 -68 205q0 128 60 254q5 9 6 20l-6 11 q-129 49 -129 149zM279 610q0 -30 22.5 -52.5t52.5 -22.5l4 6q48 72 147 203t146 202l8 12h-12q-76 0 -221 -134q-147 -137 -147 -214zM327 -244q0 19 53 48l74 38q6 -9 6 -27q0 -39 -13 -79q-18 -52 -50 -52q-26 0 -48 23t-22 49zM350 176q0 -145 158 -145q193 0 448 190 q204 152 352 309q222 235 222 390q0 184 -318 184q-80 0 -182 -12q-160 -112 -307 -265q-170 -178 -234 -325q21 -25 97 -25q27 0 80 11.5t78 11.5q7 -2 10 -6q-1 -56 -199 -56q-17 0 -49 6.5t-47 6.5q-32 0 -72 -119q-37 -107 -37 -156zM1131 1277l9 13q232 139 288 139 q41 0 97 -74q53 -69 53 -108l-10 -9q-13 4 -69 71q-51 62 -99 62q-49 0 -132 -46q-88 -50 -126 -54z" />
<glyph unicode="&#x1ed9;" horiz-adv-x="686" d="M-15 -244q0 19 53 48l74 38q6 -9 6 -27q0 -39 -13 -79q-18 -52 -50 -52q-26 0 -48 23t-22 49zM31 104q0 132 159 323q133 162 273 255q24 16 37 16q16 0 44.5 -30.5t28.5 -46.5q0 -14 -26 -43q54 -27 91 -76q42 -54 42 -109q0 -142 -180 -296q-175 -150 -320 -150 q-65 0 -107 45.5t-42 111.5zM128 72q0 -66 65 -66q124 0 269.5 138t145.5 262q0 109 -112 129q-110 -74 -227 -207q-141 -161 -141 -256zM329 778l9 13q232 139 288 139q41 0 97 -74q53 -69 53 -108l-10 -9q-13 4 -69 71q-51 62 -99 62q-49 0 -132 -46q-88 -50 -126 -54z " />
<glyph unicode="&#x1eda;" horiz-adv-x="1436" d="M197 645q0 158 249 318q173 111 390 184q31 10 117 92q80 76 102 76q26 0 41.5 -28.5t15.5 -59.5q0 -9 -2 -17l48 1q195 4 315 -70q145 -89 145 -275q0 -200 -193 -429q-177 -210 -436 -358.5t-454 -148.5q-131 0 -201 76q-68 73 -68 205q0 128 60 254q5 9 6 20l-6 11 q-129 49 -129 149zM279 610q0 -30 22.5 -52.5t52.5 -22.5l4 6q48 72 147 203t146 202l8 12h-12q-76 0 -221 -134q-147 -137 -147 -214zM350 176q0 -145 158 -145q193 0 448 190q204 152 352 309q222 235 222 390q0 184 -318 184q-80 0 -182 -12q-160 -112 -307 -265 q-170 -178 -234 -325q21 -25 97 -25q27 0 80 11.5t78 11.5q7 -2 10 -6q-1 -56 -199 -56q-17 0 -49 6.5t-47 6.5q-32 0 -72 -119q-37 -107 -37 -156zM1245 1295q16 25 136.5 115t140.5 90q14 0 25.5 -16.5t11.5 -31.5q0 -17 -19 -28q-24 -14 -148.5 -73t-137.5 -62zM1468 922 q17 32 114 111q82 65 97 151l11 8l7 -3q18 -37 18 -71q0 -61 -85.5 -134t-145.5 -70l-10 1z" />
<glyph unicode="&#x1edb;" horiz-adv-x="686" d="M31 104q0 132 159 323q133 162 273 255q24 16 37 16q16 0 44.5 -30.5t28.5 -46.5q0 -14 -26 -43q54 -27 91 -76q42 -54 42 -109q0 -142 -180 -296q-175 -150 -320 -150q-65 0 -107 45.5t-42 111.5zM128 72q0 -66 65 -66q124 0 269.5 138t145.5 262q0 109 -112 129 q-110 -74 -227 -207q-141 -161 -141 -256zM410 756q16 25 136.5 115t140.5 90q14 0 25.5 -16.5t11.5 -31.5q0 -17 -19 -28q-24 -14 -148.5 -73t-137.5 -62zM524 381q17 32 114 111q82 65 97 151l11 8l7 -3q18 -37 18 -71q0 -61 -85.5 -134t-145.5 -70l-10 1z" />
<glyph unicode="&#x1edc;" horiz-adv-x="1436" d="M197 645q0 158 249 318q173 111 390 184q31 10 117 92q80 76 102 76q26 0 41.5 -28.5t15.5 -59.5q0 -9 -2 -17l48 1q195 4 315 -70q145 -89 145 -275q0 -200 -193 -429q-177 -210 -436 -358.5t-454 -148.5q-131 0 -201 76q-68 73 -68 205q0 128 60 254q5 9 6 20l-6 11 q-129 49 -129 149zM279 610q0 -30 22.5 -52.5t52.5 -22.5l4 6q48 72 147 203t146 202l8 12h-12q-76 0 -221 -134q-147 -137 -147 -214zM350 176q0 -145 158 -145q193 0 448 190q204 152 352 309q222 235 222 390q0 184 -318 184q-80 0 -182 -12q-160 -112 -307 -265 q-170 -178 -234 -325q21 -25 97 -25q27 0 80 11.5t78 11.5q7 -2 10 -6q-1 -56 -199 -56q-17 0 -49 6.5t-47 6.5q-32 0 -72 -119q-37 -107 -37 -156zM1144 1458q0 15 11.5 31.5t25.5 16.5q20 0 142 -91t134 -114l-8 -6q-11 3 -139 63t-147 71.5t-19 28.5zM1468 922 q17 32 114 111q82 65 97 151l11 8l7 -3q18 -37 18 -71q0 -61 -85.5 -134t-145.5 -70l-10 1z" />
<glyph unicode="&#x1edd;" horiz-adv-x="686" d="M31 104q0 132 159 323q133 162 273 255q24 16 37 16q16 0 44.5 -30.5t28.5 -46.5q0 -14 -26 -43q54 -27 91 -76q42 -54 42 -109q0 -142 -180 -296q-175 -150 -320 -150q-65 0 -107 45.5t-42 111.5zM128 72q0 -66 65 -66q124 0 269.5 138t145.5 262q0 109 -112 129 q-110 -74 -227 -207q-141 -161 -141 -256zM369 915q0 15 11.5 31.5t25.5 16.5q20 0 142 -91t134 -114l-8 -6q-11 3 -139 63t-147 71.5t-19 28.5zM524 381q17 32 114 111q82 65 97 151l11 8l7 -3q18 -37 18 -71q0 -61 -85.5 -134t-145.5 -70l-10 1z" />
<glyph unicode="&#x1ede;" horiz-adv-x="1436" d="M197 645q0 158 249 318q173 111 390 184q31 10 117 92q80 76 102 76q26 0 41.5 -28.5t15.5 -59.5q0 -9 -2 -17l48 1q195 4 315 -70q145 -89 145 -275q0 -200 -193 -429q-177 -210 -436 -358.5t-454 -148.5q-131 0 -201 76q-68 73 -68 205q0 128 60 254q5 9 6 20l-6 11 q-129 49 -129 149zM279 610q0 -30 22.5 -52.5t52.5 -22.5l4 6q48 72 147 203t146 202l8 12h-12q-76 0 -221 -134q-147 -137 -147 -214zM350 176q0 -145 158 -145q193 0 448 190q204 152 352 309q222 235 222 390q0 184 -318 184q-80 0 -182 -12q-160 -112 -307 -265 q-170 -178 -234 -325q21 -25 97 -25q27 0 80 11.5t78 11.5q7 -2 10 -6q-1 -56 -199 -56q-17 0 -49 6.5t-47 6.5q-32 0 -72 -119q-37 -107 -37 -156zM1336 1278q0 40 89.5 114t89.5 92t-30 18q-76 0 -91 -36l-16 -5l-8 13q0 32 45 57q39 22 72 22q92 0 92 -78 q0 -50 -105.5 -120.5t-102.5 -89.5l-9 -10l-13 -2zM1468 922q17 32 114 111q82 65 97 151l11 8l7 -3q18 -37 18 -71q0 -61 -85.5 -134t-145.5 -70l-10 1z" />
<glyph unicode="&#x1edf;" horiz-adv-x="686" d="M31 104q0 132 159 323q133 162 273 255q24 16 37 16q16 0 44.5 -30.5t28.5 -46.5q0 -14 -26 -43q54 -27 91 -76q42 -54 42 -109q0 -142 -180 -296q-175 -150 -320 -150q-65 0 -107 45.5t-42 111.5zM128 72q0 -66 65 -66q124 0 269.5 138t145.5 262q0 109 -112 129 q-110 -74 -227 -207q-141 -161 -141 -256zM524 381q17 32 114 111q82 65 97 151l11 8l7 -3q18 -37 18 -71q0 -61 -85.5 -134t-145.5 -70l-10 1zM573 753q0 40 89.5 114t89.5 92t-30 18q-76 0 -91 -36l-16 -5l-8 13q0 32 45 57q39 22 72 22q92 0 92 -78q0 -50 -105.5 -120.5 t-102.5 -89.5l-9 -10l-13 -2z" />
<glyph unicode="&#x1ee0;" horiz-adv-x="1436" d="M197 645q0 158 249 318q173 111 390 184q31 10 117 92q80 76 102 76q26 0 41.5 -28.5t15.5 -59.5q0 -9 -2 -17l48 1q195 4 315 -70q145 -89 145 -275q0 -200 -193 -429q-177 -210 -436 -358.5t-454 -148.5q-131 0 -201 76q-68 73 -68 205q0 128 60 254q5 9 6 20l-6 11 q-129 49 -129 149zM279 610q0 -30 22.5 -52.5t52.5 -22.5l4 6q48 72 147 203t146 202l8 12h-12q-76 0 -221 -134q-147 -137 -147 -214zM350 176q0 -145 158 -145q193 0 448 190q204 152 352 309q222 235 222 390q0 184 -318 184q-80 0 -182 -12q-160 -112 -307 -265 q-170 -178 -234 -325q21 -25 97 -25q27 0 80 11.5t78 11.5q7 -2 10 -6q-1 -56 -199 -56q-17 0 -49 6.5t-47 6.5q-32 0 -72 -119q-37 -107 -37 -156zM1189 1346q16 34 68.5 69t91.5 35q38 0 106.5 -46t103.5 -46q25 0 51 15q33 21 44 24l6 -6l-6 -15q-64 -69 -129 -69 q-45 0 -117.5 46t-101.5 46q-46 0 -91 -55l-16 -7zM1468 922q17 32 114 111q82 65 97 151l11 8l7 -3q18 -37 18 -71q0 -61 -85.5 -134t-145.5 -70l-10 1z" />
<glyph unicode="&#x1ee1;" horiz-adv-x="686" d="M31 104q0 132 159 323q133 162 273 255q24 16 37 16q16 0 44.5 -30.5t28.5 -46.5q0 -14 -26 -43q54 -27 91 -76q42 -54 42 -109q0 -142 -180 -296q-175 -150 -320 -150q-65 0 -107 45.5t-42 111.5zM128 72q0 -66 65 -66q124 0 269.5 138t145.5 262q0 109 -112 129 q-110 -74 -227 -207q-141 -161 -141 -256zM372 793q16 34 68.5 69t91.5 35q38 0 106.5 -46t103.5 -46q25 0 51 15q33 21 44 24l6 -6l-6 -15q-64 -69 -129 -69q-45 0 -117.5 46t-101.5 46q-46 0 -91 -55l-16 -7zM524 381q17 32 114 111q82 65 97 151l11 8l7 -3q18 -37 18 -71 q0 -61 -85.5 -134t-145.5 -70l-10 1z" />
<glyph unicode="&#x1ee2;" horiz-adv-x="1436" d="M197 645q0 158 249 318q173 111 390 184q31 10 117 92q80 76 102 76q26 0 41.5 -28.5t15.5 -59.5q0 -9 -2 -17l48 1q195 4 315 -70q145 -89 145 -275q0 -200 -193 -429q-177 -210 -436 -358.5t-454 -148.5q-131 0 -201 76q-68 73 -68 205q0 128 60 254q5 9 6 20l-6 11 q-129 49 -129 149zM279 610q0 -30 22.5 -52.5t52.5 -22.5l4 6q48 72 147 203t146 202l8 12h-12q-76 0 -221 -134q-147 -137 -147 -214zM327 -244q0 19 53 48l74 38q6 -9 6 -27q0 -39 -13 -79q-18 -52 -50 -52q-26 0 -48 23t-22 49zM350 176q0 -145 158 -145q193 0 448 190 q204 152 352 309q222 235 222 390q0 184 -318 184q-80 0 -182 -12q-160 -112 -307 -265q-170 -178 -234 -325q21 -25 97 -25q27 0 80 11.5t78 11.5q7 -2 10 -6q-1 -56 -199 -56q-17 0 -49 6.5t-47 6.5q-32 0 -72 -119q-37 -107 -37 -156zM1468 922q17 32 114 111 q82 65 97 151l11 8l7 -3q18 -37 18 -71q0 -61 -85.5 -134t-145.5 -70l-10 1z" />
<glyph unicode="&#x1ee3;" horiz-adv-x="686" d="M-15 -244q0 19 53 48l74 38q6 -9 6 -27q0 -39 -13 -79q-18 -52 -50 -52q-26 0 -48 23t-22 49zM31 104q0 132 159 323q133 162 273 255q24 16 37 16q16 0 44.5 -30.5t28.5 -46.5q0 -14 -26 -43q54 -27 91 -76q42 -54 42 -109q0 -142 -180 -296q-175 -150 -320 -150 q-65 0 -107 45.5t-42 111.5zM128 72q0 -66 65 -66q124 0 269.5 138t145.5 262q0 109 -112 129q-110 -74 -227 -207q-141 -161 -141 -256zM524 381q17 32 114 111q82 65 97 151l11 8l7 -3q18 -37 18 -71q0 -61 -85.5 -134t-145.5 -70l-10 1z" />
<glyph unicode="&#x1ee4;" horiz-adv-x="1446" d="M315 1044q0 85 204 152q167 55 282 55q198 0 198 -151q0 -124 -116 -341q-30 -57 -216 -359q-116 -190 -116 -248q0 -29 27 -29q83 0 350 211q207 164 331 288q198 199 271 361q11 25 47 25q65 0 65 -74q0 -52 -183 -422t-183 -495q0 -15 14 -15q12 0 90 53 q-18 -50 -74 -96q-59 -49 -110 -49q-78 0 -78 96q0 88 78 271q16 36 123 260q12 25 16 41l-6 6q-16 -1 -210 -170q-246 -215 -373 -312q-220 -168 -300 -168q-100 0 -100 117q0 110 141 334q130 196 261 393q141 224 141 334q0 84 -125 84q-92 0 -207 -50 q-132 -57 -156 -132l19 -8l16 -7q-32 -18 -55 -18q-24 0 -45 19.5t-21 43.5zM665 -244q0 19 53 48l74 38q6 -9 6 -27q0 -39 -13 -79q-18 -52 -50 -52q-26 0 -48 23t-22 49z" />
<glyph unicode="&#x1ee5;" horiz-adv-x="764" d="M8 72q0 109 169 352q138 198 138 225q0 15 9 21q28 0 47.5 -24.5t19.5 -53.5q0 -63 -132 -254.5t-132 -271.5q0 -21 14 -21q53 0 271 216q199 197 256 280q34 49 57 49q20 0 43 -22.5t23 -43.5q0 -22 -108 -193t-108 -272q0 -30 21 -30q49 0 164.5 116.5t126.5 116.5 l6 -8q-1 -47 -131 -168q-133 -123 -193 -123q-94 0 -94 109q0 57 34 139q38 90 42 123l-2 4q-86 -94 -171 -188q-174 -181 -263 -181q-44 0 -75.5 29.5t-31.5 73.5zM75 -244q0 19 53 48l74 38q6 -9 6 -27q0 -39 -13 -79q-18 -52 -50 -52q-26 0 -48 23t-22 49z" />
<glyph unicode="&#x1ee6;" horiz-adv-x="1446" d="M315 1044q0 85 204 152q167 55 282 55q198 0 198 -151q0 -124 -116 -341q-30 -57 -216 -359q-116 -190 -116 -248q0 -29 27 -29q83 0 350 211q207 164 331 288q198 199 271 361q11 25 47 25q65 0 65 -74q0 -52 -183 -422t-183 -495q0 -15 14 -15q12 0 90 53 q-18 -50 -74 -96q-59 -49 -110 -49q-78 0 -78 96q0 88 78 271q16 36 123 260q12 25 16 41l-6 6q-16 -1 -210 -170q-246 -215 -373 -312q-220 -168 -300 -168q-100 0 -100 117q0 110 141 334q130 196 261 393q141 224 141 334q0 84 -125 84q-92 0 -207 -50 q-132 -57 -156 -132l19 -8l16 -7q-32 -18 -55 -18q-24 0 -45 19.5t-21 43.5zM1315 1278q0 40 89.5 114t89.5 92t-30 18q-76 0 -91 -36l-16 -5l-8 13q0 32 45 57q39 22 72 22q92 0 92 -78q0 -50 -105.5 -120.5t-102.5 -89.5l-9 -10l-13 -2z" />
<glyph unicode="&#x1ee7;" horiz-adv-x="764" d="M8 72q0 109 169 352q138 198 138 225q0 15 9 21q28 0 47.5 -24.5t19.5 -53.5q0 -63 -132 -254.5t-132 -271.5q0 -21 14 -21q53 0 271 216q199 197 256 280q34 49 57 49q20 0 43 -22.5t23 -43.5q0 -22 -108 -193t-108 -272q0 -30 21 -30q49 0 164.5 116.5t126.5 116.5 l6 -8q-1 -47 -131 -168q-133 -123 -193 -123q-94 0 -94 109q0 57 34 139q38 90 42 123l-2 4q-86 -94 -171 -188q-174 -181 -263 -181q-44 0 -75.5 29.5t-31.5 73.5zM563 753q0 40 89.5 114t89.5 92t-30 18q-76 0 -91 -36l-16 -5l-8 13q0 32 45 57q39 22 72 22q92 0 92 -78 q0 -50 -105.5 -120.5t-102.5 -89.5l-9 -10l-13 -2z" />
<glyph unicode="&#x1ee8;" horiz-adv-x="1446" d="M315 1044q0 85 204 152q167 55 282 55q198 0 198 -151q0 -124 -116 -341q-30 -57 -216 -359q-116 -190 -116 -248q0 -29 27 -29q83 0 350 211q207 164 331 288q198 199 271 361q11 25 47 25q65 0 65 -74q0 -52 -183 -422t-183 -495q0 -15 14 -15q12 0 90 53 q-18 -50 -74 -96q-59 -49 -110 -49q-78 0 -78 96q0 88 78 271q16 36 123 260q12 25 16 41l-6 6q-16 -1 -210 -170q-246 -215 -373 -312q-220 -168 -300 -168q-100 0 -100 117q0 110 141 334q130 196 261 393q141 224 141 334q0 84 -125 84q-92 0 -207 -50 q-132 -57 -156 -132l19 -8l16 -7q-32 -18 -55 -18q-24 0 -45 19.5t-21 43.5zM1294 1295q16 25 136.5 115t140.5 90q14 0 25.5 -16.5t11.5 -31.5q0 -17 -19 -28q-24 -14 -148.5 -73t-137.5 -62zM1548 922q17 32 114 111q82 65 97 151l11 8l7 -3q18 -37 18 -71 q0 -61 -85.5 -134t-145.5 -70l-10 1z" />
<glyph unicode="&#x1ee9;" horiz-adv-x="764" d="M8 72q0 109 169 352q138 198 138 225q0 15 9 21q28 0 47.5 -24.5t19.5 -53.5q0 -63 -132 -254.5t-132 -271.5q0 -21 14 -21q53 0 271 216q199 197 256 280q34 49 57 49q20 0 43 -22.5t23 -43.5q0 -22 -108 -193t-108 -272q0 -30 21 -30q49 0 164.5 116.5t126.5 116.5 l6 -8q-1 -47 -131 -168q-133 -123 -193 -123q-94 0 -94 109q0 57 34 139q38 90 42 123l-2 4q-86 -94 -171 -188q-174 -181 -263 -181q-44 0 -75.5 29.5t-31.5 73.5zM530 756q16 25 136.5 115t140.5 90q14 0 25.5 -16.5t11.5 -31.5q0 -17 -19 -28q-24 -14 -148.5 -73 t-137.5 -62zM674 381q17 32 114 111q82 65 97 151l11 8l7 -3q18 -37 18 -71q0 -61 -85.5 -134t-145.5 -70l-10 1z" />
<glyph unicode="&#x1eea;" horiz-adv-x="1446" d="M315 1044q0 85 204 152q167 55 282 55q198 0 198 -151q0 -124 -116 -341q-30 -57 -216 -359q-116 -190 -116 -248q0 -29 27 -29q83 0 350 211q207 164 331 288q198 199 271 361q11 25 47 25q65 0 65 -74q0 -52 -183 -422t-183 -495q0 -15 14 -15q12 0 90 53 q-18 -50 -74 -96q-59 -49 -110 -49q-78 0 -78 96q0 88 78 271q16 36 123 260q12 25 16 41l-6 6q-16 -1 -210 -170q-246 -215 -373 -312q-220 -168 -300 -168q-100 0 -100 117q0 110 141 334q130 196 261 393q141 224 141 334q0 84 -125 84q-92 0 -207 -50 q-132 -57 -156 -132l19 -8l16 -7q-32 -18 -55 -18q-24 0 -45 19.5t-21 43.5zM1144 1458q0 15 11.5 31.5t25.5 16.5q20 0 142 -91t134 -114l-8 -6q-11 3 -139 63t-147 71.5t-19 28.5zM1548 922q17 32 114 111q82 65 97 151l11 8l7 -3q18 -37 18 -71q0 -61 -85.5 -134 t-145.5 -70l-10 1z" />
<glyph unicode="&#x1eeb;" horiz-adv-x="764" d="M8 72q0 109 169 352q138 198 138 225q0 15 9 21q28 0 47.5 -24.5t19.5 -53.5q0 -63 -132 -254.5t-132 -271.5q0 -21 14 -21q53 0 271 216q199 197 256 280q34 49 57 49q20 0 43 -22.5t23 -43.5q0 -22 -108 -193t-108 -272q0 -30 21 -30q49 0 164.5 116.5t126.5 116.5 l6 -8q-1 -47 -131 -168q-133 -123 -193 -123q-94 0 -94 109q0 57 34 139q38 90 42 123l-2 4q-86 -94 -171 -188q-174 -181 -263 -181q-44 0 -75.5 29.5t-31.5 73.5zM379 915q0 15 11.5 31.5t25.5 16.5q20 0 142 -91t134 -114l-8 -6q-11 3 -139 63t-147 71.5t-19 28.5z M674 381q17 32 114 111q82 65 97 151l11 8l7 -3q18 -37 18 -71q0 -61 -85.5 -134t-145.5 -70l-10 1z" />
<glyph unicode="&#x1eec;" horiz-adv-x="1446" d="M315 1044q0 85 204 152q167 55 282 55q198 0 198 -151q0 -124 -116 -341q-30 -57 -216 -359q-116 -190 -116 -248q0 -29 27 -29q83 0 350 211q207 164 331 288q198 199 271 361q11 25 47 25q65 0 65 -74q0 -52 -183 -422t-183 -495q0 -15 14 -15q12 0 90 53 q-18 -50 -74 -96q-59 -49 -110 -49q-78 0 -78 96q0 88 78 271q16 36 123 260q12 25 16 41l-6 6q-16 -1 -210 -170q-246 -215 -373 -312q-220 -168 -300 -168q-100 0 -100 117q0 110 141 334q130 196 261 393q141 224 141 334q0 84 -125 84q-92 0 -207 -50 q-132 -57 -156 -132l19 -8l16 -7q-32 -18 -55 -18q-24 0 -45 19.5t-21 43.5zM1315 1278q0 40 89.5 114t89.5 92t-30 18q-76 0 -91 -36l-16 -5l-8 13q0 32 45 57q39 22 72 22q92 0 92 -78q0 -50 -105.5 -120.5t-102.5 -89.5l-9 -10l-13 -2zM1548 922q17 32 114 111 q82 65 97 151l11 8l7 -3q18 -37 18 -71q0 -61 -85.5 -134t-145.5 -70l-10 1z" />
<glyph unicode="&#x1eed;" horiz-adv-x="764" d="M8 72q0 109 169 352q138 198 138 225q0 15 9 21q28 0 47.5 -24.5t19.5 -53.5q0 -63 -132 -254.5t-132 -271.5q0 -21 14 -21q53 0 271 216q199 197 256 280q34 49 57 49q20 0 43 -22.5t23 -43.5q0 -22 -108 -193t-108 -272q0 -30 21 -30q49 0 164.5 116.5t126.5 116.5 l6 -8q-1 -47 -131 -168q-133 -123 -193 -123q-94 0 -94 109q0 57 34 139q38 90 42 123l-2 4q-86 -94 -171 -188q-174 -181 -263 -181q-44 0 -75.5 29.5t-31.5 73.5zM563 753q0 40 89.5 114t89.5 92t-30 18q-76 0 -91 -36l-16 -5l-8 13q0 32 45 57q39 22 72 22q92 0 92 -78 q0 -50 -105.5 -120.5t-102.5 -89.5l-9 -10l-13 -2zM674 381q17 32 114 111q82 65 97 151l11 8l7 -3q18 -37 18 -71q0 -61 -85.5 -134t-145.5 -70l-10 1z" />
<glyph unicode="&#x1eee;" horiz-adv-x="1446" d="M315 1044q0 85 204 152q167 55 282 55q198 0 198 -151q0 -124 -116 -341q-30 -57 -216 -359q-116 -190 -116 -248q0 -29 27 -29q83 0 350 211q207 164 331 288q198 199 271 361q11 25 47 25q65 0 65 -74q0 -52 -183 -422t-183 -495q0 -15 14 -15q12 0 90 53 q-18 -50 -74 -96q-59 -49 -110 -49q-78 0 -78 96q0 88 78 271q16 36 123 260q12 25 16 41l-6 6q-16 -1 -210 -170q-246 -215 -373 -312q-220 -168 -300 -168q-100 0 -100 117q0 110 141 334q130 196 261 393q141 224 141 334q0 84 -125 84q-92 0 -207 -50 q-132 -57 -156 -132l19 -8l16 -7q-32 -18 -55 -18q-24 0 -45 19.5t-21 43.5zM1189 1346q16 34 68.5 69t91.5 35q38 0 106.5 -46t103.5 -46q25 0 51 15q33 21 44 24l6 -6l-6 -15q-64 -69 -129 -69q-45 0 -117.5 46t-101.5 46q-46 0 -91 -55l-16 -7zM1548 922q17 32 114 111 q82 65 97 151l11 8l7 -3q18 -37 18 -71q0 -61 -85.5 -134t-145.5 -70l-10 1z" />
<glyph unicode="&#x1eef;" horiz-adv-x="764" d="M8 72q0 109 169 352q138 198 138 225q0 15 9 21q28 0 47.5 -24.5t19.5 -53.5q0 -63 -132 -254.5t-132 -271.5q0 -21 14 -21q53 0 271 216q199 197 256 280q34 49 57 49q20 0 43 -22.5t23 -43.5q0 -22 -108 -193t-108 -272q0 -30 21 -30q49 0 164.5 116.5t126.5 116.5 l6 -8q-1 -47 -131 -168q-133 -123 -193 -123q-94 0 -94 109q0 57 34 139q38 90 42 123l-2 4q-86 -94 -171 -188q-174 -181 -263 -181q-44 0 -75.5 29.5t-31.5 73.5zM402 793q16 34 68.5 69t91.5 35q38 0 106.5 -46t103.5 -46q25 0 51 15q33 21 44 24l6 -6l-6 -15 q-64 -69 -129 -69q-45 0 -117.5 46t-101.5 46q-46 0 -91 -55l-16 -7zM674 381q17 32 114 111q82 65 97 151l11 8l7 -3q18 -37 18 -71q0 -61 -85.5 -134t-145.5 -70l-10 1z" />
<glyph unicode="&#x1ef0;" horiz-adv-x="1446" d="M315 1044q0 85 204 152q167 55 282 55q198 0 198 -151q0 -124 -116 -341q-30 -57 -216 -359q-116 -190 -116 -248q0 -29 27 -29q83 0 350 211q207 164 331 288q198 199 271 361q11 25 47 25q65 0 65 -74q0 -52 -183 -422t-183 -495q0 -15 14 -15q12 0 90 53 q-18 -50 -74 -96q-59 -49 -110 -49q-78 0 -78 96q0 88 78 271q16 36 123 260q12 25 16 41l-6 6q-16 -1 -210 -170q-246 -215 -373 -312q-220 -168 -300 -168q-100 0 -100 117q0 110 141 334q130 196 261 393q141 224 141 334q0 84 -125 84q-92 0 -207 -50 q-132 -57 -156 -132l19 -8l16 -7q-32 -18 -55 -18q-24 0 -45 19.5t-21 43.5zM665 -244q0 19 53 48l74 38q6 -9 6 -27q0 -39 -13 -79q-18 -52 -50 -52q-26 0 -48 23t-22 49zM1548 922q17 32 114 111q82 65 97 151l11 8l7 -3q18 -37 18 -71q0 -61 -85.5 -134t-145.5 -70l-10 1 z" />
<glyph unicode="&#x1ef1;" horiz-adv-x="764" d="M8 72q0 109 169 352q138 198 138 225q0 15 9 21q28 0 47.5 -24.5t19.5 -53.5q0 -63 -132 -254.5t-132 -271.5q0 -21 14 -21q53 0 271 216q199 197 256 280q34 49 57 49q20 0 43 -22.5t23 -43.5q0 -22 -108 -193t-108 -272q0 -30 21 -30q49 0 164.5 116.5t126.5 116.5 l6 -8q-1 -47 -131 -168q-133 -123 -193 -123q-94 0 -94 109q0 57 34 139q38 90 42 123l-2 4q-86 -94 -171 -188q-174 -181 -263 -181q-44 0 -75.5 29.5t-31.5 73.5zM75 -244q0 19 53 48l74 38q6 -9 6 -27q0 -39 -13 -79q-18 -52 -50 -52q-26 0 -48 23t-22 49zM674 381 q17 32 114 111q82 65 97 151l11 8l7 -3q18 -37 18 -71q0 -61 -85.5 -134t-145.5 -70l-10 1z" />
<glyph unicode="&#x1ef2;" horiz-adv-x="1540" d="M301 164q0 123 173 341q47 59 320 362q173 190 173 247q0 41 -65 41q-82 0 -293.5 -103.5t-237.5 -103.5q-64 0 -64 70q0 42 55 65l7 -6l-7 -20l7 -8q130 52 260 103q153 56 274 56q154 0 154 -123q0 -93 -162 -315q-150 -191 -301 -383q-162 -208 -162 -270 q0 -29 29 -29q57 0 283 195q207 181 415 362q235 195 314 195q75 0 75 -131q0 -108 -74.5 -287t-74.5 -170q0 -9 6 -9t106 57q104 60 123 65l11 -9q-5 -12 -163 -115q-163 -106 -190 -147q-427 -653 -602 -653q-67 0 -67 88q0 84 212 299q167 170 298 268q53 40 96 86 q74 80 144 241q73 166 73 267q0 58 -29 58t-233 -200q-281 -278 -391 -373q-230 -200 -326 -200q-65 0 -117 63q-49 60 -49 126zM1144 1458q0 15 11.5 31.5t25.5 16.5q20 0 142 -91t134 -114l-8 -6q-11 3 -139 63t-147 71.5t-19 28.5z" />
<glyph unicode="&#x1ef3;" horiz-adv-x="778" d="M-121 -467q0 117 234 290q36 27 342 220q19 12 55 72q172 288 172 366l-6 11q-63 -30 -287 -278q-200 -222 -285 -222q-40 0 -68 46q-24 40 -24 83q0 61 136 275l182 278q-16 6 -15 22q6 9 19 9q36 0 66 -29t30 -64q0 -44 -160.5 -256t-160.5 -270q0 -10 10 -14 q36 1 315 267.5t305 266.5q47 0 47 -67q0 -102 -161 -402v-10h10q131 78 283 156l12 -9q-12 -23 -162 -115q-161 -100 -184 -122q-14 -13 -29 -39q-115 -192 -247 -339q-194 -216 -334 -216q-95 0 -95 90zM-66 -444q0 -33 35 -33q73 0 251 178q169 169 198 250l-6 4 q-73 -20 -268 -170q-210 -162 -210 -229zM409 915q0 15 11.5 31.5t25.5 16.5q20 0 142 -91t134 -114l-8 -6q-11 3 -139 63t-147 71.5t-19 28.5z" />
<glyph unicode="&#x1ef4;" horiz-adv-x="1540" d="M301 164q0 123 173 341q47 59 320 362q173 190 173 247q0 41 -65 41q-82 0 -293.5 -103.5t-237.5 -103.5q-64 0 -64 70q0 42 55 65l7 -6l-7 -20l7 -8q130 52 260 103q153 56 274 56q154 0 154 -123q0 -93 -162 -315q-150 -191 -301 -383q-162 -208 -162 -270 q0 -29 29 -29q57 0 283 195q207 181 415 362q235 195 314 195q75 0 75 -131q0 -108 -74.5 -287t-74.5 -170q0 -9 6 -9t106 57q104 60 123 65l11 -9q-5 -12 -163 -115q-163 -106 -190 -147q-427 -653 -602 -653q-67 0 -67 88q0 84 212 299q167 170 298 268q53 40 96 86 q74 80 144 241q73 166 73 267q0 58 -29 58t-233 -200q-281 -278 -391 -373q-230 -200 -326 -200q-65 0 -117 63q-49 60 -49 126zM445 -244q0 19 53 48l74 38q6 -9 6 -27q0 -39 -13 -79q-18 -52 -50 -52q-26 0 -48 23t-22 49z" />
<glyph unicode="&#x1ef5;" horiz-adv-x="778" d="M-121 -467q0 117 234 290q36 27 342 220q19 12 55 72q172 288 172 366l-6 11q-63 -30 -287 -278q-200 -222 -285 -222q-40 0 -68 46q-24 40 -24 83q0 61 136 275l182 278q-16 6 -15 22q6 9 19 9q36 0 66 -29t30 -64q0 -44 -160.5 -256t-160.5 -270q0 -10 10 -14 q36 1 315 267.5t305 266.5q47 0 47 -67q0 -102 -161 -402v-10h10q131 78 283 156l12 -9q-12 -23 -162 -115q-161 -100 -184 -122q-14 -13 -29 -39q-115 -192 -247 -339q-194 -216 -334 -216q-95 0 -95 90zM-66 -444q0 -33 35 -33q73 0 251 178q169 169 198 250l-6 4 q-73 -20 -268 -170q-210 -162 -210 -229zM484 -244q0 19 53 48l74 38q6 -9 6 -27q0 -39 -13 -79q-18 -52 -50 -52q-26 0 -48 23t-22 49z" />
<glyph unicode="&#x1ef6;" horiz-adv-x="1540" d="M301 164q0 123 173 341q47 59 320 362q173 190 173 247q0 41 -65 41q-82 0 -293.5 -103.5t-237.5 -103.5q-64 0 -64 70q0 42 55 65l7 -6l-7 -20l7 -8q130 52 260 103q153 56 274 56q154 0 154 -123q0 -93 -162 -315q-150 -191 -301 -383q-162 -208 -162 -270 q0 -29 29 -29q57 0 283 195q207 181 415 362q235 195 314 195q75 0 75 -131q0 -108 -74.5 -287t-74.5 -170q0 -9 6 -9t106 57q104 60 123 65l11 -9q-5 -12 -163 -115q-163 -106 -190 -147q-427 -653 -602 -653q-67 0 -67 88q0 84 212 299q167 170 298 268q53 40 96 86 q74 80 144 241q73 166 73 267q0 58 -29 58t-233 -200q-281 -278 -391 -373q-230 -200 -326 -200q-65 0 -117 63q-49 60 -49 126zM1315 1278q0 40 89.5 114t89.5 92t-30 18q-76 0 -91 -36l-16 -5l-8 13q0 32 45 57q39 22 72 22q92 0 92 -78q0 -50 -105.5 -120.5t-102.5 -89.5 l-9 -10l-13 -2z" />
<glyph unicode="&#x1ef7;" horiz-adv-x="778" d="M-121 -467q0 117 234 290q36 27 342 220q19 12 55 72q172 288 172 366l-6 11q-63 -30 -287 -278q-200 -222 -285 -222q-40 0 -68 46q-24 40 -24 83q0 61 136 275l182 278q-16 6 -15 22q6 9 19 9q36 0 66 -29t30 -64q0 -44 -160.5 -256t-160.5 -270q0 -10 10 -14 q36 1 315 267.5t305 266.5q47 0 47 -67q0 -102 -161 -402v-10h10q131 78 283 156l12 -9q-12 -23 -162 -115q-161 -100 -184 -122q-14 -13 -29 -39q-115 -192 -247 -339q-194 -216 -334 -216q-95 0 -95 90zM-66 -444q0 -33 35 -33q73 0 251 178q169 169 198 250l-6 4 q-73 -20 -268 -170q-210 -162 -210 -229zM563 753q0 40 89.5 114t89.5 92t-30 18q-76 0 -91 -36l-16 -5l-8 13q0 32 45 57q39 22 72 22q92 0 92 -78q0 -50 -105.5 -120.5t-102.5 -89.5l-9 -10l-13 -2z" />
<glyph unicode="&#x1ef8;" horiz-adv-x="1540" d="M301 164q0 123 173 341q47 59 320 362q173 190 173 247q0 41 -65 41q-82 0 -293.5 -103.5t-237.5 -103.5q-64 0 -64 70q0 42 55 65l7 -6l-7 -20l7 -8q130 52 260 103q153 56 274 56q154 0 154 -123q0 -93 -162 -315q-150 -191 -301 -383q-162 -208 -162 -270 q0 -29 29 -29q57 0 283 195q207 181 415 362q235 195 314 195q75 0 75 -131q0 -108 -74.5 -287t-74.5 -170q0 -9 6 -9t106 57q104 60 123 65l11 -9q-5 -12 -163 -115q-163 -106 -190 -147q-427 -653 -602 -653q-67 0 -67 88q0 84 212 299q167 170 298 268q53 40 96 86 q74 80 144 241q73 166 73 267q0 58 -29 58t-233 -200q-281 -278 -391 -373q-230 -200 -326 -200q-65 0 -117 63q-49 60 -49 126zM1189 1346q16 34 68.5 69t91.5 35q38 0 106.5 -46t103.5 -46q25 0 51 15q33 21 44 24l6 -6l-6 -15q-64 -69 -129 -69q-45 0 -117.5 46 t-101.5 46q-46 0 -91 -55l-16 -7z" />
<glyph unicode="&#x1ef9;" horiz-adv-x="778" d="M-121 -467q0 117 234 290q36 27 342 220q19 12 55 72q172 288 172 366l-6 11q-63 -30 -287 -278q-200 -222 -285 -222q-40 0 -68 46q-24 40 -24 83q0 61 136 275l182 278q-16 6 -15 22q6 9 19 9q36 0 66 -29t30 -64q0 -44 -160.5 -256t-160.5 -270q0 -10 10 -14 q36 1 315 267.5t305 266.5q47 0 47 -67q0 -102 -161 -402v-10h10q131 78 283 156l12 -9q-12 -23 -162 -115q-161 -100 -184 -122q-14 -13 -29 -39q-115 -192 -247 -339q-194 -216 -334 -216q-95 0 -95 90zM-66 -444q0 -33 35 -33q73 0 251 178q169 169 198 250l-6 4 q-73 -20 -268 -170q-210 -162 -210 -229zM402 793q16 34 68.5 69t91.5 35q38 0 106.5 -46t103.5 -46q25 0 51 15q33 21 44 24l6 -6l-6 -15q-64 -69 -129 -69q-45 0 -117.5 46t-101.5 46q-46 0 -91 -55l-16 -7z" />
<glyph unicode="&#x2000;" horiz-adv-x="856" />
<glyph unicode="&#x2001;" horiz-adv-x="1712" />
<glyph unicode="&#x2002;" horiz-adv-x="856" />
<glyph unicode="&#x2003;" horiz-adv-x="1712" />
<glyph unicode="&#x2004;" horiz-adv-x="570" />
<glyph unicode="&#x2005;" horiz-adv-x="428" />
<glyph unicode="&#x2006;" horiz-adv-x="285" />
<glyph unicode="&#x2007;" horiz-adv-x="285" />
<glyph unicode="&#x2008;" horiz-adv-x="214" />
<glyph unicode="&#x2009;" horiz-adv-x="342" />
<glyph unicode="&#x200a;" horiz-adv-x="95" />
<glyph unicode="&#x2010;" horiz-adv-x="842" d="M195 487q0 22 18 21q24 -19 117 -19q61 0 183 6.5t183 6.5q45 0 45 -47l-16 -15q-17 6 -29 6q-68 0 -205 -22.5t-206 -22.5q-90 0 -90 86z" />
<glyph unicode="&#x2011;" horiz-adv-x="842" d="M195 487q0 22 18 21q24 -19 117 -19q61 0 183 6.5t183 6.5q45 0 45 -47l-16 -15q-17 6 -29 6q-68 0 -205 -22.5t-206 -22.5q-90 0 -90 86z" />
<glyph unicode="&#x2012;" horiz-adv-x="842" d="M195 487q0 22 18 21q24 -19 117 -19q61 0 183 6.5t183 6.5q45 0 45 -47l-16 -15q-17 6 -29 6q-68 0 -205 -22.5t-206 -22.5q-90 0 -90 86z" />
<glyph unicode="&#x2013;" horiz-adv-x="956" d="M186 489q0 18 25 17q29 -12 133 -12q88 0 264 4t264 4q19 0 38 -11q23 -12 20 -30l-23 -12l-12 6q-98 0 -297 -22.5t-299 -22.5q-36 0 -72 21q-41 24 -41 58z" />
<glyph unicode="&#x2014;" horiz-adv-x="1206" d="M186 489q0 17 25 17q12 0 36.5 -5.5t35.5 -6.5q165 -10 419 -5q395 7 420 7q58 0 58 -41l-19 -15q-34 9 -53 9q-135 0 -404.5 -19.5t-404.5 -19.5q-36 0 -72 21q-41 25 -41 58z" />
<glyph unicode="&#x2018;" horiz-adv-x="391" d="M481 1057q0 55 78 137t126 82q5 -2 7 -6q-9 -29 -93 -130q-75 -90 -75 -147l4 -10l-1 -8l-11 -6q-35 43 -35 88z" />
<glyph unicode="&#x2019;" horiz-adv-x="391" d="M442 977q6 19 90 122q72 89 72 172q0 10 10 10q5 0 7 -1q32 -45 32 -88q0 -57 -76.5 -138.5t-127.5 -82.5z" />
<glyph unicode="&#x201c;" horiz-adv-x="596" d="M481 1065q0 62 75 135q68 66 132 86l4 -6q-5 -22 -89 -128q-81 -100 -81 -141q0 -10 4 -18l-2 -11l-10 -3q-33 45 -33 86zM696 1047q0 121 205 219l4 -6q-1 -5 -86 -120q-82 -111 -82 -157l4 -10v-12l-10 -3q-35 43 -35 89z" />
<glyph unicode="&#x201d;" horiz-adv-x="596" d="M446 975q6 18 90 125q77 97 77 141q0 12 -5 21l2 12l13 2q34 -44 34 -90q0 -65 -73 -134q-64 -60 -133 -83zM664 954q1 4 85 119q80 111 80 158q-3 10 -8 16l13 15q40 -26 40 -95q0 -54 -78 -136t-126 -82q-5 1 -6 5z" />
<glyph unicode="&#x2026;" horiz-adv-x="1124" d="M125 47q0 19 53 48l74 38q6 -9 6 -27q0 -39 -13 -79q-18 -52 -50 -52q-26 0 -48 23t-22 49zM492 47q0 20 53 48q36 19 73 38q7 -9 7 -27q0 -40 -13 -79q-19 -52 -51 -52q-26 0 -47.5 23t-21.5 49zM858 47q0 19 53 48l74 38q6 -9 6 -27q0 -41 -13 -79q-17 -52 -50 -52 q-26 0 -48 23t-22 49z" />
<glyph unicode="&#x202f;" horiz-adv-x="342" />
<glyph unicode="&#x205f;" horiz-adv-x="428" />
<glyph unicode="&#x25fc;" horiz-adv-x="775" d="M0 0v775h775v-775h-775z" />
</font>
</defs>
</svg>
