<?xml version="1.0" standalone="no"?>
<!DOCTYPE svg PUBLIC "-//W3C//DTD SVG 1.1//EN" "http://www.w3.org/Graphics/SVG/1.1/DTD/svg11.dtd" >
<svg xmlns="http://www.w3.org/2000/svg" xmlns:xlink="http://www.w3.org/1999/xlink" version="1.1">
<metadata></metadata>
<defs>
<font id="uvn_tin_tuc_hep_thembold" horiz-adv-x="811" >
<font-face units-per-em="2048" ascent="1638" descent="-410" />
<missing-glyph horiz-adv-x="408" />
<glyph horiz-adv-x="0" />
<glyph unicode="&#xd;" horiz-adv-x="408" />
<glyph unicode=" "  horiz-adv-x="408" />
<glyph unicode="&#x09;" horiz-adv-x="408" />
<glyph unicode="&#xa0;" horiz-adv-x="408" />
<glyph unicode="!" horiz-adv-x="483" d="M115 1481h254l-58 -1063h-141zM129 0v236h223v-236h-223z" />
<glyph unicode="&#x22;" horiz-adv-x="614" d="M90 881v555h139v-555h-139zM385 881v555h139v-555h-139z" />
<glyph unicode="#" horiz-adv-x="1575" d="M88 449l53 147h310l92 262h-330l51 146h332l162 454h166l-162 -454h256l164 454h164l-160 -454h301l-51 -146h-303l-93 -262h322l-51 -147h-322l-162 -453h-165l161 453h-258l-162 -453h-165l159 453h-309zM616 594h261l92 264h-260z" />
<glyph unicode="$" horiz-adv-x="815" d="M76 174l121 148q83 -129 174 -129v477q-293 206 -293 448q0 145 74 239q78 100 219 113v166h106v-163q181 -28 260 -146l-116 -147q-61 96 -143 110l-1 -430q291 -215 291 -475q0 -313 -291 -377v-219h-106v219q-195 22 -295 166zM274 1122q0 -126 97 -188v348 q-97 -32 -97 -160zM477 193q98 42 98 184q0 131 -98 223v-407z" />
<glyph unicode="%" horiz-adv-x="1507" d="M55 1174q0 140 98 237.5t238 97.5t238 -97.5t98 -237.5q0 -141 -97.5 -238.5t-238.5 -97.5t-238.5 97.5t-97.5 238.5zM236 1174q0 -66 44.5 -110t110.5 -44t111 44t45 110q0 64 -46 110.5t-110 46.5q-65 0 -110 -45.5t-45 -111.5zM272 -29l818 1522h145l-815 -1522h-148z M782 307q0 141 97.5 238.5t238.5 97.5t238.5 -97.5t97.5 -238.5t-97.5 -238.5t-238.5 -97.5t-238.5 97.5t-97.5 238.5zM963 307q0 -66 44.5 -110.5t110.5 -44.5t111 44.5t45 110.5q0 65 -45.5 110.5t-110.5 45.5q-66 0 -110.5 -45t-44.5 -111z" />
<glyph unicode="&#x26;" horiz-adv-x="905" d="M86 348q0 213 176 397q-115 232 -115 420q0 144 70 237q77 103 217 103q134 0 210 -89q71 -84 71 -220q0 -179 -234 -465q68 -159 166 -309q28 111 45 264l191 -39q-34 -250 -113 -387q49 -55 109 -86l-1 -207q-140 20 -225 133q-83 -125 -241 -125q-164 0 -249 107 q-77 98 -77 266zM283 369q0 -74 33 -128q39 -65 108 -65q60 0 106 60q-116 147 -188 342q-59 -118 -59 -209zM340 1169q0 -115 51 -280q125 220 125 336q0 121 -78 121q-98 0 -98 -177z" />
<glyph unicode="'" horiz-adv-x="317" d="M90 881v555h139v-555h-139z" />
<glyph unicode="(" horiz-adv-x="530" d="M102 682q0 450 211 825h172q-196 -368 -196 -825q0 -453 196 -823h-172q-211 371 -211 823z" />
<glyph unicode=")" horiz-adv-x="530" d="M45 -141q197 370 197 823q0 451 -197 825h172q211 -369 211 -825q0 -454 -211 -823h-172z" />
<glyph unicode="*" horiz-adv-x="758" d="M49 1178l49 168l246 -140l-37 303h148l-39 -303l246 140l49 -168l-271 -52l195 -217l-129 -106l-127 274l-125 -274l-129 106l194 217z" />
<glyph unicode="+" horiz-adv-x="1706" d="M254 541v139h528v541h142v-541h528v-139h-528v-541h-142v541h-528z" />
<glyph unicode="," horiz-adv-x="408" d="M92 0v236h223v-236l-125 -260h-94l97 260h-101z" />
<glyph unicode="-" horiz-adv-x="473" d="M29 485v177h417v-177h-417z" />
<glyph unicode="." horiz-adv-x="408" d="M92 0v236h223v-236h-223z" />
<glyph unicode="/" horiz-adv-x="569" d="M-104 -190l579 1699h143l-579 -1699h-143z" />
<glyph unicode="0" horiz-adv-x="815" d="M98 422v637q0 204 53 307q73 143 257 143q183 0 256 -143q53 -104 53 -307v-637q0 -204 -53 -308q-73 -143 -256 -143q-184 0 -257 143q-53 104 -53 308zM313 383q0 -223 95 -223q94 0 94 223v715q0 223 -94 223q-95 0 -95 -223v-715z" />
<glyph unicode="1" horiz-adv-x="815" d="M125 1194v131q137 53 266 178h133v-1503h-207v1194h-192z" />
<glyph unicode="2" horiz-adv-x="815" d="M82 0v174q129 231 175 320q98 187 155 331q80 203 80 344q0 150 -91 150q-72 0 -92 -100q-9 -41 -8 -156h-199q0 8 -1 24.5t-1 24.5q0 168 70 275q82 126 242 126q141 0 220 -106q70 -94 70 -240q0 -202 -138 -507q-73 -160 -251 -470h371v-190h-602z" />
<glyph unicode="3" horiz-adv-x="815" d="M84 354q0 50 3 70h206q0 -123 6 -158q18 -106 86 -106q94 0 94 211q0 199 -35.5 255t-156.5 56v197q113 0 152 52q34 45 34 163q0 227 -92 227q-64 0 -80 -90q-5 -28 -4 -139h-201q0 9 -1 26.5t-1 26.5q0 364 289 364q177 0 244 -122q49 -90 49 -285q0 -124 -22 -189 q-35 -98 -130 -125q109 -35 145 -152q21 -69 21 -220q0 -445 -297 -445q-309 0 -309 383z" />
<glyph unicode="4" horiz-adv-x="815" d="M68 315v201l352 965h219v-985h135v-181h-135v-315h-199v315h-372zM225 496h215v389q0 77 37 332z" />
<glyph unicode="5" horiz-adv-x="815" d="M109 362q0 40 2 60h214q0 -11 -1 -33v-33q0 -194 94 -194q90 0 90 147v334q0 201 -102 201q-85 0 -93 -119h-180l25 756h536v-195h-358l-8 -336q70 86 176 86q134 0 185 -128q32 -83 32 -244v-299q0 -185 -60 -279q-73 -115 -247 -115q-305 0 -305 391z" />
<glyph unicode="6" horiz-adv-x="815" d="M121 360v693q0 218 51 316q71 140 266 140q287 0 287 -411h-213q0 112 -4 133q-16 84 -84 84q-90 0 -90 -168v-320q99 91 184 91q207 0 207 -320v-238q0 -391 -311 -391q-293 0 -293 391zM334 324q0 -160 86 -160q92 0 92 147v271q0 147 -78 147q-43 0 -100 -55v-350z " />
<glyph unicode="7" horiz-adv-x="815" d="M94 1286v195h590l-116 -661h75v-160h-103l-116 -660h-219l126 660h-153v160h184l89 466h-357z" />
<glyph unicode="8" horiz-adv-x="815" d="M100 434q0 144 14 207q28 123 117 156q-120 49 -120 325q0 189 53 276q68 111 244 111q183 0 249 -123q48 -88 48 -290q0 -252 -121 -299q71 -26 102 -104q29 -74 29 -285q0 -203 -52 -302q-71 -135 -255 -135q-192 0 -261 146q-47 99 -47 317zM311 422q0 -162 21 -210 q22 -52 76 -52q69 0 90 104q8 43 8 158t-8 158q-21 104 -90 104q-54 0 -75.5 -50.5t-21.5 -211.5zM319 1110q0 -211 89 -211q88 0 88 211t-88 211q-89 0 -89 -211z" />
<glyph unicode="9" horiz-adv-x="815" d="M98 381h215q0 -115 3 -133q15 -84 83 -84q90 0 90 168v319q-96 -88 -184 -88q-207 0 -207 318v237q0 391 312 391q295 0 295 -389v-694q0 -217 -52 -317q-72 -140 -268 -140q-287 0 -287 412zM313 897q0 -147 76 -147q43 0 100 55v344q0 166 -86 166q-90 0 -90 -148v-270 z" />
<glyph unicode=":" horiz-adv-x="408" d="M92 0v236h223v-236h-223zM92 559v236h223v-236h-223z" />
<glyph unicode=";" horiz-adv-x="408" d="M92 0v236h223v-236l-125 -260h-94l97 260h-101zM92 559v236h223v-236h-223z" />
<glyph unicode="&#x3c;" horiz-adv-x="1706" d="M264 547v129l1178 483v-153l-969 -396l969 -393v-154z" />
<glyph unicode="=" horiz-adv-x="1706" d="M254 342v139h1198v-139h-1198zM254 739v140h1198v-140h-1198z" />
<glyph unicode="&#x3e;" horiz-adv-x="1706" d="M264 63v154l971 393l-971 396v153l1178 -483v-129z" />
<glyph unicode="?" horiz-adv-x="735" d="M33 1266q87 237 311 237q121 0 203 -73t82 -193q0 -72 -59 -197q-49 -94 -97 -188q-47 -97 -61 -208q-9 -71 -9 -218h-184v84q0 292 62 430q37 80 74 161q51 117 51 161q0 71 -58 71q-68 0 -119 -141zM201 0v236h223v-236h-223z" />
<glyph unicode="@" horiz-adv-x="2048" d="M106 522q0 280 149 508.5t406 343.5q205 92 455 92q163 0 310 -45q227 -70 368 -235q150 -177 150 -406q0 -175 -63 -315q-70 -153 -201 -248q-138 -100 -300 -100q-200 0 -200 176q-107 -174 -301 -174q-314 0 -314 332q0 221 126 380q136 173 351 173q170 0 242 -150 l57 115h132l-146 -576q-8 -32 -8 -59q0 -94 100 -94q47 0 103 27q130 62 206 208q70 134 70 287q0 279 -212 438q-190 143 -478 143q-133 0 -246 -28q-274 -68 -443 -289.5t-169 -505.5q0 -177 62 -308q90 -192 299 -296q188 -94 417 -94q346 0 621 190l55 -82 q-297 -223 -664 -223q-190 0 -348 47q-271 81 -427 283q-159 205 -159 485zM725 446q0 -219 186 -219q97 0 174 68.5t105 179.5l59 236q-35 184 -198 184q-156 0 -248 -153q-78 -130 -78 -296z" />
<glyph unicode="A" horiz-adv-x="786" d="M39 0l217 1481h285l227 -1481h-223l-37 299h-219l-35 -299h-215zM309 496h178l-81 860h-11z" />
<glyph unicode="B" horiz-adv-x="909" d="M125 0v1481h274q228 0 319 -78q101 -85 101 -307q0 -258 -147 -322q168 -65 168 -346q0 -227 -101.5 -327.5t-328.5 -100.5h-285zM344 190h78q118 0 161 72q33 54 33 182q0 118 -37 167q-43 57 -157 57h-78v-478zM344 862h66q110 0 151 58q35 48 35 163q0 111 -35 157 q-40 54 -147 54h-70v-432z" />
<glyph unicode="C" horiz-adv-x="879" d="M109 500v481q0 241 58 360q83 168 298 168q356 0 356 -454v-74h-223q0 12 1 47t1 56q0 237 -135 237q-133 0 -133 -223v-715q0 -223 133 -223t133 223v141h223v-94q0 -459 -356 -459q-215 0 -298 168q-58 119 -58 361z" />
<glyph unicode="D" horiz-adv-x="924" d="M125 0v1481h233q250 0 349 -82q110 -91 110 -334v-662q0 -203 -83 -299q-88 -104 -288 -104h-321zM344 193h62q116 0 158 82q30 57 30 182v616q0 117 -34 164q-40 55 -152 55h-64v-1099z" />
<glyph unicode="E" horiz-adv-x="758" d="M125 0v1481h586v-199h-367v-410h287v-202h-287v-471h401v-199h-620z" />
<glyph unicode="F" horiz-adv-x="764" d="M125 0v1481h631v-199h-398v-408h291v-206h-291v-668h-233z" />
<glyph unicode="G" horiz-adv-x="924" d="M109 500v481q0 241 58 360q83 168 298 168q356 0 356 -454v-54h-223q0 11 1 40v47q0 233 -134 233q-133 0 -133 -223v-707q0 -223 133 -223t133 223v172h-117v185h340v-748h-104l-53 109q-91 -125 -242 -125q-191 0 -264 175q-49 118 -49 341z" />
<glyph unicode="H" horiz-adv-x="930" d="M125 0v1481h219v-615h242v615h219v-1481h-219v666h-242v-666h-219z" />
<glyph unicode="I" horiz-adv-x="469" d="M125 0v1481h219v-1481h-219z" />
<glyph unicode="J" horiz-adv-x="567" d="M20 -10v204q40 -14 77 -14q83 0 109 81q14 44 14 151v1069h217v-1098q0 -194 -52 -286q-68 -122 -245 -122q-54 0 -120 15z" />
<glyph unicode="K" horiz-adv-x="815" d="M125 0v1481h219v-617l234 617h217l-226 -529l252 -952h-221l-186 752l-70 -156v-596h-219z" />
<glyph unicode="L" horiz-adv-x="739" d="M125 0v1481h219v-1276h401v-205h-620z" />
<glyph unicode="M" horiz-adv-x="1169" d="M125 0v1481h283l135 -789q21 -123 39 -366q11 216 39 364l149 791h272v-1481h-183q-3 98 -3 261v154q0 538 33 935l-256 -1350h-109l-235 1350q20 -575 20 -1350h-184z" />
<glyph unicode="N" horiz-adv-x="934" d="M123 0v1481h211l332 -1143q-54 514 -54 1143h197v-1481h-184l-363 1260q51 -591 57 -1260h-196z" />
<glyph unicode="O" horiz-adv-x="930" d="M109 500v481q0 241 58 360q83 168 298 168q214 0 297 -168q59 -120 59 -360v-481q0 -241 -59 -360q-82 -169 -297 -169t-298 169q-58 119 -58 360zM332 383q0 -223 133 -223t133 223v715q0 223 -133 223t-133 -223v-715z" />
<glyph unicode="P" horiz-adv-x="872" d="M125 0v1481h272q250 0 346 -88q101 -92 101 -338q0 -226 -88 -328q-95 -111 -316 -111h-96v-616h-219zM344 807h72q126 0 171 69q34 54 34 189q0 115 -39 167q-45 60 -156 60h-82v-485z" />
<glyph unicode="Q" horiz-adv-x="930" d="M109 500v481q0 241 58 360q83 168 298 168q214 0 297 -168q59 -120 59 -360v-481q0 -259 -49 -346q31 -49 105 -64l-1 -194q-150 8 -212 135q-91 -60 -199 -60q-215 0 -298 168q-58 120 -58 361zM332 383q0 -223 133 -223q49 0 92 45q-19 77 -102 108v199 q83 -18 143 -119v705q0 223 -133 223t-133 -223v-715z" />
<glyph unicode="R" horiz-adv-x="887" d="M125 0v1481h242q251 0 348 -90q102 -93 102 -342q0 -290 -172 -379l195 -670h-226l-174 623h-96v-623h-219zM344 813h53q121 0 164 67q33 52 33 181q0 116 -31 166q-40 65 -147 65h-72v-479z" />
<glyph unicode="S" horiz-adv-x="739" d="M45 385l209 31q0 -254 125 -254q115 0 115 164q0 112 -112 258q-104 129 -209 259q-112 163 -112 314q0 154 76 250q83 104 234 104q156 0 240 -110q73 -97 79 -260l-198 -25q-9 203 -121 203q-49 0 -76 -46q-23 -39 -23 -91q0 -117 178 -337q200 -246 233 -360 q22 -75 22 -159q0 -152 -86 -251q-90 -104 -240 -104q-309 0 -334 414z" />
<glyph unicode="T" horiz-adv-x="659" d="M16 1292v189h625v-189h-203v-1292h-219v1292h-203z" />
<glyph unicode="U" horiz-adv-x="932" d="M125 463v1018h219v-1078q0 -227 123 -227t123 227v1078h217v-1018q0 -231 -55 -339q-78 -151 -285 -151q-208 0 -286 151q-56 108 -56 339z" />
<glyph unicode="V" horiz-adv-x="772" d="M29 1481h211l100 -764q44 -336 57 -540q22 345 47 541l97 763h215l-250 -1481h-219z" />
<glyph unicode="W" horiz-adv-x="1096" d="M16 1481h199l84 -777q2 -19 11 -183q8 -172 18 -318q8 194 43 506l86 772h184l100 -764q18 -135 47 -514q7 172 31 514l78 764h195l-203 -1481h-193l-100 752q-30 223 -43 544q-12 -183 -45 -546l-90 -750h-187z" />
<glyph unicode="X" horiz-adv-x="735" d="M8 0l238 776l-217 705h211l131 -549l129 549h215l-219 -707l235 -774h-207l-151 629l-152 -629h-213z" />
<glyph unicode="Y" horiz-adv-x="721" d="M-6 1481h229l139 -670l144 670h219l-258 -877v-604h-219v606z" />
<glyph unicode="Z" horiz-adv-x="754" d="M35 0v190l430 1092h-397v199h626v-193l-428 -1089h428v-199h-659z" />
<glyph unicode="[" horiz-adv-x="530" d="M137 -104v1585h383v-164h-192v-1258h192v-163h-383z" />
<glyph unicode="\" horiz-adv-x="569" d="M-49 1509h143l580 -1699h-144z" />
<glyph unicode="]" horiz-adv-x="530" d="M10 59h193v1258h-193v164h383v-1585h-383v163z" />
<glyph unicode="^" horiz-adv-x="2048" d="M420 901l510 557h186l510 -557h-180l-422 420l-424 -420h-180z" />
<glyph unicode="_" horiz-adv-x="1024" d="M0 -340h1024v-143h-1024v143z" />
<glyph unicode="`" horiz-adv-x="1024" d="M274 1577h179l163 -348h-104z" />
<glyph unicode="a" horiz-adv-x="784" d="M57 246q0 178 132 309q98 97 292 184v60q0 145 -100 145q-111 0 -115 -145h-194q9 149 95 233t234 84q166 0 233 -108q52 -85 52 -263v-505q0 -152 21 -240h-201l-21 111q-87 -123 -211 -123q-107 0 -165 78q-52 70 -52 180zM260 299q0 -125 92 -125q67 0 129 88v305 q-221 -109 -221 -268z" />
<glyph unicode="b" horiz-adv-x="803" d="M109 0v1481h204v-480q90 115 191 115q205 0 205 -336v-448q0 -350 -197 -350q-105 0 -199 116v-98h-204zM313 231q61 -59 109 -59q57 0 73 82q7 34 7 126v373q0 173 -86 173q-45 0 -103 -52v-643z" />
<glyph unicode="c" horiz-adv-x="782" d="M96 371v354q0 391 299 391q157 0 238 -99q74 -90 74 -251v-49h-197q0 117 -6 144q-19 81 -98 81q-105 0 -105 -149v-488q0 -151 105 -151q79 0 98 83q6 27 6 146h197v-64q0 -156 -77 -245q-82 -94 -235 -94q-299 0 -299 391z" />
<glyph unicode="d" horiz-adv-x="803" d="M94 332v448q0 336 209 336q96 0 186 -115v480h205v-1481h-205v98q-92 -116 -198 -116q-197 0 -197 350zM301 380q0 -91 7 -126q16 -82 73 -82q45 0 108 59v643q-56 52 -102 52q-86 0 -86 -173v-373z" />
<glyph unicode="e" horiz-adv-x="788" d="M96 371v354q0 391 312 391q311 0 311 -438v-166h-418v-207q0 -151 105 -151q79 0 98 83q6 27 6 146h197v-64q0 -156 -77 -245q-82 -94 -235 -94q-299 0 -299 391zM301 684h209v109q0 149 -104 149q-105 0 -105 -149v-109z" />
<glyph unicode="f" horiz-adv-x="530" d="M45 930v170h121q0 22 -1 65t-1 62q0 134 38 190q50 76 193 76h107v-166q-95 0 -114 -22.5t-19 -204.5h127v-170h-127v-930h-203v930h-121z" />
<glyph unicode="g" horiz-adv-x="754" d="M39 -160q0 118 178 178q-115 32 -115 125q0 95 117 170q-90 48 -122 164q-21 74 -21 211q0 197 55 297q73 131 252 131q144 0 213 -98q52 96 172 96v-178q-40 4 -47 4q-49 0 -82 -25q20 -84 20 -210q0 -418 -286 -418q-27 0 -41 2q-47 -28 -47 -68q0 -39 60 -46.5 t120 -14.5q77 -10 119 -27q176 -70 176 -213q0 -140 -129 -215q-106 -61 -256 -61q-336 0 -336 196zM236 -117q0 -100 167 -100q61 0 110 23q62 29 62 83q0 58 -86 85q-61 20 -137 20q-39 0 -85 -45q-31 -30 -31 -66zM274 702q0 -113 7 -150q18 -99 84 -99q50 0 71 49 q19 46 19 200q0 155 -20 202.5t-70 47.5q-66 0 -84 -100q-7 -36 -7 -150z" />
<glyph unicode="h" d="M109 0v1481h204v-504q105 139 215 139q122 0 163 -117q24 -68 24 -221v-778h-205v786q0 140 -82 140q-59 0 -115 -78v-848h-204z" />
<glyph unicode="i" horiz-adv-x="432" d="M115 0v1100h202v-1100h-202zM115 1274v207h202v-207h-202z" />
<glyph unicode="j" horiz-adv-x="432" d="M0 -164h25q65 0 82 54q8 25 8 110v1100h202v-1100q0 -207 -52.5 -276.5t-190.5 -69.5q-50 0 -74 2v180zM115 1274v207h202v-207h-202z" />
<glyph unicode="k" horiz-adv-x="782" d="M109 0v1481h204v-789l238 408h219l-242 -369l256 -731h-202l-195 596l-74 -123v-473h-204z" />
<glyph unicode="l" horiz-adv-x="432" d="M115 0v1481h202v-1481h-202z" />
<glyph unicode="m" horiz-adv-x="1159" d="M109 0v1100h192v-135q120 151 213 151q124 0 160 -151q120 151 215 151q114 0 151 -122q21 -67 21 -216v-778h-203v786q0 136 -74 136q-45 0 -96 -74v-848h-205v786q0 136 -73 136q-46 0 -97 -74v-848h-204z" />
<glyph unicode="n" d="M109 0v1100h192v-135q123 151 227 151q122 0 163 -117q24 -68 24 -221v-778h-205v786q0 140 -82 140q-59 0 -115 -78v-848h-204z" />
<glyph unicode="o" d="M96 371v354q0 391 310 391q309 0 309 -391v-354q0 -391 -309 -391q-310 0 -310 391zM301 305q0 -151 105 -151q104 0 104 151v488q0 149 -104 149q-105 0 -105 -149v-488z" />
<glyph unicode="p" horiz-adv-x="803" d="M109 -344v1446h196v-111q95 125 207 125q197 0 197 -346v-451q0 -335 -205 -335q-99 0 -191 116v-444h-204zM313 227q59 -51 103 -51q86 0 86 172v372q0 91 -7 126q-16 82 -73 82q-49 0 -109 -58v-643z" />
<glyph unicode="q" horiz-adv-x="803" d="M94 319v451q0 346 197 346q116 0 207 -125v111h196v-1446h-205v444q-91 -116 -190 -116q-205 0 -205 335zM301 348q0 -172 86 -172q45 0 102 51v643q-58 58 -108 58q-57 0 -73 -82q-7 -35 -7 -126v-372z" />
<glyph unicode="r" horiz-adv-x="545" d="M109 0v1100h190v-146q80 154 237 162l1 -221q-36 10 -93 10q-85 0 -113 -60q-18 -39 -18 -136v-709h-204z" />
<glyph unicode="s" horiz-adv-x="649" d="M49 303l180 16q0 -169 97 -169q90 0 90 110q0 80 -133 218q-156 163 -181 217q-32 69 -32 155q0 266 268 266q125 0 196 -83q63 -76 70 -205l-178 -14q-6 142 -88 142q-84 0 -84 -90q0 -74 91 -171l170 -182q91 -119 91 -245t-73 -205q-76 -81 -201 -81q-277 0 -283 321z " />
<glyph unicode="t" horiz-adv-x="532" d="M23 928v172h118v295h205v-295h146v-172h-146v-606q0 -79 8 -104q17 -54 76 -54q22 0 66 4v-166q-56 -18 -113 -18q-138 0 -190 72t-52 278v594h-118z" />
<glyph unicode="u" d="M96 322v778h205v-787q0 -139 82 -139q58 0 115 78v848h202v-1100h-190v135q-117 -145 -227 -145q-123 0 -164 113q-23 65 -23 219z" />
<glyph unicode="v" horiz-adv-x="680" d="M31 1100h196q35 -246 70 -493q38 -282 53 -494q16 227 109 987h194l-207 -1100h-196z" />
<glyph unicode="w" horiz-adv-x="985" d="M25 1100h182q55 -459 58 -488q30 -271 42 -485q9 123 35 369l82 604h145q47 -324 127 -973q9 205 97 973h174l-187 -1100h-159l-86 538q-18 115 -39 412q-9 -137 -37 -409l-80 -541h-164z" />
<glyph unicode="x" horiz-adv-x="662" d="M12 0l207 590l-186 510h192l86 -264q21 -64 25 -156q2 81 22 156l70 264h203l-182 -514l202 -586h-194l-103 349q-14 47 -20 154q-3 -53 -21 -155l-102 -348h-199z" />
<glyph unicode="y" horiz-adv-x="664" d="M27 1100h198l129 -922l101 922h194l-211 -1123q-31 -166 -90 -240q-76 -95 -229 -95q-43 0 -66 4v184q28 -6 53 -6q134 0 134 180q0 66 -41 264z" />
<glyph unicode="z" horiz-adv-x="635" d="M39 0v154l334 774h-303v172h516v-172l-328 -758h336v-170h-555z" />
<glyph unicode="{" horiz-adv-x="1024" d="M168 457v149q7 0 22 -1t23 -1q136 0 190 68q48 60 48 200v246q0 118 11 170q21 95 89 137q83 52 315 52v-150q-161 0 -202 -44.5t-41 -184.5v-242q0 -142 -34 -208q-43 -85 -167 -118q126 -31 169 -120q32 -64 32 -205v-242q0 -141 41.5 -185t201.5 -44v-148h-43 q-193 0 -272 49q-68 42 -89 138q-11 52 -11 170v245q0 141 -48 202q-55 69 -192 69q-7 0 -21.5 -1t-21.5 -1z" />
<glyph unicode="|" horiz-adv-x="1024" d="M438 -483v2048h150v-2048h-150z" />
<glyph unicode="}" horiz-adv-x="1024" d="M160 -266q159 0 201 45t42 186v240q0 142 34 208q43 85 167 117q-124 33 -167 118q-34 66 -34 208v242q0 140 -42 184.5t-201 44.5v150h37q195 0 278 -52q55 -34 77 -94.5t25 -237.5q-2 121 -2 -221q0 -147 54 -207q38 -43 107 -54q31 -5 122 -5v-149q-7 0 -21.5 1 t-21.5 1q-138 0 -192 -68q-48 -61 -48 -203v-245q0 -118 -11 -170q-21 -96 -89 -138q-79 -49 -315 -49v148z" />
<glyph unicode="~" horiz-adv-x="1706" d="M178 451v155q212 144 387 144q111 0 302 -68t276 -68q166 0 387 156v-156q-204 -141 -389 -141q-98 0 -288 67.5t-290 67.5q-160 0 -385 -157z" />
<glyph unicode="&#xad;" horiz-adv-x="473" d="M29 485v177h417v-177h-417z" />
<glyph unicode="&#xc0;" horiz-adv-x="786" d="M39 0l217 1481h285l227 -1481h-223l-37 299h-219l-35 -299h-215zM155 1968h179l163 -348h-104zM309 496h178l-81 860h-11z" />
<glyph unicode="&#xc1;" horiz-adv-x="786" d="M39 0l217 1481h285l227 -1481h-223l-37 299h-219l-35 -299h-215zM289 1620l163 348h179l-238 -348h-104zM309 496h178l-81 860h-11z" />
<glyph unicode="&#xc2;" horiz-adv-x="786" d="M39 0l217 1481h285l227 -1481h-223l-37 299h-219l-35 -299h-215zM155 1560l152 348h172l152 -348h-105l-133 209l-133 -209h-105zM309 496h178l-81 860h-11z" />
<glyph unicode="&#xc3;" horiz-adv-x="786" d="M39 0l217 1481h285l227 -1481h-223l-37 299h-219l-35 -299h-215zM153 1657q32 219 154 219q30 0 89.5 -23.5t84.5 -23.5q56 0 72 75h80q-37 -225 -160 -225q-30 0 -88 22.5t-82 22.5q-51 0 -70 -67h-80zM309 496h178l-81 860h-11z" />
<glyph unicode="&#xc8;" horiz-adv-x="758" d="M125 0v1481h586v-199h-367v-410h287v-202h-287v-471h401v-199h-620zM180 1968h179l163 -348h-104z" />
<glyph unicode="&#xc9;" horiz-adv-x="758" d="M125 0v1481h586v-199h-367v-410h287v-202h-287v-471h401v-199h-620zM314 1620l163 348h179l-238 -348h-104z" />
<glyph unicode="&#xca;" horiz-adv-x="758" d="M125 0v1481h586v-199h-367v-410h287v-202h-287v-471h401v-199h-620zM180 1560l152 348h172l152 -348h-105l-133 209l-133 -209h-105z" />
<glyph unicode="&#xcc;" horiz-adv-x="469" d="M-2 1968h179l163 -348h-104zM125 0v1481h219v-1481h-219z" />
<glyph unicode="&#xcd;" horiz-adv-x="469" d="M125 0v1481h219v-1481h-219zM132 1620l163 348h179l-238 -348h-104z" />
<glyph unicode="&#xd2;" horiz-adv-x="930" d="M109 500v481q0 241 58 360q83 168 298 168q214 0 297 -168q59 -120 59 -360v-481q0 -241 -59 -360q-82 -169 -297 -169t-298 169q-58 119 -58 360zM227 1968h179l163 -348h-104zM332 383q0 -223 133 -223t133 223v715q0 223 -133 223t-133 -223v-715z" />
<glyph unicode="&#xd3;" horiz-adv-x="930" d="M109 500v481q0 241 58 360q83 168 298 168q214 0 297 -168q59 -120 59 -360v-481q0 -241 -59 -360q-82 -169 -297 -169t-298 169q-58 119 -58 360zM332 383q0 -223 133 -223t133 223v715q0 223 -133 223t-133 -223v-715zM361 1620l163 348h179l-238 -348h-104z" />
<glyph unicode="&#xd4;" horiz-adv-x="930" d="M109 500v481q0 241 58 360q83 168 298 168q214 0 297 -168q59 -120 59 -360v-481q0 -241 -59 -360q-82 -169 -297 -169t-298 169q-58 119 -58 360zM225 1560l152 348h172l152 -348h-105l-133 209l-133 -209h-105zM332 383q0 -223 133 -223t133 223v715q0 223 -133 223 t-133 -223v-715z" />
<glyph unicode="&#xd5;" horiz-adv-x="930" d="M109 500v481q0 241 58 360q83 168 298 168q214 0 297 -168q59 -120 59 -360v-481q0 -241 -59 -360q-82 -169 -297 -169t-298 169q-58 119 -58 360zM225 1657q32 219 154 219q30 0 89.5 -23.5t84.5 -23.5q56 0 72 75h80q-37 -225 -160 -225q-30 0 -88 22.5t-82 22.5 q-51 0 -70 -67h-80zM332 383q0 -223 133 -223t133 223v715q0 223 -133 223t-133 -223v-715z" />
<glyph unicode="&#xd9;" horiz-adv-x="932" d="M125 463v1018h219v-1078q0 -227 123 -227t123 227v1078h217v-1018q0 -231 -55 -339q-78 -151 -285 -151q-208 0 -286 151q-56 108 -56 339zM229 1968h179l163 -348h-104z" />
<glyph unicode="&#xda;" horiz-adv-x="932" d="M125 463v1018h219v-1078q0 -227 123 -227t123 227v1078h217v-1018q0 -231 -55 -339q-78 -151 -285 -151q-208 0 -286 151q-56 108 -56 339zM363 1620l163 348h179l-238 -348h-104z" />
<glyph unicode="&#xdd;" horiz-adv-x="721" d="M-6 1481h229l139 -670l144 670h219l-258 -877v-604h-219v606zM256 1620l163 348h179l-238 -348h-104z" />
<glyph unicode="&#xe0;" horiz-adv-x="784" d="M57 246q0 178 132 309q98 97 292 184v60q0 145 -100 145q-111 0 -115 -145h-194q9 149 95 233t234 84q166 0 233 -108q52 -85 52 -263v-505q0 -152 21 -240h-201l-21 111q-87 -123 -211 -123q-107 0 -165 78q-52 70 -52 180zM155 1577h179l163 -348h-104zM260 299 q0 -125 92 -125q67 0 129 88v305q-221 -109 -221 -268z" />
<glyph unicode="&#xe1;" horiz-adv-x="784" d="M57 246q0 178 132 309q98 97 292 184v60q0 145 -100 145q-111 0 -115 -145h-194q9 149 95 233t234 84q166 0 233 -108q52 -85 52 -263v-505q0 -152 21 -240h-201l-21 111q-87 -123 -211 -123q-107 0 -165 78q-52 70 -52 180zM260 299q0 -125 92 -125q67 0 129 88v305 q-221 -109 -221 -268zM289 1229l163 348h179l-238 -348h-104z" />
<glyph unicode="&#xe2;" horiz-adv-x="784" d="M57 246q0 178 132 309q98 97 292 184v60q0 145 -100 145q-111 0 -115 -145h-194q9 149 95 233t234 84q166 0 233 -108q52 -85 52 -263v-505q0 -152 21 -240h-201l-21 111q-87 -123 -211 -123q-107 0 -165 78q-52 70 -52 180zM155 1229l152 348h172l152 -348h-105 l-133 209l-133 -209h-105zM260 299q0 -125 92 -125q67 0 129 88v305q-221 -109 -221 -268z" />
<glyph unicode="&#xe3;" horiz-adv-x="784" d="M57 246q0 178 132 309q98 97 292 184v60q0 145 -100 145q-111 0 -115 -145h-194q9 149 95 233t234 84q166 0 233 -108q52 -85 52 -263v-505q0 -152 21 -240h-201l-21 111q-87 -123 -211 -123q-107 0 -165 78q-52 70 -52 180zM153 1266q32 219 154 219q30 0 89.5 -23.5 t84.5 -23.5q56 0 72 75h80q-37 -225 -160 -225q-30 0 -88 22.5t-82 22.5q-51 0 -70 -67h-80zM260 299q0 -125 92 -125q67 0 129 88v305q-221 -109 -221 -268z" />
<glyph unicode="&#xe4;" horiz-adv-x="784" d="M57 246q0 178 132 309q98 97 292 184v60q0 145 -100 145q-111 0 -115 -145h-194q9 149 95 233t234 84q166 0 233 -108q52 -85 52 -263v-505q0 -152 21 -240h-201l-21 111q-87 -123 -211 -123q-107 0 -165 78q-52 70 -52 180zM176 1278v229h164v-229h-164zM260 299 q0 -125 92 -125q67 0 129 88v305q-221 -109 -221 -268zM446 1278v229h164v-229h-164z" />
<glyph unicode="&#xe5;" horiz-adv-x="784" d="M57 246q0 178 132 309q98 97 292 184v60q0 145 -100 145q-111 0 -115 -145h-194q9 149 95 235t234 86q166 0 233 -110q52 -86 52 -265v-505q0 -152 21 -240h-201l-21 111q-87 -123 -211 -123q-107 0 -165 78q-52 70 -52 180zM145 1444q0 108 75 183t183 75t183.5 -75 t75.5 -183q0 -110 -74.5 -184t-184.5 -74t-184 74t-74 184zM260 299q0 -125 92 -125q67 0 129 88v305q-221 -109 -221 -268zM276 1444q0 -54 36.5 -90.5t90.5 -36.5t90.5 36.5t36.5 90.5t-36.5 90.5t-90.5 36.5t-90.5 -36.5t-36.5 -90.5z" />
<glyph unicode="&#xe6;" horiz-adv-x="1176" d="M57 246q0 178 132 309q98 97 292 184v60q0 145 -100 145q-111 0 -115 -145h-194q7 140 88 227q85 92 223 92q152 0 211 -106q65 106 199 106q313 0 313 -440v-166h-418v-207q0 -151 105 -151q79 0 98 83q6 27 6 146h195v-64q0 -155 -76 -244q-81 -95 -234 -95 q-193 0 -264 159q-104 -151 -244 -151q-107 0 -165 78q-52 70 -52 180zM260 299q0 -125 92 -125q67 0 129 88v305q-221 -109 -221 -268zM688 684h209v109q0 149 -104 149q-105 0 -105 -149v-109z" />
<glyph unicode="&#xe7;" horiz-adv-x="782" d="M96 371v354q0 391 299 391q157 0 238 -99q74 -90 74 -251v-49h-197q0 117 -6 144q-19 81 -98 81q-105 0 -105 -149v-488q0 -151 105 -151q79 0 98 83q6 27 6 146h197v-64q0 -156 -77 -245q-82 -94 -235 -94q-299 0 -299 391zM174 -315q127 -43 205 -43q102 0 102 79 q0 55 -56 69q-19 5 -100 5v205h76v-94q213 0 213 -193q0 -188 -223 -188q-112 0 -217 41v119z" />
<glyph unicode="&#xe8;" horiz-adv-x="788" d="M96 371v354q0 391 312 391q311 0 311 -438v-166h-418v-207q0 -151 105 -151q79 0 98 83q6 27 6 146h197v-64q0 -156 -77 -245q-82 -94 -235 -94q-299 0 -299 391zM165 1577h179l163 -348h-104zM301 684h209v109q0 149 -104 149q-105 0 -105 -149v-109z" />
<glyph unicode="&#xe9;" horiz-adv-x="788" d="M96 371v354q0 391 312 391q311 0 311 -438v-166h-418v-207q0 -151 105 -151q79 0 98 83q6 27 6 146h197v-64q0 -156 -77 -245q-82 -94 -235 -94q-299 0 -299 391zM299 1229l163 348h179l-238 -348h-104zM301 684h209v109q0 149 -104 149q-105 0 -105 -149v-109z" />
<glyph unicode="&#xea;" horiz-adv-x="788" d="M96 371v354q0 391 312 391q311 0 311 -438v-166h-418v-207q0 -151 105 -151q79 0 98 83q6 27 6 146h197v-64q0 -156 -77 -245q-82 -94 -235 -94q-299 0 -299 391zM165 1229l152 348h172l152 -348h-105l-133 209l-133 -209h-105zM301 684h209v109q0 149 -104 149 q-105 0 -105 -149v-109z" />
<glyph unicode="&#xeb;" horiz-adv-x="788" d="M96 371v354q0 391 312 391q311 0 311 -438v-166h-418v-207q0 -151 105 -151q79 0 98 83q6 27 6 146h197v-64q0 -156 -77 -245q-82 -94 -235 -94q-299 0 -299 391zM186 1278v229h164v-229h-164zM301 684h209v109q0 149 -104 149q-105 0 -105 -149v-109zM456 1278v229h164 v-229h-164z" />
<glyph unicode="&#xec;" horiz-adv-x="432" d="M-21 1577h179l163 -348h-104zM115 0v1100h202v-1100h-202z" />
<glyph unicode="&#xed;" horiz-adv-x="432" d="M113 1229l163 348h179l-238 -348h-104zM115 0v1100h202v-1100h-202z" />
<glyph unicode="&#xee;" horiz-adv-x="432" d="M-21 1229l152 348h172l152 -348h-105l-133 209l-133 -209h-105zM115 0v1100h202v-1100h-202z" />
<glyph unicode="&#xef;" horiz-adv-x="432" d="M0 1278v229h164v-229h-164zM115 0v1100h202v-1100h-202zM270 1278v229h164v-229h-164z" />
<glyph unicode="&#xf0;" d="M96 352v336q0 373 297 373q26 0 74 -6q-23 78 -70 147l-155 -82l-52 103l140 80q-56 77 -105 124l101 84q73 -66 135 -141l166 86l59 -102l-151 -80q180 -225 180 -643v-279q0 -372 -309 -372q-310 0 -310 372zM301 289q0 -144 105 -144q104 0 104 144v463 q0 143 -104 143q-105 0 -105 -143v-463z" />
<glyph unicode="&#xf1;" d="M109 0v1100h192v-135q123 151 227 151q122 0 163 -117q24 -68 24 -221v-778h-205v786q0 140 -82 140q-59 0 -115 -78v-848h-204zM184 1266q32 219 154 219q30 0 89.5 -23.5t84.5 -23.5q56 0 72 75h80q-37 -225 -160 -225q-30 0 -88 22.5t-82 22.5q-51 0 -70 -67h-80z" />
<glyph unicode="&#xf2;" d="M96 371v354q0 391 310 391q309 0 309 -391v-354q0 -391 -309 -391q-310 0 -310 391zM168 1577h179l163 -348h-104zM301 305q0 -151 105 -151q104 0 104 151v488q0 149 -104 149q-105 0 -105 -149v-488z" />
<glyph unicode="&#xf3;" d="M96 371v354q0 391 310 391q309 0 309 -391v-354q0 -391 -309 -391q-310 0 -310 391zM301 305q0 -151 105 -151q104 0 104 151v488q0 149 -104 149q-105 0 -105 -149v-488zM302 1229l163 348h179l-238 -348h-104z" />
<glyph unicode="&#xf4;" d="M96 371v354q0 391 310 391q309 0 309 -391v-354q0 -391 -309 -391q-310 0 -310 391zM168 1229l152 348h172l152 -348h-105l-133 209l-133 -209h-105zM301 305q0 -151 105 -151q104 0 104 151v488q0 149 -104 149q-105 0 -105 -149v-488z" />
<glyph unicode="&#xf5;" d="M96 371v354q0 391 310 391q309 0 309 -391v-354q0 -391 -309 -391q-310 0 -310 391zM166 1266q32 219 154 219q30 0 89.5 -23.5t84.5 -23.5q56 0 72 75h80q-37 -225 -160 -225q-30 0 -88 22.5t-82 22.5q-51 0 -70 -67h-80zM301 305q0 -151 105 -151q104 0 104 151v488 q0 149 -104 149q-105 0 -105 -149v-488z" />
<glyph unicode="&#xf6;" d="M96 371v354q0 391 310 391q309 0 309 -391v-354q0 -391 -309 -391q-310 0 -310 391zM189 1278v229h164v-229h-164zM301 305q0 -151 105 -151q104 0 104 151v488q0 149 -104 149q-105 0 -105 -149v-488zM459 1278v229h164v-229h-164z" />
<glyph unicode="&#xf8;" d="M63 -31l80 148q-47 65 -47 254v354q0 393 310 393q107 0 182 -53l59 113l103 -43l-82 -152q47 -75 47 -258v-354q0 -391 -309 -391q-116 0 -187 53l-59 -109zM301 305q0 -151 105 -151q104 0 104 151v488q0 149 -104 149q-105 0 -105 -149v-488z" />
<glyph unicode="&#xf9;" d="M96 322v778h205v-787q0 -139 82 -139q58 0 115 78v848h202v-1100h-190v135q-117 -145 -227 -145q-123 0 -164 113q-23 65 -23 219zM168 1577h179l163 -348h-104z" />
<glyph unicode="&#xfa;" d="M96 322v778h205v-787q0 -139 82 -139q58 0 115 78v848h202v-1100h-190v135q-117 -145 -227 -145q-123 0 -164 113q-23 65 -23 219zM302 1229l163 348h179l-238 -348h-104z" />
<glyph unicode="&#xfb;" d="M96 322v778h205v-787q0 -139 82 -139q58 0 115 78v848h202v-1100h-190v135q-117 -145 -227 -145q-123 0 -164 113q-23 65 -23 219zM168 1229l152 348h172l152 -348h-105l-133 209l-133 -209h-105z" />
<glyph unicode="&#xfc;" d="M96 322v778h205v-787q0 -139 82 -139q58 0 115 78v848h202v-1100h-190v135q-117 -145 -227 -145q-123 0 -164 113q-23 65 -23 219zM189 1278v229h164v-229h-164zM459 1278v229h164v-229h-164z" />
<glyph unicode="&#xfd;" horiz-adv-x="664" d="M27 1100h198l129 -922l101 922h194l-211 -1123q-31 -166 -90 -240q-76 -95 -229 -95q-43 0 -66 4v184q28 -6 53 -6q134 0 134 180q0 66 -41 264zM228 1229l163 348h179l-238 -348h-104z" />
<glyph unicode="&#xfe;" horiz-adv-x="803" d="M109 -344v1825h204v-482q84 119 199 119q197 0 197 -348v-451q0 -335 -205 -335q-99 0 -191 116v-444h-204zM313 227q59 -51 103 -51q86 0 86 172v372q0 91 -7 126q-16 82 -73 82q-49 0 -109 -58v-643z" />
<glyph unicode="&#xff;" horiz-adv-x="664" d="M27 1100h198l129 -922l101 922h194l-211 -1123q-31 -166 -90 -240q-76 -95 -229 -95q-43 0 -66 4v184q28 -6 53 -6q134 0 134 180q0 66 -41 264zM115 1278v229h164v-229h-164zM385 1278v229h164v-229h-164z" />
<glyph unicode="&#x102;" horiz-adv-x="786" d="M39 0l217 1481h285l227 -1481h-223l-37 299h-219l-35 -299h-215zM156 1875h94q10 -141 144 -141q131 0 142 141h96q-16 -289 -238 -289t-238 289zM309 496h178l-81 860h-11z" />
<glyph unicode="&#x103;" horiz-adv-x="784" d="M57 246q0 178 132 309q98 97 292 184v60q0 145 -100 145q-111 0 -115 -145h-194q9 149 95 233t234 84q166 0 233 -108q52 -85 52 -263v-505q0 -152 21 -240h-201l-21 111q-87 -123 -211 -123q-107 0 -165 78q-52 70 -52 180zM156 1546h94q10 -141 144 -141q131 0 142 141 h96q-16 -289 -238 -289t-238 289zM260 299q0 -125 92 -125q67 0 129 88v305q-221 -109 -221 -268z" />
<glyph unicode="&#x110;" horiz-adv-x="944" d="M38 690v160h105v631h234q250 0 349 -82q110 -91 110 -334v-662q0 -203 -81 -299q-89 -104 -288 -104h-324v690h-105zM362 193h64q116 0 157 82q29 56 29 182v616q0 117 -34 164q-40 55 -152 55h-64v-442h141v-160h-141v-497z" />
<glyph unicode="&#x111;" horiz-adv-x="823" d="M94 332v448q0 336 205 336q96 0 190 -115v207h-182v135h182v138h205v-138h125v-135h-125v-1208h-205v98q-92 -116 -198 -116q-197 0 -197 350zM301 380q0 -93 7 -126q16 -82 73 -82q45 0 108 59v643q-56 52 -102 52q-86 0 -86 -173v-373z" />
<glyph unicode="&#x128;" horiz-adv-x="469" d="M125 0v1481h219v-1481h-219z" />
<glyph unicode="&#x129;" horiz-adv-x="432" d="M-17 1266q32 219 154 219q30 0 89.5 -23.5t84.5 -23.5q56 0 72 75h80q-37 -225 -160 -225q-30 0 -88 22.5t-82 22.5q-51 0 -70 -67h-80zM115 0v1100h202v-1100h-202z" />
<glyph unicode="&#x131;" horiz-adv-x="432" d="M115 0v1100h202v-1100h-202z" />
<glyph unicode="&#x153;" horiz-adv-x="1204" d="M96 371v354q0 393 310 393q139 0 206 -104q67 104 209 104q314 0 314 -440v-166h-418v-207q0 -151 104 -151q79 0 99 83q6 28 6 146h194v-64q0 -155 -76 -244q-80 -95 -233 -95q-130 0 -197 108q-71 -108 -208 -108q-310 0 -310 391zM301 305q0 -151 105 -151 q104 0 104 151v488q0 149 -104 149q-105 0 -105 -149v-488zM717 684h209v109q0 149 -105 149q-104 0 -104 -149v-109z" />
<glyph unicode="&#x168;" horiz-adv-x="932" d="M125 463v1018h219v-1078q0 -227 123 -227t123 227v1078h217v-1018q0 -231 -55 -339q-78 -151 -285 -151q-208 0 -286 151q-56 108 -56 339zM225 1657q32 219 154 219q30 0 89.5 -23.5t84.5 -23.5q56 0 72 75h80q-37 -225 -160 -225q-30 0 -88 22.5t-82 22.5 q-51 0 -70 -67h-80z" />
<glyph unicode="&#x169;" d="M96 322v778h205v-787q0 -139 82 -139q58 0 115 78v848h202v-1100h-190v135q-117 -145 -227 -145q-123 0 -164 113q-23 65 -23 219zM161 1266q32 219 154 219q30 0 89.5 -23.5t84.5 -23.5q56 0 72 75h80q-37 -225 -160 -225q-30 0 -88 22.5t-82 22.5q-51 0 -70 -67h-80z " />
<glyph unicode="&#x192;" horiz-adv-x="815" d="M27 -166q40 -10 65 -10q78 0 115 100q42 115 88 815h-182v170h196q28 592 359 592q32 0 98 -8v-184q-52 16 -82 16q-157 0 -166 -415l195 -1v-170h-209q-41 -684 -123 -892.5t-264 -208.5q-31 0 -90 8v188z" />
<glyph unicode="&#x1a0;" horiz-adv-x="961" d="M109 500v481q0 241 58 360q83 168 298 168q214 0 297 -168q59 -120 59 -360v-481q0 -241 -59 -360q-82 -169 -297 -169t-298 169q-58 119 -58 360zM332 383q0 -223 133 -223t133 223v715q0 223 -133 223t-133 -223v-715zM753 1057v163l88 199h-87v202h193v-202z" />
<glyph unicode="&#x1a1;" horiz-adv-x="837" d="M96 371v354q0 391 310 391q309 0 309 -391v-354q0 -391 -309 -391q-310 0 -310 391zM301 305q0 -151 105 -151q104 0 104 151v488q0 149 -104 149q-105 0 -105 -149v-488zM636 757v163l88 199h-87v202h193v-202z" />
<glyph unicode="&#x1af;" horiz-adv-x="973" d="M125 463v1018h219v-1078q0 -227 123 -227t123 227v1078h217v-1018q0 -231 -55 -339q-78 -151 -285 -151q-208 0 -286 151q-56 108 -56 339zM773 1057v163l88 199h-87v202h193v-202z" />
<glyph unicode="&#x1b0;" horiz-adv-x="858" d="M96 322v778h205v-787q0 -139 82 -139q58 0 115 78v848h202v-1100h-190v135q-117 -145 -227 -145q-123 0 -164 113q-23 65 -23 219zM656 757v163l88 199h-87v202h193v-202z" />
<glyph unicode="&#x1ea0;" horiz-adv-x="786" d="M39 0l217 1481h285l227 -1481h-223l-37 299h-219l-35 -299h-215zM288 -133h223v-236h-223v236zM309 496h178l-81 860h-11z" />
<glyph unicode="&#x1ea1;" horiz-adv-x="784" d="M57 246q0 178 132 309q98 97 292 184v60q0 145 -100 145q-111 0 -115 -145h-194q9 149 95 233t234 84q166 0 233 -108q52 -85 52 -263v-505q0 -152 21 -240h-201l-21 111q-87 -123 -211 -123q-107 0 -165 78q-52 70 -52 180zM260 299q0 -125 92 -125q67 0 129 88v305 q-221 -109 -221 -268zM281 -133h223v-236h-223v236z" />
<glyph unicode="&#x1ea2;" horiz-adv-x="786" d="M39 0l217 1481h285l227 -1481h-223l-37 299h-219l-35 -299h-215zM275 1865q9 53 46.5 89.5t90.5 36.5q63 0 103 -42t40 -105q0 -53 -50.5 -121t-50.5 -149h-106v12q0 78 40 148t40 109q0 36 -22 36q-33 0 -50 -51zM309 496h178l-81 860h-11z" />
<glyph unicode="&#x1ea3;" horiz-adv-x="784" d="M57 246q0 178 132 309q98 97 292 184v60q0 145 -100 145q-111 0 -115 -145h-194q9 149 95 233t234 84q166 0 233 -108q52 -85 52 -263v-505q0 -152 21 -240h-201l-21 111q-87 -123 -211 -123q-107 0 -165 78q-52 70 -52 180zM260 299q0 -125 92 -125q67 0 129 88v305 q-221 -109 -221 -268zM262 1505q9 53 46.5 89.5t90.5 36.5q63 0 103 -42t40 -105q0 -53 -50.5 -121t-50.5 -149h-106v12q0 78 40 148t40 109q0 36 -22 36q-33 0 -50 -51z" />
<glyph unicode="&#x1ea4;" horiz-adv-x="786" d="M39 0l217 1481h285l227 -1481h-223l-37 299h-219l-35 -299h-215zM155 1560l152 348h172l152 -348h-105l-133 209l-133 -209h-105zM203 1950l163 348h179l-238 -348h-104zM309 496h178l-81 860h-11z" />
<glyph unicode="&#x1ea5;" horiz-adv-x="784" d="M57 246q0 178 132 309q98 97 292 184v60q0 145 -100 145q-111 0 -115 -145h-194q9 149 95 233t234 84q166 0 233 -108q52 -85 52 -263v-505q0 -152 21 -240h-201l-21 111q-87 -123 -211 -123q-107 0 -165 78q-52 70 -52 180zM155 1229l152 348h172l152 -348h-105 l-133 209l-133 -209h-105zM203 1619l163 348h179l-238 -348h-104zM260 299q0 -125 92 -125q67 0 129 88v305q-221 -109 -221 -268z" />
<glyph unicode="&#x1ea6;" horiz-adv-x="786" d="M39 0l217 1481h285l227 -1481h-223l-37 299h-219l-35 -299h-215zM155 1560l152 348h172l152 -348h-105l-133 209l-133 -209h-105zM244 2298h179l163 -348h-104zM309 496h178l-81 860h-11z" />
<glyph unicode="&#x1ea7;" horiz-adv-x="784" d="M57 246q0 178 132 309q98 97 292 184v60q0 145 -100 145q-111 0 -115 -145h-194q9 149 95 233t234 84q166 0 233 -108q52 -85 52 -263v-505q0 -152 21 -240h-201l-21 111q-87 -123 -211 -123q-107 0 -165 78q-52 70 -52 180zM155 1229l152 348h172l152 -348h-105 l-133 209l-133 -209h-105zM244 1967h179l163 -348h-104zM260 299q0 -125 92 -125q67 0 129 88v305q-221 -109 -221 -268z" />
<glyph unicode="&#x1ea8;" horiz-adv-x="786" d="M39 0l217 1481h285l227 -1481h-223l-37 299h-219l-35 -299h-215zM155 1560l152 348h172l152 -348h-105l-133 209l-133 -209h-105zM309 496h178l-81 860h-11zM460 2168q9 53 46.5 89.5t90.5 36.5q63 0 103 -42t40 -105q0 -53 -50.5 -121t-50.5 -149h-106v12q0 78 40 148 t40 109q0 36 -22 36q-33 0 -50 -51z" />
<glyph unicode="&#x1ea9;" horiz-adv-x="784" d="M57 246q0 178 132 309q98 97 292 184v60q0 145 -100 145q-111 0 -115 -145h-194q9 149 95 233t234 84q166 0 233 -108q52 -85 52 -263v-505q0 -152 21 -240h-201l-21 111q-87 -123 -211 -123q-107 0 -165 78q-52 70 -52 180zM155 1229l152 348h172l152 -348h-105 l-133 209l-133 -209h-105zM260 299q0 -125 92 -125q67 0 129 88v305q-221 -109 -221 -268zM460 1837q9 53 46.5 89.5t90.5 36.5q63 0 103 -42t40 -105q0 -53 -50.5 -121t-50.5 -149h-106v12q0 78 40 148t40 109q0 36 -22 36q-33 0 -50 -51z" />
<glyph unicode="&#x1eaa;" horiz-adv-x="786" d="M39 0l217 1481h285l227 -1481h-223l-37 299h-219l-35 -299h-215zM155 1560l152 348h172l152 -348h-105l-133 209l-133 -209h-105zM212 1977q32 219 154 219q30 0 89.5 -23.5t84.5 -23.5q56 0 72 75h80q-37 -225 -160 -225q-30 0 -88 22.5t-82 22.5q-51 0 -70 -67h-80z M309 496h178l-81 860h-11z" />
<glyph unicode="&#x1eab;" horiz-adv-x="784" d="M57 246q0 178 132 309q98 97 292 184v60q0 145 -100 145q-111 0 -115 -145h-194q9 149 95 233t234 84q166 0 233 -108q52 -85 52 -263v-505q0 -152 21 -240h-201l-21 111q-87 -123 -211 -123q-107 0 -165 78q-52 70 -52 180zM155 1229l152 348h172l152 -348h-105 l-133 209l-133 -209h-105zM212 1646q32 219 154 219q30 0 89.5 -23.5t84.5 -23.5q56 0 72 75h80q-37 -225 -160 -225q-30 0 -88 22.5t-82 22.5q-51 0 -70 -67h-80zM260 299q0 -125 92 -125q67 0 129 88v305q-221 -109 -221 -268z" />
<glyph unicode="&#x1eac;" horiz-adv-x="786" d="M39 0l217 1481h285l227 -1481h-223l-37 299h-219l-35 -299h-215zM155 1560l152 348h172l152 -348h-105l-133 209l-133 -209h-105zM288 -133h223v-236h-223v236zM309 496h178l-81 860h-11z" />
<glyph unicode="&#x1ead;" horiz-adv-x="784" d="M57 246q0 178 132 309q98 97 292 184v60q0 145 -100 145q-111 0 -115 -145h-194q9 149 95 233t234 84q166 0 233 -108q52 -85 52 -263v-505q0 -152 21 -240h-201l-21 111q-87 -123 -211 -123q-107 0 -165 78q-52 70 -52 180zM155 1229l152 348h172l152 -348h-105 l-133 209l-133 -209h-105zM260 299q0 -125 92 -125q67 0 129 88v305q-221 -109 -221 -268zM281 -133h223v-236h-223v236z" />
<glyph unicode="&#x1eae;" horiz-adv-x="786" d="M39 0l217 1481h285l227 -1481h-223l-37 299h-219l-35 -299h-215zM156 1875h94q10 -141 144 -141q131 0 142 141h96q-16 -289 -238 -289t-238 289zM273 1948l163 348h179l-238 -348h-104zM309 496h178l-81 860h-11z" />
<glyph unicode="&#x1eaf;" horiz-adv-x="784" d="M57 246q0 178 132 309q98 97 292 184v60q0 145 -100 145q-111 0 -115 -145h-194q9 149 95 233t234 84q166 0 233 -108q52 -85 52 -263v-505q0 -152 21 -240h-201l-21 111q-87 -123 -211 -123q-107 0 -165 78q-52 70 -52 180zM156 1546h94q10 -141 144 -141q131 0 142 141 h96q-16 -289 -238 -289t-238 289zM260 299q0 -125 92 -125q67 0 129 88v305q-221 -109 -221 -268zM273 1619l163 348h179l-238 -348h-104z" />
<glyph unicode="&#x1eb0;" horiz-adv-x="786" d="M39 0l217 1481h285l227 -1481h-223l-37 299h-219l-35 -299h-215zM156 1875h94q10 -141 144 -141q131 0 142 141h96q-16 -289 -238 -289t-238 289zM174 2296h179l163 -348h-104zM309 496h178l-81 860h-11z" />
<glyph unicode="&#x1eb1;" horiz-adv-x="784" d="M57 246q0 178 132 309q98 97 292 184v60q0 145 -100 145q-111 0 -115 -145h-194q9 149 95 233t234 84q166 0 233 -108q52 -85 52 -263v-505q0 -152 21 -240h-201l-21 111q-87 -123 -211 -123q-107 0 -165 78q-52 70 -52 180zM156 1546h94q10 -141 144 -141q131 0 142 141 h96q-16 -289 -238 -289t-238 289zM174 1967h179l163 -348h-104zM260 299q0 -125 92 -125q67 0 129 88v305q-221 -109 -221 -268z" />
<glyph unicode="&#x1eb2;" horiz-adv-x="786" d="M39 0l217 1481h285l227 -1481h-223l-37 299h-219l-35 -299h-215zM156 1875h94q10 -141 144 -141q131 0 142 141h96q-16 -289 -238 -289t-238 289zM264 2166q9 53 46.5 89.5t90.5 36.5q63 0 103 -42t40 -105q0 -53 -50.5 -121t-50.5 -149h-106v12q0 78 40 148t40 109 q0 36 -22 36q-33 0 -50 -51zM309 496h178l-81 860h-11z" />
<glyph unicode="&#x1eb3;" horiz-adv-x="784" d="M57 246q0 178 132 309q98 97 292 184v60q0 145 -100 145q-111 0 -115 -145h-194q9 149 95 233t234 84q166 0 233 -108q52 -85 52 -263v-505q0 -152 21 -240h-201l-21 111q-87 -123 -211 -123q-107 0 -165 78q-52 70 -52 180zM156 1546h94q10 -141 144 -141q131 0 142 141 h96q-16 -289 -238 -289t-238 289zM260 299q0 -125 92 -125q67 0 129 88v305q-221 -109 -221 -268zM264 1837q9 53 46.5 89.5t90.5 36.5q63 0 103 -42t40 -105q0 -53 -50.5 -121t-50.5 -149h-106v12q0 78 40 148t40 109q0 36 -22 36q-33 0 -50 -51z" />
<glyph unicode="&#x1eb4;" horiz-adv-x="786" d="M39 0l217 1481h285l227 -1481h-223l-37 299h-219l-35 -299h-215zM156 1875h94q10 -141 144 -141q131 0 142 141h96q-16 -289 -238 -289t-238 289zM212 1975q32 219 154 219q30 0 89.5 -23.5t84.5 -23.5q56 0 72 75h80q-37 -225 -160 -225q-30 0 -88 22.5t-82 22.5 q-51 0 -70 -67h-80zM309 496h178l-81 860h-11z" />
<glyph unicode="&#x1eb5;" horiz-adv-x="784" d="M57 246q0 178 132 309q98 97 292 184v60q0 145 -100 145q-111 0 -115 -145h-194q9 149 95 233t234 84q166 0 233 -108q52 -85 52 -263v-505q0 -152 21 -240h-201l-21 111q-87 -123 -211 -123q-107 0 -165 78q-52 70 -52 180zM156 1546h94q10 -141 144 -141q131 0 142 141 h96q-16 -289 -238 -289t-238 289zM212 1646q32 219 154 219q30 0 89.5 -23.5t84.5 -23.5q56 0 72 75h80q-37 -225 -160 -225q-30 0 -88 22.5t-82 22.5q-51 0 -70 -67h-80zM260 299q0 -125 92 -125q67 0 129 88v305q-221 -109 -221 -268z" />
<glyph unicode="&#x1eb6;" horiz-adv-x="786" d="M39 0l217 1481h285l227 -1481h-223l-37 299h-219l-35 -299h-215zM156 1875h94q10 -141 144 -141q131 0 142 141h96q-16 -289 -238 -289t-238 289zM288 -133h223v-236h-223v236zM309 496h178l-81 860h-11z" />
<glyph unicode="&#x1eb7;" horiz-adv-x="784" d="M57 246q0 178 132 309q98 97 292 184v60q0 145 -100 145q-111 0 -115 -145h-194q9 149 95 233t234 84q166 0 233 -108q52 -85 52 -263v-505q0 -152 21 -240h-201l-21 111q-87 -123 -211 -123q-107 0 -165 78q-52 70 -52 180zM156 1546h94q10 -141 144 -141q131 0 142 141 h96q-16 -289 -238 -289t-238 289zM260 299q0 -125 92 -125q67 0 129 88v305q-221 -109 -221 -268zM281 -133h223v-236h-223v236z" />
<glyph unicode="&#x1eb8;" horiz-adv-x="758" d="M125 0v1481h586v-199h-367v-410h287v-202h-287v-471h401v-199h-620zM311 -133h223v-236h-223v236z" />
<glyph unicode="&#x1eb9;" horiz-adv-x="788" d="M96 371v354q0 391 312 391q311 0 311 -438v-166h-418v-207q0 -151 105 -151q79 0 98 83q6 27 6 146h197v-64q0 -156 -77 -245q-82 -94 -235 -94q-299 0 -299 391zM293 -133h223v-236h-223v236zM301 684h209v109q0 149 -104 149q-105 0 -105 -149v-109z" />
<glyph unicode="&#x1eba;" horiz-adv-x="758" d="M125 0v1481h586v-199h-367v-410h287v-202h-287v-471h401v-199h-620zM285 1865q9 53 46.5 89.5t90.5 36.5q63 0 103 -42t40 -105q0 -53 -50.5 -121t-50.5 -149h-106v12q0 78 40 148t40 109q0 36 -22 36q-33 0 -50 -51z" />
<glyph unicode="&#x1ebb;" horiz-adv-x="788" d="M96 371v354q0 391 312 391q311 0 311 -438v-166h-418v-207q0 -151 105 -151q79 0 98 83q6 27 6 146h197v-64q0 -156 -77 -245q-82 -94 -235 -94q-299 0 -299 391zM271 1505q9 53 46.5 89.5t90.5 36.5q63 0 103 -42t40 -105q0 -53 -50.5 -121t-50.5 -149h-106v12 q0 78 40 148t40 109q0 36 -22 36q-33 0 -50 -51zM301 684h209v109q0 149 -104 149q-105 0 -105 -149v-109z" />
<glyph unicode="&#x1ebc;" horiz-adv-x="758" d="M125 0v1481h586v-199h-367v-410h287v-202h-287v-471h401v-199h-620zM180 1657q32 219 154 219q30 0 89.5 -23.5t84.5 -23.5q56 0 72 75h80q-37 -225 -160 -225q-30 0 -88 22.5t-82 22.5q-51 0 -70 -67h-80z" />
<glyph unicode="&#x1ebd;" horiz-adv-x="788" d="M96 371v354q0 391 312 391q311 0 311 -438v-166h-418v-207q0 -151 105 -151q79 0 98 83q6 27 6 146h197v-64q0 -156 -77 -245q-82 -94 -235 -94q-299 0 -299 391zM166 1266q32 219 154 219q30 0 89.5 -23.5t84.5 -23.5q56 0 72 75h80q-37 -225 -160 -225q-30 0 -88 22.5 t-82 22.5q-51 0 -70 -67h-80zM301 684h209v109q0 149 -104 149q-105 0 -105 -149v-109z" />
<glyph unicode="&#x1ebe;" horiz-adv-x="758" d="M125 0v1481h586v-199h-367v-410h287v-202h-287v-471h401v-199h-620zM180 1560l152 348h172l152 -348h-105l-133 209l-133 -209h-105zM228 1950l163 348h179l-238 -348h-104z" />
<glyph unicode="&#x1ebf;" horiz-adv-x="788" d="M96 371v354q0 391 312 391q311 0 311 -438v-166h-418v-207q0 -151 105 -151q79 0 98 83q6 27 6 146h197v-64q0 -156 -77 -245q-82 -94 -235 -94q-299 0 -299 391zM165 1229l152 348h172l152 -348h-105l-133 209l-133 -209h-105zM213 1619l163 348h179l-238 -348h-104z M301 684h209v109q0 149 -104 149q-105 0 -105 -149v-109z" />
<glyph unicode="&#x1ec0;" horiz-adv-x="758" d="M125 0v1481h586v-199h-367v-410h287v-202h-287v-471h401v-199h-620zM180 1560l152 348h172l152 -348h-105l-133 209l-133 -209h-105zM269 2298h179l163 -348h-104z" />
<glyph unicode="&#x1ec1;" horiz-adv-x="788" d="M96 371v354q0 391 312 391q311 0 311 -438v-166h-418v-207q0 -151 105 -151q79 0 98 83q6 27 6 146h197v-64q0 -156 -77 -245q-82 -94 -235 -94q-299 0 -299 391zM165 1229l152 348h172l152 -348h-105l-133 209l-133 -209h-105zM254 1967h179l163 -348h-104zM301 684h209 v109q0 149 -104 149q-105 0 -105 -149v-109z" />
<glyph unicode="&#x1ec2;" horiz-adv-x="758" d="M125 0v1481h586v-199h-367v-410h287v-202h-287v-471h401v-199h-620zM180 1560l152 348h172l152 -348h-105l-133 209l-133 -209h-105zM485 2168q9 53 46.5 89.5t90.5 36.5q63 0 103 -42t40 -105q0 -53 -50.5 -121t-50.5 -149h-106v12q0 78 40 148t40 109q0 36 -22 36 q-33 0 -50 -51z" />
<glyph unicode="&#x1ec3;" horiz-adv-x="788" d="M96 371v354q0 391 312 391q311 0 311 -438v-166h-418v-207q0 -151 105 -151q79 0 98 83q6 27 6 146h197v-64q0 -156 -77 -245q-82 -94 -235 -94q-299 0 -299 391zM165 1229l152 348h172l152 -348h-105l-133 209l-133 -209h-105zM301 684h209v109q0 149 -104 149 q-105 0 -105 -149v-109zM470 1837q9 53 46.5 89.5t90.5 36.5q63 0 103 -42t40 -105q0 -53 -50.5 -121t-50.5 -149h-106v12q0 78 40 148t40 109q0 36 -22 36q-33 0 -50 -51z" />
<glyph unicode="&#x1ec4;" horiz-adv-x="758" d="M125 0v1481h586v-199h-367v-410h287v-202h-287v-471h401v-199h-620zM180 1560l152 348h172l152 -348h-105l-133 209l-133 -209h-105zM237 1977q32 219 154 219q30 0 89.5 -23.5t84.5 -23.5q56 0 72 75h80q-37 -225 -160 -225q-30 0 -88 22.5t-82 22.5q-51 0 -70 -67h-80z " />
<glyph unicode="&#x1ec5;" horiz-adv-x="788" d="M96 371v354q0 391 312 391q311 0 311 -438v-166h-418v-207q0 -151 105 -151q79 0 98 83q6 27 6 146h197v-64q0 -156 -77 -245q-82 -94 -235 -94q-299 0 -299 391zM165 1229l152 348h172l152 -348h-105l-133 209l-133 -209h-105zM222 1646q32 219 154 219q30 0 89.5 -23.5 t84.5 -23.5q56 0 72 75h80q-37 -225 -160 -225q-30 0 -88 22.5t-82 22.5q-51 0 -70 -67h-80zM301 684h209v109q0 149 -104 149q-105 0 -105 -149v-109z" />
<glyph unicode="&#x1ec6;" horiz-adv-x="758" d="M125 0v1481h586v-199h-367v-410h287v-202h-287v-471h401v-199h-620zM180 1560l152 348h172l152 -348h-105l-133 209l-133 -209h-105zM311 -133h223v-236h-223v236z" />
<glyph unicode="&#x1ec7;" horiz-adv-x="788" d="M96 371v354q0 391 312 391q311 0 311 -438v-166h-418v-207q0 -151 105 -151q79 0 98 83q6 27 6 146h197v-64q0 -156 -77 -245q-82 -94 -235 -94q-299 0 -299 391zM165 1229l152 348h172l152 -348h-105l-133 209l-133 -209h-105zM293 -133h223v-236h-223v236zM301 684h209 v109q0 149 -104 149q-105 0 -105 -149v-109z" />
<glyph unicode="&#x1ec8;" horiz-adv-x="469" d="M105 1865q9 53 46.5 89.5t90.5 36.5q63 0 103 -42t40 -105q0 -53 -50.5 -121t-50.5 -149h-106v12q0 78 40 148t40 109q0 36 -22 36q-33 0 -50 -51zM125 0v1481h219v-1481h-219z" />
<glyph unicode="&#x1ec9;" horiz-adv-x="432" d="M88 1505q9 53 46.5 89.5t90.5 36.5q63 0 103 -42t40 -105q0 -53 -50.5 -121t-50.5 -149h-106v12q0 78 40 148t40 109q0 36 -22 36q-33 0 -50 -51zM115 0v1100h202v-1100h-202z" />
<glyph unicode="&#x1eca;" horiz-adv-x="469" d="M125 0v1481h219v-1481h-219zM126 -133h223v-236h-223v236z" />
<glyph unicode="&#x1ecb;" horiz-adv-x="432" d="M107 -133h223v-236h-223v236zM115 0v1100h202v-1100h-202zM115 1274v207h202v-207h-202z" />
<glyph unicode="&#x1ecc;" horiz-adv-x="930" d="M109 500v481q0 241 58 360q83 168 298 168q214 0 297 -168q59 -120 59 -360v-481q0 -241 -59 -360q-82 -169 -297 -169t-298 169q-58 119 -58 360zM332 383q0 -223 133 -223t133 223v715q0 223 -133 223t-133 -223v-715zM352 -133h223v-236h-223v236z" />
<glyph unicode="&#x1ecd;" d="M96 371v354q0 391 310 391q309 0 309 -391v-354q0 -391 -309 -391q-310 0 -310 391zM293 -133h223v-236h-223v236zM301 305q0 -151 105 -151q104 0 104 151v488q0 149 -104 149q-105 0 -105 -149v-488z" />
<glyph unicode="&#x1ece;" horiz-adv-x="930" d="M109 500v481q0 241 58 360q83 168 298 168q214 0 297 -168q59 -120 59 -360v-481q0 -241 -59 -360q-82 -169 -297 -169t-298 169q-58 119 -58 360zM332 383q0 -223 133 -223t133 223v715q0 223 -133 223t-133 -223v-715zM335 1865q9 53 46.5 89.5t90.5 36.5q63 0 103 -42 t40 -105q0 -53 -50.5 -121t-50.5 -149h-106v12q0 78 40 148t40 109q0 36 -22 36q-33 0 -50 -51z" />
<glyph unicode="&#x1ecf;" d="M96 371v354q0 391 310 391q309 0 309 -391v-354q0 -391 -309 -391q-310 0 -310 391zM272 1505q9 53 46.5 89.5t90.5 36.5q63 0 103 -42t40 -105q0 -53 -50.5 -121t-50.5 -149h-106v12q0 78 40 148t40 109q0 36 -22 36q-33 0 -50 -51zM301 305q0 -151 105 -151 q104 0 104 151v488q0 149 -104 149q-105 0 -105 -149v-488z" />
<glyph unicode="&#x1ed0;" horiz-adv-x="930" d="M109 500v481q0 241 58 360q83 168 298 168q214 0 297 -168q59 -120 59 -360v-481q0 -241 -59 -360q-82 -169 -297 -169t-298 169q-58 119 -58 360zM225 1560l152 348h172l152 -348h-105l-133 209l-133 -209h-105zM273 1950l163 348h179l-238 -348h-104zM332 383 q0 -223 133 -223t133 223v715q0 223 -133 223t-133 -223v-715z" />
<glyph unicode="&#x1ed1;" d="M96 371v354q0 391 310 391q309 0 309 -391v-354q0 -391 -309 -391q-310 0 -310 391zM168 1229l152 348h172l152 -348h-105l-133 209l-133 -209h-105zM216 1619l163 348h179l-238 -348h-104zM301 305q0 -151 105 -151q104 0 104 151v488q0 149 -104 149q-105 0 -105 -149 v-488z" />
<glyph unicode="&#x1ed2;" horiz-adv-x="930" d="M109 500v481q0 241 58 360q83 168 298 168q214 0 297 -168q59 -120 59 -360v-481q0 -241 -59 -360q-82 -169 -297 -169t-298 169q-58 119 -58 360zM225 1560l152 348h172l152 -348h-105l-133 209l-133 -209h-105zM314 2298h179l163 -348h-104zM332 383q0 -223 133 -223 t133 223v715q0 223 -133 223t-133 -223v-715z" />
<glyph unicode="&#x1ed3;" d="M96 371v354q0 391 310 391q309 0 309 -391v-354q0 -391 -309 -391q-310 0 -310 391zM168 1229l152 348h172l152 -348h-105l-133 209l-133 -209h-105zM257 1967h179l163 -348h-104zM301 305q0 -151 105 -151q104 0 104 151v488q0 149 -104 149q-105 0 -105 -149v-488z" />
<glyph unicode="&#x1ed4;" horiz-adv-x="930" d="M109 500v481q0 241 58 360q83 168 298 168q214 0 297 -168q59 -120 59 -360v-481q0 -241 -59 -360q-82 -169 -297 -169t-298 169q-58 119 -58 360zM225 1560l152 348h172l152 -348h-105l-133 209l-133 -209h-105zM332 383q0 -223 133 -223t133 223v715q0 223 -133 223 t-133 -223v-715zM530 2168q9 53 46.5 89.5t90.5 36.5q63 0 103 -42t40 -105q0 -53 -50.5 -121t-50.5 -149h-106v12q0 78 40 148t40 109q0 36 -22 36q-33 0 -50 -51z" />
<glyph unicode="&#x1ed5;" d="M96 371v354q0 391 310 391q309 0 309 -391v-354q0 -391 -309 -391q-310 0 -310 391zM168 1229l152 348h172l152 -348h-105l-133 209l-133 -209h-105zM301 305q0 -151 105 -151q104 0 104 151v488q0 149 -104 149q-105 0 -105 -149v-488zM473 1837q9 53 46.5 89.5 t90.5 36.5q63 0 103 -42t40 -105q0 -53 -50.5 -121t-50.5 -149h-106v12q0 78 40 148t40 109q0 36 -22 36q-33 0 -50 -51z" />
<glyph unicode="&#x1ed6;" horiz-adv-x="930" d="M109 500v481q0 241 58 360q83 168 298 168q214 0 297 -168q59 -120 59 -360v-481q0 -241 -59 -360q-82 -169 -297 -169t-298 169q-58 119 -58 360zM225 1560l152 348h172l152 -348h-105l-133 209l-133 -209h-105zM282 1977q32 219 154 219q30 0 89.5 -23.5t84.5 -23.5 q56 0 72 75h80q-37 -225 -160 -225q-30 0 -88 22.5t-82 22.5q-51 0 -70 -67h-80zM332 383q0 -223 133 -223t133 223v715q0 223 -133 223t-133 -223v-715z" />
<glyph unicode="&#x1ed7;" d="M96 371v354q0 391 310 391q309 0 309 -391v-354q0 -391 -309 -391q-310 0 -310 391zM168 1229l152 348h172l152 -348h-105l-133 209l-133 -209h-105zM225 1646q32 219 154 219q30 0 89.5 -23.5t84.5 -23.5q56 0 72 75h80q-37 -225 -160 -225q-30 0 -88 22.5t-82 22.5 q-51 0 -70 -67h-80zM301 305q0 -151 105 -151q104 0 104 151v488q0 149 -104 149q-105 0 -105 -149v-488z" />
<glyph unicode="&#x1ed8;" horiz-adv-x="930" d="M109 500v481q0 241 58 360q83 168 298 168q214 0 297 -168q59 -120 59 -360v-481q0 -241 -59 -360q-82 -169 -297 -169t-298 169q-58 119 -58 360zM225 1560l152 348h172l152 -348h-105l-133 209l-133 -209h-105zM332 383q0 -223 133 -223t133 223v715q0 223 -133 223 t-133 -223v-715zM352 -133h223v-236h-223v236z" />
<glyph unicode="&#x1ed9;" d="M96 371v354q0 391 310 391q309 0 309 -391v-354q0 -391 -309 -391q-310 0 -310 391zM168 1229l152 348h172l152 -348h-105l-133 209l-133 -209h-105zM293 -133h223v-236h-223v236zM301 305q0 -151 105 -151q104 0 104 151v488q0 149 -104 149q-105 0 -105 -149v-488z" />
<glyph unicode="&#x1eda;" horiz-adv-x="961" d="M109 500v481q0 241 58 360q83 168 298 168q214 0 297 -168q59 -120 59 -360v-481q0 -241 -59 -360q-82 -169 -297 -169t-298 169q-58 119 -58 360zM332 383q0 -223 133 -223t133 223v715q0 223 -133 223t-133 -223v-715zM361 1620l163 348h179l-238 -348h-104zM753 1057 v163l88 199h-87v202h193v-202z" />
<glyph unicode="&#x1edb;" horiz-adv-x="837" d="M96 371v354q0 391 310 391q309 0 309 -391v-354q0 -391 -309 -391q-310 0 -310 391zM301 305q0 -151 105 -151q104 0 104 151v488q0 149 -104 149q-105 0 -105 -149v-488zM302 1229l163 348h179l-238 -348h-104zM636 757v163l88 199h-87v202h193v-202z" />
<glyph unicode="&#x1edc;" horiz-adv-x="961" d="M109 500v481q0 241 58 360q83 168 298 168q214 0 297 -168q59 -120 59 -360v-481q0 -241 -59 -360q-82 -169 -297 -169t-298 169q-58 119 -58 360zM227 1968h179l163 -348h-104zM332 383q0 -223 133 -223t133 223v715q0 223 -133 223t-133 -223v-715zM753 1057v163 l88 199h-87v202h193v-202z" />
<glyph unicode="&#x1edd;" horiz-adv-x="837" d="M96 371v354q0 391 310 391q309 0 309 -391v-354q0 -391 -309 -391q-310 0 -310 391zM168 1577h179l163 -348h-104zM301 305q0 -151 105 -151q104 0 104 151v488q0 149 -104 149q-105 0 -105 -149v-488zM636 757v163l88 199h-87v202h193v-202z" />
<glyph unicode="&#x1ede;" horiz-adv-x="961" d="M109 500v481q0 241 58 360q83 168 298 168q214 0 297 -168q59 -120 59 -360v-481q0 -241 -59 -360q-82 -169 -297 -169t-298 169q-58 119 -58 360zM332 383q0 -223 133 -223t133 223v715q0 223 -133 223t-133 -223v-715zM335 1865q9 53 46.5 89.5t90.5 36.5q63 0 103 -42 t40 -105q0 -53 -50.5 -121t-50.5 -149h-106v12q0 78 40 148t40 109q0 36 -22 36q-33 0 -50 -51zM753 1057v163l88 199h-87v202h193v-202z" />
<glyph unicode="&#x1edf;" horiz-adv-x="837" d="M96 371v354q0 391 310 391q309 0 309 -391v-354q0 -391 -309 -391q-310 0 -310 391zM272 1505q9 53 46.5 89.5t90.5 36.5q63 0 103 -42t40 -105q0 -53 -50.5 -121t-50.5 -149h-106v12q0 78 40 148t40 109q0 36 -22 36q-33 0 -50 -51zM301 305q0 -151 105 -151 q104 0 104 151v488q0 149 -104 149q-105 0 -105 -149v-488zM636 757v163l88 199h-87v202h193v-202z" />
<glyph unicode="&#x1ee0;" horiz-adv-x="961" d="M109 500v481q0 241 58 360q83 168 298 168q214 0 297 -168q59 -120 59 -360v-481q0 -241 -59 -360q-82 -169 -297 -169t-298 169q-58 119 -58 360zM225 1657q32 219 154 219q30 0 89.5 -23.5t84.5 -23.5q56 0 72 75h80q-37 -225 -160 -225q-30 0 -88 22.5t-82 22.5 q-51 0 -70 -67h-80zM332 383q0 -223 133 -223t133 223v715q0 223 -133 223t-133 -223v-715zM753 1057v163l88 199h-87v202h193v-202z" />
<glyph unicode="&#x1ee1;" horiz-adv-x="837" d="M96 371v354q0 391 310 391q309 0 309 -391v-354q0 -391 -309 -391q-310 0 -310 391zM166 1266q32 219 154 219q30 0 89.5 -23.5t84.5 -23.5q56 0 72 75h80q-37 -225 -160 -225q-30 0 -88 22.5t-82 22.5q-51 0 -70 -67h-80zM301 305q0 -151 105 -151q104 0 104 151v488 q0 149 -104 149q-105 0 -105 -149v-488zM636 757v163l88 199h-87v202h193v-202z" />
<glyph unicode="&#x1ee2;" horiz-adv-x="961" d="M109 500v481q0 241 58 360q83 168 298 168q214 0 297 -168q59 -120 59 -360v-481q0 -241 -59 -360q-82 -169 -297 -169t-298 169q-58 119 -58 360zM332 383q0 -223 133 -223t133 223v715q0 223 -133 223t-133 -223v-715zM352 -133h223v-236h-223v236zM753 1057v163 l88 199h-87v202h193v-202z" />
<glyph unicode="&#x1ee3;" horiz-adv-x="837" d="M96 371v354q0 391 310 391q309 0 309 -391v-354q0 -391 -309 -391q-310 0 -310 391zM293 -133h223v-236h-223v236zM301 305q0 -151 105 -151q104 0 104 151v488q0 149 -104 149q-105 0 -105 -149v-488zM636 757v163l88 199h-87v202h193v-202z" />
<glyph unicode="&#x1ee4;" horiz-adv-x="932" d="M125 463v1018h219v-1078q0 -227 123 -227t123 227v1078h217v-1018q0 -231 -55 -339q-78 -151 -285 -151q-208 0 -286 151q-56 108 -56 339zM357 -133h223v-236h-223v236z" />
<glyph unicode="&#x1ee5;" d="M96 322v778h205v-787q0 -139 82 -139q58 0 115 78v848h202v-1100h-190v135q-117 -145 -227 -145q-123 0 -164 113q-23 65 -23 219zM297 -133h223v-236h-223v236z" />
<glyph unicode="&#x1ee6;" horiz-adv-x="932" d="M125 463v1018h219v-1078q0 -227 123 -227t123 227v1078h217v-1018q0 -231 -55 -339q-78 -151 -285 -151q-208 0 -286 151q-56 108 -56 339zM335 1865q9 53 46.5 89.5t90.5 36.5q63 0 103 -42t40 -105q0 -53 -50.5 -121t-50.5 -149h-106v12q0 78 40 148t40 109 q0 36 -22 36q-33 0 -50 -51z" />
<glyph unicode="&#x1ee7;" d="M96 322v778h205v-787q0 -139 82 -139q58 0 115 78v848h202v-1100h-190v135q-117 -145 -227 -145q-123 0 -164 113q-23 65 -23 219zM272 1505q9 53 46.5 89.5t90.5 36.5q63 0 103 -42t40 -105q0 -53 -50.5 -121t-50.5 -149h-106v12q0 78 40 148t40 109q0 36 -22 36 q-33 0 -50 -51z" />
<glyph unicode="&#x1ee8;" horiz-adv-x="973" d="M125 463v1018h219v-1078q0 -227 123 -227t123 227v1078h217v-1018q0 -231 -55 -339q-78 -151 -285 -151q-208 0 -286 151q-56 108 -56 339zM363 1620l163 348h179l-238 -348h-104zM773 1057v163l88 199h-87v202h193v-202z" />
<glyph unicode="&#x1ee9;" horiz-adv-x="858" d="M96 322v778h205v-787q0 -139 82 -139q58 0 115 78v848h202v-1100h-190v135q-117 -145 -227 -145q-123 0 -164 113q-23 65 -23 219zM302 1229l163 348h179l-238 -348h-104zM656 757v163l88 199h-87v202h193v-202z" />
<glyph unicode="&#x1eea;" horiz-adv-x="973" d="M125 463v1018h219v-1078q0 -227 123 -227t123 227v1078h217v-1018q0 -231 -55 -339q-78 -151 -285 -151q-208 0 -286 151q-56 108 -56 339zM229 1968h179l163 -348h-104zM773 1057v163l88 199h-87v202h193v-202z" />
<glyph unicode="&#x1eeb;" horiz-adv-x="858" d="M96 322v778h205v-787q0 -139 82 -139q58 0 115 78v848h202v-1100h-190v135q-117 -145 -227 -145q-123 0 -164 113q-23 65 -23 219zM168 1577h179l163 -348h-104zM656 757v163l88 199h-87v202h193v-202z" />
<glyph unicode="&#x1eec;" horiz-adv-x="973" d="M125 463v1018h219v-1078q0 -227 123 -227t123 227v1078h217v-1018q0 -231 -55 -339q-78 -151 -285 -151q-208 0 -286 151q-56 108 -56 339zM335 1865q9 53 46.5 89.5t90.5 36.5q63 0 103 -42t40 -105q0 -53 -50.5 -121t-50.5 -149h-106v12q0 78 40 148t40 109 q0 36 -22 36q-33 0 -50 -51zM773 1057v163l88 199h-87v202h193v-202z" />
<glyph unicode="&#x1eed;" horiz-adv-x="858" d="M96 322v778h205v-787q0 -139 82 -139q58 0 115 78v848h202v-1100h-190v135q-117 -145 -227 -145q-123 0 -164 113q-23 65 -23 219zM272 1505q9 53 46.5 89.5t90.5 36.5q63 0 103 -42t40 -105q0 -53 -50.5 -121t-50.5 -149h-106v12q0 78 40 148t40 109q0 36 -22 36 q-33 0 -50 -51zM656 757v163l88 199h-87v202h193v-202z" />
<glyph unicode="&#x1eee;" horiz-adv-x="973" d="M125 463v1018h219v-1078q0 -227 123 -227t123 227v1078h217v-1018q0 -231 -55 -339q-78 -151 -285 -151q-208 0 -286 151q-56 108 -56 339zM225 1657q32 219 154 219q30 0 89.5 -23.5t84.5 -23.5q56 0 72 75h80q-37 -225 -160 -225q-30 0 -88 22.5t-82 22.5 q-51 0 -70 -67h-80zM773 1057v163l88 199h-87v202h193v-202z" />
<glyph unicode="&#x1eef;" horiz-adv-x="858" d="M96 322v778h205v-787q0 -139 82 -139q58 0 115 78v848h202v-1100h-190v135q-117 -145 -227 -145q-123 0 -164 113q-23 65 -23 219zM161 1266q32 219 154 219q30 0 89.5 -23.5t84.5 -23.5q56 0 72 75h80q-37 -225 -160 -225q-30 0 -88 22.5t-82 22.5q-51 0 -70 -67h-80z M656 757v163l88 199h-87v202h193v-202z" />
<glyph unicode="&#x1ef0;" horiz-adv-x="973" d="M125 463v1018h219v-1078q0 -227 123 -227t123 227v1078h217v-1018q0 -231 -55 -339q-78 -151 -285 -151q-208 0 -286 151q-56 108 -56 339zM357 -133h223v-236h-223v236zM773 1057v163l88 199h-87v202h193v-202z" />
<glyph unicode="&#x1ef1;" horiz-adv-x="858" d="M96 322v778h205v-787q0 -139 82 -139q58 0 115 78v848h202v-1100h-190v135q-117 -145 -227 -145q-123 0 -164 113q-23 65 -23 219zM297 -133h223v-236h-223v236zM656 757v163l88 199h-87v202h193v-202z" />
<glyph unicode="&#x1ef2;" horiz-adv-x="721" d="M-6 1481h229l139 -670l144 670h219l-258 -877v-604h-219v606zM139 1968h179l163 -348h-104z" />
<glyph unicode="&#x1ef3;" horiz-adv-x="664" d="M27 1100h198l129 -922l101 922h194l-211 -1123q-31 -166 -90 -240q-76 -95 -229 -95q-43 0 -66 4v184q28 -6 53 -6q134 0 134 180q0 66 -41 264zM98 1577h179l163 -348h-104z" />
<glyph unicode="&#x1ef4;" horiz-adv-x="721" d="M-6 1481h229l139 -670l144 670h219l-258 -877v-604h-219v606zM246 -133h223v-236h-223v236z" />
<glyph unicode="&#x1ef5;" horiz-adv-x="664" d="M27 1100h198l129 -922l101 922h194l-211 -1123q-31 -166 -90 -240q-76 -95 -229 -95q-43 0 -66 4v184q28 -6 53 -6q134 0 134 180q0 66 -41 264zM437 -133h223v-236h-223v236z" />
<glyph unicode="&#x1ef6;" horiz-adv-x="721" d="M-6 1481h229l139 -670l144 670h219l-258 -877v-604h-219v606zM240 1865q9 53 46.5 89.5t90.5 36.5q63 0 103 -42t40 -105q0 -53 -50.5 -121t-50.5 -149h-106v12q0 78 40 148t40 109q0 36 -22 36q-33 0 -50 -51z" />
<glyph unicode="&#x1ef7;" horiz-adv-x="664" d="M27 1100h198l129 -922l101 922h194l-211 -1123q-31 -166 -90 -240q-76 -95 -229 -95q-43 0 -66 4v184q28 -6 53 -6q134 0 134 180q0 66 -41 264zM215 1505q9 53 46.5 89.5t90.5 36.5q63 0 103 -42t40 -105q0 -53 -50.5 -121t-50.5 -149h-106v12q0 78 40 148t40 109 q0 36 -22 36q-33 0 -50 -51z" />
<glyph unicode="&#x1ef8;" horiz-adv-x="721" d="M-6 1481h229l139 -670l144 670h219l-258 -877v-604h-219v606zM128 1657q32 219 154 219q30 0 89.5 -23.5t84.5 -23.5q56 0 72 75h80q-37 -225 -160 -225q-30 0 -88 22.5t-82 22.5q-51 0 -70 -67h-80z" />
<glyph unicode="&#x1ef9;" horiz-adv-x="664" d="M27 1100h198l129 -922l101 922h194l-211 -1123q-31 -166 -90 -240q-76 -95 -229 -95q-43 0 -66 4v184q28 -6 53 -6q134 0 134 180q0 66 -41 264zM104 1266q32 219 154 219q30 0 89.5 -23.5t84.5 -23.5q56 0 72 75h80q-37 -225 -160 -225q-30 0 -88 22.5t-82 22.5 q-51 0 -70 -67h-80z" />
<glyph unicode="&#x2000;" horiz-adv-x="1149" />
<glyph unicode="&#x2001;" horiz-adv-x="2298" />
<glyph unicode="&#x2002;" horiz-adv-x="1149" />
<glyph unicode="&#x2003;" horiz-adv-x="2298" />
<glyph unicode="&#x2004;" horiz-adv-x="766" />
<glyph unicode="&#x2005;" horiz-adv-x="574" />
<glyph unicode="&#x2006;" horiz-adv-x="383" />
<glyph unicode="&#x2007;" horiz-adv-x="383" />
<glyph unicode="&#x2008;" horiz-adv-x="287" />
<glyph unicode="&#x2009;" horiz-adv-x="459" />
<glyph unicode="&#x200a;" horiz-adv-x="127" />
<glyph unicode="&#x2010;" horiz-adv-x="473" d="M29 485v177h417v-177h-417z" />
<glyph unicode="&#x2011;" horiz-adv-x="473" d="M29 485v177h417v-177h-417z" />
<glyph unicode="&#x2012;" horiz-adv-x="473" d="M29 485v177h417v-177h-417z" />
<glyph unicode="&#x2013;" horiz-adv-x="1024" d="M0 508v133h1024v-133h-1024z" />
<glyph unicode="&#x2014;" horiz-adv-x="2048" d="M0 508v133h2048v-133h-2048z" />
<glyph unicode="&#x2018;" horiz-adv-x="408" d="M92 1016v233l125 260h94l-96 -260h100v-233h-223z" />
<glyph unicode="&#x2019;" horiz-adv-x="408" d="M92 1247v234h223v-234l-125 -260h-94l97 260h-101z" />
<glyph unicode="&#x201c;" horiz-adv-x="735" d="M92 1016v233l125 260h94l-96 -260h100v-233h-223zM420 1016v233l125 260h94l-96 -260h100v-233h-223z" />
<glyph unicode="&#x201d;" horiz-adv-x="735" d="M92 1247v234h223v-234l-125 -260h-94l97 260h-101zM420 1247v234h223v-234l-125 -260h-94l96 260h-100z" />
<glyph unicode="&#x2026;" horiz-adv-x="2048" d="M229 0v236h223v-236h-223zM911 0v236h223v-236h-223zM1595 0v236h223v-236h-223z" />
<glyph unicode="&#x202f;" horiz-adv-x="459" />
<glyph unicode="&#x205f;" horiz-adv-x="574" />
<glyph unicode="&#x25fc;" horiz-adv-x="1100" d="M0 0v1100h1100v-1100h-1100z" />
</font>
</defs>
</svg>
