<?xml version="1.0" standalone="no"?>
<!DOCTYPE svg PUBLIC "-//W3C//DTD SVG 1.1//EN" "http://www.w3.org/Graphics/SVG/1.1/DTD/svg11.dtd" >
<svg xmlns="http://www.w3.org/2000/svg">
<metadata></metadata>
<defs>
<font id="vnf-oswaldregular" horiz-adv-x="1056" >
<font-face units-per-em="2048" ascent="1638" descent="-410" />
<missing-glyph horiz-adv-x="416" />
<glyph horiz-adv-x="1024" />
<glyph horiz-adv-x="1024" />
<glyph unicode="&#xd;" horiz-adv-x="682" />
<glyph unicode=" "  horiz-adv-x="416" />
<glyph unicode="&#x09;" horiz-adv-x="416" />
<glyph unicode="&#xa0;" horiz-adv-x="416" />
<glyph unicode="!" horiz-adv-x="375" d="M64 0v256h256v-256h-256zM64 1792h256l-46 -1408h-146z" />
<glyph unicode="&#x22;" horiz-adv-x="704" d="M62 1792h256l-64 -464h-128zM385 1792h256l-64 -464h-128z" />
<glyph unicode="#" horiz-adv-x="1088" d="M64 0l90 640h-90v192h117l28 192h-145v192h172l82 576h256l-82 -576h192l82 576h256l-82 -576h84v-192h-111l-28 -192h139v-192h-166l-90 -640h-256l90 640h-192l-90 -640h-256zM437 832h193l27 192h-192z" />
<glyph unicode="$" horiz-adv-x="1216" d="M127 1378q0 198 123 315t326 117v110h128v-121l41 -9q316 -86 343 -446l-256 -64q-9 188 -108 269l-20 15v-566l128 -102q113 -88 184.5 -212.5t71.5 -282.5q0 -181 -104 -289t-280 -127v-113h-128v113q-208 15 -321.5 157.5t-126.5 369.5l256 64q10 -293 171 -368l21 -8 v555l-256 205q-88 71 -140.5 176.5t-52.5 241.5zM384 1405q0 -152 128 -253l64 -51v499q-92 0 -142 -52t-50 -143zM704 198q128 29 128 186q0 78 -28 135t-80 109l-20 20v-450z" />
<glyph unicode="%" horiz-adv-x="1999" d="M78 1032q0 106 20 192t62.5 152.5t114.5 103t169 36.5q78 0 140 -24.5t104 -67.5t70 -104t40.5 -132.5t12.5 -155.5q0 -104 -21.5 -191.5t-64.5 -155.5t-114.5 -106t-166.5 -38t-166.5 38.5t-114.5 106.5t-64 155t-21 191zM311 1032q0 -52 5 -97.5t18 -94t41 -77 t69 -28.5q134 0 134 297q0 289 -134 289q-133 0 -133 -289zM751 0l283 1518h219l-282 -1518h-220zM1188 492q0 106 20.5 191.5t63 152t114 103t168.5 36.5t169 -36.5t114.5 -103t63 -152t20.5 -191.5q0 -105 -21 -192t-64 -155.5t-115 -106.5t-167 -38t-166.5 38.5 t-114.5 107t-64 155.5t-21 191zM1421 492q0 -52 5 -97t18 -94t41 -77.5t69 -28.5q134 0 134 297q0 288 -134 288q-133 0 -133 -288z" />
<glyph unicode="&#x26;" horiz-adv-x="1344" d="M128 384q0 286 256 512q-14 29 -58 109.5t-67 129t-45 126t-22 147.5q0 180 104 291t280 111q165 0 274.5 -91.5t109.5 -246.5q0 -70 -22 -142t-52.5 -128t-78.5 -118.5t-83.5 -101t-83.5 -86.5l256 -384q18 40 31 100t17.5 93.5t15.5 126.5h256q0 -122 -47 -253 t-112 -229q75 -94 159 -94v-274q-25 0 -47.5 2.5t-45.5 11t-39 14t-38.5 21t-32.5 21t-33 26.5t-28 25t-30 28.5t-26 25.5q-63 -80 -160.5 -127.5t-223.5 -47.5q-178 0 -281 110t-103 292zM384 384q0 -84 30 -138t98 -54q122 0 224 128l-123 183q-13 21 -44.5 61.5t-54.5 75 t-33 64.5q-44 -58 -70.5 -143t-26.5 -177zM448 1408q0 -65 17 -141t34 -124.5t46 -118.5q64 80 111.5 205.5t47.5 242.5q0 58 -35 93t-93 35q-65 0 -96.5 -56.5t-31.5 -135.5z" />
<glyph unicode="'" horiz-adv-x="384" d="M62 1792h256l-64 -464h-128z" />
<glyph unicode="(" horiz-adv-x="640" d="M128 896q0 122 1.5 196.5t10.5 188t26 184t49.5 153t79.5 129t118.5 78t162.5 31.5v-192q-50 0 -86.5 -31.5t-57 -79.5t-32.5 -121t-15.5 -139t-3.5 -150q0 -48 1.5 -131.5t1.5 -115.5t-1.5 -117t-1.5 -134q0 -84 3.5 -149.5t15.5 -137.5t32.5 -120t57 -79t86.5 -31v-192 q-80 0 -145 21.5t-110.5 67t-79 95.5t-54 129.5t-33.5 144t-18 165t-6.5 166t-1.5 171.5z" />
<glyph unicode=")" horiz-adv-x="640" d="M64 -64v192q50 0 86.5 31.5t57 79.5t32.5 121t15.5 139t3.5 150q0 48 -1.5 131.5t-1.5 115.5t1.5 117t1.5 134q0 84 -3.5 149.5t-15.5 137.5t-32.5 120t-57 79t-86.5 31v192q80 0 145 -21.5t110.5 -67t79 -95.5t54 -129.5t33.5 -144t18 -165t6.5 -166t1.5 -171.5 q0 -122 -1.5 -196.5t-10.5 -188t-26 -184t-49.5 -153t-79.5 -129t-118.5 -78t-162.5 -31.5z" />
<glyph unicode="*" horiz-adv-x="896" d="M106 1335l61 161l245 -132l-28 300h192l-29 -300l246 132l61 -161l-257 -99l172 -242l-152 -90l-137 277l-137 -277l-152 90l172 243z" />
<glyph unicode="+" horiz-adv-x="704" d="M64 576v192h192v192h192v-192h192v-192h-192v-192h-192v192h-192z" />
<glyph unicode="," horiz-adv-x="408" d="M76 0v256h256q0 -144 -3 -242q-2 -54 -6 -91t-16 -73.5t-32 -58t-53.5 -34.5t-81.5 -13l-64 128q69 0 98.5 30t29.5 98h-128z" />
<glyph unicode="-" horiz-adv-x="384" d="M0 448v192h384v-192h-384z" />
<glyph unicode="." horiz-adv-x="384" d="M64 0v256h256v-256h-256z" />
<glyph unicode="/" horiz-adv-x="832" d="M0 0l575 1792h257l-576 -1792h-256z" />
<glyph unicode="0" horiz-adv-x="1088" d="M96 512v768q0 247 112 388.5t336 141.5q223 0 335.5 -142t112.5 -388v-768q0 -241 -114.5 -385.5t-333.5 -144.5q-146 0 -248.5 69t-151 186.5t-48.5 274.5zM352 512q0 -63 8.5 -116t29 -101t59.5 -75.5t95 -27.5q192 0 192 320v768q0 54 -4 96.5t-16.5 86t-33 72.5 t-55.5 47t-83 18t-83 -18t-55.5 -47t-33 -72.5t-16.5 -86t-4 -96.5v-768z" />
<glyph unicode="1" horiz-adv-x="640" d="M64 1408v192q193 69 256 192h192v-1792h-256v1408h-192z" />
<glyph unicode="2" horiz-adv-x="1020" d="M71 0v256l449 640q8 11 35 48.5t36 51t31 48t30.5 53t23 52.5t20.5 60.5t11 62t5 72.5q0 107 -49.5 181.5t-142.5 74.5q-55 0 -94 -27t-59.5 -75t-29.5 -101.5t-9 -116.5v-64h-256v64q0 252 108 391t340 139q218 0 333 -122.5t115 -343.5q0 -83 -14.5 -155t-46 -138 t-58 -109t-73.5 -110l-448 -576h640v-256h-897z" />
<glyph unicode="3" horiz-adv-x="1027" d="M78 448v64h256q0 -60 3.5 -102.5t15 -86.5t31.5 -70.5t56 -43.5t86 -17t86 17t56 43.5t31.5 70.5t15 86.5t3.5 102.5q0 154 -59.5 237t-196.5 83v256q140 0 198 57.5t58 198.5q0 127 -42 191.5t-150 64.5q-50 0 -86 -17t-56 -43.5t-31.5 -70.5t-15 -86.5t-3.5 -102.5 h-256v64q0 220 115.5 343t332.5 123q218 0 333 -122.5t115 -343.5q0 -152 -68 -249.5t-188 -134.5q125 -42 190.5 -157t65.5 -291q0 -252 -108 -391t-340 -139q-218 0 -333 122.5t-115 343.5z" />
<glyph unicode="4" horiz-adv-x="1087" d="M83 460v285l448 1048h320v-1091h198v-242h-198v-460h-256v460h-512zM339 702h256v770z" />
<glyph unicode="5" horiz-adv-x="1050" d="M92 512h256v-40q0 -51 3.5 -88.5t14 -77t29 -64t50.5 -40.5t76 -16q35 0 63.5 8.5t49 21t36.5 36.5t26.5 44.5t17.5 56.5t10.5 60.5t5.5 69t2 69v73.5v33q0 43 -1 73.5t-5.5 66t-12.5 59.5t-22 48t-34 38t-49.5 22.5t-66.5 8.5q-68 0 -118 -44t-73 -104h-218v966h792 v-256h-560l-16 -434q108 64 256 64q87 0 153.5 -26.5t109.5 -72.5t70.5 -114t39 -144t11.5 -169q0 -115 -12 -208t-43 -179t-81 -144t-130.5 -92.5t-186.5 -34.5q-239 0 -341 134.5t-102 395.5z" />
<glyph unicode="6" horiz-adv-x="1083" d="M112 576v576q0 110 13 203.5t45 179t82 145.5t128.5 95t179.5 35q216 0 332 -122.5t116 -343.5h-256q0 128 -41.5 192t-150.5 64q-192 0 -192 -384v-256q74 128 256 128q108 0 184.5 -37.5t119 -109t61.5 -160.5t19 -205q0 -126 -25 -230.5t-77 -187.5t-140 -129.5 t-206 -46.5q-92 0 -167 31t-126.5 85t-87 129.5t-51.5 163t-16 185.5zM368 512q0 -64 9 -117t29.5 -101t59.5 -75t94 -27t94 27t59.5 75t29.5 101.5t9 116.5v57.5t-1.5 55.5t-4 55.5t-7 49.5t-11.5 46.5t-17.5 39t-24.5 34.5t-32 24t-42 17t-52 5q-124 0 -192 -128v-256z " />
<glyph unicode="7" horiz-adv-x="826" d="M45 1579v213h717v-123l-326 -1669h-246l328 1579h-473z" />
<glyph unicode="8" horiz-adv-x="1024" d="M64 511q0 167 46 268.5t148 166.5q-86 65 -127 160t-41 238q0 222 106 344t317 122q210 0 315.5 -122.5t105.5 -343.5q0 -144 -40.5 -238.5t-126.5 -159.5q101 -66 147 -168t46 -267q0 -256 -106 -392.5t-341 -136.5q-236 0 -342.5 136.5t-106.5 392.5zM320 511 q0 -58 3.5 -99.5t15 -86t32 -71.5t56.5 -44.5t86 -17.5t86 18t56 45t31.5 71.5t14.5 85.5t3 99q0 64 -8 114.5t-28 96.5t-59 71t-96 25t-96.5 -25t-60 -70.5t-28.5 -96t-8 -115.5zM351 1344q0 -60 6 -104.5t22 -87.5t49.5 -66t84.5 -23q50 0 83.5 23t49.5 66.5t21.5 87.5 t5.5 104q0 256 -160 256q-162 0 -162 -256z" />
<glyph unicode="9" horiz-adv-x="1083" d="M92 448h256q0 -128 41.5 -192t150.5 -64q192 0 192 384v256q-76 -128 -256 -128q-108 0 -184.5 37.5t-119 109t-61.5 160.5t-19 205q0 126 25 230.5t77 187.5t140 129.5t206 46.5q92 0 167 -31t126.5 -85t87 -129.5t51.5 -163t16 -185.5v-576q0 -110 -13 -203.5t-45 -179 t-82 -145.5t-128.5 -95t-179.5 -35q-216 0 -332 122.5t-116 343.5zM348 1222.5q0 -19.5 1.5 -55.5t4 -55.5t7 -49.5t11.5 -46.5t17.5 -39t24.5 -34.5t32 -24t42 -17t52 -5q122 0 192 128v256q0 64 -9 117t-29.5 101t-59.5 75t-94 27t-94 -27t-59.5 -75t-29.5 -101.5 t-9 -116.5v-57.5z" />
<glyph unicode=":" horiz-adv-x="439" d="M128 256v256h256v-256h-256zM128 832v256h256v-256h-256z" />
<glyph unicode=";" horiz-adv-x="384" d="M64 128q69 0 98.5 30t29.5 98h-128v256h256q0 -144 -3 -242q-2 -54 -6 -91t-16 -73.5t-32 -58t-53.5 -34.5t-81.5 -13zM64 832v256h256v-256h-256z" />
<glyph unicode="&#x3c;" horiz-adv-x="832" d="M64 512v256l640 448v-256l-448 -319l448 -321v-256z" />
<glyph unicode="=" horiz-adv-x="704" d="M64 255v192h576v-192h-576zM64 576v192h576v-192h-576z" />
<glyph unicode="&#x3e;" horiz-adv-x="832" d="M128 64v256l448 321l-448 319v256l640 -448v-256z" />
<glyph unicode="?" horiz-adv-x="1152" d="M128 1152v64q0 219 115.5 333.5t332.5 114.5q219 0 334 -115.5t115 -332.5q0 -212 -101.5 -350.5t-283.5 -225.5v-256h-256v320q63 38 109.5 70t102 81.5t90 99.5t58.5 118t24 143q0 192 -192 192q-108 0 -150 -64.5t-42 -191.5h-256zM384 0v256h256v-256h-256z" />
<glyph unicode="@" horiz-adv-x="1782" d="M128 768q0 372 203 588t565 216q371 0 564.5 -211.5t193.5 -592.5q0 -101 -22 -186.5t-66 -150.5t-115.5 -102t-164.5 -37q-96 0 -167.5 34t-107.5 94q-57 -128 -171 -128q-106 0 -181.5 56t-111 145t-35.5 200q0 77 9 146.5t31.5 136t56.5 114.5t87 77.5t120 29.5 q66 0 102.5 -36.5t39.5 -99.5v127h256v-568q0 -38 3 -60t19 -40t46 -18q116 0 116 266q0 148 -26 257.5t-84 191t-156 122.5t-236 41q-129 0 -228 -45t-160.5 -127t-92.5 -193t-31 -247q0 -172 29 -297.5t94 -219t177.5 -140.5t273.5 -47q125 0 296 55l94 -196 q-223 -51 -390 -51q-434 0 -632 221.5t-198 674.5zM768 693q0 -191 116 -191q69 0 74 40v403q-7 51 -54 51q-20 0 -37 -4t-30 -14.5t-23 -20t-17.5 -28.5t-12.5 -31.5t-8 -38t-4.5 -39t-2.5 -43t-1 -41.5v-43z" />
<glyph unicode="A" d="M16 0l384 1792h256l384 -1792h-256l-96 448h-320l-96 -448h-256zM400 640h256l-128 768z" />
<glyph unicode="B" horiz-adv-x="1146" d="M128 0v1792h384q124 0 222 -26t171.5 -79t113 -140t39.5 -203q0 -168 -71 -255.5t-219 -128.5q160 -53 240 -155.5t80 -292.5q0 -237 -137.5 -374.5t-374.5 -137.5h-448zM384 192h128q166 0 243 76.5t77 243.5t-77 243.5t-243 76.5h-128v-640zM384 1024h128 q320 0 320 320q0 53 -13 93.5t-31 67.5t-54.5 45.5t-66.5 28.5t-85.5 14.5t-92.5 5.5t-105 1v-576z" />
<glyph unicode="C" horiz-adv-x="1107" d="M96 641v511q0 121 14 217t48.5 180.5t89.5 140.5t141 88t199 32q125 0 216 -37t145.5 -109t82 -167t32.5 -222q1 -19 1 -59h-256v57q-1 53 -4 90.5t-11 77.5t-23.5 66.5t-39 49t-59.5 33t-84 10.5q-62 0 -106.5 -20t-69.5 -51.5t-38.5 -84.5t-17.5 -103.5t-4 -124.5v-640 q0 -64 5.5 -116t21.5 -103.5t41.5 -86.5t68 -56.5t99.5 -21.5t98 22t64.5 56t37 87t17.5 103t4 116v64h256v-64q0 -139 -24.5 -244t-79 -185.5t-148 -122.5t-225.5 -42q-113 0 -199 32t-141 88.5t-89.5 141t-48.5 180.5t-14 217z" />
<glyph unicode="D" horiz-adv-x="1133" d="M128 0v1792h397q281 0 396.5 -115t115.5 -397v-704q0 -295 -117.5 -435.5t-396.5 -140.5h-395zM384 192h141q63 0 108 11.5t73 42t44 58t22.5 85.5t7.5 95.5t1 116.5v39v576q0 49 -0.5 78t-3 68.5t-7.5 62.5t-14 51.5t-22.5 44.5t-33 33.5t-45 26t-59.5 14t-76 5.5h-136 v-1408z" />
<glyph unicode="E" horiz-adv-x="861" d="M128 0v1792h704v-192h-448v-576h320v-192h-320v-640h448v-192h-704z" />
<glyph unicode="F" horiz-adv-x="821" d="M128 0v1792h704v-192h-448v-576h320v-192h-320v-832h-256z" />
<glyph unicode="G" horiz-adv-x="1199" d="M96 698v454q0 658 522 658q125 0 217 -37.5t149 -109.5t86 -168.5t34 -223.5q1 -18 1 -55h-256v54q-1 63 -6.5 108.5t-20 89.5t-39.5 71.5t-66.5 44t-98.5 16.5q-78 0 -131.5 -28.5t-82 -83t-40.5 -120t-12 -152.5v-576q0 -64 4 -115.5t13.5 -105t28 -92.5t46 -70.5 t69 -48t95.5 -16.5q64 0 111 25t74.5 64.5t43.5 100.5t21.5 121t5.5 137v64h-256v190h512v-894h-192l-64 192q-75 -210 -256 -210q-123 0 -213.5 35t-147.5 95t-91 153t-47 196t-13 237z" />
<glyph unicode="H" horiz-adv-x="1216" d="M128 0v1792h256v-768h448v768h256v-1792h-256v832h-448v-832h-256z" />
<glyph unicode="I" horiz-adv-x="542" d="M140 0v1792h256v-1792h-256z" />
<glyph unicode="J" horiz-adv-x="640" d="M0 0v192q83 0 129.5 9t76.5 38.5t40 77t10 131.5v1344h256v-1344q0 -122 -16 -201.5t-58.5 -137.5t-118 -83.5t-191.5 -25.5h-128z" />
<glyph unicode="K" horiz-adv-x="1118" d="M128 0v1792h256v-768l384 768h320l-385 -704l449 -1088h-320l-320 832l-128 -256v-576h-256z" />
<glyph unicode="L" horiz-adv-x="823" d="M128 0v1792h256v-1600h448v-192h-704z" />
<glyph unicode="M" horiz-adv-x="1472" d="M128 0v1792h354l254 -1372l254 1372h354v-1792h-256v1414l-256 -1414h-192l-256 1414v-1414h-256z" />
<glyph unicode="N" horiz-adv-x="1152" d="M128 0v1792h192l448 -1108v1108h256v-1792h-182l-458 1192v-1192h-256z" />
<glyph unicode="O" horiz-adv-x="1180" d="M96 576v650q0 141 26 246t83 182.5t153.5 116.5t231.5 39q262 0 378 -150t116 -434v-650q0 -139 -26.5 -245.5t-83.5 -186t-153.5 -121t-230.5 -41.5q-135 0 -231.5 41t-153.5 120t-83 185.5t-26 247.5zM352 512q0 -158 51.5 -239t186.5 -81t186.5 81t51.5 239v778 q0 156 -51 233t-187 77t-187 -77t-51 -233v-778z" />
<glyph unicode="P" horiz-adv-x="1041" d="M128 0v1792h448q448 0 448 -512q0 -219 -115.5 -333.5t-332.5 -114.5h-192v-832h-256zM384 1024h64q87 0 142.5 10t98 37.5t61 78.5t18.5 130q0 96 -14 155.5t-51.5 97.5t-97 52.5t-157.5 14.5h-64v-576z" />
<glyph unicode="Q" horiz-adv-x="1180" d="M96 576v650q0 141 26 246t83 182.5t153.5 116.5t231.5 39q262 0 378 -150t116 -434v-650q0 -396 -215 -527q29 -42 87.5 -68.5t106.5 -26.5v-210q-109 0 -216.5 76t-156.5 169q-43 -7 -100 -7q-135 0 -231.5 41t-153.5 120t-83 185.5t-26 247.5zM352 512 q0 -158 51.5 -239t186.5 -81t186.5 81t51.5 239v778q0 156 -51 233t-187 77t-187 -77t-51 -233v-778z" />
<glyph unicode="R" horiz-adv-x="1108" d="M128 0v1792h320q286 0 431 -111t145 -369q0 -160 -57 -268t-167 -148l288 -896h-254l-258 832h-192v-832h-256zM384 1024h64q160 0 240 67.5t80 220.5t-80 220.5t-240 67.5h-64v-576z" />
<glyph unicode="S" horiz-adv-x="1102" d="M82 1378q0 198 123 315t326 117q218 0 346.5 -106.5t158.5 -301.5q3 -21 7 -58l-256 -64q-1 17 -5 51q-17 122 -76.5 195.5t-174.5 73.5q-92 0 -142 -51.5t-50 -143.5q0 -151 128 -253l320 -256q256 -207 256 -495q0 -197 -121.5 -308t-326.5 -111q-242 0 -369.5 142 t-142.5 388l256 64q19 -384 256 -384q192 0 192 192q0 57 -15.5 105.5t-47.5 89t-58 65t-71 60.5l-320 256q-88 69 -140.5 175.5t-52.5 242.5z" />
<glyph unicode="T" horiz-adv-x="894" d="M-1 1564v228h896v-228h-320v-1564h-256v1564h-320z" />
<glyph unicode="U" horiz-adv-x="1252" d="M114 640v1152h256v-1152q0 -83 3.5 -139t18.5 -119.5t41.5 -101.5t75 -63t117.5 -25t117.5 25t75 63t41.5 101.5t18.5 119.5t3.5 139v1152h256v-1152q0 -123 -15 -220.5t-51 -181.5t-93.5 -139.5t-146.5 -86.5t-206 -31t-206 31t-146.5 86.5t-93.5 139.5t-51 181.5 t-15 220.5z" />
<glyph unicode="V" horiz-adv-x="1048" d="M12 1792h256l189 -960l66 -448l68 448l189 960h256l-384 -1792h-256z" />
<glyph unicode="W" horiz-adv-x="1558" d="M11 1792h256l128 -832l65 -512l63 512l128 832h256l128 -832l63 -512l65 512l128 832h256l-320 -1792h-256l-128 832l-64 512l-64 -512l-128 -832h-256z" />
<glyph unicode="X" horiz-adv-x="1070" d="M23 1792h256l256 -704l256 704h256l-320 -859l316 -933h-254l-254 768l-254 -768h-256l318 929z" />
<glyph unicode="Y" horiz-adv-x="1018" d="M-3 1792h256l256 -896l256 896h256l-384 -1216v-576h-256v576z" />
<glyph unicode="Z" horiz-adv-x="951" d="M62 0v192l576 1408h-512v192h768v-192l-576 -1408h576v-192h-832z" />
<glyph unicode="[" horiz-adv-x="768" d="M128 -64v1920h512v-128h-256v-1664h256v-128h-512z" />
<glyph unicode="\" horiz-adv-x="576" d="M64 1792h256l192 -1792h-256z" />
<glyph unicode="]" horiz-adv-x="768" d="M128 -64v128h256v1664h-256v128h512v-1920h-512z" />
<glyph unicode="^" horiz-adv-x="896" d="M64 896l256 640h256l256 -640h-256l-129 448l-127 -448h-256z" />
<glyph unicode="_" horiz-adv-x="768" d="M0 0v192h768v-192h-768z" />
<glyph unicode="`" horiz-adv-x="640" d="M128 1792h256l128 -384h-128z" />
<glyph unicode="a" horiz-adv-x="955" d="M84 283q0 93 31.5 169t66.5 121.5t117 94t124 66.5t146 59q18 7 27 11v92q0 97 -27 150.5t-101 53.5q-66 0 -94.5 -45.5t-32.5 -125.5q-1 -11 -1 -33h-256q2 184 103 293t281 109q179 0 281.5 -110.5t102.5 -291.5v-576q0 -200 33 -320h-255l-34 192q-20 -40 -32.5 -62 t-36.5 -54.5t-48 -50t-60 -30.5t-79 -13q-107 0 -181.5 92.5t-74.5 208.5zM340 351q0 -159 128 -159q27 0 52.5 16t38.5 31t32 40q3 5 5 7v354q-16 -11 -53 -34t-59 -37.5t-53 -40t-48 -49t-30 -57.5t-13 -71z" />
<glyph unicode="b" horiz-adv-x="1042" d="M117 0v1791h256v-638q36 38 54 55t52.5 43t71.5 36.5t82 10.5q65 0 116 -23.5t84 -56.5t56 -95t34.5 -112t17.5 -135t7 -137.5t1 -144.5v-17q0 -84 -8.5 -162t-31 -159t-57 -140t-92 -96.5t-131.5 -37.5q-78 0 -138 37t-118 97v-116h-256zM373 232q99 -40 192 -40 q41 0 68.5 30t40 85.5t17 110.5t4.5 128q0 54 -0.5 143t-0.5 134t-2 78.5t-10 70.5t-21.5 61t-37.5 39.5t-58 15.5q-106 0 -192 -51v-805z" />
<glyph unicode="c" horiz-adv-x="863" d="M54 557q-2 42 -2 83.5t2 83.5q2 102 11.5 180t35 155.5t66 127t109 80.5t161.5 31q202 0 290 -109t94 -323v-34h-256v36q-1 48 -6.5 84t-18 72t-39 55.5t-64.5 19.5t-64 -22.5t-39.5 -64.5t-19.5 -86.5t-7 -102.5q-2 -62 -2 -155.5t2 -218.5q2 -55 8 -96.5t19.5 -80 t39.5 -59.5t63 -21q34 0 58.5 13t37.5 32t20.5 51t9.5 59.5t2 69.5v31h256v-33q-3 -101 -25 -178.5t-66.5 -135.5t-118 -88.5t-174.5 -30.5q-93 0 -161.5 31t-109.5 81t-66 127.5t-34.5 155t-11.5 180.5z" />
<glyph unicode="d" horiz-adv-x="1050" d="M97 521q-1 24 -1 81.5t1 148.5q2 66 6 119.5t13.5 111.5t24 102.5t38.5 86t56 68.5t77 43t100 16q43 0 80.5 -11.5t71.5 -36t54.5 -43.5t53.5 -54v638h256v-1791h-256v116q-58 -60 -118 -97t-138 -37q-85 0 -148.5 48t-98 130t-51.5 170.5t-21 190.5zM351 499 q1 -64 7 -114t19.5 -96.5t39.5 -71.5t63 -25q93 0 192 40v805q-86 51 -192 51q-38 0 -64 -18.5t-39 -54t-19 -73t-7 -88.5q-2 -112 -2 -200.5t2 -154.5z" />
<glyph unicode="e" horiz-adv-x="933" d="M97 578q-2 42 -1.5 84t1.5 84q3 100 13.5 177.5t36.5 150.5t67.5 120t109 75.5t157.5 28.5q82 0 144.5 -21.5t104 -65t69 -96.5t41.5 -128.5t19.5 -148.5t5.5 -168v-30h-512v-64v-41q-1 -21 -1 -43v-34q2 -40 4 -77.5t11 -72t22 -60.5t36.5 -41t55.5 -15q40 0 66 15.5 t38.5 46.5t17.5 62t6 78v54h254v-51q-9 -205 -101 -310t-283 -105q-93 0 -161.5 32t-109 83.5t-65.5 132t-34.5 161t-11.5 187.5zM353 768h254v77q-1 51 -6 89t-17.5 76t-38.5 58t-64 20q-39 0 -65.5 -21t-39 -60.5t-17.5 -77.5t-6 -91v-70z" />
<glyph unicode="f" horiz-adv-x="634" d="M56 1088v192h128v49q0 81 6 137.5t24.5 109t50 84t84 50t125.5 18.5q62 0 158 -12v-190q-10 1 -41 5.5t-45 4.5q-64 0 -85 -40.5t-21 -119.5v-96h192v-192h-192v-1088h-256v1088h-128z" />
<glyph unicode="g" horiz-adv-x="925" d="M10 -195q0 100 53.5 171t138.5 113q-52 14 -90 42.5t-38 69.5q0 17 4 36t9 34.5t16 35.5t17.5 31.5t21.5 32t20.5 28t21.5 27t18 22.5q-128 152 -128 384q0 133 42 237t130.5 166.5t211.5 62.5q71 0 124 -20t86.5 -50.5t65.5 -80.5q76 141 216 150h6h7.5h6.5v-209h-16 q-43 0 -65 -1t-49 -8.5t-43 -23.5q18 -39 31.5 -103.5t13.5 -119.5q0 -134 -40.5 -237t-129 -165t-214.5 -62l-129 15q-2 -5 -10 -17.5t-12.5 -20.5t-8.5 -20.5t-4 -23.5q0 -26 25 -44t69 -26.5t84.5 -12.5t90.5 -6.5t69 -5.5q57 -8 101.5 -18.5t91 -30.5t76.5 -48t49.5 -72 t19.5 -101q0 -70 -24.5 -125t-65.5 -91t-99 -59.5t-122 -33.5t-137 -10q-48 0 -78 0.5t-82 2.5t-87 7.5t-80 14t-74.5 22.5t-56.5 33t-40.5 46.5t-13.5 61.5zM236 -135q0 -16 11 -27.5t32.5 -17.5t44 -10t53.5 -5t53 -1t51.5 1t40.5 1q27 0 48.5 1t49.5 4t48.5 9.5t39 16.5 t28.5 26.5t10 37.5q0 107 -205 131l-211 25q-39 -28 -66.5 -81t-27.5 -111zM298 832q0 -272 160 -272t160 272q0 55 -7 101.5t-24 91t-50 70t-79 25.5q-47 0 -80 -25.5t-49.5 -70t-23.5 -91t-7 -101.5z" />
<glyph unicode="h" horiz-adv-x="992" d="M117 0v1792h256v-650q57 52 93 79.5t99.5 52t135.5 24.5q82 0 133 -60t51 -147v-1091h-256v960q0 66 -16.5 97t-71.5 31q-78 0 -168 -75v-1013h-256z" />
<glyph unicode="i" horiz-adv-x="512" d="M128 0v1280h256v-1280h-256zM128 1472v256h256v-256h-256z" />
<glyph unicode="j" horiz-adv-x="507" d="M-42 -121q35 -7 64 -7q128 0 128 149v1259h256v-1287q0 -148 -85.5 -230.5t-234.5 -82.5q-84 0 -128 17v182zM150 1472v256h256v-256h-256z" />
<glyph unicode="k" horiz-adv-x="961" d="M117 0v1792h256v-985l320 473h256l-287 -447l287 -833h-256l-192 619l-128 -171v-448h-256z" />
<glyph unicode="l" horiz-adv-x="485" d="M118 0v1792h256v-1792h-256z" />
<glyph unicode="m" horiz-adv-x="1504" d="M117 0v1280h256v-145q137 163 319 163q92 0 135 -40.5t58 -128.5q63 83 136 126t184 43q32 0 57.5 -6.5t44.5 -15.5t33.5 -27.5t24 -34t16 -44.5t9.5 -48t5 -56t2 -58v-63v-14v-931h-256v934v16q0 33 -1 51t-6.5 41.5t-19.5 34.5t-37 11q-39 0 -78 -15.5t-60.5 -30 t-53.5 -40.5v-1002h-256v929v18v42t-3.5 36.5t-9.5 33.5t-19 20t-32 9q-94 0 -192 -81v-1007h-256z" />
<glyph unicode="n" horiz-adv-x="992" d="M117 0v1280h256v-138q57 52 93 79.5t99.5 52t135.5 24.5q82 0 133 -60t51 -147v-1091h-256v960q0 67 -19 97.5t-77 30.5q-33 0 -65.5 -13.5t-48.5 -25t-46 -36.5v-1013h-256z" />
<glyph unicode="o" horiz-adv-x="954" d="M93 448v384q0 226 89 346t295 120t295 -120t89 -346v-384q0 -226 -89 -346t-295 -120t-295 120t-89 346zM349 448q0 -37 0.5 -55.5t2.5 -50.5t7 -49t14 -39.5t22.5 -34t34 -19.5t47.5 -8t47.5 8t34 19.5t22.5 34t14 39.5t7 49t2.5 50.5t0.5 55.5v384q0 37 -0.5 55.5 t-2.5 50.5t-7 49t-14 39.5t-22.5 34t-34 19.5t-47.5 8t-47.5 -8t-34 -19.5t-22.5 -34t-14 -39.5t-7 -49t-2.5 -50.5t-0.5 -55.5v-384z" />
<glyph unicode="p" horiz-adv-x="1042" d="M117 -384v1664h256v-128q31 33 43 45t41.5 37t51 35t55 19.5t69.5 9.5q65 0 116 -23.5t84 -56.5t56 -94.5t34.5 -111.5t17.5 -135t7 -137.5t1 -144.5v-19q0 -84 -8.5 -162t-31 -158.5t-57 -139.5t-92 -96.5t-131.5 -37.5q-130 0 -256 133v-499h-256zM373 244 q88 -52 192 -52q41 0 68.5 30t40 85.5t17 110t4.5 127.5l-2 169q0 45 -0.5 72.5t-3.5 73t-8.5 74.5t-16.5 64t-26.5 55t-40 34t-55.5 14q-15 0 -28.5 -2t-28 -6.5t-24 -8t-24.5 -11.5t-21.5 -11.5t-22.5 -13.5t-20 -12v-792z" />
<glyph unicode="q" horiz-adv-x="1012" d="M92 576v195q0 87 8 159t29 142t55.5 118.5t91.5 78t132 29.5q43 0 80.5 -11.5t72 -36.5t54 -43.5t53.5 -54.5v128h256v-1664h-256v499q-57 -59 -117.5 -96t-138.5 -37q-74 0 -131.5 37.5t-92 96.5t-57 139.5t-31 158.5t-8.5 162zM346 510q1 -67 6.5 -117.5t19 -99t40 -75 t64.5 -26.5q101 0 192 52v792q-4 2 -20 12t-22.5 13.5t-21.5 11.5t-24.5 11.5t-24 8t-28 6.5t-28.5 2q-32 0 -56.5 -14.5t-40.5 -34.5t-27.5 -57t-16.5 -65.5t-8 -76t-3.5 -73.5t-0.5 -73v-3v-55v-73v-66z" />
<glyph unicode="r" horiz-adv-x="693" d="M117 0v1280h256v-171q39 76 113.5 132.5t165.5 56.5q3 0 41 -4v-283q-71 28 -142 28q-80 0 -129 -48t-49 -127v-864h-256z" />
<glyph unicode="s" horiz-adv-x="876" d="M69 320l192 64q69 -192 192 -192q61 0 94.5 33.5t33.5 94.5q0 89 -64 148l-256 192q-43 29 -72 54.5t-59 62.5t-45.5 83t-15.5 100q0 164 104.5 251t279.5 87q83 0 150 -26.5t112.5 -74.5t75 -106.5t46.5 -130.5l-192 -64q-14 38 -28 65.5t-37.5 59.5t-55.5 49.5 t-71 17.5q-61 0 -94.5 -33.5t-33.5 -94.5q0 -60 64 -108l256 -192q43 -34 73.5 -65.5t59.5 -73t44 -92.5t15 -109q0 -164 -104.5 -251t-279.5 -87q-158 0 -253.5 94t-130.5 244z" />
<glyph unicode="t" horiz-adv-x="700" d="M54 1088v192h128v448h256v-448h192v-192h-192v-747q0 -77 21 -113t85 -36q28 0 86 10v-208q-96 -12 -158 -12q-151 0 -219.5 77t-70.5 233v796h-128z" />
<glyph unicode="u" horiz-adv-x="987" d="M114 189v1091h256v-1013q0 -40 24.5 -65t63.5 -25q21 0 41 5t39.5 17.5t30.5 20t31.5 25.5t25.5 22v1013h256v-1280h-256v138q-38 -33 -55.5 -48t-53.5 -40.5t-63.5 -37t-68.5 -21t-85 -9.5q-84 0 -135 59.5t-51 147.5z" />
<glyph unicode="v" horiz-adv-x="872" d="M20 1280h246l178 -961l162 961h246l-286 -1280h-258z" />
<glyph unicode="w" horiz-adv-x="1281" d="M20 1280h227l142 -972l134 972h234l136 -962l140 962h228l-248 -1280h-236l-136 882l-138 -882h-246z" />
<glyph unicode="x" horiz-adv-x="866" d="M17 0l256 640v26l-256 614h247l171 -489l171 489h243l-256 -614v-26l256 -640h-256l-152 493l-168 -493h-256z" />
<glyph unicode="y" horiz-adv-x="872" d="M20 1280h256q149 -823 161 -896q21 135 47.5 284.5t60 330t51.5 281.5h256l-320 -1344q-32 -139 -135 -197.5t-287 -58.5h-26v192q76 0 121.5 10t68.5 35.5t29.5 56t6.5 84.5z" />
<glyph unicode="z" horiz-adv-x="818" d="M71 0v192l448 896h-384v192h640v-192l-448 -896h448v-192h-704z" />
<glyph unicode="{" horiz-adv-x="704" d="M64 768v256q24 0 43 7t32 23.5t23 32.5t15.5 45.5t9 49.5t4.5 56.5t1.5 56t0 59t-0.5 54.5q0 131 21.5 214.5t75 137t137 75t214.5 21.5v-192q-39 0 -68 -5t-49.5 -13t-34.5 -25t-22 -34t-12 -47.5t-5 -58t-1 -73.5q0 -422 -192 -512q95 -41 143.5 -139.5t48.5 -244.5v-9 q0 -56 0.5 -84t4 -75.5t10.5 -72t21 -56.5t34 -48t51 -27.5t71 -11.5v-192q-132 0 -221 37t-138 114t-69 178t-20 247q0 13 0.5 42.5t0 41t-1.5 36.5t-3 35t-6.5 28t-11 26t-16 19.5t-22.5 16t-30 8t-38 3.5z" />
<glyph unicode="|" horiz-adv-x="384" d="M128 -128v2048h192v-2048h-192z" />
<glyph unicode="}" horiz-adv-x="704" d="M64 -64v192q28 0 52 4.5t42 16t32 23t24.5 33t17.5 37.5t11.5 45.5t7 48.5t4 55t1.5 55.5v59.5v6q0 145 48.5 244.5t143.5 139.5q-192 86 -192 512q0 36 -0.5 58.5t-2.5 49t-6 42t-10.5 33.5t-16.5 28t-24 20t-33.5 14.5t-43.5 7.5t-55 3v192q173 0 268.5 -42 t137.5 -137.5t42 -268.5q0 -16 -0.5 -54.5t-0.5 -58.5t1.5 -56.5t4.5 -57t9 -49t15.5 -45t23 -33t32.5 -23.5t43 -7v-256q-27 0 -48 -5.5t-34.5 -15.5t-23 -24.5t-14 -33t-6.5 -41t-2 -47.5v-52v-37q0 -117 -12 -203t-42 -159t-80.5 -118.5t-128.5 -70.5t-185 -25z" />
<glyph unicode="~" horiz-adv-x="960" d="M127 832q0 116 57.5 194.5t162.5 78.5q58 0 145 -43t136 -43q51 0 51 69h154q0 -119 -56.5 -197.5t-163.5 -78.5q-48 0 -98.5 22t-97.5 43.5t-88 21.5q-48 0 -48 -67h-154z" />
<glyph unicode="&#xad;" horiz-adv-x="384" d="M0 448v192h384v-192h-384z" />
<glyph unicode="&#xc0;" d="M16 0l384 1792h256l384 -1792h-256l-96 448h-320l-96 -448h-256zM208 2296h256l128 -384h-128zM400 640h256l-128 768z" />
<glyph unicode="&#xc1;" d="M16 0l384 1792h256l384 -1792h-256l-96 448h-320l-96 -448h-256zM400 640h256l-128 768zM464 1912l128 384h256l-256 -384h-128z" />
<glyph unicode="&#xc2;" d="M16 0l384 1792h256l384 -1792h-256l-96 448h-320l-96 -448h-256zM208 1912l192 384h256l192 -384h-192l-128 256l-128 -256h-192zM400 640h256l-128 768z" />
<glyph unicode="&#xc3;" d="M16 0l384 1792h256l384 -1792h-256l-96 448h-320l-96 -448h-256zM175 1932q0 116 57.5 194.5t162.5 78.5q58 0 145 -43t136 -43q51 0 51 69h154q0 -117 -57.5 -196.5t-162.5 -79.5q-48 0 -98.5 22t-97.5 43.5t-88 21.5q-48 0 -48 -67h-154zM400 640h256l-128 768z" />
<glyph unicode="&#xc8;" horiz-adv-x="861" d="M128 0v1792h704v-192h-448v-576h320v-192h-320v-640h448v-192h-704zM160 2296h256l128 -384h-128z" />
<glyph unicode="&#xc9;" horiz-adv-x="861" d="M128 0v1792h704v-192h-448v-576h320v-192h-320v-640h448v-192h-704zM416 1912l128 384h256l-256 -384h-128z" />
<glyph unicode="&#xca;" horiz-adv-x="861" d="M128 0v1792h704v-192h-448v-576h320v-192h-320v-640h448v-192h-704zM160 1912l192 384h256l192 -384h-192l-128 256l-128 -256h-192z" />
<glyph unicode="&#xcc;" horiz-adv-x="542" d="M-25 2296h256l128 -384h-128zM167 0v1792h256v-1792h-256z" />
<glyph unicode="&#xcd;" horiz-adv-x="542" d="M140 0v1792h256v-1792h-256zM204 1912l128 384h256l-256 -384h-128z" />
<glyph unicode="&#xd2;" horiz-adv-x="1180" d="M96 576v650q0 141 26 246t83 182.5t153.5 116.5t231.5 39q262 0 378 -150t116 -434v-650q0 -139 -26.5 -245.5t-83.5 -186t-153.5 -121t-230.5 -41.5q-135 0 -231.5 41t-153.5 120t-83 185.5t-26 247.5zM270 2296h256l128 -384h-128zM352 512q0 -158 51.5 -239t186.5 -81 t186.5 81t51.5 239v778q0 156 -51 233t-187 77t-187 -77t-51 -233v-778z" />
<glyph unicode="&#xd3;" horiz-adv-x="1180" d="M96 576v650q0 141 26 246t83 182.5t153.5 116.5t231.5 39q262 0 378 -150t116 -434v-650q0 -139 -26.5 -245.5t-83.5 -186t-153.5 -121t-230.5 -41.5q-135 0 -231.5 41t-153.5 120t-83 185.5t-26 247.5zM352 512q0 -158 51.5 -239t186.5 -81t186.5 81t51.5 239v778 q0 156 -51 233t-187 77t-187 -77t-51 -233v-778zM526 1912l128 384h256l-256 -384h-128z" />
<glyph unicode="&#xd4;" horiz-adv-x="1180" d="M96 576v650q0 141 26 246t83 182.5t153.5 116.5t231.5 39q262 0 378 -150t116 -434v-650q0 -139 -26.5 -245.5t-83.5 -186t-153.5 -121t-230.5 -41.5q-135 0 -231.5 41t-153.5 120t-83 185.5t-26 247.5zM270 1912l192 384h256l192 -384h-192l-128 256l-128 -256h-192z M352 512q0 -158 51.5 -239t186.5 -81t186.5 81t51.5 239v778q0 156 -51 233t-187 77t-187 -77t-51 -233v-778z" />
<glyph unicode="&#xd5;" horiz-adv-x="1180" d="M96 576v650q0 141 26 246t83 182.5t153.5 116.5t231.5 39q262 0 378 -150t116 -434v-650q0 -139 -26.5 -245.5t-83.5 -186t-153.5 -121t-230.5 -41.5q-135 0 -231.5 41t-153.5 120t-83 185.5t-26 247.5zM237 1932q0 116 57.5 194.5t162.5 78.5q58 0 145 -43t136 -43 q51 0 51 69h154q0 -117 -57.5 -196.5t-162.5 -79.5q-48 0 -98.5 22t-97.5 43.5t-88 21.5q-48 0 -48 -67h-154zM352 512q0 -158 51.5 -239t186.5 -81t186.5 81t51.5 239v778q0 156 -51 233t-187 77t-187 -77t-51 -233v-778z" />
<glyph unicode="&#xd9;" horiz-adv-x="1252" d="M114 640v1152h256v-1152q0 -83 3.5 -139t18.5 -119.5t41.5 -101.5t75 -63t117.5 -25t117.5 25t75 63t41.5 101.5t18.5 119.5t3.5 139v1152h256v-1152q0 -123 -15 -220.5t-51 -181.5t-93.5 -139.5t-146.5 -86.5t-206 -31t-206 31t-146.5 86.5t-93.5 139.5t-51 181.5 t-15 220.5zM306 2296h256l128 -384h-128z" />
<glyph unicode="&#xda;" horiz-adv-x="1252" d="M114 640v1152h256v-1152q0 -83 3.5 -139t18.5 -119.5t41.5 -101.5t75 -63t117.5 -25t117.5 25t75 63t41.5 101.5t18.5 119.5t3.5 139v1152h256v-1152q0 -123 -15 -220.5t-51 -181.5t-93.5 -139.5t-146.5 -86.5t-206 -31t-206 31t-146.5 86.5t-93.5 139.5t-51 181.5 t-15 220.5zM562 1912l128 384h256l-256 -384h-128z" />
<glyph unicode="&#xdd;" horiz-adv-x="1018" d="M-3 1792h256l256 -896l256 896h256l-384 -1216v-576h-256v576zM445 1912l128 384h256l-256 -384h-128z" />
<glyph unicode="&#xe0;" horiz-adv-x="955" d="M84 283q0 93 31.5 169t66.5 121.5t117 94t124 66.5t146 59q18 7 27 11v92q0 97 -27 150.5t-101 53.5q-66 0 -94.5 -45.5t-32.5 -125.5q-1 -11 -1 -33h-256q2 184 103 293t281 109q179 0 281.5 -110.5t102.5 -291.5v-576q0 -200 33 -320h-255l-34 192q-20 -40 -32.5 -62 t-36.5 -54.5t-48 -50t-60 -30.5t-79 -13q-107 0 -181.5 92.5t-74.5 208.5zM136 1784h256l128 -384h-128zM340 351q0 -159 128 -159q27 0 52.5 16t38.5 31t32 40q3 5 5 7v354q-16 -11 -53 -34t-59 -37.5t-53 -40t-48 -49t-30 -57.5t-13 -71z" />
<glyph unicode="&#xe1;" horiz-adv-x="955" d="M84 283q0 93 31.5 169t66.5 121.5t117 94t124 66.5t146 59q18 7 27 11v92q0 97 -27 150.5t-101 53.5q-66 0 -94.5 -45.5t-32.5 -125.5q-1 -11 -1 -33h-256q2 184 103 293t281 109q179 0 281.5 -110.5t102.5 -291.5v-576q0 -200 33 -320h-255l-34 192q-20 -40 -32.5 -62 t-36.5 -54.5t-48 -50t-60 -30.5t-79 -13q-107 0 -181.5 92.5t-74.5 208.5zM340 351q0 -159 128 -159q27 0 52.5 16t38.5 31t32 40q3 5 5 7v354q-16 -11 -53 -34t-59 -37.5t-53 -40t-48 -49t-30 -57.5t-13 -71zM392 1400l128 384h256l-256 -384h-128z" />
<glyph unicode="&#xe2;" horiz-adv-x="955" d="M84 283q0 93 31.5 169t66.5 121.5t117 94t124 66.5t146 59q18 7 27 11v92q0 97 -27 150.5t-101 53.5q-66 0 -94.5 -45.5t-32.5 -125.5q-1 -11 -1 -33h-256q2 184 103 293t281 109q179 0 281.5 -110.5t102.5 -291.5v-576q0 -200 33 -320h-255l-34 192q-20 -40 -32.5 -62 t-36.5 -54.5t-48 -50t-60 -30.5t-79 -13q-107 0 -181.5 92.5t-74.5 208.5zM136 1400l192 384h256l192 -384h-192l-128 256l-128 -256h-192zM340 351q0 -159 128 -159q27 0 52.5 16t38.5 31t32 40q3 5 5 7v354q-16 -11 -53 -34t-59 -37.5t-53 -40t-48 -49t-30 -57.5t-13 -71z " />
<glyph unicode="&#xe3;" horiz-adv-x="955" d="M84 283q0 93 31.5 169t66.5 121.5t117 94t124 66.5t146 59q18 7 27 11v92q0 97 -27 150.5t-101 53.5q-66 0 -94.5 -45.5t-32.5 -125.5q-1 -11 -1 -33h-256q2 184 103 293t281 109q179 0 281.5 -110.5t102.5 -291.5v-576q0 -200 33 -320h-255l-34 192q-20 -40 -32.5 -62 t-36.5 -54.5t-48 -50t-60 -30.5t-79 -13q-107 0 -181.5 92.5t-74.5 208.5zM103 1420q0 116 57.5 194.5t162.5 78.5q58 0 145 -43t136 -43q51 0 51 69h154q0 -117 -57.5 -196.5t-162.5 -79.5q-48 0 -98.5 22t-97.5 43.5t-88 21.5q-48 0 -48 -67h-154zM340 351 q0 -159 128 -159q27 0 52.5 16t38.5 31t32 40q3 5 5 7v354q-16 -11 -53 -34t-59 -37.5t-53 -40t-48 -49t-30 -57.5t-13 -71z" />
<glyph unicode="&#xe8;" horiz-adv-x="933" d="M97 578q-3 84 0 168q3 100 13.5 177.5t36.5 150.5t67.5 120t109 75.5t157.5 28.5q82 0 144.5 -21.5t104 -65t69 -96.5t41.5 -128.5t19.5 -148.5t5.5 -168v-30h-512v-64v-41q-2 -37 -0.5 -76.5t3.5 -77.5t11 -72.5t22 -60.5t36.5 -41t55.5 -15q40 0 66 15.5t38.5 46.5 t17.5 62t6 78v54h254v-51q-9 -205 -101 -310t-283 -105q-93 0 -161.5 32t-109 83.5t-65.5 132t-34.5 161t-11.5 187.5zM160 1784h256l128 -384h-128zM353 768h254v77q-1 51 -6 89t-17.5 76t-38.5 58t-64 20q-39 0 -65.5 -21t-39 -60.5t-17.5 -77.5t-6 -91v-70z" />
<glyph unicode="&#xe9;" horiz-adv-x="933" d="M97 578q-3 84 0 168q3 100 13.5 177.5t36.5 150.5t67.5 120t109 75.5t157.5 28.5q82 0 144.5 -21.5t104 -65t69 -96.5t41.5 -128.5t19.5 -148.5t5.5 -168v-30h-512v-64v-41q-2 -37 -0.5 -76.5t3.5 -77.5t11 -72.5t22 -60.5t36.5 -41t55.5 -15q40 0 66 15.5t38.5 46.5 t17.5 62t6 78v54h254v-51q-9 -205 -101 -310t-283 -105q-93 0 -161.5 32t-109 83.5t-65.5 132t-34.5 161t-11.5 187.5zM353 768h254v77q-1 51 -6 89t-17.5 76t-38.5 58t-64 20q-39 0 -65.5 -21t-39 -60.5t-17.5 -77.5t-6 -91v-70zM416 1400l128 384h256l-256 -384h-128z" />
<glyph unicode="&#xea;" horiz-adv-x="933" d="M97 578q-3 84 0 168q3 100 13.5 177.5t36.5 150.5t67.5 120t109 75.5t157.5 28.5q82 0 144.5 -21.5t104 -65t69 -96.5t41.5 -128.5t19.5 -148.5t5.5 -168v-30h-512v-64v-41q-2 -37 -0.5 -76.5t3.5 -77.5t11 -72.5t22 -60.5t36.5 -41t55.5 -15q40 0 66 15.5t38.5 46.5 t17.5 62t6 78v54h254v-51q-9 -205 -101 -310t-283 -105q-93 0 -161.5 32t-109 83.5t-65.5 132t-34.5 161t-11.5 187.5zM160 1400l192 384h256l192 -384h-192l-128 256l-128 -256h-192zM353 768h254v77q-1 51 -6 89t-17.5 76t-38.5 58t-64 20q-39 0 -65.5 -21t-39 -60.5 t-17.5 -77.5t-6 -91v-70z" />
<glyph unicode="&#xec;" horiz-adv-x="512" d="M-36 1784h256l128 -384h-128zM156 0v1280h256v-1280h-256z" />
<glyph unicode="&#xed;" horiz-adv-x="512" d="M128 0v1280h256v-1280h-256zM192 1400l128 384h256l-256 -384h-128z" />
<glyph unicode="&#xf2;" horiz-adv-x="954" d="M93 448v384q0 226 89 346t295 120t295 -120t89 -346v-384q0 -226 -89 -346t-295 -120t-295 120t-89 346zM157 1784h256l128 -384h-128zM349 448q0 -37 0.5 -55.5t2.5 -50.5t7 -49t14 -39.5t22.5 -34t34 -19.5t47.5 -8t47.5 8t34 19.5t22.5 34t14 39.5t7 49t2.5 50.5 t0.5 55.5v384q0 37 -0.5 55.5t-2.5 50.5t-7 49t-14 39.5t-22.5 34t-34 19.5t-47.5 8t-47.5 -8t-34 -19.5t-22.5 -34t-14 -39.5t-7 -49t-2.5 -50.5t-0.5 -55.5v-384z" />
<glyph unicode="&#xf3;" horiz-adv-x="954" d="M93 448v384q0 226 89 346t295 120t295 -120t89 -346v-384q0 -226 -89 -346t-295 -120t-295 120t-89 346zM349 448q0 -37 0.5 -55.5t2.5 -50.5t7 -49t14 -39.5t22.5 -34t34 -19.5t47.5 -8t47.5 8t34 19.5t22.5 34t14 39.5t7 49t2.5 50.5t0.5 55.5v384q0 37 -0.5 55.5 t-2.5 50.5t-7 49t-14 39.5t-22.5 34t-34 19.5t-47.5 8t-47.5 -8t-34 -19.5t-22.5 -34t-14 -39.5t-7 -49t-2.5 -50.5t-0.5 -55.5v-384zM413 1400l128 384h256l-256 -384h-128z" />
<glyph unicode="&#xf4;" horiz-adv-x="954" d="M93 448v384q0 226 89 346t295 120t295 -120t89 -346v-384q0 -226 -89 -346t-295 -120t-295 120t-89 346zM157 1400l192 384h256l192 -384h-192l-128 256l-128 -256h-192zM349 448q0 -37 0.5 -55.5t2.5 -50.5t7 -49t14 -39.5t22.5 -34t34 -19.5t47.5 -8t47.5 8t34 19.5 t22.5 34t14 39.5t7 49t2.5 50.5t0.5 55.5v384q0 37 -0.5 55.5t-2.5 50.5t-7 49t-14 39.5t-22.5 34t-34 19.5t-47.5 8t-47.5 -8t-34 -19.5t-22.5 -34t-14 -39.5t-7 -49t-2.5 -50.5t-0.5 -55.5v-384z" />
<glyph unicode="&#xf5;" horiz-adv-x="954" d="M93 448v384q0 226 89 346t295 120t295 -120t89 -346v-384q0 -226 -89 -346t-295 -120t-295 120t-89 346zM124 1420q0 116 57.5 194.5t162.5 78.5q58 0 145 -43t136 -43q51 0 51 69h154q0 -117 -57.5 -196.5t-162.5 -79.5q-48 0 -98.5 22t-97.5 43.5t-88 21.5 q-48 0 -48 -67h-154zM349 448q0 -37 0.5 -55.5t2.5 -50.5t7 -49t14 -39.5t22.5 -34t34 -19.5t47.5 -8t47.5 8t34 19.5t22.5 34t14 39.5t7 49t2.5 50.5t0.5 55.5v384q0 37 -0.5 55.5t-2.5 50.5t-7 49t-14 39.5t-22.5 34t-34 19.5t-47.5 8t-47.5 -8t-34 -19.5t-22.5 -34 t-14 -39.5t-7 -49t-2.5 -50.5t-0.5 -55.5v-384z" />
<glyph unicode="&#xf9;" horiz-adv-x="987" d="M114 189v1091h256v-1013q0 -40 24.5 -65t63.5 -25q21 0 41 5t39.5 17.5t30.5 20t31.5 25.5t25.5 22v1013h256v-1280h-256v138q-38 -33 -55.5 -48t-53.5 -40.5t-63.5 -37t-68.5 -21t-85 -9.5q-84 0 -135 59.5t-51 147.5zM178 1784h256l128 -384h-128z" />
<glyph unicode="&#xfa;" horiz-adv-x="987" d="M114 189v1091h256v-1013q0 -40 24.5 -65t63.5 -25q21 0 41 5t39.5 17.5t30.5 20t31.5 25.5t25.5 22v1013h256v-1280h-256v138q-38 -33 -55.5 -48t-53.5 -40.5t-63.5 -37t-68.5 -21t-85 -9.5q-84 0 -135 59.5t-51 147.5zM434 1400l128 384h256l-256 -384h-128z" />
<glyph unicode="&#xfd;" horiz-adv-x="842" d="M20 1280h256q149 -823 161 -896q21 135 47.5 284.5t60 330t51.5 281.5h256l-320 -1344q-32 -139 -135 -197.5t-287 -58.5h-26v192q76 0 121.5 10t68.5 35.5t29.5 56t6.5 84.5zM362 1400l128 384h256l-256 -384h-128z" />
<glyph unicode="&#x102;" d="M16 0l384 1792h256l384 -1792h-256l-96 448h-320l-96 -448h-256zM208 2296h192q0 -102 24.5 -147t103.5 -45t103.5 45.5t24.5 146.5h192q0 -200 -69.5 -292t-250.5 -92q-179 0 -249.5 93t-70.5 291zM400 640h256l-128 768z" />
<glyph unicode="&#x103;" horiz-adv-x="955" d="M84 283q0 93 31.5 169t66.5 121.5t117 94t124 66.5t146 59q18 7 27 11v92q0 97 -27 150.5t-101 53.5q-66 0 -94.5 -45.5t-32.5 -125.5q-1 -11 -1 -33h-256q2 184 103 293t281 109q179 0 281.5 -110.5t102.5 -291.5v-576q0 -200 33 -320h-255l-34 192q-20 -40 -32.5 -62 t-36.5 -54.5t-48 -50t-60 -30.5t-79 -13q-107 0 -181.5 92.5t-74.5 208.5zM136 1784h192q0 -102 24.5 -147t103.5 -45t103.5 45.5t24.5 146.5h192q0 -200 -69.5 -292t-250.5 -92q-179 0 -249.5 93t-70.5 291zM340 351q0 -159 128 -159q27 0 52.5 16t38.5 31t32 40q3 5 5 7 v354q-16 -11 -53 -34t-59 -37.5t-53 -40t-48 -49t-30 -57.5t-13 -71z" />
<glyph unicode="&#x110;" horiz-adv-x="1152" d="M34 852v152h94v788h384q281 0 396.5 -115t115.5 -397v-704q0 -295 -117.5 -435.5t-396.5 -140.5h-382v852h-94zM384 192h128q63 0 108 11.5t73 42t44 58t22.5 85.5t7.5 95.5t1 116.5v39v576q0 49 -0.5 78t-3 68.5t-7.5 62.5t-14 51.5t-22.5 44.5t-33 33.5t-45 26 t-59.5 14t-76 5.5h-123v-596h144v-152h-144v-660z" />
<glyph unicode="&#x111;" d="M96 577v12q0 96 1 146t6.5 138t17 136.5t34.5 112t56 96t84 56.5t117 24q43 0 80.5 -11.5t71.5 -36t54.5 -43.5t53.5 -54v347h-260v138h260v153h256v-153h128v-138h-128v-1500h-256v116q-58 -60 -118 -97t-138 -37q-74 0 -131.5 37.5t-92.5 96.5t-57 140t-30.5 159 t-8.5 162zM350.5 495q0.5 -44 4 -76.5t8.5 -69.5t15 -63t23.5 -48.5t33.5 -34t45 -11.5q93 0 192 40v805q-86 51 -192 51q-24 0 -43.5 -7.5t-33 -23.5t-23.5 -33.5t-15.5 -45t-8.5 -49.5t-4 -56.5t-1 -56.5t0.5 -58t0.5 -53q0 -21 -0.5 -63t-1 -72.5t0 -74.5z" />
<glyph unicode="&#x128;" horiz-adv-x="542" d="M-85 1932q0 116 57.5 194.5t162.5 78.5q58 0 145 -43t136 -43q51 0 51 69h154q0 -117 -57.5 -196.5t-162.5 -79.5q-48 0 -98.5 22t-97.5 43.5t-88 21.5q-48 0 -48 -67h-154zM140 0v1792h256v-1792h-256z" />
<glyph unicode="&#x129;" horiz-adv-x="512" d="M-88 1415q0 116 57.5 194.5t162.5 78.5q58 0 145 -43t136 -43q51 0 51 69h154q0 -117 -57.5 -196.5t-162.5 -79.5q-48 0 -98.5 22t-97.5 43.5t-88 21.5q-48 0 -48 -67h-154zM137 -5v1280h256v-1280h-256z" />
<glyph unicode="&#x168;" horiz-adv-x="1252" d="M114 640v1152h256v-1152q0 -83 3.5 -139t18.5 -119.5t41.5 -101.5t75 -63t117.5 -25t117.5 25t75 63t41.5 101.5t18.5 119.5t3.5 139v1152h256v-1152q0 -123 -15 -220.5t-51 -181.5t-93.5 -139.5t-146.5 -86.5t-206 -31t-206 31t-146.5 86.5t-93.5 139.5t-51 181.5 t-15 220.5zM273 1932q0 116 57.5 194.5t162.5 78.5q58 0 145 -43t136 -43q51 0 51 69h154q0 -117 -57.5 -196.5t-162.5 -79.5q-48 0 -98.5 22t-97.5 43.5t-88 21.5q-48 0 -48 -67h-154z" />
<glyph unicode="&#x169;" horiz-adv-x="987" d="M114 189v1091h256v-1013q0 -40 24.5 -65t63.5 -25q21 0 41 5t39.5 17.5t30.5 20t31.5 25.5t25.5 22v1013h256v-1280h-256v138q-38 -33 -55.5 -48t-53.5 -40.5t-63.5 -37t-68.5 -21t-85 -9.5q-84 0 -135 59.5t-51 147.5zM145 1420q0 116 57.5 194.5t162.5 78.5 q58 0 145 -43t136 -43q51 0 51 69h154q0 -117 -57.5 -196.5t-162.5 -79.5q-48 0 -98.5 22t-97.5 43.5t-88 21.5q-48 0 -48 -67h-154z" />
<glyph unicode="&#x1a0;" horiz-adv-x="1382" d="M96 576v650q0 141 26 246t83 182.5t153.5 116.5t231.5 39q262 0 378 -150q84 -109 107 -289q132 -9 157 18q32 35 25 147h-128v256h256q0 -144 -3 -242q-2 -54 -6 -91t-12 -75t-28.5 -66.5t-74.5 -46.5q-40 -13 -178 -13q1 -16 1 -32v-650q0 -139 -26.5 -245.5 t-83.5 -186t-153.5 -121t-230.5 -41.5q-135 0 -231.5 41t-153.5 120t-83 185.5t-26 247.5zM352 512q0 -158 51.5 -239t186.5 -81t186.5 81t51.5 239v778q0 156 -51 233t-187 77t-187 -77t-51 -233v-778z" />
<glyph unicode="&#x1a1;" horiz-adv-x="1170" d="M93 448v384q0 226 89 346t295 120t295 -120q83 -113 89 -320q131 -8 155 19q32 35 25 147h-128v256h256q0 -144 -3 -242q-2 -54 -6 -91t-12 -75t-28.5 -66.5t-74.5 -46.5q-41 -13 -184 -13v-298q0 -226 -89 -346t-295 -120t-295 120t-89 346zM349 448q0 -37 0.5 -55.5 t2.5 -50.5t7 -49t14 -39.5t22.5 -34t34 -19.5t47.5 -8t47.5 8t34 19.5t22.5 34t14 39.5t7 49t2.5 50.5t0.5 55.5v384q0 37 -0.5 55.5t-2.5 50.5t-7 49t-14 39.5t-22.5 34t-34 19.5t-47.5 8t-47.5 -8t-34 -19.5t-22.5 -34t-14 -39.5t-7 -49t-2.5 -50.5t-0.5 -55.5v-384z" />
<glyph unicode="&#x1af;" horiz-adv-x="1465" d="M114 640v1152h256v-1152q0 -83 3.5 -139t18.5 -119.5t41.5 -101.5t75 -63t117.5 -25t117.5 25t75 63t41.5 101.5t18.5 119.5t3.5 139v1152h256v-420q147 -11 173 17q32 35 25 147h-128v256h256q0 -144 -3 -242q-2 -54 -6 -91t-12 -75t-28.5 -66.5t-74.5 -46.5 q-44 -14 -202 -13v-618q0 -123 -15 -220.5t-51 -181.5t-93.5 -139.5t-146.5 -86.5t-206 -31t-206 31t-146.5 86.5t-93.5 139.5t-51 181.5t-15 220.5z" />
<glyph unicode="&#x1b0;" horiz-adv-x="1206" d="M114 189v1091h256v-1013q0 -40 24.5 -65t63.5 -25q21 0 41 5t39.5 17.5t30.5 20t31.5 25.5t25.5 22v1013h256v-420q145 -11 171 17q32 35 25 147h-128v256h256q0 -144 -3 -242q-2 -54 -6 -91t-12 -75t-28.5 -66.5t-74.5 -46.5q-43 -14 -200 -13v-746h-256v138 q-38 -33 -55.5 -48t-53.5 -40.5t-63.5 -37t-68.5 -21t-85 -9.5q-84 0 -135 59.5t-51 147.5z" />
<glyph unicode="&#x1ea0;" d="M16 0l384 1792h256l384 -1792h-256l-96 448h-320l-96 -448h-256zM400 640h256l-128 768zM443 -173h265v-265h-265v265z" />
<glyph unicode="&#x1ea1;" horiz-adv-x="955" d="M84 283q0 93 31.5 169t66.5 121.5t117 94t124 66.5t146 59q18 7 27 11v92q0 97 -27 150.5t-101 53.5q-66 0 -94.5 -45.5t-32.5 -125.5q-1 -11 -1 -33h-256q2 184 103 293t281 109q179 0 281.5 -110.5t102.5 -291.5v-576q0 -200 33 -320h-255l-34 192q-20 -40 -32.5 -62 t-36.5 -54.5t-48 -50t-60 -30.5t-79 -13q-107 0 -181.5 92.5t-74.5 208.5zM340 351q0 -159 128 -159q27 0 52.5 16t38.5 31t32 40q3 5 5 7v354q-16 -11 -53 -34t-59 -37.5t-53 -40t-48 -49t-30 -57.5t-13 -71zM369 -173h265v-265h-265v265z" />
<glyph unicode="&#x1ea2;" d="M16 0l384 1792h256l384 -1792h-256l-96 448h-320l-96 -448h-256zM331 2103v76q0 151 79 197q43 27 139 27q101 0 149 -38q60 -50 60 -179q0 -83 -29.5 -139t-117.5 -89q-21 -7 -21 -47v-43h-101v86q0 78 19 109q15 24 62 48q37 15 37 75q0 61 -67 61q-101 -1 -95 -144 h-114zM400 640h256l-128 768z" />
<glyph unicode="&#x1ea3;" horiz-adv-x="955" d="M84 283q0 93 31.5 169t66.5 121.5t117 94t124 66.5t146 59q18 7 27 11v92q0 97 -27 150.5t-101 53.5q-66 0 -94.5 -45.5t-32.5 -125.5q-1 -11 -1 -33h-256q2 184 103 293t281 109q179 0 281.5 -110.5t102.5 -291.5v-576q0 -200 33 -320h-255l-34 192q-20 -40 -32.5 -62 t-36.5 -54.5t-48 -50t-60 -30.5t-79 -13q-107 0 -181.5 92.5t-74.5 208.5zM278 1643v76q0 151 79 197q43 27 139 27q101 0 149 -38q60 -50 60 -179q0 -83 -29.5 -139t-117.5 -89q-21 -7 -21 -47v-43h-101v86q0 78 19 109q15 24 62 48q37 15 37 75q0 61 -67 61 q-101 -1 -95 -144h-114zM340 351q0 -159 128 -159q27 0 52.5 16t38.5 31t32 40q3 5 5 7v354q-16 -11 -53 -34t-59 -37.5t-53 -40t-48 -49t-30 -57.5t-13 -71z" />
<glyph unicode="&#x1ea4;" d="M16 0l384 1792h256l384 -1792h-256l-96 448h-320l-96 -448h-256zM208 1912l192 384h256l192 -384h-192l-128 256l-128 -256h-192zM400 640h256l-128 768zM837 2087l128 384h256l-256 -384h-128z" />
<glyph unicode="&#x1ea5;" horiz-adv-x="955" d="M84 283q0 93 31.5 169t66.5 121.5t117 94t124 66.5t146 59q18 7 27 11v92q0 97 -27 150.5t-101 53.5q-66 0 -94.5 -45.5t-32.5 -125.5q-1 -11 -1 -33h-256q2 184 103 293t281 109q179 0 281.5 -110.5t102.5 -291.5v-576q0 -200 33 -320h-255l-34 192q-20 -40 -32.5 -62 t-36.5 -54.5t-48 -50t-60 -30.5t-79 -13q-107 0 -181.5 92.5t-74.5 208.5zM136 1400l192 384h256l192 -384h-192l-128 256l-128 -256h-192zM340 351q0 -159 128 -159q27 0 52.5 16t38.5 31t32 40q3 5 5 7v354q-16 -11 -53 -34t-59 -37.5t-53 -40t-48 -49t-30 -57.5t-13 -71z M737 1568l128 384h256l-256 -384h-128z" />
<glyph unicode="&#x1ea6;" d="M16 0l384 1792h256l384 -1792h-256l-96 448h-320l-96 -448h-256zM208 1912l192 384h256l192 -384h-192l-128 256l-128 -256h-192zM400 640h256l-128 768zM663 2471h256l128 -384h-128z" />
<glyph unicode="&#x1ea7;" horiz-adv-x="955" d="M84 283q0 93 31.5 169t66.5 121.5t117 94t124 66.5t146 59q18 7 27 11v92q0 97 -27 150.5t-101 53.5q-66 0 -94.5 -45.5t-32.5 -125.5q-1 -11 -1 -33h-256q2 184 103 293t281 109q179 0 281.5 -110.5t102.5 -291.5v-576q0 -200 33 -320h-255l-34 192q-20 -40 -32.5 -62 t-36.5 -54.5t-48 -50t-60 -30.5t-79 -13q-107 0 -181.5 92.5t-74.5 208.5zM136 1400l192 384h256l192 -384h-192l-128 256l-128 -256h-192zM340 351q0 -159 128 -159q27 0 52.5 16t38.5 31t32 40q3 5 5 7v354q-16 -11 -53 -34t-59 -37.5t-53 -40t-48 -49t-30 -57.5t-13 -71z M566 1952h256l128 -384h-128z" />
<glyph unicode="&#x1ea8;" d="M16 0l384 1792h256l384 -1792h-256l-96 448h-320l-96 -448h-256zM208 1912l192 384h256l192 -384h-192l-128 256l-128 -256h-192zM400 640h256l-128 768zM725 2396v76q0 151 79 197q43 27 139 27q101 0 149 -38q60 -50 60 -179q0 -83 -29.5 -139t-117.5 -89 q-21 -7 -21 -47v-43h-101v86q0 78 19 109q15 24 62 48q37 15 37 75q0 61 -67 61q-101 -1 -95 -144h-114z" />
<glyph unicode="&#x1ea9;" horiz-adv-x="955" d="M84 283q0 93 31.5 169t66.5 121.5t117 94t124 66.5t146 59q18 7 27 11v92q0 97 -27 150.5t-101 53.5q-66 0 -94.5 -45.5t-32.5 -125.5q-1 -11 -1 -33h-256q2 184 103 293t281 109q179 0 281.5 -110.5t102.5 -291.5v-576q0 -200 33 -320h-255l-34 192q-20 -40 -32.5 -62 t-36.5 -54.5t-48 -50t-60 -30.5t-79 -13q-107 0 -181.5 92.5t-74.5 208.5zM136 1400l192 384h256l192 -384h-192l-128 256l-128 -256h-192zM340 351q0 -159 128 -159q27 0 52.5 16t38.5 31t32 40q3 5 5 7v354q-16 -11 -53 -34t-59 -37.5t-53 -40t-48 -49t-30 -57.5t-13 -71z M617 1950v76q0 151 79 197q43 27 139 27q101 0 149 -38q60 -50 60 -179q0 -83 -29.5 -139t-117.5 -89q-21 -7 -21 -47v-43h-101v86q0 78 19 109q15 24 62 48q37 15 37 75q0 61 -67 61q-101 -1 -95 -144h-114z" />
<glyph unicode="&#x1eaa;" d="M16 0l384 1792h256l384 -1792h-256l-96 448h-320l-96 -448h-256zM208 1912l192 384h256l192 -384h-192l-128 256l-128 -256h-192zM215 2388q0 116 57.5 194.5t162.5 78.5q58 0 145 -43t136 -43q51 0 51 69h154q0 -117 -57.5 -196.5t-162.5 -79.5q-48 0 -98.5 22 t-97.5 43.5t-88 21.5q-48 0 -48 -67h-154zM400 640h256l-128 768z" />
<glyph unicode="&#x1eab;" horiz-adv-x="955" d="M84 283q0 93 31.5 169t66.5 121.5t117 94t124 66.5t146 59q18 7 27 11v92q0 97 -27 150.5t-101 53.5q-66 0 -94.5 -45.5t-32.5 -125.5q-1 -11 -1 -33h-256q2 184 103 293t281 109q179 0 281.5 -110.5t102.5 -291.5v-576q0 -200 33 -320h-255l-34 192q-20 -40 -32.5 -62 t-36.5 -54.5t-48 -50t-60 -30.5t-79 -13q-107 0 -181.5 92.5t-74.5 208.5zM136 1400l192 384h256l192 -384h-192l-128 256l-128 -256h-192zM143 1838q0 116 57.5 194.5t162.5 78.5q58 0 145 -43t136 -43q51 0 51 69h154q0 -117 -57.5 -196.5t-162.5 -79.5q-48 0 -98.5 22 t-97.5 43.5t-88 21.5q-48 0 -48 -67h-154zM340 351q0 -159 128 -159q27 0 52.5 16t38.5 31t32 40q3 5 5 7v354q-16 -11 -53 -34t-59 -37.5t-53 -40t-48 -49t-30 -57.5t-13 -71z" />
<glyph unicode="&#x1eac;" d="M16 0l384 1792h256l384 -1792h-256l-96 448h-320l-96 -448h-256zM208 1912l192 384h256l192 -384h-192l-128 256l-128 -256h-192zM400 640h256l-128 768zM443 -173h265v-265h-265v265z" />
<glyph unicode="&#x1ead;" horiz-adv-x="955" d="M84 283q0 93 31.5 169t66.5 121.5t117 94t124 66.5t146 59q18 7 27 11v92q0 97 -27 150.5t-101 53.5q-66 0 -94.5 -45.5t-32.5 -125.5q-1 -11 -1 -33h-256q2 184 103 293t281 109q179 0 281.5 -110.5t102.5 -291.5v-576q0 -200 33 -320h-255l-34 192q-20 -40 -32.5 -62 t-36.5 -54.5t-48 -50t-60 -30.5t-79 -13q-107 0 -181.5 92.5t-74.5 208.5zM136 1400l192 384h256l192 -384h-192l-128 256l-128 -256h-192zM340 351q0 -159 128 -159q27 0 52.5 16t38.5 31t32 40q3 5 5 7v354q-16 -11 -53 -34t-59 -37.5t-53 -40t-48 -49t-30 -57.5t-13 -71z M369 -173h265v-265h-265v265z" />
<glyph unicode="&#x1eae;" d="M16 0l384 1792h256l384 -1792h-256l-96 448h-320l-96 -448h-256zM208 2296h192q0 -102 24.5 -147t103.5 -45t103.5 45.5t24.5 146.5h192q0 -200 -69.5 -292t-250.5 -92q-179 0 -249.5 93t-70.5 291zM400 640h256l-128 768zM477 2305l128 384h256l-256 -384h-128z" />
<glyph unicode="&#x1eaf;" horiz-adv-x="955" d="M84 283q0 93 31.5 169t66.5 121.5t117 94t124 66.5t146 59q18 7 27 11v92q0 97 -27 150.5t-101 53.5q-66 0 -94.5 -45.5t-32.5 -125.5q-1 -11 -1 -33h-256q2 184 103 293t281 109q179 0 281.5 -110.5t102.5 -291.5v-576q0 -200 33 -320h-255l-34 192q-20 -40 -32.5 -62 t-36.5 -54.5t-48 -50t-60 -30.5t-79 -13q-107 0 -181.5 92.5t-74.5 208.5zM136 1784h192q0 -102 24.5 -147t103.5 -45t103.5 45.5t24.5 146.5h192q0 -200 -69.5 -292t-250.5 -92q-179 0 -249.5 93t-70.5 291zM340 351q0 -159 128 -159q27 0 52.5 16t38.5 31t32 40q3 5 5 7 v354q-16 -11 -53 -34t-59 -37.5t-53 -40t-48 -49t-30 -57.5t-13 -71zM408 1812l128 384h256l-256 -384h-128z" />
<glyph unicode="&#x1eb0;" d="M16 0l384 1792h256l384 -1792h-256l-96 448h-320l-96 -448h-256zM208 2296h192q0 -102 24.5 -147t103.5 -45t103.5 45.5t24.5 146.5h192q0 -200 -69.5 -292t-250.5 -92q-179 0 -249.5 93t-70.5 291zM219 2689h256l128 -384h-128zM400 640h256l-128 768z" />
<glyph unicode="&#x1eb1;" horiz-adv-x="955" d="M84 283q0 93 31.5 169t66.5 121.5t117 94t124 66.5t146 59q18 7 27 11v92q0 97 -27 150.5t-101 53.5q-66 0 -94.5 -45.5t-32.5 -125.5q-1 -11 -1 -33h-256q2 184 103 293t281 109q179 0 281.5 -110.5t102.5 -291.5v-576q0 -200 33 -320h-255l-34 192q-20 -40 -32.5 -62 t-36.5 -54.5t-48 -50t-60 -30.5t-79 -13q-107 0 -181.5 92.5t-74.5 208.5zM136 1784h192q0 -102 24.5 -147t103.5 -45t103.5 45.5t24.5 146.5h192q0 -200 -69.5 -292t-250.5 -92q-179 0 -249.5 93t-70.5 291zM151 2196h256l128 -384h-128zM340 351q0 -159 128 -159 q27 0 52.5 16t38.5 31t32 40q3 5 5 7v354q-16 -11 -53 -34t-59 -37.5t-53 -40t-48 -49t-30 -57.5t-13 -71z" />
<glyph unicode="&#x1eb2;" d="M16 0l384 1792h256l384 -1792h-256l-96 448h-320l-96 -448h-256zM208 2296h192q0 -102 24.5 -147t103.5 -45t103.5 45.5t24.5 146.5h192q0 -200 -69.5 -292t-250.5 -92q-179 0 -249.5 93t-70.5 291zM310 2507v76q0 151 79 197q43 27 139 27q101 0 149 -38q60 -50 60 -179 q0 -83 -29.5 -139t-117.5 -89q-21 -7 -21 -47v-43h-101v86q0 78 19 109q15 24 62 48q37 15 37 75q0 61 -67 61q-101 -1 -95 -144h-114zM400 640h256l-128 768z" />
<glyph unicode="&#x1eb3;" horiz-adv-x="955" d="M84 283q0 93 31.5 169t66.5 121.5t117 94t124 66.5t146 59q18 7 27 11v92q0 97 -27 150.5t-101 53.5q-66 0 -94.5 -45.5t-32.5 -125.5q-1 -11 -1 -33h-256q2 184 103 293t281 109q179 0 281.5 -110.5t102.5 -291.5v-576q0 -200 33 -320h-255l-34 192q-20 -40 -32.5 -62 t-36.5 -54.5t-48 -50t-60 -30.5t-79 -13q-107 0 -181.5 92.5t-74.5 208.5zM136 1784h192q0 -102 24.5 -147t103.5 -45t103.5 45.5t24.5 146.5h192q0 -200 -69.5 -292t-250.5 -92q-179 0 -249.5 93t-70.5 291zM258 2044v76q0 151 79 197q43 27 139 27q101 0 149 -38 q60 -50 60 -179q0 -83 -29.5 -139t-117.5 -89q-21 -7 -21 -47v-43h-101v86q0 78 19 109q15 24 62 48q37 15 37 75q0 61 -67 61q-101 -1 -95 -144h-114zM340 351q0 -159 128 -159q27 0 52.5 16t38.5 31t32 40q3 5 5 7v354q-16 -11 -53 -34t-59 -37.5t-53 -40t-48 -49 t-30 -57.5t-13 -71z" />
<glyph unicode="&#x1eb4;" d="M16 0l384 1792h256l384 -1792h-256l-96 448h-320l-96 -448h-256zM208 2296h192q0 -102 24.5 -147t103.5 -45t103.5 45.5t24.5 146.5h192q0 -200 -69.5 -292t-250.5 -92q-179 0 -249.5 93t-70.5 291zM226 2390q0 116 57.5 194.5t162.5 78.5q58 0 145 -43t136 -43 q51 0 51 69h154q0 -117 -57.5 -196.5t-162.5 -79.5q-48 0 -98.5 22t-97.5 43.5t-88 21.5q-48 0 -48 -67h-154zM400 640h256l-128 768z" />
<glyph unicode="&#x1eb5;" horiz-adv-x="955" d="M84 283q0 93 31.5 169t66.5 121.5t117 94t124 66.5t146 59q18 7 27 11v92q0 97 -27 150.5t-101 53.5q-66 0 -94.5 -45.5t-32.5 -125.5q-1 -11 -1 -33h-256q2 184 103 293t281 109q179 0 281.5 -110.5t102.5 -291.5v-576q0 -200 33 -320h-255l-34 192q-20 -40 -32.5 -62 t-36.5 -54.5t-48 -50t-60 -30.5t-79 -13q-107 0 -181.5 92.5t-74.5 208.5zM136 1784h192q0 -102 24.5 -147t103.5 -45t103.5 45.5t24.5 146.5h192q0 -200 -69.5 -292t-250.5 -92q-179 0 -249.5 93t-70.5 291zM154 1924q0 116 57.5 194.5t162.5 78.5q58 0 145 -43t136 -43 q51 0 51 69h154q0 -117 -57.5 -196.5t-162.5 -79.5q-48 0 -98.5 22t-97.5 43.5t-88 21.5q-48 0 -48 -67h-154zM340 351q0 -159 128 -159q27 0 52.5 16t38.5 31t32 40q3 5 5 7v354q-16 -11 -53 -34t-59 -37.5t-53 -40t-48 -49t-30 -57.5t-13 -71z" />
<glyph unicode="&#x1eb6;" d="M16 0l384 1792h256l384 -1792h-256l-96 448h-320l-96 -448h-256zM208 2296h192q0 -102 24.5 -147t103.5 -45t103.5 45.5t24.5 146.5h192q0 -200 -69.5 -292t-250.5 -92q-179 0 -249.5 93t-70.5 291zM400 640h256l-128 768zM443 -173h265v-265h-265v265z" />
<glyph unicode="&#x1eb7;" horiz-adv-x="955" d="M84 283q0 93 31.5 169t66.5 121.5t117 94t124 66.5t146 59q18 7 27 11v92q0 97 -27 150.5t-101 53.5q-66 0 -94.5 -45.5t-32.5 -125.5q-1 -11 -1 -33h-256q2 184 103 293t281 109q179 0 281.5 -110.5t102.5 -291.5v-576q0 -200 33 -320h-255l-34 192q-20 -40 -32.5 -62 t-36.5 -54.5t-48 -50t-60 -30.5t-79 -13q-107 0 -181.5 92.5t-74.5 208.5zM136 1784h192q0 -102 24.5 -147t103.5 -45t103.5 45.5t24.5 146.5h192q0 -200 -69.5 -292t-250.5 -92q-179 0 -249.5 93t-70.5 291zM340 351q0 -159 128 -159q27 0 52.5 16t38.5 31t32 40q3 5 5 7 v354q-16 -11 -53 -34t-59 -37.5t-53 -40t-48 -49t-30 -57.5t-13 -71zM369 -173h265v-265h-265v265z" />
<glyph unicode="&#x1eb8;" horiz-adv-x="861" d="M128 0v1792h704v-192h-448v-576h320v-192h-320v-640h448v-192h-704zM347 -173h265v-265h-265v265z" />
<glyph unicode="&#x1eb9;" horiz-adv-x="933" d="M97 578q-3 84 0 168q3 100 13.5 177.5t36.5 150.5t67.5 120t109 75.5t157.5 28.5q82 0 144.5 -21.5t104 -65t69 -96.5t41.5 -128.5t19.5 -148.5t5.5 -168v-30h-512v-64v-41q-2 -37 -0.5 -76.5t3.5 -77.5t11 -72.5t22 -60.5t36.5 -41t55.5 -15q40 0 66 15.5t38.5 46.5 t17.5 62t6 78v54h254v-51q-9 -205 -101 -310t-283 -105q-93 0 -161.5 32t-109 83.5t-65.5 132t-34.5 161t-11.5 187.5zM353 768h254v77q-1 51 -6 89t-17.5 76t-38.5 58t-64 20q-39 0 -65.5 -21t-39 -60.5t-17.5 -77.5t-6 -91v-70zM368 -173h265v-265h-265v265z" />
<glyph unicode="&#x1eba;" horiz-adv-x="861" d="M128 0v1792h704v-192h-448v-576h320v-192h-320v-640h448v-192h-704zM290 2103v76q0 151 79 197q43 27 139 27q101 0 149 -38q60 -50 60 -179q0 -83 -29.5 -139t-117.5 -89q-21 -7 -21 -47v-43h-101v86q0 78 19 109q15 24 62 48q37 15 37 75q0 61 -67 61q-101 -1 -95 -144 h-114z" />
<glyph unicode="&#x1ebb;" horiz-adv-x="933" d="M97 578q-3 84 0 168q3 100 13.5 177.5t36.5 150.5t67.5 120t109 75.5t157.5 28.5q82 0 144.5 -21.5t104 -65t69 -96.5t41.5 -128.5t19.5 -148.5t5.5 -168v-30h-512v-64v-41q-2 -37 -0.5 -76.5t3.5 -77.5t11 -72.5t22 -60.5t36.5 -41t55.5 -15q40 0 66 15.5t38.5 46.5 t17.5 62t6 78v54h254v-51q-9 -205 -101 -310t-283 -105q-93 0 -161.5 32t-109 83.5t-65.5 132t-34.5 161t-11.5 187.5zM278 1643v76q0 151 79 197q43 27 139 27q101 0 149 -38q60 -50 60 -179q0 -83 -29.5 -139t-117.5 -89q-21 -7 -21 -47v-43h-101v86q0 78 19 109 q15 24 62 48q37 15 37 75q0 61 -67 61q-101 -1 -95 -144h-114zM353 768h254v77q-1 51 -6 89t-17.5 76t-38.5 58t-64 20q-39 0 -65.5 -21t-39 -60.5t-17.5 -77.5t-6 -91v-70z" />
<glyph unicode="&#x1ebc;" horiz-adv-x="861" d="M128 0v1792h704v-192h-448v-576h320v-192h-320v-640h448v-192h-704zM139 1861q0 116 57.5 194.5t162.5 78.5q58 0 145 -43t136 -43q51 0 51 69h154q0 -117 -57.5 -196.5t-162.5 -79.5q-48 0 -98.5 22t-97.5 43.5t-88 21.5q-48 0 -48 -67h-154z" />
<glyph unicode="&#x1ebd;" horiz-adv-x="933" d="M97 578q-3 84 0 168q3 100 13.5 177.5t36.5 150.5t67.5 120t109 75.5t157.5 28.5q82 0 144.5 -21.5t104 -65t69 -96.5t41.5 -128.5t19.5 -148.5t5.5 -168v-30h-512v-64v-41q-2 -37 -0.5 -76.5t3.5 -77.5t11 -72.5t22 -60.5t36.5 -41t55.5 -15q40 0 66 15.5t38.5 46.5 t17.5 62t6 78v54h254v-51q-9 -205 -101 -310t-283 -105q-93 0 -161.5 32t-109 83.5t-65.5 132t-34.5 161t-11.5 187.5zM170 1472q0 116 57.5 194.5t162.5 78.5q58 0 145 -43t136 -43q51 0 51 69h154q0 -117 -57.5 -196.5t-162.5 -79.5q-48 0 -98.5 22t-97.5 43.5t-88 21.5 q-48 0 -48 -67h-154zM353 768h254v77q-1 51 -6 89t-17.5 76t-38.5 58t-64 20q-39 0 -65.5 -21t-39 -60.5t-17.5 -77.5t-6 -91v-70z" />
<glyph unicode="&#x1ebe;" horiz-adv-x="861" d="M128 0v1792h704v-192h-448v-576h320v-192h-320v-640h448v-192h-704zM160 1912l192 384h256l192 -384h-192l-128 256l-128 -256h-192zM788 2087l128 384h256l-256 -384h-128z" />
<glyph unicode="&#x1ebf;" horiz-adv-x="933" d="M97 578q-3 84 0 168q3 100 13.5 177.5t36.5 150.5t67.5 120t109 75.5t157.5 28.5q82 0 144.5 -21.5t104 -65t69 -96.5t41.5 -128.5t19.5 -148.5t5.5 -168v-30h-512v-64v-41q-2 -37 -0.5 -76.5t3.5 -77.5t11 -72.5t22 -60.5t36.5 -41t55.5 -15q40 0 66 15.5t38.5 46.5 t17.5 62t6 78v54h254v-51q-9 -205 -101 -310t-283 -105q-93 0 -161.5 32t-109 83.5t-65.5 132t-34.5 161t-11.5 187.5zM160 1400l192 384h256l192 -384h-192l-128 256l-128 -256h-192zM353 768h254v77q-1 51 -6 89t-17.5 76t-38.5 58t-64 20q-39 0 -65.5 -21t-39 -60.5 t-17.5 -77.5t-6 -91v-70zM738 1568l128 384h256l-256 -384h-128z" />
<glyph unicode="&#x1ec0;" horiz-adv-x="861" d="M128 0v1792h704v-192h-448v-576h320v-192h-320v-640h448v-192h-704zM160 1912l192 384h256l192 -384h-192l-128 256l-128 -256h-192zM583 2471h256l128 -384h-128z" />
<glyph unicode="&#x1ec1;" horiz-adv-x="933" d="M97 578q-3 84 0 168q3 100 13.5 177.5t36.5 150.5t67.5 120t109 75.5t157.5 28.5q82 0 144.5 -21.5t104 -65t69 -96.5t41.5 -128.5t19.5 -148.5t5.5 -168v-30h-512v-64v-41q-2 -37 -0.5 -76.5t3.5 -77.5t11 -72.5t22 -60.5t36.5 -41t55.5 -15q40 0 66 15.5t38.5 46.5 t17.5 62t6 78v54h254v-51q-9 -205 -101 -310t-283 -105q-93 0 -161.5 32t-109 83.5t-65.5 132t-34.5 161t-11.5 187.5zM160 1400l192 384h256l192 -384h-192l-128 256l-128 -256h-192zM353 768h254v77q-1 51 -6 89t-17.5 76t-38.5 58t-64 20q-39 0 -65.5 -21t-39 -60.5 t-17.5 -77.5t-6 -91v-70zM552 1952h256l128 -384h-128z" />
<glyph unicode="&#x1ec2;" horiz-adv-x="861" d="M128 0v1792h704v-192h-448v-576h320v-192h-320v-640h448v-192h-704zM160 1912l192 384h256l192 -384h-192l-128 256l-128 -256h-192zM658 2396v76q0 151 79 197q43 27 139 27q101 0 149 -38q60 -50 60 -179q0 -83 -29.5 -139t-117.5 -89q-21 -7 -21 -47v-43h-101v86 q0 78 19 109q15 24 62 48q37 15 37 75q0 61 -67 61q-101 -1 -95 -144h-114z" />
<glyph unicode="&#x1ec3;" horiz-adv-x="933" d="M97 578q-3 84 0 168q3 100 13.5 177.5t36.5 150.5t67.5 120t109 75.5t157.5 28.5q82 0 144.5 -21.5t104 -65t69 -96.5t41.5 -128.5t19.5 -148.5t5.5 -168v-30h-512v-64v-41q-2 -37 -0.5 -76.5t3.5 -77.5t11 -72.5t22 -60.5t36.5 -41t55.5 -15q40 0 66 15.5t38.5 46.5 t17.5 62t6 78v54h254v-51q-9 -205 -101 -310t-283 -105q-93 0 -161.5 32t-109 83.5t-65.5 132t-34.5 161t-11.5 187.5zM160 1400l192 384h256l192 -384h-192l-128 256l-128 -256h-192zM353 768h254v77q-1 51 -6 89t-17.5 76t-38.5 58t-64 20q-39 0 -65.5 -21t-39 -60.5 t-17.5 -77.5t-6 -91v-70zM620 1950v76q0 151 79 197q43 27 139 27q101 0 149 -38q60 -50 60 -179q0 -83 -29.5 -139t-117.5 -89q-21 -7 -21 -47v-43h-101v86q0 78 19 109q15 24 62 48q37 15 37 75q0 61 -67 61q-101 -1 -95 -144h-114z" />
<glyph unicode="&#x1ec4;" horiz-adv-x="861" d="M128 0v1792h704v-192h-448v-576h320v-192h-320v-640h448v-192h-704zM152 2388q0 116 57.5 194.5t162.5 78.5q58 0 145 -43t136 -43q51 0 51 69h154q0 -117 -57.5 -196.5t-162.5 -79.5q-48 0 -98.5 22t-97.5 43.5t-88 21.5q-48 0 -48 -67h-154zM160 1912l192 384h256 l192 -384h-192l-128 256l-128 -256h-192z" />
<glyph unicode="&#x1ec5;" horiz-adv-x="933" d="M97 578q-3 84 0 168q3 100 13.5 177.5t36.5 150.5t67.5 120t109 75.5t157.5 28.5q82 0 144.5 -21.5t104 -65t69 -96.5t41.5 -128.5t19.5 -148.5t5.5 -168v-30h-512v-64v-41q-2 -37 -0.5 -76.5t3.5 -77.5t11 -72.5t22 -60.5t36.5 -41t55.5 -15q40 0 66 15.5t38.5 46.5 t17.5 62t6 78v54h254v-51q-9 -205 -101 -310t-283 -105q-93 0 -161.5 32t-109 83.5t-65.5 132t-34.5 161t-11.5 187.5zM143 1838q0 116 57.5 194.5t162.5 78.5q58 0 145 -43t136 -43q51 0 51 69h154q0 -117 -57.5 -196.5t-162.5 -79.5q-48 0 -98.5 22t-97.5 43.5t-88 21.5 q-48 0 -48 -67h-154zM160 1400l192 384h256l192 -384h-192l-128 256l-128 -256h-192zM353 768h254v77q-1 51 -6 89t-17.5 76t-38.5 58t-64 20q-39 0 -65.5 -21t-39 -60.5t-17.5 -77.5t-6 -91v-70z" />
<glyph unicode="&#x1ec6;" horiz-adv-x="861" d="M128 0v1792h704v-192h-448v-576h320v-192h-320v-640h448v-192h-704zM160 1912l192 384h256l192 -384h-192l-128 256l-128 -256h-192zM374 -173h265v-265h-265v265z" />
<glyph unicode="&#x1ec7;" horiz-adv-x="933" d="M97 578q-3 84 0 168q3 100 13.5 177.5t36.5 150.5t67.5 120t109 75.5t157.5 28.5q82 0 144.5 -21.5t104 -65t69 -96.5t41.5 -128.5t19.5 -148.5t5.5 -168v-30h-512v-64v-41q-2 -37 -0.5 -76.5t3.5 -77.5t11 -72.5t22 -60.5t36.5 -41t55.5 -15q40 0 66 15.5t38.5 46.5 t17.5 62t6 78v54h254v-51q-9 -205 -101 -310t-283 -105q-93 0 -161.5 32t-109 83.5t-65.5 132t-34.5 161t-11.5 187.5zM160 1400l192 384h256l192 -384h-192l-128 256l-128 -256h-192zM353 768h254v77q-1 51 -6 89t-17.5 76t-38.5 58t-64 20q-39 0 -65.5 -21t-39 -60.5 t-17.5 -77.5t-6 -91v-70zM371 -173h265v-265h-265v265z" />
<glyph unicode="&#x1ec8;" horiz-adv-x="542" d="M120 2103v76q0 151 79 197q43 27 139 27q101 0 149 -38q60 -50 60 -179q0 -83 -29.5 -139t-117.5 -89q-21 -7 -21 -47v-43h-101v86q0 78 19 109q15 24 62 48q37 15 37 75q0 61 -67 61q-101 -1 -95 -144h-114zM198 0v1792h256v-1792h-256z" />
<glyph unicode="&#x1ec9;" horiz-adv-x="512" d="M39 1643v76q0 151 79 197q43 27 139 27q101 0 149 -38q60 -50 60 -179q0 -83 -29.5 -139t-117.5 -89q-21 -7 -21 -47v-43h-101v86q0 78 19 109q15 24 62 48q37 15 37 75q0 61 -67 61q-101 -1 -95 -144h-114zM128 0v1280h256v-1280h-256z" />
<glyph unicode="&#x1eca;" horiz-adv-x="542" d="M140 0v1792h256v-1792h-256zM140 -173h265v-265h-265v265z" />
<glyph unicode="&#x1ecb;" horiz-adv-x="512" d="M126 -173h265v-265h-265v265zM128 0v1280h256v-1280h-256zM128 1472v256h256v-256h-256z" />
<glyph unicode="&#x1ecc;" horiz-adv-x="1180" d="M96 576v650q0 141 26 246t83 182.5t153.5 116.5t231.5 39q262 0 378 -150t116 -434v-650q0 -139 -26.5 -245.5t-83.5 -186t-153.5 -121t-230.5 -41.5q-135 0 -231.5 41t-153.5 120t-83 185.5t-26 247.5zM352 512q0 -158 51.5 -239t186.5 -81t186.5 81t51.5 239v778 q0 156 -51 233t-187 77t-187 -77t-51 -233v-778zM500 -173h265v-265h-265v265z" />
<glyph unicode="&#x1ecd;" horiz-adv-x="954" d="M93 448v384q0 226 89 346t295 120t295 -120t89 -346v-384q0 -226 -89 -346t-295 -120t-295 120t-89 346zM349 448q0 -37 0.5 -55.5t2.5 -50.5t7 -49t14 -39.5t22.5 -34t34 -19.5t47.5 -8t47.5 8t34 19.5t22.5 34t14 39.5t7 49t2.5 50.5t0.5 55.5v384q0 37 -0.5 55.5 t-2.5 50.5t-7 49t-14 39.5t-22.5 34t-34 19.5t-47.5 8t-47.5 -8t-34 -19.5t-22.5 -34t-14 -39.5t-7 -49t-2.5 -50.5t-0.5 -55.5v-384zM371 -173h265v-265h-265v265z" />
<glyph unicode="&#x1ece;" horiz-adv-x="1180" d="M96 576v650q0 141 26 246t83 182.5t153.5 116.5t231.5 39q262 0 378 -150t116 -434v-650q0 -139 -26.5 -245.5t-83.5 -186t-153.5 -121t-230.5 -41.5q-135 0 -231.5 41t-153.5 120t-83 185.5t-26 247.5zM352 512q0 -158 51.5 -239t186.5 -81t186.5 81t51.5 239v778 q0 156 -51 233t-187 77t-187 -77t-51 -233v-778zM443 2103v76q0 151 79 197q43 27 139 27q101 0 149 -38q60 -50 60 -179q0 -83 -29.5 -139t-117.5 -89q-21 -7 -21 -47v-43h-101v86q0 78 19 109q15 24 62 48q37 15 37 75q0 61 -67 61q-101 -1 -95 -144h-114z" />
<glyph unicode="&#x1ecf;" horiz-adv-x="954" d="M93 448v384q0 226 89 346t295 120t295 -120t89 -346v-384q0 -226 -89 -346t-295 -120t-295 120t-89 346zM278 1643v76q0 151 79 197q43 27 139 27q101 0 149 -38q60 -50 60 -179q0 -83 -29.5 -139t-117.5 -89q-21 -7 -21 -47v-43h-101v86q0 78 19 109q15 24 62 48 q37 15 37 75q0 61 -67 61q-101 -1 -95 -144h-114zM349 448q0 -37 0.5 -55.5t2.5 -50.5t7 -49t14 -39.5t22.5 -34t34 -19.5t47.5 -8t47.5 8t34 19.5t22.5 34t14 39.5t7 49t2.5 50.5t0.5 55.5v384q0 37 -0.5 55.5t-2.5 50.5t-7 49t-14 39.5t-22.5 34t-34 19.5t-47.5 8 t-47.5 -8t-34 -19.5t-22.5 -34t-14 -39.5t-7 -49t-2.5 -50.5t-0.5 -55.5v-384z" />
<glyph unicode="&#x1ed0;" horiz-adv-x="1180" d="M96 576v650q0 141 26 246t83 182.5t153.5 116.5t231.5 39q262 0 378 -150t116 -434v-650q0 -139 -26.5 -245.5t-83.5 -186t-153.5 -121t-230.5 -41.5q-135 0 -231.5 41t-153.5 120t-83 185.5t-26 247.5zM270 1912l192 384h256l192 -384h-192l-128 256l-128 -256h-192z M352 512q0 -158 51.5 -239t186.5 -81t186.5 81t51.5 239v778q0 156 -51 233t-187 77t-187 -77t-51 -233v-778zM908 2087l128 384h256l-256 -384h-128z" />
<glyph unicode="&#x1ed1;" horiz-adv-x="954" d="M93 448v384q0 226 89 346t295 120t295 -120t89 -346v-384q0 -226 -89 -346t-295 -120t-295 120t-89 346zM157 1400l192 384h256l192 -384h-192l-128 256l-128 -256h-192zM349 448q0 -37 0.5 -55.5t2.5 -50.5t7 -49t14 -39.5t22.5 -34t34 -19.5t47.5 -8t47.5 8t34 19.5 t22.5 34t14 39.5t7 49t2.5 50.5t0.5 55.5v384q0 37 -0.5 55.5t-2.5 50.5t-7 49t-14 39.5t-22.5 34t-34 19.5t-47.5 8t-47.5 -8t-34 -19.5t-22.5 -34t-14 -39.5t-7 -49t-2.5 -50.5t-0.5 -55.5v-384zM776 1568l128 384h256l-256 -384h-128z" />
<glyph unicode="&#x1ed2;" horiz-adv-x="1180" d="M96 576v650q0 141 26 246t83 182.5t153.5 116.5t231.5 39q262 0 378 -150t116 -434v-650q0 -139 -26.5 -245.5t-83.5 -186t-153.5 -121t-230.5 -41.5q-135 0 -231.5 41t-153.5 120t-83 185.5t-26 247.5zM270 1912l192 384h256l192 -384h-192l-128 256l-128 -256h-192z M352 512q0 -158 51.5 -239t186.5 -81t186.5 81t51.5 239v778q0 156 -51 233t-187 77t-187 -77t-51 -233v-778zM708 2471h256l128 -384h-128z" />
<glyph unicode="&#x1ed3;" horiz-adv-x="954" d="M93 448v384q0 226 89 346t295 120t295 -120t89 -346v-384q0 -226 -89 -346t-295 -120t-295 120t-89 346zM157 1400l192 384h256l192 -384h-192l-128 256l-128 -256h-192zM349 448q0 -37 0.5 -55.5t2.5 -50.5t7 -49t14 -39.5t22.5 -34t34 -19.5t47.5 -8t47.5 8t34 19.5 t22.5 34t14 39.5t7 49t2.5 50.5t0.5 55.5v384q0 37 -0.5 55.5t-2.5 50.5t-7 49t-14 39.5t-22.5 34t-34 19.5t-47.5 8t-47.5 -8t-34 -19.5t-22.5 -34t-14 -39.5t-7 -49t-2.5 -50.5t-0.5 -55.5v-384zM566 1952h256l128 -384h-128z" />
<glyph unicode="&#x1ed4;" horiz-adv-x="1180" d="M96 576v650q0 141 26 246t83 182.5t153.5 116.5t231.5 39q262 0 378 -150t116 -434v-650q0 -139 -26.5 -245.5t-83.5 -186t-153.5 -121t-230.5 -41.5q-135 0 -231.5 41t-153.5 120t-83 185.5t-26 247.5zM270 1912l192 384h256l192 -384h-192l-128 256l-128 -256h-192z M352 512q0 -158 51.5 -239t186.5 -81t186.5 81t51.5 239v778q0 156 -51 233t-187 77t-187 -77t-51 -233v-778zM757 2396v76q0 151 79 197q43 27 139 27q101 0 149 -38q60 -50 60 -179q0 -83 -29.5 -139t-117.5 -89q-21 -7 -21 -47v-43h-101v86q0 78 19 109q15 24 62 48 q37 15 37 75q0 61 -67 61q-101 -1 -95 -144h-114z" />
<glyph unicode="&#x1ed5;" horiz-adv-x="954" d="M93 448v384q0 226 89 346t295 120t295 -120t89 -346v-384q0 -226 -89 -346t-295 -120t-295 120t-89 346zM157 1400l192 384h256l192 -384h-192l-128 256l-128 -256h-192zM349 448q0 -37 0.5 -55.5t2.5 -50.5t7 -49t14 -39.5t22.5 -34t34 -19.5t47.5 -8t47.5 8t34 19.5 t22.5 34t14 39.5t7 49t2.5 50.5t0.5 55.5v384q0 37 -0.5 55.5t-2.5 50.5t-7 49t-14 39.5t-22.5 34t-34 19.5t-47.5 8t-47.5 -8t-34 -19.5t-22.5 -34t-14 -39.5t-7 -49t-2.5 -50.5t-0.5 -55.5v-384zM617 1950v76q0 151 79 197q43 27 139 27q101 0 149 -38q60 -50 60 -179 q0 -83 -29.5 -139t-117.5 -89q-21 -7 -21 -47v-43h-101v86q0 78 19 109q15 24 62 48q37 15 37 75q0 61 -67 61q-101 -1 -95 -144h-114z" />
<glyph unicode="&#x1ed6;" horiz-adv-x="1180" d="M96 576v650q0 141 26 246t83 182.5t153.5 116.5t231.5 39q262 0 378 -150t116 -434v-650q0 -139 -26.5 -245.5t-83.5 -186t-153.5 -121t-230.5 -41.5q-135 0 -231.5 41t-153.5 120t-83 185.5t-26 247.5zM257 2388q0 116 57.5 194.5t162.5 78.5q58 0 145 -43t136 -43 q51 0 51 69h154q0 -117 -57.5 -196.5t-162.5 -79.5q-48 0 -98.5 22t-97.5 43.5t-88 21.5q-48 0 -48 -67h-154zM270 1912l192 384h256l192 -384h-192l-128 256l-128 -256h-192zM352 512q0 -158 51.5 -239t186.5 -81t186.5 81t51.5 239v778q0 156 -51 233t-187 77t-187 -77 t-51 -233v-778z" />
<glyph unicode="&#x1ed7;" horiz-adv-x="954" d="M93 448v384q0 226 89 346t295 120t295 -120t89 -346v-384q0 -226 -89 -346t-295 -120t-295 120t-89 346zM143 1838q0 116 57.5 194.5t162.5 78.5q58 0 145 -43t136 -43q51 0 51 69h154q0 -117 -57.5 -196.5t-162.5 -79.5q-48 0 -98.5 22t-97.5 43.5t-88 21.5 q-48 0 -48 -67h-154zM157 1400l192 384h256l192 -384h-192l-128 256l-128 -256h-192zM349 448q0 -37 0.5 -55.5t2.5 -50.5t7 -49t14 -39.5t22.5 -34t34 -19.5t47.5 -8t47.5 8t34 19.5t22.5 34t14 39.5t7 49t2.5 50.5t0.5 55.5v384q0 37 -0.5 55.5t-2.5 50.5t-7 49t-14 39.5 t-22.5 34t-34 19.5t-47.5 8t-47.5 -8t-34 -19.5t-22.5 -34t-14 -39.5t-7 -49t-2.5 -50.5t-0.5 -55.5v-384z" />
<glyph unicode="&#x1ed8;" horiz-adv-x="1180" d="M96 576v650q0 141 26 246t83 182.5t153.5 116.5t231.5 39q262 0 378 -150t116 -434v-650q0 -139 -26.5 -245.5t-83.5 -186t-153.5 -121t-230.5 -41.5q-135 0 -231.5 41t-153.5 120t-83 185.5t-26 247.5zM270 1912l192 384h256l192 -384h-192l-128 256l-128 -256h-192z M352 512q0 -158 51.5 -239t186.5 -81t186.5 81t51.5 239v778q0 156 -51 233t-187 77t-187 -77t-51 -233v-778zM500 -173h265v-265h-265v265z" />
<glyph unicode="&#x1ed9;" horiz-adv-x="954" d="M93 448v384q0 226 89 346t295 120t295 -120t89 -346v-384q0 -226 -89 -346t-295 -120t-295 120t-89 346zM157 1400l192 384h256l192 -384h-192l-128 256l-128 -256h-192zM349 448q0 -37 0.5 -55.5t2.5 -50.5t7 -49t14 -39.5t22.5 -34t34 -19.5t47.5 -8t47.5 8t34 19.5 t22.5 34t14 39.5t7 49t2.5 50.5t0.5 55.5v384q0 37 -0.5 55.5t-2.5 50.5t-7 49t-14 39.5t-22.5 34t-34 19.5t-47.5 8t-47.5 -8t-34 -19.5t-22.5 -34t-14 -39.5t-7 -49t-2.5 -50.5t-0.5 -55.5v-384zM378 -173h265v-265h-265v265z" />
<glyph unicode="&#x1eda;" horiz-adv-x="1382" d="M96 576v650q0 141 26 246t83 182.5t153.5 116.5t231.5 39q262 0 378 -150q84 -109 107 -289q132 -9 157 18q32 35 25 147h-128v256h256q0 -144 -3 -242q-2 -54 -6 -91t-12 -75t-28.5 -66.5t-74.5 -46.5q-40 -13 -178 -13q1 -16 1 -32v-650q0 -139 -26.5 -245.5 t-83.5 -186t-153.5 -121t-230.5 -41.5q-135 0 -231.5 41t-153.5 120t-83 185.5t-26 247.5zM352 512q0 -158 51.5 -239t186.5 -81t186.5 81t51.5 239v778q0 156 -51 233t-187 77t-187 -77t-51 -233v-778zM533 1912l128 384h256l-256 -384h-128z" />
<glyph unicode="&#x1edb;" horiz-adv-x="1170" d="M93 448v384q0 226 89 346t295 120t295 -120q83 -113 89 -320q131 -8 155 19q32 35 25 147h-128v256h256q0 -144 -3 -242q-2 -54 -6 -91t-12 -75t-28.5 -66.5t-74.5 -46.5q-41 -13 -184 -13v-298q0 -226 -89 -346t-295 -120t-295 120t-89 346zM349 448q0 -37 0.5 -55.5 t2.5 -50.5t7 -49t14 -39.5t22.5 -34t34 -19.5t47.5 -8t47.5 8t34 19.5t22.5 34t14 39.5t7 49t2.5 50.5t0.5 55.5v384q0 37 -0.5 55.5t-2.5 50.5t-7 49t-14 39.5t-22.5 34t-34 19.5t-47.5 8t-47.5 -8t-34 -19.5t-22.5 -34t-14 -39.5t-7 -49t-2.5 -50.5t-0.5 -55.5v-384z M395 1382l128 384h256l-256 -384h-128z" />
<glyph unicode="&#x1edc;" horiz-adv-x="1382" d="M96 576v650q0 141 26 246t83 182.5t153.5 116.5t231.5 39q262 0 378 -150q84 -109 107 -289q132 -9 157 18q32 35 25 147h-128v256h256q0 -144 -3 -242q-2 -54 -6 -91t-12 -75t-28.5 -66.5t-74.5 -46.5q-40 -13 -178 -13q1 -16 1 -32v-650q0 -139 -26.5 -245.5 t-83.5 -186t-153.5 -121t-230.5 -41.5q-135 0 -231.5 41t-153.5 120t-83 185.5t-26 247.5zM345 2296h256l128 -384h-128zM352 512q0 -158 51.5 -239t186.5 -81t186.5 81t51.5 239v778q0 156 -51 233t-187 77t-187 -77t-51 -233v-778z" />
<glyph unicode="&#x1edd;" horiz-adv-x="1170" d="M93 448v384q0 226 89 346t295 120t295 -120q83 -113 89 -320q131 -8 155 19q32 35 25 147h-128v256h256q0 -144 -3 -242q-2 -54 -6 -91t-12 -75t-28.5 -66.5t-74.5 -46.5q-41 -13 -184 -13v-298q0 -226 -89 -346t-295 -120t-295 120t-89 346zM222 1792h256l128 -384h-128 zM349 448q0 -37 0.5 -55.5t2.5 -50.5t7 -49t14 -39.5t22.5 -34t34 -19.5t47.5 -8t47.5 8t34 19.5t22.5 34t14 39.5t7 49t2.5 50.5t0.5 55.5v384q0 37 -0.5 55.5t-2.5 50.5t-7 49t-14 39.5t-22.5 34t-34 19.5t-47.5 8t-47.5 -8t-34 -19.5t-22.5 -34t-14 -39.5t-7 -49 t-2.5 -50.5t-0.5 -55.5v-384z" />
<glyph unicode="&#x1ede;" horiz-adv-x="1382" d="M96 576v650q0 141 26 246t83 182.5t153.5 116.5t231.5 39q262 0 378 -150q84 -109 107 -289q132 -9 157 18q32 35 25 147h-128v256h256q0 -144 -3 -242q-2 -54 -6 -91t-12 -75t-28.5 -66.5t-74.5 -46.5q-40 -13 -178 -13q1 -16 1 -32v-650q0 -139 -26.5 -245.5 t-83.5 -186t-153.5 -121t-230.5 -41.5q-135 0 -231.5 41t-153.5 120t-83 185.5t-26 247.5zM352 512q0 -158 51.5 -239t186.5 -81t186.5 81t51.5 239v778q0 156 -51 233t-187 77t-187 -77t-51 -233v-778zM381 2103v76q0 151 79 197q43 27 139 27q101 0 149 -38 q60 -50 60 -179q0 -83 -29.5 -139t-117.5 -89q-21 -7 -21 -47v-43h-101v86q0 78 19 109q15 24 62 48q37 15 37 75q0 61 -67 61q-101 -1 -95 -144h-114z" />
<glyph unicode="&#x1edf;" horiz-adv-x="1170" d="M93 448v384q0 226 89 346t295 120t295 -120q83 -113 89 -320q131 -8 155 19q32 35 25 147h-128v256h256q0 -144 -3 -242q-2 -54 -6 -91t-12 -75t-28.5 -66.5t-74.5 -46.5q-41 -13 -184 -13v-298q0 -226 -89 -346t-295 -120t-295 120t-89 346zM278 1643v76q0 151 79 197 q43 27 139 27q101 0 149 -38q60 -50 60 -179q0 -83 -29.5 -139t-117.5 -89q-21 -7 -21 -47v-43h-101v86q0 78 19 109q15 24 62 48q37 15 37 75q0 61 -67 61q-101 -1 -95 -144h-114zM349 448q0 -37 0.5 -55.5t2.5 -50.5t7 -49t14 -39.5t22.5 -34t34 -19.5t47.5 -8t47.5 8 t34 19.5t22.5 34t14 39.5t7 49t2.5 50.5t0.5 55.5v384q0 37 -0.5 55.5t-2.5 50.5t-7 49t-14 39.5t-22.5 34t-34 19.5t-47.5 8t-47.5 -8t-34 -19.5t-22.5 -34t-14 -39.5t-7 -49t-2.5 -50.5t-0.5 -55.5v-384z" />
<glyph unicode="&#x1ee0;" horiz-adv-x="1382" d="M96 576v650q0 141 26 246t83 182.5t153.5 116.5t231.5 39q262 0 378 -150q84 -109 107 -289q132 -9 157 18q32 35 25 147h-128v256h256q0 -144 -3 -242q-2 -54 -6 -91t-12 -75t-28.5 -66.5t-74.5 -46.5q-40 -13 -178 -13q1 -16 1 -32v-650q0 -139 -26.5 -245.5 t-83.5 -186t-153.5 -121t-230.5 -41.5q-135 0 -231.5 41t-153.5 120t-83 185.5t-26 247.5zM289 1932q0 116 57.5 194.5t162.5 78.5q58 0 145 -43t136 -43q51 0 51 69h154q0 -117 -57.5 -196.5t-162.5 -79.5q-48 0 -98.5 22t-97.5 43.5t-88 21.5q-48 0 -48 -67h-154zM352 512 q0 -158 51.5 -239t186.5 -81t186.5 81t51.5 239v778q0 156 -51 233t-187 77t-187 -77t-51 -233v-778z" />
<glyph unicode="&#x1ee1;" horiz-adv-x="1170" d="M93 448v384q0 226 89 346t295 120t295 -120q83 -113 89 -320q131 -8 155 19q32 35 25 147h-128v256h256q0 -144 -3 -242q-2 -54 -6 -91t-12 -75t-28.5 -66.5t-74.5 -46.5q-41 -13 -184 -13v-298q0 -226 -89 -346t-295 -120t-295 120t-89 346zM164 1472q0 116 57.5 194.5 t162.5 78.5q58 0 145 -43t136 -43q51 0 51 69h154q0 -117 -57.5 -196.5t-162.5 -79.5q-48 0 -98.5 22t-97.5 43.5t-88 21.5q-48 0 -48 -67h-154zM349 448q0 -37 0.5 -55.5t2.5 -50.5t7 -49t14 -39.5t22.5 -34t34 -19.5t47.5 -8t47.5 8t34 19.5t22.5 34t14 39.5t7 49 t2.5 50.5t0.5 55.5v384q0 37 -0.5 55.5t-2.5 50.5t-7 49t-14 39.5t-22.5 34t-34 19.5t-47.5 8t-47.5 -8t-34 -19.5t-22.5 -34t-14 -39.5t-7 -49t-2.5 -50.5t-0.5 -55.5v-384z" />
<glyph unicode="&#x1ee2;" horiz-adv-x="1382" d="M96 576v650q0 141 26 246t83 182.5t153.5 116.5t231.5 39q262 0 378 -150q84 -109 107 -289q132 -9 157 18q32 35 25 147h-128v256h256q0 -144 -3 -242q-2 -54 -6 -91t-12 -75t-28.5 -66.5t-74.5 -46.5q-40 -13 -178 -13q1 -16 1 -32v-650q0 -139 -26.5 -245.5 t-83.5 -186t-153.5 -121t-230.5 -41.5q-135 0 -231.5 41t-153.5 120t-83 185.5t-26 247.5zM352 512q0 -158 51.5 -239t186.5 -81t186.5 81t51.5 239v778q0 156 -51 233t-187 77t-187 -77t-51 -233v-778zM500 -173h265v-265h-265v265z" />
<glyph unicode="&#x1ee3;" horiz-adv-x="1170" d="M93 448v384q0 226 89 346t295 120t295 -120q83 -113 89 -320q131 -8 155 19q32 35 25 147h-128v256h256q0 -144 -3 -242q-2 -54 -6 -91t-12 -75t-28.5 -66.5t-74.5 -46.5q-41 -13 -184 -13v-298q0 -226 -89 -346t-295 -120t-295 120t-89 346zM349 448q0 -37 0.5 -55.5 t2.5 -50.5t7 -49t14 -39.5t22.5 -34t34 -19.5t47.5 -8t47.5 8t34 19.5t22.5 34t14 39.5t7 49t2.5 50.5t0.5 55.5v384q0 37 -0.5 55.5t-2.5 50.5t-7 49t-14 39.5t-22.5 34t-34 19.5t-47.5 8t-47.5 -8t-34 -19.5t-22.5 -34t-14 -39.5t-7 -49t-2.5 -50.5t-0.5 -55.5v-384z M371 -173h265v-265h-265v265z" />
<glyph unicode="&#x1ee4;" horiz-adv-x="1252" d="M114 640v1152h256v-1152q0 -83 3.5 -139t18.5 -119.5t41.5 -101.5t75 -63t117.5 -25t117.5 25t75 63t41.5 101.5t18.5 119.5t3.5 139v1152h256v-1152q0 -123 -15 -220.5t-51 -181.5t-93.5 -139.5t-146.5 -86.5t-206 -31t-206 31t-146.5 86.5t-93.5 139.5t-51 181.5 t-15 220.5zM537 -173h265v-265h-265v265z" />
<glyph unicode="&#x1ee5;" horiz-adv-x="987" d="M114 189v1091h256v-1013q0 -40 24.5 -65t63.5 -25q21 0 41 5t39.5 17.5t30.5 20t31.5 25.5t25.5 22v1013h256v-1280h-256v138q-38 -33 -55.5 -48t-53.5 -40.5t-63.5 -37t-68.5 -21t-85 -9.5q-84 0 -135 59.5t-51 147.5zM405 -173h265v-265h-265v265z" />
<glyph unicode="&#x1ee6;" horiz-adv-x="1252" d="M114 640v1152h256v-1152q0 -83 3.5 -139t18.5 -119.5t41.5 -101.5t75 -63t117.5 -25t117.5 25t75 63t41.5 101.5t18.5 119.5t3.5 139v1152h256v-1152q0 -123 -15 -220.5t-51 -181.5t-93.5 -139.5t-146.5 -86.5t-206 -31t-206 31t-146.5 86.5t-93.5 139.5t-51 181.5 t-15 220.5zM444 2103v76q0 151 79 197q43 27 139 27q101 0 149 -38q60 -50 60 -179q0 -83 -29.5 -139t-117.5 -89q-21 -7 -21 -47v-43h-101v86q0 78 19 109q15 24 62 48q37 15 37 75q0 61 -67 61q-101 -1 -95 -144h-114z" />
<glyph unicode="&#x1ee7;" horiz-adv-x="987" d="M114 189v1091h256v-1013q0 -40 24.5 -65t63.5 -25q21 0 41 5t39.5 17.5t30.5 20t31.5 25.5t25.5 22v1013h256v-1280h-256v138q-38 -33 -55.5 -48t-53.5 -40.5t-63.5 -37t-68.5 -21t-85 -9.5q-84 0 -135 59.5t-51 147.5zM278 1643v76q0 151 79 197q43 27 139 27 q101 0 149 -38q60 -50 60 -179q0 -83 -29.5 -139t-117.5 -89q-21 -7 -21 -47v-43h-101v86q0 78 19 109q15 24 62 48q37 15 37 75q0 61 -67 61q-101 -1 -95 -144h-114z" />
<glyph unicode="&#x1ee8;" horiz-adv-x="1465" d="M114 640v1152h256v-1152q0 -83 3.5 -139t18.5 -119.5t41.5 -101.5t75 -63t117.5 -25t117.5 25t75 63t41.5 101.5t18.5 119.5t3.5 139v1152h256v-420q147 -11 173 17q32 35 25 147h-128v256h256q0 -144 -3 -242q-2 -54 -6 -91t-12 -75t-28.5 -66.5t-74.5 -46.5 q-44 -14 -202 -13v-618q0 -123 -15 -220.5t-51 -181.5t-93.5 -139.5t-146.5 -86.5t-206 -31t-206 31t-146.5 86.5t-93.5 139.5t-51 181.5t-15 220.5zM622 1912l128 384h256l-256 -384h-128z" />
<glyph unicode="&#x1ee9;" horiz-adv-x="1206" d="M114 189v1091h256v-1013q0 -40 24.5 -65t63.5 -25q21 0 41 5t39.5 17.5t30.5 20t31.5 25.5t25.5 22v1013h256v-420q145 -11 171 17q32 35 25 147h-128v256h256q0 -144 -3 -242q-2 -54 -6 -91t-12 -75t-28.5 -66.5t-74.5 -46.5q-43 -14 -200 -13v-746h-256v138 q-38 -33 -55.5 -48t-53.5 -40.5t-63.5 -37t-68.5 -21t-85 -9.5q-84 0 -135 59.5t-51 147.5zM434 1408l128 384h256l-256 -384h-128z" />
<glyph unicode="&#x1eea;" horiz-adv-x="1465" d="M114 640v1152h256v-1152q0 -83 3.5 -139t18.5 -119.5t41.5 -101.5t75 -63t117.5 -25t117.5 25t75 63t41.5 101.5t18.5 119.5t3.5 139v1152h256v-420q147 -11 173 17q32 35 25 147h-128v256h256q0 -144 -3 -242q-2 -54 -6 -91t-12 -75t-28.5 -66.5t-74.5 -46.5 q-44 -14 -202 -13v-618q0 -123 -15 -220.5t-51 -181.5t-93.5 -139.5t-146.5 -86.5t-206 -31t-206 31t-146.5 86.5t-93.5 139.5t-51 181.5t-15 220.5zM345 2296h256l128 -384h-128z" />
<glyph unicode="&#x1eeb;" horiz-adv-x="1206" d="M114 189v1091h256v-1013q0 -40 24.5 -65t63.5 -25q21 0 41 5t39.5 17.5t30.5 20t31.5 25.5t25.5 22v1013h256v-420q145 -11 171 17q32 35 25 147h-128v256h256q0 -144 -3 -242q-2 -54 -6 -91t-12 -75t-28.5 -66.5t-74.5 -46.5q-43 -14 -200 -13v-746h-256v138 q-38 -33 -55.5 -48t-53.5 -40.5t-63.5 -37t-68.5 -21t-85 -9.5q-84 0 -135 59.5t-51 147.5zM186 1792h256l128 -384h-128z" />
<glyph unicode="&#x1eec;" horiz-adv-x="1465" d="M114 640v1152h256v-1152q0 -83 3.5 -139t18.5 -119.5t41.5 -101.5t75 -63t117.5 -25t117.5 25t75 63t41.5 101.5t18.5 119.5t3.5 139v1152h256v-420q147 -11 173 17q32 35 25 147h-128v256h256q0 -144 -3 -242q-2 -54 -6 -91t-12 -75t-28.5 -66.5t-74.5 -46.5 q-44 -14 -202 -13v-618q0 -123 -15 -220.5t-51 -181.5t-93.5 -139.5t-146.5 -86.5t-206 -31t-206 31t-146.5 86.5t-93.5 139.5t-51 181.5t-15 220.5zM444 2103v76q0 151 79 197q43 27 139 27q101 0 149 -38q60 -50 60 -179q0 -83 -29.5 -139t-117.5 -89q-21 -7 -21 -47v-43 h-101v86q0 78 19 109q15 24 62 48q37 15 37 75q0 61 -67 61q-101 -1 -95 -144h-114z" />
<glyph unicode="&#x1eed;" horiz-adv-x="1206" d="M114 189v1091h256v-1013q0 -40 24.5 -65t63.5 -25q21 0 41 5t39.5 17.5t30.5 20t31.5 25.5t25.5 22v1013h256v-420q145 -11 171 17q32 35 25 147h-128v256h256q0 -144 -3 -242q-2 -54 -6 -91t-12 -75t-28.5 -66.5t-74.5 -46.5q-43 -14 -200 -13v-746h-256v138 q-38 -33 -55.5 -48t-53.5 -40.5t-63.5 -37t-68.5 -21t-85 -9.5q-84 0 -135 59.5t-51 147.5zM312 1643v76q0 151 79 197q43 27 139 27q101 0 149 -38q60 -50 60 -179q0 -83 -29.5 -139t-117.5 -89q-21 -7 -21 -47v-43h-101v86q0 78 19 109q15 24 62 48q37 15 37 75 q0 61 -67 61q-101 -1 -95 -144h-114z" />
<glyph unicode="&#x1eee;" horiz-adv-x="1465" d="M114 640v1152h256v-1152q0 -83 3.5 -139t18.5 -119.5t41.5 -101.5t75 -63t117.5 -25t117.5 25t75 63t41.5 101.5t18.5 119.5t3.5 139v1152h256v-420q147 -11 173 17q32 35 25 147h-128v256h256q0 -144 -3 -242q-2 -54 -6 -91t-12 -75t-28.5 -66.5t-74.5 -46.5 q-44 -14 -202 -13v-618q0 -123 -15 -220.5t-51 -181.5t-93.5 -139.5t-146.5 -86.5t-206 -31t-206 31t-146.5 86.5t-93.5 139.5t-51 181.5t-15 220.5zM289 1932q0 116 57.5 194.5t162.5 78.5q58 0 145 -43t136 -43q51 0 51 69h154q0 -117 -57.5 -196.5t-162.5 -79.5 q-48 0 -98.5 22t-97.5 43.5t-88 21.5q-48 0 -48 -67h-154z" />
<glyph unicode="&#x1eef;" horiz-adv-x="1206" d="M114 189v1091h256v-1013q0 -40 24.5 -65t63.5 -25q21 0 41 5t39.5 17.5t30.5 20t31.5 25.5t25.5 22v1013h256v-420q145 -11 171 17q32 35 25 147h-128v256h256q0 -144 -3 -242q-2 -54 -6 -91t-12 -75t-28.5 -66.5t-74.5 -46.5q-43 -14 -200 -13v-746h-256v138 q-38 -33 -55.5 -48t-53.5 -40.5t-63.5 -37t-68.5 -21t-85 -9.5q-84 0 -135 59.5t-51 147.5zM212 1472q0 116 57.5 194.5t162.5 78.5q58 0 145 -43t136 -43q51 0 51 69h154q0 -117 -57.5 -196.5t-162.5 -79.5q-48 0 -98.5 22t-97.5 43.5t-88 21.5q-48 0 -48 -67h-154z" />
<glyph unicode="&#x1ef0;" horiz-adv-x="1465" d="M114 640v1152h256v-1152q0 -83 3.5 -139t18.5 -119.5t41.5 -101.5t75 -63t117.5 -25t117.5 25t75 63t41.5 101.5t18.5 119.5t3.5 139v1152h256v-420q147 -11 173 17q32 35 25 147h-128v256h256q0 -144 -3 -242q-2 -54 -6 -91t-12 -75t-28.5 -66.5t-74.5 -46.5 q-44 -14 -202 -13v-618q0 -123 -15 -220.5t-51 -181.5t-93.5 -139.5t-146.5 -86.5t-206 -31t-206 31t-146.5 86.5t-93.5 139.5t-51 181.5t-15 220.5zM537 -173h265v-265h-265v265z" />
<glyph unicode="&#x1ef1;" horiz-adv-x="1206" d="M114 189v1091h256v-1013q0 -40 24.5 -65t63.5 -25q21 0 41 5t39.5 17.5t30.5 20t31.5 25.5t25.5 22v1013h256v-420q145 -11 171 17q32 35 25 147h-128v256h256q0 -144 -3 -242q-2 -54 -6 -91t-12 -75t-28.5 -66.5t-74.5 -46.5q-43 -14 -200 -13v-746h-256v138 q-38 -33 -55.5 -48t-53.5 -40.5t-63.5 -37t-68.5 -21t-85 -9.5q-84 0 -135 59.5t-51 147.5zM405 -173h265v-265h-265v265z" />
<glyph unicode="&#x1ef2;" horiz-adv-x="1018" d="M-3 1792h256l256 -896l256 896h256l-384 -1216v-576h-256v576zM189 2296h256l128 -384h-128z" />
<glyph unicode="&#x1ef3;" horiz-adv-x="872" d="M20 1280h256q149 -823 161 -896q21 135 47.5 284.5t60 330t51.5 281.5h256l-320 -1344q-32 -139 -135 -197.5t-287 -58.5h-26v192q76 0 121.5 10t68.5 35.5t29.5 56t6.5 84.5zM106 1784h256l128 -384h-128z" />
<glyph unicode="&#x1ef4;" horiz-adv-x="1018" d="M-3 1792h256l256 -896l256 896h256l-384 -1216v-576h-256v576zM371 -173h265v-265h-265v265z" />
<glyph unicode="&#x1ef5;" horiz-adv-x="872" d="M20 1280h256q149 -823 161 -896q21 135 47.5 284.5t60 330t51.5 281.5h256l-320 -1344q-32 -139 -135 -197.5t-287 -58.5h-26v192q76 0 121.5 10t68.5 35.5t29.5 56t6.5 84.5zM576 -173h265v-265h-265v265z" />
<glyph unicode="&#x1ef6;" horiz-adv-x="1018" d="M-3 1792h256l256 -896l256 896h256l-384 -1216v-576h-256v576zM232 2103v76q0 151 79 197q43 27 139 27q101 0 149 -38q60 -50 60 -179q0 -83 -29.5 -139t-117.5 -89q-21 -7 -21 -47v-43h-101v86q0 78 19 109q15 24 62 48q37 15 37 75q0 61 -67 61q-101 -1 -95 -144h-114 z" />
<glyph unicode="&#x1ef7;" horiz-adv-x="872" d="M20 1280h256q149 -823 161 -896q21 135 47.5 284.5t60 330t51.5 281.5h256l-320 -1344q-32 -139 -135 -197.5t-287 -58.5h-26v192q76 0 121.5 10t68.5 35.5t29.5 56t6.5 84.5zM213 1643v76q0 151 79 197q43 27 139 27q101 0 149 -38q60 -50 60 -179q0 -83 -29.5 -139 t-117.5 -89q-21 -7 -21 -47v-43h-101v86q0 78 19 109q15 24 62 48q37 15 37 75q0 61 -67 61q-101 -1 -95 -144h-114z" />
<glyph unicode="&#x1ef8;" horiz-adv-x="1018" d="M-3 1792h256l256 -896l256 896h256l-384 -1216v-576h-256v576zM128 1932q0 116 57.5 194.5t162.5 78.5q58 0 145 -43t136 -43q51 0 51 69h154q0 -117 -57.5 -196.5t-162.5 -79.5q-48 0 -98.5 22t-97.5 43.5t-88 21.5q-48 0 -48 -67h-154z" />
<glyph unicode="&#x1ef9;" horiz-adv-x="872" d="M20 1280h256q149 -823 161 -896q21 135 47.5 284.5t60 330t51.5 281.5h256l-320 -1344q-32 -139 -135 -197.5t-287 -58.5h-26v192q76 0 121.5 10t68.5 35.5t29.5 56t6.5 84.5zM127 1472q0 116 57.5 194.5t162.5 78.5q58 0 145 -43t136 -43q51 0 51 69h154 q0 -117 -57.5 -196.5t-162.5 -79.5q-48 0 -98.5 22t-97.5 43.5t-88 21.5q-48 0 -48 -67h-154z" />
<glyph unicode="&#x2000;" horiz-adv-x="1403" />
<glyph unicode="&#x2001;" horiz-adv-x="2807" />
<glyph unicode="&#x2002;" horiz-adv-x="1403" />
<glyph unicode="&#x2003;" horiz-adv-x="2807" />
<glyph unicode="&#x2004;" horiz-adv-x="935" />
<glyph unicode="&#x2005;" horiz-adv-x="701" />
<glyph unicode="&#x2006;" horiz-adv-x="467" />
<glyph unicode="&#x2007;" horiz-adv-x="467" />
<glyph unicode="&#x2008;" horiz-adv-x="350" />
<glyph unicode="&#x2009;" horiz-adv-x="561" />
<glyph unicode="&#x200a;" horiz-adv-x="155" />
<glyph unicode="&#x2010;" horiz-adv-x="384" d="M0 448v192h384v-192h-384z" />
<glyph unicode="&#x2011;" horiz-adv-x="384" d="M0 448v192h384v-192h-384z" />
<glyph unicode="&#x2012;" horiz-adv-x="384" d="M0 448v192h384v-192h-384z" />
<glyph unicode="&#x2013;" horiz-adv-x="1024" d="M0 448v192h1024v-192h-1024z" />
<glyph unicode="&#x2014;" horiz-adv-x="2048" d="M0 448v192h2048v-192h-2048z" />
<glyph unicode="&#x202f;" horiz-adv-x="561" />
<glyph unicode="&#x205f;" horiz-adv-x="701" />
<glyph unicode="&#x25fc;" horiz-adv-x="1280" d="M0 0v1280h1280v-1280h-1280z" />
</font>
</defs>
</svg>
