<?xml version="1.0" standalone="no"?>
<!DOCTYPE svg PUBLIC "-//W3C//DTD SVG 1.1//EN" "http://www.w3.org/Graphics/SVG/1.1/DTD/svg11.dtd" >
<svg xmlns="http://www.w3.org/2000/svg">
<metadata></metadata>
<defs>
<font id="fujiyama-lightcondensedRg" horiz-adv-x="717" >
<font-face units-per-em="2048" ascent="1638" descent="-410" />
<missing-glyph horiz-adv-x="424" />
<glyph horiz-adv-x="2048" />
<glyph horiz-adv-x="2048" />
<glyph unicode="&#xd;" horiz-adv-x="0" />
<glyph unicode=" "  horiz-adv-x="424" />
<glyph unicode="&#x09;" horiz-adv-x="424" />
<glyph unicode="&#xa0;" horiz-adv-x="424" />
<glyph unicode="!" horiz-adv-x="705" d="M248 84q0 53 33 80q35 29 71 29q35 0 72 -29q33 -31 33 -76q0 -36 -31 -72q-26 -32 -74 -32q-47 0 -73 32q-31 31 -31 68zM285 387v1157h135v-1157h-135z" />
<glyph unicode="&#x22;" horiz-adv-x="633" d="M117 1544h151l-16 -461h-121zM369 1544h151l-16 -461h-119z" />
<glyph unicode="#" horiz-adv-x="852" d="M-4 512l33 104h198l70 269h-201l29 102h194l138 537h96l-133 -537h139l137 537h97l-138 -537h201l-33 -102h-186l-74 -269h197l-33 -104h-186l-125 -512h-105l133 512h-145l-131 -512h-96l133 512h-209zM324 616h145l68 269h-142z" />
<glyph unicode="$" horiz-adv-x="852" d="M59 1153q0 141 70 248q66 106 236 139v184h100v-180q135 -6 256 -92l-74 -109q-19 15 -80 43q-57 25 -139 25q-62 0 -115 -29q-52 -31 -84 -84q-29 -49 -32 -122q4 -4 4 -13q6 -81 37 -135q35 -60 90 -96q66 -48 155 -96q103 -58 164 -113q69 -62 107 -143 q39 -84 39 -203q-7 -56 -35 -135q-28 -76 -101 -148q-68 -68 -192 -90v-197h-100v193q-88 10 -159.5 44t-121.5 87l88 100q125 -100 236 -100q107 3 167 68q63 66 72 178q0 118 -55 194q-57 81 -172 138q-111 57 -191 120q-75 61 -123 142q-44 75 -47 182z" />
<glyph unicode="%" horiz-adv-x="1067" d="M47 1124q4 34 4 64q3 137 19 211q16 76 49 114q31 37 100 52q209 0 209 -357v-80q0 -353 -184 -356q-191 0 -197 352zM135 1116q3 -118 31 -190q27 -74 74 -74q65 9 84 100q16 99 16 228q0 139 -18 225q-23 84 -82 84q-37 0 -60 -35q-18 -28 -28 -80q-5 -33 -9 -94 q-1 -24 -1.5 -43t-2.5 -45q0 -38 -4 -76zM164 0l676 1544h63l-667 -1544h-72zM641 346v57q3 191 41 275q40 88 137 94q109 0 152 -94q42 -104 45 -250v-59q0 -137 -19 -217q-21 -89 -63 -129q-43 -43 -115 -43q-93 6 -137 96q-41 90 -41 270zM725 373q0 -91 6 -156 q6 -70 31 -115q22 -47 65 -47q37 3 60 37q21 37 31 88q6 36 10 117q4 93 4 90q0 305 -113 305q-94 -9 -94 -319z" />
<glyph unicode="&#x26;" horiz-adv-x="1083" d="M143 403q3 129 70 248q70 118 164 193q-61 110 -78 147q-24 49 -43 111q-20 64 -20 137q0 94 43 164q39 71 110 104q70 37 148 37q106 0 184 -63q79 -67 94 -181q4 -36 4 -45q0 -88 -47 -176q-46 -82 -100 -139q-53 -56 -127 -121l266 -512l109 133l96 -92l-139 -160 l96 -188h-150l-43 84q-42 -44 -118 -72q-78 -28 -154 -28q-164 0 -254 120q-88 120 -111 299zM285 395q9 -111 69 -196q58 -84 166 -90q103 6 201 92l-281 520q-146 -153 -155 -326zM373 1243q0 -68 30 -151q25 -73 76 -160q62 44 109 104q50 65 69 115q23 57 23 100 q0 78 -43 121t-109 43q-61 0 -108 -47t-47 -125z" />
<glyph unicode="'" horiz-adv-x="461" d="M76 1087l160 478l145 -70l-205 -455z" />
<glyph unicode="(" horiz-adv-x="616" d="M193 700q3 160 28 289q27 151 82 291q34 85 67 151.5t79 137.5l104 -45q-56 -92 -102 -196t-75 -205t-45.5 -209.5t-19.5 -225.5q3 -163 37 -326q35 -155 90 -280q50 -121 115 -217l-104 -45q-56 85 -121 231q-56 126 -95 301q-37 160 -40 348z" />
<glyph unicode=")" horiz-adv-x="616" d="M63 -135q236 376 236 819q0 121 -18 244t-52 225q-69 223 -166 371l105 41q107 -160 176 -383q36 -116 54 -239t18 -255q0 -116 -15 -209q-13 -109 -43 -213q-24 -96 -77 -221q-46 -111 -117 -225z" />
<glyph unicode="*" horiz-adv-x="848" d="M63 1255l29 76l293 -94v307h80v-307l295 94l28 -76l-296 -96l184 -252l-68 -47l-184 248l-180 -248l-68 47l184 252z" />
<glyph unicode="+" horiz-adv-x="907" d="M43 471v104h360v453h105v-453h360v-104h-360v-446h-105v446h-360z" />
<glyph unicode="," horiz-adv-x="424" d="M41 -285l160 478l143 -64l-205 -457z" />
<glyph unicode="-" horiz-adv-x="319" d="M0 571v164h319v-164h-319z" />
<glyph unicode="." horiz-adv-x="424" d="M109 92q0 40 30 72q34 29 74 29q36 0 72 -31q30 -31 30 -74v-4q0 -40 -30 -72q-33 -28 -72 -28q-46 0 -74 32q-30 31 -30 76z" />
<glyph unicode="/" horiz-adv-x="952" d="M-37 -444l885 2043l20 41h119l-878 -2043l-21 -41h-125z" />
<glyph unicode="0" horiz-adv-x="852" d="M72 780q4 42 4 72q0 332 83.5 520t256.5 197q156 0 233 -121q78 -118 101 -277q22 -163 22 -327q0 -206 -8 -326q-9 -135 -39 -254q-36 -126 -100 -198q-67 -77 -181 -86q-160 0 -243 129q-82 126 -105 297q-21 168 -24 374zM215 713q3 -158 18 -287q17 -134 58 -223 q46 -94 125 -94q95 3 141 85.5t61 211.5q15 113 15 299v139q0 314 -51 452q-53 136 -158 136q-86 0 -133 -84q-44 -83 -58 -211q-14 -118 -14 -285q0 -61 -4 -139z" />
<glyph unicode="1" horiz-adv-x="852" d="M176 1411l33 133h311v-1544h-139v1411h-205z" />
<glyph unicode="2" horiz-adv-x="852" d="M88 0l404 831q104 220 104 386q0 97 -35 153q-35 54 -104 62q-106 0 -156 -68t-53 -209q4 -12 4 -31h-139q0 213 77 328q77 113 213 113q64 0 121 -17q211 -67 211 -331q0 -208 -131 -474l-305 -614h422v-129h-633z" />
<glyph unicode="3" horiz-adv-x="852" d="M96 365q4 28 4 59h136q0 -141 32 -221q35 -84 152 -90q180 0 180 331q0 158 -45 226q-47 74 -113 92q-64 18 -170 18v131q74 5 103 7q55 3 102 24q44 17 74 72q29 56 29 145q0 134 -33 205q-35 69 -123 72q-89 0 -129 -58t-43 -178q4 -4 4 -16h-139q0 179 78 280 q79 101 241 101q144 -6 215 -109q70 -100 70 -252q0 -124 -49 -225.5t-127 -122.5q185 -74 194 -395q0 -232 -73 -357q-71 -124 -238 -124q-323 0 -332 385z" />
<glyph unicode="4" horiz-adv-x="852" d="M88 416v143l412 985h137v-1003h115v-125h-115v-416h-141v416h-408zM219 541h277q0 120 -4 194q3 183 6 277q2 59 10 186q7 109 8 119h-4z" />
<glyph unicode="5" horiz-adv-x="852" d="M113 68l39 141q98 -86 217 -92q96 3 161 84q64 82 70 256q0 110 -31 188q-33 80 -92 121q-58 43 -141 43q-88 0 -201 -61l96 796h461v-125h-344l-55 -479q28 4 76 4q97 0 180 -47q80 -45 133 -149q50 -97 53 -265q0 -254 -100 -379q-100 -124 -258 -124q-141 0 -264 88z " />
<glyph unicode="6" horiz-adv-x="852" d="M106 420q0 49 3 63q18 260 118 490l238 571h147l-305 -717l4 -8q83 58 158 58q105 0 166 -76q63 -78 86 -183q22 -112 22 -215q0 -113 -26 -204q-28 -96 -99 -156q-69 -63 -190 -63q-114 3 -186 63t-103 160q-33 97 -33 217zM246 428q0 -136 47 -225q45 -91 135 -94 q178 0 178 315q0 16 -2 29v26q-9 133 -51 203q-42 67 -129 70q-161 0 -176 -273q-2 -10 -2 -51z" />
<glyph unicode="7" horiz-adv-x="852" d="M117 1419v125h635l-476 -1544h-151l434 1419h-442z" />
<glyph unicode="8" horiz-adv-x="852" d="M96 416q4 12 4 16q6 353 197 424q-162 88 -162 340q0 82 29 166q30 85 100 143q72 60 180 60q145 -3 218 -103q70 -97 73 -241q0 -155 -39 -234q-41 -87 -121 -131q55 -32 91 -72q34 -41 55 -116q23 -85 27 -203v-43q0 -211 -82 -324q-83 -115 -242 -118q-82 0 -139 32 q-63 32 -103 90q-42 58 -63 140q-20 67 -23 174zM240 449q0 -136 36 -238q39 -99 132 -102q2 2 5 3l3 1h4q88 3 139 75q49 71 49 277q0 157 -47 242q-46 81 -129 81q-115 0 -151 -98q-38 -99 -41 -241zM276 1192q0 -129 38.5 -196t113.5 -72q89 0 128.5 68.5t39.5 178.5v46 q-9 123 -55 169q-47 50 -105 50q-160 0 -160 -244z" />
<glyph unicode="9" horiz-adv-x="852" d="M106 1108v27q3 12 3 28q9 170 59 260q46 90 111 117q54 26 137 29q104 0 178 -51q70 -52 111 -150q35 -92 38 -227q0 -146 -32 -291q-36 -157 -99 -309l-225 -541h-151l305 721l-4 4q-73 -51 -160 -57q-79 3 -137 53q-64 55 -97 151q-37 102 -37 236zM242 1122 q0 -174 53 -250q51 -75 133 -75q170 0 176 319q0 92 -22 165.5t-62 113.5q-41 41 -96 41q-95 0 -135 -78q-42 -79 -45 -187q0 -14 -2 -24v-25z" />
<glyph unicode=":" horiz-adv-x="424" d="M109 92q0 40 30 72q34 29 74 29q36 0 72 -31q30 -31 30 -74v-4q0 -40 -30 -72q-33 -28 -72 -28q-46 0 -74 32q-30 31 -30 76zM109 969q3 42 29.5 68.5t74.5 29.5q42 0 74 -29q28 -28 28 -73v-4q0 -45 -30 -72q-35 -29 -72 -29q-43 0 -74 31q-30 30 -30 78z" />
<glyph unicode=";" horiz-adv-x="424" d="M20 -285l156 478l143 -64l-202 -457zM113 969q0 41 28 69q28 26 72 29q45 0 76 -31q30 -30 30 -75q0 -46 -32 -72q-32 -29 -74 -29q-45 0 -72 33q-28 31 -28 76z" />
<glyph unicode="&#x3c;" horiz-adv-x="907" d="M43 479v88l825 482v-113l-716 -399v-13l716 -411v-117z" />
<glyph unicode="=" horiz-adv-x="907" d="M43 293v102h825v-102h-825zM43 655v105h825v-105h-825z" />
<glyph unicode="&#x3e;" horiz-adv-x="907" d="M43 -4v117l717 399v12l-717 412v113l825 -482v-92z" />
<glyph unicode="?" horiz-adv-x="893" d="M188 1155v70q0 111 25 188q21 76 86 117q61 39 176 39q118 -6 176 -88.5t58 -268.5q0 -165 -27 -264q-24 -94 -84 -139q-58 -46 -158 -49v-373h-133v498h78q64 0 107 16q40 15 55 49q15 35 18 78q3 44 6 143v50q0 105 -26 161q-25 58 -101 58q-125 -3 -125 -215v-70h-131 zM276 88q0 42 29 76q34 29 72 29q45 0 76 -29q27 -31 30 -72q0 -41 -26 -74q-29 -34 -80 -34q-44 0 -72 32q-29 37 -29 72z" />
<glyph unicode="@" horiz-adv-x="1640" d="M41 772q0 134 49 268q47 136 146 250q99 115 249 189q149 72 351 86q212 0 387 -88q173 -89 272 -242q100 -147 100 -328q0 -143 -63 -278q-63 -138 -182 -234q-119 -93 -263 -96q-61 3 -102 33q-41 27 -53 80q-45 -45 -117 -76q-78 -34 -164 -37q-185 9 -260 176 q-23 78 -26 141q3 110 38 218q38 113 107 206q65 90 164 150q92 57 211 57q82 0 147 -35q67 -34 101 -104l30 100h113l-176 -516q-38 -112 -56 -172q-9 -30 -12 -63q6 -52 64 -58q93 0 182 74q43 36 83.5 94t74.5 133q53 125 53 236q0 113 -53.5 212.5t-143.5 168.5 q-87 69 -202 106q-112 37 -234 37q-109 0 -219 -39q-116 -39 -223 -123q-108 -82 -178 -208q-72 -121 -89 -293q-2 -11 -2 -47q0 -133 58 -252q56 -121 155 -211q99 -93 226 -146q120 -50 256 -53q133 0 254 41q125 42 211 104q95 67 151 140h113q-56 -96 -127 -164 q-75 -72 -172 -123q-93 -51 -203 -80q-104 -26 -223 -26q-156 3 -299 55q-73 27 -135.5 65t-122.5 90q-56 50 -102 113.5t-79 138.5q-65 150 -65 330zM479 633q6 -97 60 -164q51 -65 149 -74q86 3 166 58q78 52 107 143l100 301q6 21 6 72q0 49 -25.5 91.5t-66.5 65.5 t-90 23q-86 0 -160 -47q-74 -50 -127 -127q-50 -73 -84 -168q-32 -95 -35 -174z" />
<glyph unicode="A" horiz-adv-x="748" d="M0 0l303 1544h137l308 -1544h-152l-59 315h-328l-57 -315h-152zM231 444h285q-4 24 -10.5 59.5t-12.5 71.5t-9 51.5t-11 61.5l-17 102t-22 130q-27 167 -33 215q-9 49 -28 217h-8q-8 -62 -16.5 -122.5t-16.5 -119t-14 -103.5t-19 -126q-6 -42 -16 -103.5t-17 -110 t-15 -100t-20 -123.5z" />
<glyph unicode="B" horiz-adv-x="815" d="M125 0v1544h252q161 0 237 -86q78 -82 78 -278q0 -117 -20 -187q-23 -74 -62 -119q-40 -43 -98 -73q66 -26 109 -58q45 -33 77 -102q30 -67 33 -188q0 -171 -33 -263q-33 -96 -123 -143q-89 -47 -256 -47h-194zM268 125h43q101 0 158 25q60 21 88 81q29 63 29 168 q0 15 -2 25v25q-3 95 -29 165q-23 59 -84 95q-58 30 -160 30h-43v-614zM268 864h97q117 0 147 82q33 76 33 221q0 106 -17 160q-19 56 -63 76t-141 20h-56v-559z" />
<glyph unicode="C" horiz-adv-x="752" d="M76 752q4 177 26 319.5t62 245.5q52 129 145 188q98 60 195 60q116 0 188 -49v-156q-75 63 -180 63q-125 0 -193 -106q-42 -70 -69 -225q-28 -152 -31 -332q6 -248 45 -400q53 -230 236 -239q116 6 192 67v-145q-104 -63 -209 -63q-91 0 -170 53q-79 54 -131 145 q-52 92 -73 209q-24 120 -33 365z" />
<glyph unicode="D" horiz-adv-x="844" d="M125 0v1544h203q157 0 243 -57q92 -60 134 -182q43 -126 55 -336q4 -66 4 -193q0 -124 -4 -192q-7 -87 -23 -236q-12 -80 -55 -164q-41 -84 -129 -133q-86 -51 -238 -51h-190zM268 131q110 0 170 21q64 22 99 77q39 56 57 156q16 86 27 274v66q0 15 -2 65t-3 103l-4 136 v-1q-6 211 -75 297q-72 92 -226 92q-32 0 -43 -2v-1284z" />
<glyph unicode="E" horiz-adv-x="692" d="M125 0v1544h483v-129h-340v-547h332v-133h-332v-604h340v-131h-483z" />
<glyph unicode="F" horiz-adv-x="705" d="M125 0v1544h491v-129h-348v-547h332v-133h-332v-735h-143z" />
<glyph unicode="G" horiz-adv-x="844" d="M76 836q3 152 14 260q11 114 49 227q38 109 115 174q77 68 199 68q129 0 202 -70q71 -71 109 -219l-139 -55q-37 202 -168 202q-143 0 -187 -145q-43 -150 -43 -350v-47v2q0 -14 -2 -50t-6 -116q3 -214 41 -400q37 -174 135 -192q28 -6 51 -6q109 0 144 92q35 94 35 229 v60v184h-209v131h352v-295q0 -187 -29 -303q-26 -112 -96 -172q-64 -56 -186 -65q-129 0 -209 71q-77 71 -115 182q-34 112 -43 224q-10 125 -10 252q0 65 -4 127z" />
<glyph unicode="H" horiz-adv-x="889" d="M125 0v1544h143v-616h353v616h143v-1544h-143v797h-353v-797h-143z" />
<glyph unicode="I" horiz-adv-x="387" d="M125 0v1544h143v-1544h-143z" />
<glyph unicode="J" horiz-adv-x="537" d="M25 20v148q72 -66 143 -72q45 3 76 39q28 36 28 105v1304h144v-1284q0 -108 -19 -162q-17 -55 -53 -82q-35 -23 -96 -32h-51q-95 0 -172 36z" />
<glyph unicode="K" horiz-adv-x="756" d="M125 0v1544h143v-700h4l303 700h160l-344 -735l348 -809h-164l-303 780h-4v-780h-143z" />
<glyph unicode="L" horiz-adv-x="604" d="M125 0v1544h143v-1413h336v-131h-479z" />
<glyph unicode="M" horiz-adv-x="1153" d="M47 0l217 1544h123l193 -1304h8q6 120 35 319q34 216 88 508q42 225 82 477h122l189 -1544h-139q-14 164 -41 424q-7 68 -16.5 167.5t-15 156t-7.5 86.5q-18 164 -25 268q-9 88 -12 182h-8q-3 -82 -25 -231q-25 -168 -59 -355q-18 -105 -36 -209.5t-34 -185.5 q-37 -207 -49 -303h-117l-192 1284h-4q0 -138 -21 -321q-1 -10 -10 -89t-19.5 -166.5t-14.5 -124t-15 -114.5q-36 -275 -56 -469h-141z" />
<glyph unicode="N" horiz-adv-x="893" d="M125 0v1544h123q7 -21 42.5 -128t65.5 -199q6 -16 28.5 -87t36 -112t32 -97.5t22.5 -68.5q100 -301 119 -360q31 -98 53 -181h8q-6 40 -9 79t-4 70.5t-1 94.5v989h127v-1544h-127q-31 108 -78 244q-21 61 -43 124.5t-34 99t-60 173.5q-69 201 -129 383q-40 121 -57 215 h-9q17 -142 17 -307v-932h-123z" />
<glyph unicode="O" horiz-adv-x="911" d="M76 696q4 78 4 160q0 155 24 311q22 152 107 279q82 123 246 123q158 -3 241 -117q81 -110 107 -258q23 -139 31 -305q0 -185 -5 -260q-9 -286 -92 -465q-27 -61 -68.5 -101t-96.5 -60.5t-125 -22.5q-192 0 -271 174q-80 172 -98 471q0 39 -4 71zM219 725q3 -244 51 -432 q47 -176 191 -176q135 0 182 182q45 179 45 432v92q0 182 -18 314q-20 132 -70 209q-53 77 -143 77q-67 0 -115.5 -39t-83.5 -178q-35 -146 -35 -405q0 -36 -4 -76z" />
<glyph unicode="P" horiz-adv-x="731" d="M125 0v1544h199q159 0 238.5 -51.5t107.5 -130.5q24 -80 30 -199q0 -145 -36 -231q-34 -90 -93 -129q-60 -41 -120 -53q-64 -11 -140 -11h-43v-739h-143zM268 872h76q103 0 156 50q55 51 55 213v24q-2 10 -2 25q-6 84 -29 135q-21 49 -71 74q-55 22 -146 22h-39v-543z " />
<glyph unicode="Q" horiz-adv-x="911" d="M76 748q0 266 33 440q29 175 114 278q82 100 230 103q160 0 244.5 -119.5t111.5 -284.5q27 -162 27 -334q0 -211 -21 -399q-11 -98 -32 -173.5t-52 -127.5l113 -172l-113 -76l-94 150q-19 -26 -72 -39q-46 -14 -96 -14q-68 0 -127 18q-61 18 -123 92q-64 73 -102 234 q-41 164 -41 424zM223 801q2 -91 8 -197.5t13 -169t20 -119.5q43 -189 189 -198q55 6 102 30l-131 218l113 71l106 -164q45 152 45 459v84q0 146 -12 275q-15 132 -60 227q-45 97 -133 106q-108 0 -164 -71q-52 -75 -67 -154q-13 -66 -21 -190q-1 -21 -1.5 -38t-2.5 -63 q-1 -31 -1.5 -56.5t-2.5 -49.5z" />
<glyph unicode="R" horiz-adv-x="780" d="M125 0v1544h203q109 0 182 -20q75 -22 133 -111q57 -86 57 -268q-3 -206 -75 -293q-72 -90 -217 -96l340 -756h-148l-328 756h-4v-756h-143zM268 872h56q95 0 145 27q51 29 66 84q15 59 18 166q0 156 -49 211t-164 55h-72v-543z" />
<glyph unicode="S" horiz-adv-x="797" d="M59 1184q11 126 60 207q52 85 131 131q81 43 170 43q129 0 239 -80v-185q-46 60 -98 91q-48 32 -121 32q-102 0 -166 -73q-65 -76 -65 -187q3 -63 22 -104q17 -44 50 -80q24 -27 102 -88q106 -83 166 -127q103 -75 141 -160q41 -87 41 -192q0 -107 -47 -209 q-46 -101 -131 -162q-88 -61 -201 -61q-56 0 -127 18q-67 17 -121 57v189q100 -118 252 -127q106 6 166 82q62 74 62 182q0 78 -37 158q-37 76 -107 125q-95 68 -143 104q-89 67 -133 117q-48 51 -76 127q-29 79 -29 172z" />
<glyph unicode="T" horiz-adv-x="637" d="M16 1415v129h609v-129h-234v-1415h-143v1415h-232z" />
<glyph unicode="U" horiz-adv-x="881" d="M117 436v1108h143v-1120q0 -151 33 -227q33 -80 139 -80q80 0 119 33q40 32 55 104q15 70 15 190v1100h143v-1087q0 -149 -23 -252q-20 -98 -92 -164q-70 -61 -205 -61q-128 0 -198 49q-72 49 -101 147q-28 106 -28 260z" />
<glyph unicode="V" horiz-adv-x="797" d="M25 1544h143q7 -41 55 -309q12 -61 36 -194.5t44 -243.5q49 -265 64 -361q25 -152 28 -223h13q3 39 10.5 109t17 135.5t17.5 109.5q33 194 88 488q31 160 54.5 292.5t33.5 196.5h143l-311 -1544h-129z" />
<glyph unicode="W" horiz-adv-x="1239" d="M37 1544h147q4 -22 13.5 -93.5t16 -125.5t24.5 -182q4 -28 19.5 -147t23 -170t15 -106.5t9.5 -74.5q21 -161 43 -360h8q24 186 33 250q10 68 27.5 167t38.5 224q22 129 37.5 219t29.5 172q22 126 37 227h125l180 -1259h8q8 76 29 241q14 95 45 305q8 47 15.5 93.5t14 89 t16.5 106.5t18 117q6 39 18.5 119t19.5 126t9 62h147l-272 -1544h-131q-6 45 -17 115.5t-30 187.5q-14 87 -62 399q-40 276 -47 334q-18 176 -20 256h-9q0 -91 -20 -225q-30 -199 -53 -336q-28 -155 -72 -391q-44 -265 -55 -340h-131z" />
<glyph unicode="X" horiz-adv-x="823" d="M47 0l293 784l-293 760h154l207 -651h8q13 91 45 178q24 81 84 244q27 76 80 229h155l-293 -760l293 -784h-155l-209 655h-8q-11 -54 -31 -125q-9 -31 -51 -159q-35 -108 -68 -195q-32 -93 -57 -176h-154z" />
<glyph unicode="Y" horiz-adv-x="805" d="M41 1544h152l210 -729h13q11 91 28 162q26 103 50 182q7 21 17.5 54.5t28 89.5t19.5 65q38 122 53 176h152l-285 -868v-676h-143v676z" />
<glyph unicode="Z" horiz-adv-x="688" d="M41 0l428 1415h-389v129h567l-432 -1413h389v-131h-563z" />
<glyph unicode="[" horiz-adv-x="616" d="M264 -236v1780h332v-84h-219v-1612h219v-84h-332z" />
<glyph unicode="\" horiz-adv-x="457" d="M-100 1640h120l535 -1640h-115z" />
<glyph unicode="]" horiz-adv-x="616" d="M20 -152h216v1612h-216v84h332v-1780h-332v84z" />
<glyph unicode="^" horiz-adv-x="907" d="M135 705l277 839h84l276 -839h-96l-223 688h-4l-218 -688h-96z" />
<glyph unicode="_" horiz-adv-x="1024" d="M0 -227h1024v-158h-1024v158z" />
<glyph unicode="`" horiz-adv-x="571" d="M113 1376l127 101l225 -277l-84 -63z" />
<glyph unicode="a" d="M59 549q2 36 5 84t4 84q6 98 26 170q23 77 76 127t149 53q52 0 94.5 -21.5t73.5 -64.5v72h138v-1053h-138v80h-4q-40 -56 -86 -78q-45 -18 -108 -18q-92 3 -135 59q-50 63 -70 172q-14 73 -25 334zM197 479q3 -119 14 -190q9 -77 44.5 -137t96.5 -60q73 9 105 62 q29 52 37 139q7 61 10 282q0 386 -152 386q-93 -8 -121 -109q-30 -105 -30 -289q0 -34 -4 -84z" />
<glyph unicode="b" d="M92 0v1640h131v-659h4q56 86 164 86q251 0 260 -424v-131q0 -157 -18 -270q-18 -115 -72 -187q-56 -71 -158 -71q-105 0 -176 96h-4v-80h-131zM209 471q3 -162 35 -270q30 -109 125 -109q147 0 147 361v110q0 168 -20 252q-23 89 -54 115q-32 27 -77 31q-68 0 -109 -74 q-43 -73 -43 -307q0 -43 -4 -109z" />
<glyph unicode="c" horiz-adv-x="567" d="M59 537q0 146 37 272q34 119 103 188q67 70 161 70q91 0 156 -39v-156q-67 68 -135 68q-79 0 -129 -104q-51 -102 -51 -277q0 -219 49 -332q49 -115 123 -118q76 6 135 96h8v-168q-68 -53 -156 -53q-77 0 -147 55q-68 56 -111 178q-43 129 -43 320z" />
<glyph unicode="d" d="M59 512q4 62 4 131q10 424 256 424q108 0 164 -86h4v659h138v-1640h-138v80h-4q-64 -96 -172 -96q-143 0 -196 141q-53 145 -56 387zM197 440q3 -101 14 -166q9 -76 43 -127.5t94 -54.5q95 0 125 105q31 105 31 256v55q0 175 -15 264q-15 102 -45 141q-28 43 -84 48 q-71 0 -116 -82q-43 -83 -43 -316q0 -49 -4 -123z" />
<glyph unicode="e" horiz-adv-x="705" d="M59 545q0 113 27 233q28 124 94 205q66 84 176 84q101 0 166 -68q65 -71 92 -184q27 -111 27 -260v-55h-440q0 -382 155 -391q140 0 140 247h137q0 -96 -27 -176q-28 -85 -84 -141q-58 -55 -149 -55q-104 3 -174 61q-71 59 -105 184q-35 134 -35 316zM201 612h303 q0 332 -148 332q-77 -3 -114.5 -100t-40.5 -232z" />
<glyph unicode="f" horiz-adv-x="424" d="M0 928v125h113v327q0 146 53 211q57 66 137 66q50 0 125 -25v-143q-55 43 -104 43q-36 0 -58 -33q-22 -35 -22 -98v-348h176v-125h-176v-928h-131v928h-113z" />
<glyph unicode="g" horiz-adv-x="725" d="M59 532q0 209 52 369q51 163 208 166q118 0 177 -86h4v72h133v-1141q0 -121 -27 -188q-27 -72 -86 -107q-59 -33 -160 -33q-87 0 -145 31q-61 30 -94 104q-33 69 -33 193h131q0 -205 133 -205q148 0 148 184v185q-64 -76 -164 -76q-125 0 -186 90q-61 92 -76 203 q-15 101 -15 239zM197 461q3 -147 39 -252q32 -100 129 -100q91 6 118 104q29 101 29 279v63q0 179 -31 291q-30 115 -129 115q-53 0 -88 -43q-31 -42 -43 -105q-13 -54 -16 -137q-1 -35 -1.5 -63t-2.5 -64q0 -36 -4 -88z" />
<glyph unicode="h" horiz-adv-x="727" d="M92 0v1640h131v-671q103 98 205 98q112 0 162 -86q47 -86 47 -213v-768h-133v772q0 99 -29 146q-28 43 -98 43q-154 -7 -154 -234v-727h-131z" />
<glyph unicode="i" horiz-adv-x="315" d="M80 1272q0 37 24 61q25 25 62 25h-2q41 0 67 -25q27 -26 27 -65t-25 -64q-25 -22 -63 -22q-37 0 -66 24q-24 28 -24 66zM92 0v1053h131v-1053h-131z" />
<glyph unicode="j" horiz-adv-x="315" d="M59 1364q0 37 29 68q28 28 68 28q42 0 73 -28q31 -31 31 -72q-3 -38 -33 -68q-28 -28 -67 -28t-72 28q-29 34 -29 72zM92 -387v1440h131v-1440h-131z" />
<glyph unicode="k" horiz-adv-x="721" d="M92 0v1640h131v-1015h4l256 428h154l-313 -473l397 -580h-168l-326 504h-4v-504h-131z" />
<glyph unicode="l" horiz-adv-x="315" d="M92 0v1640h131v-1640h-131z" />
<glyph unicode="m" horiz-adv-x="1145" d="M92 0v1053h131v-88h8q36 47 88 73q50 27 113 27q61 0 113 -31q51 -29 80 -94q79 125 215 125q43 0 71 -4q142 -34 142 -268v-793h-133v776q0 185 -127 185q-58 -4 -93 -41q-33 -38 -47 -97q-12 -58 -12 -135v-688h-133v780q0 92 -31 138q-28 43 -100 43 q-154 -13 -154 -285v-676h-131z" />
<glyph unicode="n" horiz-adv-x="727" d="M92 0v1053h131v-84q43 39 90 69q41 27 111 27q39 0 63 -4q96 -18 123 -105q27 -84 27 -204v-752h-133v764q0 99 -27 147q-27 50 -100 50q-77 -8 -117 -68q-37 -63 -37 -193v-700h-131z" />
<glyph unicode="o" horiz-adv-x="727" d="M59 469q4 58 4 111q0 180 64 335q64 156 254 156q158 -6 216.5 -153t61.5 -322q0 -25 2.5 -49.5t2.5 -59.5q0 -108 -23 -233q-20 -107 -90 -191q-64 -76 -186 -79q-280 0 -302 432q0 25 -4 53zM201 555q0 -176 30 -311q28 -135 138 -135q91 3 125 133q34 136 34 278v47 q-15 377 -168 377q-72 -6 -114 -88q-42 -86 -45 -301z" />
<glyph unicode="p" d="M92 -399v1452h131v-72h4q65 86 176 86q146 -3 199 -143q49 -141 49 -387v-129q-3 -175 -57 -302q-53 -122 -203 -122q-102 9 -164 96h-4v-479h-131zM209 588q4 -62 4 -113q3 -383 160 -383q50 6 78 31q27 27 47 110q18 87 18 254v101q0 373 -164 373q-84 -5 -110 -107 q-30 -111 -33 -266z" />
<glyph unicode="q" d="M59 537q3 243 56 387q53 140 196 143q113 0 172 -86h4v72h138v-1452h-138v479h-4q-60 -87 -159 -96q-148 0 -201 122q-55 123 -60 302q0 67 -4 129zM197 588q4 -58 4 -101q0 -160 18 -243q15 -86 47 -115q30 -31 74 -37q73 0 117 78q43 81 43 283v22v96q0 379 -140 390 q-68 0 -102 -58q-36 -60 -47 -135q-11 -68 -14 -180z" />
<glyph unicode="r" horiz-adv-x="420" d="M92 0v1053h131v-142h4q64 156 176 156v-156h-30q-150 0 -150 -247v-664h-131z" />
<glyph unicode="s" horiz-adv-x="567" d="M47 55v158q85 -98 189 -104q63 6 106 49q43 44 43 106q0 101 -104 197q-89 74 -131 121q-52 53 -76 106q-27 53 -27 127q3 79 37 136.5t92 84.5q60 29 123 29q107 0 193 -66v-163h-5q-71 104 -188 104q-59 -6 -86 -49q-29 -47 -29 -90q3 -49 29 -92q21 -35 72 -78 q30 -27 110 -94q129 -111 129 -252q0 -83 -32 -146q-36 -70 -99 -108q-62 -41 -141 -47q-39 0 -100 16q-56 17 -105 55z" />
<glyph unicode="t" horiz-adv-x="432" d="M37 928v125h110v286h134v-286h110v-125h-110v-928h-134v928h-110z" />
<glyph unicode="u" d="M84 285v768h131v-668q0 -125 25 -201q24 -75 116 -75q67 0 99 41q29 41 37 104q8 57 8 166v633h133v-760q0 -309 -273 -309q-132 0 -202 73q-74 79 -74 228z" />
<glyph unicode="v" horiz-adv-x="647" d="M20 1053h132l172 -856h12q2 42 22 151q5 34 39 211q1 4 24 116.5t30 149.5q16 74 45 228h137l-234 -1053h-143z" />
<glyph unicode="w" horiz-adv-x="1032" d="M25 1053h131q8 -45 16.5 -98.5t19 -115t21.5 -128.5q12 -69 20.5 -126t16.5 -107.5t14 -92.5q10 -49 18 -98t17 -94h8q7 70 35 247q14 90 20.5 129.5t22.5 135.5q7 44 9 57t11.5 68t19.5 111t19 112h131q14 -71 25 -141t31 -194.5t36.5 -236.5t41.5 -288h4q8 58 24 167 q31 160 41 218q34 158 53 253q43 204 46 222h135l-232 -1053h-139q-6 44 -49 332q-10 63 -22 138t-16.5 103.5t-16.5 102.5q-26 167 -29 201h-4q-4 -92 -17 -172q-25 -173 -34 -226q-9 -51 -17.5 -102t-27.5 -158q-29 -179 -35 -219h-137z" />
<glyph unicode="x" horiz-adv-x="688" d="M33 0l239 537l-217 516h150q44 -123 80 -228l14.5 -43.5l15.5 -46.5l15 -45q18 -63 22 -86h8q25 111 48 189q24 80 100 260h147l-235 -516l235 -537h-147l-62 160q-23 59 -30 76.5t-18.5 47t-22.5 56.5q-21 59 -31 113h-8q-2 -32 -21 -91q-12 -42 -47 -131 q-62 -165 -88 -231h-147z" />
<glyph unicode="y" horiz-adv-x="680" d="M16 1053h136l176 -848h8q24 129 51 252q26 108 72 311q36 152 65 285h140l-365 -1452h-139l108 428z" />
<glyph unicode="z" horiz-adv-x="676" d="M33 0l416 928h-361v125h559l-428 -928h356v-125h-542z" />
<glyph unicode="{" horiz-adv-x="616" d="M96 659v68q172 34 172 180v344q0 105 15 158q15 60 67 97.5t166 37.5h51v-67q-66 -6 -108 -25q-40 -18 -60 -66q-18 -45 -18 -131v-315q0 -84 -25 -133q-23 -50 -57 -72q-29 -18 -80 -39v-8q96 -30 129 -94q33 -59 33 -170v-324q0 -98 45 -143q46 -46 141 -49v-68h-59 q-134 0 -186 66q-54 66 -54 203v366q0 89 -45 125q-47 39 -127 59z" />
<glyph unicode="|" horiz-adv-x="457" d="M176 0v1640h105v-1640h-105z" />
<glyph unicode="}" horiz-adv-x="616" d="M51 -96q106 9 148 57q37 51 37 156v319q0 109 40 166q41 59 123 86v8q-89 32 -125 88q-38 57 -38 185v307q0 66 -17 110q-17 45 -53 64q-43 22 -115 31v63q12 2 49 2q98 0 154 -30q56 -35 78 -95q20 -61 20 -166v-307q0 -11 -4 -33q6 -68 37 -118q33 -51 131 -72v-70 q-98 -20 -131 -71q-33 -50 -33 -119v-313q0 -144 -33.5 -209.5t-93.5 -84t-174 -18.5v64z" />
<glyph unicode="~" horiz-adv-x="907" d="M43 457q106 176 233 176q55 0 95 -15q76 -29 139 -55q97 -39 127 -39q91 6 164 123l67 -67q-34 -62 -100 -115q-59 -47 -117 -53q-38 0 -82 12q-43 12 -114 41q-24 9 -65 24t-46 17q-29 11 -68 14q-45 0 -83 -31q-38 -33 -80 -104z" />
<glyph unicode="&#xad;" horiz-adv-x="319" d="M0 571v164h319v-164h-319z" />
<glyph unicode="&#xc0;" horiz-adv-x="748" d="M0 0l303 1544h137l308 -1544h-152l-59 315h-328l-57 -315h-152zM176 1862l113 90l200 -250l-73 -55zM231 444h285q-4 24 -10.5 59.5t-12.5 71.5t-9 51.5t-11 61.5l-17 102t-22 130q-27 167 -33 215q-9 49 -28 217h-8q-8 -62 -16.5 -122.5t-16.5 -119t-14 -103.5t-19 -126 q-6 -42 -16 -103.5t-17 -110t-15 -100t-20 -123.5z" />
<glyph unicode="&#xc1;" horiz-adv-x="748" d="M0 0l303 1544h137l308 -1544h-152l-59 315h-328l-57 -315h-152zM231 444h285q-4 24 -10.5 59.5t-12.5 71.5t-9 51.5t-11 61.5l-17 102t-22 130q-27 167 -33 215q-9 49 -28 217h-8q-8 -62 -16.5 -122.5t-16.5 -119t-14 -103.5t-19 -126q-6 -42 -16 -103.5t-17 -110 t-15 -100t-20 -123.5zM279 1700l200 252l111 -90l-238 -215z" />
<glyph unicode="&#xc2;" horiz-adv-x="748" d="M0 0l303 1544h137l308 -1544h-152l-59 315h-328l-57 -315h-152zM152 1659l221 209l221 -209l-78 -74l-145 135l-146 -135zM231 444h285q-4 24 -10.5 59.5t-12.5 71.5t-9 51.5t-11 61.5l-17 102t-22 130q-27 167 -33 215q-9 49 -28 217h-8q-8 -62 -16.5 -122.5t-16.5 -119 t-14 -103.5t-19 -126q-6 -42 -16 -103.5t-17 -110t-15 -100t-20 -123.5z" />
<glyph unicode="&#xc3;" horiz-adv-x="748" d="M0 0l303 1544h137l308 -1544h-152l-59 315h-328l-57 -315h-152zM141 1653q3 74 45 116q44 41 101 41q18 0 41 -6q33 -9 47 -16q12 -6 25.5 -11t23.5 -10q21 -8 37 -8q31 0 31 53h112q0 -64 -35 -114q-32 -51 -98 -51q-21 0 -45 6q-31 8 -55 21.5t-49 21.5q-19 6 -33 6 q-31 0 -31 -49h-117zM231 444h285q-4 24 -10.5 59.5t-12.5 71.5t-9 51.5t-11 61.5l-17 102t-22 130q-27 167 -33 215q-9 49 -28 217h-8q-8 -62 -16.5 -122.5t-16.5 -119t-14 -103.5t-19 -126q-6 -42 -16 -103.5t-17 -110t-15 -100t-20 -123.5z" />
<glyph unicode="&#xc8;" horiz-adv-x="692" d="M125 0v1544h483v-129h-340v-547h332v-133h-332v-604h340v-131h-483zM211 1862l113 90l200 -250l-73 -55z" />
<glyph unicode="&#xc9;" horiz-adv-x="692" d="M125 0v1544h483v-129h-340v-547h332v-133h-332v-604h340v-131h-483zM252 1700l201 252l110 -90l-237 -215z" />
<glyph unicode="&#xca;" horiz-adv-x="692" d="M125 0v1544h483v-129h-340v-547h332v-133h-332v-604h340v-131h-483zM131 1688l221 208l221 -208l-77 -74l-146 135l-145 -135z" />
<glyph unicode="&#xcc;" horiz-adv-x="387" d="M59 1872l113 90l201 -250l-74 -55zM125 0v1544h143v-1544h-143z" />
<glyph unicode="&#xcd;" horiz-adv-x="387" d="M111 1700l200 252l111 -90l-238 -215zM125 0v1544h143v-1544h-143z" />
<glyph unicode="&#xd2;" horiz-adv-x="911" d="M76 696q4 78 4 160q0 155 24 311q22 152 107 279q82 123 246 123q158 -3 241 -117q81 -110 107 -258q23 -139 31 -305q0 -185 -5 -260q-9 -286 -92 -465q-27 -61 -68.5 -101t-96.5 -60.5t-125 -22.5q-192 0 -271 174q-80 172 -98 471q0 39 -4 71zM219 725q3 -244 51 -432 q47 -176 191 -176q135 0 182 182q45 179 45 432v92q0 182 -18 314q-20 132 -70 209q-53 77 -143 77q-67 0 -115.5 -39t-83.5 -178q-35 -146 -35 -405q0 -36 -4 -76zM299 1886l113 90l200 -250l-73 -55z" />
<glyph unicode="&#xd3;" horiz-adv-x="911" d="M76 696q4 78 4 160q0 155 24 311q22 152 107 279q82 123 246 123q158 -3 241 -117q81 -110 107 -258q23 -139 31 -305q0 -185 -5 -260q-9 -286 -92 -465q-27 -61 -68.5 -101t-96.5 -60.5t-125 -22.5q-192 0 -271 174q-80 172 -98 471q0 39 -4 71zM219 725q3 -244 51 -432 q47 -176 191 -176q135 0 182 182q45 179 45 432v92q0 182 -18 314q-20 132 -70 209q-53 77 -143 77q-67 0 -115.5 -39t-83.5 -178q-35 -146 -35 -405q0 -36 -4 -76zM340 1724l201 252l110 -90l-237 -215z" />
<glyph unicode="&#xd4;" horiz-adv-x="911" d="M76 696q4 78 4 160q0 155 24 311q22 152 107 279q82 123 246 123q158 -3 241 -117q81 -110 107 -258q23 -139 31 -305q0 -185 -5 -260q-9 -286 -92 -465q-27 -61 -68.5 -101t-96.5 -60.5t-125 -22.5q-192 0 -271 174q-80 172 -98 471q0 39 -4 71zM219 725q3 -244 51 -432 q47 -176 191 -176q135 0 182 182q45 179 45 432v92q0 182 -18 314q-20 132 -70 209q-53 77 -143 77q-67 0 -115.5 -39t-83.5 -178q-35 -146 -35 -405q0 -36 -4 -76zM258 1696l221 209l221 -209l-77 -74l-146 135l-145 -135z" />
<glyph unicode="&#xd5;" horiz-adv-x="911" d="M76 696q4 78 4 160q0 155 24 311q22 152 107 279q82 123 246 123q158 -3 241 -117q81 -110 107 -258q23 -139 31 -305q0 -185 -5 -260q-9 -286 -92 -465q-27 -61 -68.5 -101t-96.5 -60.5t-125 -22.5q-192 0 -271 174q-80 172 -98 471q0 39 -4 71zM219 725q3 -244 51 -432 q47 -176 191 -176q135 0 182 182q45 179 45 432v92q0 182 -18 314q-20 132 -70 209q-53 77 -143 77q-67 0 -115.5 -39t-83.5 -178q-35 -146 -35 -405q0 -36 -4 -76zM223 1677q3 73 45 117q44 41 101 41q18 0 41 -6q32 -9 47 -17q18 -9 49 -20q21 -8 37 -8q30 0 30 53h113 q0 -65 -35 -115q-33 -51 -98 -51q-21 0 -45 6q-29 7 -55 23q-27 13 -50 20q-18 6 -32 6q-31 0 -31 -49h-117z" />
<glyph unicode="&#xd9;" horiz-adv-x="881" d="M117 436v1108h143v-1120q0 -151 33 -227q33 -80 139 -80q80 0 119 33q40 32 55 104q15 70 15 190v1100h143v-1087q0 -149 -23 -252q-20 -98 -92 -164q-70 -61 -205 -61q-128 0 -198 49q-72 49 -101 147q-28 106 -28 260zM285 1862l112 90l201 -250l-74 -55z" />
<glyph unicode="&#xda;" horiz-adv-x="881" d="M117 436v1108h143v-1120q0 -151 33 -227q33 -80 139 -80q80 0 119 33q40 32 55 104q15 70 15 190v1100h143v-1087q0 -149 -23 -252q-20 -98 -92 -164q-70 -61 -205 -61q-128 0 -198 49q-72 49 -101 147q-28 106 -28 260zM346 1710l201 252l110 -90l-237 -215z" />
<glyph unicode="&#xdd;" horiz-adv-x="805" d="M41 1544h152l210 -729h13q11 91 28 162q26 103 50 182q7 21 17.5 54.5t28 89.5t19.5 65q38 122 53 176h152l-285 -868v-676h-143v676zM317 1700l201 252l111 -90l-238 -215z" />
<glyph unicode="&#xe0;" d="M59 549q2 36 5 84t4 84q6 98 26 170q23 77 76 127t149 53q52 0 94.5 -21.5t73.5 -64.5v72h138v-1053h-138v80h-4q-40 -56 -86 -78q-45 -18 -108 -18q-92 3 -135 59q-50 63 -70 172q-14 73 -25 334zM197 479q3 -119 14 -190q9 -77 44.5 -137t96.5 -60q73 9 105 62 q29 52 37 139q7 61 10 282q0 386 -152 386q-93 -8 -121 -109q-30 -105 -30 -289q0 -34 -4 -84zM238 1384l112 91l201 -250l-74 -56z" />
<glyph unicode="&#xe1;" d="M59 549q2 36 5 84t4 84q6 98 26 170q23 77 76 127t149 53q52 0 94.5 -21.5t73.5 -64.5v72h138v-1053h-138v80h-4q-40 -56 -86 -78q-45 -18 -108 -18q-92 3 -135 59q-50 63 -70 172q-14 73 -25 334zM197 479q3 -119 14 -190q9 -77 44.5 -137t96.5 -60q73 9 105 62 q29 52 37 139q7 61 10 282q0 386 -152 386q-93 -8 -121 -109q-30 -105 -30 -289q0 -34 -4 -84zM299 1223l201 252l110 -91l-237 -215z" />
<glyph unicode="&#xe2;" d="M59 549q2 36 5 84t4 84q6 98 26 170q23 77 76 127t149 53q52 0 94.5 -21.5t73.5 -64.5v72h138v-1053h-138v80h-4q-40 -56 -86 -78q-45 -18 -108 -18q-92 3 -135 59q-50 63 -70 172q-14 73 -25 334zM154 1202l221 209l221 -209l-78 -74l-145 136l-146 -136zM197 479 q3 -119 14 -190q9 -77 44.5 -137t96.5 -60q73 9 105 62q29 52 37 139q7 61 10 282q0 386 -152 386q-93 -8 -121 -109q-30 -105 -30 -289q0 -34 -4 -84z" />
<glyph unicode="&#xe3;" d="M59 549q2 36 5 84t4 84q6 98 26 170q23 77 76 127t149 53q52 0 94.5 -21.5t73.5 -64.5v72h138v-1053h-138v80h-4q-40 -56 -86 -78q-45 -18 -108 -18q-92 3 -135 59q-50 63 -70 172q-14 73 -25 334zM162 1186q3 75 45 117q45 40 100 40q20 0 41 -6q35 -10 47 -16 q10 -4 25.5 -10.5t23.5 -10.5q23 -8 37 -8q31 0 31 54h113q0 -62 -35 -115q-34 -51 -98 -51q-20 0 -46 6q-29 7 -55 22q-22 12 -49 21q-18 6 -33 6q-30 0 -30 -49h-117zM197 479q3 -119 14 -190q9 -77 44.5 -137t96.5 -60q73 9 105 62q29 52 37 139q7 61 10 282 q0 386 -152 386q-93 -8 -121 -109q-30 -105 -30 -289q0 -34 -4 -84z" />
<glyph unicode="&#xe8;" horiz-adv-x="705" d="M59 545q0 113 27 233q28 124 94 205q66 84 176 84q101 0 166 -68q65 -71 92 -184q27 -111 27 -260v-55h-440q0 -382 155 -391q140 0 140 247h137q0 -96 -27 -176q-28 -85 -84 -141q-58 -55 -149 -55q-104 3 -174 61q-71 59 -105 184q-35 134 -35 316zM195 1384l112 91 l201 -250l-74 -56zM201 612h303q0 332 -148 332q-77 -3 -114.5 -100t-40.5 -232z" />
<glyph unicode="&#xe9;" horiz-adv-x="705" d="M59 545q0 113 27 233q28 124 94 205q66 84 176 84q101 0 166 -68q65 -71 92 -184q27 -111 27 -260v-55h-440q0 -382 155 -391q140 0 140 247h137q0 -96 -27 -176q-28 -85 -84 -141q-58 -55 -149 -55q-104 3 -174 61q-71 59 -105 184q-35 134 -35 316zM201 612h303 q0 332 -148 332q-77 -3 -114.5 -100t-40.5 -232zM236 1223l200 252l111 -91l-238 -215z" />
<glyph unicode="&#xea;" horiz-adv-x="705" d="M59 545q0 113 27 233q28 124 94 205q66 84 176 84q101 0 166 -68q65 -71 92 -184q27 -111 27 -260v-55h-440q0 -382 155 -391q140 0 140 247h137q0 -96 -27 -176q-28 -85 -84 -141q-58 -55 -149 -55q-104 3 -174 61q-71 59 -105 184q-35 134 -35 316zM129 1192l221 209 l221 -209l-77 -74l-146 135l-145 -135zM201 612h303q0 332 -148 332q-77 -3 -114.5 -100t-40.5 -232z" />
<glyph unicode="&#xec;" horiz-adv-x="315" d="M-20 1393l112 90l201 -250l-74 -55zM92 0v1053h131v-1053h-131z" />
<glyph unicode="&#xed;" horiz-adv-x="315" d="M72 1231l200 252l111 -90l-238 -215zM92 0v1053h131v-1053h-131z" />
<glyph unicode="&#xf2;" horiz-adv-x="727" d="M59 469q4 58 4 111q0 180 64 335q64 156 254 156q158 -6 216.5 -153t61.5 -322q0 -25 2.5 -49.5t2.5 -59.5q0 -108 -23 -233q-20 -107 -90 -191q-64 -76 -186 -79q-280 0 -302 432q0 25 -4 53zM201 555q0 -176 30 -311q28 -135 138 -135q91 3 125 133q34 136 34 278v47 q-15 377 -168 377q-72 -6 -114 -88q-42 -86 -45 -301zM205 1389l112 90l201 -250l-74 -55z" />
<glyph unicode="&#xf3;" horiz-adv-x="727" d="M59 469q4 58 4 111q0 180 64 335q64 156 254 156q158 -6 216.5 -153t61.5 -322q0 -25 2.5 -49.5t2.5 -59.5q0 -108 -23 -233q-20 -107 -90 -191q-64 -76 -186 -79q-280 0 -302 432q0 25 -4 53zM201 555q0 -176 30 -311q28 -135 138 -135q91 3 125 133q34 136 34 278v47 q-15 377 -168 377q-72 -6 -114 -88q-42 -86 -45 -301zM236 1227l200 252l111 -90l-238 -215z" />
<glyph unicode="&#xf4;" horiz-adv-x="727" d="M59 469q4 58 4 111q0 180 64 335q64 156 254 156q158 -6 216.5 -153t61.5 -322q0 -25 2.5 -49.5t2.5 -59.5q0 -108 -23 -233q-20 -107 -90 -191q-64 -76 -186 -79q-280 0 -302 432q0 25 -4 53zM150 1180l221 209l221 -209l-78 -74l-145 135l-146 -135zM201 555 q0 -176 30 -311q28 -135 138 -135q91 3 125 133q34 136 34 278v47q-15 377 -168 377q-72 -6 -114 -88q-42 -86 -45 -301z" />
<glyph unicode="&#xf5;" horiz-adv-x="727" d="M59 469q4 58 4 111q0 180 64 335q64 156 254 156q158 -6 216.5 -153t61.5 -322q0 -25 2.5 -49.5t2.5 -59.5q0 -108 -23 -233q-20 -107 -90 -191q-64 -76 -186 -79q-280 0 -302 432q0 25 -4 53zM129 1180q3 76 45 116q44 41 100 41q20 0 41 -6q32 -9 47 -16 q28 -13 49.5 -21t37.5 -8q30 0 30 53h113q0 -65 -35 -114q-32 -51 -98 -51q-21 0 -45 6q-30 7 -56 22q-31 15 -49 21t-33 6q-30 0 -30 -49h-117zM201 555q0 -176 30 -311q28 -135 138 -135q91 3 125 133q34 136 34 278v47q-15 377 -168 377q-72 -6 -114 -88 q-42 -86 -45 -301z" />
<glyph unicode="&#xf9;" d="M84 285v768h131v-668q0 -125 25 -201q24 -75 116 -75q67 0 99 41q29 41 37 104q8 57 8 166v633h133v-760q0 -309 -273 -309q-132 0 -202 73q-74 79 -74 228zM203 1370l112 90l201 -250l-74 -55z" />
<glyph unicode="&#xfa;" d="M84 285v768h131v-668q0 -125 25 -201q24 -75 116 -75q67 0 99 41q29 41 37 104q8 57 8 166v633h133v-760q0 -309 -273 -309q-132 0 -202 73q-74 79 -74 228zM264 1208l201 252l110 -90l-237 -215z" />
<glyph unicode="&#xfd;" horiz-adv-x="680" d="M16 1053h136l176 -848h8q24 129 51 252q26 108 72 311q36 152 65 285h140l-365 -1452h-139l108 428zM266 1208l201 252l111 -90l-238 -215z" />
<glyph unicode="&#x102;" horiz-adv-x="748" d="M0 0l303 1544h137l308 -1544h-152l-59 315h-328l-57 -315h-152zM160 1755h90l4 -2q3 -41 45 -57q34 -15 76 -15q99 8 123 74h90q0 -77 -58 -123q-61 -45 -153 -45q-95 0 -154 39q-60 42 -63 129zM231 444h285q-4 24 -10.5 59.5t-12.5 71.5t-9 51.5t-11 61.5l-17 102 t-22 130q-27 167 -33 215q-9 49 -28 217h-8q-8 -62 -16.5 -122.5t-16.5 -119t-14 -103.5t-19 -126q-6 -42 -16 -103.5t-17 -110t-15 -100t-20 -123.5z" />
<glyph unicode="&#x103;" d="M59 549q2 36 5 84t4 84q6 98 26 170q23 77 76 127t149 53q52 0 94.5 -21.5t73.5 -64.5v72h138v-1053h-138v80h-4q-40 -56 -86 -78q-45 -18 -108 -18q-92 3 -135 59q-50 63 -70 172q-14 73 -25 334zM162 1288h90l4 -2q3 -41 45 -57q34 -15 76 -15q99 8 123 74h90 q0 -77 -58 -123q-60 -45 -153 -45q-92 0 -154 39q-60 42 -63 129zM197 479q3 -119 14 -190q9 -77 44.5 -137t96.5 -60q73 9 105 62q29 52 37 139q7 61 10 282q0 386 -152 386q-93 -8 -121 -109q-30 -105 -30 -289q0 -34 -4 -84z" />
<glyph unicode="&#x110;" horiz-adv-x="844" d="M-25 735v133h150v676h203q156 0 245 -59q89 -58 134 -180q42 -120 57 -314q0 -53 2 -108q2 -56 2 -131q0 -56 -2 -95t-2 -77q-15 -157 -27 -232q-12 -77 -53 -162q-40 -81 -131 -135q-86 -51 -238 -51h-190v735h-150zM268 131q134 0 207 43q73 46 105 141q30 87 41 273 v67q0 232 -13 424q-16 130 -45 195q-30 70 -100 106q-72 35 -195 35v-547h135v-133h-135v-604z" />
<glyph unicode="&#x128;" horiz-adv-x="387" d="M-16 1673q3 75 45 117q43 41 100 41q20 0 41 -6q34 -10 47 -17q13 -6 49 -20q23 -8 37 -8q31 0 31 53h112q0 -64 -34 -115t-99 -51q-19 0 -45 6q-32 8 -55 23q-22 11 -49 20q-18 6 -33 6q-31 0 -31 -49h-116zM125 0v1544h143v-1544h-143z" />
<glyph unicode="&#x129;" horiz-adv-x="315" d="M-76 1174q3 74 45 116q44 41 101 41q18 0 41 -6q33 -9 47 -16q18 -10 49 -21q21 -8 37 -8q30 0 30 53h113q0 -65 -35 -114q-33 -52 -98 -52q-23 0 -45 7q-31 8 -55 22q-19 9 -50 21q-18 6 -32 6q-31 0 -31 -49h-117zM92 0v1053h131v-1053h-131z" />
<glyph unicode="&#x168;" horiz-adv-x="881" d="M117 436v1108h143v-1120q0 -151 33 -227q33 -80 139 -80q80 0 119 33q40 32 55 104q15 70 15 190v1100h143v-1087q0 -149 -23 -252q-20 -98 -92 -164q-70 -61 -205 -61q-128 0 -198 49q-72 49 -101 147q-28 106 -28 260zM209 1653q3 76 45 116q44 41 100 41q20 0 41 -6 q32 -9 47 -16q7 -3 50 -21q21 -8 36 -8q31 0 31 53h113q0 -61 -35 -114q-34 -51 -98 -51q-21 0 -45 6q-30 7 -56 22q-22 12 -49 21q-18 6 -33 6q-30 0 -30 -49h-117z" />
<glyph unicode="&#x169;" d="M84 285v768h131v-668q0 -125 25 -201q24 -75 116 -75q67 0 99 41q29 41 37 104q8 57 8 166v633h133v-760q0 -309 -273 -309q-132 0 -202 73q-74 79 -74 228zM127 1161q3 75 45 117q44 41 100 41q20 0 41 -6q32 -9 47 -17q20 -9 50 -20q21 -8 36 -8q31 0 31 53h113 q0 -65 -35 -115q-34 -51 -98 -51q-21 0 -45 6q-30 7 -56 23q-22 11 -49 20q-18 6 -33 6q-30 0 -30 -49h-117z" />
<glyph unicode="&#x1a0;" horiz-adv-x="911" d="M80 625l4 -2q0 39 -4 71q4 78 4 160q0 158 25 311q20 151 106 279q82 123 246 123q158 -3 241 -117q58 -70 86 -172q55 28 73 101.5t22 189.5h118q-12 -155 -42 -243t-67 -116t-85 -30q23 -154 29 -291q0 -185 -5 -260q-9 -286 -92 -465q-27 -61 -68.5 -101t-96.5 -60.5 t-125 -22.5q-192 0 -271 174q-80 172 -98 471zM219 725q3 -244 51 -432q47 -176 191 -176q135 0 182 182q45 179 45 432v92q0 182 -18 314q-20 132 -70 209q-53 77 -143 77q-67 0 -115.5 -39t-83.5 -178q-35 -146 -35 -405q0 -36 -4 -76z" />
<glyph unicode="&#x1a1;" horiz-adv-x="727" d="M61 469q5 73 5 111q0 183 63 335q64 156 254 156q158 -6 217 -153q13 -25 23 -84q41 21 54 73.5t15 159.5h109q-1 -121 -21 -189.5t-54 -93t-85 -26.5q18 -73 18 -162q0 -25 2.5 -49.5t2.5 -59.5q0 -108 -23 -233q-20 -107 -90 -191q-64 -76 -186 -79q-280 0 -302 432h3 q0 18 -5 53zM201 555q0 -176 30 -311q28 -135 138 -135q91 3 125 133q34 136 34 278v47q-15 377 -168 377q-72 -6 -114 -88q-42 -86 -45 -301z" />
<glyph unicode="&#x1af;" horiz-adv-x="881" d="M117 436v1108h143v-1120q0 -151 33 -227q33 -80 139 -80q80 0 119 33q40 32 55 104q15 70 15 190v1100h143v-291q42 26 56 97.5t20 191.5h118q-12 -155 -42 -243t-67 -116t-85 -30v-696q0 -149 -23 -252q-20 -98 -92 -164q-70 -61 -205 -61q-128 0 -198 49 q-72 49 -101 147q-28 106 -28 260z" />
<glyph unicode="&#x1b0;" d="M84 285v768h131v-668q0 -125 25 -201q24 -75 116 -75q67 0 99 41q29 41 37 104q8 57 8 166v633h133v-236q36 23 47.5 75.5t13.5 158.5h109q-7 -121 -28 -189t-56 -93.5t-86 -27.5v-448q0 -309 -273 -309q-132 0 -202 73q-74 79 -74 228z" />
<glyph unicode="&#x1ea0;" horiz-adv-x="748" d="M0 0l303 1544h137l308 -1544h-152l-59 315h-328l-57 -315h-152zM231 444h285q-4 24 -10.5 59.5t-12.5 71.5t-9 51.5t-11 61.5l-17 102t-22 130q-27 167 -33 215q-9 49 -28 217h-8q-8 -62 -16.5 -122.5t-16.5 -119t-14 -103.5t-19 -126q-6 -42 -16 -103.5t-17 -110 t-15 -100t-20 -123.5zM283 -188q0 37 24 61q27 25 62 25h-2q39 0 66.5 -25.5t27.5 -65.5q0 -39 -25 -63q-26 -23 -63 -23q-36 0 -66 25q-24 27 -24 66z" />
<glyph unicode="&#x1ea1;" d="M59 549q2 36 5 84t4 84q6 98 26 170q23 77 76 127t149 53q52 0 94.5 -21.5t73.5 -64.5v72h138v-1053h-138v80h-4q-40 -56 -86 -78q-45 -18 -108 -18q-92 3 -135 59q-50 63 -70 172q-14 73 -25 334zM197 479q3 -119 14 -190q9 -77 44.5 -137t96.5 -60q73 9 105 62 q29 52 37 139q7 61 10 282q0 386 -152 386q-93 -8 -121 -109q-30 -105 -30 -289q0 -34 -4 -84zM252 -205q0 36 24 62q25 24 62 24h-2q40 0 67 -24q27 -27 27 -66t-24 -63q-26 -23 -64 -23t-66 25q-24 27 -24 65z" />
<glyph unicode="&#x1ea2;" horiz-adv-x="748" d="M0 0l303 1544h137l308 -1544h-152l-59 315h-328l-57 -315h-152zM231 444h285q-4 24 -10.5 59.5t-12.5 71.5t-9 51.5t-11 61.5l-17 102t-22 130q-27 167 -33 215q-9 49 -28 217h-8q-8 -62 -16.5 -122.5t-16.5 -119t-14 -103.5t-19 -126q-6 -42 -16 -103.5t-17 -110 t-15 -100t-20 -123.5zM233 1862v20q8 42 17 57q19 26 51 35q49 8 127 8q62 -6 86 -28q31 -23 39 -74q0 -56 -10 -80q-13 -28 -41 -41q-28 -12 -88 -12v-100h-99v129v4q21 24 64 24q34 3 41 15q8 12 8 36q0 37 -8 48q-10 14 -55 14q-28 0 -31 -35v-20h-101z" />
<glyph unicode="&#x1ea3;" d="M59 549q2 36 5 84t4 84q6 98 26 170q23 77 76 127t149 53q52 0 94.5 -21.5t73.5 -64.5v72h138v-1053h-138v80h-4q-40 -56 -86 -78q-45 -18 -108 -18q-92 3 -135 59q-50 63 -70 172q-14 73 -25 334zM197 479q3 -119 14 -190q9 -77 44.5 -137t96.5 -60q73 9 105 62 q29 52 37 139q7 61 10 282q0 386 -152 386q-93 -8 -121 -109q-30 -105 -30 -289q0 -34 -4 -84zM254 1384v21q6 40 16 57q21 27 52 35q49 8 127 8q60 -6 86 -28q30 -24 38 -74q0 -57 -10 -80q-13 -29 -41 -41q-26 -12 -88 -12v-101h-98v129v5q20 24 63 24q34 3 41 14 q9 13 9 37q0 37 -9 47q-10 15 -55 15q-28 0 -31 -35v-21h-100z" />
<glyph unicode="&#x1ea4;" horiz-adv-x="748" d="M0 0l303 1544h137l308 -1544h-152l-59 315h-328l-57 -315h-152zM152 1659l221 209l221 -209l-78 -74l-145 135l-146 -135zM231 444h285q-4 24 -10.5 59.5t-12.5 71.5t-9 51.5t-11 61.5l-17 102t-22 130q-27 167 -33 215q-9 49 -28 217h-8q-8 -62 -16.5 -122.5t-16.5 -119 t-14 -103.5t-19 -126q-6 -42 -16 -103.5t-17 -110t-15 -100t-20 -123.5zM481 1849l201 252l111 -90l-238 -215z" />
<glyph unicode="&#x1ea5;" d="M59 549q2 36 5 84t4 84q6 98 26 170q23 77 76 127t149 53q52 0 94.5 -21.5t73.5 -64.5v72h138v-1053h-138v80h-4q-40 -56 -86 -78q-45 -18 -108 -18q-92 3 -135 59q-50 63 -70 172q-14 73 -25 334zM154 1202l221 209l221 -209l-78 -74l-145 136l-146 -136zM197 479 q3 -119 14 -190q9 -77 44.5 -137t96.5 -60q73 9 105 62q29 52 37 139q7 61 10 282q0 386 -152 386q-93 -8 -121 -109q-30 -105 -30 -289q0 -34 -4 -84zM483 1393l201 252l111 -91l-238 -215z" />
<glyph unicode="&#x1ea6;" horiz-adv-x="748" d="M0 0l303 1544h137l308 -1544h-152l-59 315h-328l-57 -315h-152zM152 1659l221 209l221 -209l-78 -74l-145 135l-146 -135zM231 444h285q-4 24 -10.5 59.5t-12.5 71.5t-9 51.5t-11 61.5l-17 102t-22 130q-27 167 -33 215q-9 49 -28 217h-8q-8 -62 -16.5 -122.5t-16.5 -119 t-14 -103.5t-19 -126q-6 -42 -16 -103.5t-17 -110t-15 -100t-20 -123.5zM328 2073l112 90l201 -250l-74 -55z" />
<glyph unicode="&#x1ea7;" d="M59 549q2 36 5 84t4 84q6 98 26 170q23 77 76 127t149 53q52 0 94.5 -21.5t73.5 -64.5v72h138v-1053h-138v80h-4q-40 -56 -86 -78q-45 -18 -108 -18q-92 3 -135 59q-50 63 -70 172q-14 73 -25 334zM154 1202l221 209l221 -209l-78 -74l-145 136l-146 -136zM197 479 q3 -119 14 -190q9 -77 44.5 -137t96.5 -60q73 9 105 62q29 52 37 139q7 61 10 282q0 386 -152 386q-93 -8 -121 -109q-30 -105 -30 -289q0 -34 -4 -84zM330 1616l112 90l201 -250l-74 -55z" />
<glyph unicode="&#x1ea8;" horiz-adv-x="748" d="M0 0l303 1544h137l308 -1544h-152l-59 315h-328l-57 -315h-152zM152 1659l221 209l221 -209l-78 -74l-145 135l-146 -135zM231 444h285q-4 24 -10.5 59.5t-12.5 71.5t-9 51.5t-11 61.5l-17 102t-22 130q-27 167 -33 215q-9 49 -28 217h-8q-8 -62 -16.5 -122.5t-16.5 -119 t-14 -103.5t-19 -126q-6 -42 -16 -103.5t-17 -110t-15 -100t-20 -123.5zM426 2032v20q6 40 16 57q21 27 52 35q49 8 127 8q60 -6 86 -28q30 -24 38 -74q0 -56 -10 -80q-13 -29 -41 -41q-26 -12 -88 -12v-100h-98v129v4q20 24 63 24q34 3 41 15q9 12 9 36q0 37 -9 48 q-10 14 -55 14q-28 0 -31 -35v-20h-100z" />
<glyph unicode="&#x1ea9;" d="M59 549q2 36 5 84t4 84q6 98 26 170q23 77 76 127t149 53q52 0 94.5 -21.5t73.5 -64.5v72h138v-1053h-138v80h-4q-40 -56 -86 -78q-45 -18 -108 -18q-92 3 -135 59q-50 63 -70 172q-14 73 -25 334zM154 1202l221 209l221 -209l-78 -74l-145 136l-146 -136zM197 479 q3 -119 14 -190q9 -77 44.5 -137t96.5 -60q73 9 105 62q29 52 37 139q7 61 10 282q0 386 -152 386q-93 -8 -121 -109q-30 -105 -30 -289q0 -34 -4 -84zM428 1575v20q6 40 16 58q21 26 52 35q49 8 127 8q59 -6 86 -29q29 -22 39 -74q0 -54 -11 -80q-12 -28 -41 -40 q-26 -13 -88 -13v-100h-98v129v4q20 25 63 25q34 3 41 14q9 12 9 37q0 37 -9 47q-10 14 -55 14q-28 0 -31 -35v-20h-100z" />
<glyph unicode="&#x1eaa;" horiz-adv-x="748" d="M0 0l303 1544h137l308 -1544h-152l-59 315h-328l-57 -315h-152zM139 1946q3 74 45 116q44 41 101 41q18 0 41 -6q33 -9 47 -16q21 -10 49 -21q21 -8 37 -8q30 0 30 53h113q0 -65 -35 -114q-33 -52 -98 -52q-17 0 -45 7q-31 8 -55 22q-33 16 -50 21q-18 6 -32 6 q-31 0 -31 -49h-117zM152 1659l221 209l221 -209l-78 -74l-145 135l-146 -135zM231 444h285q-4 24 -10.5 59.5t-12.5 71.5t-9 51.5t-11 61.5l-17 102t-22 130q-27 167 -33 215q-9 49 -28 217h-8q-8 -62 -16.5 -122.5t-16.5 -119t-14 -103.5t-19 -126q-6 -42 -16 -103.5 t-17 -110t-15 -100t-20 -123.5z" />
<glyph unicode="&#x1eab;" d="M59 549q2 36 5 84t4 84q6 98 26 170q23 77 76 127t149 53q52 0 94.5 -21.5t73.5 -64.5v72h138v-1053h-138v80h-4q-40 -56 -86 -78q-45 -18 -108 -18q-92 3 -135 59q-50 63 -70 172q-14 73 -25 334zM141 1489q3 73 45 117q46 41 101 41q20 0 41 -7q33 -9 47 -16 q13 -6 49 -20q21 -9 37 -9q31 0 31 54h112q0 -65 -35 -115q-32 -51 -98 -51q-21 0 -45 6q-31 8 -55 21.5t-49 21.5q-19 6 -33 6q-31 0 -31 -49h-117zM154 1202l221 209l221 -209l-78 -74l-145 136l-146 -136zM197 479q3 -119 14 -190q9 -77 44.5 -137t96.5 -60q73 9 105 62 q29 52 37 139q7 61 10 282q0 386 -152 386q-93 -8 -121 -109q-30 -105 -30 -289q0 -34 -4 -84z" />
<glyph unicode="&#x1eac;" horiz-adv-x="748" d="M0 0l303 1544h137l308 -1544h-152l-59 315h-328l-57 -315h-152zM152 1659l221 209l221 -209l-78 -74l-145 135l-146 -135zM231 444h285q-4 24 -10.5 59.5t-12.5 71.5t-9 51.5t-11 61.5l-17 102t-22 130q-27 167 -33 215q-9 49 -28 217h-8q-8 -62 -16.5 -122.5t-16.5 -119 t-14 -103.5t-19 -126q-6 -42 -16 -103.5t-17 -110t-15 -100t-20 -123.5zM281 -209q0 36 24 62q25 24 62 24h-2q40 0 67 -24q27 -27 27 -66t-25 -63q-24 -23 -63 -23q-38 0 -66 25q-24 27 -24 65z" />
<glyph unicode="&#x1ead;" d="M59 549q2 36 5 84t4 84q6 98 26 170q23 77 76 127t149 53q52 0 94.5 -21.5t73.5 -64.5v72h138v-1053h-138v80h-4q-40 -56 -86 -78q-45 -18 -108 -18q-92 3 -135 59q-50 63 -70 172q-14 73 -25 334zM154 1202l221 209l221 -209l-78 -74l-145 136l-146 -136zM197 479 q3 -119 14 -190q9 -77 44.5 -137t96.5 -60q73 9 105 62q29 52 37 139q7 61 10 282q0 386 -152 386q-93 -8 -121 -109q-30 -105 -30 -289q0 -34 -4 -84zM262 -215q0 37 25 61q24 25 61 25h-2q40 0 68 -25q26 -26 26 -65q0 -38 -24 -64q-26 -22 -64 -22t-65 24q-25 28 -25 66z " />
<glyph unicode="&#x1eae;" horiz-adv-x="748" d="M0 0l303 1544h137l308 -1544h-152l-59 315h-328l-57 -315h-152zM160 1755h90l4 -2q3 -41 45 -57q34 -15 76 -15q99 8 123 74h90q0 -77 -58 -123q-61 -45 -153 -45q-95 0 -154 39q-60 42 -63 129zM231 444h285q-4 24 -10.5 59.5t-12.5 71.5t-9 51.5t-11 61.5l-17 102 t-22 130q-27 167 -33 215q-9 49 -28 217h-8q-8 -62 -16.5 -122.5t-16.5 -119t-14 -103.5t-19 -126q-6 -42 -16 -103.5t-17 -110t-15 -100t-20 -123.5zM297 1880l201 252l110 -90l-237 -215z" />
<glyph unicode="&#x1eaf;" d="M59 549q2 36 5 84t4 84q6 98 26 170q23 77 76 127t149 53q52 0 94.5 -21.5t73.5 -64.5v72h138v-1053h-138v80h-4q-40 -56 -86 -78q-45 -18 -108 -18q-92 3 -135 59q-50 63 -70 172q-14 73 -25 334zM162 1288h90l4 -2q3 -41 45 -57q34 -15 76 -15q99 8 123 74h90 q0 -77 -58 -123q-60 -45 -153 -45q-92 0 -154 39q-60 42 -63 129zM197 479q3 -119 14 -190q9 -77 44.5 -137t96.5 -60q73 9 105 62q29 52 37 139q7 61 10 282q0 386 -152 386q-93 -8 -121 -109q-30 -105 -30 -289q0 -34 -4 -84zM299 1413l201 252l110 -90l-237 -215z" />
<glyph unicode="&#x1eb0;" horiz-adv-x="748" d="M0 0l303 1544h137l308 -1544h-152l-59 315h-328l-57 -315h-152zM160 1755h90l4 -2q3 -41 45 -57q34 -15 76 -15q99 8 123 74h90q0 -77 -58 -123q-61 -45 -153 -45q-95 0 -154 39q-60 42 -63 129zM184 2073l113 90l201 -250l-74 -55zM231 444h285q-4 24 -10.5 59.5 t-12.5 71.5t-9 51.5t-11 61.5l-17 102t-22 130q-27 167 -33 215q-9 49 -28 217h-8q-8 -62 -16.5 -122.5t-16.5 -119t-14 -103.5t-19 -126q-6 -42 -16 -103.5t-17 -110t-15 -100t-20 -123.5z" />
<glyph unicode="&#x1eb1;" d="M59 549q2 36 5 84t4 84q6 98 26 170q23 77 76 127t149 53q52 0 94.5 -21.5t73.5 -64.5v72h138v-1053h-138v80h-4q-40 -56 -86 -78q-45 -18 -108 -18q-92 3 -135 59q-50 63 -70 172q-14 73 -25 334zM162 1288h90l4 -2q3 -41 45 -57q34 -15 76 -15q99 8 123 74h90 q0 -77 -58 -123q-60 -45 -153 -45q-92 0 -154 39q-60 42 -63 129zM186 1606l113 90l201 -250l-74 -55zM197 479q3 -119 14 -190q9 -77 44.5 -137t96.5 -60q73 9 105 62q29 52 37 139q7 61 10 282q0 386 -152 386q-93 -8 -121 -109q-30 -105 -30 -289q0 -34 -4 -84z" />
<glyph unicode="&#x1eb2;" horiz-adv-x="748" d="M0 0l303 1544h137l308 -1544h-152l-59 315h-328l-57 -315h-152zM160 1755h90l4 -2q3 -41 45 -57q34 -15 76 -15q99 8 123 74h90q0 -77 -58 -123q-61 -45 -153 -45q-95 0 -154 39q-60 42 -63 129zM231 444h285q-4 24 -10.5 59.5t-12.5 71.5t-9 51.5t-11 61.5l-17 102 t-22 130q-27 167 -33 215q-9 49 -28 217h-8q-8 -62 -16.5 -122.5t-16.5 -119t-14 -103.5t-19 -126q-6 -42 -16 -103.5t-17 -110t-15 -100t-20 -123.5zM231 2042v20q8 42 17 58q20 26 51 34q49 9 127 9q60 -6 86 -29q31 -23 39 -74q0 -56 -10 -80q-14 -27 -41 -41 q-28 -12 -88 -12v-100h-99v129v4q22 25 64 25q34 3 41 14q8 12 8 37q0 37 -8 47q-10 14 -56 14q-27 0 -30 -35v-20h-101z" />
<glyph unicode="&#x1eb3;" d="M59 549q2 36 5 84t4 84q6 98 26 170q23 77 76 127t149 53q52 0 94.5 -21.5t73.5 -64.5v72h138v-1053h-138v80h-4q-40 -56 -86 -78q-45 -18 -108 -18q-92 3 -135 59q-50 63 -70 172q-14 73 -25 334zM162 1288h90l4 -2q3 -41 45 -57q34 -15 76 -15q99 8 123 74h90 q0 -77 -58 -123q-60 -45 -153 -45q-92 0 -154 39q-60 42 -63 129zM197 479q3 -119 14 -190q9 -77 44.5 -137t96.5 -60q73 9 105 62q29 52 37 139q7 61 10 282q0 386 -152 386q-93 -8 -121 -109q-30 -105 -30 -289q0 -34 -4 -84zM233 1575v20q8 42 17 58q19 25 51 35 q49 8 127 8q60 -6 86 -29q31 -23 39 -74q0 -56 -10 -80q-12 -27 -41 -40q-27 -13 -88 -13v-100h-99v129v4q21 25 64 25q34 3 41 14q8 12 8 37q0 37 -8 47q-10 14 -55 14q-28 0 -31 -35v-20h-101z" />
<glyph unicode="&#x1eb4;" horiz-adv-x="748" d="M0 0l303 1544h137l308 -1544h-152l-59 315h-328l-57 -315h-152zM129 1864q3 76 45 116q44 41 100 41q20 0 41 -6q32 -9 47 -16q7 -3 50 -21q21 -8 37 -8q30 0 30 53h113q0 -64 -35 -114q-32 -51 -98 -51q-21 0 -45 6q-30 7 -56 22q-31 15 -49 21t-33 6q-30 0 -30 -49 h-117zM160 1755h90l4 -2q3 -41 45 -57q34 -15 76 -15q99 8 123 74h90q0 -77 -58 -123q-61 -45 -153 -45q-95 0 -154 39q-60 42 -63 129zM231 444h285q-4 24 -10.5 59.5t-12.5 71.5t-9 51.5t-11 61.5l-17 102t-22 130q-27 167 -33 215q-9 49 -28 217h-8q-8 -62 -16.5 -122.5 t-16.5 -119t-14 -103.5t-19 -126q-6 -42 -16 -103.5t-17 -110t-15 -100t-20 -123.5z" />
<glyph unicode="&#x1eb5;" d="M59 549q2 36 5 84t4 84q6 98 26 170q23 77 76 127t149 53q52 0 94.5 -21.5t73.5 -64.5v72h138v-1053h-138v80h-4q-40 -56 -86 -78q-45 -18 -108 -18q-92 3 -135 59q-50 63 -70 172q-14 73 -25 334zM131 1397q3 74 45 116q44 41 100 41q20 0 41 -6q32 -9 48 -16 q9 -5 49 -21q21 -8 37 -8q30 0 30 53h113q0 -64 -35 -114q-32 -51 -98 -51q-21 0 -45 6q-30 7 -56 22q-24 13 -49 21q-18 6 -32 6q-31 0 -31 -49h-117zM162 1288h90l4 -2q3 -41 45 -57q34 -15 76 -15q99 8 123 74h90q0 -77 -58 -123q-60 -45 -153 -45q-92 0 -154 39 q-60 42 -63 129zM197 479q3 -119 14 -190q9 -77 44.5 -137t96.5 -60q73 9 105 62q29 52 37 139q7 61 10 282q0 386 -152 386q-93 -8 -121 -109q-30 -105 -30 -289q0 -34 -4 -84z" />
<glyph unicode="&#x1eb6;" horiz-adv-x="748" d="M0 0l303 1544h137l308 -1544h-152l-59 315h-328l-57 -315h-152zM160 1755h90l4 -2q3 -41 45 -57q34 -15 76 -15q99 8 123 74h90q0 -77 -58 -123q-61 -45 -153 -45q-95 0 -154 39q-60 42 -63 129zM231 444h285q-4 24 -10.5 59.5t-12.5 71.5t-9 51.5t-11 61.5l-17 102 t-22 130q-27 167 -33 215q-9 49 -28 217h-8q-8 -62 -16.5 -122.5t-16.5 -119t-14 -103.5t-19 -126q-6 -42 -16 -103.5t-17 -110t-15 -100t-20 -123.5zM270 -199q0 35 25 62q24 24 61 24h-2q39 0 68 -24q27 -28 27 -66t-25 -63q-24 -23 -64 -23q-39 0 -65 25q-25 28 -25 65z " />
<glyph unicode="&#x1eb7;" d="M59 549q2 36 5 84t4 84q6 98 26 170q23 77 76 127t149 53q52 0 94.5 -21.5t73.5 -64.5v72h138v-1053h-138v80h-4q-40 -56 -86 -78q-45 -18 -108 -18q-92 3 -135 59q-50 63 -70 172q-14 73 -25 334zM162 1288h90l4 -2q3 -41 45 -57q34 -15 76 -15q99 8 123 74h90 q0 -77 -58 -123q-60 -45 -153 -45q-92 0 -154 39q-60 42 -63 129zM197 479q3 -119 14 -190q9 -77 44.5 -137t96.5 -60q73 9 105 62q29 52 37 139q7 61 10 282q0 386 -152 386q-93 -8 -121 -109q-30 -105 -30 -289q0 -34 -4 -84zM252 -205q0 36 24 62q25 24 62 24h-2 q40 0 67 -24q27 -27 27 -66t-24 -63q-26 -23 -64 -23t-66 25q-24 27 -24 65z" />
<glyph unicode="&#x1eb8;" horiz-adv-x="692" d="M125 0v1544h483v-129h-340v-547h332v-133h-332v-604h340v-131h-483zM276 -188q0 36 25 61t61 25h-2q40 0 68 -25q27 -27 27 -66q0 -38 -25 -63q-26 -23 -63 -23q-38 0 -66 25q-25 28 -25 66z" />
<glyph unicode="&#x1eb9;" horiz-adv-x="705" d="M59 545q0 113 27 233q28 124 94 205q66 84 176 84q101 0 166 -68q65 -71 92 -184q27 -111 27 -260v-55h-440q0 -382 155 -391q140 0 140 247h137q0 -96 -27 -176q-28 -85 -84 -141q-58 -55 -149 -55q-104 3 -174 61q-71 59 -105 184q-35 134 -35 316zM201 612h303 q0 332 -148 332q-77 -3 -114.5 -100t-40.5 -232zM260 -205q0 37 24.5 61.5t61.5 24.5h-2q39 0 68 -24q26 -27 26 -66t-24 -63q-26 -23 -64 -23q-39 0 -65 25q-25 26 -25 65z" />
<glyph unicode="&#x1eba;" horiz-adv-x="692" d="M125 0v1544h483v-129h-340v-547h332v-133h-332v-604h340v-131h-483zM238 1862v20q6 40 16 57q19 26 51 35q49 8 127 8q62 -6 86 -28q30 -22 39 -74q0 -56 -10 -80q-13 -28 -41 -41q-28 -12 -88 -12v-100h-99v129v4q21 24 64 24q34 3 41 15q8 12 8 36q0 37 -8 48 q-10 14 -55 14q-28 0 -31 -35v-20h-100z" />
<glyph unicode="&#x1ebb;" horiz-adv-x="705" d="M59 545q0 113 27 233q28 124 94 205q66 84 176 84q101 0 166 -68q65 -71 92 -184q27 -111 27 -260v-55h-440q0 -382 155 -391q140 0 140 247h137q0 -96 -27 -176q-28 -85 -84 -141q-58 -55 -149 -55q-104 3 -174 61q-71 59 -105 184q-35 134 -35 316zM201 612h303 q0 332 -148 332q-77 -3 -114.5 -100t-40.5 -232zM221 1384v21q7 41 17 57q20 27 51 35q49 8 127 8q60 -6 86 -28q31 -25 39 -74q0 -58 -11 -80q-13 -29 -41 -41q-26 -12 -88 -12v-101h-98v129v5q21 24 64 24q32 3 41 14q8 13 8 37q0 37 -8 47q-11 15 -56 15q-27 0 -30 -35 v-21h-101z" />
<glyph unicode="&#x1ebc;" horiz-adv-x="692" d="M125 0v1544h483v-129h-340v-547h332v-133h-332v-604h340v-131h-483zM135 1653q3 74 45 116q44 41 101 41q18 0 41 -6q33 -9 47 -16q9 -5 49 -21q21 -8 37 -8q30 0 30 53h113q0 -64 -35 -114q-32 -51 -98 -51q-21 0 -45 6q-30 7 -55.5 21.5t-49.5 21.5q-18 6 -32 6 q-31 0 -31 -49h-117z" />
<glyph unicode="&#x1ebd;" horiz-adv-x="705" d="M59 545q0 113 27 233q28 124 94 205q66 84 176 84q101 0 166 -68q65 -71 92 -184q27 -111 27 -260v-55h-440q0 -382 155 -391q140 0 140 247h137q0 -96 -27 -176q-28 -85 -84 -141q-58 -55 -149 -55q-104 3 -174 61q-71 59 -105 184q-35 134 -35 316zM119 1176 q3 76 45 116q44 41 100 41q20 0 41 -6q35 -10 47 -16q27 -13 49 -21q23 -8 37 -8q31 0 31 53h113q0 -63 -35 -114q-34 -52 -98 -52q-22 0 -46 7q-29 7 -55 22q-16 8 -28 13t-21 8q-18 6 -33 6q-30 0 -30 -49h-117zM201 612h303q0 332 -148 332q-77 -3 -114.5 -100 t-40.5 -232z" />
<glyph unicode="&#x1ebe;" horiz-adv-x="692" d="M125 0v1544h483v-129h-340v-547h332v-133h-332v-604h340v-131h-483zM131 1688l221 208l221 -208l-77 -74l-146 135l-145 -135zM461 1878l201 252l110 -90l-237 -215z" />
<glyph unicode="&#x1ebf;" horiz-adv-x="705" d="M59 545q0 113 27 233q28 124 94 205q66 84 176 84q101 0 166 -68q65 -71 92 -184q27 -111 27 -260v-55h-440q0 -382 155 -391q140 0 140 247h137q0 -96 -27 -176q-28 -85 -84 -141q-58 -55 -149 -55q-104 3 -174 61q-71 59 -105 184q-35 134 -35 316zM129 1192l221 209 l221 -209l-77 -74l-146 135l-145 -135zM201 612h303q0 332 -148 332q-77 -3 -114.5 -100t-40.5 -232zM459 1382l200 252l111 -90l-238 -215z" />
<glyph unicode="&#x1ec0;" horiz-adv-x="692" d="M125 0v1544h483v-129h-340v-547h332v-133h-332v-604h340v-131h-483zM131 1688l221 208l221 -208l-77 -74l-146 135l-145 -135zM307 2101l113 90l201 -249l-74 -56z" />
<glyph unicode="&#x1ec1;" horiz-adv-x="705" d="M59 545q0 113 27 233q28 124 94 205q66 84 176 84q101 0 166 -68q65 -71 92 -184q27 -111 27 -260v-55h-440q0 -382 155 -391q140 0 140 247h137q0 -96 -27 -176q-28 -85 -84 -141q-58 -55 -149 -55q-104 3 -174 61q-71 59 -105 184q-35 134 -35 316zM129 1192l221 209 l221 -209l-77 -74l-146 135l-145 -135zM201 612h303q0 332 -148 332q-77 -3 -114.5 -100t-40.5 -232zM305 1606l113 90l200 -250l-73 -55z" />
<glyph unicode="&#x1ec2;" horiz-adv-x="692" d="M125 0v1544h483v-129h-340v-547h332v-133h-332v-604h340v-131h-483zM131 1688l221 208l221 -208l-77 -74l-146 135l-145 -135zM406 2060v21q7 41 16 57q19 26 51 35q49 8 127 8q62 -6 86 -29q31 -23 39 -73q0 -57 -10 -80q-12 -28 -41 -41q-28 -12 -88 -12v-101h-99v129 v4q21 25 64 25q34 3 41 14q8 13 8 37q0 37 -8 47q-10 15 -55 15q-28 0 -31 -35v-21h-100z" />
<glyph unicode="&#x1ec3;" horiz-adv-x="705" d="M59 545q0 113 27 233q28 124 94 205q66 84 176 84q101 0 166 -68q65 -71 92 -184q27 -111 27 -260v-55h-440q0 -382 155 -391q140 0 140 247h137q0 -96 -27 -176q-28 -85 -84 -141q-58 -55 -149 -55q-104 3 -174 61q-71 59 -105 184q-35 134 -35 316zM129 1192l221 209 l221 -209l-77 -74l-146 135l-145 -135zM201 612h303q0 332 -148 332q-77 -3 -114.5 -100t-40.5 -232zM403 1565v20q8 42 17 57q19 26 51 35q49 9 127 9q62 -8 86 -29q31 -23 39 -74q0 -56 -10 -80q-13 -28 -41 -41q-28 -12 -88 -12v-100h-99v129v4q21 24 64 24q33 3 41 15 t8 37q0 36 -8 47q-10 14 -55 14q-28 0 -31 -35v-20h-101z" />
<glyph unicode="&#x1ec4;" horiz-adv-x="692" d="M119 1974q3 75 45 117q44 41 100 41q20 0 41 -6q34 -10 47 -17q17 -8 49 -20q23 -8 37 -8q31 0 31 53h113q0 -62 -35 -115q-34 -51 -98 -51q-20 0 -46 6q-26 7 -55 23q-22 11 -49 20q-18 6 -33 6q-30 0 -30 -49h-117zM125 0v1544h483v-129h-340v-547h332v-133h-332v-604 h340v-131h-483zM131 1688l221 208l221 -208l-77 -74l-146 135l-145 -135z" />
<glyph unicode="&#x1ec5;" horiz-adv-x="705" d="M59 545q0 113 27 233q28 124 94 205q66 84 176 84q101 0 166 -68q65 -71 92 -184q27 -111 27 -260v-55h-440q0 -382 155 -391q140 0 140 247h137q0 -96 -27 -176q-28 -85 -84 -141q-58 -55 -149 -55q-104 3 -174 61q-71 59 -105 184q-35 134 -35 316zM117 1479 q3 76 45 116q43 41 100 41q20 0 41 -6q35 -10 47 -16q27 -13 49 -21q23 -8 37 -8q31 0 31 53h113q0 -63 -35 -114q-34 -51 -99 -51q-19 0 -45 6q-29 7 -55 22q-28 14 -49 21q-18 6 -33 6q-31 0 -31 -49h-116zM129 1192l221 209l221 -209l-77 -74l-146 135l-145 -135z M201 612h303q0 332 -148 332q-77 -3 -114.5 -100t-40.5 -232z" />
<glyph unicode="&#x1ec6;" horiz-adv-x="692" d="M125 0v1544h483v-129h-340v-547h332v-133h-332v-604h340v-131h-483zM131 1688l221 208l221 -208l-77 -74l-146 135l-145 -135zM270 -211q0 36 24.5 61t61.5 25h-2q40 0 68 -25q27 -27 27 -65q0 -37 -25 -64q-25 -22 -64 -22t-65 25q-25 28 -25 65z" />
<glyph unicode="&#x1ec7;" horiz-adv-x="705" d="M59 545q0 113 27 233q28 124 94 205q66 84 176 84q101 0 166 -68q65 -71 92 -184q27 -111 27 -260v-55h-440q0 -382 155 -391q140 0 140 247h137q0 -96 -27 -176q-28 -85 -84 -141q-58 -55 -149 -55q-104 3 -174 61q-71 59 -105 184q-35 134 -35 316zM129 1192l221 209 l221 -209l-77 -74l-146 135l-145 -135zM201 612h303q0 332 -148 332q-77 -3 -114.5 -100t-40.5 -232zM258 -205q0 37 24.5 61.5t61.5 24.5h-2q39 0 68 -24q26 -27 26 -66t-24 -63q-26 -23 -64 -23q-39 0 -65 25q-25 26 -25 65z" />
<glyph unicode="&#x1ec8;" horiz-adv-x="387" d="M86 1882v21q7 41 16 57q23 27 52 35q49 8 127 8q61 -6 86 -29q29 -22 39 -73q0 -55 -11 -80q-12 -29 -41 -41q-26 -13 -88 -13v-100h-98v129v4q20 25 63 25q34 3 41 14q9 12 9 37q0 37 -9 47q-10 14 -55 14q-28 0 -31 -34v-21h-100zM125 0v1544h143v-1544h-143z" />
<glyph unicode="&#x1ec9;" horiz-adv-x="315" d="M37 1382v21q7 41 16 57q21 27 51 35q50 8 127 8q62 -6 86 -28q31 -24 39 -74q0 -57 -10 -80q-13 -29 -41 -41q-26 -12 -88 -12v-101h-98v129v4q20 25 63 25q34 3 41 14q8 13 8 37q0 37 -8 47q-10 15 -55 15q-28 0 -31 -35v-21h-100zM92 0v1053h131v-1053h-131z" />
<glyph unicode="&#x1eca;" horiz-adv-x="387" d="M115 -219q0 37 24 61q25 25 62 25h-2q41 0 67 -25q27 -26 27 -65t-25 -64q-25 -22 -63 -22q-37 0 -66 24q-24 28 -24 66zM125 0v1544h143v-1544h-143z" />
<glyph unicode="&#x1ecb;" horiz-adv-x="315" d="M68 -219q0 37 24 61q25 25 62 25h-2q41 0 67 -25q27 -26 27 -65t-25 -64q-25 -22 -63 -22q-37 0 -66 24q-24 28 -24 66zM80 1272q0 37 24 61q25 25 62 25h-2q41 0 67 -25q27 -26 27 -65t-25 -64q-25 -22 -63 -22q-37 0 -66 24q-24 28 -24 66zM92 0v1053h131v-1053h-131z " />
<glyph unicode="&#x1ecc;" horiz-adv-x="911" d="M76 696q4 78 4 160q0 155 24 311q22 152 107 279q82 123 246 123q158 -3 241 -117q81 -110 107 -258q23 -139 31 -305q0 -185 -5 -260q-9 -286 -92 -465q-27 -61 -68.5 -101t-96.5 -60.5t-125 -22.5q-192 0 -271 174q-80 172 -98 471q0 39 -4 71zM219 725q3 -244 51 -432 q47 -176 191 -176q135 0 182 182q45 179 45 432v92q0 182 -18 314q-20 132 -70 209q-53 77 -143 77q-67 0 -115.5 -39t-83.5 -178q-35 -146 -35 -405q0 -36 -4 -76zM365 -209q0 36 24 62q25 24 62 24h-2q40 0 67 -24q27 -27 27 -66t-25 -63q-24 -23 -63 -23q-38 0 -66 25 q-24 27 -24 65z" />
<glyph unicode="&#x1ecd;" horiz-adv-x="727" d="M59 469q4 58 4 111q0 180 64 335q64 156 254 156q158 -6 216.5 -153t61.5 -322q0 -25 2.5 -49.5t2.5 -59.5q0 -108 -23 -233q-20 -107 -90 -191q-64 -76 -186 -79q-280 0 -302 432q0 25 -4 53zM201 555q0 -176 30 -311q28 -135 138 -135q91 3 125 133q34 136 34 278v47 q-15 377 -168 377q-72 -6 -114 -88q-42 -86 -45 -301zM270 -205q0 35 25 62q24 24 61 24h-2q39 0 68 -24q27 -28 27 -66t-25 -63q-24 -23 -64 -23q-39 0 -65 25q-25 28 -25 65z" />
<glyph unicode="&#x1ece;" horiz-adv-x="911" d="M76 696q4 78 4 160q0 155 24 311q22 152 107 279q82 123 246 123q158 -3 241 -117q81 -110 107 -258q23 -139 31 -305q0 -185 -5 -260q-9 -286 -92 -465q-27 -61 -68.5 -101t-96.5 -60.5t-125 -22.5q-192 0 -271 174q-80 172 -98 471q0 39 -4 71zM219 725q3 -244 51 -432 q47 -176 191 -176q135 0 182 182q45 179 45 432v92q0 182 -18 314q-20 132 -70 209q-53 77 -143 77q-67 0 -115.5 -39t-83.5 -178q-35 -146 -35 -405q0 -36 -4 -76zM326 1886v21q7 41 16 57q21 27 51 35q49 8 127 8q62 -6 86 -29q31 -22 39 -73q0 -57 -10 -80 q-12 -28 -41 -41q-28 -12 -88 -12v-101h-98v129v4q20 25 63 25q34 3 41 14q8 12 8 37q0 37 -8 47q-10 15 -55 15q-28 0 -31 -35v-21h-100z" />
<glyph unicode="&#x1ecf;" horiz-adv-x="727" d="M59 469q4 58 4 111q0 180 64 335q64 156 254 156q158 -6 216.5 -153t61.5 -322q0 -25 2.5 -49.5t2.5 -59.5q0 -108 -23 -233q-20 -107 -90 -191q-64 -76 -186 -79q-280 0 -302 432q0 25 -4 53zM201 555q0 -176 30 -311q28 -135 138 -135q91 3 125 133q34 136 34 278v47 q-15 377 -168 377q-72 -6 -114 -88q-42 -86 -45 -301zM242 1389v20q6 40 16 57q19 26 51 35q49 8 127 8q62 -6 86 -28q31 -24 39 -74q0 -56 -10 -80q-13 -28 -41 -41q-28 -12 -88 -12v-100h-98v129v4q20 24 63 24q34 3 41 15q8 12 8 36q0 37 -8 48q-10 14 -55 14 q-28 0 -31 -35v-20h-100z" />
<glyph unicode="&#x1ed0;" horiz-adv-x="911" d="M76 696q4 78 4 160q0 155 24 311q22 152 107 279q82 123 246 123q158 -3 241 -117q81 -110 107 -258q23 -139 31 -305q0 -185 -5 -260q-9 -286 -92 -465q-27 -61 -68.5 -101t-96.5 -60.5t-125 -22.5q-192 0 -271 174q-80 172 -98 471q0 39 -4 71zM219 725q3 -244 51 -432 q47 -176 191 -176q135 0 182 182q45 179 45 432v92q0 182 -18 314q-20 132 -70 209q-53 77 -143 77q-67 0 -115.5 -39t-83.5 -178q-35 -146 -35 -405q0 -36 -4 -76zM258 1696l221 209l221 -209l-77 -74l-146 135l-145 -135zM588 1886l200 252l111 -90l-237 -215z" />
<glyph unicode="&#x1ed1;" horiz-adv-x="727" d="M59 469q4 58 4 111q0 180 64 335q64 156 254 156q158 -6 216.5 -153t61.5 -322q0 -25 2.5 -49.5t2.5 -59.5q0 -108 -23 -233q-20 -107 -90 -191q-64 -76 -186 -79q-280 0 -302 432q0 25 -4 53zM150 1180l221 209l221 -209l-78 -74l-145 135l-146 -135zM201 555 q0 -176 30 -311q28 -135 138 -135q91 3 125 133q34 136 34 278v47q-15 377 -168 377q-72 -6 -114 -88q-42 -86 -45 -301zM479 1370l201 252l111 -90l-238 -215z" />
<glyph unicode="&#x1ed2;" horiz-adv-x="911" d="M76 696q4 78 4 160q0 155 24 311q22 152 107 279q82 123 246 123q158 -3 241 -117q81 -110 107 -258q23 -139 31 -305q0 -185 -5 -260q-9 -286 -92 -465q-27 -61 -68.5 -101t-96.5 -60.5t-125 -22.5q-192 0 -271 174q-80 172 -98 471q0 39 -4 71zM219 725q3 -244 51 -432 q47 -176 191 -176q135 0 182 182q45 179 45 432v92q0 182 -18 314q-20 132 -70 209q-53 77 -143 77q-67 0 -115.5 -39t-83.5 -178q-35 -146 -35 -405q0 -36 -4 -76zM258 1696l221 209l221 -209l-77 -74l-146 135l-145 -135zM434 2109l113 91l201 -250l-74 -56z" />
<glyph unicode="&#x1ed3;" horiz-adv-x="727" d="M59 469q4 58 4 111q0 180 64 335q64 156 254 156q158 -6 216.5 -153t61.5 -322q0 -25 2.5 -49.5t2.5 -59.5q0 -108 -23 -233q-20 -107 -90 -191q-64 -76 -186 -79q-280 0 -302 432q0 25 -4 53zM150 1180l221 209l221 -209l-78 -74l-145 135l-146 -135zM201 555 q0 -176 30 -311q28 -135 138 -135q91 3 125 133q34 136 34 278v47q-15 377 -168 377q-72 -6 -114 -88q-42 -86 -45 -301zM326 1593l112 90l201 -249l-74 -56z" />
<glyph unicode="&#x1ed4;" horiz-adv-x="911" d="M76 696q4 78 4 160q0 155 24 311q22 152 107 279q82 123 246 123q158 -3 241 -117q81 -110 107 -258q23 -139 31 -305q0 -185 -5 -260q-9 -286 -92 -465q-27 -61 -68.5 -101t-96.5 -60.5t-125 -22.5q-192 0 -271 174q-80 172 -98 471q0 39 -4 71zM219 725q3 -244 51 -432 q47 -176 191 -176q135 0 182 182q45 179 45 432v92q0 182 -18 314q-20 132 -70 209q-53 77 -143 77q-67 0 -115.5 -39t-83.5 -178q-35 -146 -35 -405q0 -36 -4 -76zM258 1696l221 209l221 -209l-77 -74l-146 135l-145 -135zM532 2068v21q8 42 17 57q19 26 51 35q49 8 127 8 q62 -6 86 -28q31 -25 39 -74q0 -57 -10 -80q-13 -28 -41 -41q-28 -12 -88 -12v-101h-99v129v5q21 24 64 24q34 3 41 14q8 13 8 37q0 37 -8 47q-10 15 -55 15q-28 0 -31 -35v-21h-101z" />
<glyph unicode="&#x1ed5;" horiz-adv-x="727" d="M59 469q4 58 4 111q0 180 64 335q64 156 254 156q158 -6 216.5 -153t61.5 -322q0 -25 2.5 -49.5t2.5 -59.5q0 -108 -23 -233q-20 -107 -90 -191q-64 -76 -186 -79q-280 0 -302 432q0 25 -4 53zM150 1180l221 209l221 -209l-78 -74l-145 135l-146 -135zM201 555 q0 -176 30 -311q28 -135 138 -135q91 3 125 133q34 136 34 278v47q-15 377 -168 377q-72 -6 -114 -88q-42 -86 -45 -301zM424 1552v21q7 41 16 57q21 27 52 35q49 8 126 8q61 -6 87 -28q30 -24 38 -74q0 -57 -10 -80q-13 -29 -41 -41q-26 -12 -88 -12v-101h-98v129v4 q20 25 63 25q34 3 41 14q8 13 8 37q0 37 -8 47q-10 15 -55 15q-28 0 -31 -35v-21h-100z" />
<glyph unicode="&#x1ed6;" horiz-adv-x="911" d="M76 696q4 78 4 160q0 155 24 311q22 152 107 279q82 123 246 123q158 -3 241 -117q81 -110 107 -258q23 -139 31 -305q0 -185 -5 -260q-9 -286 -92 -465q-27 -61 -68.5 -101t-96.5 -60.5t-125 -22.5q-192 0 -271 174q-80 172 -98 471q0 39 -4 71zM219 725q3 -244 51 -432 q47 -176 191 -176q135 0 182 182q45 179 45 432v92q0 182 -18 314q-20 132 -70 209q-53 77 -143 77q-67 0 -115.5 -39t-83.5 -178q-35 -146 -35 -405q0 -36 -4 -76zM246 1982q3 76 45 117q43 41 100 41q20 0 41 -6q35 -10 47 -16q17 -9 49 -21q23 -8 37 -8q31 0 31 53h113 q0 -63 -35 -114q-34 -52 -99 -52q-19 0 -45 6q-33 10 -55 23q-22 11 -49 20q-17 7 -33 7q-31 0 -31 -50h-116zM258 1696l221 209l221 -209l-77 -74l-146 135l-145 -135z" />
<glyph unicode="&#x1ed7;" horiz-adv-x="727" d="M59 469q4 58 4 111q0 180 64 335q64 156 254 156q158 -6 216.5 -153t61.5 -322q0 -25 2.5 -49.5t2.5 -59.5q0 -108 -23 -233q-20 -107 -90 -191q-64 -76 -186 -79q-280 0 -302 432q0 25 -4 53zM137 1466q3 73 45 117q44 41 101 41q18 0 41 -6q33 -9 47 -16q18 -10 49 -21 q21 -8 37 -8q30 0 30 53h113q0 -65 -35 -115q-33 -51 -98 -51q-21 0 -45 6q-29 7 -55 23q-27 13 -50 20q-21 7 -32 7q-31 0 -31 -50h-117zM150 1180l221 209l221 -209l-78 -74l-145 135l-146 -135zM201 555q0 -176 30 -311q28 -135 138 -135q91 3 125 133q34 136 34 278v47 q-15 377 -168 377q-72 -6 -114 -88q-42 -86 -45 -301z" />
<glyph unicode="&#x1ed8;" horiz-adv-x="911" d="M76 696q4 78 4 160q0 155 24 311q22 152 107 279q82 123 246 123q158 -3 241 -117q81 -110 107 -258q23 -139 31 -305q0 -185 -5 -260q-9 -286 -92 -465q-27 -61 -68.5 -101t-96.5 -60.5t-125 -22.5q-192 0 -271 174q-80 172 -98 471q0 39 -4 71zM219 725q3 -244 51 -432 q47 -176 191 -176q135 0 182 182q45 179 45 432v92q0 182 -18 314q-20 132 -70 209q-53 77 -143 77q-67 0 -115.5 -39t-83.5 -178q-35 -146 -35 -405q0 -36 -4 -76zM258 1696l221 209l221 -209l-77 -74l-146 135l-145 -135zM356 -203q0 35 25 62q24 24 61 24h-2q39 0 68 -24 q27 -28 27 -66t-25 -63q-24 -23 -64 -23q-39 0 -65 25q-25 28 -25 65z" />
<glyph unicode="&#x1ed9;" horiz-adv-x="727" d="M59 469q4 58 4 111q0 180 64 335q64 156 254 156q158 -6 216.5 -153t61.5 -322q0 -25 2.5 -49.5t2.5 -59.5q0 -108 -23 -233q-20 -107 -90 -191q-64 -76 -186 -79q-280 0 -302 432q0 25 -4 53zM150 1180l221 209l221 -209l-78 -74l-145 135l-146 -135zM201 555 q0 -176 30 -311q28 -135 138 -135q91 3 125 133q34 136 34 278v47q-15 377 -168 377q-72 -6 -114 -88q-42 -86 -45 -301zM258 -217q0 37 25 61q24 25 61 25h-2q40 0 68 -25q26 -26 26 -65q0 -38 -24 -64q-26 -22 -64 -22t-65 24q-25 28 -25 66z" />
<glyph unicode="&#x1eda;" horiz-adv-x="911" d="M80 625l4 -2q0 39 -4 71q4 78 4 160q0 158 25 311q20 151 106 279q82 123 246 123q158 -3 241 -117q58 -70 86 -172q55 28 73 101.5t22 189.5h118q-12 -155 -42 -243t-67 -116t-85 -30q23 -154 29 -291q0 -185 -5 -260q-9 -286 -92 -465q-27 -61 -68.5 -101t-96.5 -60.5 t-125 -22.5q-192 0 -271 174q-80 172 -98 471zM219 725q3 -244 51 -432q47 -176 191 -176q135 0 182 182q45 179 45 432v92q0 182 -18 314q-20 132 -70 209q-53 77 -143 77q-67 0 -115.5 -39t-83.5 -178q-35 -146 -35 -405q0 -36 -4 -76zM344 1722l201 252l110 -90 l-237 -215z" />
<glyph unicode="&#x1edb;" horiz-adv-x="727" d="M61 469q5 73 5 111q0 183 63 335q64 156 254 156q158 -6 217 -153q13 -25 23 -84q41 21 54 73.5t15 159.5h109q-1 -121 -21 -189.5t-54 -93t-85 -26.5q18 -73 18 -162q0 -25 2.5 -49.5t2.5 -59.5q0 -108 -23 -233q-20 -107 -90 -191q-64 -76 -186 -79q-280 0 -302 432h3 q0 18 -5 53zM201 555q0 -176 30 -311q28 -135 138 -135q91 3 125 133q34 136 34 278v47q-15 377 -168 377q-72 -6 -114 -88q-42 -86 -45 -301zM238 1227l200 252l111 -90l-238 -215z" />
<glyph unicode="&#x1edc;" horiz-adv-x="911" d="M80 625l4 -2q0 39 -4 71q4 78 4 160q0 158 25 311q20 151 106 279q82 123 246 123q158 -3 241 -117q58 -70 86 -172q55 28 73 101.5t22 189.5h118q-12 -155 -42 -243t-67 -116t-85 -30q23 -154 29 -291q0 -185 -5 -260q-9 -286 -92 -465q-27 -61 -68.5 -101t-96.5 -60.5 t-125 -22.5q-192 0 -271 174q-80 172 -98 471zM219 725q3 -244 51 -432q47 -176 191 -176q135 0 182 182q45 179 45 432v92q0 182 -18 314q-20 132 -70 209q-53 77 -143 77q-67 0 -115.5 -39t-83.5 -178q-35 -146 -35 -405q0 -36 -4 -76zM303 1884l113 90l200 -250l-73 -55z " />
<glyph unicode="&#x1edd;" horiz-adv-x="727" d="M61 469q5 73 5 111q0 183 63 335q64 156 254 156q158 -6 217 -153q13 -25 23 -84q41 21 54 73.5t15 159.5h109q-1 -121 -21 -189.5t-54 -93t-85 -26.5q18 -73 18 -162q0 -25 2.5 -49.5t2.5 -59.5q0 -108 -23 -233q-20 -107 -90 -191q-64 -76 -186 -79q-280 0 -302 432h3 q0 18 -5 53zM201 555q0 -176 30 -311q28 -135 138 -135q91 3 125 133q34 136 34 278v47q-15 377 -168 377q-72 -6 -114 -88q-42 -86 -45 -301zM207 1389l112 90l201 -250l-74 -55z" />
<glyph unicode="&#x1ede;" horiz-adv-x="911" d="M80 625l4 -2q0 39 -4 71q4 78 4 160q0 158 25 311q20 151 106 279q82 123 246 123q158 -3 241 -117q58 -70 86 -172q55 28 73 101.5t22 189.5h118q-12 -155 -42 -243t-67 -116t-85 -30q23 -154 29 -291q0 -185 -5 -260q-9 -286 -92 -465q-27 -61 -68.5 -101t-96.5 -60.5 t-125 -22.5q-192 0 -271 174q-80 172 -98 471zM219 725q3 -244 51 -432q47 -176 191 -176q135 0 182 182q45 179 45 432v92q0 182 -18 314q-20 132 -70 209q-53 77 -143 77q-67 0 -115.5 -39t-83.5 -178q-35 -146 -35 -405q0 -36 -4 -76zM330 1884v21q7 41 16 57 q21 27 51 35q49 8 127 8q62 -6 86 -29q30 -21 39 -73q0 -57 -10 -80q-12 -28 -41.5 -41t-87.5 -13v-100h-98v129v4q20 25 63 25q34 3 41 14q8 12 8 37q0 37 -8 47q-10 14 -55 14q-28 0 -31 -34v-21h-100z" />
<glyph unicode="&#x1edf;" horiz-adv-x="727" d="M61 469q5 73 5 111q0 183 63 335q64 156 254 156q158 -6 217 -153q13 -25 23 -84q41 21 54 73.5t15 159.5h109q-1 -121 -21 -189.5t-54 -93t-85 -26.5q18 -73 18 -162q0 -25 2.5 -49.5t2.5 -59.5q0 -108 -23 -233q-20 -107 -90 -191q-64 -76 -186 -79q-280 0 -302 432h3 q0 18 -5 53zM201 555q0 -176 30 -311q28 -135 138 -135q91 3 125 133q34 136 34 278v47q-15 377 -168 377q-72 -6 -114 -88q-42 -86 -45 -301zM244 1389v20q6 40 16 57q19 26 51 35q49 8 127 8q62 -6 86 -28q31 -24 39 -74q0 -56 -10 -80q-13 -28 -41 -41q-28 -12 -88 -12 v-100h-98v129v4q20 24 63 24q34 3 41 15q8 12 8 36q0 37 -8 48q-10 14 -55 14q-28 0 -31 -35v-20h-100z" />
<glyph unicode="&#x1ee0;" horiz-adv-x="911" d="M80 625l4 -2q0 39 -4 71q4 78 4 160q0 158 25 311q20 151 106 279q82 123 246 123q158 -3 241 -117q58 -70 86 -172q55 28 73 101.5t22 189.5h118q-12 -155 -42 -243t-67 -116t-85 -30q23 -154 29 -291q0 -185 -5 -260q-9 -286 -92 -465q-27 -61 -68.5 -101t-96.5 -60.5 t-125 -22.5q-192 0 -271 174q-80 172 -98 471zM219 725q3 -244 51 -432q47 -176 191 -176q135 0 182 182q45 179 45 432v92q0 182 -18 314q-20 132 -70 209q-53 77 -143 77q-67 0 -115.5 -39t-83.5 -178q-35 -146 -35 -405q0 -36 -4 -76zM227 1675q3 73 45 117q44 41 101 41 q18 0 41 -6q32 -9 47 -17q13 -6 49 -20q21 -8 37 -8q31 0 31 53h112q0 -65 -35 -115q-33 -51 -98 -51q-21 0 -45 6q-29 7 -55 23q-26 12 -49 20q-19 6 -33 6q-31 0 -31 -49h-117z" />
<glyph unicode="&#x1ee1;" horiz-adv-x="727" d="M61 469q5 73 5 111q0 183 63 335q64 156 254 156q158 -6 217 -153q13 -25 23 -84q41 21 54 73.5t15 159.5h109q-1 -121 -21 -189.5t-54 -93t-85 -26.5q18 -73 18 -162q0 -25 2.5 -49.5t2.5 -59.5q0 -108 -23 -233q-20 -107 -90 -191q-64 -76 -186 -79q-280 0 -302 432h3 q0 18 -5 53zM131 1180q3 74 45 116q44 41 100 41q20 0 41 -6q32 -9 48 -16q25 -13 49 -21q21 -8 37 -8q30 0 30 53h113q0 -65 -35 -114q-32 -51 -98 -51q-21 0 -45 6q-30 7 -56 22q-31 15 -49 21t-32 6q-31 0 -31 -49h-117zM201 555q0 -176 30 -311q28 -135 138 -135 q91 3 125 133q34 136 34 278v47q-15 377 -168 377q-72 -6 -114 -88q-42 -86 -45 -301z" />
<glyph unicode="&#x1ee2;" horiz-adv-x="911" d="M80 625l4 -2q0 39 -4 71q4 78 4 160q0 158 25 311q20 151 106 279q82 123 246 123q158 -3 241 -117q58 -70 86 -172q55 28 73 101.5t22 189.5h118q-12 -155 -42 -243t-67 -116t-85 -30q23 -154 29 -291q0 -185 -5 -260q-9 -286 -92 -465q-27 -61 -68.5 -101t-96.5 -60.5 t-125 -22.5q-192 0 -271 174q-80 172 -98 471zM219 725q3 -244 51 -432q47 -176 191 -176q135 0 182 182q45 179 45 432v92q0 182 -18 314q-20 132 -70 209q-53 77 -143 77q-67 0 -115.5 -39t-83.5 -178q-35 -146 -35 -405q0 -36 -4 -76zM369 -211q0 37 24 61q25 25 62 25 h-2q41 0 67 -25q27 -26 27 -65t-25 -64q-25 -22 -63 -22t-66 25q-24 27 -24 65z" />
<glyph unicode="&#x1ee3;" horiz-adv-x="727" d="M61 469q5 73 5 111q0 183 63 335q64 156 254 156q158 -6 217 -153q13 -25 23 -84q41 21 54 73.5t15 159.5h109q-1 -121 -21 -189.5t-54 -93t-85 -26.5q18 -73 18 -162q0 -25 2.5 -49.5t2.5 -59.5q0 -108 -23 -233q-20 -107 -90 -191q-64 -76 -186 -79q-280 0 -302 432h3 q0 18 -5 53zM201 555q0 -176 30 -311q28 -135 138 -135q91 3 125 133q34 136 34 278v47q-15 377 -168 377q-72 -6 -114 -88q-42 -86 -45 -301zM272 -205q0 35 25 62q24 24 61 24h-2q41 0 68 -24q27 -28 27 -66t-25 -63q-24 -23 -64 -23q-39 0 -65 25q-25 28 -25 65z" />
<glyph unicode="&#x1ee4;" horiz-adv-x="881" d="M117 436v1108h143v-1120q0 -151 33 -227q33 -80 139 -80q80 0 119 33q40 32 55 104q15 70 15 190v1100h143v-1087q0 -149 -23 -252q-20 -98 -92 -164q-70 -61 -205 -61q-128 0 -198 49q-72 49 -101 147q-28 106 -28 260zM350 -209q0 37 24.5 61.5t61.5 24.5h-2 q39 0 68 -24q26 -27 26 -66t-24 -63q-26 -23 -64 -23q-39 0 -65 25q-25 26 -25 65z" />
<glyph unicode="&#x1ee5;" d="M84 285v768h131v-668q0 -125 25 -201q24 -75 116 -75q67 0 99 41q29 41 37 104q8 57 8 166v633h133v-760q0 -309 -273 -309q-132 0 -202 73q-74 79 -74 228zM268 -205q0 37 24.5 61.5t61.5 24.5h-2q39 0 68 -24q26 -27 26 -66t-24 -63q-26 -23 -64 -23q-39 0 -65 25 q-25 26 -25 65z" />
<glyph unicode="&#x1ee6;" horiz-adv-x="881" d="M117 436v1108h143v-1120q0 -151 33 -227q33 -80 139 -80q80 0 119 33q40 32 55 104q15 70 15 190v1100h143v-1087q0 -149 -23 -252q-20 -98 -92 -164q-70 -61 -205 -61q-128 0 -198 49q-72 49 -101 147q-28 106 -28 260zM311 1872v20q6 40 17 58q20 26 51 35q49 8 127 8 q59 -6 86 -29q31 -23 39 -74q0 -56 -10 -80q-14 -27 -41 -41q-28 -12 -88 -12v-100h-99v129v4q22 25 64 25q34 3 41 14q8 12 8 37q0 37 -8 47q-11 14 -56 14q-27 0 -30 -35v-20h-101z" />
<glyph unicode="&#x1ee7;" d="M84 285v768h131v-668q0 -125 25 -201q24 -75 116 -75q67 0 99 41q29 41 37 104q8 57 8 166v633h133v-760q0 -309 -273 -309q-132 0 -202 73q-74 79 -74 228zM209 1370v21q7 41 16 57q23 27 51 35q50 8 127 8q62 -6 86 -29q30 -21 39 -73q0 -57 -10 -80q-12 -29 -41 -41 q-26 -13 -88 -13v-100h-98v129v4q20 25 63 25q34 3 41 14q8 12 8 37q0 37 -8 47q-10 14 -55 14q-28 0 -31 -34v-21h-100z" />
<glyph unicode="&#x1ee8;" horiz-adv-x="881" d="M117 436v1108h143v-1120q0 -151 33 -227q33 -80 139 -80q80 0 119 33q40 32 55 104q15 70 15 190v1100h143v-291q42 26 56 97.5t20 191.5h118q-12 -155 -42 -243t-67 -116t-85 -30v-696q0 -149 -23 -252q-20 -98 -92 -164q-70 -61 -205 -61q-128 0 -198 49 q-72 49 -101 147q-28 106 -28 260zM346 1710l201 252l110 -90l-237 -215z" />
<glyph unicode="&#x1ee9;" d="M84 285v768h131v-668q0 -125 25 -201q24 -75 116 -75q67 0 99 41q29 41 37 104q8 57 8 166v633h133v-236q36 23 47.5 75.5t13.5 158.5h109q-7 -121 -28 -189t-56 -93.5t-86 -27.5v-448q0 -309 -273 -309q-132 0 -202 73q-74 79 -74 228zM264 1208l201 252l110 -90 l-237 -215z" />
<glyph unicode="&#x1eea;" horiz-adv-x="881" d="M117 436v1108h143v-1120q0 -151 33 -227q33 -80 139 -80q80 0 119 33q40 32 55 104q15 70 15 190v1100h143v-291q42 26 56 97.5t20 191.5h118q-12 -155 -42 -243t-67 -116t-85 -30v-696q0 -149 -23 -252q-20 -98 -92 -164q-70 -61 -205 -61q-128 0 -198 49 q-72 49 -101 147q-28 106 -28 260zM285 1862l112 90l201 -250l-74 -55z" />
<glyph unicode="&#x1eeb;" d="M84 285v768h131v-668q0 -125 25 -201q24 -75 116 -75q67 0 99 41q29 41 37 104q8 57 8 166v633h133v-236q36 23 47.5 75.5t13.5 158.5h109q-7 -121 -28 -189t-56 -93.5t-86 -27.5v-448q0 -309 -273 -309q-132 0 -202 73q-74 79 -74 228zM203 1370l112 90l201 -250 l-74 -55z" />
<glyph unicode="&#x1eec;" horiz-adv-x="881" d="M117 436v1108h143v-1120q0 -151 33 -227q33 -80 139 -80q80 0 119 33q40 32 55 104q15 70 15 190v1100h143v-291q42 26 56 97.5t20 191.5h118q-12 -155 -42 -243t-67 -116t-85 -30v-696q0 -149 -23 -252q-20 -98 -92 -164q-70 -61 -205 -61q-128 0 -198 49 q-72 49 -101 147q-28 106 -28 260zM311 1872v20q6 40 17 58q20 26 51 35q49 8 127 8q59 -6 86 -29q31 -23 39 -74q0 -56 -10 -80q-14 -27 -41 -41q-28 -12 -88 -12v-100h-99v129v4q22 25 64 25q34 3 41 14q8 12 8 37q0 37 -8 47q-11 14 -56 14q-27 0 -30 -35v-20h-101z" />
<glyph unicode="&#x1eed;" d="M84 285v768h131v-668q0 -125 25 -201q24 -75 116 -75q67 0 99 41q29 41 37 104q8 57 8 166v633h133v-236q36 23 47.5 75.5t13.5 158.5h109q-7 -121 -28 -189t-56 -93.5t-86 -27.5v-448q0 -309 -273 -309q-132 0 -202 73q-74 79 -74 228zM209 1370v21q7 41 16 57 q23 27 51 35q50 8 127 8q62 -6 86 -29q30 -21 39 -73q0 -57 -10 -80q-12 -29 -41 -41q-26 -13 -88 -13v-100h-98v129v4q20 25 63 25q34 3 41 14q8 12 8 37q0 37 -8 47q-10 14 -55 14q-28 0 -31 -34v-21h-100z" />
<glyph unicode="&#x1eee;" horiz-adv-x="881" d="M117 436v1108h143v-1120q0 -151 33 -227q33 -80 139 -80q80 0 119 33q40 32 55 104q15 70 15 190v1100h143v-291q42 26 56 97.5t20 191.5h118q-12 -155 -42 -243t-67 -116t-85 -30v-696q0 -149 -23 -252q-20 -98 -92 -164q-70 -61 -205 -61q-128 0 -198 49 q-72 49 -101 147q-28 106 -28 260zM209 1653q3 76 45 116q44 41 100 41q20 0 41 -6q32 -9 47 -16q7 -3 50 -21q21 -8 36 -8q31 0 31 53h113q0 -61 -35 -114q-34 -51 -98 -51q-21 0 -45 6q-30 7 -56 22q-22 12 -49 21q-18 6 -33 6q-30 0 -30 -49h-117z" />
<glyph unicode="&#x1eef;" d="M84 285v768h131v-668q0 -125 25 -201q24 -75 116 -75q67 0 99 41q29 41 37 104q8 57 8 166v633h133v-236q36 23 47.5 75.5t13.5 158.5h109q-7 -121 -28 -189t-56 -93.5t-86 -27.5v-448q0 -309 -273 -309q-132 0 -202 73q-74 79 -74 228zM127 1161q3 75 45 117 q44 41 100 41q20 0 41 -6q32 -9 47 -17q20 -9 50 -20q21 -8 36 -8q31 0 31 53h113q0 -65 -35 -115q-34 -51 -98 -51q-21 0 -45 6q-30 7 -56 23q-22 11 -49 20q-18 6 -33 6q-30 0 -30 -49h-117z" />
<glyph unicode="&#x1ef0;" horiz-adv-x="881" d="M117 436v1108h143v-1120q0 -151 33 -227q33 -80 139 -80q80 0 119 33q40 32 55 104q15 70 15 190v1100h143v-291q42 26 56 97.5t20 191.5h118q-12 -155 -42 -243t-67 -116t-85 -30v-696q0 -149 -23 -252q-20 -98 -92 -164q-70 -61 -205 -61q-128 0 -198 49 q-72 49 -101 147q-28 106 -28 260zM350 -209q0 37 24.5 61.5t61.5 24.5h-2q39 0 68 -24q26 -27 26 -66t-24 -63q-26 -23 -64 -23q-39 0 -65 25q-25 26 -25 65z" />
<glyph unicode="&#x1ef1;" d="M84 285v768h131v-668q0 -125 25 -201q24 -75 116 -75q67 0 99 41q29 41 37 104q8 57 8 166v633h133v-236q36 23 47.5 75.5t13.5 158.5h109q-7 -121 -28 -189t-56 -93.5t-86 -27.5v-448q0 -309 -273 -309q-132 0 -202 73q-74 79 -74 228zM268 -205q0 37 24.5 61.5 t61.5 24.5h-2q39 0 68 -24q26 -27 26 -66t-24 -63q-26 -23 -64 -23q-39 0 -65 25q-25 26 -25 65z" />
<glyph unicode="&#x1ef2;" horiz-adv-x="805" d="M41 1544h152l210 -729h13q11 91 28 162q26 103 50 182q7 21 17.5 54.5t28 89.5t19.5 65q38 122 53 176h152l-285 -868v-676h-143v676zM246 1862l112 90l201 -250l-74 -55z" />
<glyph unicode="&#x1ef3;" horiz-adv-x="680" d="M16 1053h136l176 -848h8q24 129 51 252q26 108 72 311q36 152 65 285h140l-365 -1452h-139l108 428zM184 1370l113 90l201 -250l-74 -55z" />
<glyph unicode="&#x1ef4;" horiz-adv-x="805" d="M41 1544h152l210 -729h13q11 91 28 162q26 103 50 182q7 21 17.5 54.5t28 89.5t19.5 65q38 122 53 176h152l-285 -868v-676h-143v676zM311 -188q0 37 25 61q25 25 61 25h-2q38 0 68 -25q26 -26 26 -66q0 -39 -24 -63q-27 -23 -64 -23t-65 25q-25 26 -25 66z" />
<glyph unicode="&#x1ef5;" horiz-adv-x="680" d="M16 1053h136l176 -848h8q24 129 51 252q26 108 72 311q36 152 65 285h140l-365 -1452h-139l108 428zM434 -311q0 37 25 61q24 25 61 25h-2q40 0 68 -25q26 -26 26 -65q0 -38 -24 -64q-26 -22 -64 -22t-65 24q-25 28 -25 66z" />
<glyph unicode="&#x1ef6;" horiz-adv-x="805" d="M41 1544h152l210 -729h13q11 91 28 162q26 103 50 182q7 21 17.5 54.5t28 89.5t19.5 65q38 122 53 176h152l-285 -868v-676h-143v676zM272 1862v20q6 38 17 57q20 27 51 35q49 8 127 8q62 -6 86 -28q31 -23 39 -74q0 -56 -10 -80q-15 -29 -41 -41q-28 -12 -88 -12v-100 h-99v129v4q21 24 64 24q34 3 41 15q8 12 8 36q0 37 -8 48q-10 14 -56 14q-27 0 -30 -35v-20h-101z" />
<glyph unicode="&#x1ef7;" horiz-adv-x="680" d="M16 1053h136l176 -848h8q24 129 51 252q26 108 72 311q36 152 65 285h140l-365 -1452h-139l108 428zM211 1370v21q7 41 16 57q23 27 52 35q49 8 127 8q61 -6 86 -29q30 -22 38 -73q0 -57 -10 -80q-12 -29 -41 -41q-26 -13 -88 -13v-100h-98v129v4q20 25 63 25q34 3 41 14 q9 12 9 37q0 37 -9 47q-10 14 -55 14q-28 0 -31 -34v-21h-100z" />
<glyph unicode="&#x1ef8;" horiz-adv-x="805" d="M41 1544h152l210 -729h13q11 91 28 162q26 103 50 182q7 21 17.5 54.5t28 89.5t19.5 65q38 122 53 176h152l-285 -868v-676h-143v676zM170 1653q3 76 45 116q44 41 100 41q20 0 41 -6q32 -9 47 -16q7 -3 50 -21q21 -8 36 -8q31 0 31 53h113q0 -64 -35 -114 q-34 -51 -98 -51q-21 0 -45 6q-30 7 -56 22q-22 12 -49 21q-18 6 -33 6q-30 0 -30 -49h-117z" />
<glyph unicode="&#x1ef9;" horiz-adv-x="680" d="M16 1053h136l176 -848h8q24 129 51 252q26 108 72 311q36 152 65 285h140l-365 -1452h-139l108 428zM109 1161q3 75 45 117q43 41 100 41q20 0 41 -6q34 -10 47 -17q13 -6 49 -20q23 -8 37 -8q31 0 31 53h112q0 -64 -34 -115t-99 -51q-19 0 -45 6q-32 8 -55 23 q-26 12 -49 20q-19 6 -33 6q-31 0 -31 -49h-116z" />
<glyph unicode="&#x2000;" horiz-adv-x="1100" />
<glyph unicode="&#x2001;" horiz-adv-x="2200" />
<glyph unicode="&#x2002;" horiz-adv-x="1100" />
<glyph unicode="&#x2003;" horiz-adv-x="2200" />
<glyph unicode="&#x2004;" horiz-adv-x="733" />
<glyph unicode="&#x2005;" horiz-adv-x="550" />
<glyph unicode="&#x2006;" horiz-adv-x="366" />
<glyph unicode="&#x2007;" horiz-adv-x="366" />
<glyph unicode="&#x2008;" horiz-adv-x="275" />
<glyph unicode="&#x2009;" horiz-adv-x="440" />
<glyph unicode="&#x200a;" horiz-adv-x="122" />
<glyph unicode="&#x2010;" horiz-adv-x="319" d="M0 571v164h319v-164h-319z" />
<glyph unicode="&#x2011;" horiz-adv-x="319" d="M0 571v164h319v-164h-319z" />
<glyph unicode="&#x2012;" horiz-adv-x="319" d="M0 571v164h319v-164h-319z" />
<glyph unicode="&#x2013;" horiz-adv-x="1024" d="M0 571v164h1024v-164h-1024z" />
<glyph unicode="&#x2014;" horiz-adv-x="2048" d="M0 571v164h2044h4v-164h-2044h-4z" />
<glyph unicode="&#x2018;" horiz-adv-x="461" d="M76 1108l209 461l96 -49l-162 -480z" />
<glyph unicode="&#x2019;" horiz-adv-x="461" d="M76 1087l160 478l145 -70l-205 -455z" />
<glyph unicode="&#x201c;" horiz-adv-x="731" d="M76 1108l209 461l96 -49l-162 -480zM352 1108l203 461l100 -49l-159 -480z" />
<glyph unicode="&#x201d;" horiz-adv-x="731" d="M76 1087l160 482l145 -70l-205 -459zM352 1087l160 482l143 -70l-202 -459z" />
<glyph unicode="&#x2026;" horiz-adv-x="2048" d="M236 92q0 40 30 72q34 29 70 29q42 0 78 -31q30 -34 30 -78q0 -41 -32 -72q-33 -28 -76 -28q-41 0 -72 32q-28 36 -28 76zM920 92q0 40 30 72q34 29 70 29q40 0 76 -31q32 -31 32 -74v-4q0 -41 -32 -72q-33 -28 -76 -28q-41 0 -72 32q-28 36 -28 76zM1604 92q0 40 30 72 q34 29 74 29q42 0 78 -31q31 -33 31 -74q-3 -43 -35 -74q-34 -30 -74 -30q-43 0 -74 32q-30 34 -30 76z" />
<glyph unicode="&#x202f;" horiz-adv-x="440" />
<glyph unicode="&#x205f;" horiz-adv-x="550" />
<glyph unicode="&#x25fc;" horiz-adv-x="1055" d="M0 0v1055h1055v-1055h-1055z" />
</font>
</defs>
</svg>
