<?xml version="1.0" standalone="no"?>
<!DOCTYPE svg PUBLIC "-//W3C//DTD SVG 1.1//EN" "http://www.w3.org/Graphics/SVG/1.1/DTD/svg11.dtd" >
<svg xmlns="http://www.w3.org/2000/svg">
<metadata></metadata>
<defs>
<font id="serpentinebold" horiz-adv-x="1722" >
<font-face units-per-em="2048" ascent="1638" descent="-410" />
<missing-glyph horiz-adv-x="854" />
<glyph horiz-adv-x="2048" />
<glyph horiz-adv-x="2048" />
<glyph unicode="&#xd;" horiz-adv-x="0" />
<glyph unicode=" "  horiz-adv-x="854" />
<glyph unicode="&#x09;" horiz-adv-x="854" />
<glyph unicode="&#xa0;" horiz-adv-x="854" />
<glyph unicode="!" horiz-adv-x="926" d="M205 827v539h516v-526l-45 -398h-420zM207 0v365h512v-365h-512z" />
<glyph unicode="&#x22;" horiz-adv-x="846" d="M84 1366h295l-49 -549h-197zM467 1366h297l-51 -549h-197z" />
<glyph unicode="#" horiz-adv-x="1444" d="M137 254l49 233h189l82 392h-187l49 229h187l47 246h133l-53 -246h358l51 246h132l-54 -246h187l-50 -229h-186l-82 -392h187l-50 -233h-186l-53 -244h-129l51 244h-356l-54 -244h-127l54 244h-189zM502 487h356l84 392h-358z" />
<glyph unicode="$" horiz-adv-x="1638" d="M160 709v374q0 162 98 222.5t264 60.5h205v150h186v-150h494l49 -279q-52 34 -99 44t-122 10h-471q-44 0 -68 -14.5t-24 -57.5v-47q0 -38 11 -56t32 -22t65 -4h336q179 0 271 -56.5t92 -226.5v-372q0 -109 -47.5 -172.5t-127 -88t-188.5 -24.5h-203v-150h-186v150h-516 l-47 274q60 -33 117 -41t137 -8h41h397h39q43 0 58.5 15.5t15.5 58.5v43q0 43 -11 62.5t-51 19.5h-385q-90 0 -154.5 11t-110 40t-71.5 86.5t-26 147.5z" />
<glyph unicode="%" horiz-adv-x="1942" d="M68 797v377q0 101 61.5 146.5t163.5 45.5h358q67 0 117 -19t79.5 -61t29.5 -112v-377q0 -100 -61 -146.5t-165 -46.5h-358q-103 0 -164 47t-61 146zM315 840q0 -44 8 -66.5t30 -31.5t65 -9h108q42 0 64.5 9t30.5 31.5t8 66.5v288q0 66 -19.5 86.5t-83.5 20.5h-108 q-64 0 -83.5 -20.5t-19.5 -86.5v-288zM795 0l247 1366h101l-244 -1366h-104zM1065 193v376q0 99 61 146t162 47h361q65 0 115 -20t79 -64t29 -109v-376q0 -100 -60 -146.5t-163 -46.5h-361q-101 0 -162 46.5t-61 146.5zM1311 236q0 -43 7.5 -65.5t30 -32t64.5 -9.5h111 q41 0 64 9.5t30.5 32t7.5 65.5v288q0 66 -18.5 86.5t-83.5 20.5h-111q-45 0 -66 -9t-28.5 -31.5t-7.5 -66.5v-288z" />
<glyph unicode="&#x26;" horiz-adv-x="1862" d="M68 264v244q0 119 42.5 183t114.5 85.5t195 26.5l-156 180q-44 54 -63 90t-19 82q0 211 336 211h860l49 -283q-75 62 -200 62h-238q-112 0 -112 -53q0 -31 41 -78l309 -363q31 32 57.5 59.5t44 59t17.5 66.5q0 36 -3 55h222v-115q0 -83 -35 -125l-152 -168l146 -174 q37 -40 69.5 -58t77.5 -18q59 0 123 31l-41 -264h-448q-78 0 -123 5.5t-87.5 30t-76.5 73.5q-63 -68 -122 -88.5t-161 -20.5h-327q-153 0 -218 45q-54 41 -88 99.5t-34 119.5zM575 332q0 -58 17.5 -80.5t71.5 -22.5h104q66 0 109 47l-302 347v-291z" />
<glyph unicode="'" horiz-adv-x="463" d="M84 1366h295l-49 -549h-197z" />
<glyph unicode="(" horiz-adv-x="709" d="M193 137v867q0 93 17 159.5t54.5 112t100.5 68t159 22.5h158v-160h-61q-63 0 -80 -26t-17 -93v-1034q0 -68 16.5 -93.5t80.5 -25.5h61v-159h-158q-125 0 -197.5 38t-103 117t-30.5 207z" />
<glyph unicode=")" horiz-adv-x="709" d="M27 -66h61q63 0 79.5 24.5t16.5 94.5v1034q0 69 -16.5 94t-79.5 25h-61v160h157q182 0 257 -86.5t75 -275.5v-867q0 -124 -30 -203t-103 -119t-199 -40h-157v159z" />
<glyph unicode="*" horiz-adv-x="729" d="M78 1034l162 58l-162 59q18 86 63 137l150 -117l-15 187q46 8 68 8t68 -8l-15 -187l150 117q41 -45 63 -137l-161 -59l161 -58q-21 -91 -63 -137l-150 115l15 -185q-46 -8 -68 -8t-68 8l15 185l-150 -115q-46 52 -63 137z" />
<glyph unicode="+" horiz-adv-x="1024" d="M-4 666v200h410v422h208v-422h412v-200h-412v-422h-208v422h-410z" />
<glyph unicode="," horiz-adv-x="811" d="M150 0v367h509v-349l-272 -299h-170l143 281h-210z" />
<glyph unicode="-" horiz-adv-x="864" d="M70 428v256h727v-256h-727z" />
<glyph unicode="." horiz-adv-x="813" d="M150 0v365h514v-365h-514z" />
<glyph unicode="/" horiz-adv-x="608" d="M-33 -225l367 1591h233l-368 -1591h-232z" />
<glyph unicode="0" horiz-adv-x="1706" d="M111 391v584q0 89 15 159.5t60 120.5q52 54 123.5 82.5t151.5 28.5h790q121 0 199.5 -48.5t115 -136t36.5 -206.5v-584q0 -91 -15 -160.5t-61 -119.5q-52 -55 -123.5 -83t-151.5 -28h-790q-180 0 -265 104t-85 287zM629 385q0 -62 8 -94.5t38 -49t89 -16.5h184 q59 0 89 16.5t38 49t8 94.5v596q0 62 -8 94.5t-38 49t-89 16.5h-184q-59 0 -89 -16.5t-38 -49t-8 -94.5v-596z" />
<glyph unicode="1" horiz-adv-x="1706" d="M473 948v232l563 186h156v-1194q0 -105 68 -172h-650q34 32 52 78.5t18 93.5v776h-207z" />
<glyph unicode="2" horiz-adv-x="1706" d="M150 0v500q0 171 15.5 244.5t80 108.5t219.5 46l467 35q11 1 20 1.5t23 0.5q55 3 71.5 25t16.5 77q0 57 -21.5 80t-76.5 23h-570q-77 0 -130 -13t-115 -51l40 289h955q142 0 229.5 -18t141 -86.5t53.5 -206.5v-264q0 -96 -22.5 -154.5t-67 -89t-101.5 -41.5t-172 -21 l-424 -30q-80 -7 -96 -19t-16 -59v-152h614q97 0 161 11.5t142 52.5l-47 -289h-1390z" />
<glyph unicode="3" horiz-adv-x="1706" d="M137 285q74 -38 144 -49t176 -11h370q87 0 119.5 21t32.5 98v131q0 46 -8 66.5t-28 27t-66 6.5h-306q-114 0 -168 -18v256q63 -14 158 -14h324q53 0 72.5 19.5t19.5 58.5v151q0 58 -27 85.5t-86 27.5h-461q-180 0 -266 -54l43 279h965q103 0 179 -24t120.5 -85.5 t44.5 -169.5v-178q0 -73 -24.5 -113.5t-67.5 -59t-97 -25t-124 -13.5q26 -1 81.5 -4t107.5 -21.5t88 -64t36 -129.5v-192q0 -113 -40.5 -176t-115.5 -87t-188 -24h-965z" />
<glyph unicode="4" horiz-adv-x="1706" d="M14 297v326l815 743h598v-711h265v-358h-265v-125q0 -107 68 -172h-649q69 66 69 172v125h-901zM381 655h534v463z" />
<glyph unicode="5" horiz-adv-x="1706" d="M139 305q45 -36 89 -53.5t85.5 -22t116.5 -4.5h463q69 0 107 16.5t38 75.5v215q0 52 -13 75t-41 29.5t-79 6.5h-506q-79 0 -136.5 -13.5t-106.5 -54.5l26 791h1344l41 -281q-46 38 -94.5 47t-129.5 9h-675v-273h536q110 0 185 -26.5t116 -92t41 -174.5v-270 q0 -156 -77.5 -230.5t-235.5 -74.5h-1051z" />
<glyph unicode="6" horiz-adv-x="1706" d="M143 375v639q0 142 49 219t138.5 105t230.5 28h924l45 -276q-49 33 -110 42t-152 9h-496q-115 0 -115 -131v-191q15 43 41 55.5t76 12.5h502q156 0 221.5 -75t65.5 -234v-236q0 -186 -97 -264t-290 -78h-619q-104 0 -181.5 17t-129 59.5t-77.5 116t-26 182.5zM657 358 q0 -53 7.5 -80t32 -40t75.5 -13h160q51 0 75.5 13t32 40t7.5 80v174q0 54 -7.5 80.5t-31.5 40t-76 13.5h-160q-52 0 -76 -13.5t-31.5 -40t-7.5 -80.5v-174z" />
<glyph unicode="7" horiz-adv-x="1706" d="M164 1085l43 281h1327l18 -225q-107 -115 -212.5 -252t-190 -279t-147.5 -299.5t-89 -310.5h-587q54 184 166 387t251 393.5t287 360.5h-592q-95 0 -155.5 -10t-118.5 -46z" />
<glyph unicode="8" horiz-adv-x="1706" d="M145 291q0 192 17.5 269t89.5 109.5t250 35.5q-139 6 -208 23t-101.5 58.5t-40 108t-7.5 217.5q0 109 53 165t132.5 72.5t193.5 16.5h658q114 0 194 -16.5t133.5 -72.5t53.5 -165v-156q0 -87 -26.5 -137t-73.5 -73t-104 -30t-155 -11q136 -2 208.5 -20.5t104.5 -62 t39 -112t7 -219.5q0 -152 -101 -221.5t-258 -69.5h-702q-162 0 -259.5 68t-97.5 223zM657 342q0 -58 21 -87.5t76 -29.5h200q56 0 76.5 29.5t20.5 87.5v131q0 65 -21 94t-86 29h-158q-57 0 -83.5 -8.5t-36 -33.5t-9.5 -81v-131zM657 930q0 -49 11 -72t36.5 -31t71.5 -8h154 q71 0 96 20.5t25 90.5v112q0 58 -27 78.5t-88 20.5h-166q-60 0 -86.5 -20.5t-26.5 -78.5v-112z" />
<glyph unicode="9" horiz-adv-x="1706" d="M145 780v262q0 104 30 176t95.5 110t171.5 38h717q99 0 173.5 -15t125.5 -52t78 -104t27 -173v-739q0 -146 -90.5 -214.5t-243.5 -68.5h-1026l-39 270q53 -30 107.5 -37.5t127.5 -7.5h473q86 0 132.5 18.5t46.5 88.5v241q-21 -62 -59.5 -83t-110.5 -21h-420 q-117 0 -186 29.5t-99.5 96.5t-30.5 185zM659 825q0 -55 7 -82.5t31 -40t77 -12.5h162q53 0 77 12.5t31 40t7 82.5v181q0 81 -19 108t-96 27h-162q-77 0 -96 -27t-19 -108v-181z" />
<glyph unicode=":" horiz-adv-x="813" d="M150 0v365h514v-365h-514zM150 600v365h514v-365h-514z" />
<glyph unicode=";" horiz-adv-x="813" d="M150 600v365h514v-365h-514zM152 0v367h510v-349l-273 -299h-170l141 281h-208z" />
<glyph unicode="&#x3c;" horiz-adv-x="1024" d="M68 510v371l886 510v-445l-413 -252l411 -254l2 -442z" />
<glyph unicode="=" horiz-adv-x="1024" d="M-4 506v194h1032v-194h-1032zM-4 831v195h1032v-195h-1032z" />
<glyph unicode="&#x3e;" horiz-adv-x="1024" d="M68 -2v444l415 254l-413 254l-2 441l886 -510v-373z" />
<glyph unicode="?" horiz-adv-x="1679" d="M135 1090l39 276h959q109 0 190.5 -22t129.5 -82.5t48 -171.5v-144q0 -95 -33 -164.5t-100.5 -108t-163.5 -38.5h-121q-63 0 -89 -9t-34 -35.5t-8 -90.5v-68h-508q0 123 -2 184q1 85 28.5 140.5t81 81.5t138.5 26h162q76 0 105.5 19t29.5 90v65q0 61 -21.5 83t-82.5 22 h-521q-146 0 -227 -53zM444 0v365h514v-365h-514z" />
<glyph unicode="@" horiz-adv-x="1501" d="M61 686q0 144 57 272.5t158 227.5t231.5 155t272.5 56q143 0 264 -45t208.5 -128t137.5 -202.5t50 -259.5q0 -94 -42 -200.5t-119.5 -177.5t-176.5 -71q-54 0 -100 29.5t-62 81.5q-41 -60 -112.5 -94.5t-145.5 -34.5q-78 0 -143 42t-103.5 112t-42.5 147q0 77 24.5 155 t74 142.5t117.5 101.5t153 37q56 0 110.5 -27t81.5 -71l15 76h184l-76 -392q-14 -56 -14 -90q0 -65 45 -65q51 0 90 57t59.5 133.5t20.5 124.5q0 143 -63.5 245t-176.5 155t-252 53q-142 0 -268.5 -74.5t-202 -200.5t-75.5 -270q0 -157 63.5 -282.5t182.5 -197t276 -71.5 q215 0 407 62l43 -166q-105 -33 -218 -47.5t-232 -14.5q-148 0 -277.5 54.5t-225 152.5t-147 229t-51.5 281zM602 623q0 -58 38 -100t97 -42q79 0 124.5 70.5t45.5 153.5q-3 54 -37.5 92.5t-89.5 38.5q-51 0 -91.5 -31.5t-63.5 -82t-23 -99.5z" />
<glyph unicode="A" d="M-27 0q88 101 164 256l481 1028q-22 49 -55 82h602l480 -1206q33 -81 106 -160h-688q35 43 35 92q0 41 -14 84.5t-47.5 113t-37.5 79.5h-559l-86 -187q-24 -52 -24 -88t26 -94h-383zM543 590h364l-174 424z" />
<glyph unicode="B" horiz-adv-x="1647" d="M96 0q15 19 36.5 70t21.5 133v960q0 120 -58 203h1106q172 0 267.5 -59.5t95.5 -225.5v-135q0 -76 -24 -123t-67.5 -70.5t-89 -30t-145.5 -15.5q107 0 175 -15.5t109.5 -67.5t41.5 -153v-188q0 -111 -47 -173.5t-125.5 -86t-190.5 -23.5h-1106zM672 225h256 q70 0 102.5 21.5t32.5 85.5v135q0 72 -23.5 93.5t-99.5 21.5h-268v-357zM672 807h282q69 0 89 30.5t20 102.5v53q0 75 -16 111.5t-78 36.5h-297v-334z" />
<glyph unicode="C" horiz-adv-x="1337" d="M82 391v584q0 179 87 285t263 106h813l49 -283q-56 40 -110.5 49t-145.5 9h-284q-73 0 -104.5 -14.5t-40.5 -48.5t-9 -111v-578q0 -68 18 -103.5t56.5 -48t105.5 -12.5h271q157 0 260 43l-41 -268h-838q-175 0 -262.5 106t-87.5 285z" />
<glyph unicode="D" horiz-adv-x="1653" d="M94 0q3 0 18.5 30t27.5 75t12 98v960q0 120 -58 203h1127q120 0 199 -49t115 -136t36 -206v-584q0 -182 -83.5 -286.5t-266.5 -104.5h-1127zM670 225h248q60 0 88.5 16.5t36.5 49t8 94.5v596q0 62 -8 94.5t-36.5 49t-88.5 16.5h-248v-916z" />
<glyph unicode="E" horiz-adv-x="1399" d="M123 0q14 22 35.5 76t21.5 127v960q0 121 -57 203h1202l39 -258q-89 33 -240 33h-426v-332h418q122 0 195 31v-289q-50 37 -156 37h-457v-363h506q46 0 80.5 9.5t114.5 37.5l-45 -272h-1231z" />
<glyph unicode="F" horiz-adv-x="1331" d="M96 0l16 28q17 27 29.5 70t12.5 105v960q0 120 -58 203h1196l41 -258q-57 21 -114.5 26t-169.5 7h-377v-330h454q94 0 174 35v-301q-83 41 -219 41h-409v-383q0 -121 57 -203h-633z" />
<glyph unicode="G" horiz-adv-x="1587" d="M109 285v798q0 84 28 142t77.5 88.5t113.5 41.5t143 11h985l45 -266q-49 28 -95.5 34.5t-125.5 6.5h-518q-59 0 -89 -16.5t-38 -49t-8 -94.5v-596q0 -62 8 -94.5t38 -49t89 -16.5h147q69 0 88 31t19 106v236h-129q-93 0 -164 -31v248h864q-57 -78 -57 -203v-409 q0 -125 57 -203h-452q-14 51 -25 150q-6 -69 -39 -102t-79 -40.5t-126 -7.5h-395q-172 0 -267 59.5t-95 225.5z" />
<glyph unicode="H" horiz-adv-x="1686" d="M70 0q14 20 35.5 72.5t21.5 130.5v960q0 121 -57 203h632q-57 -84 -57 -203v-352h397v352q0 121 -57 203h633q-57 -82 -57 -203v-960q0 -121 57 -203h-633q57 82 57 203v381h-397v-381q0 -119 57 -203h-632z" />
<glyph unicode="I" horiz-adv-x="770" d="M68 0q14 22 35.5 76t21.5 127v960q0 121 -57 203h632q-57 -82 -57 -203v-960q0 -121 57 -203h-632z" />
<glyph unicode="J" horiz-adv-x="1268" d="M-55 270q48 -30 101.5 -37.5t125.5 -7.5h289q59 0 89 16.5t38 49t8 94.5v778q0 125 -57 203h632q-14 -19 -35.5 -72t-21.5 -131v-772q0 -90 -15.5 -160.5t-60.5 -119.5q-48 -54 -121.5 -82.5t-150.5 -28.5h-780z" />
<glyph unicode="K" horiz-adv-x="1745" d="M94 0q15 19 36.5 70.5t21.5 132.5v960q0 120 -58 203h633q-57 -78 -57 -203v-411l379 430q61 71 61 133q0 15 -8 51h452q-57 -30 -110 -77.5t-109 -110.5l-188 -213l401 -682q94 -164 197 -283h-631l-313 578l-131 -152v-223q0 -125 57 -203h-633z" />
<glyph unicode="L" horiz-adv-x="1333" d="M96 0q15 21 36.5 74t21.5 129v960q0 120 -58 203h635q-57 -78 -57 -203v-938h487q103 0 172 51l-43 -276h-1194z" />
<glyph unicode="M" horiz-adv-x="2120" d="M94 0q15 20 36.5 72.5t21.5 130.5v960q0 120 -58 203h701l262 -780l266 780h700q-57 -78 -57 -203v-960q0 -125 57 -203h-632q57 82 57 203v835l-354 -1038h-369l-348 1038v-835q0 -125 57 -203h-340z" />
<glyph unicode="N" horiz-adv-x="1741" d="M96 0q15 19 36.5 70.5t21.5 132.5v960q0 120 -58 203h742l526 -1090v887q0 121 -57 203h340q-58 -80 -58 -203v-1163h-661l-549 1110v-907q0 -121 57 -203h-340z" />
<glyph unicode="O" horiz-adv-x="1655" d="M82 391v584q0 90 15 160t61 120q52 55 124 83t150 28h791q94 0 160 -27.5t108.5 -79.5t62 -123.5t19.5 -160.5v-584q0 -90 -15.5 -160.5t-60.5 -119.5q-52 -55 -123.5 -83t-150.5 -28h-791q-180 0 -265 104t-85 287zM600 385q0 -62 8 -94.5t38 -49t89 -16.5h185 q59 0 88.5 16.5t38 49t8.5 94.5v596q0 62 -8.5 94.5t-38 49t-88.5 16.5h-185q-59 0 -89 -16.5t-38 -49t-8 -94.5v-596z" />
<glyph unicode="P" horiz-adv-x="1599" d="M96 0q15 20 36.5 72.5t21.5 130.5v960q0 120 -58 203h1127q173 0 267.5 -59t94.5 -226v-309q0 -112 -46 -174.5t-124.5 -85.5t-191.5 -23h-551v-286q0 -121 57 -203h-633zM672 715h262q64 0 91.5 15t34.5 45.5t7 98.5v144q0 69 -20 96t-86 27h-289v-426z" />
<glyph unicode="Q" horiz-adv-x="1657" d="M82 391v584q0 91 15 161t61 119q52 55 124 83t150 28h793q94 0 160 -27.5t108.5 -79.5t62 -123.5t19.5 -160.5v-584q0 -116 -27 -190.5t-82.5 -118.5t-136 -63t-199.5 -19l99 -180h-205l-100 180h-492q-78 0 -151 28.5t-123 82.5q-44 51 -60 123.5t-16 156.5zM600 385 q0 -62 8 -94.5t38 -49t89 -16.5h64l-105 193h201l106 -189q56 31 56 150v602q0 62 -8 94.5t-38 49t-89 16.5h-187q-59 0 -89 -16.5t-38 -49t-8 -94.5v-596z" />
<glyph unicode="R" horiz-adv-x="1673" d="M96 0q58 83 58 203v960q0 120 -58 203h1125q172 0 267 -59.5t95 -225.5v-293q0 -102 -39 -155t-131 -53q-7 1 -13.5 1.5t-17.5 0.5l187 -396q50 -108 104 -186h-600l-239 582h-162v-379q0 -121 57 -203h-633zM672 807h291q68 0 87 24.5t19 94.5v88q0 57 -6.5 80.5 t-31.5 35t-83 11.5h-276v-334z" />
<glyph unicode="S" horiz-adv-x="1509" d="M94 707v374q0 158 98.5 221.5t264.5 63.5h884l50 -279q-79 54 -222 54h-471q-44 0 -68 -14.5t-24 -57.5v-47q0 -38 11.5 -56t32 -22t65.5 -4h336q115 0 194 -22t123.5 -84.5t44.5 -178.5v-372q0 -110 -47.5 -172.5t-127.5 -86.5t-187 -24h-906l-47 274q60 -33 117 -41 t137 -8h477q43 0 58.5 16t15.5 56v43q0 44 -11.5 64t-49.5 20h-385q-90 0 -154.5 11t-110.5 39.5t-72 85.5t-26 147z" />
<glyph unicode="T" horiz-adv-x="1362" d="M0 1100l41 266h1280l41 -266q-63 41 -182 41h-242v-938q0 -121 57 -203h-630q14 17 35.5 67t21.5 136v938h-240q-119 0 -182 -41z" />
<glyph unicode="U" horiz-adv-x="1741" d="M96 1366h633q-57 -82 -57 -203v-778q0 -62 8 -94.5t38 -49t89 -16.5h422q59 0 88 16.5t37 49t8 94.5v778q0 125 -57 203h340q-58 -83 -58 -203v-772q0 -94 -15.5 -158t-66.5 -122q-48 -56 -119 -83.5t-147 -27.5h-735q-175 0 -262.5 106t-87.5 285v772q0 120 -58 203z " />
<glyph unicode="V" horiz-adv-x="1597" d="M-27 1366h637q-14 -44 -14 -74q0 -59 31 -145l307 -866l328 870q28 73 28 145q0 28 -10 70h346q-32 -28 -56.5 -66t-39 -72t-41.5 -102l-432 -1126h-572l-411 1159q-43 118 -101 207z" />
<glyph unicode="W" horiz-adv-x="2247" d="M-14 1366h624q-20 -58 -20 -88q0 -58 20 -133l170 -664l230 885h534l236 -885l168 658q16 63 16 143q0 41 -16 84h325q-17 -18 -32.5 -43.5t-27.5 -59.5t-17.5 -54.5t-14.5 -57.5l-301 -1151h-520l-240 903l-235 -903h-508l-307 1157q-32 130 -84 209z" />
<glyph unicode="X" horiz-adv-x="1645" d="M-53 0q104 83 172 158l444 471l-403 534q-103 140 -187 203h748q0 -100 88 -217l131 -176l223 227q78 81 97 166h411q-88 -54 -180 -149l-418 -433l420 -583q31 -43 88.5 -106t89.5 -95h-731q2 6 4 16t2 21q0 44 -22 86t-58 88l-168 227l-282 -297q-34 -38 -55 -70.5 t-27 -70.5h-387z" />
<glyph unicode="Y" horiz-adv-x="1561" d="M-29 1366h686q0 -89 72 -207l217 -350l225 362q50 79 50 152q0 29 -2 43h368q-31 -21 -55.5 -49.5t-46.5 -64.5t-43 -70l-408 -662v-317q0 -120 58 -203h-629q57 82 57 203v317l-397 629q-85 143 -152 217z" />
<glyph unicode="Z" horiz-adv-x="1438" d="M0 0l698 1141h-346q-83 0 -140.5 -9.5t-113.5 -44.5l45 279h1295l-707 -1141h410q137 0 211 37l-37 -262h-1315z" />
<glyph unicode="[" horiz-adv-x="709" d="M193 -225v1591h489v-160h-158v-1272h158v-159h-489z" />
<glyph unicode="\" horiz-adv-x="608" d="M41 1366h233l367 -1591h-231z" />
<glyph unicode="]" horiz-adv-x="709" d="M27 -66h157v1272h-157v160h489v-1591h-489v159z" />
<glyph unicode="^" horiz-adv-x="1024" d="M-2 672l266 706h494l266 -706h-387l-125 405l-127 -405h-387z" />
<glyph unicode="_" horiz-adv-x="1024" d="M-12 -86h1042v-258h-1042v258z" />
<glyph unicode="`" horiz-adv-x="1024" d="M281 1411h329l135 -332h-272z" />
<glyph unicode="a" horiz-adv-x="1516" d="M68 279v172q0 112 70 171.5t186 59.5h471h32q41 0 63 14.5t23 53.5q0 44 -28 56.5t-80 12.5h-479q-65 0 -115.5 -10.5t-95.5 -36.5l32 238h918l49 2q85 -1 151.5 -37.5t103 -101.5t36.5 -150v-469q3 -29 5.5 -83t9.5 -94.5t26 -76.5h-485q-24 45 -31 106 q-32 -106 -182 -106h-369q-157 0 -234 62t-77 217zM561 319q0 -68 25.5 -98.5t91.5 -30.5h121q44 0 70 13.5t36 40.5t10 75v175h-237q-68 0 -92.5 -30t-24.5 -99v-46z" />
<glyph unicode="b" horiz-adv-x="1524" d="M82 0q39 67 39 180q1 19 1.5 34t0.5 40v858q0 25 -0.5 40.5t-1.5 33.5q0 113 -39 180h534v-426q42 70 156 70h361q321 0 321 -295v-379q0 -174 -84.5 -255t-257.5 -81h-321q-44 0 -81 7.5t-67 29t-47 57.5l-18 -94h-496zM616 287q0 -97 113 -97h121q62 0 86.5 25t24.5 86 v408q0 62 -24 86t-87 24h-121q-113 0 -113 -94v-438z" />
<glyph unicode="c" horiz-adv-x="1229" d="M68 281v456q0 93 47.5 155t124 90t168.5 28h753l41 -242q-39 27 -88.5 39t-112.5 12h-299q-75 0 -107 -22.5t-32 -94.5v-405q0 -66 37 -86.5t107 -20.5h282q61 0 109 13t104 45l-41 -248h-739q-68 0 -130 14.5t-113.5 47.5t-81 88t-29.5 131z" />
<glyph unicode="d" horiz-adv-x="1524" d="M68 293v438q0 81 32.5 143.5t92.5 99t141 36.5h403q117 0 168 -92v194q0 109 -8 164q-6 43 -33 90h535v-1112q0 -87 6.5 -142.5t34.5 -111.5h-467l-23 92q-30 -56 -82 -74t-127 -18h-350q-323 0 -323 293zM561 299q0 -60 30 -84.5t91 -24.5h113q67 0 88.5 32.5 t21.5 101.5v374v25q0 96 -104 96h-135q-105 0 -105 -114v-406z" />
<glyph unicode="e" horiz-adv-x="1462" d="M70 342v326q0 179 82 260.5t262 81.5h620q194 0 277.5 -72.5t83.5 -265.5v-264h-834v-84q0 -58 15 -87t47.5 -38t89.5 -9h448q137 0 217 48l-37 -238h-899q-129 0 -209.5 30.5t-121.5 105.5t-41 206zM561 600h346v109q0 53 -15.5 81.5t-64.5 28.5h-194q-42 0 -57 -23.5 t-15 -74.5v-121z" />
<glyph unicode="f" horiz-adv-x="977" d="M-14 819v191h139v77q0 82 35 145t98 98.5t143 35.5h646l38 -238q-36 23 -70 33t-83 10h-213q-54 0 -76 -22t-22 -76v-63h340v-191h-340v-565q0 -111 6 -164q8 -44 35 -90h-578q10 15 25.5 67.5t15.5 163.5v588h-139z" />
<glyph unicode="g" horiz-adv-x="1532" d="M68 293v426q0 140 80.5 215.5t218.5 75.5h409q67 0 103.5 -14t68.5 -62l17 76h485q-27 -47 -34 -97t-7 -116v-797q0 -163 -45 -247t-138.5 -115t-260.5 -31h-809l-35 252q44 -36 96.5 -46t126.5 -10h414q70 0 111.5 21.5t41.5 85.5v164q-25 -48 -69.5 -61t-120.5 -13 h-295q-109 0 -188.5 26t-124.5 91.5t-45 175.5zM567 309q0 -119 103 -119h137q65 0 84.5 25t19.5 94v389q0 75 -18 98t-88 23h-152q-47 0 -66.5 -21.5t-19.5 -82.5v-406z" />
<glyph unicode="h" horiz-adv-x="1569" d="M82 0q10 10 25.5 59t15.5 172v881q0 109 -8 164q-5 39 -33 90h536v-416q37 60 123 60h387q103 0 177 -32t114.5 -99.5t40.5 -173.5v-451q0 -111 6 -164q4 -34 35 -90h-575q27 48 34 100t7 131v467q0 52 -20 86.5t-93 34.5h-135q-101 0 -101 -110v-455q0 -111 9 -164 q5 -41 32 -90h-577z" />
<glyph unicode="i" horiz-adv-x="741" d="M82 0q10 11 25.5 60.5t15.5 170.5v525q0 110 -8 164q-5 43 -33 90h536v-756q0 -111 7 -164q4 -36 34 -90h-577zM180 1114v191h371v-191h-371z" />
<glyph unicode="j" horiz-adv-x="838" d="M-272 -127q50 -42 103 -55t132 -13h172q58 0 85.5 16.5t34.5 49t7 92.5v793q0 110 -6 164q-2 20 -14.5 48t-20.5 42h535v-1041q0 -133 -30 -209.5t-104 -112.5t-212 -36h-646zM260 1110v254h496v-254h-496z" />
<glyph unicode="k" horiz-adv-x="1571" d="M80 0q10 15 25.5 67.5t15.5 163.5v881q0 109 -8 164q-5 39 -33 90h534v-719l260 215q89 75 89 148h456q-63 -26 -119 -60.5t-109 -76t-110 -93.5l338 -590q60 -108 150 -190h-613l-247 471l-95 -74v-143q0 -111 9 -164q5 -41 32 -90h-575z" />
<glyph unicode="l" horiz-adv-x="739" d="M82 0q10 11 25.5 60.5t15.5 170.5v881q0 109 -8 164q-5 39 -33 90h534v-1112q0 -111 9 -164q5 -41 32 -90h-575z" />
<glyph unicode="m" horiz-adv-x="2410" d="M82 0q10 10 25.5 59t15.5 172v525q0 110 -8 164q-5 43 -33 90h500l14 -99q13 56 44 77.5t91 21.5h514q81 0 127 -17.5t66 -81.5q15 59 45 79t94 20h403q95 0 157 -23.5t98 -69.5t51.5 -111.5t15.5 -160.5v-465q0 -116 35 -180h-578q27 44 34 91.5t7 121.5v477 q0 71 -20.5 100t-85.5 29h-125q-69 0 -91 -24t-22 -95v-446q0 -111 8 -164q5 -39 33 -90h-579q26 49 33 100.5t7 130.5v461q0 62 -18.5 94.5t-75.5 32.5h-149q-55 0 -74.5 -28t-19.5 -86v-451q0 -87 6.5 -142.5t34.5 -111.5h-580z" />
<glyph unicode="n" horiz-adv-x="1565" d="M82 0q10 12 25.5 62.5t15.5 168.5v525q0 110 -8 164q-5 43 -33 90h483l21 -101q30 56 71.5 78.5t108.5 22.5h369q156 0 237.5 -87.5t81.5 -246.5v-422q0 -87 6.5 -142.5t34.5 -111.5h-577q26 45 33 92t7 121v481q0 67 -20 96t-84 29h-149q-50 0 -69.5 -23.5t-19.5 -74.5 v-467q0 -87 6.5 -142.5t34.5 -111.5h-575z" />
<glyph unicode="o" horiz-adv-x="1505" d="M70 301v428q0 124 82 203.5t204 79.5q19 0 30.5 -0.5t25.5 -1.5h651q124 0 205.5 -28t125.5 -98t44 -194v-401q0 -92 -33 -157.5t-99 -99.5t-159 -34l-690 2q-122 0 -206 23t-132.5 89.5t-48.5 188.5zM567 309q0 -45 11.5 -70.5t37 -37t70.5 -11.5h139q65 0 91 30t26 95 v377q0 71 -31.5 99t-105.5 28h-119q-119 0 -119 -112v-398z" />
<glyph unicode="p" horiz-adv-x="1513" d="M74 1012h473l22 -92q35 58 83.5 75t123.5 17h352q102 0 172 -31t108 -97.5t38 -166.5v-436q0 -128 -68.5 -204.5t-195.5 -76.5h-406q-116 0 -168 94v-194q0 -87 6.5 -142.5t34.5 -111.5h-534v1112q0 108 -9 164q-6 42 -32 90zM608 299q0 -58 30.5 -82t92.5 -24h111 q47 0 70.5 15t31.5 44t8 74v401q0 92 -104 92h-135q-105 0 -105 -114v-406z" />
<glyph unicode="q" horiz-adv-x="1524" d="M68 297v377q0 175 84.5 256.5t259.5 81.5h321q149 0 195 -97l16 97h498q-10 -15 -25.5 -70t-15.5 -162v-880q0 -111 8 -164q5 -45 33 -90h-537v426q-41 -72 -153 -72h-363q-152 0 -236.5 72.5t-84.5 224.5zM563 303q0 -62 23.5 -86t85.5 -24h123q54 0 82 21.5t28 72.5 v438q0 94 -110 94h-123q-62 0 -85.5 -23.5t-23.5 -86.5v-406z" />
<glyph unicode="r" horiz-adv-x="1092" d="M82 0q10 10 25.5 59t15.5 172v525q0 110 -8 164q-5 43 -33 90h489l13 -166q22 67 56 103.5t82.5 49.5t121.5 13h248v-334q-37 35 -86 47t-121 12h-101q-74 0 -121 -39t-47 -112v-330q0 -87 6.5 -142.5t34.5 -111.5h-575z" />
<glyph unicode="s" horiz-adv-x="1411" d="M68 258q84 -42 138 -55t146 -13h432q41 0 65.5 11t24.5 47q0 53 -77 53h-439q-262 0 -262 260v166q0 118 57.5 180.5t145 82.5t207.5 20h774l47 -254q-55 42 -105.5 52.5t-142.5 10.5h-442q-33 0 -50.5 -8t-17.5 -37q0 -24 18 -36.5t42 -12.5l413 2q152 0 226.5 -67 t74.5 -216v-143q0 -301 -366 -301h-864z" />
<glyph unicode="t" horiz-adv-x="1126" d="M0 819v191h154v207l493 20v-227h418v-191h-418v-469q0 -66 9.5 -98t41.5 -45.5t97 -13.5h133q125 0 198 53l-39 -246h-522q-133 0 -220 22.5t-139 91t-52 199.5v506h-154z" />
<glyph unicode="u" horiz-adv-x="1569" d="M70 1010h534v-684q0 -70 21 -103t88 -33h118q72 0 96.5 25t24.5 98v443q0 92 -8 164q-5 39 -33 90h535v-756q0 -111 6 -164q5 -38 35 -90h-467l-21 94q-24 -60 -66.5 -77t-117.5 -17h-381q-130 0 -199 35.5t-96.5 110.5t-27.5 204v406q0 110 -9 164q-6 46 -32 90z" />
<glyph unicode="v" horiz-adv-x="1368" d="M-27 1010h605q0 -6 -1 -17.5t-2 -21.5q0 -48 33 -123l248 -584l229 553q41 96 41 152q0 9 -1 14t-2 12t-3 15h275q-52 -79 -99 -197l-331 -813h-543l-375 874q-20 50 -74 136z" />
<glyph unicode="w" horiz-adv-x="1987" d="M-14 1010h606q-19 -54 -21 -88q0 -60 21 -146l96 -387l156 621h596l159 -621l91 367q20 75 20 139q0 71 -20 115h309q-43 -43 -61.5 -83t-41.5 -122l-206 -805h-506l-203 776l-199 -776h-508l-213 840q-23 87 -75 170z" />
<glyph unicode="x" horiz-adv-x="1483" d="M-27 0q100 62 230 176l286 250l-288 362q-105 132 -195 222h690q10 -39 37.5 -80.5t61.5 -81.5t75 -88q41 33 98 79t99.5 89t56.5 82h342q-58 -37 -188 -154l-285 -252l332 -414q38 -46 65.5 -78t59.5 -62t61 -50h-710q-7 37 -26.5 74.5t-43 66.5t-56.5 66t-61 69 l-217 -186q-50 -43 -65 -90h-359z" />
<glyph unicode="y" horiz-adv-x="1530" d="M68 1010h536v-662q0 -57 9 -91t38.5 -50.5t85.5 -16.5h127q59 0 73.5 37.5t16.5 112.5v416q0 88 -6.5 144.5t-34.5 109.5h535l2 -1071q0 -114 -32 -181.5t-90.5 -98t-136 -38.5t-194.5 -8h-821l-39 244q51 -29 108.5 -37t133.5 -8h465q48 0 72 14.5t31 43t7 79.5v117 q-26 -41 -73 -53.5t-115 -12.5h-287q-206 0 -288 97t-82 309v350q0 110 -9 164q-5 41 -32 90z" />
<glyph unicode="z" horiz-adv-x="1368" d="M0 0l604 819h-297q-181 0 -293 -53l35 244h1301l-588 -820h354q73 0 134.5 12.5t117.5 45.5l-35 -248h-1333z" />
<glyph unicode="{" horiz-adv-x="1024" d="M244 387v225q61 14 86.5 53t25.5 103v317q0 88 23.5 147.5t66 90.5t103 44t147.5 13q21 0 64 -2t65 -2v-235q-7 1 -13 1.5t-15 0.5q-84 0 -123 -13q-45 -15 -45 -104v-25v-251q0 -97 -25 -151.5t-100 -109.5q68 -41 96.5 -104.5t28.5 -153.5v-251q0 -57 12.5 -88.5 t43.5 -42.5t85 -11h55v-233q-43 0 -129 -4q-171 0 -255.5 62.5t-84.5 232.5v315q0 77 -23.5 120t-88.5 56z" />
<glyph unicode="|" horiz-adv-x="1024" d="M287 -342v1706h450v-1706h-450z" />
<glyph unicode="}" horiz-adv-x="1024" d="M199 -160h59q84 0 110.5 28t26.5 114v251q0 95 26 151t99 108q-71 47 -98 105.5t-27 152.5v251q0 59 -11.5 89t-40.5 41.5t-85 11.5h-59v233q33 3 70.5 3t58.5 1q112 0 186.5 -24t114 -87.5t39.5 -181.5v-317q0 -73 23.5 -118t88.5 -58v-225q-61 -13 -86.5 -51.5 t-25.5 -104.5v-317q0 -116 -38 -180.5t-111.5 -89.5t-190.5 -25q-22 0 -65 2t-64 2v235z" />
<glyph unicode="~" horiz-adv-x="1366" d="M186 805q55 143 131.5 234t200.5 91q42 0 82.5 -12.5t96.5 -36t93.5 -35.5t75.5 -12t60.5 27t48.5 76l211 -179q-38 -94 -78.5 -164t-104 -118.5t-149.5 -48.5q-42 0 -78.5 11.5t-93 36t-99.5 37.5t-85 13q-32 0 -54 -26t-47 -74z" />
<glyph unicode="&#xad;" horiz-adv-x="864" d="M70 428v256h727v-256h-727z" />
<glyph unicode="&#xc0;" d="M-27 0q88 101 164 256l481 1028q-22 49 -55 82h602l480 -1206q33 -81 106 -160h-688q35 43 35 92q0 41 -14 84.5t-47.5 113t-37.5 79.5h-559l-86 -187q-24 -52 -24 -88t26 -94h-383zM543 590h364l-174 424zM690 1716h246l100 -248h-202z" />
<glyph unicode="&#xc1;" d="M-27 0q88 101 164 256l481 1028q-22 49 -55 82h602l480 -1206q33 -81 106 -160h-688q35 43 35 92q0 41 -14 84.5t-47.5 113t-37.5 79.5h-559l-86 -187q-24 -52 -24 -88t26 -94h-383zM543 590h364l-174 424zM780 1489l101 248h245h2l-145 -248h-203z" />
<glyph unicode="&#xc2;" d="M-27 0q88 101 164 256l481 1028q-22 49 -55 82h602l480 -1206q33 -81 106 -160h-688q35 43 35 92q0 41 -14 84.5t-47.5 113t-37.5 79.5h-559l-86 -187q-24 -52 -24 -88t26 -94h-383zM543 590h364l-174 424zM559 1450l92 246h-2h424l96 -246h-204l-101 172l-92 -172h-213z " />
<glyph unicode="&#xc3;" d="M-27 0q88 101 164 256l481 1028q-22 49 -55 82h602l480 -1206q33 -81 106 -160h-688q35 43 35 92q0 41 -14 84.5t-47.5 113t-37.5 79.5h-559l-86 -187q-24 -52 -24 -88t26 -94h-383zM522 1473v116q0 133 113 133q33 0 74.5 -10.5t95.5 -28t94 -27t76 -9.5q43 0 43 73h-2 h186v-125q0 -121 -106 -127q-37 0 -69 7.5t-90.5 27.5t-101 30.5t-79.5 10.5q-49 0 -49 -71h-185zM543 590h364l-174 424z" />
<glyph unicode="&#xc8;" horiz-adv-x="1399" d="M123 0q14 22 35.5 76t21.5 127v960q0 121 -57 203h1202l39 -258q-89 33 -240 33h-426v-332h418q122 0 195 31v-289q-50 37 -156 37h-457v-363h506q46 0 80.5 9.5t114.5 37.5l-45 -272h-1231zM567 1716h246l100 -248h-202z" />
<glyph unicode="&#xc9;" horiz-adv-x="1399" d="M123 0q14 22 35.5 76t21.5 127v960q0 121 -57 203h1202l39 -258q-89 33 -240 33h-426v-332h418q122 0 195 31v-289q-50 37 -156 37h-457v-363h506q46 0 80.5 9.5t114.5 37.5l-45 -272h-1231zM606 1468l101 248h245h2l-145 -248h-203z" />
<glyph unicode="&#xca;" horiz-adv-x="1399" d="M123 0q14 22 35.5 76t21.5 127v960q0 121 -57 203h1202l39 -258q-89 33 -240 33h-426v-332h418q122 0 195 31v-289q-50 37 -156 37h-457v-363h506q46 0 80.5 9.5t114.5 37.5l-45 -272h-1231zM436 1442l92 246h-2h424l97 -246h-205l-101 172l-92 -172h-213z" />
<glyph unicode="&#xcc;" horiz-adv-x="770" d="M68 0q14 22 35.5 76t21.5 127v960q0 121 -57 203h632q-57 -82 -57 -203v-960q0 -121 57 -203h-632zM178 1716h246l100 -248h-202z" />
<glyph unicode="&#xcd;" horiz-adv-x="770" d="M68 0q14 22 35.5 76t21.5 127v960q0 121 -57 203h632q-57 -82 -57 -203v-960q0 -121 57 -203h-632zM238 1458l100 248h246h2l-146 -248h-202z" />
<glyph unicode="&#xd2;" horiz-adv-x="1655" d="M82 391v584q0 90 15 160t61 120q52 55 124 83t150 28h791q94 0 160 -27.5t108.5 -79.5t62 -123.5t19.5 -160.5v-584q0 -90 -15.5 -160.5t-60.5 -119.5q-52 -55 -123.5 -83t-150.5 -28h-791q-180 0 -265 104t-85 287zM600 385q0 -62 8 -94.5t38 -49t89 -16.5h185 q59 0 88.5 16.5t38 49t8.5 94.5v596q0 62 -8.5 94.5t-38 49t-88.5 16.5h-185q-59 0 -89 -16.5t-38 -49t-8 -94.5v-596zM676 1716h246l100 -248h-203z" />
<glyph unicode="&#xd3;" horiz-adv-x="1655" d="M82 391v584q0 90 15 160t61 120q52 55 124 83t150 28h791q94 0 160 -27.5t108.5 -79.5t62 -123.5t19.5 -160.5v-584q0 -90 -15.5 -160.5t-60.5 -119.5q-52 -55 -123.5 -83t-150.5 -28h-791q-180 0 -265 104t-85 287zM600 385q0 -62 8 -94.5t38 -49t89 -16.5h185 q59 0 88.5 16.5t38 49t8.5 94.5v596q0 62 -8.5 94.5t-38 49t-88.5 16.5h-185q-59 0 -89 -16.5t-38 -49t-8 -94.5v-596zM705 1468l100 248h246h2l-146 -248h-202z" />
<glyph unicode="&#xd4;" horiz-adv-x="1655" d="M82 391v584q0 90 15 160t61 120q52 55 124 83t150 28h791q94 0 160 -27.5t108.5 -79.5t62 -123.5t19.5 -160.5v-584q0 -90 -15.5 -160.5t-60.5 -119.5q-52 -55 -123.5 -83t-150.5 -28h-791q-180 0 -265 104t-85 287zM532 1446l93 246h-2h424l96 -246h-205l-100 172 l-93 -172h-213zM600 385q0 -62 8 -94.5t38 -49t89 -16.5h185q59 0 88.5 16.5t38 49t8.5 94.5v596q0 62 -8.5 94.5t-38 49t-88.5 16.5h-185q-59 0 -89 -16.5t-38 -49t-8 -94.5v-596z" />
<glyph unicode="&#xd5;" horiz-adv-x="1655" d="M82 391v584q0 90 15 160t61 120q52 55 124 83t150 28h791q94 0 160 -27.5t108.5 -79.5t62 -123.5t19.5 -160.5v-584q0 -90 -15.5 -160.5t-60.5 -119.5q-52 -55 -123.5 -83t-150.5 -28h-791q-180 0 -265 104t-85 287zM498 1473v116q0 133 112 133q34 0 75.5 -10.5 t95.5 -28t93.5 -27t75.5 -9.5q43 0 43 73h-2h187v-125q0 -54 -22 -88.5t-85 -38.5q-37 0 -69 7.5t-89 27t-100.5 30.5t-81.5 11q-49 0 -49 -71h-184zM600 385q0 -62 8 -94.5t38 -49t89 -16.5h185q59 0 88.5 16.5t38 49t8.5 94.5v596q0 62 -8.5 94.5t-38 49t-88.5 16.5h-185 q-59 0 -89 -16.5t-38 -49t-8 -94.5v-596z" />
<glyph unicode="&#xd9;" horiz-adv-x="1741" d="M96 1366h633q-57 -82 -57 -203v-778q0 -62 8 -94.5t38 -49t89 -16.5h422q59 0 88 16.5t37 49t8 94.5v778q0 125 -57 203h340q-58 -83 -58 -203v-772q0 -94 -15.5 -158t-66.5 -122q-48 -56 -119 -83.5t-147 -27.5h-735q-175 0 -262.5 106t-87.5 285v772q0 120 -58 203z M823 1716h246l100 -248h-202z" />
<glyph unicode="&#xda;" horiz-adv-x="1741" d="M96 1366h633q-57 -82 -57 -203v-778q0 -62 8 -94.5t38 -49t89 -16.5h422q59 0 88 16.5t37 49t8 94.5v778q0 125 -57 203h340q-58 -83 -58 -203v-772q0 -94 -15.5 -158t-66.5 -122q-48 -56 -119 -83.5t-147 -27.5h-735q-175 0 -262.5 106t-87.5 285v772q0 120 -58 203z M903 1468l101 248h245h2l-145 -248h-203z" />
<glyph unicode="&#xdd;" horiz-adv-x="1561" d="M-29 1366h686q0 -89 72 -207l217 -350l225 362q50 79 50 152q0 29 -2 43h368q-31 -21 -55.5 -49.5t-46.5 -64.5t-43 -70l-408 -662v-317q0 -120 58 -203h-629q57 82 57 203v317l-397 629q-85 143 -152 217zM788 1468l101 248h246h2l-146 -248h-203z" />
<glyph unicode="&#xe0;" horiz-adv-x="1516" d="M68 279v172q0 112 70 171.5t186 59.5h471h32q41 0 63 14.5t23 53.5q0 44 -28 56.5t-80 12.5h-479q-65 0 -115.5 -10.5t-95.5 -36.5l32 238h918l49 2q85 -1 151.5 -37.5t103 -101.5t36.5 -150v-469q3 -29 5.5 -83t9.5 -94.5t26 -76.5h-485q-24 45 -31 106 q-32 -106 -182 -106h-369q-157 0 -234 62t-77 217zM551 1362h246l100 -248h-203zM561 319q0 -68 25.5 -98.5t91.5 -30.5h121q44 0 70 13.5t36 40.5t10 75v175h-237q-68 0 -92.5 -30t-24.5 -99v-46z" />
<glyph unicode="&#xe1;" horiz-adv-x="1516" d="M68 279v172q0 112 70 171.5t186 59.5h471h32q41 0 63 14.5t23 53.5q0 44 -28 56.5t-80 12.5h-479q-65 0 -115.5 -10.5t-95.5 -36.5l32 238h918l49 2q85 -1 151.5 -37.5t103 -101.5t36.5 -150v-469q3 -29 5.5 -83t9.5 -94.5t26 -76.5h-485q-24 45 -31 106 q-32 -106 -182 -106h-369q-157 0 -234 62t-77 217zM561 319q0 -68 25.5 -98.5t91.5 -30.5h121q44 0 70 13.5t36 40.5t10 75v175h-237q-68 0 -92.5 -30t-24.5 -99v-46zM621 1114l100 248h246h2l-146 -248h-202z" />
<glyph unicode="&#xe2;" horiz-adv-x="1516" d="M68 279v172q0 112 70 171.5t186 59.5h471h32q41 0 63 14.5t23 53.5q0 44 -28 56.5t-80 12.5h-479q-65 0 -115.5 -10.5t-95.5 -36.5l32 238h918l49 2q85 -1 151.5 -37.5t103 -101.5t36.5 -150v-469q3 -29 5.5 -83t9.5 -94.5t26 -76.5h-485q-24 45 -31 106 q-32 -106 -182 -106h-369q-157 0 -234 62t-77 217zM455 1087l92 246h-2h424l96 -246h-205l-100 173l-92 -173h-213zM561 319q0 -68 25.5 -98.5t91.5 -30.5h121q44 0 70 13.5t36 40.5t10 75v175h-237q-68 0 -92.5 -30t-24.5 -99v-46z" />
<glyph unicode="&#xe3;" horiz-adv-x="1516" d="M68 279v172q0 112 70 171.5t186 59.5h471h32q41 0 63 14.5t23 53.5q0 44 -28 56.5t-80 12.5h-479q-65 0 -115.5 -10.5t-95.5 -36.5l32 238h918l49 2q85 -1 151.5 -37.5t103 -101.5t36.5 -150v-469q3 -29 5.5 -83t9.5 -94.5t26 -76.5h-485q-24 45 -31 106 q-32 -106 -182 -106h-369q-157 0 -234 62t-77 217zM444 1118v117q0 133 113 133q35 0 78.5 -11t102 -30.5t91 -27t68.5 -7.5q26 0 34.5 20t8.5 54h-2h186v-125q0 -122 -106 -127q-37 0 -69 7.5t-89 27t-100.5 30.5t-81.5 11q-49 0 -49 -72h-185zM561 319q0 -68 25.5 -98.5 t91.5 -30.5h121q44 0 70 13.5t36 40.5t10 75v175h-237q-68 0 -92.5 -30t-24.5 -99v-46z" />
<glyph unicode="&#xe8;" horiz-adv-x="1462" d="M70 342v326q0 179 82 260.5t262 81.5h620q194 0 277.5 -72.5t83.5 -265.5v-264h-834v-84q0 -58 15 -87t47.5 -38t89.5 -9h448q137 0 217 48l-37 -238h-899q-129 0 -209.5 30.5t-121.5 105.5t-41 206zM524 1360h246l100 -248h-202zM561 600h346v109q0 53 -15.5 81.5 t-64.5 28.5h-194q-42 0 -57 -23.5t-15 -74.5v-121z" />
<glyph unicode="&#xe9;" horiz-adv-x="1462" d="M70 342v326q0 179 82 260.5t262 81.5h620q194 0 277.5 -72.5t83.5 -265.5v-264h-834v-84q0 -58 15 -87t47.5 -38t89.5 -9h448q137 0 217 48l-37 -238h-899q-129 0 -209.5 30.5t-121.5 105.5t-41 206zM561 600h346v109q0 53 -15.5 81.5t-64.5 28.5h-194q-42 0 -57 -23.5 t-15 -74.5v-121zM614 1112l101 248h246h2l-146 -248h-203z" />
<glyph unicode="&#xea;" horiz-adv-x="1462" d="M70 342v326q0 179 82 260.5t262 81.5h620q194 0 277.5 -72.5t83.5 -265.5v-264h-834v-84q0 -58 15 -87t47.5 -38t89.5 -9h448q137 0 217 48l-37 -238h-899q-129 0 -209.5 30.5t-121.5 105.5t-41 206zM426 1092l92 245h-2h424l96 -245h-205l-100 172l-92 -172h-213z M561 600h346v109q0 53 -15.5 81.5t-64.5 28.5h-194q-42 0 -57 -23.5t-15 -74.5v-121z" />
<glyph unicode="&#xec;" horiz-adv-x="741" d="M82 0q10 11 25.5 60.5t15.5 170.5v525q0 110 -8 164q-5 43 -33 90h536v-756q0 -111 7 -164q4 -36 34 -90h-577zM160 1380h246l100 -247h-203z" />
<glyph unicode="&#xed;" horiz-adv-x="741" d="M82 0q10 11 25.5 60.5t15.5 170.5v525q0 110 -8 164q-5 43 -33 90h536v-756q0 -111 7 -164q4 -36 34 -90h-577zM229 1143l101 248h245h3l-146 -248h-203z" />
<glyph unicode="&#xf2;" horiz-adv-x="1505" d="M70 301v428q0 124 82 203.5t204 79.5q19 0 30.5 -0.5t25.5 -1.5h651q124 0 205.5 -28t125.5 -98t44 -194v-401q0 -92 -33 -157.5t-99 -99.5t-159 -34l-690 2q-122 0 -206 23t-132.5 89.5t-48.5 188.5zM547 1362h246l100 -248h-203zM567 309q0 -45 11.5 -70.5t37 -37 t70.5 -11.5h139q65 0 91 30t26 95v377q0 71 -31.5 99t-105.5 28h-119q-119 0 -119 -112v-398z" />
<glyph unicode="&#xf3;" horiz-adv-x="1505" d="M70 301v428q0 124 82 203.5t204 79.5q19 0 30.5 -0.5t25.5 -1.5h651q124 0 205.5 -28t125.5 -98t44 -194v-401q0 -92 -33 -157.5t-99 -99.5t-159 -34l-690 2q-122 0 -206 23t-132.5 89.5t-48.5 188.5zM567 309q0 -45 11.5 -70.5t37 -37t70.5 -11.5h139q65 0 91 30t26 95 v377q0 71 -31.5 99t-105.5 28h-119q-119 0 -119 -112v-398zM606 1114l101 248h245h2l-145 -248h-203z" />
<glyph unicode="&#xf4;" horiz-adv-x="1505" d="M70 301v428q0 124 82 203.5t204 79.5q19 0 30.5 -0.5t25.5 -1.5h651q124 0 205.5 -28t125.5 -98t44 -194v-401q0 -92 -33 -157.5t-99 -99.5t-159 -34l-690 2q-122 0 -206 23t-132.5 89.5t-48.5 188.5zM455 1085l92 246h-2h424l96 -246h-205l-100 172l-92 -172h-213z M567 309q0 -45 11.5 -70.5t37 -37t70.5 -11.5h139q65 0 91 30t26 95v377q0 71 -31.5 99t-105.5 28h-119q-119 0 -119 -112v-398z" />
<glyph unicode="&#xf5;" horiz-adv-x="1505" d="M70 301v428q0 124 82 203.5t204 79.5q19 0 30.5 -0.5t25.5 -1.5h651q124 0 205.5 -28t125.5 -98t44 -194v-401q0 -92 -33 -157.5t-99 -99.5t-159 -34l-690 2q-122 0 -206 23t-132.5 89.5t-48.5 188.5zM410 1118v117q0 133 112 133q34 0 75.5 -10.5t103 -30.5t93.5 -27.5 t68 -7.5q26 0 34.5 20t8.5 54h-2h187v-125q0 -54 -22 -89t-85 -38q-37 0 -69 7.5t-89 27t-100.5 30.5t-81.5 11q-49 0 -49 -72h-184zM567 309q0 -45 11.5 -70.5t37 -37t70.5 -11.5h139q65 0 91 30t26 95v377q0 71 -31.5 99t-105.5 28h-119q-119 0 -119 -112v-398z" />
<glyph unicode="&#xf9;" horiz-adv-x="1569" d="M70 1010h534v-684q0 -70 21 -103t88 -33h118q72 0 96.5 25t24.5 98v443q0 92 -8 164q-5 39 -33 90h535v-756q0 -111 6 -164q5 -38 35 -90h-467l-21 94q-24 -60 -66.5 -77t-117.5 -17h-381q-130 0 -199 35.5t-96.5 110.5t-27.5 204v406q0 110 -9 164q-6 46 -32 90z M571 1360h246l101 -248h-203z" />
<glyph unicode="&#xfa;" horiz-adv-x="1569" d="M70 1010h534v-684q0 -70 21 -103t88 -33h118q72 0 96.5 25t24.5 98v443q0 92 -8 164q-5 39 -33 90h535v-756q0 -111 6 -164q5 -38 35 -90h-467l-21 94q-24 -60 -66.5 -77t-117.5 -17h-381q-130 0 -199 35.5t-96.5 110.5t-27.5 204v406q0 110 -9 164q-6 46 -32 90z M641 1112l100 248h246h2l-145 -248h-203z" />
<glyph unicode="&#xfd;" horiz-adv-x="1530" d="M68 1010h536v-662q0 -57 9 -91t38.5 -50.5t85.5 -16.5h127q59 0 73.5 37.5t16.5 112.5v416q0 88 -6.5 144.5t-34.5 109.5h535l2 -1071q0 -114 -32 -181.5t-90.5 -98t-136 -38.5t-194.5 -8h-821l-39 244q51 -29 108.5 -37t133.5 -8h465q48 0 72 14.5t31 43t7 79.5v117 q-26 -41 -73 -53.5t-115 -12.5h-287q-206 0 -288 97t-82 309v350q0 110 -9 164q-5 41 -32 90zM653 1122l101 248h245h2l-145 -248h-203z" />
<glyph unicode="&#x102;" d="M-27 0q88 101 164 256l481 1028q-22 49 -55 82h602l480 -1206q33 -81 106 -160h-688q35 43 35 92q0 41 -14 84.5t-47.5 113t-37.5 79.5h-559l-86 -187q-24 -52 -24 -88t26 -94h-383zM496 1614v84h192q4 -55 6 -70t12.5 -22t41.5 -7h227q46 0 51 35q4 21 4 62l2 2h193v-82 q0 -166 -152 -166h-424q-74 0 -113.5 44t-39.5 120zM543 590h364l-174 424z" />
<glyph unicode="&#x103;" horiz-adv-x="1516" d="M68 279v172q0 112 70 171.5t186 59.5h471h32q41 0 63 14.5t23 53.5q0 44 -28 56.5t-80 12.5h-479q-65 0 -115.5 -10.5t-95.5 -36.5l32 238h918l49 2q85 -1 151.5 -37.5t103 -101.5t36.5 -150v-469q3 -29 5.5 -83t9.5 -94.5t26 -76.5h-485q-24 45 -31 106 q-32 -106 -182 -106h-369q-157 0 -234 62t-77 217zM391 1251v84h193q4 -54 6 -69.5t12.5 -22t40.5 -6.5h227q24 0 36.5 7t15.5 28q4 20 4 61l2 2h192v-82q0 -166 -151 -166h-424q-76 0 -115 43.5t-39 120.5zM561 319q0 -68 25.5 -98.5t91.5 -30.5h121q44 0 70 13.5t36 40.5 t10 75v175h-237q-68 0 -92.5 -30t-24.5 -99v-46z" />
<glyph unicode="&#x110;" horiz-adv-x="1653" d="M0 590v221h152v352q0 120 -58 203h1127q120 0 199 -49t115 -136t36 -206v-584q0 -182 -83.5 -286.5t-266.5 -104.5h-1127q58 83 58 203v387h-152zM670 225h248q60 0 88.5 16.5t36.5 49t8 94.5v596q0 62 -8 94.5t-36.5 49t-88.5 16.5h-248v-330h149v-221h-149v-365z" />
<glyph unicode="&#x128;" horiz-adv-x="770" d="M61 1473v116q0 133 113 133q35 0 78.5 -11t94.5 -28t91 -26.5t76 -9.5q43 0 43 73h-2h186v-125q0 -121 -106 -127q-37 0 -69 7.5t-89 27t-100.5 30.5t-81.5 11q-49 0 -49 -71h-185zM68 0q14 22 35.5 76t21.5 127v960q0 121 -57 203h632q-57 -82 -57 -203v-960 q0 -121 57 -203h-632z" />
<glyph unicode="&#x129;" horiz-adv-x="741" d="M43 1137v116q0 133 113 133q33 0 74.5 -10.5t95.5 -28t94 -27t76 -9.5q43 0 43 73h-2h186v-124q0 -56 -22.5 -90t-84.5 -37q-50 0 -110 19t-120.5 37.5t-109.5 18.5t-49 -71h-184zM82 0q10 11 25.5 60.5t15.5 170.5v525q0 110 -8 164q-5 43 -33 90h536v-756 q0 -111 7 -164q4 -36 34 -90h-577z" />
<glyph unicode="&#x168;" horiz-adv-x="1741" d="M96 1366h633q-57 -82 -57 -203v-778q0 -62 8 -94.5t38 -49t89 -16.5h422q59 0 88 16.5t37 49t8 94.5v778q0 125 -57 203h340q-58 -83 -58 -203v-772q0 -94 -15.5 -158t-66.5 -122q-48 -56 -119 -83.5t-147 -27.5h-735q-175 0 -262.5 106t-87.5 285v772q0 120 -58 203z M645 1462v117q0 133 113 133q33 0 74.5 -10.5t103 -30.5t94 -27.5t68.5 -7.5q26 0 34.5 20t8.5 54h-2h186v-125q0 -122 -106 -127q-37 0 -69 7.5t-90.5 27.5t-101 30.5t-79.5 10.5q-50 0 -50 -72h-184z" />
<glyph unicode="&#x169;" horiz-adv-x="1569" d="M70 1010h534v-684q0 -70 21 -103t88 -33h118q72 0 96.5 25t24.5 98v443q0 92 -8 164q-5 39 -33 90h535v-756q0 -111 6 -164q5 -38 35 -90h-467l-21 94q-24 -60 -66.5 -77t-117.5 -17h-381q-130 0 -199 35.5t-96.5 110.5t-27.5 204v406q0 110 -9 164q-6 46 -32 90z M434 1116v117q0 133 113 133q33 0 74.5 -10.5t103 -30.5t94 -27.5t68.5 -7.5q26 0 34.5 20t8.5 54h-2h186v-125q0 -122 -106 -127q-37 0 -69 7.5t-90.5 27.5t-101 30.5t-79.5 10.5q-50 0 -50 -72h-184z" />
<glyph unicode="&#x1a0;" horiz-adv-x="1720" d="M82 391v584q0 90 15 160t61 120q52 55 124 83t150 28l-2 -2h791q122 0 199.5 -47t113 -113.5t35.5 -130.5l94 94l25 193h120l-47 -230l-188 -147v-592q0 -90 -15.5 -160.5t-60.5 -119.5q-52 -55 -123.5 -83t-150.5 -28h-791q-180 0 -265 104t-85 287zM598 383 q0 -62 8 -94.5t38 -49t89 -16.5h185q59 0 88.5 16.5t38 49t8.5 94.5v596q0 62 -8.5 94t-38 49t-88.5 17h-185q-59 0 -89 -17t-38 -49t-8 -94v-596z" />
<glyph unicode="&#x1a1;" horiz-adv-x="1556" d="M70 301v428q0 124 82 203.5t204 79.5q19 0 30.5 -0.5t25.5 -1.5l-2 -2h651q131 0 215.5 -39t123 -95.5t38.5 -111.5l84 59l18 183h117l-47 -230l-172 -106v-379q0 -92 -33 -157.5t-99 -99.5t-159 -34l-690 2q-122 0 -206 23t-132.5 89.5t-48.5 188.5zM565 307 q0 -45 11.5 -70.5t37 -37t70.5 -11.5h139q65 0 91 30t26 95v377q0 71 -31.5 99t-105.5 28h-119q-119 0 -119 -112v-398z" />
<glyph unicode="&#x1af;" horiz-adv-x="1741" d="M96 1366h633q-57 -82 -57 -203v-778q0 -62 8 -94.5t38 -49t89 -16.5h422q59 0 88 16.5t37 49t8 94.5v778q0 125 -57 203h282v-289l90 90l25 193h121l-47 -230l-189 -147v-592q0 -94 -15.5 -158t-66.5 -122q-48 -56 -119 -83.5t-147 -27.5h-735q-175 0 -262.5 106 t-87.5 285v772q0 120 -58 203z" />
<glyph unicode="&#x1b0;" horiz-adv-x="1569" d="M70 1008h534v-684q0 -70 21 -103t88 -33h118q72 0 96.5 25t24.5 98v443q0 92 -8 164q-5 39 -33 90h535v-242l84 59l18 183h117l-47 -230l-172 -106v-418q0 -111 6 -164q5 -38 35 -90h-467l-21 94q-24 -60 -66.5 -77t-117.5 -17h-381q-130 0 -199 35.5t-96.5 110.5 t-27.5 204v-2v406q0 110 -9 164q-6 46 -32 90z" />
<glyph unicode="&#x1ea0;" d="M-27 0q88 101 164 256l481 1028q-22 49 -55 82h602l480 -1206q33 -81 106 -160h-688q35 43 35 92q0 41 -14 84.5t-47.5 113t-37.5 79.5h-559l-86 -187q-24 -52 -24 -88t26 -94h-383zM543 590h364l-174 424zM604 -102h371v-191h-371v191z" />
<glyph unicode="&#x1ea1;" horiz-adv-x="1516" d="M68 279v172q0 112 70 171.5t186 59.5h471h32q41 0 63 14.5t23 53.5q0 44 -28 56.5t-80 12.5h-479q-65 0 -115.5 -10.5t-95.5 -36.5l32 238h918l49 2q85 -1 151.5 -37.5t103 -101.5t36.5 -150v-469q3 -29 5.5 -83t9.5 -94.5t26 -76.5h-485q-24 45 -31 106 q-32 -106 -182 -106h-369q-157 0 -234 62t-77 217zM561 319q0 -68 25.5 -98.5t91.5 -30.5h121q44 0 70 13.5t36 40.5t10 75v175h-237q-68 0 -92.5 -30t-24.5 -99v-46zM578 -102h370v-191h-370v191z" />
<glyph unicode="&#x1ea2;" d="M-27 0q88 101 164 256l481 1028q-22 49 -55 82h602l480 -1206q33 -81 106 -160h-688q35 43 35 92q0 41 -14 84.5t-47.5 113t-37.5 79.5h-559l-86 -187q-24 -52 -24 -88t26 -94h-383zM543 590h364l-174 424zM676 1690l12 96h334q61 0 94 -20t33 -76v-50q0 -50 -25 -79 t-75 -29h-41q-23 0 -30.5 -3t-10 -11t-2.5 -31v-23l-2 4h-177v62q0 45 19.5 64.5t62.5 19.5h56q24 0 34.5 6.5t10.5 30.5v22q0 21 -7 28t-28 7h-180q-51 0 -78 -18z" />
<glyph unicode="&#x1ea3;" horiz-adv-x="1516" d="M68 279v172q0 112 70 171.5t186 59.5h471h32q41 0 63 14.5t23 53.5q0 44 -28 56.5t-80 12.5h-479q-65 0 -115.5 -10.5t-95.5 -36.5l32 238h918l49 2q85 -1 151.5 -37.5t103 -101.5t36.5 -150v-469q3 -29 5.5 -83t9.5 -94.5t26 -76.5h-485q-24 45 -31 106 q-32 -106 -182 -106h-369q-157 0 -234 62t-77 217zM526 1335l13 97h333q59 0 93 -20.5t34 -76.5v-49q0 -49 -25.5 -78.5t-74.5 -29.5h-41q-23 0 -30.5 -3t-10 -11t-2.5 -31v-23l-2 4h-176v62q0 45 19.5 64.5t62.5 19.5h55q25 0 35 6t10 30v23q0 21 -7 28t-28 7h-180 q-50 0 -78 -19zM561 319q0 -68 25.5 -98.5t91.5 -30.5h121q44 0 70 13.5t36 40.5t10 75v175h-237q-68 0 -92.5 -30t-24.5 -99v-46z" />
<glyph unicode="&#x1ea4;" d="M-27 0q88 101 164 256l481 1028q-22 49 -55 82h602l480 -1206q33 -81 106 -160h-688q35 43 35 92q0 41 -14 84.5t-47.5 113t-37.5 79.5h-559l-86 -187q-24 -52 -24 -88t26 -94h-383zM543 590h364l-174 424zM559 1450l92 246h-2h424l96 -246h-204l-101 172l-92 -172h-213z M1176 1614l100 248h246h2l-146 -248h-202z" />
<glyph unicode="&#x1ea5;" horiz-adv-x="1516" d="M68 279v172q0 112 70 171.5t186 59.5h471h32q41 0 63 14.5t23 53.5q0 44 -28 56.5t-80 12.5h-479q-65 0 -115.5 -10.5t-95.5 -36.5l32 238h918l49 2q85 -1 151.5 -37.5t103 -101.5t36.5 -150v-469q3 -29 5.5 -83t9.5 -94.5t26 -76.5h-485q-24 45 -31 106 q-32 -106 -182 -106h-369q-157 0 -234 62t-77 217zM455 1087l92 246h-2h424l96 -246h-205l-100 173l-92 -173h-213zM561 319q0 -68 25.5 -98.5t91.5 -30.5h121q44 0 70 13.5t36 40.5t10 75v175h-237q-68 0 -92.5 -30t-24.5 -99v-46zM1071 1251l100 248h246h2l-145 -248h-203 z" />
<glyph unicode="&#x1ea6;" d="M-27 0q88 101 164 256l481 1028q-22 49 -55 82h602l480 -1206q33 -81 106 -160h-688q35 43 35 92q0 41 -14 84.5t-47.5 113t-37.5 79.5h-559l-86 -187q-24 -52 -24 -88t26 -94h-383zM543 590h364l-174 424zM559 1450l92 246h-2h424l96 -246h-204l-101 172l-92 -172h-213z M1065 1913h246l100 -248h-203z" />
<glyph unicode="&#x1ea7;" horiz-adv-x="1516" d="M68 279v172q0 112 70 171.5t186 59.5h471h32q41 0 63 14.5t23 53.5q0 44 -28 56.5t-80 12.5h-479q-65 0 -115.5 -10.5t-95.5 -36.5l32 238h918l49 2q85 -1 151.5 -37.5t103 -101.5t36.5 -150v-469q3 -29 5.5 -83t9.5 -94.5t26 -76.5h-485q-24 45 -31 106 q-32 -106 -182 -106h-369q-157 0 -234 62t-77 217zM455 1087l92 246h-2h424l96 -246h-205l-100 173l-92 -173h-213zM561 319q0 -68 25.5 -98.5t91.5 -30.5h121q44 0 70 13.5t36 40.5t10 75v175h-237q-68 0 -92.5 -30t-24.5 -99v-46zM961 1550h245l101 -247h-203z" />
<glyph unicode="&#x1ea8;" d="M-27 0q88 101 164 256l481 1028q-22 49 -55 82h602l480 -1206q33 -81 106 -160h-688q35 43 35 92q0 41 -14 84.5t-47.5 113t-37.5 79.5h-559l-86 -187q-24 -52 -24 -88t26 -94h-383zM543 590h364l-174 424zM559 1450l92 246h-2h424l96 -246h-204l-101 172l-92 -172h-213z M1051 1835l12 96h334q60 0 93.5 -20t33.5 -76v-49q0 -51 -26 -80t-75 -29h-41q-23 0 -30.5 -3t-10 -11t-2.5 -31v-22l-2 4h-176v61q0 45 19.5 64.5t62.5 19.5h55q25 0 35 6t10 31v23q0 21 -6.5 27.5t-27.5 6.5h-181q-50 0 -77 -18z" />
<glyph unicode="&#x1ea9;" horiz-adv-x="1516" d="M68 279v172q0 112 70 171.5t186 59.5h471h32q41 0 63 14.5t23 53.5q0 44 -28 56.5t-80 12.5h-479q-65 0 -115.5 -10.5t-95.5 -36.5l32 238h918l49 2q85 -1 151.5 -37.5t103 -101.5t36.5 -150v-469q3 -29 5.5 -83t9.5 -94.5t26 -76.5h-485q-24 45 -31 106 q-32 -106 -182 -106h-369q-157 0 -234 62t-77 217zM455 1087l92 246h-2h424l96 -246h-205l-100 173l-92 -173h-213zM561 319q0 -68 25.5 -98.5t91.5 -30.5h121q44 0 70 13.5t36 40.5t10 75v175h-237q-68 0 -92.5 -30t-24.5 -99v-46zM946 1473l12 96h334q59 0 93 -19.5 t34 -76.5v-50q0 -50 -25 -79t-75 -29h-41q-23 0 -30.5 -3t-10 -11t-2.5 -31v-23l-2 4h-176v62q0 45 19.5 64.5t62.5 19.5h55q25 0 35 6t10 31v22q0 21 -7 28t-28 7h-180q-50 0 -78 -18z" />
<glyph unicode="&#x1eaa;" d="M-27 0q88 101 164 256l481 1028q-22 49 -55 82h602l480 -1206q33 -81 106 -160h-688q35 43 35 92q0 41 -14 84.5t-47.5 113t-37.5 79.5h-559l-86 -187q-24 -52 -24 -88t26 -94h-383zM543 590h364l-174 424zM549 1792v117q0 133 113 133q33 0 74.5 -10.5t103 -30.5 t93.5 -27.5t68 -7.5q26 0 34.5 20t8.5 54h-2h187v-125q0 -55 -22.5 -89.5t-84.5 -37.5q-52 0 -111 19t-118.5 38t-110.5 19q-49 0 -49 -72h-184zM559 1450l92 246h-2h424l96 -246h-204l-101 172l-92 -172h-213z" />
<glyph unicode="&#x1eab;" horiz-adv-x="1516" d="M68 279v172q0 112 70 171.5t186 59.5h471h32q41 0 63 14.5t23 53.5q0 44 -28 56.5t-80 12.5h-479q-65 0 -115.5 -10.5t-95.5 -36.5l32 238h918l49 2q85 -1 151.5 -37.5t103 -101.5t36.5 -150v-469q3 -29 5.5 -83t9.5 -94.5t26 -76.5h-485q-24 45 -31 106 q-32 -106 -182 -106h-369q-157 0 -234 62t-77 217zM444 1430v116q0 133 113 133q35 0 78.5 -11t94.5 -28t91 -26.5t76 -9.5q43 0 43 73h-2h186v-125q0 -121 -106 -127q-37 0 -69 7.5t-89 27t-100.5 30.5t-81.5 11q-49 0 -49 -71h-185zM455 1087l92 246h-2h424l96 -246h-205 l-100 173l-92 -173h-213zM561 319q0 -68 25.5 -98.5t91.5 -30.5h121q44 0 70 13.5t36 40.5t10 75v175h-237q-68 0 -92.5 -30t-24.5 -99v-46z" />
<glyph unicode="&#x1eac;" d="M-27 0q88 101 164 256l481 1028q-22 49 -55 82h602l480 -1206q33 -81 106 -160h-688q35 43 35 92q0 41 -14 84.5t-47.5 113t-37.5 79.5h-559l-86 -187q-24 -52 -24 -88t26 -94h-383zM543 590h364l-174 424zM559 1450l92 246h-2h424l96 -246h-204l-101 172l-92 -172h-213z M682 -109h371v-190h-371v190z" />
<glyph unicode="&#x1ead;" horiz-adv-x="1516" d="M68 279v172q0 112 70 171.5t186 59.5h471h32q41 0 63 14.5t23 53.5q0 44 -28 56.5t-80 12.5h-479q-65 0 -115.5 -10.5t-95.5 -36.5l32 238h918l49 2q85 -1 151.5 -37.5t103 -101.5t36.5 -150v-469q3 -29 5.5 -83t9.5 -94.5t26 -76.5h-485q-24 45 -31 106 q-32 -106 -182 -106h-369q-157 0 -234 62t-77 217zM455 1087l92 246h-2h424l96 -246h-205l-100 173l-92 -173h-213zM561 319q0 -68 25.5 -98.5t91.5 -30.5h121q44 0 70 13.5t36 40.5t10 75v175h-237q-68 0 -92.5 -30t-24.5 -99v-46zM567 -113h371v-190h-371v190z" />
<glyph unicode="&#x1eae;" d="M-27 0q88 101 164 256l481 1028q-22 49 -55 82h602l480 -1206q33 -81 106 -160h-688q35 43 35 92q0 41 -14 84.5t-47.5 113t-37.5 79.5h-559l-86 -187q-24 -52 -24 -88t26 -94h-383zM496 1614v84h192q4 -55 6 -70t12.5 -22t41.5 -7h227q46 0 51 35q4 21 4 62l2 2h193v-82 q0 -166 -152 -166h-424q-74 0 -113.5 44t-39.5 120zM543 590h364l-174 424zM745 1780l101 248h246h2l-146 -248h-203z" />
<glyph unicode="&#x1eaf;" horiz-adv-x="1516" d="M68 279v172q0 112 70 171.5t186 59.5h471h32q41 0 63 14.5t23 53.5q0 44 -28 56.5t-80 12.5h-479q-65 0 -115.5 -10.5t-95.5 -36.5l32 238h918l49 2q85 -1 151.5 -37.5t103 -101.5t36.5 -150v-469q3 -29 5.5 -83t9.5 -94.5t26 -76.5h-485q-24 45 -31 106 q-32 -106 -182 -106h-369q-157 0 -234 62t-77 217zM391 1251v84h193q4 -54 6 -69.5t12.5 -22t40.5 -6.5h227q24 0 36.5 7t15.5 28q4 20 4 61l2 2h192v-82q0 -166 -151 -166h-424q-76 0 -115 43.5t-39 120.5zM561 319q0 -68 25.5 -98.5t91.5 -30.5h121q44 0 70 13.5t36 40.5 t10 75v175h-237q-68 0 -92.5 -30t-24.5 -99v-46zM641 1417l100 248h246h2l-145 -248h-203z" />
<glyph unicode="&#x1eb0;" d="M-27 0q88 101 164 256l481 1028q-22 49 -55 82h602l480 -1206q33 -81 106 -160h-688q35 43 35 92q0 41 -14 84.5t-47.5 113t-37.5 79.5h-559l-86 -187q-24 -52 -24 -88t26 -94h-383zM496 1614v84h192q4 -55 6 -70t12.5 -22t41.5 -7h227q46 0 51 35q4 21 4 62l2 2h193v-82 q0 -166 -152 -166h-424q-74 0 -113.5 44t-39.5 120zM543 590h364l-174 424zM625 2017h245l101 -248h-203z" />
<glyph unicode="&#x1eb1;" horiz-adv-x="1516" d="M68 279v172q0 112 70 171.5t186 59.5h471h32q41 0 63 14.5t23 53.5q0 44 -28 56.5t-80 12.5h-479q-65 0 -115.5 -10.5t-95.5 -36.5l32 238h918l49 2q85 -1 151.5 -37.5t103 -101.5t36.5 -150v-469q3 -29 5.5 -83t9.5 -94.5t26 -76.5h-485q-24 45 -31 106 q-32 -106 -182 -106h-369q-157 0 -234 62t-77 217zM391 1251v84h193q4 -54 6 -69.5t12.5 -22t40.5 -6.5h227q24 0 36.5 7t15.5 28q4 20 4 61l2 2h192v-82q0 -166 -151 -166h-424q-76 0 -115 43.5t-39 120.5zM520 1655h246l100 -248h-202zM561 319q0 -68 25.5 -98.5 t91.5 -30.5h121q44 0 70 13.5t36 40.5t10 75v175h-237q-68 0 -92.5 -30t-24.5 -99v-46z" />
<glyph unicode="&#x1eb2;" d="M-27 0q88 101 164 256l481 1028q-22 49 -55 82h602l480 -1206q33 -81 106 -160h-688q35 43 35 92q0 41 -14 84.5t-47.5 113t-37.5 79.5h-559l-86 -187q-24 -52 -24 -88t26 -94h-383zM496 1614v84h192q4 -55 6 -70t12.5 -22t41.5 -7h227q46 0 51 35q4 21 4 62l2 2h193v-82 q0 -166 -152 -166h-424q-74 0 -113.5 44t-39.5 120zM543 590h364l-174 424zM631 2001l12 96h334q60 0 93.5 -20t33.5 -76v-49q0 -51 -25 -80t-75 -29h-41q-23 0 -30.5 -3t-10 -11t-2.5 -31v-22l-2 4h-177v61q0 45 19.5 64.5t62.5 19.5h56q24 0 34.5 6.5t10.5 30.5v23 q0 21 -7 27.5t-28 6.5h-180q-51 0 -78 -18z" />
<glyph unicode="&#x1eb3;" horiz-adv-x="1516" d="M68 279v172q0 112 70 171.5t186 59.5h471h32q41 0 63 14.5t23 53.5q0 44 -28 56.5t-80 12.5h-479q-65 0 -115.5 -10.5t-95.5 -36.5l32 238h918l49 2q85 -1 151.5 -37.5t103 -101.5t36.5 -150v-469q3 -29 5.5 -83t9.5 -94.5t26 -76.5h-485q-24 45 -31 106 q-32 -106 -182 -106h-369q-157 0 -234 62t-77 217zM391 1251v84h193q4 -54 6 -69.5t12.5 -22t40.5 -6.5h227q24 0 36.5 7t15.5 28q4 20 4 61l2 2h192v-82q0 -166 -151 -166h-424q-76 0 -115 43.5t-39 120.5zM526 1638l13 97h333q59 0 93 -20.5t34 -76.5v-49 q0 -49 -25.5 -78.5t-74.5 -29.5h-41q-23 0 -30.5 -3t-10 -11t-2.5 -31v-23l-2 4h-176v62q0 45 19.5 64.5t62.5 19.5h55q25 0 35 6t10 30v23q0 21 -7 28t-28 7h-180q-50 0 -78 -19zM561 319q0 -68 25.5 -98.5t91.5 -30.5h121q44 0 70 13.5t36 40.5t10 75v175h-237 q-68 0 -92.5 -30t-24.5 -99v-46z" />
<glyph unicode="&#x1eb4;" d="M-27 0q88 101 164 256l481 1028q-22 49 -55 82h602l480 -1206q33 -81 106 -160h-688q35 43 35 92q0 41 -14 84.5t-47.5 113t-37.5 79.5h-559l-86 -187q-24 -52 -24 -88t26 -94h-383zM496 1614v84h192q4 -55 6 -70t12.5 -22t41.5 -7h227q46 0 51 35q4 21 4 62l2 2h193v-82 q0 -166 -152 -166h-424q-74 0 -113.5 44t-39.5 120zM508 1804v117q0 133 113 133q33 0 74.5 -10.5t103 -30.5t94 -27.5t68.5 -7.5q43 0 43 74h-3h187v-125q0 -55 -22 -89.5t-85 -37.5q-52 0 -111 19t-118.5 38t-110.5 19q-49 0 -49 -72h-184zM543 590h364l-174 424z" />
<glyph unicode="&#x1eb5;" horiz-adv-x="1516" d="M68 279v172q0 112 70 171.5t186 59.5h471h32q41 0 63 14.5t23 53.5q0 44 -28 56.5t-80 12.5h-479q-65 0 -115.5 -10.5t-95.5 -36.5l32 238h918l49 2q85 -1 151.5 -37.5t103 -101.5t36.5 -150v-469q3 -29 5.5 -83t9.5 -94.5t26 -76.5h-485q-24 45 -31 106 q-32 -106 -182 -106h-369q-157 0 -234 62t-77 217zM391 1251v84h193q4 -54 6 -69.5t12.5 -22t40.5 -6.5h227q24 0 36.5 7t15.5 28q4 20 4 61l2 2h192v-82q0 -166 -151 -166h-424q-76 0 -115 43.5t-39 120.5zM403 1442v117q0 133 113 133q35 0 78.5 -11t102 -30.5t91 -27 t68.5 -7.5q26 0 34.5 20t8.5 54h-2h186v-125q0 -122 -106 -127q-37 0 -76 9.5t-89 26.5t-93.5 28t-81.5 11q-49 0 -49 -71h-185zM561 319q0 -68 25.5 -98.5t91.5 -30.5h121q44 0 70 13.5t36 40.5t10 75v175h-237q-68 0 -92.5 -30t-24.5 -99v-46z" />
<glyph unicode="&#x1eb6;" d="M-27 0q88 101 164 256l481 1028q-22 49 -55 82h602l480 -1206q33 -81 106 -160h-688q35 43 35 92q0 41 -14 84.5t-47.5 113t-37.5 79.5h-559l-86 -187q-24 -52 -24 -88t26 -94h-383zM496 1614v84h192q4 -55 6 -70t12.5 -22t41.5 -7h227q46 0 51 35q4 21 4 62l2 2h193v-82 q0 -166 -152 -166h-424q-74 0 -113.5 44t-39.5 120zM543 590h364l-174 424zM662 -129h370v-190h-370v190z" />
<glyph unicode="&#x1eb7;" horiz-adv-x="1516" d="M68 279v172q0 112 70 171.5t186 59.5h471h32q41 0 63 14.5t23 53.5q0 44 -28 56.5t-80 12.5h-479q-65 0 -115.5 -10.5t-95.5 -36.5l32 238h918l49 2q85 -1 151.5 -37.5t103 -101.5t36.5 -150v-469q3 -29 5.5 -83t9.5 -94.5t26 -76.5h-485q-24 45 -31 106 q-32 -106 -182 -106h-369q-157 0 -234 62t-77 217zM391 1251v84h193q4 -54 6 -69.5t12.5 -22t40.5 -6.5h227q24 0 36.5 7t15.5 28q4 20 4 61l2 2h192v-82q0 -166 -151 -166h-424q-76 0 -115 43.5t-39 120.5zM537 -102h370v-191h-370v191zM561 319q0 -68 25.5 -98.5 t91.5 -30.5h121q44 0 70 13.5t36 40.5t10 75v175h-237q-68 0 -92.5 -30t-24.5 -99v-46z" />
<glyph unicode="&#x1eb8;" horiz-adv-x="1399" d="M123 0q14 22 35.5 76t21.5 127v960q0 121 -57 203h1202l39 -258q-89 33 -240 33h-426v-332h418q122 0 195 31v-289q-50 37 -156 37h-457v-363h506q46 0 80.5 9.5t114.5 37.5l-45 -272h-1231zM543 -102h370v-191h-370v191z" />
<glyph unicode="&#x1eb9;" horiz-adv-x="1462" d="M70 342v326q0 179 82 260.5t262 81.5h620q194 0 277.5 -72.5t83.5 -265.5v-264h-834v-84q0 -58 15 -87t47.5 -38t89.5 -9h448q137 0 217 48l-37 -238h-899q-129 0 -209.5 30.5t-121.5 105.5t-41 206zM561 -102h371v-191h-371v191zM561 600h346v109q0 53 -15.5 81.5 t-64.5 28.5h-194q-42 0 -57 -23.5t-15 -74.5v-121z" />
<glyph unicode="&#x1eba;" horiz-adv-x="1399" d="M123 0q14 22 35.5 76t21.5 127v960q0 121 -57 203h1202l39 -258q-89 33 -240 33h-426v-332h418q122 0 195 31v-289q-50 37 -156 37h-457v-363h506q46 0 80.5 9.5t114.5 37.5l-45 -272h-1231zM543 1690l12 96h334q60 0 93.5 -20t33.5 -76v-50q0 -50 -26 -79t-75 -29h-41 q-22 0 -30 -3t-10.5 -11t-2.5 -31v-23l-2 4h-176v62q0 45 19.5 64.5t62.5 19.5h56q24 0 34.5 6.5t10.5 30.5v22q0 20 -7 27.5t-28 7.5h-180q-51 0 -78 -18z" />
<glyph unicode="&#x1ebb;" horiz-adv-x="1462" d="M70 342v326q0 179 82 260.5t262 81.5h620q194 0 277.5 -72.5t83.5 -265.5v-264h-834v-84q0 -58 15 -87t47.5 -38t89.5 -9h448q137 0 217 48l-37 -238h-899q-129 0 -209.5 30.5t-121.5 105.5t-41 206zM541 1333l12 97h334q58 0 92.5 -20.5t34.5 -76.5v-49q0 -50 -26 -79 t-75 -29h-41q-20 0 -29 -3t-11.5 -11.5t-2.5 -31.5v-22l-2 4h-176v62q0 44 19.5 63.5t62.5 19.5h55q25 0 35.5 7t10.5 30v23q0 20 -7 27.5t-28 7.5h-181q-50 0 -77 -19zM561 600h346v109q0 53 -15.5 81.5t-64.5 28.5h-194q-42 0 -57 -23.5t-15 -74.5v-121z" />
<glyph unicode="&#x1ebc;" horiz-adv-x="1399" d="M123 0q14 22 35.5 76t21.5 127v960q0 121 -57 203h1202l39 -258q-89 33 -240 33h-426v-332h418q122 0 195 31v-289q-50 37 -156 37h-457v-363h506q46 0 80.5 9.5t114.5 37.5l-45 -272h-1231zM389 1473v116q0 133 113 133q33 0 74.5 -10.5t95.5 -28t94 -27t76 -9.5 q43 0 43 73h-2h186v-125q0 -121 -106 -127q-37 0 -69 7.5t-90.5 27.5t-101 30.5t-79.5 10.5q-50 0 -50 -71h-184z" />
<glyph unicode="&#x1ebd;" horiz-adv-x="1462" d="M70 342v326q0 179 82 260.5t262 81.5h620q194 0 277.5 -72.5t83.5 -265.5v-264h-834v-84q0 -58 15 -87t47.5 -38t89.5 -9h448q137 0 217 48l-37 -238h-899q-129 0 -209.5 30.5t-121.5 105.5t-41 206zM397 1116v117q0 133 113 133q33 0 74.5 -10.5t103 -30.5t94 -27.5 t68.5 -7.5q26 0 34.5 20t8.5 54h-2h186v-125q0 -122 -106 -127q-37 0 -69 7.5t-89 27t-100.5 30.5t-81.5 11q-49 0 -49 -72h-185zM561 600h346v109q0 53 -15.5 81.5t-64.5 28.5h-194q-42 0 -57 -23.5t-15 -74.5v-121z" />
<glyph unicode="&#x1ebe;" horiz-adv-x="1399" d="M123 0q14 22 35.5 76t21.5 127v960q0 121 -57 203h1202l39 -258q-89 33 -240 33h-426v-332h418q122 0 195 31v-289q-50 37 -156 37h-457v-363h506q46 0 80.5 9.5t114.5 37.5l-45 -272h-1231zM436 1442l92 246h-2h424l97 -246h-205l-101 172l-92 -172h-213zM1053 1606 l100 247h246h2l-146 -247h-202z" />
<glyph unicode="&#x1ebf;" horiz-adv-x="1462" d="M70 342v326q0 179 82 260.5t262 81.5h620q194 0 277.5 -72.5t83.5 -265.5v-264h-834v-84q0 -58 15 -87t47.5 -38t89.5 -9h448q137 0 217 48l-37 -238h-899q-129 0 -209.5 30.5t-121.5 105.5t-41 206zM426 1092l92 245h-2h424l96 -245h-205l-100 172l-92 -172h-213z M561 600h346v109q0 53 -15.5 81.5t-64.5 28.5h-194q-42 0 -57 -23.5t-15 -74.5v-121zM1042 1255l101 248h246h2l-146 -248h-203z" />
<glyph unicode="&#x1ec0;" horiz-adv-x="1399" d="M123 0q14 22 35.5 76t21.5 127v960q0 121 -57 203h1202l39 -258q-89 33 -240 33h-426v-332h418q122 0 195 31v-289q-50 37 -156 37h-457v-363h506q46 0 80.5 9.5t114.5 37.5l-45 -272h-1231zM436 1442l92 246h-2h424l97 -246h-205l-101 172l-92 -172h-213zM942 1905h246 l100 -248h-203z" />
<glyph unicode="&#x1ec1;" horiz-adv-x="1462" d="M70 342v326q0 179 82 260.5t262 81.5h620q194 0 277.5 -72.5t83.5 -265.5v-264h-834v-84q0 -58 15 -87t47.5 -38t89.5 -9h448q137 0 217 48l-37 -238h-899q-129 0 -209.5 30.5t-121.5 105.5t-41 206zM426 1092l92 245h-2h424l96 -245h-205l-100 172l-92 -172h-213z M561 600h346v109q0 53 -15.5 81.5t-64.5 28.5h-194q-42 0 -57 -23.5t-15 -74.5v-121zM932 1554h246l100 -247h-203z" />
<glyph unicode="&#x1ec2;" horiz-adv-x="1399" d="M123 0q14 22 35.5 76t21.5 127v960q0 121 -57 203h1202l39 -258q-89 33 -240 33h-426v-332h418q122 0 195 31v-289q-50 37 -156 37h-457v-363h506q46 0 80.5 9.5t114.5 37.5l-45 -272h-1231zM436 1442l92 246h-2h424l97 -246h-205l-101 172l-92 -172h-213zM928 1827 l12 96h334q60 0 93.5 -20t33.5 -76v-49q0 -51 -26 -80t-75 -29h-40q-23 0 -30.5 -3t-10 -11t-2.5 -31v-22l-3 4h-176v61q0 45 19.5 64.5t62.5 19.5h56q24 0 34.5 6.5t10.5 30.5v22q0 20 -7 27.5t-28 7.5h-180q-51 0 -78 -18z" />
<glyph unicode="&#x1ec3;" horiz-adv-x="1462" d="M70 342v326q0 179 82 260.5t262 81.5h620q194 0 277.5 -72.5t83.5 -265.5v-264h-834v-84q0 -58 15 -87t47.5 -38t89.5 -9h448q137 0 217 48l-37 -238h-899q-129 0 -209.5 30.5t-121.5 105.5t-41 206zM426 1092l92 245h-2h424l96 -245h-205l-100 172l-92 -172h-213z M561 600h346v109q0 53 -15.5 81.5t-64.5 28.5h-194q-42 0 -57 -23.5t-15 -74.5v-121zM918 1477l12 96h334q60 0 93.5 -20t33.5 -76v-50q0 -50 -26 -79t-75 -29h-41q-23 0 -30.5 -3t-10 -11t-2.5 -31v-23l-2 4h-176v62q0 45 19.5 64.5t62.5 19.5h55q25 0 35 6t10 31v22 q0 21 -6.5 28t-27.5 7h-181q-50 0 -77 -18z" />
<glyph unicode="&#x1ec4;" horiz-adv-x="1399" d="M123 0q14 22 35.5 76t21.5 127v960q0 121 -57 203h1202l39 -258q-89 33 -240 33h-426v-332h418q122 0 195 31v-289q-50 37 -156 37h-457v-363h506q46 0 80.5 9.5t114.5 37.5l-45 -272h-1231zM426 1784v117q0 133 113 133q33 0 74.5 -10.5t103 -30.5t94 -27.5t68.5 -7.5 q26 0 34.5 20t8.5 54h-2h186v-125q0 -56 -22.5 -90t-84.5 -37q-50 0 -110 19t-120.5 37.5t-109.5 18.5t-49 -71h-184zM436 1442l92 246h-2h424l97 -246h-205l-101 172l-92 -172h-213z" />
<glyph unicode="&#x1ec5;" horiz-adv-x="1462" d="M70 342v326q0 179 82 260.5t262 81.5h620q194 0 277.5 -72.5t83.5 -265.5v-264h-834v-84q0 -58 15 -87t47.5 -38t89.5 -9h448q137 0 217 48l-37 -238h-899q-129 0 -209.5 30.5t-121.5 105.5t-41 206zM416 1434v116q0 133 112 133q34 0 75.5 -10.5t95.5 -28t93.5 -27 t75.5 -9.5q43 0 43 73h-2h187v-125q0 -54 -22.5 -88.5t-84.5 -37.5q-37 0 -76 9.5t-89 26.5t-93.5 28t-81.5 11q-49 0 -49 -71h-184zM426 1092l92 245h-2h424l96 -245h-205l-100 172l-92 -172h-213zM561 600h346v109q0 53 -15.5 81.5t-64.5 28.5h-194q-42 0 -57 -23.5 t-15 -74.5v-121z" />
<glyph unicode="&#x1ec6;" horiz-adv-x="1399" d="M123 0q14 22 35.5 76t21.5 127v960q0 121 -57 203h1202l39 -258q-89 33 -240 33h-426v-332h418q122 0 195 31v-289q-50 37 -156 37h-457v-363h506q46 0 80.5 9.5t114.5 37.5l-45 -272h-1231zM436 1442l92 246h-2h424l97 -246h-205l-101 172l-92 -172h-213zM539 -106h370 v-191h-370v191z" />
<glyph unicode="&#x1ec7;" horiz-adv-x="1462" d="M70 342v326q0 179 82 260.5t262 81.5h620q194 0 277.5 -72.5t83.5 -265.5v-264h-834v-84q0 -58 15 -87t47.5 -38t89.5 -9h448q137 0 217 48l-37 -238h-899q-129 0 -209.5 30.5t-121.5 105.5t-41 206zM426 1092l92 245h-2h424l96 -245h-205l-100 172l-92 -172h-213z M539 -109h370v-190h-370v190zM561 600h346v109q0 53 -15.5 81.5t-64.5 28.5h-194q-42 0 -57 -23.5t-15 -74.5v-121z" />
<glyph unicode="&#x1ec8;" horiz-adv-x="770" d="M68 0q14 22 35.5 76t21.5 127v960q0 121 -57 203h632q-57 -82 -57 -203v-960q0 -121 57 -203h-632zM154 1690l12 96h334q60 0 93.5 -20t33.5 -76v-50q0 -50 -26 -79t-75 -29h-41q-23 0 -30.5 -3t-10 -11t-2.5 -31v-23l-2 4h-176v62q0 45 19.5 64.5t62.5 19.5h55 q25 0 35 6t10 31v22q0 21 -6.5 28t-27.5 7h-181q-50 0 -77 -18z" />
<glyph unicode="&#x1ec9;" horiz-adv-x="741" d="M82 0q10 11 25.5 60.5t15.5 170.5v525q0 110 -8 164q-5 43 -33 90h536v-756q0 -111 7 -164q4 -36 34 -90h-577zM156 1354l12 96h334q60 0 93.5 -20t33.5 -76v-49q0 -51 -26 -80t-75 -29h-41q-23 0 -30.5 -3t-10 -11t-2.5 -31v-23l-2 5h-176v61q0 45 19.5 64.5t62.5 19.5 h55q25 0 35.5 6.5t10.5 30.5v22q0 20 -7 27.5t-28 7.5h-181q-50 0 -77 -18z" />
<glyph unicode="&#x1eca;" horiz-adv-x="770" d="M68 0q14 22 35.5 76t21.5 127v960q0 121 -57 203h632q-57 -82 -57 -203v-960q0 -121 57 -203h-632zM184 -113h371v-190h-371v190z" />
<glyph unicode="&#x1ecb;" horiz-adv-x="741" d="M82 0q10 11 25.5 60.5t15.5 170.5v525q0 110 -8 164q-5 43 -33 90h536v-756q0 -111 7 -164q4 -36 34 -90h-577zM180 1114v191h371v-191h-371zM184 -113h371v-190h-371v190z" />
<glyph unicode="&#x1ecc;" horiz-adv-x="1655" d="M82 391v584q0 90 15 160t61 120q52 55 124 83t150 28h791q94 0 160 -27.5t108.5 -79.5t62 -123.5t19.5 -160.5v-584q0 -90 -15.5 -160.5t-60.5 -119.5q-52 -55 -123.5 -83t-150.5 -28h-791q-180 0 -265 104t-85 287zM600 385q0 -62 8 -94.5t38 -49t89 -16.5h185 q59 0 88.5 16.5t38 49t8.5 94.5v596q0 62 -8.5 94.5t-38 49t-88.5 16.5h-185q-59 0 -89 -16.5t-38 -49t-8 -94.5v-596zM662 -102h370v-191h-370v191z" />
<glyph unicode="&#x1ecd;" horiz-adv-x="1505" d="M70 301v428q0 124 82 203.5t204 79.5q19 0 30.5 -0.5t25.5 -1.5h651q124 0 205.5 -28t125.5 -98t44 -194v-401q0 -92 -33 -157.5t-99 -99.5t-159 -34l-690 2q-122 0 -206 23t-132.5 89.5t-48.5 188.5zM553 -104h371v-191h-371v191zM567 309q0 -45 11.5 -70.5t37 -37 t70.5 -11.5h139q65 0 91 30t26 95v377q0 71 -31.5 99t-105.5 28h-119q-119 0 -119 -112v-398z" />
<glyph unicode="&#x1ece;" horiz-adv-x="1655" d="M82 391v584q0 90 15 160t61 120q52 55 124 83t150 28h791q94 0 160 -27.5t108.5 -79.5t62 -123.5t19.5 -160.5v-584q0 -90 -15.5 -160.5t-60.5 -119.5q-52 -55 -123.5 -83t-150.5 -28h-791q-180 0 -265 104t-85 287zM600 385q0 -62 8 -94.5t38 -49t89 -16.5h185 q59 0 88.5 16.5t38 49t8.5 94.5v596q0 62 -8.5 94.5t-38 49t-88.5 16.5h-185q-59 0 -89 -16.5t-38 -49t-8 -94.5v-596zM631 1690l12 96h334q60 0 93.5 -20t33.5 -76v-50q0 -50 -25 -79t-75 -29h-41q-23 0 -30.5 -3t-10 -11t-2.5 -31v-23l-2 4h-177v62q0 45 19.5 64.5 t62.5 19.5h56q24 0 34.5 6.5t10.5 30.5v22q0 21 -7 28t-28 7h-180q-51 0 -78 -18z" />
<glyph unicode="&#x1ecf;" horiz-adv-x="1505" d="M70 301v428q0 124 82 203.5t204 79.5q19 0 30.5 -0.5t25.5 -1.5h651q124 0 205.5 -28t125.5 -98t44 -194v-401q0 -92 -33 -157.5t-99 -99.5t-159 -34l-690 2q-122 0 -206 23t-132.5 89.5t-48.5 188.5zM532 1335l13 97h334q58 0 92.5 -20.5t34.5 -76.5v-49q0 -50 -26 -79 t-75 -29h-41q-23 0 -30.5 -3t-10 -11t-2.5 -31v-23l-2 4h-176v62q0 45 19.5 64.5t62.5 19.5h55q25 0 35 6t10 30v23q0 21 -6.5 28t-27.5 7h-181q-50 0 -78 -19zM567 309q0 -45 11.5 -70.5t37 -37t70.5 -11.5h139q65 0 91 30t26 95v377q0 71 -31.5 99t-105.5 28h-119 q-119 0 -119 -112v-398z" />
<glyph unicode="&#x1ed0;" horiz-adv-x="1655" d="M82 391v584q0 90 15 160t61 120q52 55 124 83t150 28h791q94 0 160 -27.5t108.5 -79.5t62 -123.5t19.5 -160.5v-584q0 -90 -15.5 -160.5t-60.5 -119.5q-52 -55 -123.5 -83t-150.5 -28h-791q-180 0 -265 104t-85 287zM532 1446l93 246h-2h424l96 -246h-205l-100 172 l-93 -172h-213zM600 385q0 -62 8 -94.5t38 -49t89 -16.5h185q59 0 88.5 16.5t38 49t8.5 94.5v596q0 62 -8.5 94.5t-38 49t-88.5 16.5h-185q-59 0 -89 -16.5t-38 -49t-8 -94.5v-596zM1149 1610l100 248h246h2l-145 -248h-203z" />
<glyph unicode="&#x1ed1;" horiz-adv-x="1505" d="M70 301v428q0 124 82 203.5t204 79.5q19 0 30.5 -0.5t25.5 -1.5h651q124 0 205.5 -28t125.5 -98t44 -194v-401q0 -92 -33 -157.5t-99 -99.5t-159 -34l-690 2q-122 0 -206 23t-132.5 89.5t-48.5 188.5zM455 1085l92 246h-2h424l96 -246h-205l-100 172l-92 -172h-213z M567 309q0 -45 11.5 -70.5t37 -37t70.5 -11.5h139q65 0 91 30t26 95v377q0 71 -31.5 99t-105.5 28h-119q-119 0 -119 -112v-398zM1071 1249l100 248h246h2l-145 -248h-203z" />
<glyph unicode="&#x1ed2;" horiz-adv-x="1655" d="M82 391v584q0 90 15 160t61 120q52 55 124 83t150 28h791q94 0 160 -27.5t108.5 -79.5t62 -123.5t19.5 -160.5v-584q0 -90 -15.5 -160.5t-60.5 -119.5q-52 -55 -123.5 -83t-150.5 -28h-791q-180 0 -265 104t-85 287zM532 1446l93 246h-2h424l96 -246h-205l-100 172 l-93 -172h-213zM600 385q0 -62 8 -94.5t38 -49t89 -16.5h185q59 0 88.5 16.5t38 49t8.5 94.5v596q0 62 -8.5 94.5t-38 49t-88.5 16.5h-185q-59 0 -89 -16.5t-38 -49t-8 -94.5v-596zM1038 1909h246l100 -248h-202z" />
<glyph unicode="&#x1ed3;" horiz-adv-x="1505" d="M70 301v428q0 124 82 203.5t204 79.5q19 0 30.5 -0.5t25.5 -1.5h651q124 0 205.5 -28t125.5 -98t44 -194v-401q0 -92 -33 -157.5t-99 -99.5t-159 -34l-690 2q-122 0 -206 23t-132.5 89.5t-48.5 188.5zM455 1085l92 246h-2h424l96 -246h-205l-100 172l-92 -172h-213z M567 309q0 -45 11.5 -70.5t37 -37t70.5 -11.5h139q65 0 91 30t26 95v377q0 71 -31.5 99t-105.5 28h-119q-119 0 -119 -112v-398zM961 1548h245l101 -248h-203z" />
<glyph unicode="&#x1ed4;" horiz-adv-x="1655" d="M82 391v584q0 90 15 160t61 120q52 55 124 83t150 28h791q94 0 160 -27.5t108.5 -79.5t62 -123.5t19.5 -160.5v-584q0 -90 -15.5 -160.5t-60.5 -119.5q-52 -55 -123.5 -83t-150.5 -28h-791q-180 0 -265 104t-85 287zM532 1446l93 246h-2h424l96 -246h-205l-100 172 l-93 -172h-213zM600 385q0 -62 8 -94.5t38 -49t89 -16.5h185q59 0 88.5 16.5t38 49t8.5 94.5v596q0 62 -8.5 94.5t-38 49t-88.5 16.5h-185q-59 0 -89 -16.5t-38 -49t-8 -94.5v-596zM1024 1831l12 96h334q61 0 94 -20t33 -76v-49q0 -51 -25 -80t-75 -29h-41q-23 0 -30.5 -3 t-10 -11t-2.5 -31v-22l-2 4h-176v61q0 45 19.5 64.5t62.5 19.5h55q25 0 35 6t10 31v23q0 21 -7 27.5t-28 6.5h-180q-50 0 -78 -18z" />
<glyph unicode="&#x1ed5;" horiz-adv-x="1505" d="M70 301v428q0 124 82 203.5t204 79.5q19 0 30.5 -0.5t25.5 -1.5h651q124 0 205.5 -28t125.5 -98t44 -194v-401q0 -92 -33 -157.5t-99 -99.5t-159 -34l-690 2q-122 0 -206 23t-132.5 89.5t-48.5 188.5zM455 1085l92 246h-2h424l96 -246h-205l-100 172l-92 -172h-213z M567 309q0 -45 11.5 -70.5t37 -37t70.5 -11.5h139q65 0 91 30t26 95v377q0 71 -31.5 99t-105.5 28h-119q-119 0 -119 -112v-398zM946 1470l12 97h334q59 0 93 -20.5t34 -76.5v-49q0 -50 -25 -79t-75 -29h-41q-23 0 -30.5 -3t-10 -11t-2.5 -31v-23l-2 4h-176v62 q0 45 19.5 64.5t62.5 19.5h55q25 0 35 6t10 31v22q0 21 -7 28t-28 7h-180q-50 0 -78 -19z" />
<glyph unicode="&#x1ed6;" horiz-adv-x="1655" d="M82 391v584q0 90 15 160t61 120q52 55 124 83t150 28h791q94 0 160 -27.5t108.5 -79.5t62 -123.5t19.5 -160.5v-584q0 -90 -15.5 -160.5t-60.5 -119.5q-52 -55 -123.5 -83t-150.5 -28h-791q-180 0 -265 104t-85 287zM522 1788v117q0 133 113 133q33 0 74.5 -10.5 t103 -30.5t94 -27.5t68.5 -7.5q26 0 34.5 20t8.5 54h-2h186v-125q0 -122 -106 -127q-37 0 -69 7.5t-90.5 27.5t-101 30.5t-79.5 10.5q-49 0 -49 -72h-185zM532 1446l93 246h-2h424l96 -246h-205l-100 172l-93 -172h-213zM600 385q0 -62 8 -94.5t38 -49t89 -16.5h185 q59 0 88.5 16.5t38 49t8.5 94.5v596q0 62 -8.5 94.5t-38 49t-88.5 16.5h-185q-59 0 -89 -16.5t-38 -49t-8 -94.5v-596z" />
<glyph unicode="&#x1ed7;" horiz-adv-x="1505" d="M70 301v428q0 124 82 203.5t204 79.5q19 0 30.5 -0.5t25.5 -1.5h651q124 0 205.5 -28t125.5 -98t44 -194v-401q0 -92 -33 -157.5t-99 -99.5t-159 -34l-690 2q-122 0 -206 23t-132.5 89.5t-48.5 188.5zM444 1427v117q0 133 113 133q35 0 78.5 -11t94.5 -28t91 -26.5 t76 -9.5q43 0 43 73h-2h186v-125q0 -122 -106 -127q-37 0 -69 7.5t-89 27t-100.5 30.5t-81.5 11q-49 0 -49 -72h-185zM455 1085l92 246h-2h424l96 -246h-205l-100 172l-92 -172h-213zM567 309q0 -45 11.5 -70.5t37 -37t70.5 -11.5h139q65 0 91 30t26 95v377q0 71 -31.5 99 t-105.5 28h-119q-119 0 -119 -112v-398z" />
<glyph unicode="&#x1ed8;" horiz-adv-x="1655" d="M82 391v584q0 90 15 160t61 120q52 55 124 83t150 28h791q94 0 160 -27.5t108.5 -79.5t62 -123.5t19.5 -160.5v-584q0 -90 -15.5 -160.5t-60.5 -119.5q-52 -55 -123.5 -83t-150.5 -28h-791q-180 0 -265 104t-85 287zM532 1446l93 246h-2h424l96 -246h-205l-100 172 l-93 -172h-213zM600 385q0 -62 8 -94.5t38 -49t89 -16.5h185q59 0 88.5 16.5t38 49t8.5 94.5v596q0 62 -8.5 94.5t-38 49t-88.5 16.5h-185q-59 0 -89 -16.5t-38 -49t-8 -94.5v-596zM635 -123h371v-190h-371v190z" />
<glyph unicode="&#x1ed9;" horiz-adv-x="1505" d="M70 301v428q0 124 82 203.5t204 79.5q19 0 30.5 -0.5t25.5 -1.5h651q124 0 205.5 -28t125.5 -98t44 -194v-401q0 -92 -33 -157.5t-99 -99.5t-159 -34l-690 2q-122 0 -206 23t-132.5 89.5t-48.5 188.5zM455 1085l92 246h-2h424l96 -246h-205l-100 172l-92 -172h-213z M567 -115h371v-190h-371v190zM567 309q0 -45 11.5 -70.5t37 -37t70.5 -11.5h139q65 0 91 30t26 95v377q0 71 -31.5 99t-105.5 28h-119q-119 0 -119 -112v-398z" />
<glyph unicode="&#x1eda;" horiz-adv-x="1720" d="M82 391v584q0 90 15 160t61 120q52 55 124 83t150 28l-2 -2h791q122 0 199.5 -47t113 -113.5t35.5 -130.5l94 94l25 193h120l-47 -230l-188 -147v-592q0 -90 -15.5 -160.5t-60.5 -119.5q-52 -55 -123.5 -83t-150.5 -28h-791q-180 0 -265 104t-85 287zM598 383 q0 -62 8 -94.5t38 -49t89 -16.5h185q59 0 88.5 16.5t38 49t8.5 94.5v596q0 62 -8.5 94t-38 49t-88.5 17h-185q-59 0 -89 -17t-38 -49t-8 -94v-596zM702 1466l101 248h246h2l-146 -248h-203z" />
<glyph unicode="&#x1edb;" horiz-adv-x="1556" d="M70 301v428q0 124 82 203.5t204 79.5q19 0 30.5 -0.5t25.5 -1.5l-2 -2h651q131 0 215.5 -39t123 -95.5t38.5 -111.5l84 59l18 183h117l-47 -230l-172 -106v-379q0 -92 -33 -157.5t-99 -99.5t-159 -34l-690 2q-122 0 -206 23t-132.5 89.5t-48.5 188.5zM565 307 q0 -45 11.5 -70.5t37 -37t70.5 -11.5h139q65 0 91 30t26 95v377q0 71 -31.5 99t-105.5 28h-119q-119 0 -119 -112v-398zM604 1112l101 248h245h2l-145 -248h-203z" />
<glyph unicode="&#x1edc;" horiz-adv-x="1720" d="M82 391v584q0 90 15 160t61 120q52 55 124 83t150 28l-2 -2h791q122 0 199.5 -47t113 -113.5t35.5 -130.5l94 94l25 193h120l-47 -230l-188 -147v-592q0 -90 -15.5 -160.5t-60.5 -119.5q-52 -55 -123.5 -83t-150.5 -28h-791q-180 0 -265 104t-85 287zM598 383 q0 -62 8 -94.5t38 -49t89 -16.5h185q59 0 88.5 16.5t38 49t8.5 94.5v596q0 62 -8.5 94t-38 49t-88.5 17h-185q-59 0 -89 -17t-38 -49t-8 -94v-596zM674 1714h246l100 -248h-203z" />
<glyph unicode="&#x1edd;" horiz-adv-x="1556" d="M70 301v428q0 124 82 203.5t204 79.5q19 0 30.5 -0.5t25.5 -1.5l-2 -2h651q131 0 215.5 -39t123 -95.5t38.5 -111.5l84 59l18 183h117l-47 -230l-172 -106v-379q0 -92 -33 -157.5t-99 -99.5t-159 -34l-690 2q-122 0 -206 23t-132.5 89.5t-48.5 188.5zM545 1360h246 l100 -248h-203zM565 307q0 -45 11.5 -70.5t37 -37t70.5 -11.5h139q65 0 91 30t26 95v377q0 71 -31.5 99t-105.5 28h-119q-119 0 -119 -112v-398z" />
<glyph unicode="&#x1ede;" horiz-adv-x="1720" d="M82 391v584q0 90 15 160t61 120q52 55 124 83t150 28l-2 -2h791q122 0 199.5 -47t113 -113.5t35.5 -130.5l94 94l25 193h120l-47 -230l-188 -147v-592q0 -90 -15.5 -160.5t-60.5 -119.5q-52 -55 -123.5 -83t-150.5 -28h-791q-180 0 -265 104t-85 287zM598 383 q0 -62 8 -94.5t38 -49t89 -16.5h185q59 0 88.5 16.5t38 49t8.5 94.5v596q0 62 -8.5 94t-38 49t-88.5 17h-185q-59 0 -89 -17t-38 -49t-8 -94v-596zM629 1688l12 96h334q58 0 92.5 -19.5t34.5 -76.5v-50q0 -50 -26 -79t-75 -29h-40q-23 0 -30.5 -3t-10 -11t-2.5 -31v-23l-3 4 h-176v62q0 45 19.5 64.5t62.5 19.5h56q24 0 34.5 6.5t10.5 30.5v22q0 20 -7 27.5t-28 7.5h-180q-51 0 -78 -18z" />
<glyph unicode="&#x1edf;" horiz-adv-x="1556" d="M70 301v428q0 124 82 203.5t204 79.5q19 0 30.5 -0.5t25.5 -1.5l-2 -2h651q131 0 215.5 -39t123 -95.5t38.5 -111.5l84 59l18 183h117l-47 -230l-172 -106v-379q0 -92 -33 -157.5t-99 -99.5t-159 -34l-690 2q-122 0 -206 23t-132.5 89.5t-48.5 188.5zM530 1333l13 97h334 q58 0 92.5 -20.5t34.5 -76.5v-49q0 -50 -26 -79t-75 -29h-41q-20 0 -29 -3t-11.5 -11.5t-2.5 -31.5v-22l-2 4h-176v62q0 44 19.5 63.5t62.5 19.5h55q26 0 35.5 6.5t9.5 30.5v23q0 21 -7 28t-28 7h-180q-50 0 -78 -19zM565 307q0 -45 11.5 -70.5t37 -37t70.5 -11.5h139 q65 0 91 30t26 95v377q0 71 -31.5 99t-105.5 28h-119q-119 0 -119 -112v-398z" />
<glyph unicode="&#x1ee0;" horiz-adv-x="1720" d="M82 391v584q0 90 15 160t61 120q52 55 124 83t150 28l-2 -2h791q122 0 199.5 -47t113 -113.5t35.5 -130.5l94 94l25 193h120l-47 -230l-188 -147v-592q0 -90 -15.5 -160.5t-60.5 -119.5q-52 -55 -123.5 -83t-150.5 -28h-791q-180 0 -265 104t-85 287zM496 1470v117 q0 133 112 133q34 0 75.5 -10.5t95.5 -28t93.5 -27t75.5 -9.5q43 0 43 73h-2h187v-125q0 -54 -22 -89t-85 -38q-37 0 -69 7.5t-89 27t-100.5 30.5t-81.5 11q-49 0 -49 -72h-184zM598 383q0 -62 8 -94.5t38 -49t89 -16.5h185q59 0 88.5 16.5t38 49t8.5 94.5v596q0 62 -8.5 94 t-38 49t-88.5 17h-185q-59 0 -89 -17t-38 -49t-8 -94v-596z" />
<glyph unicode="&#x1ee1;" horiz-adv-x="1556" d="M70 301v428q0 124 82 203.5t204 79.5q19 0 30.5 -0.5t25.5 -1.5l-2 -2h651q131 0 215.5 -39t123 -95.5t38.5 -111.5l84 59l18 183h117l-47 -230l-172 -106v-379q0 -92 -33 -157.5t-99 -99.5t-159 -34l-690 2q-122 0 -206 23t-132.5 89.5t-48.5 188.5zM408 1116v117 q0 133 112 133q35 0 78.5 -11t102 -30.5t91 -27t68.5 -7.5q26 0 34.5 20t8.5 54h-2h186v-125q0 -122 -106 -127q-37 0 -69 7.5t-89 27t-100.5 30.5t-81.5 11q-49 0 -49 -72h-184zM565 307q0 -45 11.5 -70.5t37 -37t70.5 -11.5h139q65 0 91 30t26 95v377q0 71 -31.5 99 t-105.5 28h-119q-119 0 -119 -112v-398z" />
<glyph unicode="&#x1ee2;" horiz-adv-x="1720" d="M82 391v584q0 90 15 160t61 120q52 55 124 83t150 28l-2 -2h791q122 0 199.5 -47t113 -113.5t35.5 -130.5l94 94l25 193h120l-47 -230l-188 -147v-592q0 -90 -15.5 -160.5t-60.5 -119.5q-52 -55 -123.5 -83t-150.5 -28h-791q-180 0 -265 104t-85 287zM598 383 q0 -62 8 -94.5t38 -49t89 -16.5h185q59 0 88.5 16.5t38 49t8.5 94.5v596q0 62 -8.5 94t-38 49t-88.5 17h-185q-59 0 -89 -17t-38 -49t-8 -94v-596zM659 -104h371v-191h-371v191z" />
<glyph unicode="&#x1ee3;" horiz-adv-x="1556" d="M70 301v428q0 124 82 203.5t204 79.5q19 0 30.5 -0.5t25.5 -1.5l-2 -2h651q131 0 215.5 -39t123 -95.5t38.5 -111.5l84 59l18 183h117l-47 -230l-172 -106v-379q0 -92 -33 -157.5t-99 -99.5t-159 -34l-690 2q-122 0 -206 23t-132.5 89.5t-48.5 188.5zM551 -106h371v-191 h-371v191zM565 307q0 -45 11.5 -70.5t37 -37t70.5 -11.5h139q65 0 91 30t26 95v377q0 71 -31.5 99t-105.5 28h-119q-119 0 -119 -112v-398z" />
<glyph unicode="&#x1ee4;" horiz-adv-x="1741" d="M96 1366h633q-57 -82 -57 -203v-778q0 -62 8 -94.5t38 -49t89 -16.5h422q59 0 88 16.5t37 49t8 94.5v778q0 125 -57 203h340q-58 -83 -58 -203v-772q0 -94 -15.5 -158t-66.5 -122q-48 -56 -119 -83.5t-147 -27.5h-735q-175 0 -262.5 106t-87.5 285v772q0 120 -58 203z M727 -102h371v-191h-371v191z" />
<glyph unicode="&#x1ee5;" horiz-adv-x="1569" d="M70 1010h534v-684q0 -70 21 -103t88 -33h118q72 0 96.5 25t24.5 98v443q0 92 -8 164q-5 39 -33 90h535v-756q0 -111 6 -164q5 -38 35 -90h-467l-21 94q-24 -60 -66.5 -77t-117.5 -17h-381q-130 0 -199 35.5t-96.5 110.5t-27.5 204v406q0 110 -9 164q-6 46 -32 90z M578 -102h370v-191h-370v191z" />
<glyph unicode="&#x1ee6;" horiz-adv-x="1741" d="M96 1366h633q-57 -82 -57 -203v-778q0 -62 8 -94.5t38 -49t89 -16.5h422q59 0 88 16.5t37 49t8 94.5v778q0 125 -57 203h340q-58 -83 -58 -203v-772q0 -94 -15.5 -158t-66.5 -122q-48 -56 -119 -83.5t-147 -27.5h-735q-175 0 -262.5 106t-87.5 285v772q0 120 -58 203z M788 1700l13 96h334q60 0 93.5 -20t33.5 -76v-49q0 -51 -26 -80t-75 -29h-41q-23 0 -30.5 -3t-10 -11t-2.5 -31v-22l-2 4h-176v61q0 45 19.5 64.5t62.5 19.5h55q25 0 35 6t10 31v22q0 21 -6.5 28t-27.5 7h-181q-50 0 -78 -18z" />
<glyph unicode="&#x1ee7;" horiz-adv-x="1569" d="M70 1010h534v-684q0 -70 21 -103t88 -33h118q72 0 96.5 25t24.5 98v443q0 92 -8 164q-5 39 -33 90h535v-756q0 -111 6 -164q5 -38 35 -90h-467l-21 94q-24 -60 -66.5 -77t-117.5 -17h-381q-130 0 -199 35.5t-96.5 110.5t-27.5 204v406q0 110 -9 164q-6 46 -32 90z M567 1343l13 97h333q59 0 93 -20.5t34 -76.5v-49q0 -49 -25.5 -78.5t-74.5 -29.5h-41q-23 0 -30.5 -3t-10 -11t-2.5 -31v-23l-2 4h-176v62q0 45 19.5 64.5t62.5 19.5h55q25 0 35 6t10 31v22q0 21 -7 28t-28 7h-180q-50 0 -78 -19z" />
<glyph unicode="&#x1ee8;" horiz-adv-x="1741" d="M96 1366h633q-57 -82 -57 -203v-778q0 -62 8 -94.5t38 -49t89 -16.5h422q59 0 88 16.5t37 49t8 94.5v778q0 125 -57 203h282v-289l90 90l25 193h121l-47 -230l-189 -147v-592q0 -94 -15.5 -158t-66.5 -122q-48 -56 -119 -83.5t-147 -27.5h-735q-175 0 -262.5 106 t-87.5 285v772q0 120 -58 203zM903 1468l101 248h245h2l-145 -248h-203z" />
<glyph unicode="&#x1ee9;" horiz-adv-x="1569" d="M70 1008h534v-684q0 -70 21 -103t88 -33h118q72 0 96.5 25t24.5 98v443q0 92 -8 164q-5 39 -33 90h535v-242l84 59l18 183h117l-47 -230l-172 -106v-418q0 -111 6 -164q5 -38 35 -90h-467l-21 94q-24 -60 -66.5 -77t-117.5 -17h-381q-130 0 -199 35.5t-96.5 110.5 t-27.5 204v-2v406q0 110 -9 164q-6 46 -32 90zM641 1110l100 248h246h2l-145 -248h-203z" />
<glyph unicode="&#x1eea;" horiz-adv-x="1741" d="M96 1366h633q-57 -82 -57 -203v-778q0 -62 8 -94.5t38 -49t89 -16.5h422q59 0 88 16.5t37 49t8 94.5v778q0 125 -57 203h282v-289l90 90l25 193h121l-47 -230l-189 -147v-592q0 -94 -15.5 -158t-66.5 -122q-48 -56 -119 -83.5t-147 -27.5h-735q-175 0 -262.5 106 t-87.5 285v772q0 120 -58 203zM823 1716h246l100 -248h-202z" />
<glyph unicode="&#x1eeb;" horiz-adv-x="1569" d="M70 1008h534v-684q0 -70 21 -103t88 -33h118q72 0 96.5 25t24.5 98v443q0 92 -8 164q-5 39 -33 90h535v-242l84 59l18 183h117l-47 -230l-172 -106v-418q0 -111 6 -164q5 -38 35 -90h-467l-21 94q-24 -60 -66.5 -77t-117.5 -17h-381q-130 0 -199 35.5t-96.5 110.5 t-27.5 204v-2v406q0 110 -9 164q-6 46 -32 90zM571 1358h246l101 -248h-203z" />
<glyph unicode="&#x1eec;" horiz-adv-x="1741" d="M96 1366h633q-57 -82 -57 -203v-778q0 -62 8 -94.5t38 -49t89 -16.5h422q59 0 88 16.5t37 49t8 94.5v778q0 125 -57 203h282v-289l90 90l25 193h121l-47 -230l-189 -147v-592q0 -94 -15.5 -158t-66.5 -122q-48 -56 -119 -83.5t-147 -27.5h-735q-175 0 -262.5 106 t-87.5 285v772q0 120 -58 203zM788 1700l13 96h334q60 0 93.5 -20t33.5 -76v-49q0 -51 -26 -80t-75 -29h-41q-23 0 -30.5 -3t-10 -11t-2.5 -31v-22l-2 4h-176v61q0 45 19.5 64.5t62.5 19.5h55q25 0 35 6t10 31v22q0 21 -6.5 28t-27.5 7h-181q-50 0 -78 -18z" />
<glyph unicode="&#x1eed;" horiz-adv-x="1569" d="M70 1008h534v-684q0 -70 21 -103t88 -33h118q72 0 96.5 25t24.5 98v443q0 92 -8 164q-5 39 -33 90h535v-242l84 59l18 183h117l-47 -230l-172 -106v-418q0 -111 6 -164q5 -38 35 -90h-467l-21 94q-24 -60 -66.5 -77t-117.5 -17h-381q-130 0 -199 35.5t-96.5 110.5 t-27.5 204v-2v406q0 110 -9 164q-6 46 -32 90zM567 1341l13 97h333q59 0 93 -20.5t34 -76.5v-49q0 -49 -25.5 -78.5t-74.5 -29.5h-41q-23 0 -30.5 -3t-10 -11t-2.5 -31v-23l-2 4h-176v62q0 45 19.5 64.5t62.5 19.5h55q25 0 35 6t10 31v22q0 21 -7 28t-28 7h-180 q-50 0 -78 -19z" />
<glyph unicode="&#x1eee;" horiz-adv-x="1741" d="M96 1366h633q-57 -82 -57 -203v-778q0 -62 8 -94.5t38 -49t89 -16.5h422q59 0 88 16.5t37 49t8 94.5v778q0 125 -57 203h282v-289l90 90l25 193h121l-47 -230l-189 -147v-592q0 -94 -15.5 -158t-66.5 -122q-48 -56 -119 -83.5t-147 -27.5h-735q-175 0 -262.5 106 t-87.5 285v772q0 120 -58 203zM645 1462v117q0 133 113 133q33 0 74.5 -10.5t103 -30.5t94 -27.5t68.5 -7.5q26 0 34.5 20t8.5 54h-2h186v-125q0 -122 -106 -127q-37 0 -69 7.5t-90.5 27.5t-101 30.5t-79.5 10.5q-50 0 -50 -72h-184z" />
<glyph unicode="&#x1eef;" horiz-adv-x="1569" d="M70 1008h534v-684q0 -70 21 -103t88 -33h118q72 0 96.5 25t24.5 98v443q0 92 -8 164q-5 39 -33 90h535v-242l84 59l18 183h117l-47 -230l-172 -106v-418q0 -111 6 -164q5 -38 35 -90h-467l-21 94q-24 -60 -66.5 -77t-117.5 -17h-381q-130 0 -199 35.5t-96.5 110.5 t-27.5 204v-2v406q0 110 -9 164q-6 46 -32 90zM434 1114v117q0 133 113 133q33 0 74.5 -10.5t103 -30.5t94 -27.5t68.5 -7.5q26 0 34.5 20t8.5 54h-2h186v-125q0 -122 -106 -127q-37 0 -69 7.5t-90.5 27.5t-101 30.5t-79.5 10.5q-50 0 -50 -72h-184z" />
<glyph unicode="&#x1ef0;" horiz-adv-x="1741" d="M96 1366h633q-57 -82 -57 -203v-778q0 -62 8 -94.5t38 -49t89 -16.5h422q59 0 88 16.5t37 49t8 94.5v778q0 125 -57 203h282v-289l90 90l25 193h121l-47 -230l-189 -147v-592q0 -94 -15.5 -158t-66.5 -122q-48 -56 -119 -83.5t-147 -27.5h-735q-175 0 -262.5 106 t-87.5 285v772q0 120 -58 203zM727 -102h371v-191h-371v191z" />
<glyph unicode="&#x1ef1;" horiz-adv-x="1569" d="M70 1008h534v-684q0 -70 21 -103t88 -33h118q72 0 96.5 25t24.5 98v443q0 92 -8 164q-5 39 -33 90h535v-242l84 59l18 183h117l-47 -230l-172 -106v-418q0 -111 6 -164q5 -38 35 -90h-467l-21 94q-24 -60 -66.5 -77t-117.5 -17h-381q-130 0 -199 35.5t-96.5 110.5 t-27.5 204v-2v406q0 110 -9 164q-6 46 -32 90zM578 -104h370v-191h-370v191z" />
<glyph unicode="&#x1ef2;" horiz-adv-x="1561" d="M-29 1366h686q0 -89 72 -207l217 -350l225 362q50 79 50 152q0 29 -2 43h368q-31 -21 -55.5 -49.5t-46.5 -64.5t-43 -70l-408 -662v-317q0 -120 58 -203h-629q57 82 57 203v317l-397 629q-85 143 -152 217zM739 1716h246l100 -248h-202z" />
<glyph unicode="&#x1ef3;" horiz-adv-x="1530" d="M68 1010h536v-662q0 -57 9 -91t38.5 -50.5t85.5 -16.5h127q59 0 73.5 37.5t16.5 112.5v416q0 88 -6.5 144.5t-34.5 109.5h535l2 -1071q0 -114 -32 -181.5t-90.5 -98t-136 -38.5t-194.5 -8h-821l-39 244q51 -29 108.5 -37t133.5 -8h465q48 0 72 14.5t31 43t7 79.5v117 q-26 -41 -73 -53.5t-115 -12.5h-287q-206 0 -288 97t-82 309v350q0 110 -9 164q-5 41 -32 90zM553 1360h246l100 -248h-203z" />
<glyph unicode="&#x1ef4;" horiz-adv-x="1561" d="M-29 1366h686q0 -89 72 -207l217 -350l225 362q50 79 50 152q0 29 -2 43h368q-31 -21 -55.5 -49.5t-46.5 -64.5t-43 -70l-408 -662v-317q0 -120 58 -203h-629q57 82 57 203v317l-397 629q-85 143 -152 217zM592 -102h371v-191h-371v191z" />
<glyph unicode="&#x1ef5;" horiz-adv-x="1530" d="M68 1010h536v-662q0 -57 9 -91t38.5 -50.5t85.5 -16.5h127q59 0 73.5 37.5t16.5 112.5v416q0 88 -6.5 144.5t-34.5 109.5h535l2 -1071q0 -114 -32 -181.5t-90.5 -98t-136 -38.5t-194.5 -8h-821l-39 244q51 -29 108.5 -37t133.5 -8h465q48 0 72 14.5t31 43t7 79.5v117 q-26 -41 -73 -53.5t-115 -12.5h-287q-206 0 -288 97t-82 309v350q0 110 -9 164q-5 41 -32 90zM580 -500h370v-190h-370v190z" />
<glyph unicode="&#x1ef6;" horiz-adv-x="1561" d="M-29 1366h686q0 -89 72 -207l217 -350l225 362q50 79 50 152q0 29 -2 43h368q-31 -21 -55.5 -49.5t-46.5 -64.5t-43 -70l-408 -662v-317q0 -120 58 -203h-629q57 82 57 203v317l-397 629q-85 143 -152 217zM715 1700l12 96h334q60 0 93.5 -20t33.5 -76v-49q0 -51 -26 -80 t-75 -29h-40q-23 0 -30.5 -3t-10 -11t-2.5 -31v-22l-3 4h-176v61q0 45 19.5 64.5t62.5 19.5h56q24 0 34.5 6.5t10.5 30.5v22q0 20 -7 27.5t-28 7.5h-180q-51 0 -78 -18z" />
<glyph unicode="&#x1ef7;" horiz-adv-x="1530" d="M68 1010h536v-662q0 -57 9 -91t38.5 -50.5t85.5 -16.5h127q59 0 73.5 37.5t16.5 112.5v416q0 88 -6.5 144.5t-34.5 109.5h535l2 -1071q0 -114 -32 -181.5t-90.5 -98t-136 -38.5t-194.5 -8h-821l-39 244q51 -29 108.5 -37t133.5 -8h465q48 0 72 14.5t31 43t7 79.5v117 q-26 -41 -73 -53.5t-115 -12.5h-287q-206 0 -288 97t-82 309v350q0 110 -9 164q-5 41 -32 90zM549 1333l12 97h334q59 0 93 -20.5t34 -76.5v-49q0 -50 -25 -79t-75 -29h-41q-20 0 -29 -3t-11.5 -11.5t-2.5 -31.5v-22l-2 4h-177v62q0 44 19.5 63.5t62.5 19.5h56q24 0 34.5 7 t10.5 30v23q0 21 -7 28t-28 7h-180q-51 0 -78 -19z" />
<glyph unicode="&#x1ef8;" horiz-adv-x="1561" d="M-29 1366h686q0 -89 72 -207l217 -350l225 362q50 79 50 152q0 29 -2 43h368q-31 -21 -55.5 -49.5t-46.5 -64.5t-43 -70l-408 -662v-317q0 -120 58 -203h-629q57 82 57 203v317l-397 629q-85 143 -152 217zM602 1473v116q0 133 113 133q33 0 74.5 -10.5t95.5 -28t94 -27 t76 -9.5q43 0 43 73h-2h186v-125q0 -121 -106 -127q-37 0 -69 7.5t-90.5 27.5t-101 30.5t-79.5 10.5q-50 0 -50 -71h-184z" />
<glyph unicode="&#x1ef9;" horiz-adv-x="1530" d="M68 1010h536v-662q0 -57 9 -91t38.5 -50.5t85.5 -16.5h127q59 0 73.5 37.5t16.5 112.5v416q0 88 -6.5 144.5t-34.5 109.5h535l2 -1071q0 -114 -32 -181.5t-90.5 -98t-136 -38.5t-194.5 -8h-821l-39 244q51 -29 108.5 -37t133.5 -8h465q48 0 72 14.5t31 43t7 79.5v117 q-26 -41 -73 -53.5t-115 -12.5h-287q-206 0 -288 97t-82 309v350q0 110 -9 164q-5 41 -32 90zM416 1116v117q0 133 112 133q34 0 75.5 -10.5t103 -30.5t93.5 -27.5t68 -7.5q26 0 34.5 20t8.5 54h-2h187v-125q0 -54 -22 -89t-85 -38q-37 0 -69 7.5t-89 27t-100.5 30.5 t-81.5 11q-49 0 -49 -72h-184z" />
<glyph unicode="&#x2000;" horiz-adv-x="1048" />
<glyph unicode="&#x2001;" horiz-adv-x="2097" />
<glyph unicode="&#x2002;" horiz-adv-x="1048" />
<glyph unicode="&#x2003;" horiz-adv-x="2097" />
<glyph unicode="&#x2004;" horiz-adv-x="699" />
<glyph unicode="&#x2005;" horiz-adv-x="524" />
<glyph unicode="&#x2006;" horiz-adv-x="349" />
<glyph unicode="&#x2007;" horiz-adv-x="349" />
<glyph unicode="&#x2008;" horiz-adv-x="262" />
<glyph unicode="&#x2009;" horiz-adv-x="419" />
<glyph unicode="&#x200a;" horiz-adv-x="116" />
<glyph unicode="&#x2010;" horiz-adv-x="864" d="M70 428v256h727v-256h-727z" />
<glyph unicode="&#x2011;" horiz-adv-x="864" d="M70 428v256h727v-256h-727z" />
<glyph unicode="&#x2012;" horiz-adv-x="864" d="M70 428v256h727v-256h-727z" />
<glyph unicode="&#x2013;" horiz-adv-x="1464" d="M70 428v256h1327v-256h-1327z" />
<glyph unicode="&#x2014;" horiz-adv-x="2310" d="M-14 428v256h2338v-256h-2338z" />
<glyph unicode="&#x2018;" horiz-adv-x="811" d="M150 719v348l272 299h170l-141 -281h208v-366h-509z" />
<glyph unicode="&#x2019;" horiz-adv-x="811" d="M150 999v367h509v-348l-272 -299h-170l143 280h-210z" />
<glyph unicode="&#x201c;" horiz-adv-x="1405" d="M152 719v348l272 299h170l-141 -281h209v-366h-510zM743 719v348l275 299h170l-144 -281h211v-366h-512z" />
<glyph unicode="&#x201d;" horiz-adv-x="1405" d="M152 999v367h510v-348l-273 -299h-170l143 280h-210zM743 999v367h512v-348l-274 -299h-168l141 280h-211z" />
<glyph unicode="&#x2026;" horiz-adv-x="2441" d="M150 0v365h514v-365h-514zM963 0v365h514v-365h-514zM1778 0v365h514v-365h-514z" />
<glyph unicode="&#x202f;" horiz-adv-x="419" />
<glyph unicode="&#x205f;" horiz-adv-x="524" />
<glyph unicode="&#x25fc;" horiz-adv-x="1010" d="M0 0v1010h1010v-1010h-1010z" />
</font>
</defs>
</svg>
