<?xml version="1.0" standalone="no"?>
<!DOCTYPE svg PUBLIC "-//W3C//DTD SVG 1.1//EN" "http://www.w3.org/Graphics/SVG/1.1/DTD/svg11.dtd" >
<svg>
<metadata>
Created by FontForge 20110222 at Wed Nov 13 19:44:52 2013
 By Orthosie Webhosting
(c) Copyright 2001 by Tom Truong. All Rights Reserved
</metadata>
<defs>
<font id="UVNHongHaRegular" horiz-adv-x="1112" >
  <font-face 
    font-family="UVNHongHaRegular"
    font-weight="400"
    font-stretch="normal"
    units-per-em="2048"
    panose-1="2 11 5 4 2 2 2 2 2 4"
    ascent="1638"
    descent="-410"
    x-height="1071"
    cap-height="1473"
    bbox="-342 -483 2515 2260"
    underline-thickness="109"
    underline-position="-159"
    unicode-range="U+0020-F002"
  />
<missing-glyph horiz-adv-x="1024" 
d="M128 0v2250h768v-2250h-768zM256 128h512v1994h-512v-1994z" />
    <glyph glyph-name=".notdef" horiz-adv-x="1024" 
d="M128 0v2250h768v-2250h-768zM256 128h512v1994h-512v-1994z" />
    <glyph glyph-name=".null" horiz-adv-x="0" 
 />
    <glyph glyph-name="nonmarkingreturn" horiz-adv-x="561" 
 />
    <glyph glyph-name="space" unicode=" " horiz-adv-x="561" 
 />
    <glyph glyph-name="exclam" unicode="!" horiz-adv-x="657" 
d="M276 356l-49 637v480h201v-480l-47 -637h-105zM227 0v219h201v-219h-201z" />
    <glyph glyph-name="quotedbl" unicode="&#x22;" horiz-adv-x="614" 
d="M524 1436v-555h-139v555h139zM229 1436v-555h-139v555h139z" />
    <glyph glyph-name="numbersign" unicode="#" horiz-adv-x="1575" 
d="M969 858h-260l-93 -264h261zM924 1458l-162 -454h256l164 454h164l-160 -454h301l-51 -146h-303l-93 -262h322l-51 -147h-322l-162 -453h-165l161 453h-258l-162 -453h-165l159 453h-309l53 147h310l92 262h-330l51 146h332l162 454h166z" />
    <glyph glyph-name="dollar" unicode="$" horiz-adv-x="1124" 
d="M612 111q262 25 262 254q0 187 -262 249v-503zM508 819v449q-106 0 -171 -58q-67 -61 -67 -166q0 -186 238 -225zM508 -223v184q-445 34 -445 449v22h177v-16q0 -132 69 -211t199 -86v522q-416 68 -416 389q0 180 120 286q112 99 296 109v140h104v-140q408 -33 412 -381
h-178q-24 210 -234 222v-463q219 -48 316 -121q133 -101 133 -295t-131 -304q-116 -99 -318 -120v-186h-104z" />
    <glyph glyph-name="percent" unicode="%" horiz-adv-x="1731" 
d="M1098 356q0 -88 59 -147t146 -59q85 0 144.5 60.5t59.5 145.5q0 86 -59 145.5t-145 59.5q-87 0 -146 -59t-59 -146zM948 356q0 150 102.5 252.5t252.5 102.5q148 0 252 -104t104 -251q0 -148 -104 -252t-252 -104q-150 0 -252.5 103t-102.5 253zM221 1036
q0 -88 58.5 -146.5t146.5 -58.5q86 0 145.5 59.5t59.5 145.5t-59.5 145.5t-145.5 59.5q-87 0 -146 -59t-59 -146zM72 1036q0 150 102 252.5t252 102.5q148 0 251 -103.5t103 -251.5t-103 -252t-251 -104q-150 0 -252 103t-102 253zM365 -41l876 1473h125l-877 -1473h-124z
" />
    <glyph glyph-name="ampersand" unicode="&#x26;" horiz-adv-x="1399" 
d="M623 913q204 126 204 279q0 79 -48.5 126.5t-127.5 47.5q-186 0 -186 -176q0 -117 158 -277zM553 727q-254 -146 -254 -324q0 -118 78 -192t196 -74q178 0 328 170zM455 848q-164 176 -164 336q0 149 103 241q98 88 249 88q155 0 250 -78q102 -84 102 -235
q0 -229 -276 -389l276 -336q50 89 60 244h173q-2 -213 -112 -387l275 -332h-246l-144 178q-179 -213 -452 -213q-192 0 -316 117.5t-124 308.5q0 156 104 276q79 90 242 181z" />
    <glyph glyph-name="quotesingle" unicode="'" horiz-adv-x="317" 
d="M229 1436v-555h-139v555h139z" />
    <glyph glyph-name="parenleft" unicode="(" horiz-adv-x="688" 
d="M535 -424q-334 447 -334 954q0 508 334 955h129q-281 -479 -281 -955q0 -475 281 -954h-129z" />
    <glyph glyph-name="parenright" unicode=")" horiz-adv-x="688" 
d="M154 -424h-129q280 481 280 954q0 474 -280 955h129q331 -447 331 -955q0 -507 -331 -954z" />
    <glyph glyph-name="asterisk" unicode="*" horiz-adv-x="1024" 
d="M510 950l-174 -252l-139 93l196 245l-284 78l51 158l274 -94v295h154v-295l272 94l55 -158l-288 -78l198 -243l-137 -101z" />
    <glyph glyph-name="plus" unicode="+" horiz-adv-x="1706" 
d="M924 1221v-541h528v-139h-528v-541h-142v541h-528v139h528v541h142z" />
    <glyph glyph-name="comma" unicode="," horiz-adv-x="561" 
d="M178 0v221h205v-239q0 -235 -205 -285v102q101 21 101 170v31h-101z" />
    <glyph glyph-name="hyphen" unicode="-" horiz-adv-x="639" 
d="M72 461v162h495v-162h-495z" />
    <glyph glyph-name="hyphen" unicode="&#x2010;" horiz-adv-x="639" 
d="M72 461v162h495v-162h-495z" />
    <glyph glyph-name="period" unicode="." horiz-adv-x="561" 
d="M178 0v223h205v-223h-205z" />
    <glyph glyph-name="slash" unicode="/" horiz-adv-x="616" 
d="M-2 -190l494 1701h126l-497 -1701h-123z" />
    <glyph glyph-name="zero" unicode="0" horiz-adv-x="1124" 
d="M266 694q0 -235 41 -360q68 -207 254 -207q187 0 254 207q41 123 41 360q0 238 -41 362q-67 208 -254 208q-186 0 -254 -209q-41 -125 -41 -361zM70 694q0 738 491 738q494 0 494 -738q0 -735 -494 -735q-491 0 -491 735z" />
    <glyph glyph-name="one" unicode="1" horiz-adv-x="1124" 
d="M524 0v1012h-331v145q347 4 378 275h140v-1432h-187z" />
    <glyph glyph-name="two" unicode="2" horiz-adv-x="1124" 
d="M63 0v12q0 225 125 380q100 124 326 247l121 66q209 114 209 305q0 120 -83 188q-77 64 -200 64q-140 0 -214 -98q-66 -88 -66 -232v-17h-187v25q0 225 124 357q128 135 351 135q203 0 332 -109q137 -116 137 -315q0 -148 -75 -257q-78 -114 -232 -192l-121 -61
q-157 -79 -240 -159q-77 -74 -102 -163h770v-176h-975z" />
    <glyph glyph-name="three" unicode="3" horiz-adv-x="1124" 
d="M47 446h186q8 -315 306 -315q137 0 217 71q84 75 84 210q0 128 -89 194q-79 58 -212 58q-68 0 -96 -4l-7 -1l1 162q26 -2 61 -2q138 0 205 41q85 52 85 180q0 224 -251 224q-275 0 -275 -303h-182v10q0 209 119.5 335t326.5 126q202 0 323 -88q136 -100 136 -295
q0 -210 -178 -287q231 -85 231 -350q0 -217 -150 -340q-139 -113 -362 -113q-219 0 -349 129t-130 348v10z" />
    <glyph glyph-name="four" unicode="4" horiz-adv-x="1124" 
d="M223 516h451v637zM674 0v352h-623v180l621 859h186v-875h203v-164h-203v-352h-184z" />
    <glyph glyph-name="five" unicode="5" horiz-adv-x="1124" 
d="M55 371h189q17 -113 93 -174.5t191 -61.5q143 0 230.5 86.5t87.5 229.5q0 146 -85 231.5t-231 85.5q-167 0 -270 -131h-164l113 754h758v-168h-623l-57 -383q108 92 274 92q217 0 349 -126q134 -129 134 -345q0 -227 -140 -364.5t-367 -137.5q-197 0 -328 107
q-136 112 -154 305z" />
    <glyph glyph-name="six" unicode="6" horiz-adv-x="1124" 
d="M866 434q0 133 -71 217q-76 88 -207 88q-141 0 -220 -82.5t-79 -224.5q0 -140 76 -224q79 -87 217 -87q133 0 211 91q73 86 73 222zM1053 1038h-189q-20 228 -256 228q-308 0 -336 -516q124 157 338 157q208 0 333 -132q122 -130 122 -339q0 -215 -133.5 -346
t-349.5 -131q-274 0 -406 208q-108 172 -108 464q0 326 106 532q137 269 432 269q197 0 313 -98q121 -102 134 -296z" />
    <glyph glyph-name="seven" unicode="7" horiz-adv-x="1124" 
d="M222 611v162h314q130 224 324 431h-778v187h975v-170q-194 -210 -324 -448h48v-162h-128q-126 -286 -168 -611h-209q43 325 176 611h-230z" />
    <glyph glyph-name="eight" unicode="8" horiz-adv-x="1124" 
d="M270 412q0 -133 80 -208q77 -73 211 -73t213.5 74t79.5 207q0 127 -85 197q-78 65 -208 65t-208 -65q-83 -69 -83 -197zM313 1049q0 -106 72 -168q68 -58 176 -58t176 58q72 62 72 168q0 108 -71 166q-66 53 -177 53t-177 -53q-71 -58 -71 -166zM309 766
q-188 85 -188 299q0 177 135 277q122 90 305 90q184 0 306 -90q137 -100 137 -277q0 -213 -189 -299q238 -93 238 -358q0 -213 -141 -335q-134 -114 -351 -114t-349 115q-140 120 -140 334q0 265 237 358z" />
    <glyph glyph-name="nine" unicode="9" horiz-adv-x="1124" 
d="M258 956q0 -133 71 -216q75 -87 206 -87q141 0 220 82t79 223q0 139 -75 224q-79 88 -216 88q-134 0 -212 -91q-73 -86 -73 -223zM72 352h188q3 -110 75 -171q68 -56 181 -56q308 0 336 516q-123 -158 -340 -158q-207 0 -332 133q-121 129 -121 338q0 216 132.5 347
t349.5 131q275 0 407 -207q109 -173 109 -465q0 -330 -106 -535q-138 -266 -437 -266q-194 0 -313 98q-128 106 -129 295z" />
    <glyph glyph-name="colon" unicode=":" horiz-adv-x="608" 
d="M201 850v221h207v-221h-207zM201 0v223h207v-223h-207z" />
    <glyph glyph-name="semicolon" unicode=";" horiz-adv-x="608" 
d="M201 850v221h207v-221h-207zM201 0v221h207v-239q0 -233 -207 -285v102q102 21 102 170v31h-102z" />
    <glyph glyph-name="less" unicode="&#x3c;" horiz-adv-x="1706" 
d="M1442 1006l-969 -396l969 -393v-154l-1178 484v129l1178 483v-153z" />
    <glyph glyph-name="equal" unicode="=" horiz-adv-x="1706" 
d="M1452 481v-139h-1198v139h1198zM1452 879v-140h-1198v140h1198z" />
    <glyph glyph-name="greater" unicode="&#x3e;" horiz-adv-x="1706" 
d="M1442 676v-129l-1178 -484v154l971 393l-971 396v153z" />
    <glyph glyph-name="question" unicode="?" horiz-adv-x="1075" 
d="M414 395q0 7 -1 21.5t-1 21.5q0 206 159 365l78 78q113 113 113 245q0 104 -66.5 164t-171.5 60q-261 0 -273 -324h-177v27q0 218 120 338t338 120q185 0 300 -99q122 -104 122 -286q0 -187 -149 -329l-84 -80q-71 -68 -98 -120q-31 -61 -31 -151q0 -34 2 -50zM408 0v219
h200v-219h-200z" />
    <glyph glyph-name="at" unicode="@" horiz-adv-x="2048" 
d="M1284 854l57 115h132l-146 -576q-8 -32 -8 -59q0 -94 100 -94q101 0 209 102q170 161 170 420q0 279 -211 438q-191 143 -479 143q-265 0 -457 -114t-296.5 -299.5t-104.5 -409.5q0 -344 254 -538q210 -160 524 -160q346 0 621 190l55 -82q-297 -223 -664 -223
q-383 0 -628 187q-306 234 -306 628q0 334 203 582q297 362 807 362q340 0 563 -172q265 -204 265 -514q0 -354 -248 -551q-141 -112 -316 -112q-200 0 -200 157v19q-108 -174 -301 -174q-314 0 -314 332q0 221 126 380q136 173 351 173q170 0 242 -150zM1190 475l59 236
q-36 184 -198 184q-156 0 -248 -153q-78 -130 -78 -296q0 -219 186 -219q103 0 181 75q72 68 98 173z" />
    <glyph glyph-name="A" unicode="A" horiz-adv-x="1305" 
d="M420 612h459l-228 650zM-6 0l547 1473h221l549 -1473h-217l-156 440h-580l-157 -440h-207z" />
    <glyph glyph-name="B" unicode="B" horiz-adv-x="1356" 
d="M158 0v1473h594q458 0 458 -359q0 -233 -211 -319q136 -26 210 -122q71 -93 71 -233q0 -213 -145 -331q-134 -109 -353 -109h-624zM358 854h351q301 0 301 231q0 220 -285 220h-367v-451zM358 178h406q311 0 311 264q0 248 -334 248h-383v-512z" />
    <glyph glyph-name="C" unicode="C" horiz-adv-x="1460" 
d="M1188 547h194q-13 -270 -183 -429t-441 -159q-335 0 -509 239q-155 212 -155 560q0 333 173 537q184 216 511 216q241 0 399 -120q169 -128 195 -361h-196q-58 303 -406 303q-246 0 -368 -184q-103 -157 -103 -416q0 -245 109 -408q127 -188 360 -188q183 0 297.5 113
t122.5 297z" />
    <glyph glyph-name="D" unicode="D" horiz-adv-x="1448" 
d="M702 1303h-344v-1123h344q447 0 447 568q0 247 -98 389q-114 166 -349 166zM158 0v1473h561q323 0 486 -200q149 -184 149 -515q0 -336 -150 -535q-168 -223 -493 -223h-553z" />
    <glyph glyph-name="E" unicode="E" horiz-adv-x="1309" 
d="M158 0v1473h1050v-183h-852v-440h787v-172h-787v-494h869v-184h-1067z" />
    <glyph glyph-name="F" unicode="F" horiz-adv-x="1194" 
d="M158 0v1473h989v-185h-789v-442h689v-180h-689v-666h-200z" />
    <glyph glyph-name="G" unicode="G" horiz-adv-x="1565" 
d="M1260 197q-180 -238 -496 -238q-318 0 -502 233q-168 214 -168 541q0 348 180 557q191 221 533 221q244 0 402 -120q167 -127 200 -363h-195q-28 154 -140 235q-105 76 -267 76q-257 0 -389 -175q-117 -156 -117 -423q0 -260 113 -419q130 -181 379 -181q212 0 334 128
t122 341v19h-461v166h646v-795h-131z" />
    <glyph glyph-name="H" unicode="H" horiz-adv-x="1481" 
d="M158 0v1473h200v-605h764v605h201v-1473h-201v690h-764v-690h-200z" />
    <glyph glyph-name="I" unicode="I" horiz-adv-x="526" 
d="M162 0v1473h200v-1473h-200z" />
    <glyph glyph-name="J" unicode="J" horiz-adv-x="1034" 
d="M39 477h192q-2 -22 -2 -61q0 -136 47 -201q55 -76 185 -76q150 0 205 111q24 48 24 239v984h201v-1065q0 -447 -426 -447q-428 0 -428 453q0 41 2 63z" />
    <glyph glyph-name="K" unicode="K" horiz-adv-x="1307" 
d="M158 0v1473h198v-711l709 711h266l-602 -590l619 -883h-248l-516 739l-228 -223v-516h-198z" />
    <glyph glyph-name="L" unicode="L" horiz-adv-x="1096" 
d="M158 0v1473h202v-1287h734v-186h-936z" />
    <glyph glyph-name="M" unicode="M" horiz-adv-x="1700" 
d="M342 1255v-1255h-184v1473h286l365 -1127q13 -40 35 -121q14 64 33 121l378 1127h287v-1473h-194v1255q-16 -71 -35 -129l-379 -1126h-189l-370 1126q-20 62 -33 129z" />
    <glyph glyph-name="N" unicode="N" horiz-adv-x="1477" 
d="M156 0v1473h219l688 -1070q50 -77 67 -124v1194h191v-1473h-217l-703 1085q-30 46 -55 109v-1194h-190z" />
    <glyph glyph-name="O" unicode="O" horiz-adv-x="1583" 
d="M301 735q0 -261 113 -420q129 -182 379 -182q249 0 377 183q112 159 112 419q0 261 -111 420q-128 182 -378 182t-379 -182q-113 -159 -113 -420zM94 735q0 350 172 556q184 220 527 220t526 -221q170 -205 170 -555t-171 -555q-183 -221 -525 -221q-343 0 -527 220
q-172 206 -172 556z" />
    <glyph glyph-name="P" unicode="P" horiz-adv-x="1290" 
d="M358 799h336q159 0 228 44q86 56 86 204q0 141 -82 197q-69 48 -217 48h-351v-493zM158 0v1473h542q222 0 324 -56q186 -102 186 -370q0 -253 -188 -367q-97 -59 -360 -59h-304v-621h-200z" />
    <glyph glyph-name="Q" unicode="Q" horiz-adv-x="1583" 
d="M1008 180l-162 135l98 125l197 -161q141 153 141 456q0 261 -111 420q-128 182 -378 182t-379 -182q-113 -159 -113 -420t113 -420q129 -182 379 -182q121 0 215 47zM1169 53q-172 -94 -376 -94q-343 0 -527 220q-172 206 -172 556t172 556q184 220 527 220
q340 0 525 -222q171 -206 171 -554q0 -353 -191 -579l177 -148l-99 -125z" />
    <glyph glyph-name="R" unicode="R" horiz-adv-x="1360" 
d="M354 1300v-499h342q166 0 242 47q96 59 96 213q0 149 -100 202q-71 37 -238 37h-342zM158 1473h571q227 0 322 -52q190 -104 190 -356q0 -240 -203 -336q97 -27 134 -102q26 -53 34 -172l17 -243q4 -64 13 -95q16 -57 54 -76v-41h-231q-39 64 -39 197v6l-12 192
q-10 164 -88 207q-53 29 -240 29h-324v-631h-198v1473z" />
    <glyph glyph-name="S" unicode="S" horiz-adv-x="1323" 
d="M90 485h193q3 -166 111 -260q104 -90 272 -90q150 0 248 58q120 70 120 210q0 169 -370 257l-34 8q-244 58 -336 115q-157 98 -157 292q0 213 162 331q144 105 365 105q234 0 374 -116q150 -125 152 -354l-191 -1q-21 306 -348 306q-129 0 -217 -52q-106 -64 -106 -184
q0 -171 364 -255q32 -8 83 -20l21 -5q238 -57 316 -123q121 -102 121 -281q0 -231 -173 -355q-152 -110 -392 -110q-262 0 -412 130q-155 135 -166 394z" />
    <glyph glyph-name="T" unicode="T" horiz-adv-x="1169" 
d="M483 0v1294h-465v179h1131v-179h-465v-1294h-201z" />
    <glyph glyph-name="U" unicode="U" horiz-adv-x="1452" 
d="M150 559v914h200v-916q0 -405 375 -405q377 0 377 405v916h201v-914q0 -600 -601 -600q-552 0 -552 600z" />
    <glyph glyph-name="V" unicode="V" horiz-adv-x="1251" 
d="M524 0l-524 1473h207l424 -1233l411 1233h209l-518 -1473h-209z" />
    <glyph glyph-name="W" unicode="W" horiz-adv-x="1851" 
d="M393 0l-383 1473h195l301 -1178l311 1178h209l322 -1170l305 1170h190l-391 -1473h-197l-335 1214l-322 -1214h-205z" />
    <glyph glyph-name="X" unicode="X" horiz-adv-x="1239" 
d="M0 0l506 754l-479 719h245l351 -545l356 545h233l-479 -715l506 -758h-246l-379 596l-370 -596h-244z" />
    <glyph glyph-name="Y" unicode="Y" horiz-adv-x="1235" 
d="M729 0h-201v590l-546 883h251l394 -697l391 697h235l-524 -869v-604z" />
    <glyph glyph-name="Z" unicode="Z" horiz-adv-x="1225" 
d="M57 0v166l901 1132h-841v175h1073v-185l-883 -1108h883v-180h-1133z" />
    <glyph glyph-name="bracketleft" unicode="[" horiz-adv-x="725" 
d="M248 -410v1883h399v-140h-219v-1603h219v-140h-399z" />
    <glyph glyph-name="backslash" unicode="\" horiz-adv-x="616" 
d="M492 -190l-494 1701h123l497 -1701h-126z" />
    <glyph glyph-name="bracketright" unicode="]" horiz-adv-x="725" 
d="M477 1473v-1883h-399v140h219v1603h-219v140h399z" />
    <glyph glyph-name="asciicircum" unicode="^" horiz-adv-x="2048" 
d="M1116 1458l510 -557h-180l-422 420l-424 -420h-180l510 557h186z" />
    <glyph glyph-name="underscore" unicode="_" horiz-adv-x="1024" 
d="M1024 -340v-143h-1024v143h1024z" />
    <glyph glyph-name="grave" unicode="`" horiz-adv-x="1024" 
d="M655 1217h-120l-285 348h201z" />
    <glyph glyph-name="a" unicode="a" 
d="M799 143q-168 -176 -379 -176q-159 0 -251 81q-97 85 -97 241q0 290 366 336q28 4 126.5 14t111.5 13q82 15 98 46q10 19 10 84q0 164 -241 164q-252 0 -252 -198h-170v8q0 176 130 269q114 81 298 81q418 0 418 -332v-536q0 -57 8 -76q14 -33 61 -33q15 0 47 6v-139
q-59 -16 -104 -16q-180 0 -180 157v6zM782 545q-72 -39 -247 -61q-59 -7 -93 -13q-184 -30 -184 -180q0 -166 193 -166q131 0 224 63q107 72 107 197v160z" />
    <glyph glyph-name="b" unicode="b" horiz-adv-x="1217" 
d="M311 543q0 -179 67 -286q81 -130 249 -130q161 0 245 120q74 105 74 273q0 181 -67 290q-81 134 -250 134q-318 0 -318 -401zM141 0v1473h176v-551q125 184 347 184q231 0 359 -177q112 -156 112 -397q0 -239 -112 -393q-126 -172 -357 -172q-218 0 -349 168v-135h-176z
" />
    <glyph glyph-name="c" unicode="c" horiz-adv-x="1075" 
d="M848 715q-17 229 -275 229q-162 0 -241 -127q-64 -104 -64 -278q0 -171 60 -276q75 -132 233 -132q258 0 295 254h172q-14 -203 -144 -312q-125 -106 -331 -106q-236 0 -360 170q-111 150 -111 395q0 252 117 405q130 169 374 169q193 0 315 -98q130 -104 138 -293h-178z
" />
    <glyph glyph-name="d" unicode="d" horiz-adv-x="1217" 
d="M905 543q0 401 -319 401q-169 0 -251 -134q-67 -109 -67 -290q0 -168 74 -273q85 -120 246 -120q168 0 249 130q68 108 68 286zM1073 1473v-1473h-174v135q-138 -168 -348 -168q-231 0 -357 172q-112 154 -112 393q0 241 111 397q126 177 358 177q222 0 348 -166v533h174
z" />
    <glyph glyph-name="e" unicode="e" horiz-adv-x="1120" 
d="M274 633h588q-2 313 -289 313q-272 0 -299 -313zM858 346h178q-30 -181 -158 -283q-125 -98 -311 -98q-237 0 -365 165q-116 150 -116 394q0 253 111 407q127 175 370 175q242 0 368 -154q116 -141 116 -389q0 -57 -3 -80h-773q3 -159 75 -251q81 -103 234 -103
q230 0 274 217z" />
    <glyph glyph-name="f" unicode="f" horiz-adv-x="541" 
d="M176 0v928h-176v143h176v158q0 266 242 266q35 0 133 -14v-162q-58 10 -80 10q-72 0 -97 -51q-16 -34 -16 -117v-90h193v-143h-193v-928h-182z" />
    <glyph glyph-name="g" unicode="g" horiz-adv-x="1219" 
d="M590 944q-167 0 -248 -126q-68 -105 -68 -283q0 -174 70 -281q83 -127 248 -127q321 0 321 401q0 416 -323 416zM907 131q-126 -166 -340 -166q-233 0 -364 175q-117 158 -117 399q0 240 119 396q131 171 364 171q204 0 336 -170v135h176v-1048q0 -253 -124 -364
q-118 -105 -375 -105q-183 0 -302 64q-151 81 -151 249v8h176v-4q0 -166 283 -166q161 0 235 58q84 65 84 221v147z" />
    <glyph glyph-name="h" unicode="h" horiz-adv-x="1165" 
d="M850 0v659q0 142 -37 202q-48 77 -178 77q-144 0 -231 -81t-87 -224v-633h-180v1473h180v-553q100 178 336 178q241 0 332 -146q47 -75 47 -258v-694h-182z" />
    <glyph glyph-name="i" unicode="i" horiz-adv-x="455" 
d="M137 1268v205h180v-205h-180zM137 0v1071h180v-1071h-180z" />
    <glyph glyph-name="j" unicode="j" horiz-adv-x="471" 
d="M150 1264v209h180v-209h-180zM-25 -444l1 165q24 -2 59 -2q76 0 99 34q16 26 16 110v1208h180v-1233q0 -153 -59 -219q-63 -69 -214 -68q-19 1 -70 4q-5 0 -12 1z" />
    <glyph glyph-name="k" unicode="k" horiz-adv-x="1059" 
d="M137 0v1473h180v-883l484 481h227l-401 -391l395 -680h-203l-313 555l-189 -182v-373h-180z" />
    <glyph glyph-name="l" unicode="l" horiz-adv-x="463" 
d="M139 0v1473h183v-1473h-183z" />
    <glyph glyph-name="m" unicode="m" horiz-adv-x="1757" 
d="M1442 0v659q0 140 -30 198q-43 83 -167 83q-136 0 -208 -87q-66 -81 -66 -220v-633h-183v659q0 139 -30 198q-43 83 -166 83q-135 0 -208 -88q-67 -81 -67 -219v-633h-180v1071h172v-151q119 178 334 178q195 0 293 -168q135 168 344 168q289 0 332 -244q10 -57 10 -180
v-674h-180z" />
    <glyph glyph-name="n" unicode="n" horiz-adv-x="1165" 
d="M850 0v659q0 141 -37 201q-48 78 -178 78q-154 0 -236 -86.5t-82 -241.5v-610h-180v1071h172v-156q122 183 344 183q241 0 332 -146q47 -75 47 -258v-694h-182z" />
    <glyph glyph-name="o" unicode="o" horiz-adv-x="1190" 
d="M266 537q0 -410 330 -410q326 0 326 410q0 409 -326 409q-330 0 -330 -409zM82 537q0 259 125 408q134 161 387 161q254 0 389 -160q125 -149 125 -409q0 -259 -124 -409q-134 -161 -388 -161q-255 0 -389 160q-125 150 -125 410z" />
    <glyph glyph-name="p" unicode="p" horiz-adv-x="1217" 
d="M311 528q0 -401 318 -401q169 0 250 134q67 109 67 290q0 168 -74 273q-84 120 -245 120q-168 0 -249 -130q-67 -107 -67 -286zM141 -428v1499h176v-151q130 186 349 186q231 0 357 -173q112 -154 112 -394q0 -241 -113 -396q-126 -176 -358 -176q-223 0 -347 164v-559
h-176z" />
    <glyph glyph-name="q" unicode="q" horiz-adv-x="1217" 
d="M268 551q0 -184 70 -294q85 -132 258 -132q165 0 244 130q65 106 65 282q0 174 -69 280q-82 127 -246 127q-162 0 -247 -120q-75 -105 -75 -273zM899 141q-106 -174 -348 -174q-232 0 -358 176q-111 155 -111 396q0 240 112 394q126 173 357 173q223 0 348 -180v145h174
v-1499h-174v569z" />
    <glyph glyph-name="r" unicode="r" horiz-adv-x="680" 
d="M137 0v1071h174v-192q86 215 297 215q33 0 47 -3v-190q-14 2 -43 2q-295 0 -295 -307v-596h-180z" />
    <glyph glyph-name="s" unicode="s" horiz-adv-x="1016" 
d="M63 348h173q20 -221 273 -221q99 0 166 35q84 45 84 135q0 59 -33 91q-31 28 -131 54l-201 52q-174 45 -236 109q-67 67 -67 192q0 158 127 240q108 69 275 69q173 0 286 -76q131 -87 131 -252v-4h-175q-13 178 -242 178q-222 0 -222 -149q0 -62 56 -95q32 -19 112 -38
l174 -41q162 -38 231 -91q95 -74 95 -217q0 -182 -137 -274q-117 -78 -309 -78q-424 0 -430 381z" />
    <glyph glyph-name="t" unicode="t" horiz-adv-x="575" 
d="M348 270q0 -65 16 -89q20 -31 80 -31q37 0 97 5v-153q-90 -16 -144 -16q-126 0 -177.5 49t-51.5 174v719h-160v143h160v299h180v-299h193v-143h-193v-658z" />
    <glyph glyph-name="u" unicode="u" horiz-adv-x="1165" 
d="M315 1071v-657q0 -141 38 -202q49 -79 179 -79q316 0 316 361v577h180v-1071h-172v160q-113 -187 -354 -187q-134 0 -227 55q-106 62 -131 183q-11 52 -11 166v694h182z" />
    <glyph glyph-name="v" unicode="v" horiz-adv-x="985" 
d="M397 0l-395 1071h193l299 -858l292 858h193l-391 -1071h-191z" />
    <glyph glyph-name="w" unicode="w" horiz-adv-x="1491" 
d="M334 0l-320 1071h187l227 -819l211 819h209l209 -819l235 819h185l-326 -1071h-182l-226 825l-227 -825h-182z" />
    <glyph glyph-name="x" unicode="x" horiz-adv-x="981" 
d="M0 0l373 551l-355 520h211l263 -385l258 385h208l-360 -518l383 -553h-217l-281 414l-272 -414h-211z" />
    <glyph glyph-name="y" unicode="y" horiz-adv-x="1038" 
d="M815 1071h201l-451 -1237q-56 -152 -107 -207q-72 -76 -210 -76q-50 0 -107 17v172q54 -16 105 -16q100 0 133 88l47 127l-406 1132h201l297 -866z" />
    <glyph glyph-name="z" unicode="z" horiz-adv-x="985" 
d="M915 1071v-145l-626 -764h655v-162h-893v147l633 766h-600v158h831z" />
    <glyph glyph-name="braceleft" unicode="{" horiz-adv-x="1024" 
d="M866 1327h-41q-126 0 -167 -52q-35 -46 -35 -177v-242q0 -143 -34 -209q-44 -84 -167 -117q124 -31 168 -116q33 -65 33 -209v-242q0 -132 36 -177q41 -52 168 -52h39v-148h-43q-193 0 -272 49q-68 42 -89 138q-11 52 -11 170v245q0 141 -49 202q-54 69 -191 69
q-7 0 -21.5 -1t-21.5 -1v149q8 0 22.5 -1t22.5 -1q135 0 190 68q48 60 48 200v246q0 118 11 170q21 95 89 137q84 52 278 52h37v-150z" />
    <glyph glyph-name="bar" unicode="|" horiz-adv-x="1024" 
d="M588 1565v-2048h-150v2048h150z" />
    <glyph glyph-name="braceright" unicode="}" horiz-adv-x="1024" 
d="M575 1118v-246q0 -140 48 -200q55 -68 190 -68q8 0 22.5 1t22.5 1v-149q-7 0 -21.5 1t-21.5 1q-138 0 -192 -68q-48 -61 -48 -203v-245q0 -118 -11 -170q-21 -96 -89 -138q-79 -49 -272 -49h-43v148h39q126 0 168 53q36 46 36 178v240q0 143 34 208q44 85 167 117
q-123 33 -167 117q-34 66 -34 209v242q0 131 -36 177q-42 52 -168 52h-39v150h37q194 0 278 -52q68 -42 89 -137q11 -52 11 -170z" />
    <glyph glyph-name="asciitilde" unicode="~" horiz-adv-x="1706" 
d="M1530 614q-204 -141 -389 -141q-93 0 -256 58l-49 17q-180 60 -273 60q-160 0 -385 -157v155q212 144 387 144q114 0 291 -62q6 -2 47 -17q157 -57 240 -57q166 0 387 156v-156z" />
    <glyph glyph-name="euro" horiz-adv-x="1124" 
d="M881 543l196 -1q-6 -245 -123 -404q-133 -179 -368 -179q-241 0 -365 203q-98 161 -112 424h-111l39 92h65v115h-131l39 92h99q33 626 505 626q206 0 327 -140q109 -127 128 -341h-197q-34 313 -272 313q-275 0 -295 -458h449l-39 -92h-414v-115h361l-39 -92h-318
q16 -459 293 -459q148 0 222 142q56 108 61 274z" />
    <glyph glyph-name="nonbreakingspace" unicode="&#xa0;" horiz-adv-x="1124" 
 />
    <glyph glyph-name="exclamdown" unicode="&#xa1;" horiz-adv-x="657" 
d="M381 1116l47 -639v-477h-201v477l49 639h105zM428 1473v-222h-201v222h201z" />
    <glyph glyph-name="cent" unicode="&#xa2;" horiz-adv-x="1124" 
d="M616 940q-31 4 -53 4q-152 0 -228 -133q-61 -107 -61 -272q0 -251 125 -361zM817 385h178q-15 -189 -135 -302.5t-309 -113.5q-61 0 -115 10l-59 -212h-94l67 243q-266 136 -266 522q0 239 114 396q128 176 359 176q48 0 102 -8l54 184h94l-59 -207q231 -90 245 -358
h-180q-6 132 -113 194l-218 -772q34 -6 67 -6q220 0 268 254z" />
    <glyph glyph-name="sterling" unicode="&#xa3;" horiz-adv-x="1124" 
d="M162 -33l-99 146q248 201 248 376q0 72 -43 156h-215v103h158q-105 176 -105 305q0 185 145 303q135 110 324 110q208 0 334 -112q131 -117 131 -322q0 -7 -1 -19.5t-1 -19.5h-182v17q0 137 -72.5 212.5t-208.5 75.5q-115 0 -192 -67q-82 -71 -82 -184q0 -79 97 -268
q8 -16 15 -31h322v-103h-274q20 -74 20 -121q0 -171 -205 -366q94 51 234 51q60 0 167.5 -36t149.5 -36q77 0 168 64l82 -140q-123 -104 -254 -104q-80 0 -174 37l-94 37q-61 24 -129 24q-147 0 -264 -88z" />
    <glyph glyph-name="currency" unicode="&#xa4;" horiz-adv-x="1124" 
d="M881 543l196 -1q-6 -245 -123 -404q-133 -179 -368 -179q-241 0 -365 203q-98 161 -112 424h-111l39 92h65v115h-131l39 92h99q33 626 505 626q206 0 327 -140q109 -127 128 -341h-197q-34 313 -272 313q-275 0 -295 -458h449l-39 -92h-414v-115h361l-39 -92h-318
q16 -459 293 -459q148 0 222 142q56 108 61 274z" />
    <glyph glyph-name="yen" unicode="&#xa5;" horiz-adv-x="1235" 
d="M719 0h-184v563h-519v92h461l-84 127h-377v92h322l-322 517h228l383 -656l385 656h207l-314 -517h314v-92h-371l-78 -127h449v-92h-500v-563z" />
    <glyph glyph-name="brokenbar" unicode="&#xa6;" horiz-adv-x="1024" 
d="M588 408v-758h-150v758h150zM588 1432v-758h-150v758h150z" />
    <glyph glyph-name="section" unicode="&#xa7;" horiz-adv-x="1024" 
d="M657 434q103 62 103 162q0 67 -60 122q-34 30 -118 77l-217 120q-107 -61 -107 -149q0 -69 59 -124q30 -27 119 -79zM150 139h174v-4q0 -176 192 -176q73 0 119 33q53 38 53 108q0 74 -81 139q-37 30 -144 89l-182 100q-201 110 -201 283q0 170 178 288q-92 78 -92 201
q0 143 98 230q93 83 238 83q156 0 249 -81q97 -86 97 -240v-10h-170q-4 81 -50 130.5t-126 49.5q-158 0 -158 -139q0 -93 150 -174l247 -134q203 -110 203 -301q0 -89 -51 -164t-133 -110q102 -86 102 -219q0 -147 -109 -236q-102 -82 -253 -82q-157 0 -252 89
q-98 91 -98 247z" />
    <glyph glyph-name="dieresis" unicode="&#xa8;" horiz-adv-x="1024" 
d="M586 1274v211h182v-211h-182zM256 1274v211h182v-211h-182z" />
    <glyph glyph-name="copyright" unicode="&#xa9;" horiz-adv-x="1706" 
d="M1053 907q-27 160 -205 160q-121 0 -180 -116q-45 -90 -45 -224q0 -137 48 -223q61 -109 187 -109q175 0 205 176h145q-10 -138 -116 -218q-98 -74 -240 -74q-194 0 -297 133q-92 120 -92 321q0 191 101 313q108 132 294 132q134 0 228 -68q102 -74 114 -203h-147z
M1493 727q0 269 -184 453q-188 188 -455 188q-264 0 -448 -184q-193 -193 -193 -457q0 -261 189 -450t452 -189q190 0 355 109.5t237 284.5q47 114 47 245zM852 1464q309 0 524 -215t215 -522q0 -308 -213 -516q-226 -221 -526 -221q-299 0 -517 218t-218 519q0 304 219 524
q212 213 516 213z" />
    <glyph glyph-name="ordfeminine" unicode="&#xaa;" horiz-adv-x="834" 
d="M102 569h664v-112h-664v112zM580 1100q-48 -23 -172 -38q-28 -3 -72 -9q-133 -20 -133 -119q0 -109 137 -109q91 0 159 41q81 49 81 135v99zM592 813q-121 -113 -277 -113q-119 0 -191 56q-79 62 -79 178q0 209 281 242q31 4 112 11q142 13 142 93q0 104 -172 104
q-181 0 -181 -137h-145v13q0 130 105 196q87 55 225 55q323 0 323 -237v-377q0 -37 5 -49q9 -19 40 -19q6 0 43 6v-112q-44 -14 -78 -14q-153 0 -153 104z" />
    <glyph glyph-name="guillemotleft" unicode="&#xab;" horiz-adv-x="909" 
d="M813 883v-174l-213 -168l213 -166v-176l-324 243v199zM403 883v-174l-213 -168l213 -166v-176l-323 243v199z" />
    <glyph glyph-name="logicalnot" unicode="&#xac;" horiz-adv-x="1706" 
d="M1452 860v-502h-137v363h-1061v139h1198z" />
    <glyph glyph-name="sfthyphen" unicode="&#xad;" horiz-adv-x="639" 
d="M72 461v162h495v-162h-495z" />
    <glyph glyph-name="registered" unicode="&#xae;" horiz-adv-x="1706" 
d="M844 1057h-129v-277h133q211 0 211 133q0 144 -215 144zM872 1159q349 0 349 -229q0 -187 -191 -225l187 -381h-177l-170 356h-155v-356h-158v835h315zM1493 721q0 274 -182 457q-189 190 -457 190q-267 0 -446 -182q-195 -198 -195 -459q0 -190 109.5 -352.5
t285.5 -236.5q116 -50 240 -50q265 0 459 188q186 180 186 445zM852 1464q310 0 526 -219q213 -216 213 -518q0 -309 -215 -518q-225 -219 -524 -219q-302 0 -520 221q-215 218 -215 516q0 302 223 528q206 209 512 209z" />
    <glyph glyph-name="macron" unicode="&#xaf;" horiz-adv-x="1024" 
d="M242 1309v141h540v-141h-540z" />
    <glyph glyph-name="macron" unicode="&#x2c9;" horiz-adv-x="1024" 
d="M242 1309v141h540v-141h-540z" />
    <glyph glyph-name="degree" unicode="&#xb0;" horiz-adv-x="674" 
d="M530 1169q0 82 -55.5 137.5t-136.5 55.5q-82 0 -138.5 -56t-56.5 -137q0 -82 56.5 -139t138.5 -57q81 0 136.5 57t55.5 139zM338 1456q120 0 203.5 -84.5t83.5 -204.5q0 -121 -84 -203.5t-205 -82.5t-204 82.5t-83 203.5t84 205t205 84z" />
    <glyph glyph-name="plusminus" unicode="&#xb1;" horiz-adv-x="1706" 
d="M1452 170v-141h-1198v141h1198zM924 1192v-340h528v-139h-528v-340h-142v340h-528v139h528v340h142z" />
    <glyph glyph-name="twosuperior" unicode="&#xb2;" horiz-adv-x="741" 
d="M41 557v8q0 137 88 232q66 72 211 143l80 39q137 67 137 184q0 75 -57 116q-51 36 -129 36q-90 0 -138.5 -54t-48.5 -145v-10h-123v14q0 140 88 219q84 76 226 76q130 0 215 -61q96 -68 96 -193q0 -174 -203 -268l-80 -37q-196 -91 -227 -192h510v-107h-645z" />
    <glyph glyph-name="threesuperior" unicode="&#xb3;" horiz-adv-x="741" 
d="M31 825h122q8 -190 203 -190q87 0 140 41q59 45 59 129q0 149 -199 149h-34q-22 -1 -33 -1v97h19q13 -1 20 -1q192 0 192 133t-166 133q-182 0 -182 -182h-119v6q0 130 83 205q80 71 212 71q301 0 301 -229q0 -126 -117 -172q154 -51 154 -209q0 -135 -105 -209
q-92 -64 -233 -64q-139 0 -225 73q-92 77 -92 214v6z" />
    <glyph glyph-name="acute" unicode="&#xb4;" horiz-adv-x="1024" 
d="M369 1217l204 348h201l-285 -348h-120z" />
    <glyph glyph-name="mu" unicode="&#xb5;" horiz-adv-x="1151" 
d="M385 1071l-129 -600q-14 -65 -14 -133q0 -207 200 -207q153 0 237 132q55 88 95 272l115 536h178l-156 -732l-4 -20q-18 -87 -18 -112q0 -68 72 -68q18 0 32 2l-31 -143q-48 -10 -108 -10q-116 0 -149 129q-89 -131 -271 -131q-157 0 -256 116l-110 -530h-181l318 1499
h180z" />
    <glyph glyph-name="mu" unicode="&#x3bc;" horiz-adv-x="1151" 
d="M385 1071l-129 -600q-14 -65 -14 -133q0 -207 200 -207q153 0 237 132q55 88 95 272l115 536h178l-156 -732l-4 -20q-18 -87 -18 -112q0 -68 72 -68q18 0 32 2l-31 -143q-48 -10 -108 -10q-116 0 -149 129q-89 -131 -271 -131q-157 0 -256 116l-110 -530h-181l318 1499
h180z" />
    <glyph glyph-name="paragraph" unicode="&#xb6;" horiz-adv-x="1024" 
d="M958 1393h-120v-1393h-111v1393h-176v-1393h-113v782q-163 8 -263 95q-109 94 -109 253q0 166 116 261q108 88 277 88h499v-86z" />
    <glyph glyph-name="ch270" unicode="&#xb7;" horiz-adv-x="561" 
d="M158 702q0 52 35.5 87.5t87.5 35.5t88.5 -35.5t36.5 -87.5t-36.5 -87t-88.5 -35t-87.5 35t-35.5 87z" />
    <glyph glyph-name="ch270" unicode="&#x2219;" horiz-adv-x="561" 
d="M158 702q0 52 35.5 87.5t87.5 35.5t88.5 -35.5t36.5 -87.5t-36.5 -87t-88.5 -35t-87.5 35t-35.5 87z" />
    <glyph glyph-name="cedilla" unicode="&#xb8;" horiz-adv-x="1024" 
d="M289 -406l-2 93q154 -37 245 -37q105 0 105 74q0 79 -127 79q-8 0 -25 -1h-24v180h74v-93h28q211 0 211 -157q0 -176 -239 -176q-102 0 -246 38z" />
    <glyph glyph-name="onesuperior" unicode="&#xb9;" horiz-adv-x="741" 
d="M346 557v606h-219v88q229 4 250 164h92v-858h-123z" />
    <glyph glyph-name="ordmasculine" unicode="&#xba;" horiz-adv-x="893" 
d="M111 569h671v-112h-671v112zM449 1384q-238 0 -238 -276q0 -281 238 -281q235 0 235 281q0 276 -235 276zM51 1106q0 188 104 296.5t291 108.5q189 0 292.5 -107.5t103.5 -297.5q0 -189 -101 -296q-104 -110 -292 -110q-191 0 -294.5 107t-103.5 299z" />
    <glyph glyph-name="guillemotright" unicode="&#xbb;" horiz-adv-x="909" 
d="M508 199v176l213 166l-213 166v176l323 -242v-199zM96 199v176l215 166l-215 166v176l324 -242v-199z" />
    <glyph glyph-name="onequarter" unicode="&#xbc;" horiz-adv-x="1757" 
d="M1192 289h283v356zM1475 0v197h-392v102l392 479h116v-489h127v-92h-127v-197h-116zM367 -41l899 1473h125l-899 -1473h-125zM330 612v568h-209v79q220 4 239 154h89v-801h-119z" />
    <glyph glyph-name="onehalf" unicode="&#xbd;" horiz-adv-x="1757" 
d="M1092 0v6q0 130 82 218q62 67 200 134l76 37q133 65 133 170q0 70 -56 109q-48 33 -122 33q-84 0 -131 -50t-47 -135v-10h-117v14q0 132 85 206q80 69 214 69q122 0 203 -56q92 -64 92 -180q0 -165 -193 -252l-75 -34q-188 -85 -215 -181h483v-98h-612zM367 -41l899 1473
h125l-899 -1473h-125zM330 612v568h-209v79q220 4 239 154h89v-801h-119z" />
    <glyph glyph-name="threequarters" unicode="&#xbe;" horiz-adv-x="1759" 
d="M1192 289h283v356zM1475 0v197h-392v102l392 479h116v-489h127v-92h-127v-197h-116zM367 -41l899 1473h125l-899 -1473h-125zM29 862h118q4 -176 193 -176q188 0 188 158q0 139 -188 139q-40 0 -66 -2l1 92q16 -2 38 -2q185 0 185 123q0 127 -160 127q-172 0 -172 -170
h-115v4q0 123 80 192q76 66 201 66q289 0 289 -213q0 -118 -113 -162q145 -46 145 -194q0 -127 -101 -195q-87 -59 -220 -59q-131 0 -214 66q-89 72 -89 200v6z" />
    <glyph glyph-name="questiondown" unicode="&#xbf;" horiz-adv-x="1075" 
d="M662 1075q0 -8 1 -22.5t1 -22.5q0 -204 -158 -362l-78 -78q-113 -113 -113 -246q0 -103 67 -163t171 -60q260 0 270 325h178v-26q0 -219 -118.5 -339t-337.5 -120q-185 0 -301 99q-123 104 -123 286q0 184 151 328l84 80q71 68 98 120q31 61 31 150v26q-1 17 -1 25h178z
M668 1473v-222h-201v222h201z" />
    <glyph glyph-name="Agrave" unicode="&#xc0;" horiz-adv-x="1305" 
d="M420 612h459l-228 650zM-6 0l547 1473h221l549 -1473h-217l-156 440h-580l-157 -440h-207zM796 1602h-120l-285 348h201z" />
    <glyph glyph-name="Aacute" unicode="&#xc1;" horiz-adv-x="1305" 
d="M420 612h459l-228 650zM-6 0l547 1473h221l549 -1473h-217l-156 440h-580l-157 -440h-207zM510 1602l204 348h201l-285 -348h-120z" />
    <glyph glyph-name="Acircumflex" unicode="&#xc2;" horiz-adv-x="1305" 
d="M420 612h459l-228 650zM-6 0l547 1473h221l549 -1473h-217l-156 440h-580l-157 -440h-207zM358 1539l197 348h196l197 -348h-123l-172 227l-174 -227h-121z" />
    <glyph glyph-name="Atilde" unicode="&#xc3;" horiz-adv-x="1305" 
d="M420 612h459l-228 650zM-6 0l547 1473h221l549 -1473h-217l-156 440h-580l-157 -440h-207zM946 1878q-41 -207 -197 -207q-29 0 -65 10l-97 27q-29 8 -49 8q-62 0 -90 -69h-88q37 204 193 204q32 0 59 -8l99 -29q27 -8 53 -8q66 0 94 72h88z" />
    <glyph glyph-name="Adieresis" unicode="&#xc4;" horiz-adv-x="1305" 
d="M420 612h459l-228 650zM-6 0l547 1473h221l549 -1473h-217l-156 440h-580l-157 -440h-207zM727 1659v211h182v-211h-182zM397 1659v211h182v-211h-182z" />
    <glyph glyph-name="Aring" unicode="&#xc5;" horiz-adv-x="1305" 
d="M543 1747q0 -46 32 -78.5t78 -32.5t78.5 32.5t32.5 78.5q0 45 -33 78t-78 33t-77.5 -33t-32.5 -78zM426 1747q0 96 65.5 160.5t161.5 64.5t161 -64.5t65 -160.5t-65 -161.5t-161 -65.5q-95 0 -161 66t-66 161zM424 612h455l-228 650zM-6 0l547 1473h221l549 -1473h-217
l-156 440h-573l-154 -440h-217z" />
    <glyph glyph-name="AE" unicode="&#xc6;" horiz-adv-x="1942" 
d="M428 612h416v691h-148zM-31 0l609 1473h1267v-183h-805v-440h740v-172h-740v-494h815v-184h-1011v440h-484l-172 -440h-219z" />
    <glyph glyph-name="Ccedilla" unicode="&#xc7;" horiz-adv-x="1460" 
d="M1188 547h194q-9 -256 -175 -415q-161 -155 -419 -173v-70h27q213 0 213 -157q0 -176 -237 -176q-110 0 -246 38l-2 93q160 -37 245 -37q105 0 105 74q0 79 -119 79q-10 0 -29 -1h-28v157q-317 20 -480 257q-143 209 -143 542t174 537q185 216 512 216q239 0 398 -121
q171 -129 194 -360h-196q-56 303 -404 303q-246 0 -369 -184q-104 -156 -104 -416q0 -245 110 -408q127 -188 361 -188q183 0 297.5 113.5t120.5 296.5z" />
    <glyph glyph-name="Egrave" unicode="&#xc8;" horiz-adv-x="1309" 
d="M158 0v1473h1050v-183h-852v-440h787v-172h-787v-494h869v-184h-1067zM817 1602h-120l-285 348h201z" />
    <glyph glyph-name="Eacute" unicode="&#xc9;" horiz-adv-x="1309" 
d="M158 0v1473h1050v-183h-852v-440h787v-172h-787v-494h869v-184h-1067zM531 1602l204 348h201l-285 -348h-120z" />
    <glyph glyph-name="Ecircumflex" unicode="&#xca;" horiz-adv-x="1309" 
d="M158 0v1473h1050v-183h-852v-440h787v-172h-787v-494h869v-184h-1067zM380 1539l197 348h196l197 -348h-123l-172 227l-174 -227h-121z" />
    <glyph glyph-name="Edieresis" unicode="&#xcb;" horiz-adv-x="1309" 
d="M158 0v1473h1050v-183h-852v-440h787v-172h-787v-494h869v-184h-1067zM748 1659v211h182v-211h-182zM418 1659v211h182v-211h-182z" />
    <glyph glyph-name="Igrave" unicode="&#xcc;" horiz-adv-x="526" 
d="M162 0v1473h200v-1473h-200zM407 1602h-120l-285 348h201z" />
    <glyph glyph-name="Iacute" unicode="&#xcd;" horiz-adv-x="526" 
d="M162 0v1473h200v-1473h-200zM121 1602l204 348h201l-285 -348h-120z" />
    <glyph glyph-name="Icircumflex" unicode="&#xce;" horiz-adv-x="526" 
d="M162 0v1473h200v-1473h-200zM-31 1602l197 348h196l197 -348h-123l-172 227l-174 -227h-121z" />
    <glyph glyph-name="Idieresis" unicode="&#xcf;" horiz-adv-x="526" 
d="M162 0v1473h200v-1473h-200zM338 1659v211h182v-211h-182zM8 1659v211h182v-211h-182z" />
    <glyph glyph-name="Eth" unicode="&#xd0;" horiz-adv-x="1458" 
d="M713 1303h-346v-457h395v-127h-395v-539h346q446 0 446 568q0 246 -98 389q-113 166 -348 166zM166 0v719h-166v127h166v627h563q323 0 485 -200q148 -184 148 -515q0 -337 -149 -535q-167 -223 -492 -223h-555z" />
    <glyph glyph-name="Ntilde" unicode="&#xd1;" horiz-adv-x="1477" 
d="M156 0v1473h219l688 -1070q50 -77 67 -124v1194h191v-1473h-217l-703 1085q-30 46 -55 109v-1194h-190zM1032 1878q-41 -207 -197 -207q-29 0 -65 10l-97 27q-29 8 -49 8q-62 0 -90 -69h-88q37 204 193 204q32 0 59 -8l99 -29q27 -8 53 -8q66 0 94 72h88z" />
    <glyph glyph-name="Ograve" unicode="&#xd2;" horiz-adv-x="1583" 
d="M301 735q0 -261 113 -420q129 -182 379 -182q249 0 377 183q112 159 112 419q0 261 -111 420q-128 182 -378 182t-379 -182q-113 -159 -113 -420zM94 735q0 350 172 556q184 220 527 220t526 -221q170 -205 170 -555t-171 -555q-183 -221 -525 -221q-343 0 -527 220
q-172 206 -172 556zM936 1602h-120l-285 348h201z" />
    <glyph glyph-name="Oacute" unicode="&#xd3;" horiz-adv-x="1583" 
d="M301 735q0 -261 113 -420q129 -182 379 -182q249 0 377 183q112 159 112 419q0 261 -111 420q-128 182 -378 182t-379 -182q-113 -159 -113 -420zM94 735q0 350 172 556q184 220 527 220t526 -221q170 -205 170 -555t-171 -555q-183 -221 -525 -221q-343 0 -527 220
q-172 206 -172 556zM650 1602l204 348h201l-285 -348h-120z" />
    <glyph glyph-name="Ocircumflex" unicode="&#xd4;" horiz-adv-x="1583" 
d="M301 735q0 -261 113 -420q129 -182 379 -182q249 0 377 183q112 159 112 419q0 261 -111 420q-128 182 -378 182t-379 -182q-113 -159 -113 -420zM94 735q0 350 172 556q184 220 527 220t526 -221q170 -205 170 -555t-171 -555q-183 -221 -525 -221q-343 0 -527 220
q-172 206 -172 556zM498 1539l197 348h196l197 -348h-123l-172 227l-174 -227h-121z" />
    <glyph glyph-name="Otilde" unicode="&#xd5;" horiz-adv-x="1583" 
d="M301 735q0 -261 113 -420q129 -182 379 -182q249 0 377 183q112 159 112 419q0 261 -111 420q-128 182 -378 182t-379 -182q-113 -159 -113 -420zM94 735q0 350 172 556q184 220 527 220t526 -221q170 -205 170 -555t-171 -555q-183 -221 -525 -221q-343 0 -527 220
q-172 206 -172 556zM1086 1878q-41 -207 -197 -207q-29 0 -65 10l-97 27q-29 8 -49 8q-62 0 -90 -69h-88q37 204 193 204q32 0 59 -8l99 -29q27 -8 53 -8q66 0 94 72h88z" />
    <glyph glyph-name="Odieresis" unicode="&#xd6;" horiz-adv-x="1583" 
d="M301 735q0 -261 113 -420q129 -182 379 -182q249 0 377 183q112 159 112 419q0 261 -111 420q-128 182 -378 182t-379 -182q-113 -159 -113 -420zM94 735q0 350 172 556q184 220 527 220t526 -221q170 -205 170 -555t-171 -555q-183 -221 -525 -221q-343 0 -527 220
q-172 206 -172 556zM867 1659v211h182v-211h-182zM537 1659v211h182v-211h-182z" />
    <glyph glyph-name="multiply" unicode="&#xd7;" horiz-adv-x="1706" 
d="M860 709l469 469l98 -99l-469 -469l469 -469l-98 -96l-469 467l-469 -467l-98 96l469 469l-469 469l98 99z" />
    <glyph glyph-name="Oslash" unicode="&#xd8;" horiz-adv-x="1583" 
d="M440 281q138 -148 353 -148q249 0 377 183q112 159 112 419q0 231 -86 383zM1143 1194q-128 143 -350 143q-253 0 -381 -186q-111 -160 -111 -426q0 -226 86 -371zM246 207q-152 194 -152 528q0 350 172 556q184 220 527 220q285 0 477 -170l151 170l72 -67l-156 -176
q152 -194 152 -533q0 -350 -171 -555q-183 -221 -525 -221q-292 0 -482 174l-153 -174l-74 66z" />
    <glyph glyph-name="Ugrave" unicode="&#xd9;" horiz-adv-x="1452" 
d="M150 559v914h200v-916q0 -405 375 -405q377 0 377 405v916h201v-914q0 -600 -601 -600q-552 0 -552 600zM870 1602h-120l-285 348h201z" />
    <glyph glyph-name="Uacute" unicode="&#xda;" horiz-adv-x="1452" 
d="M150 559v914h200v-916q0 -405 375 -405q377 0 377 405v916h201v-914q0 -600 -601 -600q-552 0 -552 600zM584 1602l204 348h201l-285 -348h-120z" />
    <glyph glyph-name="Ucircumflex" unicode="&#xdb;" horiz-adv-x="1452" 
d="M150 559v914h200v-916q0 -405 375 -405q377 0 377 405v916h201v-914q0 -600 -601 -600q-552 0 -552 600zM432 1602l197 348h196l197 -348h-123l-172 227l-174 -227h-121z" />
    <glyph glyph-name="Udieresis" unicode="&#xdc;" horiz-adv-x="1452" 
d="M150 559v914h200v-916q0 -405 375 -405q377 0 377 405v916h201v-914q0 -600 -601 -600q-552 0 -552 600zM801 1659v211h182v-211h-182zM471 1659v211h182v-211h-182z" />
    <glyph glyph-name="Yacute" unicode="&#xdd;" horiz-adv-x="1235" 
d="M729 0h-201v590l-546 883h251l394 -697l391 697h235l-524 -869v-604zM475 1602l204 348h201l-285 -348h-120z" />
    <glyph glyph-name="Thorn" unicode="&#xde;" horiz-adv-x="1290" 
d="M158 0v1473h200v-287h344q225 0 322 -51q186 -98 186 -347q0 -236 -188 -342q-97 -55 -360 -55h-304v-391h-200zM358 565h336q151 0 220 37q94 51 94 186q0 132 -88 184q-68 40 -211 40h-351v-447z" />
    <glyph glyph-name="germandbls" unicode="&#xdf;" horiz-adv-x="1104" 
d="M137 0v1049q0 444 418 444q177 0 287 -96q116 -101 116 -275q0 -227 -159 -301q112 -37 171 -139q54 -92 54 -217q0 -208 -113 -349q-122 -151 -325 -151q-37 0 -121 15v167q48 -12 86 -12q131 0 210 90q75 86 75 219q0 279 -326 279h-31v149h31q266 0 266 234
q0 105 -60.5 167t-164.5 62q-236 0 -236 -313v-1022h-178z" />
    <glyph glyph-name="agrave" unicode="&#xe0;" 
d="M799 143q-168 -176 -379 -176q-159 0 -251 81q-97 85 -97 241q0 290 366 336q28 4 126.5 14t111.5 13q82 15 98 46q10 19 10 84q0 164 -241 164q-252 0 -252 -198h-170v8q0 176 130 269q114 81 298 81q418 0 418 -332v-536q0 -57 8 -76q14 -33 61 -33q15 0 47 6v-139
q-59 -16 -104 -16q-180 0 -180 157v6zM782 545q-72 -39 -247 -61q-59 -7 -93 -13q-184 -30 -184 -180q0 -166 193 -166q131 0 224 63q107 72 107 197v160zM700 1217h-120l-285 348h201z" />
    <glyph glyph-name="aacute" unicode="&#xe1;" 
d="M799 143q-168 -176 -379 -176q-159 0 -251 81q-97 85 -97 241q0 290 366 336q28 4 126.5 14t111.5 13q82 15 98 46q10 19 10 84q0 164 -241 164q-252 0 -252 -198h-170v8q0 176 130 269q114 81 298 81q418 0 418 -332v-536q0 -57 8 -76q14 -33 61 -33q15 0 47 6v-139
q-59 -16 -104 -16q-180 0 -180 157v6zM782 545q-72 -39 -247 -61q-59 -7 -93 -13q-184 -30 -184 -180q0 -166 193 -166q131 0 224 63q107 72 107 197v160zM414 1217l204 348h201l-285 -348h-120z" />
    <glyph glyph-name="acircumflex" unicode="&#xe2;" 
d="M799 143q-168 -176 -379 -176q-159 0 -251 81q-97 85 -97 241q0 290 366 336q28 4 126.5 14t111.5 13q82 15 98 46q10 19 10 84q0 164 -241 164q-252 0 -252 -198h-170v8q0 176 130 269q114 81 298 81q418 0 418 -332v-536q0 -57 8 -76q14 -33 61 -33q15 0 47 6v-139
q-59 -16 -104 -16q-180 0 -180 157v6zM782 545q-72 -39 -247 -61q-59 -7 -93 -13q-184 -30 -184 -180q0 -166 193 -166q131 0 224 63q107 72 107 197v160zM262 1217l197 348h196l197 -348h-123l-172 227l-174 -227h-121z" />
    <glyph glyph-name="atilde" unicode="&#xe3;" 
d="M799 143q-168 -176 -379 -176q-159 0 -251 81q-97 85 -97 241q0 290 366 336q28 4 126.5 14t111.5 13q82 15 98 46q10 19 10 84q0 164 -241 164q-252 0 -252 -198h-170v8q0 176 130 269q114 81 298 81q418 0 418 -332v-536q0 -57 8 -76q14 -33 61 -33q15 0 47 6v-139
q-59 -16 -104 -16q-180 0 -180 157v6zM782 545q-72 -39 -247 -61q-59 -7 -93 -13q-184 -30 -184 -180q0 -166 193 -166q131 0 224 63q107 72 107 197v160zM850 1493q-41 -207 -197 -207q-29 0 -65 10l-97 27q-29 8 -49 8q-62 0 -90 -69h-88q37 204 193 204q32 0 59 -8
l99 -29q27 -8 53 -8q66 0 94 72h88z" />
    <glyph glyph-name="adieresis" unicode="&#xe4;" 
d="M799 143q-168 -176 -379 -176q-159 0 -251 81q-97 85 -97 241q0 290 366 336q28 4 126.5 14t111.5 13q82 15 98 46q10 19 10 84q0 164 -241 164q-252 0 -252 -198h-170v8q0 176 130 269q114 81 298 81q418 0 418 -332v-536q0 -57 8 -76q14 -33 61 -33q15 0 47 6v-139
q-59 -16 -104 -16q-180 0 -180 157v6zM782 545q-72 -39 -247 -61q-59 -7 -93 -13q-184 -30 -184 -180q0 -166 193 -166q131 0 224 63q107 72 107 197v160zM631 1274v211h182v-211h-182zM301 1274v211h182v-211h-182z" />
    <glyph glyph-name="aring" unicode="&#xe5;" 
d="M324 1382q0 96 64.5 161t160.5 65t160.5 -65t64.5 -161t-64.5 -161.5t-160.5 -65.5q-95 0 -160 66t-65 161zM438 1382q0 -46 32.5 -78t78.5 -32q45 0 77.5 32.5t32.5 77.5q0 46 -32 78.5t-78 32.5t-78.5 -32.5t-32.5 -78.5zM799 143q-168 -176 -379 -176q-159 0 -251 81
q-97 85 -97 241q0 290 366 336q28 4 126.5 14t111.5 13q82 15 98 46q10 19 10 84q0 164 -241 164q-252 0 -252 -198h-170v8q0 176 130 269q114 81 298 81q418 0 418 -332v-536q0 -57 8 -76q14 -33 61 -33q15 0 47 6v-139q-59 -16 -104 -16q-180 0 -180 157v6zM782 545
q-72 -39 -247 -61q-59 -7 -93 -13q-184 -30 -184 -180q0 -166 193 -166q131 0 224 63q107 72 107 197v160z" />
    <glyph glyph-name="ae" unicode="&#xe6;" horiz-adv-x="1806" 
d="M952 633h590q-2 313 -289 313q-274 0 -301 -313zM780 539q-64 -24 -170 -41q-129 -20 -170 -31q-176 -46 -176 -174q0 -168 205 -168q120 0 210 65q101 72 101 187v162zM844 164q-178 -199 -395 -199q-162 0 -261 72q-112 81 -112 237q0 310 346 351q36 4 116 12
q246 24 246 129q0 182 -239 182q-246 0 -246 -190v-8h-170v8q0 172 127 264q113 82 291 82q270 0 371 -154q122 154 350 154q230 0 353 -169q110 -150 110 -388q0 -44 -3 -62h-771q6 -356 292 -356q241 0 287 217h178q-33 -190 -166 -288q-125 -93 -323 -93q-277 0 -381 199
z" />
    <glyph glyph-name="ccedilla" unicode="&#xe7;" horiz-adv-x="1075" 
d="M848 715q-17 229 -275 229q-305 0 -305 -405q0 -172 59 -277q75 -131 234 -131q256 0 295 254h172q-8 -187 -132 -300q-118 -108 -308 -118v-78h26q213 0 213 -157q0 -176 -239 -176q-106 0 -246 38v93q162 -37 244 -37q106 0 106 74q0 79 -121 79q-10 0 -29 -1h-28v165
q-216 20 -331 188q-103 149 -103 377q0 251 119 404q131 170 374 170q192 0 314 -98q131 -105 135 -293h-174z" />
    <glyph glyph-name="egrave" unicode="&#xe8;" horiz-adv-x="1120" 
d="M274 633h588q-2 313 -289 313q-272 0 -299 -313zM858 346h178q-30 -181 -158 -283q-125 -98 -311 -98q-237 0 -365 165q-116 150 -116 394q0 253 111 407q127 175 370 175q242 0 368 -154q116 -141 116 -389q0 -57 -3 -80h-773q3 -159 75 -251q81 -103 234 -103
q230 0 274 217zM716 1217h-120l-285 348h201z" />
    <glyph glyph-name="eacute" unicode="&#xe9;" horiz-adv-x="1120" 
d="M274 633h588q-2 313 -289 313q-272 0 -299 -313zM858 346h178q-30 -181 -158 -283q-125 -98 -311 -98q-237 0 -365 165q-116 150 -116 394q0 253 111 407q127 175 370 175q242 0 368 -154q116 -141 116 -389q0 -57 -3 -80h-773q3 -159 75 -251q81 -103 234 -103
q230 0 274 217zM430 1217l204 348h201l-285 -348h-120z" />
    <glyph glyph-name="ecircumflex" unicode="&#xea;" horiz-adv-x="1120" 
d="M274 633h588q-2 313 -289 313q-272 0 -299 -313zM858 346h178q-30 -181 -158 -283q-125 -98 -311 -98q-237 0 -365 165q-116 150 -116 394q0 253 111 407q127 175 370 175q242 0 368 -154q116 -141 116 -389q0 -57 -3 -80h-773q3 -159 75 -251q81 -103 234 -103
q230 0 274 217zM278 1217l197 348h196l197 -348h-123l-172 227l-174 -227h-121z" />
    <glyph glyph-name="edieresis" unicode="&#xeb;" horiz-adv-x="1120" 
d="M274 633h588q-2 313 -289 313q-272 0 -299 -313zM858 346h178q-30 -181 -158 -283q-125 -98 -311 -98q-237 0 -365 165q-116 150 -116 394q0 253 111 407q127 175 370 175q242 0 368 -154q116 -141 116 -389q0 -57 -3 -80h-773q3 -159 75 -251q81 -103 234 -103
q230 0 274 217zM647 1274v211h182v-211h-182zM317 1274v211h182v-211h-182z" />
    <glyph glyph-name="igrave" unicode="&#xec;" horiz-adv-x="455" 
d="M137 0v1071h180v-1071h-180zM370 1217h-120l-285 348h201z" />
    <glyph glyph-name="iacute" unicode="&#xed;" horiz-adv-x="455" 
d="M137 0v1071h180v-1071h-180zM84 1217l204 348h201l-285 -348h-120z" />
    <glyph glyph-name="icircumflex" unicode="&#xee;" horiz-adv-x="455" 
d="M137 0v1071h180v-1071h-180zM-68 1217l197 348h196l197 -348h-123l-172 227l-174 -227h-121z" />
    <glyph glyph-name="idieresis" unicode="&#xef;" horiz-adv-x="455" 
d="M137 0v1071h180v-1071h-180zM301 1274v211h182v-211h-182zM-29 1274v211h182v-211h-182z" />
    <glyph glyph-name="eth" unicode="&#xf0;" horiz-adv-x="1194" 
d="M737 1020q-88 110 -213 188l-270 -141l-39 82l221 117q-102 58 -241 114l43 123q196 -60 366 -164l268 142l39 -84l-221 -115q422 -320 422 -764q0 -254 -128 -399q-134 -152 -384 -152q-251 0 -386 152q-128 144 -128 399q0 234 126 379q133 154 363 154q79 0 162 -31z
M270 522q0 -395 332 -395q326 0 326 395q0 176 -74 278q-84 118 -252 118q-165 0 -253 -119q-79 -106 -79 -277z" />
    <glyph glyph-name="ntilde" unicode="&#xf1;" horiz-adv-x="1165" 
d="M850 0v659q0 141 -37 201q-48 78 -178 78q-154 0 -236 -86.5t-82 -241.5v-610h-180v1071h172v-156q122 183 344 183q241 0 332 -146q47 -75 47 -258v-694h-182zM889 1493q-41 -207 -197 -207q-29 0 -65 10l-97 27q-29 8 -49 8q-62 0 -90 -69h-88q37 204 193 204
q32 0 59 -8l99 -29q27 -8 53 -8q66 0 94 72h88z" />
    <glyph glyph-name="ograve" unicode="&#xf2;" horiz-adv-x="1190" 
d="M266 537q0 -410 330 -410q326 0 326 410q0 409 -326 409q-330 0 -330 -409zM82 537q0 259 125 408q134 161 387 161q254 0 389 -160q125 -149 125 -409q0 -259 -124 -409q-134 -161 -388 -161q-255 0 -389 160q-125 150 -125 410zM739 1217h-120l-285 348h201z" />
    <glyph glyph-name="oacute" unicode="&#xf3;" horiz-adv-x="1190" 
d="M266 537q0 -410 330 -410q326 0 326 410q0 409 -326 409q-330 0 -330 -409zM82 537q0 259 125 408q134 161 387 161q254 0 389 -160q125 -149 125 -409q0 -259 -124 -409q-134 -161 -388 -161q-255 0 -389 160q-125 150 -125 410zM453 1217l204 348h201l-285 -348h-120z
" />
    <glyph glyph-name="ocircumflex" unicode="&#xf4;" horiz-adv-x="1190" 
d="M266 537q0 -410 330 -410q326 0 326 410q0 409 -326 409q-330 0 -330 -409zM82 537q0 259 125 408q134 161 387 161q254 0 389 -160q125 -149 125 -409q0 -259 -124 -409q-134 -161 -388 -161q-255 0 -389 160q-125 150 -125 410zM301 1217l197 348h196l197 -348h-123
l-172 227l-174 -227h-121z" />
    <glyph glyph-name="otilde" unicode="&#xf5;" horiz-adv-x="1190" 
d="M266 537q0 -410 330 -410q326 0 326 410q0 409 -326 409q-330 0 -330 -409zM82 537q0 259 125 408q134 161 387 161q254 0 389 -160q125 -149 125 -409q0 -259 -124 -409q-134 -161 -388 -161q-255 0 -389 160q-125 150 -125 410zM889 1493q-41 -207 -197 -207
q-29 0 -65 10l-97 27q-29 8 -49 8q-62 0 -90 -69h-88q37 204 193 204q32 0 59 -8l99 -29q27 -8 53 -8q66 0 94 72h88z" />
    <glyph glyph-name="odieresis" unicode="&#xf6;" horiz-adv-x="1190" 
d="M266 537q0 -410 330 -410q326 0 326 410q0 409 -326 409q-330 0 -330 -409zM82 537q0 259 125 408q134 161 387 161q254 0 389 -160q125 -149 125 -409q0 -259 -124 -409q-134 -161 -388 -161q-255 0 -389 160q-125 150 -125 410zM670 1274v211h182v-211h-182zM340 1274
v211h182v-211h-182z" />
    <glyph glyph-name="divide" unicode="&#xf7;" horiz-adv-x="1706" 
d="M854 367q51 0 88 -37t37 -88q0 -52 -36.5 -88.5t-88.5 -36.5q-53 0 -89 36t-36 89q0 51 37 88t88 37zM1452 680v-139h-1198v139h1198zM854 1106q52 0 88.5 -37.5t36.5 -89.5t-36.5 -88.5t-88.5 -36.5t-88.5 36.5t-36.5 88.5t36.5 89.5t88.5 37.5z" />
    <glyph glyph-name="oslash" unicode="&#xf8;" horiz-adv-x="1190" 
d="M346 217q90 -98 242 -98q332 0 332 405q0 166 -41 258zM831 852q-90 102 -241 102q-332 0 -332 -417q0 -162 43 -248zM53 8l133 148q-104 139 -104 379q0 259 125 409q134 162 387 162q213 0 350 -127l123 135l66 -57l-127 -142q102 -146 102 -378q0 -259 -125 -409
q-134 -161 -387 -161q-215 0 -350 123l-127 -137z" />
    <glyph glyph-name="ugrave" unicode="&#xf9;" horiz-adv-x="1165" 
d="M315 1071v-657q0 -141 38 -202q49 -79 179 -79q316 0 316 361v577h180v-1071h-172v160q-113 -187 -354 -187q-134 0 -227 55q-106 62 -131 183q-11 52 -11 166v694h182zM727 1217h-120l-285 348h201z" />
    <glyph glyph-name="uacute" unicode="&#xfa;" horiz-adv-x="1165" 
d="M315 1071v-657q0 -141 38 -202q49 -79 179 -79q316 0 316 361v577h180v-1071h-172v160q-113 -187 -354 -187q-134 0 -227 55q-106 62 -131 183q-11 52 -11 166v694h182zM441 1217l204 348h201l-285 -348h-120z" />
    <glyph glyph-name="ucircumflex" unicode="&#xfb;" horiz-adv-x="1165" 
d="M315 1071v-657q0 -141 38 -202q49 -79 179 -79q316 0 316 361v577h180v-1071h-172v160q-113 -187 -354 -187q-134 0 -227 55q-106 62 -131 183q-11 52 -11 166v694h182zM289 1217l197 348h196l197 -348h-123l-172 227l-174 -227h-121z" />
    <glyph glyph-name="udieresis" unicode="&#xfc;" horiz-adv-x="1165" 
d="M315 1071v-657q0 -141 38 -202q49 -79 179 -79q316 0 316 361v577h180v-1071h-172v160q-113 -187 -354 -187q-134 0 -227 55q-106 62 -131 183q-11 52 -11 166v694h182zM658 1274v211h182v-211h-182zM328 1274v211h182v-211h-182z" />
    <glyph glyph-name="yacute" unicode="&#xfd;" horiz-adv-x="1038" 
d="M815 1071h201l-451 -1237q-56 -152 -107 -207q-72 -76 -210 -76q-50 0 -107 17v172q54 -16 105 -16q100 0 133 88l47 127l-406 1132h201l297 -866zM377 1217l204 348h201l-285 -348h-120z" />
    <glyph glyph-name="thorn" unicode="&#xfe;" horiz-adv-x="1214" 
d="M307 528q0 -401 318 -401q169 0 250 134q67 109 67 290q0 168 -74 273q-84 120 -245 120q-168 0 -249 -130q-67 -107 -67 -286zM137 -428v1901h176v-553q130 186 346 186q232 0 358 -173q113 -154 113 -394q0 -241 -112 -397q-127 -175 -359 -175q-222 0 -346 164v-559
h-176z" />
    <glyph glyph-name="ydieresis" unicode="&#xff;" horiz-adv-x="1038" 
d="M815 1071h201l-451 -1237q-56 -152 -107 -207q-72 -76 -210 -76q-50 0 -107 17v172q54 -16 105 -16q100 0 133 88l47 127l-406 1132h201l297 -866zM594 1274v211h182v-211h-182zM264 1274v211h182v-211h-182z" />
    <glyph glyph-name="glyph271" unicode="&#x102;" horiz-adv-x="1305" 
d="M361 1853h108q10 -139 183 -139q174 0 182 139h109q-21 -279 -291 -279t-291 279zM420 612h459l-228 650zM-6 0l547 1473h221l549 -1473h-217l-156 440h-580l-157 -440h-207z" />
    <glyph glyph-name="glyph272" unicode="&#x103;" 
d="M799 143q-168 -176 -379 -176q-159 0 -251 81q-97 85 -97 241q0 290 366 336q28 4 126.5 14t111.5 13q82 15 98 46q10 19 10 84q0 164 -241 164q-252 0 -252 -198h-170v8q0 176 130 269q114 81 298 81q418 0 418 -332v-536q0 -57 8 -76q14 -33 61 -33q15 0 47 6v-139
q-59 -16 -104 -16q-180 0 -180 157v6zM782 545q-72 -39 -247 -61q-59 -7 -93 -13q-184 -30 -184 -180q0 -166 193 -166q131 0 224 63q107 72 107 197v160zM263 1530h108q10 -139 183 -139q174 0 182 139h109q-21 -279 -291 -279t-291 279z" />
    <glyph glyph-name="Cacute" unicode="&#x106;" horiz-adv-x="1460" 
d="M1188 547h194q-13 -270 -183 -429t-441 -159q-335 0 -509 239q-155 212 -155 560q0 333 173 537q184 216 511 216q241 0 399 -120q169 -128 195 -361h-196q-58 303 -406 303q-246 0 -368 -184q-103 -157 -103 -416q0 -245 109 -408q127 -188 360 -188q183 0 297.5 113
t122.5 297zM619 1602l204 348h201l-285 -348h-120z" />
    <glyph glyph-name="cacute" unicode="&#x107;" horiz-adv-x="1075" 
d="M848 715q-17 229 -275 229q-162 0 -241 -127q-64 -104 -64 -278q0 -171 60 -276q75 -132 233 -132q258 0 295 254h172q-14 -203 -144 -312q-125 -106 -331 -106q-236 0 -360 170q-111 150 -111 395q0 252 117 405q130 169 374 169q193 0 315 -98q130 -104 138 -293h-178z
M426 1217l204 348h201l-285 -348h-120z" />
    <glyph glyph-name="Ccaron" unicode="&#x10c;" horiz-adv-x="1460" 
d="M1188 547h194q-13 -270 -183 -429t-441 -159q-335 0 -509 239q-155 212 -155 560q0 333 173 537q184 216 511 216q241 0 399 -120q169 -128 195 -361h-196q-58 303 -406 303q-246 0 -368 -184q-103 -157 -103 -416q0 -245 109 -408q127 -188 360 -188q183 0 297.5 113
t122.5 297zM467 1950h121l174 -228l172 228h123l-197 -348h-196z" />
    <glyph glyph-name="ccaron" unicode="&#x10d;" horiz-adv-x="1075" 
d="M848 715q-17 229 -275 229q-162 0 -241 -127q-64 -104 -64 -278q0 -171 60 -276q75 -132 233 -132q258 0 295 254h172q-14 -203 -144 -312q-125 -106 -331 -106q-236 0 -360 170q-111 150 -111 395q0 252 117 405q130 169 374 169q193 0 315 -98q130 -104 138 -293h-178z
M274 1565h121l174 -228l172 228h123l-197 -348h-196z" />
    <glyph glyph-name="Dslash" unicode="&#x110;" horiz-adv-x="1458" 
d="M713 1303h-346v-457h395v-127h-395v-539h346q446 0 446 568q0 246 -98 389q-113 166 -348 166zM166 0v719h-166v127h166v627h563q323 0 485 -200q148 -184 148 -515q0 -337 -149 -535q-167 -223 -492 -223h-555z" />
    <glyph glyph-name="dcroat" unicode="&#x111;" horiz-adv-x="1223" 
d="M1073 1473v-142h150v-112h-150v-1219h-174v135q-138 -168 -348 -168q-231 0 -357 172q-112 154 -112 393q0 241 111 397q126 177 358 177q222 0 348 -166v279h-344v112h344v142h174zM905 543q0 401 -317 401q-169 0 -252 -133q-68 -110 -68 -291q0 -168 75 -273
q86 -120 247 -120q167 0 248 130q67 107 67 286z" />
    <glyph glyph-name="Gbreve" unicode="&#x11e;" horiz-adv-x="1565" 
d="M1260 197q-180 -238 -496 -238q-318 0 -502 233q-168 214 -168 541q0 348 180 557q191 221 533 221q244 0 402 -120q167 -127 200 -363h-195q-28 154 -140 235q-105 76 -267 76q-257 0 -389 -175q-117 -156 -117 -423q0 -260 113 -419q130 -181 379 -181q212 0 334 128
t122 341v19h-461v166h646v-795h-131zM491 1915h108q10 -139 183 -139q174 0 182 139h109q-21 -279 -291 -279t-291 279z" />
    <glyph glyph-name="gbreve" unicode="&#x11f;" horiz-adv-x="1219" 
d="M590 944q-167 0 -248 -126q-68 -105 -68 -283q0 -174 70 -281q83 -127 248 -127q321 0 321 401q0 416 -323 416zM907 131q-126 -166 -340 -166q-233 0 -364 175q-117 158 -117 399q0 240 119 396q131 171 364 171q204 0 336 -170v135h176v-1048q0 -253 -124 -364
q-118 -105 -375 -105q-183 0 -302 64q-151 81 -151 249v8h176v-4q0 -166 283 -166q161 0 235 58q84 65 84 221v147zM319 1530h108q10 -139 183 -139q174 0 182 139h109q-21 -279 -291 -279t-291 279z" />
    <glyph glyph-name="glyph273" unicode="&#x128;" horiz-adv-x="526" 
d="M162 0v1473h200v-1473h-200zM592 1878q-41 -207 -197 -207q-29 0 -65 10l-97 27q-29 8 -49 8q-62 0 -90 -69h-88q37 204 193 204q32 0 59 -8l99 -29q27 -8 53 -8q66 0 94 72h88z" />
    <glyph glyph-name="glyph274" unicode="&#x129;" horiz-adv-x="455" 
d="M137 0v1071h180v-1071h-180zM587 1493q-41 -207 -197 -207q-29 0 -65 10l-97 27q-29 8 -49 8q-62 0 -90 -69h-88q37 204 193 204q32 0 59 -8l99 -29q27 -8 53 -8q66 0 94 72h88z" />
    <glyph glyph-name="Idotaccent" unicode="&#x130;" horiz-adv-x="526" 
d="M162 0v1473h200v-1473h-200zM168 1655v219h192v-219h-192z" />
    <glyph glyph-name="dotlessi" unicode="&#x131;" horiz-adv-x="455" 
d="M137 0v1071h180v-1071h-180z" />
    <glyph glyph-name="Lslash" unicode="&#x141;" horiz-adv-x="1104" 
d="M166 0v590l-141 -107l-78 105l219 166v719h203v-596l360 270l80 -105l-440 -331v-525h733v-186h-936z" />
    <glyph glyph-name="lslash" unicode="&#x142;" horiz-adv-x="473" 
d="M145 0v623l-110 -84l-70 94l180 137v703h183v-596l110 84l72 -95l-182 -137v-729h-183z" />
    <glyph glyph-name="OE" unicode="&#x152;" horiz-adv-x="2363" 
d="M1208 338v797q-144 202 -401 202q-260 0 -392 -176q-118 -157 -118 -426q0 -267 117 -424q132 -178 389 -178q268 0 405 205zM1208 133q-151 -174 -426 -174q-343 0 -523 221q-167 204 -167 555q0 347 164 552q179 224 516 224q290 0 436 -172v134h1051v-183h-854v-440
h790v-172h-790v-494h872v-184h-1069v133z" />
    <glyph glyph-name="oe" unicode="&#x153;" horiz-adv-x="1903" 
d="M272 537q0 -173 63 -279q78 -131 238 -131t240 145q64 116 64 289q0 159 -66 263q-79 122 -229 122q-164 0 -244 -128q-66 -106 -66 -281zM1057 633h585v6q0 140 -73 222q-77 85 -215 85q-133 0 -214 -91q-74 -85 -83 -222zM952 182q-119 -217 -383 -217q-241 0 -369 160
q-118 148 -118 395q0 262 115 415q129 171 383 171q266 0 387 -203q147 203 387 203q236 0 364 -155q117 -144 117 -386q0 -18 -4 -74v-6h-776q3 -157 76 -251q82 -105 233 -105q228 0 272 217h179q-30 -179 -156 -280t-309 -101q-283 0 -398 217z" />
    <glyph glyph-name="Scedilla" unicode="&#x15e;" horiz-adv-x="1323" 
d="M90 485h193q3 -166 111 -260q103 -90 272 -90q152 0 249 58q119 72 119 213q0 167 -359 252q-35 8 -91 22q-219 53 -309 115q-138 96 -138 280q0 213 162 331q144 105 365 105q234 0 375 -117q151 -125 151 -354h-191q-10 151 -104 230q-91 76 -244 76q-129 0 -217 -52
q-106 -64 -106 -184q0 -170 357 -253q34 -8 90 -22q232 -56 321 -119q137 -96 137 -292q0 -236 -166 -357q-145 -105 -391 -108v-70h26q213 0 213 -157q0 -176 -239 -176q-106 0 -246 38l-2 93q162 -37 246 -37q104 0 104 74q0 79 -119 79q-10 0 -29 -1h-28v157
q-231 14 -367.5 154t-144.5 372z" />
    <glyph glyph-name="scedilla" unicode="&#x15f;" horiz-adv-x="1016" 
d="M63 348h174q20 -221 273 -221q98 0 167 36q87 45 87 134q0 58 -33 90q-31 28 -135 55l-201 52q-174 45 -237 109q-66 67 -66 192q0 158 127 240q108 69 275 69q172 0 286 -76q131 -88 131 -252v-4h-175q-13 178 -242 178q-222 0 -222 -149q0 -93 168 -133l174 -41
q158 -37 228 -88q98 -73 98 -211q0 -181 -123 -274q-110 -83 -297 -83v-82h27q213 0 213 -157q0 -176 -240 -176q-106 0 -244 38v93q156 -37 242 -37q105 0 105 74q0 79 -119 79q-31 0 -57 -2l-1 166h-30q-149 0 -252 112q-101 109 -101 259v10z" />
    <glyph glyph-name="Scaron" unicode="&#x160;" horiz-adv-x="1323" 
d="M90 485h193q3 -166 111 -260q104 -90 272 -90q150 0 248 58q120 70 120 210q0 169 -370 257l-34 8q-244 58 -336 115q-157 98 -157 292q0 213 162 331q144 105 365 105q234 0 374 -116q150 -125 152 -354l-191 -1q-21 306 -348 306q-129 0 -217 -52q-106 -64 -106 -184
q0 -171 364 -255q32 -8 83 -20l21 -5q238 -57 316 -123q121 -102 121 -281q0 -231 -173 -355q-152 -110 -392 -110q-262 0 -412 130q-155 135 -166 394zM367 1950h121l174 -228l172 228h123l-197 -348h-196z" />
    <glyph glyph-name="scaron" unicode="&#x161;" horiz-adv-x="1016" 
d="M64 348h173q20 -221 273 -221q99 0 166 35q84 45 84 135q0 59 -33 91q-31 28 -131 54l-201 52q-174 45 -236 109q-67 67 -67 192q0 158 127 240q108 69 275 69q173 0 286 -76q131 -87 131 -252v-4h-175q-13 178 -242 178q-222 0 -222 -149q0 -62 56 -95q32 -19 112 -38
l174 -41q162 -38 231 -91q95 -74 95 -217q0 -182 -137 -274q-117 -78 -309 -78q-424 0 -430 381zM213 1565h121l174 -228l172 228h123l-197 -348h-196z" />
    <glyph glyph-name="glyph275" unicode="&#x168;" horiz-adv-x="1452" 
d="M150 559v914h200v-916q0 -405 375 -405q377 0 377 405v916h201v-914q0 -600 -601 -600q-552 0 -552 600zM1086 1878q-41 -207 -197 -207q-29 0 -65 10l-97 27q-29 8 -49 8q-62 0 -90 -69h-88q37 204 193 204q32 0 59 -8l99 -29q27 -8 53 -8q66 0 94 72h88z" />
    <glyph glyph-name="glyph276" unicode="&#x169;" horiz-adv-x="1165" 
d="M315 1071v-657q0 -141 38 -202q49 -79 179 -79q316 0 316 361v577h180v-1071h-172v160q-113 -187 -354 -187q-134 0 -227 55q-106 62 -131 183q-11 52 -11 166v694h182zM889 1493q-41 -207 -197 -207q-29 0 -65 10l-97 27q-29 8 -49 8q-62 0 -90 -69h-88q37 204 193 204
q32 0 59 -8l99 -29q27 -8 53 -8q66 0 94 72h88z" />
    <glyph glyph-name="Ydieresis" unicode="&#x178;" horiz-adv-x="1235" 
d="M729 0h-201v590l-546 883h251l394 -697l391 697h235l-524 -869v-604zM692 1659v211h182v-211h-182zM362 1659v211h182v-211h-182z" />
    <glyph glyph-name="Zcaron" unicode="&#x17d;" horiz-adv-x="1225" 
d="M57 0v166l901 1132h-841v175h1073v-185l-883 -1108h883v-180h-1133zM317 1950h121l174 -228l172 228h123l-197 -348h-196z" />
    <glyph glyph-name="zcaron" unicode="&#x17e;" horiz-adv-x="985" 
d="M915 1071v-145l-626 -764h655v-162h-893v147l633 766h-600v158h831zM199 1565h121l174 -228l172 228h123l-197 -348h-196z" />
    <glyph glyph-name="florin" unicode="&#x192;" horiz-adv-x="1124" 
d="M-35 -377l47 160q60 -37 121 -37q92 0 138 117q16 41 44 194l138 744h-211v147h241q44 254 96 363q95 200 281 200q90 0 178 -45l-47 -151q-68 33 -114 33q-103 0 -154 -159q-15 -46 -47 -241h229v-147h-256l-123 -660q-49 -265 -98 -366q-94 -199 -285 -199
q-90 0 -178 47z" />
    <glyph glyph-name="glyph277" unicode="&#x1a0;" horiz-adv-x="1583" 
d="M301 735q0 -261 113 -420q129 -182 379 -182q249 0 377 183q112 159 112 419q0 261 -111 420q-128 182 -378 182t-379 -182q-113 -159 -113 -420zM1308 1376v205h198v-236q0 -143 -90 -214q73 -166 73 -396q0 -350 -171 -555q-183 -221 -525 -221q-343 0 -527 220
q-172 206 -172 556t172 556q184 220 527 220q327 0 512 -205q38 -43 68 -93q35 44 35 120v43h-100z" />
    <glyph glyph-name="glyph278" unicode="&#x1a1;" horiz-adv-x="1190" 
d="M266 537q0 -410 330 -410q326 0 326 410q0 409 -326 409q-330 0 -330 -409zM989 1022v205h198v-236q0 -159 -109 -227q30 -100 30 -227q0 -259 -124 -409q-134 -161 -388 -161q-255 0 -389 160q-125 150 -125 410q0 259 125 408q134 161 387 161q244 0 379 -149
q43 -48 72 -108q44 43 44 130v43h-100z" />
    <glyph glyph-name="glyph279" unicode="&#x1af;" horiz-adv-x="1452" 
d="M1303 1181q77 30 77 152v43h-77v-195zM1280 1473v108h198v-236q0 -206 -175 -256v-530q0 -600 -601 -600q-552 0 -552 600v914h200v-916q0 -405 375 -405q377 0 377 405v916h178z" />
    <glyph glyph-name="glyph280" unicode="&#x1b0;" horiz-adv-x="1165" 
d="M1028 835q61 38 61 144v43h-61v-187zM989 1071v156h198v-236q0 -195 -159 -251v-740h-172v160q-113 -187 -354 -187q-134 0 -227 55q-106 62 -131 183q-11 52 -11 166v694h182v-657q0 -141 38 -202q49 -79 179 -79q316 0 316 361v577h141z" />
    <glyph glyph-name="circumflex" unicode="&#x2c6;" horiz-adv-x="1024" 
d="M217 1217l197 348h196l197 -348h-123l-172 227l-174 -227h-121z" />
    <glyph glyph-name="caron" unicode="&#x2c7;" horiz-adv-x="1024" 
d="M217 1565h121l174 -228l172 228h123l-197 -348h-196z" />
    <glyph glyph-name="breve" unicode="&#x2d8;" horiz-adv-x="1024" 
d="M221 1530h108q10 -139 183 -139q174 0 182 139h109q-21 -279 -291 -279t-291 279z" />
    <glyph glyph-name="dotaccent" unicode="&#x2d9;" horiz-adv-x="1024" 
d="M416 1270v219h192v-219h-192z" />
    <glyph glyph-name="ring" unicode="&#x2da;" horiz-adv-x="1024" 
d="M377 1423q0 -57 39 -96t96 -39q56 0 95.5 39.5t39.5 95.5t-39.5 96t-95.5 40q-57 0 -96 -39.5t-39 -96.5zM260 1423q0 107 72.5 179.5t179.5 72.5t180.5 -72.5t73.5 -179.5q0 -106 -74 -179t-180 -73q-107 0 -179.5 72.5t-72.5 179.5z" />
    <glyph glyph-name="ogonek" unicode="&#x2db;" horiz-adv-x="1024" 
d="M621 0q-138 -121 -138 -221q0 -78 97 -78h84v-143h-86q-226 0 -226 168q0 126 187 274h82z" />
    <glyph glyph-name="tilde" unicode="&#x2dc;" horiz-adv-x="1024" 
d="M805 1493q-41 -207 -197 -207q-29 0 -65 10l-97 27q-29 8 -49 8q-62 0 -90 -69h-88q37 204 193 204q32 0 59 -8l99 -29q27 -8 53 -8q66 0 94 72h88z" />
    <glyph glyph-name="hungarumlaut" unicode="&#x2dd;" horiz-adv-x="1024" 
d="M569 1217l166 348h176l-245 -348h-97zM311 1217l138 348h178l-219 -348h-97z" />
    <glyph glyph-name="Delta" unicode="&#x394;" horiz-adv-x="1370" 
d="M684 1262l-418 -1084h836zM573 1473h224l579 -1473h-1382z" />
    <glyph glyph-name="Delta" unicode="&#x2206;" horiz-adv-x="1370" 
d="M684 1262l-418 -1084h836zM573 1473h224l579 -1473h-1382z" />
    <glyph glyph-name="Omega" unicode="&#x3a9;" horiz-adv-x="1565" 
d="M1487 178v-178h-600v178q178 97 276.5 263t98.5 368q0 230 -123 376q-131 154 -357 154t-357 -155q-124 -145 -124 -375q0 -202 99.5 -368t277.5 -263v-178h-600v178h319q-303 267 -303 621q0 314 186 511q190 201 502 201q307 0 499 -198q189 -196 189 -504
q0 -199 -76 -351q-71 -143 -227 -280h320z" />
    <glyph glyph-name="Omega" unicode="&#x2126;" horiz-adv-x="1565" 
d="M1487 178v-178h-600v178q178 97 276.5 263t98.5 368q0 230 -123 376q-131 154 -357 154t-357 -155q-124 -145 -124 -375q0 -202 99.5 -368t277.5 -263v-178h-600v178h319q-303 267 -303 621q0 314 186 511q190 201 502 201q307 0 499 -198q189 -196 189 -504
q0 -199 -76 -351q-71 -143 -227 -280h320z" />
    <glyph glyph-name="pi" unicode="&#x3c0;" horiz-adv-x="1206" 
d="M1159 913h-182l-105 -487q-30 -139 -30 -188q0 -107 102 -107q26 0 100 10l-30 -141q-60 -16 -111 -16q-239 0 -239 202q0 92 55 351l80 376h-326l-194 -913h-181l195 913h-41q-106 0 -123 -133h-160q28 164 99.5 227.5t236.5 63.5h889z" />
    <glyph glyph-name="glyph281" unicode="&#x1ea0;" horiz-adv-x="1305" 
d="M420 612h459l-228 650zM-6 0l547 1473h221l549 -1473h-217l-156 440h-580l-157 -440h-207zM550 -376v223h205v-223h-205z" />
    <glyph glyph-name="glyph282" unicode="&#x1ea1;" 
d="M799 143q-168 -176 -379 -176q-159 0 -251 81q-97 85 -97 241q0 290 366 336q28 4 126.5 14t111.5 13q82 15 98 46q10 19 10 84q0 164 -241 164q-252 0 -252 -198h-170v8q0 176 130 269q114 81 298 81q418 0 418 -332v-536q0 -57 8 -76q14 -33 61 -33q15 0 47 6v-139
q-59 -16 -104 -16q-180 0 -180 157v6zM782 545q-72 -39 -247 -61q-59 -7 -93 -13q-184 -30 -184 -180q0 -166 193 -166q131 0 224 63q107 72 107 197v160zM452 -376v223h205v-223h-205z" />
    <glyph glyph-name="glyph283" unicode="&#x1ea2;" horiz-adv-x="1305" 
d="M420 612h459l-228 650zM-6 0l547 1473h221l549 -1473h-217l-156 440h-580l-157 -440h-207zM621 1594l-1 13q0 62 48 110l24 24q34 34 34 74q0 68 -72 68q-79 0 -83 -98h-83v8q0 93 55 142q50 45 111 47q81 3 129 -38q56 -48 56 -127q0 -36 -22 -71q-1 -3 -39 -45
q-14 -15 -52 -53q-19 -22 -19 -39v-15h-86z" />
    <glyph glyph-name="glyph284" unicode="&#x1ea3;" 
d="M799 143q-168 -176 -379 -176q-159 0 -251 81q-97 85 -97 241q0 290 366 336q28 4 126.5 14t111.5 13q82 15 98 46q10 19 10 84q0 164 -241 164q-252 0 -252 -198h-170v8q0 176 130 269q114 81 298 81q418 0 418 -332v-536q0 -57 8 -76q14 -33 61 -33q15 0 47 6v-139
q-59 -16 -104 -16q-180 0 -180 157v6zM782 545q-72 -39 -247 -61q-59 -7 -93 -13q-184 -30 -184 -180q0 -166 193 -166q131 0 224 63q107 72 107 197v160zM529 1199l-1 13q0 62 48 110l24 24q34 34 34 74q0 68 -72 68q-79 0 -83 -98h-83v8q0 93 55 142q50 45 111 47
q81 3 129 -38q56 -48 56 -127q0 -36 -22 -71q-1 -3 -39 -45q-14 -15 -52 -53q-19 -22 -19 -39v-15h-86z" />
    <glyph glyph-name="glyph285" unicode="&#x1ea4;" horiz-adv-x="1305" 
d="M420 612h459l-228 650zM-6 0l547 1473h221l549 -1473h-217l-156 440h-580l-157 -440h-207zM358 1539l197 348h196l197 -348h-123l-172 227l-174 -227h-121zM361 1911l204 348h201l-285 -348h-120z" />
    <glyph glyph-name="glyph286" unicode="&#x1ea5;" 
d="M799 143q-168 -176 -379 -176q-159 0 -251 81q-97 85 -97 241q0 290 366 336q28 4 126.5 14t111.5 13q82 15 98 46q10 19 10 84q0 164 -241 164q-252 0 -252 -198h-170v8q0 176 130 269q114 81 298 81q418 0 418 -332v-536q0 -57 8 -76q14 -33 61 -33q15 0 47 6v-139
q-59 -16 -104 -16q-180 0 -180 157v6zM782 545q-72 -39 -247 -61q-59 -7 -93 -13q-184 -30 -184 -180q0 -166 193 -166q131 0 224 63q107 72 107 197v160zM262 1217l197 348h196l197 -348h-123l-172 227l-174 -227h-121zM264 1588l204 348h201l-285 -348h-120z" />
    <glyph glyph-name="glyph287" unicode="&#x1ea6;" horiz-adv-x="1305" 
d="M420 612h459l-228 650zM-6 0l547 1473h221l549 -1473h-217l-156 440h-580l-157 -440h-207zM358 1539l197 348h196l197 -348h-123l-172 227l-174 -227h-121zM949 1910h-120l-285 348h201z" />
    <glyph glyph-name="glyph288" unicode="&#x1ea7;" 
d="M799 143q-168 -176 -379 -176q-159 0 -251 81q-97 85 -97 241q0 290 366 336q28 4 126.5 14t111.5 13q82 15 98 46q10 19 10 84q0 164 -241 164q-252 0 -252 -198h-170v8q0 176 130 269q114 81 298 81q418 0 418 -332v-536q0 -57 8 -76q14 -33 61 -33q15 0 47 6v-139
q-59 -16 -104 -16q-180 0 -180 157v6zM782 545q-72 -39 -247 -61q-59 -7 -93 -13q-184 -30 -184 -180q0 -166 193 -166q131 0 224 63q107 72 107 197v160zM262 1217l197 348h196l197 -348h-123l-172 227l-174 -227h-121zM853 1587h-120l-285 348h201z" />
    <glyph glyph-name="glyph289" unicode="&#x1ea8;" horiz-adv-x="1305" 
d="M420 612h459l-228 650zM-6 0l547 1473h221l549 -1473h-217l-156 440h-580l-157 -440h-207zM358 1539l197 348h196l197 -348h-123l-172 227l-174 -227h-121zM833 1864l-1 13q0 62 48 110l24 24q34 34 34 74q0 68 -72 68q-79 0 -83 -98h-83v8q0 93 55 142q50 45 111 47
q81 3 129 -38q56 -48 56 -127q0 -36 -22 -71q-1 -3 -39 -45q-14 -15 -52 -53q-19 -22 -19 -39v-15h-86z" />
    <glyph glyph-name="glyph290" unicode="&#x1ea9;" 
d="M799 143q-168 -176 -379 -176q-159 0 -251 81q-97 85 -97 241q0 290 366 336q28 4 126.5 14t111.5 13q82 15 98 46q10 19 10 84q0 164 -241 164q-252 0 -252 -198h-170v8q0 176 130 269q114 81 298 81q418 0 418 -332v-536q0 -57 8 -76q14 -33 61 -33q15 0 47 6v-139
q-59 -16 -104 -16q-180 0 -180 157v6zM782 545q-72 -39 -247 -61q-59 -7 -93 -13q-184 -30 -184 -180q0 -166 193 -166q131 0 224 63q107 72 107 197v160zM262 1217l197 348h196l197 -348h-123l-172 227l-174 -227h-121zM737 1541l-1 13q0 62 48 110l24 24q34 34 34 74
q0 68 -72 68q-79 0 -83 -98h-83v8q0 93 55 142q50 45 111 47q81 3 129 -38q56 -48 56 -127q0 -36 -22 -71q-1 -3 -39 -45q-14 -15 -52 -53q-19 -22 -19 -39v-15h-86z" />
    <glyph glyph-name="glyph291" unicode="&#x1eaa;" horiz-adv-x="1305" 
d="M420 612h459l-228 650zM-6 0l547 1473h221l549 -1473h-217l-156 440h-580l-157 -440h-207zM358 1539l197 348h196l197 -348h-123l-172 227l-174 -227h-121zM999 2182q-41 -207 -197 -207q-29 0 -65 10l-97 27q-29 8 -49 8q-62 0 -90 -69h-88q37 204 193 204q32 0 59 -8
l99 -29q27 -8 53 -8q66 0 94 72h88z" />
    <glyph glyph-name="glyph292" unicode="&#x1eab;" 
d="M799 143q-168 -176 -379 -176q-159 0 -251 81q-97 85 -97 241q0 290 366 336q28 4 126.5 14t111.5 13q82 15 98 46q10 19 10 84q0 164 -241 164q-252 0 -252 -198h-170v8q0 176 130 269q114 81 298 81q418 0 418 -332v-536q0 -57 8 -76q14 -33 61 -33q15 0 47 6v-139
q-59 -16 -104 -16q-180 0 -180 157v6zM782 545q-72 -39 -247 -61q-59 -7 -93 -13q-184 -30 -184 -180q0 -166 193 -166q131 0 224 63q107 72 107 197v160zM262 1217l197 348h196l197 -348h-123l-172 227l-174 -227h-121zM903 1859q-41 -207 -197 -207q-29 0 -65 10l-97 27
q-29 8 -49 8q-62 0 -90 -69h-88q37 204 193 204q32 0 59 -8l99 -29q27 -8 53 -8q66 0 94 72h88z" />
    <glyph glyph-name="glyph293" unicode="&#x1eac;" horiz-adv-x="1305" 
d="M420 612h459l-228 650zM-6 0l547 1473h221l549 -1473h-217l-156 440h-580l-157 -440h-207zM358 1539l197 348h196l197 -348h-123l-172 227l-174 -227h-121zM550 -376v223h205v-223h-205z" />
    <glyph glyph-name="glyph294" unicode="&#x1ead;" 
d="M799 143q-168 -176 -379 -176q-159 0 -251 81q-97 85 -97 241q0 290 366 336q28 4 126.5 14t111.5 13q82 15 98 46q10 19 10 84q0 164 -241 164q-252 0 -252 -198h-170v8q0 176 130 269q114 81 298 81q418 0 418 -332v-536q0 -57 8 -76q14 -33 61 -33q15 0 47 6v-139
q-59 -16 -104 -16q-180 0 -180 157v6zM782 545q-72 -39 -247 -61q-59 -7 -93 -13q-184 -30 -184 -180q0 -166 193 -166q131 0 224 63q107 72 107 197v160zM262 1217l197 348h196l197 -348h-123l-172 227l-174 -227h-121zM452 -376v223h205v-223h-205z" />
    <glyph glyph-name="glyph295" unicode="&#x1eae;" horiz-adv-x="1305" 
d="M361 1853h108q10 -139 183 -139q174 0 182 139h109q-21 -279 -291 -279t-291 279zM420 612h459l-228 650zM-6 0l547 1473h221l549 -1473h-217l-156 440h-580l-157 -440h-207zM475 1912l204 348h201l-285 -348h-120z" />
    <glyph glyph-name="glyph296" unicode="&#x1eaf;" 
d="M799 143q-168 -176 -379 -176q-159 0 -251 81q-97 85 -97 241q0 290 366 336q28 4 126.5 14t111.5 13q82 15 98 46q10 19 10 84q0 164 -241 164q-252 0 -252 -198h-170v8q0 176 130 269q114 81 298 81q418 0 418 -332v-536q0 -57 8 -76q14 -33 61 -33q15 0 47 6v-139
q-59 -16 -104 -16q-180 0 -180 157v6zM782 545q-72 -39 -247 -61q-59 -7 -93 -13q-184 -30 -184 -180q0 -166 193 -166q131 0 224 63q107 72 107 197v160zM263 1530h108q10 -139 183 -139q174 0 182 139h109q-21 -279 -291 -279t-291 279zM376 1588l204 348h201l-285 -348
h-120z" />
    <glyph glyph-name="glyph297" unicode="&#x1eb0;" horiz-adv-x="1305" 
d="M361 1853h108q10 -139 183 -139q174 0 182 139h109q-21 -279 -291 -279t-291 279zM420 612h459l-228 650zM-6 0l547 1473h221l549 -1473h-217l-156 440h-580l-157 -440h-207zM834 1911h-120l-285 348h201z" />
    <glyph glyph-name="glyph298" unicode="&#x1eb1;" 
d="M799 143q-168 -176 -379 -176q-159 0 -251 81q-97 85 -97 241q0 290 366 336q28 4 126.5 14t111.5 13q82 15 98 46q10 19 10 84q0 164 -241 164q-252 0 -252 -198h-170v8q0 176 130 269q114 81 298 81q418 0 418 -332v-536q0 -57 8 -76q14 -33 61 -33q15 0 47 6v-139
q-59 -16 -104 -16q-180 0 -180 157v6zM782 545q-72 -39 -247 -61q-59 -7 -93 -13q-184 -30 -184 -180q0 -166 193 -166q131 0 224 63q107 72 107 197v160zM263 1530h108q10 -139 183 -139q174 0 182 139h109q-21 -279 -291 -279t-291 279zM737 1587h-120l-285 348h201z" />
    <glyph glyph-name="glyph299" unicode="&#x1eb2;" horiz-adv-x="1305" 
d="M361 1853h108q10 -139 183 -139q174 0 182 139h109q-21 -279 -291 -279t-291 279zM420 612h459l-228 650zM-6 0l547 1473h221l549 -1473h-217l-156 440h-580l-157 -440h-207zM614 1864l-1 13q0 62 48 110l24 24q34 34 34 74q0 68 -72 68q-79 0 -83 -98h-83v8q0 93 55 142
q50 45 111 47q81 3 129 -38q56 -48 56 -127q0 -36 -22 -71q-1 -3 -39 -45q-14 -15 -52 -53q-19 -22 -19 -39v-15h-86z" />
    <glyph glyph-name="glyph300" unicode="&#x1eb3;" 
d="M799 143q-168 -176 -379 -176q-159 0 -251 81q-97 85 -97 241q0 290 366 336q28 4 126.5 14t111.5 13q82 15 98 46q10 19 10 84q0 164 -241 164q-252 0 -252 -198h-170v8q0 176 130 269q114 81 298 81q418 0 418 -332v-536q0 -57 8 -76q14 -33 61 -33q15 0 47 6v-139
q-59 -16 -104 -16q-180 0 -180 157v6zM782 545q-72 -39 -247 -61q-59 -7 -93 -13q-184 -30 -184 -180q0 -166 193 -166q131 0 224 63q107 72 107 197v160zM263 1530h108q10 -139 183 -139q174 0 182 139h109q-21 -279 -291 -279t-291 279zM517 1541l-1 13q0 62 48 110l24 24
q34 34 34 74q0 68 -72 68q-79 0 -83 -98h-83v8q0 93 55 142q50 45 111 47q81 3 129 -38q56 -48 56 -127q0 -36 -22 -71q-1 -3 -39 -45q-14 -15 -52 -53q-19 -22 -19 -39v-15h-86z" />
    <glyph glyph-name="glyph301" unicode="&#x1eb4;" horiz-adv-x="1305" 
d="M361 1853h108q10 -139 183 -139q174 0 182 139h109q-21 -279 -291 -279t-291 279zM420 612h459l-228 650zM-6 0l547 1473h221l549 -1473h-217l-156 440h-580l-157 -440h-207zM1001 2182q-41 -207 -197 -207q-29 0 -65 10l-97 27q-29 8 -49 8q-62 0 -90 -69h-88
q37 204 193 204q32 0 59 -8l99 -29q27 -8 53 -8q66 0 94 72h88z" />
    <glyph glyph-name="glyph302" unicode="&#x1eb5;" 
d="M799 143q-168 -176 -379 -176q-159 0 -251 81q-97 85 -97 241q0 290 366 336q28 4 126.5 14t111.5 13q82 15 98 46q10 19 10 84q0 164 -241 164q-252 0 -252 -198h-170v8q0 176 130 269q114 81 298 81q418 0 418 -332v-536q0 -57 8 -76q14 -33 61 -33q15 0 47 6v-139
q-59 -16 -104 -16q-180 0 -180 157v6zM782 545q-72 -39 -247 -61q-59 -7 -93 -13q-184 -30 -184 -180q0 -166 193 -166q131 0 224 63q107 72 107 197v160zM263 1530h108q10 -139 183 -139q174 0 182 139h109q-21 -279 -291 -279t-291 279zM903 1859q-41 -207 -197 -207
q-29 0 -65 10l-97 27q-29 8 -49 8q-62 0 -90 -69h-88q37 204 193 204q32 0 59 -8l99 -29q27 -8 53 -8q66 0 94 72h88z" />
    <glyph glyph-name="glyph303" unicode="&#x1eb6;" horiz-adv-x="1305" 
d="M361 1853h108q10 -139 183 -139q174 0 182 139h109q-21 -279 -291 -279t-291 279zM420 612h459l-228 650zM-6 0l547 1473h221l549 -1473h-217l-156 440h-580l-157 -440h-207zM550 -376v223h205v-223h-205z" />
    <glyph glyph-name="glyph304" unicode="&#x1eb7;" 
d="M799 143q-168 -176 -379 -176q-159 0 -251 81q-97 85 -97 241q0 290 366 336q28 4 126.5 14t111.5 13q82 15 98 46q10 19 10 84q0 164 -241 164q-252 0 -252 -198h-170v8q0 176 130 269q114 81 298 81q418 0 418 -332v-536q0 -57 8 -76q14 -33 61 -33q15 0 47 6v-139
q-59 -16 -104 -16q-180 0 -180 157v6zM782 545q-72 -39 -247 -61q-59 -7 -93 -13q-184 -30 -184 -180q0 -166 193 -166q131 0 224 63q107 72 107 197v160zM263 1530h108q10 -139 183 -139q174 0 182 139h109q-21 -279 -291 -279t-291 279zM452 -376v223h205v-223h-205z" />
    <glyph glyph-name="glyph305" unicode="&#x1eb8;" horiz-adv-x="1309" 
d="M158 0v1473h1050v-183h-852v-440h787v-172h-787v-494h869v-184h-1067zM576 -376v223h205v-223h-205z" />
    <glyph glyph-name="glyph306" unicode="&#x1eb9;" horiz-adv-x="1120" 
d="M274 633h588q-2 313 -289 313q-272 0 -299 -313zM858 346h178q-30 -181 -158 -283q-125 -98 -311 -98q-237 0 -365 165q-116 150 -116 394q0 253 111 407q127 175 370 175q242 0 368 -154q116 -141 116 -389q0 -57 -3 -80h-773q3 -159 75 -251q81 -103 234 -103
q230 0 274 217zM472 -376v223h205v-223h-205z" />
    <glyph glyph-name="glyph307" unicode="&#x1eba;" horiz-adv-x="1309" 
d="M158 0v1473h1050v-183h-852v-440h787v-172h-787v-494h869v-184h-1067zM665 1594l-1 13q0 62 48 110l24 24q34 34 34 74q0 68 -72 68q-79 0 -83 -98h-83v8q0 93 55 142q50 45 111 47q81 3 129 -38q56 -48 56 -127q0 -36 -22 -71q-1 -3 -39 -45q-14 -15 -52 -53
q-19 -22 -19 -39v-15h-86z" />
    <glyph glyph-name="glyph308" unicode="&#x1ebb;" horiz-adv-x="1120" 
d="M274 633h588q-2 313 -289 313q-272 0 -299 -313zM858 346h178q-30 -181 -158 -283q-125 -98 -311 -98q-237 0 -365 165q-116 150 -116 394q0 253 111 407q127 175 370 175q242 0 368 -154q116 -141 116 -389q0 -57 -3 -80h-773q3 -159 75 -251q81 -103 234 -103
q230 0 274 217zM531 1199l-1 13q0 62 48 110l24 24q34 34 34 74q0 68 -72 68q-79 0 -83 -98h-83v8q0 93 55 142q50 45 111 47q81 3 129 -38q56 -48 56 -127q0 -36 -22 -71q-1 -3 -39 -45q-14 -15 -52 -53q-19 -22 -19 -39v-15h-86z" />
    <glyph glyph-name="glyph309" unicode="&#x1ebc;" horiz-adv-x="1309" 
d="M158 0v1473h1050v-183h-852v-440h787v-172h-787v-494h869v-184h-1067zM998 1878q-41 -207 -197 -207q-29 0 -65 10l-97 27q-29 8 -49 8q-62 0 -90 -69h-88q37 204 193 204q32 0 59 -8l99 -29q27 -8 53 -8q66 0 94 72h88z" />
    <glyph glyph-name="glyph310" unicode="&#x1ebd;" horiz-adv-x="1120" 
d="M274 633h588q-2 313 -289 313q-272 0 -299 -313zM858 346h178q-30 -181 -158 -283q-125 -98 -311 -98q-237 0 -365 165q-116 150 -116 394q0 253 111 407q127 175 370 175q242 0 368 -154q116 -141 116 -389q0 -57 -3 -80h-773q3 -159 75 -251q81 -103 234 -103
q230 0 274 217zM889 1493q-41 -207 -197 -207q-29 0 -65 10l-97 27q-29 8 -49 8q-62 0 -90 -69h-88q37 204 193 204q32 0 59 -8l99 -29q27 -8 53 -8q66 0 94 72h88z" />
    <glyph glyph-name="glyph311" unicode="&#x1ebe;" horiz-adv-x="1309" 
d="M158 0v1473h1050v-183h-852v-440h787v-172h-787v-494h869v-184h-1067zM380 1539l197 348h196l197 -348h-123l-172 227l-174 -227h-121zM382 1910l204 348h201l-285 -348h-120z" />
    <glyph glyph-name="glyph312" unicode="&#x1ebf;" horiz-adv-x="1120" 
d="M274 633h588q-2 313 -289 313q-272 0 -299 -313zM858 346h178q-30 -181 -158 -283q-125 -98 -311 -98q-237 0 -365 165q-116 150 -116 394q0 253 111 407q127 175 370 175q242 0 368 -154q116 -141 116 -389q0 -57 -3 -80h-773q3 -159 75 -251q81 -103 234 -103
q230 0 274 217zM278 1217l197 348h196l197 -348h-123l-172 227l-174 -227h-121zM280 1588l204 348h201l-285 -348h-120z" />
    <glyph glyph-name="glyph313" unicode="&#x1ec0;" horiz-adv-x="1309" 
d="M158 0v1473h1050v-183h-852v-440h787v-172h-787v-494h869v-184h-1067zM380 1539l197 348h196l197 -348h-123l-172 227l-174 -227h-121zM971 1910h-120l-285 348h201z" />
    <glyph glyph-name="glyph314" unicode="&#x1ec1;" horiz-adv-x="1120" 
d="M274 633h588q-2 313 -289 313q-272 0 -299 -313zM858 346h178q-30 -181 -158 -283q-125 -98 -311 -98q-237 0 -365 165q-116 150 -116 394q0 253 111 407q127 175 370 175q242 0 368 -154q116 -141 116 -389q0 -57 -3 -80h-773q3 -159 75 -251q81 -103 234 -103
q230 0 274 217zM278 1217l197 348h196l197 -348h-123l-172 227l-174 -227h-121zM869 1587h-120l-285 348h201z" />
    <glyph glyph-name="glyph315" unicode="&#x1ec2;" horiz-adv-x="1309" 
d="M158 0v1473h1050v-183h-852v-440h787v-172h-787v-494h869v-184h-1067zM380 1539l197 348h196l197 -348h-123l-172 227l-174 -227h-121zM855 1863l-1 13q0 62 48 110l24 24q34 34 34 74q0 68 -72 68q-79 0 -83 -98h-83v8q0 93 55 142q50 45 111 47q81 3 129 -38
q56 -48 56 -127q0 -36 -22 -71q-1 -3 -39 -45q-14 -15 -52 -53q-19 -22 -19 -39v-15h-86z" />
    <glyph glyph-name="glyph316" unicode="&#x1ec3;" horiz-adv-x="1120" 
d="M274 633h588q-2 313 -289 313q-272 0 -299 -313zM858 346h178q-30 -181 -158 -283q-125 -98 -311 -98q-237 0 -365 165q-116 150 -116 394q0 253 111 407q127 175 370 175q242 0 368 -154q116 -141 116 -389q0 -57 -3 -80h-773q3 -159 75 -251q81 -103 234 -103
q230 0 274 217zM278 1217l197 348h196l197 -348h-123l-172 227l-174 -227h-121zM753 1541l-1 13q0 62 48 110l24 24q34 34 34 74q0 68 -72 68q-79 0 -83 -98h-83v8q0 93 55 142q50 45 111 47q81 3 129 -38q56 -48 56 -127q0 -36 -22 -71q-1 -3 -39 -45q-14 -15 -52 -53
q-19 -22 -19 -39v-15h-86z" />
    <glyph glyph-name="glyph317" unicode="&#x1ec4;" horiz-adv-x="1309" 
d="M158 0v1473h1050v-183h-852v-440h787v-172h-787v-494h869v-184h-1067zM380 1539l197 348h196l197 -348h-123l-172 227l-174 -227h-121zM1020 2182q-41 -207 -197 -207q-29 0 -65 10l-97 27q-29 8 -49 8q-62 0 -90 -69h-88q37 204 193 204q32 0 59 -8l99 -29q27 -8 53 -8
q66 0 94 72h88z" />
    <glyph glyph-name="glyph318" unicode="&#x1ec5;" horiz-adv-x="1120" 
d="M274 633h588q-2 313 -289 313q-272 0 -299 -313zM858 346h178q-30 -181 -158 -283q-125 -98 -311 -98q-237 0 -365 165q-116 150 -116 394q0 253 111 407q127 175 370 175q242 0 368 -154q116 -141 116 -389q0 -57 -3 -80h-773q3 -159 75 -251q81 -103 234 -103
q230 0 274 217zM278 1217l197 348h196l197 -348h-123l-172 227l-174 -227h-121zM919 1859q-41 -207 -197 -207q-29 0 -65 10l-97 27q-29 8 -49 8q-62 0 -90 -69h-88q37 204 193 204q32 0 59 -8l99 -29q27 -8 53 -8q66 0 94 72h88z" />
    <glyph glyph-name="glyph319" unicode="&#x1ec6;" horiz-adv-x="1309" 
d="M158 0v1473h1050v-183h-852v-440h787v-172h-787v-494h869v-184h-1067zM380 1539l197 348h196l197 -348h-123l-172 227l-174 -227h-121zM576 -376v223h205v-223h-205z" />
    <glyph glyph-name="glyph320" unicode="&#x1ec7;" horiz-adv-x="1120" 
d="M274 633h588q-2 313 -289 313q-272 0 -299 -313zM858 346h178q-30 -181 -158 -283q-125 -98 -311 -98q-237 0 -365 165q-116 150 -116 394q0 253 111 407q127 175 370 175q242 0 368 -154q116 -141 116 -389q0 -57 -3 -80h-773q3 -159 75 -251q81 -103 234 -103
q230 0 274 217zM278 1217l197 348h196l197 -348h-123l-172 227l-174 -227h-121zM472 -376v223h205v-223h-205z" />
    <glyph glyph-name="glyph321" unicode="&#x1ec8;" horiz-adv-x="526" 
d="M162 0v1473h200v-1473h-200zM227 1594l-1 13q0 62 48 110l24 24q34 34 34 74q0 68 -72 68q-79 0 -83 -98h-83v8q0 93 55 142q50 45 111 47q81 3 129 -38q56 -48 56 -127q0 -36 -22 -71q-1 -3 -39 -45q-14 -15 -52 -53q-19 -22 -19 -39v-15h-86z" />
    <glyph glyph-name="glyph322" unicode="&#x1ec9;" horiz-adv-x="455" 
d="M137 0v1071h180v-1071h-180zM193 1199l-1 13q0 62 48 110l24 24q34 34 34 74q0 68 -72 68q-79 0 -83 -98h-83v8q0 93 55 142q50 45 111 47q81 3 129 -38q56 -48 56 -127q0 -36 -22 -71q-1 -3 -39 -45q-14 -15 -52 -53q-19 -22 -19 -39v-15h-86z" />
    <glyph glyph-name="glyph323" unicode="&#x1eca;" horiz-adv-x="526" 
d="M162 0v1473h200v-1473h-200zM168 -376v223h205v-223h-205z" />
    <glyph glyph-name="glyph324" unicode="&#x1ecb;" horiz-adv-x="455" 
d="M137 1268v205h180v-205h-180zM137 0v1071h180v-1071h-180zM132 -376v223h205v-223h-205z" />
    <glyph glyph-name="glyph325" unicode="&#x1ecc;" horiz-adv-x="1583" 
d="M301 735q0 -261 113 -420q129 -182 379 -182q249 0 377 183q112 159 112 419q0 261 -111 420q-128 182 -378 182t-379 -182q-113 -159 -113 -420zM94 735q0 350 172 556q184 220 527 220t526 -221q170 -205 170 -555t-171 -555q-183 -221 -525 -221q-343 0 -527 220
q-172 206 -172 556zM696 -376v223h205v-223h-205z" />
    <glyph glyph-name="glyph326" unicode="&#x1ecd;" horiz-adv-x="1190" 
d="M266 537q0 -410 330 -410q326 0 326 410q0 409 -326 409q-330 0 -330 -409zM82 537q0 259 125 408q134 161 387 161q254 0 389 -160q125 -149 125 -409q0 -259 -124 -409q-134 -161 -388 -161q-255 0 -389 160q-125 150 -125 410zM490 -376v223h205v-223h-205z" />
    <glyph glyph-name="glyph327" unicode="&#x1ece;" horiz-adv-x="1583" 
d="M301 735q0 -261 113 -420q129 -182 379 -182q249 0 377 183q112 159 112 419q0 261 -111 420q-128 182 -378 182t-379 -182q-113 -159 -113 -420zM94 735q0 350 172 556q184 220 527 220t526 -221q170 -205 170 -555t-171 -555q-183 -221 -525 -221q-343 0 -527 220
q-172 206 -172 556zM769 1594l-1 13q0 62 48 110l24 24q34 34 34 74q0 68 -72 68q-79 0 -83 -98h-83v8q0 93 55 142q50 45 111 47q81 3 129 -38q56 -48 56 -127q0 -36 -22 -71q-1 -3 -39 -45q-14 -15 -52 -53q-19 -22 -19 -39v-15h-86z" />
    <glyph glyph-name="glyph328" unicode="&#x1ecf;" horiz-adv-x="1190" 
d="M266 537q0 -410 330 -410q326 0 326 410q0 409 -326 409q-330 0 -330 -409zM82 537q0 259 125 408q134 161 387 161q254 0 389 -160q125 -149 125 -409q0 -259 -124 -409q-134 -161 -388 -161q-255 0 -389 160q-125 150 -125 410zM563 1199l-1 13q0 62 48 110l24 24
q34 34 34 74q0 68 -72 68q-79 0 -83 -98h-83v8q0 93 55 142q50 45 111 47q81 3 129 -38q56 -48 56 -127q0 -36 -22 -71q-1 -3 -39 -45q-14 -15 -52 -53q-19 -22 -19 -39v-15h-86z" />
    <glyph glyph-name="glyph329" unicode="&#x1ed0;" horiz-adv-x="1583" 
d="M301 735q0 -261 113 -420q129 -182 379 -182q249 0 377 183q112 159 112 419q0 261 -111 420q-128 182 -378 182t-379 -182q-113 -159 -113 -420zM94 735q0 350 172 556q184 220 527 220t526 -221q170 -205 170 -555t-171 -555q-183 -221 -525 -221q-343 0 -527 220
q-172 206 -172 556zM498 1539l197 348h196l197 -348h-123l-172 227l-174 -227h-121zM500 1910l204 348h201l-285 -348h-120z" />
    <glyph glyph-name="glyph330" unicode="&#x1ed1;" horiz-adv-x="1190" 
d="M266 537q0 -410 330 -410q326 0 326 410q0 409 -326 409q-330 0 -330 -409zM82 537q0 259 125 408q134 161 387 161q254 0 389 -160q125 -149 125 -409q0 -259 -124 -409q-134 -161 -388 -161q-255 0 -389 160q-125 150 -125 410zM301 1217l197 348h196l197 -348h-123
l-172 227l-174 -227h-121zM303 1588l204 348h201l-285 -348h-120z" />
    <glyph glyph-name="glyph331" unicode="&#x1ed2;" horiz-adv-x="1583" 
d="M301 735q0 -261 113 -420q129 -182 379 -182q249 0 377 183q112 159 112 419q0 261 -111 420q-128 182 -378 182t-379 -182q-113 -159 -113 -420zM94 735q0 350 172 556q184 220 527 220t526 -221q170 -205 170 -555t-171 -555q-183 -221 -525 -221q-343 0 -527 220
q-172 206 -172 556zM498 1539l197 348h196l197 -348h-123l-172 227l-174 -227h-121zM1088 1910h-120l-285 348h201z" />
    <glyph glyph-name="glyph332" unicode="&#x1ed3;" horiz-adv-x="1190" 
d="M266 537q0 -410 330 -410q326 0 326 410q0 409 -326 409q-330 0 -330 -409zM82 537q0 259 125 408q134 161 387 161q254 0 389 -160q125 -149 125 -409q0 -259 -124 -409q-134 -161 -388 -161q-255 0 -389 160q-125 150 -125 410zM301 1217l197 348h196l197 -348h-123
l-172 227l-174 -227h-121zM892 1587h-120l-285 348h201z" />
    <glyph glyph-name="glyph333" unicode="&#x1ed4;" horiz-adv-x="1583" 
d="M301 735q0 -261 113 -420q129 -182 379 -182q249 0 377 183q112 159 112 419q0 261 -111 420q-128 182 -378 182t-379 -182q-113 -159 -113 -420zM94 735q0 350 172 556q184 220 527 220t526 -221q170 -205 170 -555t-171 -555q-183 -221 -525 -221q-343 0 -527 220
q-172 206 -172 556zM498 1539l197 348h196l197 -348h-123l-172 227l-174 -227h-121zM973 1864l-1 13q0 62 48 110l24 24q34 34 34 74q0 68 -72 68q-79 0 -83 -98h-83v8q0 93 55 142q50 45 111 47q81 3 129 -38q56 -48 56 -127q0 -36 -22 -71q-1 -3 -39 -45q-14 -15 -52 -53
q-19 -22 -19 -39v-15h-86z" />
    <glyph glyph-name="glyph334" unicode="&#x1ed5;" horiz-adv-x="1190" 
d="M266 537q0 -410 330 -410q326 0 326 410q0 409 -326 409q-330 0 -330 -409zM82 537q0 259 125 408q134 161 387 161q254 0 389 -160q125 -149 125 -409q0 -259 -124 -409q-134 -161 -388 -161q-255 0 -389 160q-125 150 -125 410zM301 1217l197 348h196l197 -348h-123
l-172 227l-174 -227h-121zM776 1541l-1 13q0 62 48 110l24 24q34 34 34 74q0 68 -72 68q-79 0 -83 -98h-83v8q0 93 55 142q50 45 111 47q81 3 129 -38q56 -48 56 -127q0 -36 -22 -71q-1 -3 -39 -45q-14 -15 -52 -53q-19 -22 -19 -39v-15h-86z" />
    <glyph glyph-name="glyph335" unicode="&#x1ed6;" horiz-adv-x="1583" 
d="M301 735q0 -261 113 -420q129 -182 379 -182q249 0 377 183q112 159 112 419q0 261 -111 420q-128 182 -378 182t-379 -182q-113 -159 -113 -420zM94 735q0 350 172 556q184 220 527 220t526 -221q170 -205 170 -555t-171 -555q-183 -221 -525 -221q-343 0 -527 220
q-172 206 -172 556zM498 1539l197 348h196l197 -348h-123l-172 227l-174 -227h-121zM1138 2182q-41 -207 -197 -207q-29 0 -65 10l-97 27q-29 8 -49 8q-62 0 -90 -69h-88q37 204 193 204q32 0 59 -8l99 -29q27 -8 53 -8q66 0 94 72h88z" />
    <glyph glyph-name="glyph336" unicode="&#x1ed7;" horiz-adv-x="1190" 
d="M266 537q0 -410 330 -410q326 0 326 410q0 409 -326 409q-330 0 -330 -409zM82 537q0 259 125 408q134 161 387 161q254 0 389 -160q125 -149 125 -409q0 -259 -124 -409q-134 -161 -388 -161q-255 0 -389 160q-125 150 -125 410zM301 1217l197 348h196l197 -348h-123
l-172 227l-174 -227h-121zM942 1859q-41 -207 -197 -207q-29 0 -65 10l-97 27q-29 8 -49 8q-62 0 -90 -69h-88q37 204 193 204q32 0 59 -8l99 -29q27 -8 53 -8q66 0 94 72h88z" />
    <glyph glyph-name="glyph337" unicode="&#x1ed8;" horiz-adv-x="1583" 
d="M301 735q0 -261 113 -420q129 -182 379 -182q249 0 377 183q112 159 112 419q0 261 -111 420q-128 182 -378 182t-379 -182q-113 -159 -113 -420zM94 735q0 350 172 556q184 220 527 220t526 -221q170 -205 170 -555t-171 -555q-183 -221 -525 -221q-343 0 -527 220
q-172 206 -172 556zM498 1539l197 348h196l197 -348h-123l-172 227l-174 -227h-121zM696 -376v223h205v-223h-205z" />
    <glyph glyph-name="glyph338" unicode="&#x1ed9;" horiz-adv-x="1190" 
d="M266 537q0 -410 330 -410q326 0 326 410q0 409 -326 409q-330 0 -330 -409zM82 537q0 259 125 408q134 161 387 161q254 0 389 -160q125 -149 125 -409q0 -259 -124 -409q-134 -161 -388 -161q-255 0 -389 160q-125 150 -125 410zM301 1217l197 348h196l197 -348h-123
l-172 227l-174 -227h-121zM490 -376v223h205v-223h-205z" />
    <glyph glyph-name="glyph339" unicode="&#x1eda;" horiz-adv-x="1583" 
d="M301 735q0 -261 113 -420q129 -182 379 -182q249 0 377 183q112 159 112 419q0 261 -111 420q-128 182 -378 182t-379 -182q-113 -159 -113 -420zM1308 1376v205h198v-236q0 -143 -90 -214q73 -166 73 -396q0 -350 -171 -555q-183 -221 -525 -221q-343 0 -527 220
q-172 206 -172 556t172 556q184 220 527 220q327 0 512 -205q38 -43 68 -93q35 44 35 120v43h-100zM650 1602l204 348h201l-285 -348h-120z" />
    <glyph glyph-name="glyph340" unicode="&#x1edb;" horiz-adv-x="1190" 
d="M266 537q0 -410 330 -410q326 0 326 410q0 409 -326 409q-330 0 -330 -409zM989 1022v205h198v-236q0 -159 -109 -227q30 -100 30 -227q0 -259 -124 -409q-134 -161 -388 -161q-255 0 -389 160q-125 150 -125 410q0 259 125 408q134 161 387 161q244 0 379 -149
q43 -48 72 -108q44 43 44 130v43h-100zM453 1217l204 348h201l-285 -348h-120z" />
    <glyph glyph-name="glyph341" unicode="&#x1edc;" horiz-adv-x="1583" 
d="M301 735q0 -261 113 -420q129 -182 379 -182q249 0 377 183q112 159 112 419q0 261 -111 420q-128 182 -378 182t-379 -182q-113 -159 -113 -420zM1308 1376v205h198v-236q0 -143 -90 -214q73 -166 73 -396q0 -350 -171 -555q-183 -221 -525 -221q-343 0 -527 220
q-172 206 -172 556t172 556q184 220 527 220q327 0 512 -205q38 -43 68 -93q35 44 35 120v43h-100zM936 1602h-120l-285 348h201z" />
    <glyph glyph-name="glyph342" unicode="&#x1edd;" horiz-adv-x="1190" 
d="M266 537q0 -410 330 -410q326 0 326 410q0 409 -326 409q-330 0 -330 -409zM989 1022v205h198v-236q0 -159 -109 -227q30 -100 30 -227q0 -259 -124 -409q-134 -161 -388 -161q-255 0 -389 160q-125 150 -125 410q0 259 125 408q134 161 387 161q244 0 379 -149
q43 -48 72 -108q44 43 44 130v43h-100zM739 1217h-120l-285 348h201z" />
    <glyph glyph-name="glyph343" unicode="&#x1ede;" horiz-adv-x="1583" 
d="M301 735q0 -261 113 -420q129 -182 379 -182q249 0 377 183q112 159 112 419q0 261 -111 420q-128 182 -378 182t-379 -182q-113 -159 -113 -420zM1308 1376v205h198v-236q0 -143 -90 -214q73 -166 73 -396q0 -350 -171 -555q-183 -221 -525 -221q-343 0 -527 220
q-172 206 -172 556t172 556q184 220 527 220q327 0 512 -205q38 -43 68 -93q35 44 35 120v43h-100zM769 1594l-1 13q0 62 48 110l24 24q34 34 34 74q0 68 -72 68q-79 0 -83 -98h-83v8q0 93 55 142q50 45 111 47q81 3 129 -38q56 -48 56 -127q0 -36 -22 -71q-1 -3 -39 -45
q-14 -15 -52 -53q-19 -22 -19 -39v-15h-86z" />
    <glyph glyph-name="glyph344" unicode="&#x1edf;" horiz-adv-x="1190" 
d="M266 537q0 -410 330 -410q326 0 326 410q0 409 -326 409q-330 0 -330 -409zM989 1022v205h198v-236q0 -159 -109 -227q30 -100 30 -227q0 -259 -124 -409q-134 -161 -388 -161q-255 0 -389 160q-125 150 -125 410q0 259 125 408q134 161 387 161q244 0 379 -149
q43 -48 72 -108q44 43 44 130v43h-100zM563 1199l-1 13q0 62 48 110l24 24q34 34 34 74q0 68 -72 68q-79 0 -83 -98h-83v8q0 93 55 142q50 45 111 47q81 3 129 -38q56 -48 56 -127q0 -36 -22 -71q-1 -3 -39 -45q-14 -15 -52 -53q-19 -22 -19 -39v-15h-86z" />
    <glyph glyph-name="glyph345" unicode="&#x1ee0;" horiz-adv-x="1583" 
d="M301 735q0 -261 113 -420q129 -182 379 -182q249 0 377 183q112 159 112 419q0 261 -111 420q-128 182 -378 182t-379 -182q-113 -159 -113 -420zM1308 1376v205h198v-236q0 -143 -90 -214q73 -166 73 -396q0 -350 -171 -555q-183 -221 -525 -221q-343 0 -527 220
q-172 206 -172 556t172 556q184 220 527 220q327 0 512 -205q38 -43 68 -93q35 44 35 120v43h-100zM1086 1878q-41 -207 -197 -207q-29 0 -65 10l-97 27q-29 8 -49 8q-62 0 -90 -69h-88q37 204 193 204q32 0 59 -8l99 -29q27 -8 53 -8q66 0 94 72h88z" />
    <glyph glyph-name="glyph346" unicode="&#x1ee1;" horiz-adv-x="1190" 
d="M266 537q0 -410 330 -410q326 0 326 410q0 409 -326 409q-330 0 -330 -409zM989 1022v205h198v-236q0 -159 -109 -227q30 -100 30 -227q0 -259 -124 -409q-134 -161 -388 -161q-255 0 -389 160q-125 150 -125 410q0 259 125 408q134 161 387 161q244 0 379 -149
q43 -48 72 -108q44 43 44 130v43h-100zM889 1493q-41 -207 -197 -207q-29 0 -65 10l-97 27q-29 8 -49 8q-62 0 -90 -69h-88q37 204 193 204q32 0 59 -8l99 -29q27 -8 53 -8q66 0 94 72h88z" />
    <glyph glyph-name="glyph347" unicode="&#x1ee2;" horiz-adv-x="1583" 
d="M301 735q0 -261 113 -420q129 -182 379 -182q249 0 377 183q112 159 112 419q0 261 -111 420q-128 182 -378 182t-379 -182q-113 -159 -113 -420zM1308 1376v205h198v-236q0 -143 -90 -214q73 -166 73 -396q0 -350 -171 -555q-183 -221 -525 -221q-343 0 -527 220
q-172 206 -172 556t172 556q184 220 527 220q327 0 512 -205q38 -43 68 -93q35 44 35 120v43h-100zM696 -376v223h205v-223h-205z" />
    <glyph glyph-name="glyph348" unicode="&#x1ee3;" horiz-adv-x="1190" 
d="M266 537q0 -410 330 -410q326 0 326 410q0 409 -326 409q-330 0 -330 -409zM989 1022v205h198v-236q0 -159 -109 -227q30 -100 30 -227q0 -259 -124 -409q-134 -161 -388 -161q-255 0 -389 160q-125 150 -125 410q0 259 125 408q134 161 387 161q244 0 379 -149
q43 -48 72 -108q44 43 44 130v43h-100zM490 -376v223h205v-223h-205z" />
    <glyph glyph-name="glyph349" unicode="&#x1ee4;" horiz-adv-x="1452" 
d="M150 559v914h200v-916q0 -405 375 -405q377 0 377 405v916h201v-914q0 -600 -601 -600q-552 0 -552 600zM602 -376v223h205v-223h-205z" />
    <glyph glyph-name="glyph350" unicode="&#x1ee5;" horiz-adv-x="1165" 
d="M315 1071v-657q0 -141 38 -202q49 -79 179 -79q316 0 316 361v577h180v-1071h-172v160q-113 -187 -354 -187q-134 0 -227 55q-106 62 -131 183q-11 52 -11 166v694h182zM482 -376v223h205v-223h-205z" />
    <glyph glyph-name="glyph351" unicode="&#x1ee6;" horiz-adv-x="1452" 
d="M150 559v914h200v-916q0 -405 375 -405q377 0 377 405v916h201v-914q0 -600 -601 -600q-552 0 -552 600zM691 1594l-1 13q0 62 48 110l24 24q34 34 34 74q0 68 -72 68q-79 0 -83 -98h-83v8q0 93 55 142q50 45 111 47q81 3 129 -38q56 -48 56 -127q0 -36 -22 -71
q-1 -3 -39 -45q-14 -15 -52 -53q-19 -22 -19 -39v-15h-86z" />
    <glyph glyph-name="glyph352" unicode="&#x1ee7;" horiz-adv-x="1165" 
d="M315 1071v-657q0 -141 38 -202q49 -79 179 -79q316 0 316 361v577h180v-1071h-172v160q-113 -187 -354 -187q-134 0 -227 55q-106 62 -131 183q-11 52 -11 166v694h182zM547 1199l-1 13q0 62 48 110l24 24q34 34 34 74q0 68 -72 68q-79 0 -83 -98h-83v8q0 93 55 142
q50 45 111 47q81 3 129 -38q56 -48 56 -127q0 -36 -22 -71q-1 -3 -39 -45q-14 -15 -52 -53q-19 -22 -19 -39v-15h-86z" />
    <glyph glyph-name="glyph353" unicode="&#x1ee8;" horiz-adv-x="1452" 
d="M1303 1181q77 30 77 152v43h-77v-195zM1280 1473v108h198v-236q0 -206 -175 -256v-530q0 -600 -601 -600q-552 0 -552 600v914h200v-916q0 -405 375 -405q377 0 377 405v916h178zM584 1602l204 348h201l-285 -348h-120z" />
    <glyph glyph-name="glyph354" unicode="&#x1ee9;" horiz-adv-x="1165" 
d="M1028 835q61 38 61 144v43h-61v-187zM989 1071v156h198v-236q0 -195 -159 -251v-740h-172v160q-113 -187 -354 -187q-134 0 -227 55q-106 62 -131 183q-11 52 -11 166v694h182v-657q0 -141 38 -202q49 -79 179 -79q316 0 316 361v577h141zM441 1217l204 348h201
l-285 -348h-120z" />
    <glyph glyph-name="glyph355" unicode="&#x1eea;" horiz-adv-x="1452" 
d="M1303 1181q77 30 77 152v43h-77v-195zM1280 1473v108h198v-236q0 -206 -175 -256v-530q0 -600 -601 -600q-552 0 -552 600v914h200v-916q0 -405 375 -405q377 0 377 405v916h178zM870 1602h-120l-285 348h201z" />
    <glyph glyph-name="glyph356" unicode="&#x1eeb;" horiz-adv-x="1165" 
d="M1028 835q61 38 61 144v43h-61v-187zM989 1071v156h198v-236q0 -195 -159 -251v-740h-172v160q-113 -187 -354 -187q-134 0 -227 55q-106 62 -131 183q-11 52 -11 166v694h182v-657q0 -141 38 -202q49 -79 179 -79q316 0 316 361v577h141zM727 1217h-120l-285 348h201z
" />
    <glyph glyph-name="glyph357" unicode="&#x1eec;" horiz-adv-x="1452" 
d="M1303 1181q77 30 77 152v43h-77v-195zM1280 1473v108h198v-236q0 -206 -175 -256v-530q0 -600 -601 -600q-552 0 -552 600v914h200v-916q0 -405 375 -405q377 0 377 405v916h178zM691 1594l-1 13q0 62 48 110l24 24q34 34 34 74q0 68 -72 68q-79 0 -83 -98h-83v8
q0 93 55 142q50 45 111 47q81 3 129 -38q56 -48 56 -127q0 -36 -22 -71q-1 -3 -39 -45q-14 -15 -52 -53q-19 -22 -19 -39v-15h-86z" />
    <glyph glyph-name="glyph358" unicode="&#x1eed;" horiz-adv-x="1165" 
d="M1028 835q61 38 61 144v43h-61v-187zM989 1071v156h198v-236q0 -195 -159 -251v-740h-172v160q-113 -187 -354 -187q-134 0 -227 55q-106 62 -131 183q-11 52 -11 166v694h182v-657q0 -141 38 -202q49 -79 179 -79q316 0 316 361v577h141zM547 1199l-1 13q0 62 48 110
l24 24q34 34 34 74q0 68 -72 68q-79 0 -83 -98h-83v8q0 93 55 142q50 45 111 47q81 3 129 -38q56 -48 56 -127q0 -36 -22 -71q-1 -3 -39 -45q-14 -15 -52 -53q-19 -22 -19 -39v-15h-86z" />
    <glyph glyph-name="glyph359" unicode="&#x1eee;" horiz-adv-x="1452" 
d="M1303 1181q77 30 77 152v43h-77v-195zM1280 1473v108h198v-236q0 -206 -175 -256v-530q0 -600 -601 -600q-552 0 -552 600v914h200v-916q0 -405 375 -405q377 0 377 405v916h178zM1086 1878q-41 -207 -197 -207q-29 0 -65 10l-97 27q-29 8 -49 8q-62 0 -90 -69h-88
q37 204 193 204q32 0 59 -8l99 -29q27 -8 53 -8q66 0 94 72h88z" />
    <glyph glyph-name="glyph360" unicode="&#x1eef;" horiz-adv-x="1165" 
d="M1028 835q61 38 61 144v43h-61v-187zM989 1071v156h198v-236q0 -195 -159 -251v-740h-172v160q-113 -187 -354 -187q-134 0 -227 55q-106 62 -131 183q-11 52 -11 166v694h182v-657q0 -141 38 -202q49 -79 179 -79q316 0 316 361v577h141zM889 1493q-41 -207 -197 -207
q-29 0 -65 10l-97 27q-29 8 -49 8q-62 0 -90 -69h-88q37 204 193 204q32 0 59 -8l99 -29q27 -8 53 -8q66 0 94 72h88z" />
    <glyph glyph-name="glyph361" unicode="&#x1ef0;" horiz-adv-x="1452" 
d="M1303 1181q77 30 77 152v43h-77v-195zM1280 1473v108h198v-236q0 -206 -175 -256v-530q0 -600 -601 -600q-552 0 -552 600v914h200v-916q0 -405 375 -405q377 0 377 405v916h178zM602 -376v223h205v-223h-205z" />
    <glyph glyph-name="glyph362" unicode="&#x1ef1;" horiz-adv-x="1165" 
d="M1028 835q61 38 61 144v43h-61v-187zM989 1071v156h198v-236q0 -195 -159 -251v-740h-172v160q-113 -187 -354 -187q-134 0 -227 55q-106 62 -131 183q-11 52 -11 166v694h182v-657q0 -141 38 -202q49 -79 179 -79q316 0 316 361v577h141zM482 -376v223h205v-223h-205z
" />
    <glyph glyph-name="glyph363" unicode="&#x1ef2;" horiz-adv-x="1235" 
d="M729 0h-201v590l-546 883h251l394 -697l391 697h235l-524 -869v-604zM788 1602h-120l-285 348h201z" />
    <glyph glyph-name="glyph364" unicode="&#x1ef3;" horiz-adv-x="1038" 
d="M815 1071h201l-451 -1237q-56 -152 -107 -207q-72 -76 -210 -76q-50 0 -107 17v172q54 -16 105 -16q100 0 133 88l47 127l-406 1132h201l297 -866zM701 1217h-120l-285 348h201z" />
    <glyph glyph-name="glyph365" unicode="&#x1ef4;" horiz-adv-x="1235" 
d="M729 0h-201v590l-546 883h251l394 -697l391 697h235l-524 -869v-604zM528 -376v223h205v-223h-205z" />
    <glyph glyph-name="glyph366" unicode="&#x1ef5;" horiz-adv-x="1038" 
d="M815 1071h201l-451 -1237q-56 -152 -107 -207q-72 -76 -210 -76q-50 0 -107 17v172q54 -16 105 -16q100 0 133 88l47 127l-406 1132h201l297 -866zM648 -376v223h205v-223h-205z" />
    <glyph glyph-name="glyph367" unicode="&#x1ef6;" horiz-adv-x="1235" 
d="M729 0h-201v590l-546 883h251l394 -697l391 697h235l-524 -869v-604zM599 1594l-1 13q0 62 48 110l24 24q34 34 34 74q0 68 -72 68q-79 0 -83 -98h-83v8q0 93 55 142q50 45 111 47q81 3 129 -38q56 -48 56 -127q0 -36 -22 -71q-1 -3 -39 -45q-14 -15 -52 -53
q-19 -22 -19 -39v-15h-86z" />
    <glyph glyph-name="glyph368" unicode="&#x1ef7;" horiz-adv-x="1038" 
d="M815 1071h201l-451 -1237q-56 -152 -107 -207q-72 -76 -210 -76q-50 0 -107 17v172q54 -16 105 -16q100 0 133 88l47 127l-406 1132h201l297 -866zM495 1199l-1 13q0 62 48 110l24 24q34 34 34 74q0 68 -72 68q-79 0 -83 -98h-83v8q0 93 55 142q50 45 111 47
q81 3 129 -38q56 -48 56 -127q0 -36 -22 -71q-1 -3 -39 -45q-14 -15 -52 -53q-19 -22 -19 -39v-15h-86z" />
    <glyph glyph-name="glyph369" unicode="&#x1ef8;" horiz-adv-x="1235" 
d="M729 0h-201v590l-546 883h251l394 -697l391 697h235l-524 -869v-604zM944 1878q-41 -207 -197 -207q-29 0 -65 10l-97 27q-29 8 -49 8q-62 0 -90 -69h-88q37 204 193 204q32 0 59 -8l99 -29q27 -8 53 -8q66 0 94 72h88z" />
    <glyph glyph-name="glyph370" unicode="&#x1ef9;" horiz-adv-x="1038" 
d="M815 1071h201l-451 -1237q-56 -152 -107 -207q-72 -76 -210 -76q-50 0 -107 17v172q54 -16 105 -16q100 0 133 88l47 127l-406 1132h201l297 -866zM842 1493q-41 -207 -197 -207q-29 0 -65 10l-97 27q-29 8 -49 8q-62 0 -90 -69h-88q37 204 193 204q32 0 59 -8l99 -29
q27 -8 53 -8q66 0 94 72h88z" />
    <glyph glyph-name="endash" unicode="&#x2013;" horiz-adv-x="1024" 
d="M0 487v109h1024v-109h-1024z" />
    <glyph glyph-name="emdash" unicode="&#x2014;" horiz-adv-x="2048" 
d="M0 596h2048v-109h-2048v109z" />
    <glyph glyph-name="quoteleft" unicode="&#x2018;" horiz-adv-x="514" 
d="M356 1219v-205h-198v235q0 223 198 262v-92q-100 -13 -100 -157v-43h100z" />
    <glyph glyph-name="quoteright" unicode="&#x2019;" horiz-adv-x="514" 
d="M158 1268v205h198v-236q0 -221 -198 -262v92q100 13 100 158v43h-100z" />
    <glyph glyph-name="quotesinglbase" unicode="&#x201a;" horiz-adv-x="514" 
d="M158 0v203h198v-236q0 -221 -198 -262v94q100 13 100 158v43h-100z" />
    <glyph glyph-name="quotedblleft" unicode="&#x201c;" horiz-adv-x="846" 
d="M356 1219v-205h-198v235q0 223 198 262v-92q-100 -13 -100 -157v-43h100zM688 1219v-205h-201v235q0 221 201 262v-92q-100 -13 -100 -157v-43h100z" />
    <glyph glyph-name="quotedblright" unicode="&#x201d;" horiz-adv-x="846" 
d="M487 1268v205h201v-236q0 -221 -201 -262v92q103 13 103 158v43h-103zM156 1268v205h200v-236q0 -220 -200 -262v92q102 13 102 158v43h-102z" />
    <glyph glyph-name="quotedblbase" unicode="&#x201e;" horiz-adv-x="846" 
d="M487 0v203h201v-236q0 -221 -201 -262v94q103 15 103 158v43h-103zM156 0v203h200v-236q0 -220 -200 -262v94q102 15 102 158v43h-102z" />
    <glyph glyph-name="dagger" unicode="&#x2020;" horiz-adv-x="1024" 
d="M426 -217v1128h-367v156h367v406h172v-406h367v-156h-367v-1128h-172z" />
    <glyph glyph-name="daggerdbl" unicode="&#x2021;" horiz-adv-x="1024" 
d="M426 -217v403h-367v154h367v571h-367v156h367v406h172v-406h367v-156h-367v-571h367v-154h-367v-403h-172z" />
    <glyph glyph-name="bullet" unicode="&#x2022;" horiz-adv-x="1208" 
d="M307 762q0 124 86.5 209.5t210.5 85.5q123 0 209 -86t86 -209t-87 -210t-210 -87q-124 0 -209.5 86.5t-85.5 210.5z" />
    <glyph glyph-name="ellipsis" unicode="&#x2026;" horiz-adv-x="2048" 
d="M239 0v223h205v-223h-205zM921 0v223h205v-223h-205zM1605 0v223h205v-223h-205z" />
    <glyph glyph-name="perthousand" unicode="&#x2030;" horiz-adv-x="2587" 
d="M1954 356q0 -88 59 -147t146 -59q85 0 144.5 60.5t59.5 145.5q0 86 -59 145.5t-145 59.5q-87 0 -146 -59t-59 -146zM1804 356q0 150 102.5 252.5t252.5 102.5q148 0 252 -104t104 -251q0 -148 -104 -252t-252 -104q-150 0 -252.5 103t-102.5 253zM1098 356q0 -88 59 -147
t146 -59q85 0 144.5 60.5t59.5 145.5q0 86 -59 145.5t-145 59.5q-87 0 -146 -59t-59 -146zM948 356q0 150 102.5 252.5t252.5 102.5q148 0 252 -104t104 -251q0 -148 -104 -252t-252 -104q-150 0 -252.5 103t-102.5 253zM221 1036q0 -88 58.5 -146.5t146.5 -58.5
q86 0 145.5 59.5t59.5 145.5t-59.5 145.5t-145.5 59.5q-87 0 -146 -59t-59 -146zM72 1036q0 150 102 252.5t252 102.5q148 0 251 -103.5t103 -251.5t-103 -252t-251 -104q-150 0 -252 103t-102 253zM365 -41l876 1473h125l-877 -1473h-124z" />
    <glyph glyph-name="guilsinglleft" unicode="&#x2039;" horiz-adv-x="500" 
d="M403 883v-174l-213 -168l213 -166v-176l-323 243v199z" />
    <glyph glyph-name="guilsinglright" unicode="&#x203a;" horiz-adv-x="500" 
d="M96 199v176l215 168l-215 166v174l324 -242v-199z" />
    <glyph glyph-name="fraction" unicode="&#x2044;" horiz-adv-x="342" 
d="M-342 -41l899 1473h125l-899 -1473h-125z" />
    <glyph glyph-name="franc" unicode="&#x20a3;" horiz-adv-x="1874" 
d="M158 0v1473h989v-185h-789v-442h689v-180h-689v-666h-200zM1331 0v1071h174v-192q86 215 297 215q33 0 47 -3v-190q-14 2 -43 2q-295 0 -295 -307v-596h-180z" />
    <glyph glyph-name="u20AB" unicode="&#x20ab;" horiz-adv-x="742" 
d="M671 1473v-96h102v-76h-102v-827h-118v92q-93 -114 -235 -114q-157 0 -242 117q-76 104 -76 266q0 164 75 269q85 120 243 120q150 0 235 -112v189h-233v76h233v96h118zM557 842q0 272 -214 272q-217 0 -217 -287q0 -114 51 -185q58 -82 167 -82q213 0 213 282zM646 389
v-78h-614v78h614z" />
    <glyph glyph-name="trademark" unicode="&#x2122;" horiz-adv-x="1706" 
d="M963 1458l151 -385l141 385h150v-538h-98v444l-166 -444h-56l-174 444v-444h-98v538h150zM694 1458v-80h-172v-458h-108v458h-172v80h452z" />
    <glyph glyph-name="partialdiff" unicode="&#x2202;" horiz-adv-x="1059" 
d="M756 621q30 174 30 325q0 260 -145 260q-50 0 -127 -58t-108 -58q-34 0 -59 21t-25 54q0 75 89 122q74 38 156 38q206 0 311 -194q83 -154 83 -379q0 -277 -111 -499q-140 -278 -391 -278q-157 0 -258 112q-97 108 -97 267q0 182 98 312q108 143 285 143q195 0 269 -188z
M707 494q0 241 -166 241q-134 0 -201 -177q-49 -128 -49 -288q0 -239 166 -239q133 0 201 176q49 129 49 287z" />
    <glyph glyph-name="product" unicode="&#x220f;" horiz-adv-x="1550" 
d="M156 1473h1237v-1866h-240v1661h-758v-1661h-239v1866z" />
    <glyph glyph-name="summation" unicode="&#x2211;" horiz-adv-x="1380" 
d="M55 1473h1258v-193h-959l672 -717l-694 -764h1007v-192h-1314v149l725 801l-695 739v177z" />
    <glyph glyph-name="minus" unicode="&#x2212;" horiz-adv-x="1706" 
d="M1452 682v-141h-1198v141h1198z" />
    <glyph glyph-name="radical" unicode="&#x221a;" horiz-adv-x="1305" 
d="M1116 1661h189v-96h-115l-594 -1606h-66l-319 883l-125 -45l-25 80l283 98l256 -709z" />
    <glyph glyph-name="infinity" unicode="&#x221e;" horiz-adv-x="1706" 
d="M915 559q99 -178 267 -178q103 0 166 68t63 172q0 96 -54 163q-59 72 -153 72q-99 0 -181 -105q-48 -62 -108 -192zM793 666q-98 176 -267 176q-104 0 -166.5 -66.5t-62.5 -171.5q0 -96 54 -163q59 -72 153 -72q154 0 289 297zM864 483q-136 -262 -321 -262
q-148 0 -239 124q-83 112 -83 265q0 157 70 265q82 126 231 126q182 0 320 -264q133 269 323 269q147 0 239 -126q83 -113 83 -266q0 -157 -70 -264q-82 -125 -231 -125q-175 0 -322 258z" />
    <glyph glyph-name="integral" unicode="&#x222b;" horiz-adv-x="1067" 
d="M311 -262q106 0 120 688l3 165q9 388 55 577q93 382 349 382q73 0 124 -37q56 -41 56 -112q0 -117 -119 -117q-84 0 -110 73l-10 50q-8 37 -21 37q-107 0 -121 -619l-8 -303q-13 -365 -61 -543q-94 -350 -341 -350q-73 0 -124 37q-56 41 -56 111q0 119 129 119
q65 0 96 -57q2 -4 14 -59q9 -42 25 -42z" />
    <glyph glyph-name="approxequal" unicode="&#x2248;" horiz-adv-x="1706" 
d="M1530 430q-203 -141 -389 -141q-97 0 -287.5 67.5t-290.5 67.5q-157 0 -385 -158v156q215 145 387 145q105 0 300 -68.5t278 -68.5q165 0 387 156v-156zM1530 799q-204 -142 -389 -142q-97 0 -287.5 68t-290.5 68q-155 0 -385 -158v156q211 143 387 143q105 0 300 -67.5
t278 -67.5q164 0 387 155v-155z" />
    <glyph glyph-name="approxequal" unicode="&#x22f2;" horiz-adv-x="1706" 
d="M1530 430q-203 -141 -389 -141q-97 0 -287.5 67.5t-290.5 67.5q-157 0 -385 -158v156q215 145 387 145q105 0 300 -68.5t278 -68.5q165 0 387 156v-156zM1530 799q-204 -142 -389 -142q-97 0 -287.5 68t-290.5 68q-155 0 -385 -158v156q211 143 387 143q105 0 300 -67.5
t278 -67.5q164 0 387 155v-155z" />
    <glyph glyph-name="notequal" unicode="&#x2260;" horiz-adv-x="1706" 
d="M1313 1112l-187 -235h326v-136h-416l-205 -262h621v-135h-709l-249 -317l-105 84l184 233h-319v135h408l204 262h-612v136h702l252 317z" />
    <glyph glyph-name="lessequal" unicode="&#x2264;" horiz-adv-x="1706" 
d="M1446 162v-139h-1184v139h1184zM1444 1059l-936 -309l936 -306v-149l-1182 395v121l1182 395v-147z" />
    <glyph glyph-name="greaterequal" unicode="&#x2265;" horiz-adv-x="1706" 
d="M1446 162v-139h-1184v139h1184zM1446 811v-121l-1184 -395v149l938 306l-938 309v147z" />
    <glyph glyph-name="SF370000" unicode="&#x255f;" horiz-adv-x="1024" 
d="M369 1217l204 348h201l-285 -348h-120z" />
    <glyph glyph-name="SF420000" unicode="&#x2560;" horiz-adv-x="1024" 
d="M655 1217h-120l-285 348h201z" />
    <glyph glyph-name="SF190000" unicode="&#x2561;" horiz-adv-x="1075" 
d="M414 395q0 7 -1 21.5t-1 21.5q0 206 159 365l78 78q113 113 113 245q0 104 -66.5 164t-171.5 60q-261 0 -273 -324h-177v27q0 218 120 338t338 120q185 0 300 -99q122 -104 122 -286q0 -187 -149 -329l-84 -80q-71 -68 -98 -120q-31 -61 -31 -151q0 -34 2 -50zM408 0v219
h200v-219h-200z" />
    <glyph glyph-name="SF200000" unicode="&#x2562;" horiz-adv-x="561" 
d="M178 0v223h205v-223h-205z" />
    <glyph glyph-name="lozenge" unicode="&#x25ca;" horiz-adv-x="1012" 
d="M506 1409l-385 -817l385 -825l385 825zM506 1653l500 -1061l-500 -1069l-500 1069z" />
    <glyph glyph-name="circle" unicode="&#x25cb;" horiz-adv-x="1305" 
d="M420 612h459l-228 650zM-6 0l547 1473h221l549 -1473h-217l-156 440h-580l-157 -440h-207z" />
    <glyph glyph-name="H18533" unicode="&#x25cf;" horiz-adv-x="1309" 
d="M158 0v1473h1050v-183h-852v-440h787v-172h-787v-494h869v-184h-1067z" />
    <glyph glyph-name="invbullet" unicode="&#x25d8;" horiz-adv-x="526" 
d="M162 0v1473h200v-1473h-200z" />
    <glyph glyph-name="invcircle" unicode="&#x25d9;" horiz-adv-x="1583" 
d="M301 735q0 -261 113 -420q129 -182 379 -182q249 0 377 183q112 159 112 419q0 261 -111 420q-128 182 -378 182t-379 -182q-113 -159 -113 -420zM94 735q0 350 172 556q184 220 527 220t526 -221q170 -205 170 -555t-171 -555q-183 -221 -525 -221q-343 0 -527 220
q-172 206 -172 556z" />
    <glyph glyph-name="openbullet" unicode="&#x25e6;" horiz-adv-x="1452" 
d="M150 559v914h200v-916q0 -405 375 -405q377 0 377 405v916h201v-914q0 -600 -601 -600q-552 0 -552 600z" />
    <glyph glyph-name="smileface" unicode="&#x263a;" 
d="M799 143q-168 -176 -379 -176q-159 0 -251 81q-97 85 -97 241q0 290 366 336q28 4 126.5 14t111.5 13q82 15 98 46q10 19 10 84q0 164 -241 164q-252 0 -252 -198h-170v8q0 176 130 269q114 81 298 81q418 0 418 -332v-536q0 -57 8 -76q14 -33 61 -33q15 0 47 6v-139
q-59 -16 -104 -16q-180 0 -180 157v6zM782 545q-72 -39 -247 -61q-59 -7 -93 -13q-184 -30 -184 -180q0 -166 193 -166q131 0 224 63q107 72 107 197v160z" />
    <glyph glyph-name="invsmileface" unicode="&#x263b;" horiz-adv-x="1120" 
d="M274 633h588q-2 313 -289 313q-272 0 -299 -313zM858 346h178q-30 -181 -158 -283q-125 -98 -311 -98q-237 0 -365 165q-116 150 -116 394q0 253 111 407q127 175 370 175q242 0 368 -154q116 -141 116 -389q0 -57 -3 -80h-773q3 -159 75 -251q81 -103 234 -103
q230 0 274 217z" />
    <glyph glyph-name="sun" unicode="&#x263c;" horiz-adv-x="455" 
d="M137 1268v205h180v-205h-180zM137 0v1071h180v-1071h-180z" />
    <glyph glyph-name="female" unicode="&#x2640;" horiz-adv-x="1190" 
d="M266 537q0 -410 330 -410q326 0 326 410q0 409 -326 409q-330 0 -330 -409zM82 537q0 259 125 408q134 161 387 161q254 0 389 -160q125 -149 125 -409q0 -259 -124 -409q-134 -161 -388 -161q-255 0 -389 160q-125 150 -125 410z" />
    <glyph glyph-name="male" unicode="&#x2642;" horiz-adv-x="1165" 
d="M315 1071v-657q0 -141 38 -202q49 -79 179 -79q316 0 316 361v577h180v-1071h-172v160q-113 -187 -354 -187q-134 0 -227 55q-106 62 -131 183q-11 52 -11 166v694h182z" />
    <glyph glyph-name="spade" unicode="&#x2660;" horiz-adv-x="1038" 
d="M815 1071h201l-451 -1237q-56 -152 -107 -207q-72 -76 -210 -76q-50 0 -107 17v172q54 -16 105 -16q100 0 133 88l47 127l-406 1132h201l297 -866z" />
    <glyph glyph-name="apple" unicode="&#xf000;" horiz-adv-x="1618" 
d="M836 1216q-2 12 -2 37q0 132 101 237q96 99 230 124q2 -20 2 -62q0 -117 -94 -226q-97 -112 -213 -112h-8q-3 0 -8 1t-8 1zM1505 403q-90 -196 -152 -279q-118 -159 -257 -159q-46 0 -130 33t-124 33q-44 0 -130 -33t-128 -33q-129 0 -258 176q-213 291 -213 596
q0 211 117 348q124 146 331 146q57 0 149.5 -34t129.5 -34q32 0 124.5 35t149.5 35q216 0 359 -164q-201 -128 -201 -328q0 -233 233 -338z" />
    <glyph glyph-name="fi" unicode="&#xf001;" horiz-adv-x="989" 
d="M176 0v928h-176v143h176v158q0 266 242 266q40 0 131 -14v-162q-58 10 -80 10q-72 0 -97 -51q-16 -34 -16 -117v-90h193v-143h-193v-928h-180zM678 1270v203h180v-203h-180zM678 0v1071h180v-1071h-180z" />
    <glyph glyph-name="fl" unicode="&#xf002;" horiz-adv-x="997" 
d="M176 0v928h-176v143h176v158q0 266 242 266q40 0 131 -14v-162q-58 10 -80 10q-72 0 -97 -51q-16 -34 -16 -117v-90h193v-143h-193v-928h-180zM686 0v1473h180v-1473h-180z" />
    <glyph glyph-name="periodcentered" horiz-adv-x="561" 
d="M158 702q0 52 35.5 87.5t87.5 35.5t88.5 -35.5t36.5 -87.5t-36.5 -87t-88.5 -35t-87.5 35t-35.5 87z" />
    <glyph glyph-name="glyph264" horiz-adv-x="1235" 
d="M729 0h-201v590l-546 883h251l394 -697l391 697h235l-524 -869v-604z" />
    <glyph glyph-name="glyph273" horiz-adv-x="561" 
 />
    <glyph glyph-name="glyph274" horiz-adv-x="561" 
 />
    <glyph glyph-name="glyph261" horiz-adv-x="1024" 
d="M501 1199l-1 13q0 62 48 110l24 24q34 34 34 74q0 68 -72 68q-79 0 -83 -98h-83v8q0 93 55 142q50 45 111 47q81 3 129 -38q56 -48 56 -127q0 -36 -22 -71q-1 -3 -39 -45q-14 -15 -52 -53q-19 -22 -19 -39v-15h-86z" />
    <glyph glyph-name="glyph262" 
d="M262 1217l197 348h196l197 -348h-123l-172 227l-174 -227h-121zM264 1588l204 348h201l-285 -348h-120z" />
    <glyph glyph-name="glyph263" 
d="M262 1217l197 348h196l197 -348h-123l-172 227l-174 -227h-121zM853 1587h-120l-285 348h201z" />
    <glyph glyph-name="glyph264" 
d="M262 1217l197 348h196l197 -348h-123l-172 227l-174 -227h-121zM737 1541l-1 13q0 62 48 110l24 24q34 34 34 74q0 68 -72 68q-79 0 -83 -98h-83v8q0 93 55 142q50 45 111 47q81 3 129 -38q56 -48 56 -127q0 -36 -22 -71q-1 -3 -39 -45q-14 -15 -52 -53q-19 -22 -19 -39
v-15h-86z" />
    <glyph glyph-name="glyph265" 
d="M262 1217l197 348h196l197 -348h-123l-172 227l-174 -227h-121zM903 1859q-41 -207 -197 -207q-29 0 -65 10l-97 27q-29 8 -49 8q-62 0 -90 -69h-88q37 204 193 204q32 0 59 -8l99 -29q27 -8 53 -8q66 0 94 72h88z" />
    <glyph glyph-name="glyph266" 
d="M263 1530h108q10 -139 183 -139q174 0 182 139h109q-21 -279 -291 -279t-291 279zM376 1588l204 348h201l-285 -348h-120z" />
    <glyph glyph-name="glyph267" 
d="M263 1530h108q10 -139 183 -139q174 0 182 139h109q-21 -279 -291 -279t-291 279zM737 1587h-120l-285 348h201z" />
    <glyph glyph-name="glyph268" 
d="M263 1530h108q10 -139 183 -139q174 0 182 139h109q-21 -279 -291 -279t-291 279zM517 1541l-1 13q0 62 48 110l24 24q34 34 34 74q0 68 -72 68q-79 0 -83 -98h-83v8q0 93 55 142q50 45 111 47q81 3 129 -38q56 -48 56 -127q0 -36 -22 -71q-1 -3 -39 -45q-14 -15 -52 -53
q-19 -22 -19 -39v-15h-86z" />
    <glyph glyph-name="glyph269" 
d="M263 1530h108q10 -139 183 -139q174 0 182 139h109q-21 -279 -291 -279t-291 279zM903 1859q-41 -207 -197 -207q-29 0 -65 10l-97 27q-29 8 -49 8q-62 0 -90 -69h-88q37 204 193 204q32 0 59 -8l99 -29q27 -8 53 -8q66 0 94 72h88z" />
    </font>
</defs>
</svg>
