<?xml version="1.0" standalone="no"?>
<!DOCTYPE svg PUBLIC "-//W3C//DTD SVG 1.1//EN" "http://www.w3.org/Graphics/SVG/1.1/DTD/svg11.dtd" >
<svg>
<metadata>
Created by FontForge 20110222 at Sun Dec  1 22:56:10 2013
 By Orthosie Webhosting
(c) Copyright 2001 by Tom Truong. All Rights Reserved
</metadata>
<defs>
<font id="UVNPhuongTayRegular" horiz-adv-x="1161" >
  <font-face 
    font-family="UVNPhuongTayRegular"
    font-weight="400"
    font-style="italic"
    font-stretch="normal"
    units-per-em="2048"
    panose-1="4 4 8 5 7 8 2 2 13 2"
    ascent="1638"
    descent="-410"
    x-height="1001"
    cap-height="1378"
    bbox="-423 -544 2373 2150"
    underline-thickness="178"
    underline-position="-89"
    slope="170"
    unicode-range="U+0020-F002"
  />
<missing-glyph horiz-adv-x="1024" 
d="M128 0v2150h768v-2150h-768zM256 128h512v1894h-512v-1894z" />
    <glyph glyph-name=".notdef" horiz-adv-x="1024" 
d="M128 0v2150h768v-2150h-768zM256 128h512v1894h-512v-1894z" />
    <glyph glyph-name=".null" horiz-adv-x="0" 
 />
    <glyph glyph-name="nonmarkingreturn" horiz-adv-x="410" 
 />
    <glyph glyph-name="space" unicode=" " horiz-adv-x="410" 
 />
    <glyph glyph-name="exclam" unicode="!" horiz-adv-x="678" 
d="M369 1338q79 0 185 27q39 10 56 10q70 0 70 -102q0 -69 -59 -218q-46 -107 -92 -213q-33 -81 -101 -241q-10 -22 -10 -32q0 -9 16 -28.5t16 -34.5q0 -30 -21.5 -43t-95.5 -23q-22 -3 -82 -21q-54 -16 -72 -16q-58 0 -58 86q0 89 96 386q89 275 89 310q0 40 -38.5 64
t-38.5 47q0 43 50 43h45q31 -1 45 -1zM300 323q55 0 93 -38t38 -93q0 -78 -90 -138q-81 -55 -164 -55q-57 0 -96.5 38t-39.5 95q0 85 90 142q78 49 169 49z" />
    <glyph glyph-name="quotedbl" unicode="&#x22;" horiz-adv-x="760" 
d="M425 1383q98 0 98 -49q0 -24 -76 -226q-77 -206 -106 -254q-34 -55 -78 -55q-63 0 -63 77q0 49 55.5 241t80 229t89.5 37zM784 1383q98 0 98 -49q0 -24 -76 -226q-77 -206 -106 -254q-34 -55 -78 -55q-63 0 -63 77q0 48 56 241.5t80 229.5t89 36z" />
    <glyph glyph-name="numbersign" unicode="#" horiz-adv-x="1435" 
d="M654 1061h333l89 293q6 20 27 20h114q26 0 26 -21q0 -5 -87 -292h261q26 0 26 -21q0 -5 -35 -121q-6 -20 -27 -20h-274l-109 -359h261q26 0 26 -21q0 -5 -35 -121q-6 -20 -27 -20h-274l-106 -349q-6 -20 -26 -20h-103q-26 0 -26 19q0 6 101 350h-342l-105 -349
q-6 -20 -27 -20h-114q-26 0 -26 21q0 5 104 348h-261q-26 0 -26 21q0 5 35 121q6 20 27 20h274l109 359h-261q-26 0 -26 21q0 5 35 121q6 20 27 20h273l89 293q6 20 27 20h114q26 0 26 -21q0 -5 -87 -292zM605 899l-109 -359h333l109 359h-333z" />
    <glyph glyph-name="dollar" unicode="$" 
d="M870 1373q256 -52 256 -227q0 -71 -44 -126q-48 -60 -117 -60q-49 0 -85 31q-39 33 -39 81q0 44 42 78.5t42 48.5q0 64 -123 64q-87 0 -158 -54q-77 -59 -77 -143q0 -81 107 -162q100 -76 200 -151q107 -105 107 -243q0 -126 -66 -238q-128 -218 -449 -274
q-51 -157 -81 -200q-32 -47 -81 -47q-31 0 -58 18t-27 48q0 19 33 88q22 46 45 93q-99 14 -177 43q-120 45 -120 107q0 20 15.5 57.5t44.5 156.5q17 71 33.5 94.5t43.5 23.5q53 0 53 -58q0 -20 -4 -60.5t-4 -61.5q0 -190 180 -190q107 0 193.5 79t86.5 186q0 90 -105 172
l-194 148q-105 102 -105 240q0 143 99 258q128 148 372 180q33 106 50 140q45 89 103 89q30 0 59 -20t29 -49q0 -20 -80 -160z" />
    <glyph glyph-name="percent" unicode="%" horiz-adv-x="1679" 
d="M604 1382q186 0 186 -199q0 -195 -163 -395q-170 -211 -360 -211q-95 0 -148 56t-53 152q0 203 166 396q172 201 372 201zM546 1291q-65 0 -151 -136q-124 -197 -124 -380q0 -102 60 -102q87 0 175 186q86 181 86 334q0 98 -46 98zM407 -22q-58 0 -58 54q0 29 103 183
l699 1046q27 45 82 119q16 17 39 17q54 0 54 -63q0 -26 -69 -129l-718 -1074q-88 -131 -110 -148q-8 -5 -22 -5zM1429 803q185 0 185 -199q0 -195 -163 -395q-170 -211 -360 -211q-95 0 -148 56t-53 151q0 204 166 397q172 201 373 201zM1370 712q-69 0 -149 -132
q-59 -97 -92 -198q-34 -104 -34 -186q0 -102 60 -102q87 0 175 186q86 181 86 334q0 98 -46 98z" />
    <glyph glyph-name="ampersand" unicode="&#x26;" horiz-adv-x="1493" 
d="M768 874l101 -268q83 96 120 127q78 64 157 64q95 0 159.5 -65t64.5 -160q0 -101 -72 -165.5t-174 -64.5q-140 0 -140 117q0 13 8 35t8 33t-11 11q-20 0 -66 -56q28 -82 92 -222q28 -45 97 -67q55 -17 55 -51q0 -24 -18 -36q-12 -8 -90.5 -24t-231.5 -75q-23 -9 -39 -9
q-54 0 -81 116q-6 24 -19 70q-94 -95 -153 -132q-89 -57 -191 -57q-143 0 -236.5 91t-93.5 234q0 169 140 320q94 101 285 220q-15 86 -15 141q0 157 110 267t268 110q96 0 158 -47q68 -52 68 -145q0 -100 -87 -187q-53 -54 -173 -125zM723 996q123 71 123 175q0 92 -68 92
q-80 0 -80 -109q0 -75 25 -158zM640 301l-149 381q-108 -100 -108 -282q0 -60 34 -113q39 -60 95 -60q58 0 128 74z" />
    <glyph glyph-name="quotesingle" unicode="'" horiz-adv-x="402" 
d="M425 1383q98 0 98 -49q0 -24 -76 -226q-77 -206 -106 -254q-34 -55 -78 -55q-63 0 -63 77q0 49 55.5 241t80 229t89.5 37z" />
    <glyph glyph-name="parenleft" unicode="(" horiz-adv-x="760" 
d="M808 1390q61 0 61 -79q0 -32 -19 -44q-7 -4 -49 -15q-58 -15 -150 -118q-150 -169 -301 -554q-153 -390 -153 -613q0 -83 13 -125q11 -37 53 -76q37 -34 37 -55q0 -33 -29 -60.5t-63 -27.5q-60 0 -107 82q-101 174 -101 474q0 229 85 441q76 190 211 367q138 182 299 298
q145 105 213 105z" />
    <glyph glyph-name="parenright" unicode=")" horiz-adv-x="760" 
d="M429 1392q59 0 107 -82q101 -173 101 -474q0 -230 -85 -441q-77 -191 -211 -367q-139 -182 -300 -298q-146 -105 -212 -105q-61 0 -61 79q0 32 19 44q7 4 49 15q58 15 150 118q150 169 301 554q153 390 153 613q0 83 -13 125q-11 37 -53 76q-37 34 -37 55q0 33 29.5 60.5
t62.5 27.5z" />
    <glyph glyph-name="asterisk" unicode="*" horiz-adv-x="686" 
d="M555 1093q41 -20 82 -41q59 -35 59 -65q0 -27 -22.5 -50.5t-49.5 -23.5q-37 0 -131 89l-11 -83q-10 -72 -12 -78q-14 -38 -61 -38q-51 0 -51 46q0 7 26 153q-135 -91 -163 -91q-44 0 -44 73q0 28 39 48q30 16 134 61q-48 21 -130 70q-12 10 -12 27q0 26 27 55t53 29
q21 0 124 -93l11 70q6 42 11 84q14 44 62 44q55 0 55 -38q0 -20 -30 -160q144 89 165 89q42 0 42 -63q0 -44 -70 -77q-11 -6 -103 -37z" />
    <glyph glyph-name="plus" unicode="+" 
d="M537 819l91 302q18 59 29 65.5t80 6.5q74 0 74 -13q0 -8 -29 -104l-78 -257l333 1q59 0 59 -31q0 -13 -9.5 -55t-18 -61t-23.5 -22t-104 -3h-288l-97 -320q-26 -87 -33 -93q-12 -11 -100 -11q-55 0 -55 19q0 13 35 129l83 276l-347 1q-49 0 -49 32q0 38 33 110
q9 20 24 25q12 3 86 3h304z" />
    <glyph glyph-name="comma" unicode="," horiz-adv-x="530" 
d="M170 -1q-36 -9 -63 -9q-57 0 -95.5 37.5t-38.5 94.5q0 83 76 142q70 54 155 54q74 0 125 -45t51 -118q0 -121 -102 -227q-79 -82 -147 -82q-27 0 -51 19.5t-24 45.5t46 52z" />
    <glyph glyph-name="hyphen" unicode="-" horiz-adv-x="765" 
d="M545 574q97 0 97 -45q0 -19 -16 -59q-21 -53 -49 -63q-13 -4 -86 -4h-359q-64 0 -74 2q-44 8 -44 45q0 31 19 71q21 47 47 52q9 1 48 1h417z" />
    <glyph glyph-name="hyphen" unicode="&#x2010;" horiz-adv-x="765" 
d="M545 574q97 0 97 -45q0 -19 -16 -59q-21 -53 -49 -63q-13 -4 -86 -4h-359q-64 0 -74 2q-44 8 -44 45q0 31 19 71q21 47 47 52q9 1 48 1h417z" />
    <glyph glyph-name="period" unicode="." horiz-adv-x="530" 
d="M247 323q55 0 93 -38t38 -93q0 -78 -90 -138q-81 -55 -164 -55q-57 0 -96.5 38t-39.5 95q0 85 90 142q78 49 169 49z" />
    <glyph glyph-name="slash" unicode="/" horiz-adv-x="828" 
d="M-225 -380q-22 0 -42 18t-20 40q0 24 106 184l931 1402l50 78q38 53 66 53q24 0 41 -20t17 -44q0 -28 -71 -135l-940 -1411q-32 -57 -105 -152q-13 -13 -33 -13z" />
    <glyph glyph-name="zero" unicode="0" horiz-adv-x="1160" 
d="M865 1381q160 0 241 -99q76 -92 76 -255q0 -202 -130.5 -445.5t-324.5 -404.5q-213 -176 -420 -176q-154 0 -244 103q-85 98 -85 254q0 220 126 460.5t322 394.5q215 168 439 168zM816 1263q-116 0 -265 -238q-97 -154 -152 -322.5t-55 -311.5q0 -189 121 -189
q120 0 240 186q81 125 142 295q79 223 79 404q0 176 -110 176z" />
    <glyph glyph-name="one" unicode="1" 
d="M597 1133q-117 -45 -164 -45q-63 0 -63 58q0 40 41 57q44 10 118 27q99 23 319 128q38 18 65 18q62 0 62 -86q0 -123 -121 -458q-88 -241 -177 -481q-28 -87 -28 -132t59 -59.5t59 -50.5q0 -26 -21 -36q-17 -8 -102 -12q-61 -3 -131.5 -16.5t-122.5 -33.5
q-39 -15 -58 -15q-57 0 -57 94q0 134 90 401q34 102 147 390q64 164 85 252z" />
    <glyph glyph-name="two" unicode="2" 
d="M918 460q51 0 51 -50q0 -24 -39 -119q-60 -146 -82 -228q-11 -41 -25 -52q-16 -14 -48 -14q-22 0 -57 5q-160 23 -334 23q-159 0 -256 -17q-74 -13 -115 -13q-72 0 -72 74q0 63 44 158q91 195 281 365q85 77 275 218q120 89 164 135q91 94 91 183q0 133 -152 133
q-67 0 -125 -29q-73 -35 -73 -95q0 -13 3.5 -38t3.5 -38q0 -53 -34 -88.5t-87 -35.5q-54 0 -88 34.5t-34 88.5q0 104 102 193q86 75 198 106q74 19 173 19q438 0 438 -320q0 -221 -291 -444q-176 -134 -184 -141q-104 -83 -171 -157q-84 -92 -84 -134q0 -51 79 -51
q117 0 226 96q67 59 164 193q9 13 28 32q12 8 30 8z" />
    <glyph glyph-name="three" unicode="3" 
d="M857 804q171 -48 171 -213q0 -246 -257 -428q-235 -166 -492 -166q-138 0 -233 69q-107 77 -107 210q0 83 47 142q51 63 132 63q49 0 84 -33.5t35 -82.5q0 -65 -67.5 -98t-67.5 -60q0 -44 54 -72q46 -23 94 -23q149 0 281 166q125 158 125 311q0 89 -94 89
q-41 0 -111 -32t-87 -32q-31 0 -31 43q0 44 26 81q15 21 73 31q251 43 347 282q26 65 26 113q0 95 -120 95q-61 0 -129 -30q-83 -37 -83 -89q0 -17 9.5 -50.5t9.5 -51.5q0 -55 -38.5 -92.5t-93.5 -37.5q-53 0 -87 33.5t-34 86.5q0 92 88 185q157 165 427 165q194 0 298 -87
q79 -66 79 -149q0 -113 -88 -205q-60 -62 -186 -133z" />
    <glyph glyph-name="four" unicode="4" 
d="M853 512q22 0 66.5 1t66.5 1q74 0 74 -83q0 -66 -33 -66q-12 0 -37 13q-28 14 -42 17q-17 2 -115 2l-17 -1q-40 -129 -40 -174t43 -61t43 -44q0 -47 -78 -52q-128 -8 -268 -59q-33 -12 -51 -12q-65 0 -65 108q0 117 60 294q-52 3 -70 3q-147 0 -234 -11q-48 -6 -75 -6
q-77 0 -77 76q0 106 101 252q89 128 329 318q62 47 177 150q36 38 72 110q15 31 29 38t69 10q118 7 198 33q31 10 47 10q57 0 57 -87q0 -155 -149 -556q-29 -74 -81 -224zM493 507q9 27 179 502q22 61 28 102q-111 -137 -222 -275q-160 -211 -160 -289q0 -41 83 -41
q70 0 92 1z" />
    <glyph glyph-name="five" unicode="5" horiz-adv-x="1160" 
d="M681 1248q-17 -103 -54 -196q-21 -50 -57 -150q100 13 157 13q139 0 230 -75q98 -81 98 -217q0 -147 -97 -293q-101 -152 -271.5 -241.5t-353.5 -89.5q-143 0 -243 68q-116 78 -116 214q0 82 49 142q52 64 132 64q53 0 87.5 -31t34.5 -83q0 -69 -70.5 -101t-70.5 -62
q0 -43 56 -71q46 -23 95 -23q156 0 289 198q108 161 108 316q0 145 -148 145q-86 0 -195 -55t-118 -55q-59 0 -59 71q0 52 82 252q85 207 85 243q0 10 -7.5 29.5t-7.5 30.5q0 83 217 83q68 0 203 -7t202 -7q27 0 79.5 6t78.5 6q27 0 51 -16t24 -42q0 -18 -16 -54
q-23 -51 -69 -217q-11 -42 -28 -93q-17 -24 -41 -24q-56 0 -56 59q0 17 6.5 51.5t6.5 52.5q0 99 -64 136q-47 27 -151 27q-26 0 -78 -4z" />
    <glyph glyph-name="six" unicode="6" 
d="M497 898q124 59 238 59q146 0 234 -86.5t88 -232.5q0 -153 -93 -302q-96 -153 -252 -244q-160 -93 -338 -93t-273 107q-89 101 -89 282q0 365 239 665q256 321 612 321q172 0 248 -80q64 -67 64 -150q0 -72 -50 -130q-52 -62 -122 -62q-53 0 -93 35.5t-40 87.5
q0 57 47.5 90.5t47.5 50.5q0 44 -81 44q-122 0 -238 -125q-93 -100 -149 -237zM644 833q-39 0 -84 -32q-94 -68 -159 -248q-57 -160 -57 -294q0 -142 95 -142q124 0 215 246q75 202 75 356q0 114 -85 114z" />
    <glyph glyph-name="seven" unicode="7" 
d="M527 739q120 115 354 352q-52 -7 -114 -7q-44 0 -133 4t-133 4q-78 0 -117 -31q-11 -8 -81 -92q-27 -32 -56 -32q-43 0 -43 47q0 22 15 58q66 159 89 261q10 45 26.5 61t47.5 16q26 0 87 -9q102 -15 230 -15q214 0 349 18q45 6 67 6q74 0 74 -68q0 -69 -85 -175
q-14 -17 -136 -149t-207 -249q91 -1 91 -45q0 -19 -16.5 -60.5t-27.5 -50.5q-18 -15 -155 -15q-97 -180 -97 -328q0 -57 50 -78.5t50 -48.5q0 -38 -71 -47q-121 -15 -140 -18q-80 -12 -136 -32q-48 -17 -70 -17q-54 0 -54 92q0 201 198 477h-19h-85q-55 8 -55 47q0 24 15 61
q20 51 46 60q10 3 79 3h163z" />
    <glyph glyph-name="eight" unicode="8" 
d="M881 844q86 -73 119 -124q45 -70 45 -165q0 -171 -121 -316q-112 -134 -282 -194q-135 -48 -284 -48q-173 0 -279 75q-120 86 -120 253q0 225 235 357q15 9 172 75q-132 114 -132 251q0 182 184 285q152 86 349 86q373 0 373 -241q0 -181 -259 -294zM748 924
q198 102 198 236q0 103 -127 103q-83 0 -143 -39q-69 -45 -69 -124q0 -57 47 -104q17 -17 94 -72zM502 675q-120 -52 -176 -94q-82 -61 -122 -153q-31 -73 -31 -144q0 -76 47 -123.5t123 -47.5q136 0 238 106t102 242q0 73 -59 129q-24 23 -122 85z" />
    <glyph glyph-name="nine" unicode="9" 
d="M650 475q-126 -59 -238 -59q-146 0 -234.5 86t-88.5 232q0 153 94 304.5t252.5 243.5t336.5 92t273 -107q89 -101 89 -282q0 -365 -240 -665q-256 -321 -611 -321q-173 0 -248 80q-64 68 -64 150q0 72 50.5 132t121.5 60q53 0 93 -35.5t40 -87.5q0 -56 -47.5 -90.5
t-47.5 -50.5q0 -44 81 -44q122 0 238 125q93 101 150 237zM700 1256q-115 0 -207 -243q-76 -203 -76 -347q0 -126 84 -126q40 0 87 34q92 67 157 247q57 160 57 293q0 142 -102 142z" />
    <glyph glyph-name="colon" unicode=":" horiz-adv-x="689" 
d="M260 323q55 0 93 -38t38 -93q0 -78 -90 -138q-81 -55 -164 -55q-57 0 -96.5 38t-39.5 95q0 85 90 142q78 49 169 49zM446 1002q55 0 93 -38t38 -93q0 -78 -90 -138q-81 -55 -164 -55q-56 0 -96 38.5t-40 94.5q0 85 90 141q79 50 169 50z" />
    <glyph glyph-name="semicolon" unicode=";" horiz-adv-x="689" 
d="M170 -1q-36 -9 -63 -9q-57 0 -95.5 37.5t-38.5 94.5q0 83 76 142q70 54 155 54q74 0 125 -45t51 -118q0 -121 -102 -227q-79 -82 -147 -82q-27 0 -51 19.5t-24 45.5t46 52zM463 1002q56 0 93.5 -38t37.5 -94q0 -78 -90 -138q-82 -54 -164 -54q-57 0 -96.5 38t-39.5 95
q0 85 90 141q79 50 169 50z" />
    <glyph glyph-name="less" unicode="&#x3c;" horiz-adv-x="1024" 
d="M955 1271v-296l-572 -292l572 -293v-296l-887 465v249z" />
    <glyph glyph-name="equal" unicode="=" 
d="M272 821q-13 0 -39 1h-39q-49 0 -49 32q0 38 33 110q9 21 24 25q12 3 86 3l793 1q70 0 70 -31q0 -13 -10 -56q-17 -67 -33 -77q-12 -8 -84 -8h-752zM165 474q-13 0 -41 1h-41q-49 0 -49 32q0 38 33 110q9 21 22 24.5t88 3.5l804 1q59 0 59 -31q0 -13 -10 -56
q-16 -67 -34 -78q-12 -7 -86 -7h-745z" />
    <glyph glyph-name="greater" unicode="&#x3e;" horiz-adv-x="1024" 
d="M69 1271l887 -463v-249l-887 -465v296l572 293l-572 292v296z" />
    <glyph glyph-name="question" unicode="?" horiz-adv-x="1046" 
d="M530 1241q-60 0 -116 -26q-69 -32 -69 -85q0 -13 4.5 -39t4.5 -39q0 -46 -34.5 -79.5t-80.5 -33.5q-50 0 -83 34t-33 84q0 109 119 202q151 118 374 118q181 0 299 -70q145 -85 145 -253q0 -110 -77 -213q-58 -77 -166 -131q-37 -19 -198 -81q-40 -15 -82 -45
q14 -15 28.5 -30.5t14.5 -39.5q0 -48 -59 -75q-46 -20 -102 -20q-75 0 -128 37q-60 42 -60 114q0 87 80 155q45 38 156 93q61 30 95 49q64 37 87 60q55 57 55 151q0 163 -174 163zM441 323q56 0 93.5 -38t37.5 -94q0 -78 -90 -138q-82 -54 -164 -54q-57 0 -96.5 38t-39.5 95
q0 85 90 141q79 50 169 50z" />
    <glyph glyph-name="at" unicode="@" horiz-adv-x="1276" 
d="M701 609q-111 -155 -216 -155q-61 0 -97 39t-36 100q0 128 129 280q133 156 257 156q84 0 84 -68q0 -58 -48 -58q-38 0 -38 35q0 -1 13 29q-3 4 -9 4q-22 0 -59 -38q-52 -53 -102 -154q-54 -108 -54 -173q0 -33 38 -33q86 0 180 167q79 140 81 239q0 10 6 26q5 4 36 6
q18 1 60 11q38 9 54 9q24 0 24 -30q0 -59 -65.5 -213.5t-65.5 -209.5q0 -62 65 -62q43 0 99 39q80 54 128.5 142.5t48.5 183.5q0 183 -124.5 306.5t-307.5 123.5q-259 0 -450 -236q-180 -222 -180 -487q0 -199 112 -327q118 -134 313 -134q158 0 307 71q9 4 100 58
q75 44 89 44q23 0 23 -24q0 -42 -113 -120q-186 -129 -409 -129q-221 0 -362 140q-186 185 -186 455q0 296 222 541q228 251 521 251q222 0 375 -137q159 -143 159 -362q0 -195 -127 -339q-140 -159 -319 -159q-70 0 -116 31q-55 36 -55 102q0 16 15 59z" />
    <glyph glyph-name="A" unicode="A" horiz-adv-x="1141" 
d="M599 565q-82 9 -186 9q-106 0 -188 -9q-78 -190 -78 -293q0 -64 35 -93q11 -9 65 -33q35 -15 35 -43q0 -32 -40 -45q-7 -2 -94 -12q-97 -11 -176 -42q-35 -14 -52 -14q-57 0 -57 81q0 89 57 245q126 345 392 632q291 314 615 400q113 30 167 30q88 0 88 -96
q0 -106 -78 -337q-16 -46 -123 -331q-121 -322 -121 -397q0 -41 42.5 -63.5t42.5 -43.5q0 -31 -39 -46q-7 -2 -84 -8q-114 -8 -213 -47q-49 -19 -66 -19q-61 0 -61 99q0 95 41 241q3 8 76 235zM643 682q170 432 170 480q0 24 -23 24q-8 0 -80 -38q-54 -29 -148 -116
q-89 -83 -130 -136.5t-116 -161.5q-13 -15 -32 -46q0 -10 42 -12q77 -3 184 -3q14 0 133 9z" />
    <glyph glyph-name="B" unicode="B" horiz-adv-x="1164" 
d="M839 844q241 -54 241 -281q0 -215 -190 -383q-184 -162 -402 -162q-41 0 -124 10t-124 10q-78 0 -156 -26q-42 -14 -59 -14q-66 0 -66 105q0 174 199 702q123 326 123 374q0 29 -46 43.5t-46 47.5t35 50q15 7 342 44q133 15 243 15q129 0 218 -43q116 -56 116 -171
q0 -113 -104 -199q-40 -33 -200 -122zM648 1254q-10 -90 -50 -216q-34 -105 -68 -211q117 55 194 133q98 99 98 206q0 102 -91 102q-29 0 -83 -14zM584 715q-73 0 -113 -67q-33 -54 -88 -225q-56 -174 -56 -226q0 -58 57 -58q51 0 107 41q85 60 142 185q55 119 55 228
q0 51 -26 85q-29 37 -78 37z" />
    <glyph glyph-name="C" unicode="C" horiz-adv-x="1053" 
d="M856 1256q-63 0 -142 -65q-191 -156 -312 -513q-57 -168 -57 -301q0 -182 121 -182q58 0 130 38q133 71 262 298q21 37 48 37q53 0 53 -53q0 -27 -29 -85q-116 -228 -349 -364q-123 -72 -267 -72q-157 0 -247 97q-87 94 -87 253q0 253 163 519q153 249 376 398
q172 115 340 115q124 0 205 -57q92 -66 92 -185q0 -74 -46 -129q-48 -59 -121 -59q-52 0 -89.5 34t-37.5 85q0 45 36.5 83.5t36.5 55.5q0 52 -79 52z" />
    <glyph glyph-name="D" unicode="D" horiz-adv-x="1229" 
d="M782 1380q207 0 329 -115q125 -118 125 -324q0 -116 -55 -259q-142 -369 -487 -562q-100 -56 -185 -73q-79 -17 -256 -17q-111 0 -166 -16q-51 -15 -68 -15q-61 0 -61 110q0 114 78 349q13 39 126 343q126 340 126 374q0 26 -45.5 45.5t-45.5 51.5q0 33 47 50
q11 4 138 20q299 38 400 38zM657 1253q-16 -110 -52 -224q-34 -108 -125 -347q-85 -222 -122 -346q-32 -109 -32 -147q0 -52 50 -52q54 0 130 68q138 123 255 402q115 273 115 464q0 195 -154 195q-42 0 -65 -13z" />
    <glyph glyph-name="E" unicode="E" horiz-adv-x="1050" 
d="M671 1253q-26 -166 -138 -459q161 26 247 26q112 0 112 -71q0 -34 -13 -66q-17 -41 -45 -41q-12 0 -36 21q-27 22 -42.5 26.5t-70.5 4.5q-64 0 -197 -15q-157 -383 -157 -488q0 -58 68 -58q99 0 213 84q103 75 161 169q16 29 53 78q16 16 38 16q18 0 32.5 -15.5
t14.5 -33.5t-15 -53q-70 -161 -94 -259q-30 -120 -95 -120q-22 0 -76 14q-77 20 -265 20q-158 0 -256 -21q-51 -11 -80 -11q-71 0 -71 88q0 181 238 780q105 264 105 321q0 35 -41.5 57.5t-41.5 45.5q0 50 64 49q152 -3 155 -3q32 0 114 9q282 31 354 31q220 0 220 -77
q0 -4 -54 -184q-12 -39 -32 -116q-12 -57 -25 -74q-16 -21 -42 -21q-52 0 -52 60q0 25 7 74.5t7 74.5q0 81 -36.5 113t-118.5 32q-55 0 -109 -8z" />
    <glyph glyph-name="F" unicode="F" horiz-adv-x="987" 
d="M658 1252q-11 -101 -53 -231q-39 -113 -79 -225q184 24 244 24q116 0 116 -70q0 -34 -14 -67q-17 -41 -46 -41q-10 0 -39.5 26t-85.5 26q-16 0 -220 -17q-43 -116 -86 -231q-57 -157 -57 -232q0 -31 41 -53t41 -48q0 -44 -75 -50q-81 -7 -107 -10q-62 -9 -104 -24
q-91 -33 -116 -33q-59 0 -59 98q0 127 81 369q28 85 133 358q117 304 117 365q0 33 -40 58.5t-40 46.5q0 48 68 48q20 0 59 -1.5t59 -1.5q17 0 123 10q61 6 234 23q111 11 152 11q212 0 212 -75q0 -8 -52 -188t-57 -187q-14 -20 -41 -20q-55 0 -55 54q0 23 6.5 68t6.5 68
q0 87 -32 123.5t-118 36.5q-59 0 -117 -8z" />
    <glyph glyph-name="G" unicode="G" horiz-adv-x="1113" 
d="M691 172q-200 -175 -392 -175q-155 0 -240 105q-79 97 -79 256q0 255 174 528q164 260 393 398q160 97 346 97q124 0 204 -58q91 -66 91 -186q0 -77 -44 -131q-47 -58 -122 -58q-53 0 -91 31.5t-38 83.5q0 60 48 100t48 53q0 50 -88 50q-158 0 -331 -247
q-98 -140 -160 -314q-67 -186 -67 -344q0 -156 113 -156q90 0 188 89q78 69 136 167q29 49 29 69q0 27 -39 27q-42 0 -103 -23.5t-80 -23.5q-41 0 -41 50q0 59 47 94q40 30 330 30q89 0 89 -47q0 -21 -19 -63q-161 -358 -161 -457v-47q0 -35 -45 -56q-37 -16 -77 -16
q-48 0 -48 54q0 32 29 120z" />
    <glyph glyph-name="H" unicode="H" horiz-adv-x="1232" 
d="M764 781q139 349 139 408q0 28 -42 53t-42 49q0 47 53 47q14 0 41.5 -1.5t41.5 -1.5q63 0 106 7q16 3 81 20q54 15 74 15q57 0 57 -92q0 -109 -84 -351q-16 -47 -130 -341q-115 -298 -115 -378q0 -34 42 -55t42 -47t-21 -38q-17 -10 -104 -16q-94 -7 -226 -49
q-38 -12 -55 -12q-58 0 -58 108q0 97 59 280q48 138 96 277q-39 3 -111 3q-85 0 -131 -3l-84 -224q-53 -151 -53 -223q0 -35 41.5 -55.5t41.5 -46.5q0 -27 -22 -39q-17 -9 -95 -16q-115 -10 -238 -53q-29 -10 -46 -10q-63 0 -63 97q0 123 83 372q25 76 133 361
q118 311 118 358q0 33 -41.5 59t-41.5 47q0 48 57 48q16 0 47 -2.5t46 -2.5q88 0 196 34q32 10 50 10q57 0 57 -90q0 -95 -51 -257q-14 -41 -90 -249q62 -5 124 -5t118 5z" />
    <glyph glyph-name="I" unicode="I" horiz-adv-x="621" 
d="M262 1339q20 0 60 -2.5t61 -2.5q68 0 172 33q35 11 50 11q57 0 57 -94q0 -138 -172 -589q-153 -401 -153 -474q0 -39 42.5 -59.5t42.5 -48.5q0 -31 -37 -44q-8 -3 -84 -10q-128 -12 -217 -46q-42 -16 -65 -16q-61 0 -61 91q0 163 121 489l184 490q29 94 29 120
q0 30 -41.5 52t-41.5 49q0 51 53 51z" />
    <glyph glyph-name="J" unicode="J" horiz-adv-x="1003" 
d="M12 311q55 0 94.5 -34.5t39.5 -88.5q0 -48 -49 -95.5t-49 -60.5q0 -49 81 -49q116 0 173 97q28 48 54 144l36 152q13 48 62 181q22 59 100 261q37 95 105 286q15 47 15 76q0 45 -51 59.5t-51 46.5q0 53 65 53q15 0 46 -2t47 -2q117 0 199 28q41 14 59 14q58 0 58 -100
q0 -119 -217 -696q-77 -205 -77 -240q0 -17 12 -45t12 -36q0 -35 -86 -121q-65 -65 -121 -106q-221 -164 -433 -164q-122 0 -205 58q-95 66 -95 184q0 80 47 138q51 62 129 62z" />
    <glyph glyph-name="K" unicode="K" horiz-adv-x="1162" 
d="M713 924q89 28 142 28q84 0 140.5 -60.5t56.5 -144.5q0 -80 -76 -303q-61 -179 -61 -224q0 -35 42 -61.5t42 -45.5q0 -30 -31 -44t-110 -14q-87 0 -191 -40q-50 -19 -73 -19q-61 0 -61 102q0 154 132 507q18 48 18 76q0 42 -47 42q-96 0 -180 -151q-55 -100 -93 -237
q-22 -79 -22 -115q0 -35 42 -59.5t42 -43.5q0 -28 -25 -41.5t-89 -14.5q-115 -3 -216 -42q-57 -22 -78 -22q-58 0 -58 104q0 181 209 706q127 319 127 379q0 30 -40.5 57t-40.5 49q0 51 57 49q101 -3 104 -3q90 0 170 26q46 15 69 15q54 0 54 -80q0 -121 -83 -358
q19 21 101 120q76 91 204 192q157 125 237 125q39 0 78 -47t39 -87q0 -44 -40 -44q-13 0 -38 7.5t-38 7.5q-82 0 -225 -111q-110 -87 -190 -180z" />
    <glyph glyph-name="L" unicode="L" horiz-adv-x="990" 
d="M370 33q-165 0 -280 -25q-37 -8 -57 -8q-74 0 -74 98q0 177 214 721q123 312 123 367q0 30 -41.5 57.5t-41.5 49.5q0 46 67 46q15 0 44.5 -2t44.5 -2q96 0 187 31q38 13 56 13q56 0 56 -91q0 -106 -85 -350q-18 -53 -130 -344q-53 -138 -87 -251.5t-34 -152.5
q0 -58 66 -58q52 0 122 31q160 69 277 266q31 52 62 52q49 0 49 -51q0 -20 -50 -139q-19 -44 -67 -202q-28 -90 -82 -90q-26 0 -73 12q-87 22 -266 22z" />
    <glyph glyph-name="M" unicode="M" horiz-adv-x="1428" 
d="M931 1165q-4 39 -14 53q-7 8 -52 32q-34 17 -34 44q0 46 62 46q16 0 47.5 -1t47.5 -1q94 0 168 24q49 16 70 16q67 0 67 -166q0 -149 -31 -446t-31 -446q0 -106 33 -132q25 -16 50 -31q32 -21 32 -43q0 -41 -79 -49q-94 -10 -127 -16q-73 -11 -124 -33q-47 -20 -72 -20
q-67 0 -67 168q0 155 20 382q17 190 34 381q-51 -75 -155 -353q-22 -58 -34 -182q-4 -40 -21 -51q-13 -8 -135 -31q-21 -4 -87 -26q-59 -20 -74 -20q-80 0 -80 300q0 66 6 173q8 137 9 174q-67 -128 -139 -328q-85 -234 -85 -332q0 -68 62.5 -87t62.5 -50q0 -41 -81 -55
q-72 -13 -140 -43q-40 -18 -59 -18q-30 0 -48 35q-15 28 -15 61q0 71 64 255q39 113 236 513l142 289q-5 42 -19 59q-8 9 -61 34q-40 20 -40 49q0 48 55 46q103 -4 112 -4q74 0 152 26q53 18 74 18q64 0 64 -141q0 -87 -6.5 -260t-6.5 -260v-65q138 347 247 512z" />
    <glyph glyph-name="N" unicode="N" horiz-adv-x="1129" 
d="M815 255q14 -45 28 -60q8 -8 62 -31q39 -17 39 -50q0 -24 -22 -37q-16 -10 -89 -16q-92 -7 -204 -49q-37 -14 -59 -14q-54 0 -93 141q-44 160 -75 402q-26 204 -51 407q-63 -138 -126 -344q-72 -238 -72 -350q0 -56 32 -78q5 -4 59 -24q32 -11 32 -40q0 -24 -14.5 -36
t-64.5 -19q-27 -4 -73 -17q-4 -2 -69 -25q-51 -19 -62 -19q-61 0 -61 99q0 134 155 512q114 276 233 512q-16 59 -32 79q-9 10 -64 42q-41 23 -41 53q0 46 57 46q17 0 52 -1.5t52 -1.5q74 0 172 30q39 12 58 12q45 0 72 -94q6 -21 20 -126q24 -228 92 -681q85 341 202 613
q123 286 199 286q36 0 83 -28q51 -31 51 -63q0 -18 -42 -42q-104 -59 -239 -366q-138 -313 -197 -622z" />
    <glyph glyph-name="O" unicode="O" 
d="M868 1377q158 0 240 -100q74 -91 74 -253q0 -207 -128.5 -450t-322.5 -402q-213 -175 -424 -175q-154 0 -243 103q-84 98 -84 254q0 219 126.5 460t322.5 395q215 168 439 168zM819 1257q-56 0 -129 -64q-136 -120 -241 -374q-102 -247 -102 -436q0 -71 25 -121
q31 -65 95 -65q156 0 303 297q156 314 156 589q0 174 -107 174z" />
    <glyph glyph-name="P" unicode="P" horiz-adv-x="1096" 
d="M440 568q-101 -292 -101 -342q0 -34 42.5 -61t42.5 -47q0 -45 -74 -52q-182 -18 -273 -52q-37 -14 -55 -14q-63 0 -63 100q0 165 214 723q118 307 118 355q0 29 -46.5 42.5t-46.5 52.5q0 32 35 50q12 6 322 41q140 16 243 16q162 0 258 -62q116 -74 116 -228
q0 -228 -196 -386q-184 -149 -417 -149q-56 0 -119 13zM659 1254q-15 -127 -74 -297q-53 -145 -106 -289q36 -12 62 -12q59 0 105 39q68 58 127 216q56 149 56 250q0 108 -93 108q-34 0 -77 -15z" />
    <glyph glyph-name="Q" unicode="Q" horiz-adv-x="1179" 
d="M338 -44q98 -15 163 -35q12 -3 154 -57q111 -42 138 -42q22 0 42 16t20 38q0 11 -6.5 32t-6.5 32q0 35 52 57q41 17 83 17q88 0 148 -61.5t60 -150.5q0 -101 -69 -167.5t-170 -66.5t-237 74q-122 69 -244 139q-152 74 -290 74q-40 0 -68 -5q-18 -3 -77 -22
q-48 -15 -78 -15q-48 0 -48 47q0 85 121 103q110 17 167 49q-211 98 -211 341q0 217 126.5 459t322.5 398q214 170 434 170q156 0 241 -94q81 -91 81 -249q0 -267 -178 -550q-173 -275 -413 -411q-20 -11 -257 -120zM818 1258q-164 0 -349 -402q-120 -261 -120 -464
q0 -197 124 -197q164 0 318 337q139 305 139 541q0 185 -112 185z" />
    <glyph glyph-name="R" unicode="R" horiz-adv-x="1120" 
d="M543 593q34 -100 88 -172q73 -97 154 -97q23 0 57 22.5t48 22.5q30 0 67 -46q43 -54 43 -125q0 -82 -59 -141t-141 -59q-102 0 -182 105q-60 80 -113 228l-70 218q-99 -245 -99 -328q0 -39 42 -57.5t42 -45.5q0 -50 -86 -53q-140 -5 -254 -50q-44 -17 -61 -17
q-60 0 -60 95q0 190 220 748q113 287 113 336q0 33 -45 47.5t-45 50.5t38 52q5 2 107 14q320 37 446 37q201 0 287 -69q101 -81 101 -207q0 -142 -95 -274q-89 -124 -241 -185q-139 -57 -302 -50zM663 1256q-8 -79 -30 -153q-43 -120 -125 -358l-18 -53q29 -5 51 -5
q105 0 171 97q52 76 88 182q38 112 38 198q0 105 -98 105q-34 0 -77 -13z" />
    <glyph glyph-name="S" unicode="S" horiz-adv-x="980" 
d="M698 1264q-87 0 -158 -53q-77 -57 -77 -141q0 -85 107 -166q99 -75 199 -149q107 -104 107 -246q0 -234 -194 -381q-178 -134 -419 -134q-95 0 -214 37q-151 47 -151 117q0 23 16 67q6 17 54 188q22 77 66 77q52 0 52 -70q0 -21 -3.5 -62.5t-3.5 -62.5q0 -175 180 -175
q110 0 194.5 79.5t84.5 189.5q0 90 -105 171q-97 74 -195 147q-105 102 -105 242q0 120 77 227q152 212 467 212q138 0 228 -48q116 -60 116 -186q0 -70 -46 -124q-49 -57 -118 -57q-49 0 -84.5 32t-35.5 80q0 43 42.5 77.5t42.5 47.5q0 33 -48 51q-36 13 -76 13z" />
    <glyph glyph-name="T" unicode="T" horiz-adv-x="1069" 
d="M882 1255q-23 -156 -169 -547q-157 -420 -157 -487q0 -39 42 -60.5t42 -48.5q0 -34 -41 -46q-6 -2 -91 -11q-117 -13 -235 -53q-24 -8 -34 -8q-62 0 -62 100q0 99 53.5 274.5t195.5 541.5q45 117 62 169q32 99 40 176q-172 -4 -324 -287q-27 -51 -59 -51q-49 0 -49 46
q0 17 19 61q72 165 92 266q10 53 26 72.5t41 19.5q20 0 65 -9q36 -7 151 -10q94 -3 246 -3q164 0 329 15q55 5 81 5q74 0 74 -59q0 -23 -9 -54q-27 -90 -72 -273q-14 -78 -58 -78q-51 0 -51 58q0 18 4.5 54.5t4.5 54.5q0 94 -33 132t-124 40z" />
    <glyph glyph-name="U" unicode="U" horiz-adv-x="1152" 
d="M254 1334q14 0 41 -2.5t41 -2.5q105 0 193 30q44 15 64 15q58 0 58 -93q0 -135 -232 -744q-78 -205 -78 -265q0 -54 38 -86t93 -32q205 0 358 354q136 314 136 554q0 87 -39 131q-18 21 -71 48q-39 20 -39 47q0 25 18 36q11 7 71 9q84 2 168 28q43 13 59 13q67 0 67 -144
q0 -288 -238 -750q-137 -265 -296 -383q-139 -103 -313 -103q-144 0 -242 70q-111 79 -111 218q0 97 87 334q38 105 119 320q73 194 73 246q0 31 -41.5 56.5t-41.5 47.5q0 48 58 48z" />
    <glyph glyph-name="V" unicode="V" horiz-adv-x="1209" 
d="M490 388q134 245 228 391q107 166 244 340q204 259 278 259q42 0 84 -40.5t42 -82.5q0 -28 -27 -38q-27 -5 -53 -10q-48 -9 -154 -113q-268 -264 -484 -652q-87 -157 -132 -314q-6 -23 -27 -58q-14 -10 -75 -16q-41 -4 -100 -17l-80 -24q-61 -18 -71 -18q-61 0 -61 98
q0 116 36 308q32 154 64 307q25 112 69 338q9 56 9 98t-13 59q-9 11 -61 35q-40 19 -40 50q0 34 42 46q18 5 138 5q57 0 178 29q29 7 50 7q68 0 68 -127q0 -166 -91 -570q-22 -96 -61 -290z" />
    <glyph glyph-name="W" unicode="W" horiz-adv-x="1810" 
d="M1087 385q71 128 219 380q75 120 188 268q84 110 113 146q66 82 124 137q68 65 112 65q42 0 83 -40.5t41 -82.5q0 -22 -12 -32q-42 -8 -121 -38q-30 -19 -88 -77q-145 -146 -298 -356q-154 -214 -246 -398q-62 -123 -80 -207q-6 -32 -30 -77q-16 -11 -141 -27
q-28 -4 -96 -28q-62 -22 -86 -22q-66 0 -66 104q0 70 27 242.5t63 328.5q-81 -101 -161 -252q-86 -163 -111 -275q-6 -27 -25 -68q-16 -15 -59 -20q-77 -9 -105 -14q-59 -10 -102 -29q-46 -20 -70 -20q-58 0 -58 111q0 106 20 223q19 108 117 568q36 168 36 244q0 49 -13 67
q-10 12 -61 33q-42 17 -42 45q0 32 39 47q13 5 116.5 5t191.5 28q44 14 64 14q66 0 66 -141q0 -153 -80 -513q-48 -214 -67 -339q203 384 372 602q18 75 18 159q0 68 -56.5 89t-56.5 49t23 44q10 7 29 10q11 1 98 1q107 0 203 27q39 11 60 11q64 0 64 -140q0 -156 -100 -592
q-20 -86 -56 -260z" />
    <glyph glyph-name="X" unicode="X" horiz-adv-x="1103" 
d="M707 866q35 -205 60 -324q52 -243 93 -307q23 -38 89 -69q54 -25 54 -50q0 -49 -93 -57q-156 -14 -253 -52q-31 -12 -50 -12q-34 0 -60 46q-84 144 -146 589q-82 -56 -167 -182q-93 -137 -93 -225q0 -48 50.5 -69t50.5 -48q0 -26 -19 -38t-79 -19q-76 -9 -148 -38
q-39 -16 -60 -16q-45 0 -45 66q0 68 47 175q121 268 441 531l-36 194q-26 130 -53.5 186t-102.5 89q-62 27 -62 57q0 45 60 45q17 0 51.5 -1.5t52.5 -1.5q75 0 184 33q33 10 51 10q50 0 88 -101q23 -62 74 -290q72 46 149 110q108 91 108 130q0 15 -27 32t-27 40q0 24 21 37
q13 8 110 16q25 2 85 16q56 13 75 13q46 0 46 -51q0 -103 -211 -259q-166 -123 -308 -205z" />
    <glyph glyph-name="Y" unicode="Y" horiz-adv-x="1071" 
d="M479 503q-107 -35 -156 -35q-89 0 -146 49q-61 51 -61 139q0 80 71 277q76 210 76 253q0 31 -46 54t-46 52q0 44 50 44q16 0 48 -2.5t48 -2.5q115 0 208 32q38 13 53 13q56 0 56 -88q0 -93 -48 -243q-28 -90 -89 -266q-14 -36 -14 -60q0 -44 54 -44q130 0 265 199
q110 163 110 297q0 34 -10 46q-8 8 -57 22q-38 11 -38 43q0 42 47 50h79q110 0 203 32q32 11 46 11q46 0 46 -56q0 -137 -469 -674q-127 -146 -205 -267q-79 -124 -79 -175q0 -29 49.5 -45.5t49.5 -50.5q0 -29 -33 -45q-8 -4 -113 -17q-30 -4 -116 -30q-79 -25 -95 -25
q-50 0 -50 58q0 79 125 238q93 108 187 217z" />
    <glyph glyph-name="Z" unicode="Z" horiz-adv-x="1057" 
d="M730 1248q-23 1 -34 1q-247 0 -395 -213q-17 -26 -54 -70q-19 -16 -39 -16q-45 0 -45 49q0 21 46 138q15 37 51 173q19 69 70 69q23 0 70 -8q105 -18 283 -18q175 0 344 23q44 6 72 6q68 0 68 -67q0 -98 -204 -349q-189 -221 -379 -442q-204 -245 -204 -329q0 -61 82 -61
q94 0 201 80q95 70 152 162q17 28 52 71q20 17 41 17q20 0 38 -14.5t18 -34.5t-17 -59q-51 -117 -108 -288q-16 -46 -37 -59q-16 -10 -42 -10q-30 0 -74 7q-150 24 -335 24q-202 0 -321 -23q-52 -10 -78 -10q-62 0 -62 66q0 72 72 206q82 154 228 333q45 56 264 307
q126 144 143 165q81 96 133 174z" />
    <glyph glyph-name="bracketleft" unicode="[" horiz-adv-x="759" 
d="M274 -268q0 -61 -58.5 -79.5t-242.5 -18.5q-81 0 -109 9q-57 18 -57 80q0 50 30 134q27 74 181 449q145 352 291 721q33 90 108 264q21 44 43 60q40 29 213 29q20 0 60 2t60 2q74 0 74 -22q0 -13 -8 -40q-4 -14 -14 -37q-13 -19 -95 -24.5t-115 -54.5q-23 -34 -114 -267
q-129 -330 -350 -842q-88 -204 -88 -262q0 -52 50 -66q10 -3 91 -8q50 -3 50 -29z" />
    <glyph glyph-name="backslash" unicode="\" horiz-adv-x="827" 
d="M185 1360q0 27 19.5 45.5t46.5 18.5q29 0 45 -31q3 -6 30 -117l360 -1475q37 -152 37 -167q0 -56 -65 -56q-27 0 -41 19q-7 10 -45 166l-365 1485q-22 90 -22 112z" />
    <glyph glyph-name="bracketright" unicode="]" horiz-adv-x="759" 
d="M344 1288q0 60 59 78.5t243 18.5q80 0 108 -9q58 -18 58 -79q0 -64 -90 -293q-61 -146 -121 -291q-159 -386 -291 -721q-33 -90 -107 -265q-22 -44 -44 -60q-39 -29 -205 -29q-22 0 -65 -2t-64 -2q-73 0 -73 22q0 13 8 40q4 14 14 37q13 18 95 24t115 55q21 30 114 268
q123 315 350 842q88 205 88 264q0 51 -50 65q-9 3 -92 8q-50 3 -50 29z" />
    <glyph glyph-name="asciicircum" unicode="^" horiz-adv-x="1024" 
d="M297 721h-264l313 652h331l314 -652h-264l-215 450z" />
    <glyph glyph-name="underscore" unicode="_" horiz-adv-x="1024" 
d="M0 -89h1024v-178h-1024v178z" />
    <glyph glyph-name="grave" unicode="`" horiz-adv-x="1024" 
d="M571 1495q18 0 38 -16q86 -73 147 -165q12 -20 12 -39q0 -26 -25.5 -51.5t-51.5 -25.5q-17 0 -33 10q-21 13 -88 70.5t-83 77t-16 40.5q0 29 35.5 64t64.5 35z" />
    <glyph glyph-name="a" unicode="a" horiz-adv-x="1055" 
d="M709 944q16 25 37 30q8 2 49 2q55 0 146 25q25 7 40 7q48 0 48 -81q0 -98 -83 -309q-63 -155 -125 -310q-18 -52 -18 -86q0 -44 52.5 -60t52.5 -47q0 -36 -51 -46q-40 -2 -79 -4q-109 -7 -217 -50q-38 -15 -53 -15q-51 0 -51 85q0 38 7 93q-128 -114 -138 -121
q-82 -58 -171 -58q-103 0 -171 75q-66 72 -66 176q0 201 156 412q145 195 338 292q105 53 185 53q71 0 112 -63zM695 823q-31 -19 -51 -19q-51 0 -51 51q0 5 1.5 15t1.5 15q0 16 -15 16q-27 0 -81 -58q-87 -96 -168 -276q-86 -189 -86 -307q0 -62 44 -62q64 0 162 122
q66 83 120 182q90 165 123 321z" />
    <glyph glyph-name="b" unicode="b" horiz-adv-x="1060" 
d="M472 836q171 169 311 169q106 0 170 -77q60 -72 60 -180q0 -187 -145 -390q-130 -182 -305 -291q-119 -74 -218 -74q-84 0 -136 62q-9 -3 -88 -23q-7 -2 -62 -21q-38 -14 -63 -14q-57 0 -57 96q0 115 39 256q29 101 174 500q107 294 107 342q0 45 -54.5 57.5t-54.5 43.5
q0 34 41 45q7 2 115 6q48 2 101 10q11 2 67 15q47 11 61 11q55 0 55 -100q0 -94 -43 -225q-37 -109 -75 -218zM641 803q-35 0 -95 -52q-99 -87 -183 -262q-87 -179 -87 -305q0 -78 50 -78q105 0 234 253q125 243 128 379v7q2 58 -47 58z" />
    <glyph glyph-name="c" unicode="c" horiz-adv-x="793" 
d="M616 897q-35 0 -88 -47q-94 -86 -187 -282q-94 -200 -94 -322q0 -83 68 -83q66 0 168.5 83t123.5 83q40 0 40 -42q0 -44 -132 -153q-170 -140 -336 -140q-110 0 -185.5 70t-75.5 180q0 246 229 498q234 258 478 258q86 0 145 -44q64 -49 64 -133q0 -53 -35.5 -94
t-87.5 -41q-40 0 -71 27.5t-31 67.5q0 23 16.5 57t16.5 40q0 17 -26 17z" />
    <glyph glyph-name="d" unicode="d" horiz-adv-x="1074" 
d="M716 912q87 209 87 280q0 43 -54 59t-54 47q0 36 62 39q67 3 133 5q79 5 131 21q40 12 58 12q56 0 56 -93q0 -75 -30 -183q-29 -103 -116 -333q-157 -416 -157 -567q0 -14 2 -41t2 -41q0 -28 -11.5 -40t-44.5 -19q-37 -7 -110 -23q-6 -1 -72 -21q-58 -17 -65 -17
q-50 0 -50 109q0 57 7 96l-154 -138q-90 -67 -192 -67q-105 0 -168 78q-58 73 -58 180q0 186 142 387q129 182 304 285q130 77 226 77q93 0 126 -92zM679 806q-21 -5 -32 -5q-15 0 -37 11.5t-22 24.5q0 8 4 24t4 24q0 12 -15 12q-26 0 -74 -50q-87 -92 -175 -276
q-93 -196 -93 -309q0 -66 44 -66q51 0 123 72q137 135 273 538z" />
    <glyph glyph-name="e" unicode="e" horiz-adv-x="844" 
d="M325 530q-75 -159 -75 -283q0 -86 64 -86q65 0 169.5 85.5t122.5 85.5q40 0 40 -42q0 -47 -124 -150q-178 -148 -335 -148q-123 0 -196 69t-73 191q0 242 232 495q237 257 476 257q101 0 163 -49q68 -54 68 -153q0 -141 -123.5 -261.5t-265.5 -120.5q-107 0 -143 110z
M372 637q17 4 28 4q50 0 50 -58q0 -8 -4 -23.5t-4 -23.5q0 -15 14 -15q18 0 52 38q43 48 84 139q44 96 44 155q0 43 -35 43q-53 0 -133 -105q-60 -79 -96 -154z" />
    <glyph glyph-name="f" unicode="f" horiz-adv-x="671" 
d="M488 871q-14 -31 -55 -145q-40 -109 -89 -248q-54 -153 -54 -252q0 -53 51.5 -64t51.5 -44q0 -28 -22 -39q-18 -10 -86 -12q-110 -3 -250 -53q-31 -11 -47 -11q-49 0 -49 97q0 140 81 390q4 13 137 381q-49 -3 -50 -3q-33 0 -33 27q0 9 8 31q16 45 46 51q36 2 72 5
q18 55 60 163q51 111 158 175q103 61 229 61q86 0 148 -37q74 -44 74 -125q0 -45 -29 -78t-73 -33q-37 0 -64 25t-27 62q0 16 8.5 37t8.5 26q0 14 -22 14q-77 0 -147 -290q17 -4 33 -4q56 0 90 16q30 14 39 14q36 0 36 -53q0 -87 -144 -87q-24 0 -90 3z" />
    <glyph glyph-name="g" unicode="g" horiz-adv-x="1063" 
d="M715 948q14 18 30 23q9 3 67 5q46 1 129 22q24 6 40 6q55 0 55 -75q0 -100 -81 -301q-61 -151 -122 -301q-17 -50 -74 -271q-47 -181 -139 -272q-163 -161 -450 -161q-176 0 -253 80q-60 62 -60 143q0 157 171 192q-102 80 -102 220q0 147 92 307q89 155 245 287
q183 154 332 154q78 0 120 -58zM699 814q-26 -13 -44 -13q-53 0 -53 48q0 6 2 18.5t2 18.5q0 14 -14 14q-29 0 -84 -61q-84 -93 -168 -270q-90 -191 -90 -299q0 -70 44 -70q53 0 134 86q60 64 104 135q134 216 167 393zM472 180q-176 -187 -351 -179q16 -29 16 -55
q0 -38 -23 -64q-21 -22 -88 -26q-54 -4 -54 -37q0 -39 57 -63q45 -19 91 -19q84 0 156 50q135 95 196 393z" />
    <glyph glyph-name="h" unicode="h" horiz-adv-x="1069" 
d="M463 821q193 184 336 184q93 0 148 -57.5t55 -150.5q0 -79 -84 -275q-97 -227 -97 -316q0 -37 49 -46.5t49 -42.5q0 -30 -37 -46q-5 -2 -121 -11q-42 -3 -100 -18q-10 -3 -76 -25q-58 -20 -66 -20q-46 0 -46 84q0 153 148 498q71 165 71 198q0 31 -32 31q-55 0 -137 -80
q-60 -59 -106 -129q-126 -192 -126 -418q0 -12 2 -35.5t2 -35.5q0 -42 -56 -54q-68 -13 -203 -48q-32 -11 -47 -11q-50 0 -50 101q0 138 94 430q32 98 150 419q72 196 72 242q0 42 -55 61t-55 47q0 36 45 43h72q101 0 231 32q24 6 34 6q55 0 55 -93q0 -101 -119 -464z" />
    <glyph glyph-name="i" unicode="i" horiz-adv-x="560" 
d="M179 966q137 0 232 28q37 11 53 11q52 0 52 -87q0 -105 -90 -317q-108 -254 -124 -322q-13 -56 -15 -147q-1 -38 -16.5 -54t-65.5 -23q-72 -11 -176 -45q-27 -9 -43 -9q-47 0 -47 87q0 112 64 280q19 49 117 267q66 147 66 194q0 38 -54.5 52t-54.5 44q0 35 38 41
q-1 0 64 0zM455 1404q56 0 94 -37.5t38 -93.5q0 -78 -88 -138q-80 -55 -162 -55q-58 0 -98 38t-40 95q0 82 90 140q79 51 166 51z" />
    <glyph glyph-name="j" unicode="j" horiz-adv-x="602" 
d="M-286 -51q38 0 63 -24.5t25 -62.5q0 -55 -53.5 -73.5t-53.5 -24.5q0 -40 68 -40q108 0 165 122q25 53 44 156t68 307q26 89 119 327q62 159 62 194q0 39 -54 47t-54 44q0 33 42 43q7 2 74 3q44 1 116 11q34 4 100 18q37 11 53 11q52 0 52 -87q0 -99 -118 -397
q-50 -126 -78 -216q-47 -182 -93 -363q-67 -193 -237 -278q-108 -54 -225 -54q-94 0 -154 43q-68 48 -68 138q0 62 38 109t99 47zM483 1403q58 0 95 -37.5t37 -95.5q0 -77 -91 -137q-82 -54 -163 -54q-55 0 -94.5 38.5t-39.5 93.5q0 83 89 141q79 51 167 51z" />
    <glyph glyph-name="k" unicode="k" horiz-adv-x="949" 
d="M385 360q105 -203 215 -203q20 0 45.5 19t39.5 19q28 0 46 -29q16 -25 16 -55q0 -53 -34.5 -83.5t-88.5 -30.5q-106 0 -198 105q-51 58 -128 197q-11 -49 -11 -123q0 -11 2 -33.5t2 -33.5q0 -40 -71 -51q-26 -4 -93 -20q-148 -37 -137 -37q-51 0 -51 106q0 142 96 430
q37 112 155 418q68 177 68 243q0 41 -55 56.5t-55 45.5q0 23 23 34q18 8 88 8q118 0 234 31q30 8 43 8q53 0 53 -100q0 -109 -123 -449q23 20 83 74q107 97 244 97q78 0 128 -48t50 -125q0 -150 -159 -283q-176 -147 -427 -187zM347 457q105 0 215 105q106 101 106 193
q0 42 -35 42q-71 0 -170 -135q-78 -108 -116 -205z" />
    <glyph glyph-name="l" unicode="l" horiz-adv-x="535" 
d="M597 1296q0 -93 -54 -270l-154 -420q-97 -270 -97 -422q0 -12 1.5 -34.5t1.5 -34.5q0 -27 -15 -40t-66.5 -21t-151.5 -37q-46 -20 -72 -20q-51 0 -51 104q0 190 261 868q63 164 63 227q0 43 -54 57t-54 45q0 43 80 43q66 0 155 9q56 6 96 18t52 12q59 0 59 -84z" />
    <glyph glyph-name="m" unicode="m" horiz-adv-x="1644" 
d="M1031 815q182 191 333 191q94 0 152 -51q61 -54 61 -146q0 -82 -80 -274q-101 -242 -101 -320q0 -41 49 -53.5t49 -44.5q0 -27 -24 -39q-20 -10 -90 -14q-130 -7 -243 -53q-27 -11 -44 -11q-51 0 -51 101q0 103 73 291q20 51 123 279q31 69 31 100q0 38 -33 38
q-44 0 -112 -62q-170 -155 -248 -401q-31 -97 -31 -134q0 -29 42 -50.5t42 -48.5q0 -28 -33 -41q-12 -5 -85 -9q-48 -3 -109 -16q-12 -3 -85 -26q-62 -19 -76 -19q-49 0 -49 90q0 133 172 524q55 125 55 158q0 38 -33 38q-69 0 -176 -140q-76 -99 -131 -205
q-89 -173 -91 -333q0 -22 -11 -56q-11 -14 -50 -19q-45 -6 -90 -17q-4 -1 -75 -23q-51 -16 -71 -16q-52 0 -52 85q0 146 211 614q39 86 39 129q0 39 -55 51.5t-55 45.5q0 43 89 43q140 0 264 30q17 4 32 4q55 0 55 -79q0 -38 -16 -100q173 182 334 182q177 0 194 -193z" />
    <glyph glyph-name="n" unicode="n" horiz-adv-x="1096" 
d="M503 826q88 89 147 126q86 55 183 55q88 0 141.5 -56.5t53.5 -145.5t-85 -291q-96 -228 -96 -295q0 -44 49.5 -57.5t49.5 -44.5t-35 -44q-10 -4 -96.5 -7t-220.5 -54q-32 -12 -53 -12q-48 0 -48 85q0 118 140 456q84 203 84 231q0 40 -33 40q-42 0 -123 -83
q-173 -178 -243 -407q-26 -82 -29 -206q-1 -36 -14 -45.5t-86 -20.5q-23 -3 -76 -17q-131 -35 -126 -35q-49 0 -49 88q0 152 211 615q41 90 41 124q0 42 -56 54.5t-56 42.5q0 46 58 46q12 0 44 -1h43q95 0 191 27q32 9 50 9q53 0 53 -78q0 -40 -14 -99z" />
    <glyph glyph-name="o" unicode="o" horiz-adv-x="906" 
d="M632 1002q233 0 233 -236q0 -243 -220 -503q-228 -270 -467 -270q-119 0 -189.5 70.5t-70.5 189.5q0 244 234 495q238 254 480 254zM597 893q-80 0 -191 -197q-82 -147 -122 -273q-34 -107 -34 -171q0 -88 63 -88q44 0 107 68q83 91 159 272q77 185 77 303q0 86 -59 86z
" />
    <glyph glyph-name="p" unicode="p" horiz-adv-x="1093" 
d="M499 834q95 83 142 113q88 56 170 56q107 0 173 -77q61 -72 61 -181q0 -188 -140 -384q-124 -172 -301 -284q-133 -84 -231 -84q-84 0 -130 73q-41 -132 -41 -255q0 -11 1.5 -34t1.5 -34q0 -31 -15 -44.5t-59 -20.5t-92 -19q-5 -1 -70 -22q-52 -17 -64 -17q-55 0 -55 87
q0 176 78 419q24 74 151 403q92 239 92 282q0 49 -57 66.5t-57 44.5q0 39 57 45q-3 0 86 0t208 31q27 7 41 7q59 0 59 -78q0 -26 -9 -93zM280 196q37 4 34 4q56 0 56 -55q0 -5 -2.5 -14.5t-2.5 -13.5q0 -15 15 -15q17 0 57 36q98 89 189 282q93 198 93 327q0 54 -41 54
q-49 0 -118 -69q-58 -58 -103 -129q-117 -186 -177 -407z" />
    <glyph glyph-name="q" unicode="q" horiz-adv-x="1045" 
d="M425 130q-167 -138 -277 -138q-102 0 -168 78q-62 74 -62 178q0 203 162 417q151 199 347 292q96 45 159 45q75 0 123 -61q15 18 30 24q12 5 46 5q83 0 147 20q35 11 49 11q51 0 51 -82q0 -77 -39.5 -191t-189.5 -462q-155 -361 -155 -429q0 -36 52 -58.5t52 -49.5
q0 -26 -38 -39q-2 -1 -83 -8q-133 -12 -218 -47q-41 -17 -62 -17q-53 0 -53 88q0 121 127 424zM694 808q-24 -12 -42 -12q-58 0 -58 56q0 6 3 17t3 16q0 13 -13 13q-31 0 -93 -74q-88 -105 -164 -267q-84 -181 -84 -296q0 -65 42 -65q47 0 121 70q90 86 177 254
q84 162 108 288z" />
    <glyph glyph-name="r" unicode="r" horiz-adv-x="824" 
d="M502 831q142 171 253 171q56 0 90.5 -36t34.5 -92q0 -80 -58 -155q-61 -79 -139 -79q-57 0 -57 44q0 8 6 22t6 22q0 15 -16 15q-39 0 -107 -77q-50 -56 -85 -114q-138 -226 -142 -379q0 -40 -9 -94q-9 -15 -55 -22q-106 -15 -179 -45q-35 -14 -55 -14q-51 0 -51 92
q0 106 73 297q23 61 123 286q49 111 49 158q0 34 -54 47.5t-54 47.5q0 40 74 41q168 2 271 30q29 8 44 8q49 0 49 -79q0 -20 -12 -95z" />
    <glyph glyph-name="s" unicode="s" horiz-adv-x="852" 
d="M507 898q-49 0 -91 -29q-48 -32 -48 -79q0 -46 89 -102q132 -82 167 -115q89 -87 89 -207q0 -174 -142 -278q-127 -93 -307 -93q-126 0 -222 54q-117 65 -117 182q0 45 27 78.5t70 33.5q45 0 72 -36q16 -22 17 -56v-60q5 -39 40 -65t95 -26q65 0 116.5 39t51.5 103
q0 71 -90 135q-83 58 -167 116q-90 78 -90 182q0 155 140 249q123 81 286 81q111 0 187 -39q97 -51 97 -151q0 -52 -31 -88t-82 -36q-94 0 -94 90q0 16 10.5 43.5t10.5 37.5q0 36 -84 36z" />
    <glyph glyph-name="t" unicode="t" horiz-adv-x="627" 
d="M486 867q-18 -50 -54 -151q-80 -214 -90 -247q-52 -158 -52 -253q0 -33 12 -42q7 -6 66 -19q43 -9 43 -42q0 -36 -39 -47q-10 -3 -96 -6q-121 -4 -212 -43q-47 -20 -71 -20q-54 0 -54 99q0 143 80 388q70 191 140 383q-25 -3 -41 -3q-55 0 -55 34q0 61 58 74
q120 26 204.5 98.5t147.5 203.5q33 69 72 69q51 0 51 -63q0 -41 -78 -308q19 0 57 3q8 2 34 13q22 10 33 10q40 0 40 -50q0 -61 -65 -76q-22 -5 -110 -4q-3 0 -21 -1z" />
    <glyph glyph-name="u" unicode="u" horiz-adv-x="1058" 
d="M461 169q-88 -85 -145 -120q-86 -53 -178 -53q-83 0 -138 57.5t-55 140.5q0 84 78 261q60 132 120 263q30 77 30 110q0 41 -54.5 50t-54.5 45q0 32 41 39q10 2 66 2q142 0 220 26q38 13 61 13q53 0 53 -85q0 -87 -78 -282q-7 -19 -119 -274q-47 -107 -47 -136
q0 -30 30 -30q47 0 121 74q149 150 247 415q41 110 41 176q0 72 19 89q15 13 91 22q91 10 103 14q44 13 62 13q56 0 56 -87q0 -92 -80 -289q-61 -146 -122 -293q-27 -78 -27 -121q0 -40 52 -55t52 -50q0 -29 -37 -40q-6 -2 -88 -8q-100 -8 -226 -52q-26 -9 -44 -9
q-58 0 -58 90q0 23 8 84z" />
    <glyph glyph-name="v" unicode="v" horiz-adv-x="896" 
d="M417 282q81 126 161 252q105 176 105 264q0 61 -60 76.5t-60 45.5q0 35 45 45q9 2 70 2q29 0 78 8q24 3 72 14q38 12 52 12q50 0 50 -77q0 -110 -92 -249q-32 -48 -168 -215q-179 -219 -207 -348q-3 -16 -14 -40q-6 -6 -39 -13q-113 -23 -216 -56q-16 -5 -27 -5
q-41 0 -57 71q-16 67 -16 268q0 152 13 378q3 52 3 78q0 61 -31 80q-6 4 -56 14q-31 6 -31 36q0 26 20 36q16 8 83 8q73 0 117 6q19 2 84 17q57 13 80 13q59 0 59 -121q0 -76 -13.5 -227.5t-13.5 -227.5q0 -59 9 -145z" />
    <glyph glyph-name="w" unicode="w" horiz-adv-x="1399" 
d="M919 285q16 25 92 148q95 154 106 174q63 117 63 189q0 60 -58.5 77.5t-58.5 46.5q0 33 41 42q6 1 83 4q70 3 133 21q37 11 56 11q57 0 57 -74q0 -126 -157 -340q-122 -160 -243 -320q-47 -74 -68 -162q-3 -13 -14 -35q-8 -9 -32 -12q-124 -17 -194 -43q-40 -15 -58 -15
q-45 0 -56 88q-19 150 -16 265q-75 -77 -126 -242q-11 -35 -26 -43q-10 -6 -110 -24q-64 -11 -112 -33q-33 -15 -48 -15q-77 0 -77 300q0 81 8 244t8 244q0 56 -11 73q-9 14 -63 25q-45 10 -45 40q0 41 69 44q52 1 156 8q20 2 82 16q54 13 76 13q60 0 60 -91
q0 -78 -10.5 -235t-10.5 -235q0 -46 8 -154q62 92 181 278q7 175 7 227q0 58 -38 83.5t-38 48.5q0 39 57 42q101 6 126 9q71 7 124 22q24 7 38 7q55 0 55 -92q0 -27 -6 -101q-18 -223 -18 -378q0 -80 8 -146z" />
    <glyph glyph-name="x" unicode="x" horiz-adv-x="944" 
d="M575 603q36 -132 62 -210q50 -154 85 -191q15 -17 73 -39q45 -17 45 -44q0 -33 -38 -47q-8 -3 -106 -11q-101 -8 -187 -47q-34 -15 -47 -15q-70 0 -170 424q-49 -29 -103 -107q-58 -82 -58 -133q0 -27 34 -41t34 -40q0 -25 -12.5 -34.5t-69.5 -20.5q-15 -3 -85.5 -25.5
t-75.5 -22.5q-46 0 -46 61q0 204 354 482q-17 86 -27 126q-19 72 -42 123q-36 75 -86 89q-68 19 -68 47q0 43 67 45q94 3 134 7q76 6 133 21q31 8 47 8q32 0 54 -44t40 -123q22 -100 31 -126q135 89 135 144q0 10 -28.5 25t-28.5 41q0 21 14 32q12 8 50 10q82 4 161 27
q31 9 48 9q39 0 39 -40q0 -46 -72 -128q-55 -62 -112 -105q-28 -22 -178 -127z" />
    <glyph glyph-name="y" unicode="y" horiz-adv-x="941" 
d="M440 296q259 342 259 509q0 60 -59 72t-59 43q0 35 34 43q5 1 71 2q75 1 162 30q30 10 46 10q54 0 54 -77q0 -108 -89 -247q-21 -32 -162 -216q-354 -461 -354 -621q0 -52 59 -70t59 -46q0 -39 -57 -44q-85 -7 -178 -41q-63 -23 -78 -23q-52 0 -52 76t44 162q6 12 88 144
q-22 -7 -37 -7q-49 0 -60 85q-17 136 -17 254q0 76 5.5 227t5.5 227q0 48 -11 65q-9 13 -63 28q-44 12 -44 43q0 28 38 39q11 3 99 4q99 1 203 28q31 8 50 8q56 0 56 -109q0 -36 -6 -122q-18 -257 -18 -362q0 -52 11 -114z" />
    <glyph glyph-name="z" unicode="z" horiz-adv-x="903" 
d="M517 868q-98 8 -137 8q-69 0 -74 -39q-6 -56 -26 -70.5t-54 -14.5q-47 0 -77.5 32t-30.5 79q0 67 51 104q46 33 116 33q51 0 157 -9t161 -9q116 0 193 13q36 6 51 6q64 0 64 -65q0 -95 -162 -267q-149 -144 -299 -289q-162 -157 -162 -217q0 -32 52 -32q105 0 187 56
q45 31 108 105q48 56 70 56q42 0 42 -44q0 -17 -14 -48q-27 -59 -77 -179q-10 -26 -32 -66q-15 -16 -42 -16q-21 0 -66 6q-119 16 -258 16q-160 0 -246 -20q-39 -9 -57 -9q-57 0 -57 72q0 178 241 440z" />
    <glyph glyph-name="braceleft" unicode="{" horiz-adv-x="760" 
d="M151 532q107 -111 107 -222q0 -70 -83 -214t-83 -230q0 -59 50 -81q45 -12 91 -24q50 -14 50 -53q0 -58 -87 -75q-34 -6 -132 -6q-121 0 -177 45q-63 50 -63 168q0 86 82 254q40 81 113 246q30 76 30 114q0 24 -13 68t-13 59q0 17 34 29q67 24 113 114q31 60 94 316
q72 289 308 342q71 16 164 16q118 0 118 -58q0 -26 -17 -40q-13 -11 -67 -21q-64 -13 -99 -29q-59 -26 -95 -80q-40 -61 -67 -160l-40 -170q-73 -283 -318 -308z" />
    <glyph glyph-name="bar" unicode="|" horiz-adv-x="1024" 
d="M362 1365h299v-1706h-299v1706z" />
    <glyph glyph-name="braceright" unicode="}" horiz-adv-x="760" 
d="M473 493q-107 111 -107 222q0 71 83 215t83 230q0 58 -50 80q-45 13 -91 25q-50 14 -50 53q0 58 87 75q34 6 132 6q240 0 240 -213q0 -87 -82 -254q-40 -81 -113 -246q-30 -77 -30 -114q0 -24 13 -68.5t13 -58.5q0 -17 -34 -29q-66 -23 -113 -115q-31 -60 -94 -316
q-69 -280 -291 -338q-77 -20 -179 -20q-120 0 -120 58q0 26 17 40q13 11 67 21q64 13 99 29q59 27 95 81q40 61 67 160l40 170q72 283 318 307z" />
    <glyph glyph-name="asciitilde" unicode="~" horiz-adv-x="1365" 
d="M336 1134l-146 121q114 276 301 276q73 0 208.5 -61.5t186.5 -61.5q77 0 148 129l145 -121q-120 -279 -303 -279q-62 0 -199.5 62.5t-194.5 62.5q-76 0 -146 -128z" />
    <glyph glyph-name="nonbreakingspace" unicode="&#xa0;" horiz-adv-x="410" 
 />
    <glyph glyph-name="exclamdown" unicode="&#xa1;" horiz-adv-x="678" 
d="M559 884q0 -91 -96 -386q-90 -277 -90 -309q0 -40 38.5 -64t38.5 -47q0 -32 -34 -41q-8 -2 -102 -2q-30 0 -90 -9q-11 -2 -82 -16q-58 -12 -73 -12q-70 0 -70 102q0 70 60 218q46 107 92 213q32 81 101 241q10 22 10 32q0 9 -16.5 28.5t-16.5 35.5q0 29 21 42t96 23
q45 6 84 20q48 17 67 17q62 0 62 -86zM503 1374q56 0 96 -38.5t40 -94.5q0 -84 -90 -141q-79 -50 -169 -50q-55 0 -93 38t-38 93q0 78 90 139q81 54 164 54z" />
    <glyph glyph-name="cent" unicode="&#xa2;" 
d="M929 1168q133 -42 133 -168q0 -55 -35 -95t-89 -40q-44 0 -72 27t-28 71q0 28 16.5 58t16.5 33q0 14 -23 14q-118 0 -252 -266q-122 -241 -122 -376q0 -90 68 -90q63 0 165.5 84t124.5 84q41 0 41 -43q0 -47 -103 -133q-131 -110 -264 -151q-51 -195 -134 -195
q-77 0 -77 59q0 35 61 136q-209 41 -209 258q0 156 126 347q205 311 507 386q72 206 136 206q26 0 55 -19t29 -44q0 -17 -30 -69q-36 -61 -41 -74z" />
    <glyph glyph-name="sterling" unicode="&#xa3;" horiz-adv-x="1160" 
d="M741 786q11 -2 19 -2q16 0 49 6.5t49 6.5q48 0 48 -50q0 -42 -29 -70t-71 -28q-26 0 -107 13q-69 -189 -143 -290q-84 -115 -240 -213q68 -5 241 -39q21 -4 40 -4q42 0 42 28q0 8 -13.5 43t-13.5 56q0 57 49 96q45 36 104 36q73 0 124 -53.5t51 -127.5q0 -118 -93 -191
q-86 -67 -207 -67q-112 0 -303 55q-173 50 -225 50q-30 0 -80.5 -19t-69.5 -19q-39 0 -39 38q0 63 33 87q8 5 40 12q137 30 202 139q51 86 139 383q-41 -3 -48 -3q-49 0 -49 44q0 96 139 96q48 200 109 312q88 160 232 223q101 44 208 44q112 0 182 -53q79 -60 79 -168
q0 -69 -37 -116q-40 -50 -108 -50q-51 0 -86.5 32.5t-35.5 82.5q0 37 31.5 78.5t31.5 50.5q0 28 -48 28q-64 0 -97 -55q-18 -29 -55 -200q-31 -140 -44 -222z" />
    <glyph glyph-name="currency" unicode="&#xa4;" 
d="M851 1095q114 97 119 97q20 0 56.5 -42t36.5 -62q0 -22 -45 -64q-32 -28 -65 -56q28 -91 28 -168q0 -120 -67 -238q90 -90 90 -110q0 -15 -44.5 -58.5t-58.5 -43.5q-19 0 -51 35q-22 25 -45 51q-111 -92 -251 -92q-128 0 -214 76q-84 -74 -105 -74q-17 0 -54.5 42
t-37.5 60q0 17 107 113q-22 64 -22 119q0 126 91 284q-109 116 -109 131t48.5 59t60.5 44q18 0 120 -118q124 74 230 74q82 0 182 -59zM642 962q-99 0 -169 -84q-66 -80 -66 -181q0 -70 42.5 -118t111.5 -48q98 0 168 87q66 81 66 182q0 70 -42 116t-111 46z" />
    <glyph glyph-name="yen" unicode="&#xa5;" 
d="M767 1008q260 192 260 243q0 9 -30.5 26t-30.5 45q0 32 40 46q8 3 91 7q28 1 86 16q55 13 79 13q49 0 49 -49q0 -99 -208 -259q-141 -108 -296 -192l-26 -91q23 -2 33 -2q15 0 45 4.5t45 4.5q43 0 43 -48q0 -101 -99 -101q-46 0 -116 15l-49 -133q19 -3 34 -3
q19 0 56.5 4t56.5 4q48 0 48 -43q0 -102 -102 -102q-74 0 -139 22q-62 -196 -62 -226q0 -46 55.5 -59.5t55.5 -44.5q0 -29 -35 -41q-15 -5 -92 -6q-119 -1 -198 -27q-46 -15 -67 -15q-57 0 -57 95q0 68 64 292q-70 -6 -82 -6q-82 0 -82 55q0 94 220 101q17 31 39 108
q-77 -7 -95 -7q-82 0 -82 54q0 73 87 95q37 9 146 10q-10 86 -38 207q-35 152 -66 190q-15 18 -86 49q-56 26 -56 58q0 42 52 48q-14 -2 83 -2q84 0 222 32q26 6 45 6q31 0 51 -24q31 -39 67 -177q30 -112 41 -192z" />
    <glyph glyph-name="brokenbar" unicode="&#xa6;" horiz-adv-x="1024" 
d="M362 1365h299v-718h-299v718zM362 314h299v-655h-299v655z" />
    <glyph glyph-name="section" unicode="&#xa7;" horiz-adv-x="1160" 
d="M797 204q17 -69 17 -122q0 -197 -177 -326q-161 -118 -365 -118q-130 0 -225 50q-119 62 -119 181q0 75 45 131.5t119 56.5q49 0 86.5 -31t37.5 -79q0 -45 -41 -81t-41 -51q0 -60 115 -60q88 0 159 51q78 57 78 142q0 76 -98 159q-91 76 -182 151q-98 100 -98 218
q0 152 98 246q39 37 115 76q-35 70 -35 137q0 173 140 300q160 145 415 145q129 0 221 -49q116 -61 116 -179q0 -76 -45 -132q-48 -59 -122 -59q-52 0 -87 28q-38 31 -38 82t41.5 84.5t41.5 52.5q0 55 -114 55q-89 0 -158 -54q-74 -58 -74 -145q0 -55 37 -101
q8 -11 162 -126q168 -126 168 -307q0 -187 -193 -326zM435 685q-50 -48 -50 -90q0 -60 69 -113q16 -11 121 -71q58 -33 123 -81q34 33 34 85q0 82 -82 145q-28 22 -151 88q-26 14 -64 37z" />
    <glyph glyph-name="dieresis" unicode="&#xa8;" horiz-adv-x="1024" 
d="M782 1493q35 0 56.5 -25.5t21.5 -61.5q0 -68 -44 -128q-48 -66 -114 -66q-72 0 -72 94q0 68 41 125q46 62 111 62zM540 1497q76 0 76 -93q0 -68 -44 -129q-49 -66 -115 -66q-34 0 -55 30q-19 26 -19 62q0 68 44 129q47 67 113 67z" />
    <glyph glyph-name="copyright" unicode="&#xa9;" horiz-adv-x="1496" 
d="M861 1417q231 0 392 -164q155 -158 155 -429q0 -326 -231 -572q-216 -230 -505 -230q-288 0 -440 211q-123 171 -123 385q0 107 41 231q79 242 266 400q200 168 445 168zM860 1313q-157 0 -305 -101.5t-235 -272.5t-87 -352q0 -204 118.5 -331t321.5 -127q230 0 417 196
q207 217 207 531q0 200 -117 327q-121 130 -320 130zM928 1050q-85 0 -174 -144q-123 -199 -123 -361q0 -106 70 -106q115 0 225 193q13 22 27 22q31 0 31 -30q0 -38 -59 -117q-137 -184 -313 -184q-91 0 -141.5 56t-50.5 149q0 191 158 386q165 205 349 205q72 0 118 -33
q53 -38 53 -107q0 -42 -27.5 -75t-68.5 -33q-74 0 -74 69q0 22 21.5 47t21.5 32q0 31 -43 31z" />
    <glyph glyph-name="ordfeminine" unicode="&#xaa;" 
d="M689 986q-106 -154 -216 -154q-57 0 -94 39t-37 96q0 183 198 347q113 94 195 94q79 0 79 -66q0 -57 -50 -57q-37 0 -37 30q0 6 6 16.5t6 15.5q0 6 -7 6q-21 0 -54 -34q-52 -53 -105 -156q-56 -112 -56 -176q0 -38 35 -38q65 0 168 158q98 153 96 225l-1 36q0 11 9 16
q5 3 54 7q14 1 48 10q31 8 45 8q22 0 22 -27q0 -69 -67.5 -229t-67.5 -203q0 -30 32 -38.5t32 -18.5q0 -12 -21 -14q-68 -7 -94 -11q-52 -9 -91 -28q-19 -9 -26 -9q-20 0 -20 37q0 45 19 118z" />
    <glyph glyph-name="guillemotleft" unicode="&#xab;" horiz-adv-x="814" 
d="M168 449q18 -106 18 -194q0 -98 -78 -98q-60 0 -72.5 15t-17.5 103q-4 70 -20 116q-12 35 -12 45q0 29 76 111q52 63 157 164q33 24 74 24q67 0 67 -35q0 -42 -192 -251zM499 449q18 -107 18 -195q0 -97 -79 -97q-59 0 -71.5 15t-17.5 103q-4 70 -20 116q-12 35 -12 45
q0 26 102 141q94 107 131 134q33 24 74 24q67 0 67 -35q0 -42 -192 -251z" />
    <glyph glyph-name="logicalnot" unicode="&#xac;" horiz-adv-x="1024" 
d="M665 0v332h-597v261h887v-593h-290z" />
    <glyph glyph-name="sfthyphen" unicode="&#xad;" horiz-adv-x="765" 
d="M545 574q97 0 97 -45q0 -19 -16 -59q-21 -53 -49 -63q-13 -4 -86 -4h-359q-64 0 -74 2q-44 8 -44 45q0 31 19 71q21 47 47 52q9 1 48 1h417z" />
    <glyph glyph-name="registered" unicode="&#xae;" horiz-adv-x="1496" 
d="M861 1417q231 0 392 -164q155 -158 155 -429q0 -326 -231 -572q-216 -230 -505 -230q-288 0 -440 211q-123 171 -123 385q0 107 41 231q79 242 266 400q200 168 445 168zM860 1313q-157 0 -305 -101.5t-235 -272.5t-87 -352q0 -204 118.5 -331t321.5 -127q230 0 417 196
q207 217 207 531q0 200 -117 327q-121 130 -320 130zM744 669q53 -155 139 -155q13 0 32.5 13t28.5 13q25 0 45 -37q18 -33 18 -61q0 -47 -34 -81.5t-81 -34.5q-80 0 -141 123q-22 44 -70 195q-57 -139 -57 -189q0 -21 24.5 -33.5t24.5 -25.5q0 -29 -50 -31q-84 -4 -146 -28
q-26 -10 -35 -10q-35 0 -35 55q0 109 127 431q65 165 65 193q0 16 -26 26.5t-26 30.5q0 16 12.5 25t153.5 22q127 12 175 12q223 0 223 -159q0 -160 -156 -246q-87 -48 -211 -48zM807 1038q-5 -55 -90 -292q16 -2 29 -2q65 0 112 94q40 79 40 153q0 54 -52 54q-17 0 -39 -7z
" />
    <glyph glyph-name="overscore" unicode="&#xaf;" horiz-adv-x="1024" 
d="M0 1630h1024v-176h-1024v176z" />
    <glyph glyph-name="degree" unicode="&#xb0;" horiz-adv-x="729" 
d="M503 1373q103 0 166 -72q60 -69 60 -173q0 -130 -87 -231q-92 -104 -220 -104q-106 0 -169 70t-63 177q0 125 94.5 229t218.5 104zM491 1252q-78 0 -135 -67q-53 -63 -53 -143q0 -57 35 -95t91 -38q78 0 133 68q53 65 53 144q0 56 -34.5 93.5t-89.5 37.5z" />
    <glyph glyph-name="plusminus" unicode="&#xb1;" 
d="M543 819l91 302q18 59 30 66q9 6 79 6q74 0 74 -13q0 -4 -30 -104l-77 -257l332 1q59 0 59 -30q0 -14 -10 -57q-8 -36 -13 -47q-11 -31 -26.5 -34.5t-104.5 -3.5h-289l-97 -320q-26 -87 -32 -92q-13 -12 -100 -12q-55 0 -55 19q0 11 35 129l82 276l-347 1q-49 0 -49 32
q0 37 33 110q9 20 24 25q12 3 87 3h304zM-122 -43q0 38 33 110q9 20 22 24t88 4l804 1q59 0 59 -31q0 -13 -10 -56q-8 -36 -13 -47q-11 -31 -29 -35q-13 -3 -103 -3h-711h-46q-32 1 -46 1q-48 0 -48 32z" />
    <glyph glyph-name="twosuperior" unicode="&#xb2;" horiz-adv-x="666" 
d="M597 840q31 0 31 -30q0 -14 -32 -96q-36 -96 -41 -112q-3 -12 -15 -32q-9 -8 -29 -8q-13 0 -34 3q-96 14 -201 14q-96 0 -153 -10q-46 -8 -69 -8q-43 0 -43 46q0 81 99 210q69 90 261 233q153 114 153 191q0 80 -92 80q-38 0 -74 -17q-44 -22 -44 -55q0 -8 2 -24t2 -24
q0 -75 -73 -75t-73 74q0 72 81 131.5t204 59.5q262 0 262 -192q0 -88 -74 -174q-47 -54 -160 -141q-117 -89 -154 -130q-50 -55 -50 -80q0 -27 46 -27q104 0 235 170q18 23 35 23z" />
    <glyph glyph-name="threesuperior" unicode="&#xb3;" horiz-adv-x="666" 
d="M587 1046q102 -27 102 -128q0 -147 -154 -256q-140 -100 -295 -100q-84 0 -140 41q-64 46 -64 127q0 49 29.5 86t77.5 37q30 0 51 -20t21 -50q0 -38 -40.5 -59t-40.5 -37q0 -26 33 -42q27 -14 56 -14q89 0 167 99q75 94 75 185q0 56 -56 56q-24 0 -66.5 -19.5
t-51.5 -19.5q-19 0 -19 26q0 31 14 47q6 6 85 30t127 87q57 75 57 141q0 57 -71 57q-37 0 -78 -18q-49 -21 -49 -53q0 -10 5.5 -30t5.5 -30q0 -34 -23 -57t-57 -23q-72 0 -72 73q0 54 53 110q94 99 255 99q83 0 146 -30q81 -39 81 -113q0 -107 -164 -202z" />
    <glyph glyph-name="acute" unicode="&#xb4;" horiz-adv-x="1024" 
d="M668 1495q31 0 65.5 -35t34.5 -66q0 -19 -17.5 -40.5t-81 -75.5t-88.5 -70q-16 -10 -32 -10q-26 0 -52 25.5t-26 51.5q0 20 12 38q65 99 147 166q20 16 38 16z" />
    <glyph glyph-name="mu" unicode="&#xb5;" horiz-adv-x="1071" 
d="M182 -3q-67 -153 -67 -340q0 -14 1.5 -42.5t1.5 -42.5q0 -53 -79 -53q-81 0 -157 35q-95 43 -95 114q0 72 99 371q91 275 283 720q17 39 17 60q0 46 -57 58t-57 42q0 44 87 44q117 0 270 31q25 5 39 5q50 0 50 -80q0 -132 -204 -572q-41 -88 -41 -118q0 -36 30 -36
q38 0 106 64q155 147 253 408q49 129 51 214q1 25 3 37q4 23 16.5 34.5t93.5 19.5q47 5 133 24q14 3 26 3q59 0 59 -82q0 -101 -135 -416q-94 -220 -94 -287q0 -45 52 -61t52 -48q0 -26 -17 -36q-13 -8 -72 -12q-144 -10 -262 -55q-29 -11 -49 -11q-52 0 -52 78q0 35 8 101
q-149 -159 -293 -171z" />
    <glyph glyph-name="mu" unicode="&#x3bc;" horiz-adv-x="1071" 
d="M182 -3q-67 -153 -67 -340q0 -14 1.5 -42.5t1.5 -42.5q0 -53 -79 -53q-81 0 -157 35q-95 43 -95 114q0 72 99 371q91 275 283 720q17 39 17 60q0 46 -57 58t-57 42q0 44 87 44q117 0 270 31q25 5 39 5q50 0 50 -80q0 -132 -204 -572q-41 -88 -41 -118q0 -36 30 -36
q38 0 106 64q155 147 253 408q49 129 51 214q1 25 3 37q4 23 16.5 34.5t93.5 19.5q47 5 133 24q14 3 26 3q59 0 59 -82q0 -101 -135 -416q-94 -220 -94 -287q0 -45 52 -61t52 -48q0 -26 -17 -36q-13 -8 -72 -12q-144 -10 -262 -55q-29 -11 -49 -11q-52 0 -52 78q0 35 8 101
q-149 -159 -293 -171z" />
    <glyph glyph-name="paragraph" unicode="&#xb6;" horiz-adv-x="1280" 
d="M579 567q-67 -12 -126 -12q-158 0 -254 70q-108 79 -108 232q0 179 128 327q170 196 546 196q107 0 317 -15q103 -5 272 -27q49 -12 49 -47q0 -39 -61 -61q-80 -29 -87 -36q-15 -14 -31 -55q-19 -48 -115 -460q-100 -429 -176 -643q-115 -326 -222 -326q-13 0 -49 14
q-77 30 -126 37q-37 5 -205 11q-105 3 -105 38q0 27 60 56q73 36 90 56q66 81 203 645zM1053 1249q-108 0 -150 -55q-30 -38 -51 -122q-32 -121 -100 -454q-58 -287 -109 -451q-24 -77 -38 -114q-24 -64 -53 -107q-16 -24 -16 -29q0 -18 54 -32q43 -10 71 -10q45 0 77 67
q50 106 100 293q38 151 75 302q43 174 138 518q30 100 68 159q6 9 6 14q0 21 -72 21z" />
    <glyph glyph-name="middot" unicode="&#xb7;" horiz-adv-x="547" 
d="M290 718q51 0 85.5 -34t34.5 -85q0 -76 -92 -136q-83 -53 -164 -53q-53 0 -90 35t-37 87q0 83 93 138q81 48 170 48z" />
    <glyph glyph-name="cedilla" unicode="&#xb8;" horiz-adv-x="1024" 
d="M516 0q-45 -61 -45 -76t14 -15q5 0 25 7.5t34 7.5q84 0 84 -98q0 -122 -93.5 -220.5t-215.5 -98.5q-62 0 -102 48q-39 45 -39 108q0 65 55 65q34 0 54 -55t66 -55q52 0 95.5 46.5t43.5 98.5q0 56 -49 56q-13 0 -37.5 -5t-37.5 -5q-36 0 -36 35q0 38 73 156h111z" />
    <glyph glyph-name="onesuperior" unicode="&#xb9;" horiz-adv-x="666" 
d="M404 1244q-72 -27 -98 -27q-38 0 -38 35q0 20 12 29q5 3 83 21q57 13 192 77q23 11 39 11q37 0 37 -52q0 -70 -63 -250q-46 -122 -92 -245q-40 -108 -40 -147q0 -27 35 -36t35 -30q0 -15 -13 -22q-9 -5 -61 -7q-85 -4 -152 -30q-23 -9 -35 -9q-34 0 -34 56q0 104 80 312
q100 263 113 314z" />
    <glyph glyph-name="ordmasculine" unicode="&#xba;" 
d="M851 1419q178 0 178 -147q0 -61 -41 -146q-62 -125 -169 -213q-122 -100 -247 -100q-79 0 -131 38q-58 43 -58 120q0 158 183 323q139 125 285 125zM835 1332q-69 0 -160 -145q-85 -136 -85 -212q0 -54 52 -54q79 0 167 145q81 133 81 218q0 48 -55 48z" />
    <glyph glyph-name="guillemotright" unicode="&#xbb;" horiz-adv-x="814" 
d="M482 446q-19 104 -19 195q0 97 78 97q61 0 73 -15t18 -103q4 -70 20 -116q12 -35 12 -46q0 -27 -98 -137q-81 -91 -129 -133q-32 -28 -81 -28q-66 0 -66 35q0 42 192 251zM151 446q-19 105 -19 194q0 98 79 98q60 0 72 -14.5t18 -103.5q4 -69 20 -116q12 -36 12 -45
q0 -28 -98 -137q-81 -92 -129 -134q-32 -28 -81 -28q-66 0 -66 35q0 44 192 251z" />
    <glyph glyph-name="onequarter" unicode="&#xbc;" horiz-adv-x="1679" 
d="M464 1244q-72 -27 -98 -27q-38 0 -38 35q0 20 12 29q5 3 83 21q56 13 192 77q23 11 39 11q37 0 37 -52q0 -71 -63 -250q-46 -122 -92 -245q-40 -108 -40 -147q0 -27 35 -36t35 -30q0 -15 -13 -22q-9 -5 -61 -7q-85 -4 -152 -30q-23 -9 -35 -9q-34 0 -34 56q0 103 80 312
q101 264 113 314zM380 -22q-58 0 -58 54q0 29 103 183l698 1046q27 44 83 119q16 17 39 17q54 0 54 -63q0 -26 -69 -129l-718 -1074q-88 -132 -111 -148q-8 -5 -21 -5zM1339 293q12 0 36.5 1t36.5 1q52 0 52 -52q0 -38 -21 -38q-6 0 -22.5 8t-24.5 10q-11 1 -69 1h-10
q-24 -77 -24 -105q0 -27 25.5 -37t25.5 -26q0 -28 -47 -31q-74 -5 -161 -36q-19 -7 -30 -7q-39 0 -39 64q0 68 36 178q-23 1 -41 1q-96 0 -142 -6q-31 -4 -45 -4q-46 0 -46 46q0 137 258 342q38 28 107 90q25 41 61 89q7 3 40 5q68 3 119 20q18 6 28 6q35 0 35 -52
q0 -83 -54 -234zM1128 309q10 30 30 89q25 69 72 207q-54 -54 -114 -134q-76 -103 -76 -146q0 -18 39 -18q21 0 49 2z" />
    <glyph glyph-name="onehalf" unicode="&#xbd;" horiz-adv-x="1679" 
d="M421 1244q-72 -27 -98 -27q-38 0 -38 35q0 20 12 29q5 3 83 21q56 13 192 77q23 11 39 11q37 0 37 -52q0 -71 -63 -250q-46 -122 -92 -245q-40 -108 -40 -147q0 -27 35 -36t35 -30q0 -15 -13 -22q-9 -5 -61 -7q-85 -4 -152 -30q-23 -9 -35 -9q-34 0 -34 56q0 103 80 312
q101 264 113 314zM337 -22q-58 0 -58 54q0 29 103 183l698 1046q27 44 83 119q16 17 39 17q54 0 54 -63q0 -26 -69 -129l-718 -1074q-88 -132 -111 -148q-8 -5 -21 -5zM1420 261q31 0 31 -30q0 -15 -23 -71q-18 -45 -50 -136q-5 -18 -9 -24q-7 -12 -20 -15q-6 -1 -14 -1
q-14 0 -35 3q-92 13 -201 13q-99 0 -152 -9q-47 -8 -70 -8q-43 0 -43 44q0 83 99 212q68 88 261 233q153 115 153 190q0 81 -92 81q-39 0 -75 -17q-43 -22 -43 -57q0 -8 2.5 -23t2.5 -23q0 -75 -73 -75t-73 74q0 72 81 131.5t203 59.5q262 0 262 -192q0 -131 -174 -266
q-76 -56 -214 -180q-50 -54 -50 -79q0 -27 46 -27q105 0 235 169q18 23 35 23z" />
    <glyph glyph-name="threequarters" unicode="&#xbe;" horiz-adv-x="1679" 
d="M607 1046q102 -27 102 -128q0 -149 -154 -257q-140 -99 -295 -99q-84 0 -140 41q-64 46 -64 127q0 49 29.5 86t77.5 37q30 0 51 -20t21 -50q0 -38 -40.5 -59t-40.5 -37q0 -25 33 -42q28 -14 56 -14q89 0 168 99q74 94 74 185q0 56 -56 56q-24 0 -66.5 -19.5t-51.5 -19.5
q-19 0 -19 26q0 31 14 47q6 6 85 30t127 87q57 75 57 141q0 57 -71 57q-37 0 -78 -18q-49 -21 -49 -53q0 -10 5.5 -30t5.5 -30q0 -34 -23 -57t-57 -23q-72 0 -72 73q0 54 53 110q94 99 255 99q83 0 146 -30q81 -39 81 -113q0 -105 -164 -202zM441 -22q-58 0 -58 54
q0 29 103 183l699 1046q26 43 82 119q16 17 39 17q54 0 54 -63q0 -26 -69 -129l-717 -1074q-87 -131 -112 -148q-8 -5 -21 -5zM1415 293q12 0 36.5 1t36.5 1q52 0 52 -52q0 -38 -21 -38q-6 0 -22.5 8t-24.5 10q-11 1 -69 1h-10q-24 -77 -24 -105q0 -27 25.5 -37t25.5 -26
q0 -27 -47 -31q-75 -6 -161 -36q-20 -7 -30 -7q-39 0 -39 64q0 70 36 178q-23 1 -41 1q-96 0 -142 -6q-31 -4 -44 -4q-47 0 -47 46q0 136 258 342q38 28 107 90q25 41 61 89q6 3 40 5q69 4 119 20q18 6 28 6q35 0 35 -52q0 -84 -54 -235zM1205 309q34 99 101 296
q-55 -55 -113 -134q-77 -104 -77 -146q0 -18 39 -18q21 0 50 2z" />
    <glyph glyph-name="questiondown" unicode="&#xbf;" horiz-adv-x="1046" 
d="M644 957q75 0 127 -37q60 -42 60 -114q0 -86 -80 -154q-46 -40 -155 -94q-63 -31 -96 -49q-65 -37 -87 -60q-55 -58 -55 -151q0 -77 48 -120t126 -43q60 0 116 26q69 32 69 85q0 13 -5 39.5t-5 39.5q0 46 34.5 79t80.5 33q50 0 83.5 -34t33.5 -84q0 -109 -119 -202
q-151 -118 -374 -118q-181 0 -299 70q-145 85 -145 253q0 110 77 213q59 78 165 132q27 13 198 81q40 16 82 44q-14 15 -28 31t-14 39q0 50 59 76q45 19 103 19zM744 1377q57 0 96.5 -38t39.5 -95q0 -84 -90 -141q-79 -50 -169 -50q-56 0 -93.5 38t-37.5 94q0 78 90 138
q82 54 164 54z" />
    <glyph glyph-name="Agrave" unicode="&#xc0;" horiz-adv-x="1141" 
d="M599 565q-82 9 -186 9q-106 0 -188 -9q-78 -190 -78 -293q0 -64 35 -93q11 -9 65 -33q35 -15 35 -43q0 -32 -40 -45q-7 -2 -94 -12q-97 -11 -176 -42q-35 -14 -52 -14q-57 0 -57 81q0 89 57 245q126 345 392 632q291 314 615 400q113 30 167 30q88 0 88 -96
q0 -106 -78 -337q-16 -46 -123 -331q-121 -322 -121 -397q0 -41 42.5 -63.5t42.5 -43.5q0 -31 -39 -46q-7 -2 -84 -8q-114 -8 -213 -47q-49 -19 -66 -19q-61 0 -61 99q0 95 41 241q3 8 76 235zM643 682q170 432 170 480q0 24 -23 24q-8 0 -80 -38q-54 -29 -148 -116
q-89 -83 -130 -136.5t-116 -161.5q-13 -15 -32 -46q0 -10 42 -12q77 -3 184 -3q14 0 133 9zM951 1793q17 0 38 -17q87 -74 146 -164q12 -20 12 -39q0 -25 -26 -51t-51 -26q-17 0 -33 10q-20 13 -88 71t-82 76q-17 20 -17 41q0 29 36 64t65 35z" />
    <glyph glyph-name="Aacute" unicode="&#xc1;" horiz-adv-x="1141" 
d="M599 565q-82 9 -186 9q-106 0 -188 -9q-78 -190 -78 -293q0 -64 35 -93q11 -9 65 -33q35 -15 35 -43q0 -32 -40 -45q-7 -2 -94 -12q-97 -11 -176 -42q-35 -14 -52 -14q-57 0 -57 81q0 89 57 245q126 345 392 632q291 314 615 400q113 30 167 30q88 0 88 -96
q0 -106 -78 -337q-16 -46 -123 -331q-121 -322 -121 -397q0 -41 42.5 -63.5t42.5 -43.5q0 -31 -39 -46q-7 -2 -84 -8q-114 -8 -213 -47q-49 -19 -66 -19q-61 0 -61 99q0 95 41 241q3 8 76 235zM643 682q170 432 170 480q0 24 -23 24q-8 0 -80 -38q-54 -29 -148 -116
q-89 -83 -130 -136.5t-116 -161.5q-13 -15 -32 -46q0 -10 42 -12q77 -3 184 -3q14 0 133 9zM1166 1793q32 0 66.5 -34.5t34.5 -66.5q0 -20 -16.5 -40t-82 -76t-88.5 -70q-16 -10 -33 -10q-25 0 -51 26t-26 51q0 20 12 38q61 92 146 165q21 17 38 17z" />
    <glyph glyph-name="Acircumflex" unicode="&#xc2;" horiz-adv-x="1141" 
d="M599 565q-82 9 -186 9q-106 0 -188 -9q-78 -190 -78 -293q0 -64 35 -93q11 -9 65 -33q35 -15 35 -43q0 -32 -40 -45q-7 -2 -94 -12q-97 -11 -176 -42q-35 -14 -52 -14q-57 0 -57 81q0 89 57 245q126 345 392 632q291 314 615 400q113 30 167 30q88 0 88 -96
q0 -106 -78 -337q-16 -46 -123 -331q-121 -322 -121 -397q0 -41 42.5 -63.5t42.5 -43.5q0 -31 -39 -46q-7 -2 -84 -8q-114 -8 -213 -47q-49 -19 -66 -19q-61 0 -61 99q0 95 41 241q3 8 76 235zM643 682q170 432 170 480q0 24 -23 24q-8 0 -80 -38q-54 -29 -148 -116
q-89 -83 -130 -136.5t-116 -161.5q-13 -15 -32 -46q0 -10 42 -12q77 -3 184 -3q14 0 133 9zM1060 1648q-54 -40 -107 -80q-83 -61 -108 -61q-18 0 -39.5 32.5t-21.5 52.5q0 21 39 43q117 68 188 116q63 43 82 43q29 0 84 -74q29 -36 57 -71q43 -55 43 -68q0 -17 -34.5 -47.5
t-52.5 -30.5q-15 0 -66 63z" />
    <glyph glyph-name="Atilde" unicode="&#xc3;" horiz-adv-x="1141" 
d="M599 565q-82 9 -186 9q-106 0 -188 -9q-78 -190 -78 -293q0 -64 35 -93q11 -9 65 -33q35 -15 35 -43q0 -32 -40 -45q-7 -2 -94 -12q-97 -11 -176 -42q-35 -14 -52 -14q-57 0 -57 81q0 89 57 245q126 345 392 632q291 314 615 400q113 30 167 30q88 0 88 -96
q0 -106 -78 -337q-16 -46 -123 -331q-121 -322 -121 -397q0 -41 42.5 -63.5t42.5 -43.5q0 -31 -39 -46q-7 -2 -84 -8q-114 -8 -213 -47q-49 -19 -66 -19q-61 0 -61 99q0 95 41 241q3 8 76 235zM643 682q170 432 170 480q0 24 -23 24q-8 0 -80 -38q-54 -29 -148 -116
q-89 -83 -130 -136.5t-116 -161.5q-13 -15 -32 -46q0 -10 42 -12q77 -3 184 -3q14 0 133 9zM985 1589q-18 0 -59 -28.5t-63 -28.5q-23 0 -40 18.5t-17 41.5q0 53 58.5 110.5t111.5 57.5q28 0 71 -29.5t56 -29.5q14 0 57.5 27.5t67.5 27.5q23 0 40.5 -17t17.5 -39
q0 -48 -56.5 -109t-103.5 -61q-23 0 -74 29.5t-67 29.5z" />
    <glyph glyph-name="Adieresis" unicode="&#xc4;" horiz-adv-x="1142" 
d="M599 565q-82 9 -186 9q-106 0 -188 -9q-78 -190 -78 -293q0 -64 35 -93q11 -9 65 -33q35 -15 35 -43q0 -32 -40 -45q-7 -2 -94 -12q-97 -11 -176 -42q-35 -14 -52 -14q-57 0 -57 81q0 89 57 245q126 345 392 632q291 314 615 400q113 30 167 30q88 0 88 -96
q0 -106 -78 -337q-16 -46 -123 -331q-121 -322 -121 -397q0 -41 42.5 -63.5t42.5 -43.5q0 -31 -39 -46q-7 -2 -84 -8q-114 -8 -213 -47q-49 -19 -66 -19q-61 0 -61 99q0 95 41 241q3 8 76 235zM643 682q170 432 170 480q0 24 -23 24q-8 0 -80 -38q-54 -29 -148 -116
q-89 -83 -130 -136.5t-116 -161.5q-13 -15 -32 -46q0 -10 42 -12q77 -3 184 -3q14 0 133 9zM1256 1792q35 0 56.5 -26t21.5 -61q0 -69 -44 -129q-48 -66 -114 -66q-72 0 -72 94q0 67 42 125q45 63 110 63zM1013 1795q77 0 77 -93q0 -68 -44 -129q-49 -66 -115 -66
q-34 0 -55 30q-19 26 -19 62q0 68 43 129q48 67 113 67z" />
    <glyph glyph-name="Aring" unicode="&#xc5;" horiz-adv-x="1141" 
d="M599 565q-82 9 -186 9q-106 0 -188 -9q-78 -190 -78 -293q0 -64 35 -93q11 -9 65 -33q35 -15 35 -43q0 -32 -40 -45q-7 -2 -94 -12q-97 -11 -176 -42q-35 -14 -52 -14q-57 0 -57 81q0 89 57 245q126 345 392 632q291 314 615 400q113 30 167 30q88 0 88 -96
q0 -106 -78 -337q-16 -46 -123 -331q-121 -322 -121 -397q0 -41 42.5 -63.5t42.5 -43.5q0 -31 -39 -46q-7 -2 -84 -8q-114 -8 -213 -47q-49 -19 -66 -19q-61 0 -61 99q0 95 41 241q3 8 76 235zM643 682q170 432 170 480q0 24 -23 24q-8 0 -80 -38q-54 -29 -148 -116
q-89 -83 -130 -136.5t-116 -161.5q-13 -15 -32 -46q0 -10 42 -12q77 -3 184 -3q14 0 133 9zM1104 1889q62 0 99 -44t37 -107q0 -80 -65 -158q-68 -81 -146 -81q-61 0 -99 50q-34 45 -34 108q0 85 62.5 158.5t145.5 73.5zM1094 1792q-40 0 -74 -48q-32 -44 -32 -86
q0 -62 52 -62q40 0 73 54q30 48 30 91q0 51 -49 51z" />
    <glyph glyph-name="AE" unicode="&#xc6;" horiz-adv-x="1565" 
d="M1184 1247q-23 -150 -135 -458q194 28 236 28q122 0 122 -67q0 -111 -60 -111q-8 0 -36 25.5t-87 25.5q-126 0 -219 -19q-47 -122 -93 -243q-59 -164 -59 -244q0 -56 64 -56q111 0 230 94q103 82 166 192q36 63 67 63q50 0 50 -46q0 -21 -57 -161q-17 -41 -58 -180
q-28 -94 -87 -94q-21 0 -56 7q-115 23 -257 23q-195 0 -307 -24q-42 -9 -63 -9q-62 0 -62 93q0 154 120 483q-58 8 -158 8q-137 0 -219 -8q-77 -175 -77 -291q0 -64 34 -93q9 -8 64 -33q34 -15 34 -45q0 -25 -19 -36q-15 -10 -71 -13q-108 -6 -206 -45q-45 -18 -64 -18
q-58 0 -58 89q0 151 136 415q144 279 354 494q239 244 500 335q143 50 245 50q34 0 67 -24q178 22 277 22q198 0 198 -71q0 -21 -57 -197q-12 -35 -29 -107q-5 -30 -22 -76q-16 -21 -45 -21q-51 0 -51 59q0 22 6.5 66.5t6.5 67.5q0 160 -134 160q-41 0 -131 -10zM644 687
q48 126 96 251q73 195 73 230q0 20 -17 20q-54 0 -233.5 -155.5t-275.5 -345.5q36 -7 138 -7q156 0 219 7z" />
    <glyph glyph-name="Ccedilla" unicode="&#xc7;" horiz-adv-x="1053" 
d="M324 -1q-80 -99 -80 -124q0 -13 11 -13q10 0 29.5 7.5t30.5 7.5q36 0 59.5 -26t23.5 -63q0 -116 -100 -224t-215 -108q-64 0 -104.5 41.5t-40.5 105.5q0 80 56 80q34 0 52.5 -56.5t56.5 -56.5q57 0 105 46.5t48 103.5q0 53 -43 53q-14 0 -40 -6.5t-39 -6.5q-33 0 -33 36
q0 65 114 203q-126 5 -200 103q-68 89 -68 219q0 241 166 513q132 216 319 365q224 179 440 179q117 0 195 -54q89 -62 89 -175q0 -78 -48 -138q-52 -64 -128 -64q-50 0 -86 33t-36 83q0 47 39.5 85t39.5 57q0 52 -71 52q-144 0 -306 -242q-121 -179 -191 -377
q-55 -155 -55 -277q0 -167 112 -167q82 0 189 76q94 68 148 147q23 42 71 126q16 27 46 27q52 0 52 -51q0 -49 -75 -154q-102 -142 -232 -238q-151 -111 -301 -128z" />
    <glyph glyph-name="Egrave" unicode="&#xc8;" horiz-adv-x="1050" 
d="M671 1253q-26 -166 -138 -459q161 26 247 26q112 0 112 -71q0 -34 -13 -66q-17 -41 -45 -41q-12 0 -36 21q-27 22 -42.5 26.5t-70.5 4.5q-64 0 -197 -15q-157 -383 -157 -488q0 -58 68 -58q99 0 213 84q103 75 161 169q16 29 53 78q16 16 38 16q18 0 32.5 -15.5
t14.5 -33.5t-15 -53q-70 -161 -94 -259q-30 -120 -95 -120q-22 0 -76 14q-77 20 -265 20q-158 0 -256 -21q-51 -11 -80 -11q-71 0 -71 88q0 181 238 780q105 264 105 321q0 35 -41.5 57.5t-41.5 45.5q0 50 64 49q152 -3 155 -3q32 0 114 9q282 31 354 31q220 0 220 -77
q0 -4 -54 -184q-12 -39 -32 -116q-12 -57 -25 -74q-16 -21 -42 -21q-52 0 -52 60q0 25 7 74.5t7 74.5q0 81 -36.5 113t-118.5 32q-55 0 -109 -8zM648 1793q17 0 38 -17q87 -74 146 -164q12 -20 12 -39q0 -25 -26 -51t-51 -26q-17 0 -33 10q-20 13 -88 71t-82 76
q-17 20 -17 41q0 29 36 64t65 35z" />
    <glyph glyph-name="Eacute" unicode="&#xc9;" horiz-adv-x="1050" 
d="M671 1253q-26 -166 -138 -459q161 26 247 26q112 0 112 -71q0 -34 -13 -66q-17 -41 -45 -41q-12 0 -36 21q-27 22 -42.5 26.5t-70.5 4.5q-64 0 -197 -15q-157 -383 -157 -488q0 -58 68 -58q99 0 213 84q103 75 161 169q16 29 53 78q16 16 38 16q18 0 32.5 -15.5
t14.5 -33.5t-15 -53q-70 -161 -94 -259q-30 -120 -95 -120q-22 0 -76 14q-77 20 -265 20q-158 0 -256 -21q-51 -11 -80 -11q-71 0 -71 88q0 181 238 780q105 264 105 321q0 35 -41.5 57.5t-41.5 45.5q0 50 64 49q152 -3 155 -3q32 0 114 9q282 31 354 31q220 0 220 -77
q0 -4 -54 -184q-12 -39 -32 -116q-12 -57 -25 -74q-16 -21 -42 -21q-52 0 -52 60q0 25 7 74.5t7 74.5q0 81 -36.5 113t-118.5 32q-55 0 -109 -8zM848 1793q32 0 66.5 -34.5t34.5 -66.5q0 -20 -16.5 -40t-82 -76t-88.5 -70q-16 -10 -33 -10q-25 0 -51 26t-26 51q0 20 12 38
q61 92 146 165q21 17 38 17z" />
    <glyph glyph-name="Ecircumflex" unicode="&#xca;" horiz-adv-x="1050" 
d="M671 1253q-26 -166 -138 -459q161 26 247 26q112 0 112 -71q0 -34 -13 -66q-17 -41 -45 -41q-12 0 -36 21q-27 22 -42.5 26.5t-70.5 4.5q-64 0 -197 -15q-157 -383 -157 -488q0 -58 68 -58q99 0 213 84q103 75 161 169q16 29 53 78q16 16 38 16q18 0 32.5 -15.5
t14.5 -33.5t-15 -53q-70 -161 -94 -259q-30 -120 -95 -120q-22 0 -76 14q-77 20 -265 20q-158 0 -256 -21q-51 -11 -80 -11q-71 0 -71 88q0 181 238 780q105 264 105 321q0 35 -41.5 57.5t-41.5 45.5q0 50 64 49q152 -3 155 -3q32 0 114 9q282 31 354 31q220 0 220 -77
q0 -4 -54 -184q-12 -39 -32 -116q-12 -57 -25 -74q-16 -21 -42 -21q-52 0 -52 60q0 25 7 74.5t7 74.5q0 81 -36.5 113t-118.5 32q-55 0 -109 -8zM785 1648q-54 -40 -107 -80q-83 -61 -108 -61q-18 0 -39.5 32.5t-21.5 52.5q0 21 39 43q117 68 188 116q63 43 82 43
q29 0 84 -74q29 -36 57 -71q43 -55 43 -68q0 -17 -34.5 -47.5t-52.5 -30.5q-15 0 -66 63z" />
    <glyph glyph-name="Edieresis" unicode="&#xcb;" horiz-adv-x="1050" 
d="M671 1253q-26 -166 -138 -459q161 26 247 26q112 0 112 -71q0 -34 -13 -66q-17 -41 -45 -41q-12 0 -36 21q-27 22 -42.5 26.5t-70.5 4.5q-64 0 -197 -15q-157 -383 -157 -488q0 -58 68 -58q99 0 213 84q103 75 161 169q16 29 53 78q16 16 38 16q18 0 32.5 -15.5
t14.5 -33.5t-15 -53q-70 -161 -94 -259q-30 -120 -95 -120q-22 0 -76 14q-77 20 -265 20q-158 0 -256 -21q-51 -11 -80 -11q-71 0 -71 88q0 181 238 780q105 264 105 321q0 35 -41.5 57.5t-41.5 45.5q0 50 64 49q152 -3 155 -3q32 0 114 9q282 31 354 31q220 0 220 -77
q0 -4 -54 -184q-12 -39 -32 -116q-12 -57 -25 -74q-16 -21 -42 -21q-52 0 -52 60q0 25 7 74.5t7 74.5q0 81 -36.5 113t-118.5 32q-55 0 -109 -8zM889 1792q35 0 56.5 -26t21.5 -61q0 -69 -44 -129q-48 -66 -114 -66q-72 0 -72 94q0 67 42 125q45 63 110 63zM646 1795
q77 0 77 -93q0 -68 -44 -129q-49 -66 -115 -66q-34 0 -55 30q-19 26 -19 62q0 68 43 129q48 67 113 67z" />
    <glyph glyph-name="Igrave" unicode="&#xcc;" horiz-adv-x="621" 
d="M262 1339q20 0 60 -2.5t61 -2.5q68 0 172 33q35 11 50 11q57 0 57 -94q0 -138 -172 -589q-153 -401 -153 -474q0 -39 42.5 -59.5t42.5 -48.5q0 -31 -37 -44q-8 -3 -84 -10q-128 -12 -217 -46q-42 -16 -65 -16q-61 0 -61 91q0 163 121 489l184 490q29 94 29 120
q0 30 -41.5 52t-41.5 49q0 51 53 51zM402 1793q17 0 38 -17q87 -74 146 -164q12 -20 12 -39q0 -25 -26 -51t-51 -26q-17 0 -33 10q-20 13 -88 71t-82 76q-17 20 -17 41q0 29 36 64t65 35z" />
    <glyph glyph-name="Iacute" unicode="&#xcd;" horiz-adv-x="621" 
d="M262 1339q20 0 60 -2.5t61 -2.5q68 0 172 33q35 11 50 11q57 0 57 -94q0 -138 -172 -589q-153 -401 -153 -474q0 -39 42.5 -59.5t42.5 -48.5q0 -31 -37 -44q-8 -3 -84 -10q-128 -12 -217 -46q-42 -16 -65 -16q-61 0 -61 91q0 163 121 489l184 490q29 94 29 120
q0 30 -41.5 52t-41.5 49q0 51 53 51zM603 1793q32 0 66.5 -34.5t34.5 -66.5q0 -20 -16.5 -40t-82 -76t-88.5 -70q-16 -10 -33 -10q-25 0 -51 26t-26 51q0 20 12 38q61 92 146 165q21 17 38 17z" />
    <glyph glyph-name="Icircumflex" unicode="&#xce;" horiz-adv-x="621" 
d="M262 1339q20 0 60 -2.5t61 -2.5q68 0 172 33q35 11 50 11q57 0 57 -94q0 -138 -172 -589q-153 -401 -153 -474q0 -39 42.5 -59.5t42.5 -48.5q0 -31 -37 -44q-8 -3 -84 -10q-128 -12 -217 -46q-42 -16 -65 -16q-61 0 -61 91q0 163 121 489l184 490q29 94 29 120
q0 30 -41.5 52t-41.5 49q0 51 53 51zM554 1648q-54 -40 -107 -80q-83 -61 -108 -61q-18 0 -39.5 32.5t-21.5 52.5q0 21 39 43q117 68 188 116q63 43 82 43q29 0 84 -74q29 -36 57 -71q43 -55 43 -68q0 -17 -34.5 -47.5t-52.5 -30.5q-15 0 -66 63z" />
    <glyph glyph-name="Idieresis" unicode="&#xcf;" horiz-adv-x="622" 
d="M262 1339q20 0 60 -2.5t61 -2.5q68 0 172 33q35 11 50 11q57 0 57 -94q0 -138 -172 -589q-153 -401 -153 -474q0 -39 42.5 -59.5t42.5 -48.5q0 -31 -37 -44q-8 -3 -84 -10q-128 -12 -217 -46q-42 -16 -65 -16q-61 0 -61 91q0 163 121 489l184 490q29 94 29 120
q0 30 -41.5 52t-41.5 49q0 51 53 51zM686 1792q35 0 56.5 -26t21.5 -61q0 -69 -44 -129q-48 -66 -114 -66q-72 0 -72 94q0 68 41 125q45 63 111 63zM443 1795q77 0 77 -92q0 -69 -44 -130q-48 -66 -115 -66q-34 0 -55 30q-19 26 -19 62q0 68 43 129q48 67 113 67z" />
    <glyph glyph-name="Eth" unicode="&#xd0;" horiz-adv-x="1251" 
d="M184 793q126 310 126 381q0 24 -46.5 42.5t-46.5 48.5q0 34 32 49q19 9 282 43q172 22 281 22q198 0 320 -111q126 -116 126 -312q0 -253 -175 -502q-166 -236 -404 -354q-104 -52 -215 -63q-46 -5 -225 -5q-74 0 -135 -22q-42 -15 -58 -15q-60 0 -60 103q0 115 56 293
q13 41 101 284q-56 -5 -84 -5q-63 0 -63 52q0 50 74 63zM679 1251q-20 -158 -132 -458q94 0 106 -2q70 -10 70 -59q0 -37 -37 -49q-21 -7 -158 -5q-3 0 -22 -1q-151 -389 -151 -485q0 -54 50 -54q63 0 148 87q131 134 237 394.5t106 447.5q0 197 -155 197q-35 0 -62 -13z
" />
    <glyph glyph-name="Ntilde" unicode="&#xd1;" horiz-adv-x="1129" 
d="M815 255q14 -45 28 -60q8 -8 62 -31q39 -17 39 -50q0 -24 -22 -37q-16 -10 -89 -16q-92 -7 -204 -49q-37 -14 -59 -14q-54 0 -93 141q-44 160 -75 402q-26 204 -51 407q-63 -138 -126 -344q-72 -238 -72 -350q0 -56 32 -78q5 -4 59 -24q32 -11 32 -40q0 -24 -14.5 -36
t-64.5 -19q-27 -4 -73 -17q-4 -2 -69 -25q-51 -19 -62 -19q-61 0 -61 99q0 134 155 512q114 276 233 512q-16 59 -32 79q-9 10 -64 42q-41 23 -41 53q0 46 57 46q17 0 52 -1.5t52 -1.5q74 0 172 30q39 12 58 12q45 0 72 -94q6 -21 20 -126q24 -228 92 -681q85 341 202 613
q123 286 199 286q36 0 83 -28q51 -31 51 -63q0 -18 -42 -42q-104 -59 -239 -366q-138 -313 -197 -622zM817 1589q-18 0 -59 -28.5t-63 -28.5q-23 0 -40 18.5t-17 41.5q0 53 58.5 110.5t111.5 57.5q28 0 71 -29.5t56 -29.5q14 0 57.5 27.5t67.5 27.5q23 0 40.5 -17t17.5 -39
q0 -48 -56.5 -109t-103.5 -61q-23 0 -74 29.5t-67 29.5z" />
    <glyph glyph-name="Ograve" unicode="&#xd2;" 
d="M868 1377q158 0 240 -100q74 -91 74 -253q0 -207 -128.5 -450t-322.5 -402q-213 -175 -424 -175q-154 0 -243 103q-84 98 -84 254q0 219 126.5 460t322.5 395q215 168 439 168zM819 1257q-56 0 -129 -64q-136 -120 -241 -374q-102 -247 -102 -436q0 -71 25 -121
q31 -65 95 -65q156 0 303 297q156 314 156 589q0 174 -107 174zM789 1793q17 0 38 -17q87 -74 146 -164q12 -20 12 -39q0 -25 -26 -51t-51 -26q-17 0 -33 10q-20 13 -88 71t-82 76q-17 20 -17 41q0 29 36 64t65 35z" />
    <glyph glyph-name="Oacute" unicode="&#xd3;" 
d="M868 1377q158 0 240 -100q74 -91 74 -253q0 -207 -128.5 -450t-322.5 -402q-213 -175 -424 -175q-154 0 -243 103q-84 98 -84 254q0 219 126.5 460t322.5 395q215 168 439 168zM819 1257q-56 0 -129 -64q-136 -120 -241 -374q-102 -247 -102 -436q0 -71 25 -121
q31 -65 95 -65q156 0 303 297q156 314 156 589q0 174 -107 174zM1033 1793q32 0 66.5 -34.5t34.5 -66.5q0 -20 -16.5 -40t-82 -76t-88.5 -70q-16 -10 -33 -10q-25 0 -51 26t-26 51q0 20 12 38q61 92 146 165q21 17 38 17z" />
    <glyph glyph-name="Ocircumflex" unicode="&#xd4;" 
d="M868 1377q158 0 240 -100q74 -91 74 -253q0 -207 -128.5 -450t-322.5 -402q-213 -175 -424 -175q-154 0 -243 103q-84 98 -84 254q0 219 126.5 460t322.5 395q215 168 439 168zM819 1257q-56 0 -129 -64q-136 -120 -241 -374q-102 -247 -102 -436q0 -71 25 -121
q31 -65 95 -65q156 0 303 297q156 314 156 589q0 174 -107 174zM927 1648q-54 -40 -107 -80q-83 -61 -108 -61q-18 0 -39.5 32.5t-21.5 52.5q0 21 39 43q117 68 188 116q63 43 82 43q29 0 84 -74q29 -36 57 -71q43 -55 43 -68q0 -17 -34.5 -47.5t-52.5 -30.5q-15 0 -66 63z
" />
    <glyph glyph-name="Otilde" unicode="&#xd5;" 
d="M868 1377q158 0 240 -100q74 -91 74 -253q0 -207 -128.5 -450t-322.5 -402q-213 -175 -424 -175q-154 0 -243 103q-84 98 -84 254q0 219 126.5 460t322.5 395q215 168 439 168zM819 1257q-56 0 -129 -64q-136 -120 -241 -374q-102 -247 -102 -436q0 -71 25 -121
q31 -65 95 -65q156 0 303 297q156 314 156 589q0 174 -107 174zM838 1589q-18 0 -59 -28.5t-63 -28.5q-23 0 -40 18.5t-17 41.5q0 53 58.5 110.5t111.5 57.5q28 0 71 -29.5t56 -29.5q14 0 57.5 27.5t67.5 27.5q23 0 40.5 -17t17.5 -39q0 -48 -56.5 -109t-103.5 -61
q-23 0 -74 29.5t-67 29.5z" />
    <glyph glyph-name="Odieresis" unicode="&#xd6;" 
d="M868 1377q158 0 240 -100q74 -91 74 -253q0 -207 -128.5 -450t-322.5 -402q-213 -175 -424 -175q-154 0 -243 103q-84 98 -84 254q0 219 126.5 460t322.5 395q215 168 439 168zM819 1257q-56 0 -129 -64q-136 -120 -241 -374q-102 -247 -102 -436q0 -71 25 -121
q31 -65 95 -65q156 0 303 297q156 314 156 589q0 174 -107 174zM1144 1792q35 0 56.5 -26t21.5 -61q0 -69 -44 -129q-48 -66 -114 -66q-72 0 -72 94q0 67 42 125q45 63 110 63zM901 1795q77 0 77 -93q0 -68 -44 -129q-49 -66 -115 -66q-34 0 -55 30q-19 26 -19 62
q0 68 43 129q48 67 113 67z" />
    <glyph glyph-name="multiply" unicode="&#xd7;" 
d="M605 886q347 300 358 300q17 0 56 -41t39 -58q0 -25 -107 -117l-238 -205q271 -303 271 -317q0 -17 -43 -59t-61 -42t-292 310l-264 -228q-88 -76 -108 -76q-17 0 -53 42.5t-36 61.5t95 100l258 221q-278 313 -278 325q0 10 49.5 55.5t60.5 45.5t293 -318z" />
    <glyph glyph-name="Oslash" unicode="&#xd8;" horiz-adv-x="1162" 
d="M1175 1138q14 -43 14 -96q0 -211 -128 -458t-322 -408q-213 -177 -427 -177q-164 0 -259 128q-26 -27 -103 -131q-34 -45 -66 -45t-57 31.5t-25 64.5q0 64 192 239q-6 64 -6 93q0 107 43 243q148 469 554 687q134 72 282 72t243 -97q46 54 69 94q44 75 79 75
q33 0 61 -29.5t28 -62.5q0 -70 -172 -223zM931 1105q-11 157 -103 157q-128 0 -275 -245q-122 -203 -157 -365q177 153 535 453zM912 906q-230 -177 -560 -474q-1 -28 -1 -39q0 -195 125 -195q157 0 304 305q100 206 132 403z" />
    <glyph glyph-name="Ugrave" unicode="&#xd9;" horiz-adv-x="1152" 
d="M254 1334q14 0 41 -2.5t41 -2.5q105 0 193 30q44 15 64 15q58 0 58 -93q0 -135 -232 -744q-78 -205 -78 -265q0 -54 38 -86t93 -32q205 0 358 354q136 314 136 554q0 87 -39 131q-18 21 -71 48q-39 20 -39 47q0 25 18 36q11 7 71 9q84 2 168 28q43 13 59 13q67 0 67 -144
q0 -288 -238 -750q-137 -265 -296 -383q-139 -103 -313 -103q-144 0 -242 70q-111 79 -111 218q0 97 87 334q38 105 119 320q73 194 73 246q0 31 -41.5 56.5t-41.5 47.5q0 48 58 48zM680 1793q17 0 38 -17q87 -74 146 -164q12 -20 12 -39q0 -25 -26 -51t-51 -26
q-17 0 -33 10q-20 13 -88 71t-82 76q-17 20 -17 41q0 29 36 64t65 35z" />
    <glyph glyph-name="Uacute" unicode="&#xda;" horiz-adv-x="1152" 
d="M254 1334q14 0 41 -2.5t41 -2.5q105 0 193 30q44 15 64 15q58 0 58 -93q0 -135 -232 -744q-78 -205 -78 -265q0 -54 38 -86t93 -32q205 0 358 354q136 314 136 554q0 87 -39 131q-18 21 -71 48q-39 20 -39 47q0 25 18 36q11 7 71 9q84 2 168 28q43 13 59 13q67 0 67 -144
q0 -288 -238 -750q-137 -265 -296 -383q-139 -103 -313 -103q-144 0 -242 70q-111 79 -111 218q0 97 87 334q38 105 119 320q73 194 73 246q0 31 -41.5 56.5t-41.5 47.5q0 48 58 48zM909 1793q32 0 66.5 -34.5t34.5 -66.5q0 -20 -16.5 -40t-82 -76t-88.5 -70
q-16 -10 -33 -10q-25 0 -51 26t-26 51q0 20 12 38q61 92 146 165q21 17 38 17z" />
    <glyph glyph-name="Ucircumflex" unicode="&#xdb;" horiz-adv-x="1152" 
d="M254 1334q14 0 41 -2.5t41 -2.5q105 0 193 30q44 15 64 15q58 0 58 -93q0 -135 -232 -744q-78 -205 -78 -265q0 -54 38 -86t93 -32q205 0 358 354q136 314 136 554q0 87 -39 131q-18 21 -71 48q-39 20 -39 47q0 25 18 36q11 7 71 9q84 2 168 28q43 13 59 13q67 0 67 -144
q0 -288 -238 -750q-137 -265 -296 -383q-139 -103 -313 -103q-144 0 -242 70q-111 79 -111 218q0 97 87 334q38 105 119 320q73 194 73 246q0 31 -41.5 56.5t-41.5 47.5q0 48 58 48zM818 1648q-54 -40 -107 -80q-83 -61 -108 -61q-18 0 -39.5 32.5t-21.5 52.5q0 21 39 43
q117 68 188 116q63 43 82 43q29 0 84 -74q29 -36 57 -71q43 -55 43 -68q0 -17 -34.5 -47.5t-52.5 -30.5q-15 0 -66 63z" />
    <glyph glyph-name="Udieresis" unicode="&#xdc;" horiz-adv-x="1152" 
d="M254 1334q14 0 41 -2.5t41 -2.5q105 0 193 30q44 15 64 15q58 0 58 -93q0 -135 -232 -744q-78 -205 -78 -265q0 -54 38 -86t93 -32q205 0 358 354q136 314 136 554q0 87 -39 131q-18 21 -71 48q-39 20 -39 47q0 25 18 36q11 7 71 9q84 2 168 28q43 13 59 13q67 0 67 -144
q0 -288 -238 -750q-137 -265 -296 -383q-139 -103 -313 -103q-144 0 -242 70q-111 79 -111 218q0 97 87 334q38 105 119 320q73 194 73 246q0 31 -41.5 56.5t-41.5 47.5q0 48 58 48zM969 1792q35 0 56.5 -26t21.5 -61q0 -69 -44 -129q-48 -66 -114 -66q-72 0 -72 94
q0 67 42 125q45 63 110 63zM726 1795q77 0 77 -93q0 -68 -44 -129q-49 -66 -115 -66q-34 0 -55 30q-19 26 -19 62q0 68 43 129q48 67 113 67z" />
    <glyph glyph-name="Yacute" unicode="&#xdd;" horiz-adv-x="1071" 
d="M479 503q-107 -35 -156 -35q-89 0 -146 49q-61 51 -61 139q0 80 71 277q76 210 76 253q0 31 -46 54t-46 52q0 44 50 44q16 0 48 -2.5t48 -2.5q115 0 208 32q38 13 53 13q56 0 56 -88q0 -93 -48 -243q-28 -90 -89 -266q-14 -36 -14 -60q0 -44 54 -44q130 0 265 199
q110 163 110 297q0 34 -10 46q-8 8 -57 22q-38 11 -38 43q0 42 47 50h79q110 0 203 32q32 11 46 11q46 0 46 -56q0 -137 -469 -674q-127 -146 -205 -267q-79 -124 -79 -175q0 -29 49.5 -45.5t49.5 -50.5q0 -29 -33 -45q-8 -4 -113 -17q-30 -4 -116 -30q-79 -25 -95 -25
q-50 0 -50 58q0 79 125 238q93 108 187 217zM863 1793q32 0 66.5 -34.5t34.5 -66.5q0 -20 -16.5 -40t-82 -76t-88.5 -70q-16 -10 -33 -10q-25 0 -51 26t-26 51q0 20 12 38q61 92 146 165q21 17 38 17z" />
    <glyph glyph-name="Thorn" unicode="&#xde;" horiz-adv-x="1094" 
d="M374 381q-35 -112 -35 -155q0 -35 42.5 -61.5t42.5 -46.5q0 -45 -74 -52q-184 -18 -273 -52q-37 -14 -55 -14q-63 0 -63 100q0 167 214 723q118 307 118 355q0 28 -46.5 41.5t-46.5 52.5q0 67 142 76q113 7 177 21q18 4 28 4q53 0 53 -107q0 -27 -7 -82q105 8 159 8
q157 0 253 -65q112 -76 112 -226q0 -139 -90 -270q-85 -125 -230 -195q-140 -69 -295 -69q-64 0 -126 14zM588 1066q-15 -127 -74 -297q-53 -145 -106 -289q35 -11 62 -11q59 0 105 39q68 58 127 215q56 149 56 250q0 108 -93 108q-35 0 -77 -15z" />
    <glyph glyph-name="germandbls" unicode="&#xdf;" horiz-adv-x="1123" 
d="M844 970q101 -8 162.5 -71t61.5 -164q0 -161 -105 -345q-97 -169 -234.5 -279.5t-252.5 -110.5q-64 0 -111 41.5t-47 105.5q0 48 29.5 82t76.5 34q90 0 90 -88q0 -8 -4.5 -21.5t-4.5 -20.5q0 -10 8 -10t39 31q89 89 146 231q55 139 55 268q0 73 -30 125q-37 62 -105 62
q-22 0 -61.5 -16t-59.5 -16q-6 0 -22 5q-25 -95 -87 -272q-34 -90 -89 -271q-6 -27 -23 -202q-3 -32 -27 -47q-18 -11 -104 -25q-61 -10 -97 -25q-66 -28 -90 -28q-54 0 -54 78q0 99 68 294l104 294q2 6 73.5 274t222.5 384q144 111 343 111q104 0 172 -41q82 -50 82 -148
q0 -116 -125 -219zM488 928q14 5 77 33t107.5 96.5t44.5 138.5q0 69 -64 69q-35 0 -69 -21q-96 -60 -96 -270v-46z" />
    <glyph glyph-name="agrave" unicode="&#xe0;" horiz-adv-x="1055" 
d="M709 944q16 25 37 30q8 2 49 2q55 0 146 25q25 7 40 7q48 0 48 -81q0 -98 -83 -309q-63 -155 -125 -310q-18 -52 -18 -86q0 -44 52.5 -60t52.5 -47q0 -36 -51 -46q-40 -2 -79 -4q-109 -7 -217 -50q-38 -15 -53 -15q-51 0 -51 85q0 38 7 93q-128 -114 -138 -121
q-82 -58 -171 -58q-103 0 -171 75q-66 72 -66 176q0 201 156 412q145 195 338 292q105 53 185 53q71 0 112 -63zM695 823q-31 -19 -51 -19q-51 0 -51 51q0 5 1.5 15t1.5 15q0 16 -15 16q-27 0 -81 -58q-87 -96 -168 -276q-86 -189 -86 -307q0 -62 44 -62q64 0 162 122
q66 83 120 182q90 165 123 321zM651 1495q18 0 38 -16q86 -73 147 -165q12 -20 12 -39q0 -26 -25.5 -51.5t-51.5 -25.5q-17 0 -33 10q-21 13 -88 70.5t-83 77t-16 40.5q0 29 35.5 64t64.5 35z" />
    <glyph glyph-name="aacute" unicode="&#xe1;" horiz-adv-x="1055" 
d="M709 944q16 25 37 30q8 2 49 2q55 0 146 25q25 7 40 7q48 0 48 -81q0 -98 -83 -309q-63 -155 -125 -310q-18 -52 -18 -86q0 -44 52.5 -60t52.5 -47q0 -36 -51 -46q-40 -2 -79 -4q-109 -7 -217 -50q-38 -15 -53 -15q-51 0 -51 85q0 38 7 93q-128 -114 -138 -121
q-82 -58 -171 -58q-103 0 -171 75q-66 72 -66 176q0 201 156 412q145 195 338 292q105 53 185 53q71 0 112 -63zM695 823q-31 -19 -51 -19q-51 0 -51 51q0 5 1.5 15t1.5 15q0 16 -15 16q-27 0 -81 -58q-87 -96 -168 -276q-86 -189 -86 -307q0 -62 44 -62q64 0 162 122
q66 83 120 182q90 165 123 321zM840 1495q31 0 65.5 -35t34.5 -66q0 -19 -17.5 -40.5t-81 -75.5t-88.5 -70q-16 -10 -32 -10q-26 0 -52 25.5t-26 51.5q0 20 12 38q65 99 147 166q20 16 38 16z" />
    <glyph glyph-name="acircumflex" unicode="&#xe2;" horiz-adv-x="1055" 
d="M709 944q16 25 37 30q8 2 49 2q55 0 146 25q25 7 40 7q48 0 48 -81q0 -98 -83 -309q-63 -155 -125 -310q-18 -52 -18 -86q0 -44 52.5 -60t52.5 -47q0 -36 -51 -46q-40 -2 -79 -4q-109 -7 -217 -50q-38 -15 -53 -15q-51 0 -51 85q0 38 7 93q-128 -114 -138 -121
q-82 -58 -171 -58q-103 0 -171 75q-66 72 -66 176q0 201 156 412q145 195 338 292q105 53 185 53q71 0 112 -63zM695 823q-31 -19 -51 -19q-51 0 -51 51q0 5 1.5 15t1.5 15q0 16 -15 16q-27 0 -81 -58q-87 -96 -168 -276q-86 -189 -86 -307q0 -62 44 -62q64 0 162 122
q66 83 120 182q90 165 123 321zM732 1350q-54 -40 -107 -80q-85 -61 -108 -61q-18 0 -39.5 32.5t-21.5 52.5q0 21 39 43q95 54 188 117q62 42 82 42q29 0 84 -74q29 -35 58 -71q42 -53 42 -68q0 -17 -34.5 -47.5t-52.5 -30.5q-15 0 -66 63z" />
    <glyph glyph-name="atilde" unicode="&#xe3;" horiz-adv-x="1055" 
d="M709 944q16 25 37 30q8 2 49 2q55 0 146 25q25 7 40 7q48 0 48 -81q0 -98 -83 -309q-63 -155 -125 -310q-18 -52 -18 -86q0 -44 52.5 -60t52.5 -47q0 -36 -51 -46q-40 -2 -79 -4q-109 -7 -217 -50q-38 -15 -53 -15q-51 0 -51 85q0 38 7 93q-128 -114 -138 -121
q-82 -58 -171 -58q-103 0 -171 75q-66 72 -66 176q0 201 156 412q145 195 338 292q105 53 185 53q71 0 112 -63zM695 823q-31 -19 -51 -19q-51 0 -51 51q0 5 1.5 15t1.5 15q0 16 -15 16q-27 0 -81 -58q-87 -96 -168 -276q-86 -189 -86 -307q0 -62 44 -62q64 0 162 122
q66 83 120 182q90 165 123 321zM644 1290q-17 0 -58.5 -28t-63.5 -28q-23 0 -40 18.5t-17 41.5q0 52 58.5 109.5t111.5 57.5q28 0 71 -29.5t56 -29.5q14 0 57.5 27.5t67.5 27.5q58 0 58 -56q0 -48 -57 -109t-103 -61q-23 0 -73.5 29.5t-67.5 29.5z" />
    <glyph glyph-name="adieresis" unicode="&#xe4;" horiz-adv-x="1055" 
d="M709 944q16 25 37 30q8 2 49 2q55 0 146 25q25 7 40 7q48 0 48 -81q0 -98 -83 -309q-63 -155 -125 -310q-18 -52 -18 -86q0 -44 52.5 -60t52.5 -47q0 -36 -51 -46q-40 -2 -79 -4q-109 -7 -217 -50q-38 -15 -53 -15q-51 0 -51 85q0 38 7 93q-128 -114 -138 -121
q-82 -58 -171 -58q-103 0 -171 75q-66 72 -66 176q0 201 156 412q145 195 338 292q105 53 185 53q71 0 112 -63zM695 823q-31 -19 -51 -19q-51 0 -51 51q0 5 1.5 15t1.5 15q0 16 -15 16q-27 0 -81 -58q-87 -96 -168 -276q-86 -189 -86 -307q0 -62 44 -62q64 0 162 122
q66 83 120 182q90 165 123 321zM950 1493q35 0 56.5 -25.5t21.5 -61.5q0 -68 -44 -128q-48 -66 -114 -66q-72 0 -72 94q0 68 41 125q46 62 111 62zM708 1497q76 0 76 -93q0 -68 -44 -129q-49 -66 -115 -66q-34 0 -55 30q-19 26 -19 62q0 68 44 129q47 67 113 67z" />
    <glyph glyph-name="aring" unicode="&#xe5;" horiz-adv-x="1055" 
d="M709 944q16 25 37 30q8 2 49 2q55 0 146 25q25 7 40 7q48 0 48 -81q0 -98 -83 -309q-63 -155 -125 -310q-18 -52 -18 -86q0 -44 52.5 -60t52.5 -47q0 -36 -51 -46q-40 -2 -79 -4q-109 -7 -217 -50q-38 -15 -53 -15q-51 0 -51 85q0 38 7 93q-128 -114 -138 -121
q-82 -58 -171 -58q-103 0 -171 75q-66 72 -66 176q0 201 156 412q145 195 338 292q105 53 185 53q71 0 112 -63zM695 823q-31 -19 -51 -19q-51 0 -51 51q0 5 1.5 15t1.5 15q0 16 -15 16q-27 0 -81 -58q-87 -96 -168 -276q-86 -189 -86 -307q0 -62 44 -62q64 0 162 122
q66 83 120 182q90 165 123 321zM855 1547q62 0 99 -44t37 -107q0 -80 -65 -158q-68 -81 -146 -81q-61 0 -99 50q-34 45 -34 108q0 85 62.5 158.5t145.5 73.5zM845 1450q-40 0 -74 -48q-32 -44 -32 -86q0 -62 52 -62q40 0 73 54q30 48 30 91q0 51 -49 51z" />
    <glyph glyph-name="ae" unicode="&#xe6;" horiz-adv-x="1437" 
d="M1027 961q99 45 193 45q100 0 162 -51q68 -55 68 -153q0 -141 -124.5 -261t-265.5 -120q-105 0 -144 111q-75 -150 -75 -283q0 -86 63 -86t172 85.5t119 85.5q41 0 41 -44q0 -40 -109 -138q-176 -159 -351 -159q-239 0 -266 234q-197 -231 -356 -231q-102 0 -169 74
t-67 177q0 200 153 408q141 191 332 292q111 59 192 59q82 0 115 -64q15 25 42 30q6 1 53 1q36 0 94.5 16.5t79.5 16.5q39 0 48 -45zM965 639q15 2 26 2q52 0 52 -52q0 -9 -3.5 -25.5t-3.5 -25.5q0 -15 13 -15q15 0 47 32q45 46 89 143t44 158q0 41 -35 41q-91 0 -229 -258z
M696 820q-28 -19 -48 -19q-15 0 -34 10q-22 12 -21 25l3 52q1 10 -14 10q-30 0 -83 -59q-85 -93 -167 -276q-87 -193 -87 -306q0 -60 40 -60q108 0 261 256q106 178 150 367z" />
    <glyph glyph-name="ccedilla" unicode="&#xe7;" horiz-adv-x="793" 
d="M250 -5q-45 -62 -45 -76q0 -15 14 -15q3 0 23 8t36 8q84 0 84 -98q0 -122 -93.5 -220.5t-215.5 -98.5q-62 0 -102 48q-39 45 -39 108q0 65 55 65q34 0 54 -55t66 -55q52 0 95.5 46.5t43.5 98.5q0 56 -49 56q-13 0 -37.5 -5.5t-37.5 -5.5q-36 0 -36 35q0 37 72 156
q-97 9 -157 80t-60 170q0 242 227 495q232 260 472 260q214 0 214 -177q0 -56 -33 -94q-35 -41 -90 -41q-41 0 -70 28t-29 69q0 24 16 57.5t16 37.5q0 17 -24 17q-38 0 -93 -50q-94 -86 -184 -279q-92 -196 -92 -318q0 -88 68 -88q58 0 163.5 83.5t124.5 83.5q42 0 42 -41
q0 -54 -177 -192q-98 -76 -222 -101z" />
    <glyph glyph-name="egrave" unicode="&#xe8;" horiz-adv-x="844" 
d="M325 530q-75 -159 -75 -283q0 -86 64 -86q65 0 169.5 85.5t122.5 85.5q40 0 40 -42q0 -47 -124 -150q-178 -148 -335 -148q-123 0 -196 69t-73 191q0 242 232 495q237 257 476 257q101 0 163 -49q68 -54 68 -153q0 -141 -123.5 -261.5t-265.5 -120.5q-107 0 -143 110z
M372 637q17 4 28 4q50 0 50 -58q0 -8 -4 -23.5t-4 -23.5q0 -15 14 -15q18 0 52 38q43 48 84 139q44 96 44 155q0 43 -35 43q-53 0 -133 -105q-60 -79 -96 -154zM528 1495q18 0 38 -16q86 -73 147 -165q12 -20 12 -39q0 -26 -25.5 -51.5t-51.5 -25.5q-17 0 -33 10
q-21 13 -88 70.5t-83 77t-16 40.5q0 29 35.5 64t64.5 35z" />
    <glyph glyph-name="eacute" unicode="&#xe9;" horiz-adv-x="844" 
d="M325 530q-75 -159 -75 -283q0 -86 64 -86q65 0 169.5 85.5t122.5 85.5q40 0 40 -42q0 -47 -124 -150q-178 -148 -335 -148q-123 0 -196 69t-73 191q0 242 232 495q237 257 476 257q101 0 163 -49q68 -54 68 -153q0 -141 -123.5 -261.5t-265.5 -120.5q-107 0 -143 110z
M372 637q17 4 28 4q50 0 50 -58q0 -8 -4 -23.5t-4 -23.5q0 -15 14 -15q18 0 52 38q43 48 84 139q44 96 44 155q0 43 -35 43q-53 0 -133 -105q-60 -79 -96 -154zM759 1495q31 0 65.5 -35t34.5 -66q0 -19 -17.5 -40.5t-81 -75.5t-88.5 -70q-16 -10 -32 -10q-26 0 -52 25.5
t-26 51.5q0 20 12 38q65 99 147 166q20 16 38 16z" />
    <glyph glyph-name="ecircumflex" unicode="&#xea;" horiz-adv-x="844" 
d="M325 530q-75 -159 -75 -283q0 -86 64 -86q65 0 169.5 85.5t122.5 85.5q40 0 40 -42q0 -47 -124 -150q-178 -148 -335 -148q-123 0 -196 69t-73 191q0 242 232 495q237 257 476 257q101 0 163 -49q68 -54 68 -153q0 -141 -123.5 -261.5t-265.5 -120.5q-107 0 -143 110z
M372 637q17 4 28 4q50 0 50 -58q0 -8 -4 -23.5t-4 -23.5q0 -15 14 -15q18 0 52 38q43 48 84 139q44 96 44 155q0 43 -35 43q-53 0 -133 -105q-60 -79 -96 -154zM709 1350q-54 -40 -107 -80q-85 -61 -108 -61q-18 0 -39.5 32.5t-21.5 52.5q0 21 39 43q95 54 188 117
q62 42 82 42q29 0 84 -74q29 -35 58 -71q42 -53 42 -68q0 -17 -34.5 -47.5t-52.5 -30.5q-15 0 -66 63z" />
    <glyph glyph-name="edieresis" unicode="&#xeb;" horiz-adv-x="844" 
d="M325 530q-75 -159 -75 -283q0 -86 64 -86q65 0 169.5 85.5t122.5 85.5q40 0 40 -42q0 -47 -124 -150q-178 -148 -335 -148q-123 0 -196 69t-73 191q0 242 232 495q237 257 476 257q101 0 163 -49q68 -54 68 -153q0 -141 -123.5 -261.5t-265.5 -120.5q-107 0 -143 110z
M372 637q17 4 28 4q50 0 50 -58q0 -8 -4 -23.5t-4 -23.5q0 -15 14 -15q18 0 52 38q43 48 84 139q44 96 44 155q0 43 -35 43q-53 0 -133 -105q-60 -79 -96 -154zM841 1493q35 0 56.5 -25.5t21.5 -61.5q0 -68 -44 -128q-48 -66 -114 -66q-72 0 -72 94q0 68 41 125
q46 62 111 62zM599 1497q76 0 76 -93q0 -68 -44 -129q-49 -66 -115 -66q-34 0 -55 30q-19 26 -19 62q0 68 44 129q47 67 113 67z" />
    <glyph glyph-name="igrave" unicode="&#xec;" horiz-adv-x="560" 
d="M179 966q137 0 232 28q37 11 53 11q52 0 52 -87q0 -105 -90 -317q-108 -254 -124 -322q-13 -56 -15 -147q-1 -38 -16.5 -54t-65.5 -23q-72 -11 -176 -45q-27 -9 -43 -9q-47 0 -47 87q0 112 64 280q19 49 117 267q66 147 66 194q0 38 -54.5 52t-54.5 44q0 35 38 41
q-1 0 64 0zM300 1495q18 0 38 -16q86 -73 147 -165q12 -20 12 -39q0 -26 -25.5 -51.5t-51.5 -25.5q-17 0 -33 10q-21 13 -88 70.5t-83 77t-16 40.5q0 29 35.5 64t64.5 35z" />
    <glyph glyph-name="iacute" unicode="&#xed;" horiz-adv-x="560" 
d="M179 966q137 0 232 28q37 11 53 11q52 0 52 -87q0 -105 -90 -317q-108 -254 -124 -322q-13 -56 -15 -147q-1 -38 -16.5 -54t-65.5 -23q-72 -11 -176 -45q-27 -9 -43 -9q-47 0 -47 87q0 112 64 280q19 49 117 267q66 147 66 194q0 38 -54.5 52t-54.5 44q0 35 38 41
q-1 0 64 0zM489 1495q31 0 65.5 -35t34.5 -66q0 -19 -17.5 -40.5t-81 -75.5t-88.5 -70q-16 -10 -32 -10q-26 0 -52 25.5t-26 51.5q0 20 12 38q65 99 147 166q20 16 38 16z" />
    <glyph glyph-name="icircumflex" unicode="&#xee;" horiz-adv-x="560" 
d="M179 966q137 0 232 28q37 11 53 11q52 0 52 -87q0 -105 -90 -317q-108 -254 -124 -322q-13 -56 -15 -147q-1 -38 -16.5 -54t-65.5 -23q-72 -11 -176 -45q-27 -9 -43 -9q-47 0 -47 87q0 112 64 280q19 49 117 267q66 147 66 194q0 38 -54.5 52t-54.5 44q0 35 38 41
q-1 0 64 0zM410 1350q-54 -40 -107 -80q-85 -61 -108 -61q-18 0 -39.5 32.5t-21.5 52.5q0 21 39 43q95 54 188 117q62 42 82 42q29 0 84 -74q29 -35 58 -71q42 -53 42 -68q0 -17 -34.5 -47.5t-52.5 -30.5q-15 0 -66 63z" />
    <glyph glyph-name="idieresis" unicode="&#xef;" horiz-adv-x="560" 
d="M179 966q137 0 232 28q37 11 53 11q52 0 52 -87q0 -105 -90 -317q-108 -254 -124 -322q-13 -56 -15 -147q-1 -38 -16.5 -54t-65.5 -23q-72 -11 -176 -45q-27 -9 -43 -9q-47 0 -47 87q0 112 64 280q19 49 117 267q66 147 66 194q0 38 -54.5 52t-54.5 44q0 35 38 41
q-1 0 64 0zM556 1493q35 0 56.5 -25.5t21.5 -61.5q0 -68 -44 -128q-48 -66 -114 -66q-72 0 -72 94q0 68 41 125q46 62 111 62zM314 1497q76 0 76 -93q0 -69 -44 -129q-48 -66 -115 -66q-34 0 -55 30q-19 26 -19 62q0 68 44 129q48 67 113 67z" />
    <glyph glyph-name="eth" unicode="&#xf0;" horiz-adv-x="912" 
d="M640 915q16 97 17 222q-99 -25 -125 -25q-41 0 -41 75q0 17 8 23q58 10 154 37q-6 102 -17 132q6 23 39 23q21 0 83 -132q21 1 72 13q48 11 65 11q37 0 37 -70q0 -23 -11 -31q-5 -5 -123 -29q57 -193 57 -385q0 -254 -168 -478q-97 -129 -223 -212q-146 -96 -287 -96
q-118 0 -191 64q-76 67 -76 183q0 190 182 397q172 195 363 255q73 23 185 23zM574 807q-96 0 -221 -233q-108 -201 -108 -326q0 -84 67 -84q44 0 105 62q76 78 145 233q71 160 71 264q0 84 -59 84z" />
    <glyph glyph-name="ntilde" unicode="&#xf1;" horiz-adv-x="1096" 
d="M503 826q88 89 147 126q86 55 183 55q88 0 141.5 -56.5t53.5 -145.5t-85 -291q-96 -228 -96 -295q0 -44 49.5 -57.5t49.5 -44.5t-35 -44q-10 -4 -96.5 -7t-220.5 -54q-32 -12 -53 -12q-48 0 -48 85q0 118 140 456q84 203 84 231q0 40 -33 40q-42 0 -123 -83
q-173 -178 -243 -407q-26 -82 -29 -206q-1 -36 -14 -45.5t-86 -20.5q-23 -3 -76 -17q-131 -35 -126 -35q-49 0 -49 88q0 152 211 615q41 90 41 124q0 42 -56 54.5t-56 42.5q0 46 58 46q12 0 44 -1h43q95 0 191 27q32 9 50 9q53 0 53 -78q0 -40 -14 -99zM664 1290
q-17 0 -58.5 -28t-63.5 -28q-23 0 -40 18.5t-17 41.5q0 52 58.5 109.5t111.5 57.5q28 0 71 -29.5t56 -29.5q14 0 57.5 27.5t67.5 27.5q58 0 58 -56q0 -48 -57 -109t-103 -61q-23 0 -73.5 29.5t-67.5 29.5z" />
    <glyph glyph-name="ograve" unicode="&#xf2;" horiz-adv-x="906" 
d="M632 1002q233 0 233 -236q0 -243 -220 -503q-228 -270 -467 -270q-119 0 -189.5 70.5t-70.5 189.5q0 244 234 495q238 254 480 254zM597 893q-80 0 -191 -197q-82 -147 -122 -273q-34 -107 -34 -171q0 -88 63 -88q44 0 107 68q83 91 159 272q77 185 77 303q0 86 -59 86z
M590 1495q18 0 38 -16q86 -73 147 -165q12 -20 12 -39q0 -26 -25.5 -51.5t-51.5 -25.5q-17 0 -33 10q-21 13 -88 70.5t-83 77t-16 40.5q0 29 35.5 64t64.5 35z" />
    <glyph glyph-name="oacute" unicode="&#xf3;" horiz-adv-x="906" 
d="M632 1002q233 0 233 -236q0 -243 -220 -503q-228 -270 -467 -270q-119 0 -189.5 70.5t-70.5 189.5q0 244 234 495q238 254 480 254zM597 893q-80 0 -191 -197q-82 -147 -122 -273q-34 -107 -34 -171q0 -88 63 -88q44 0 107 68q83 91 159 272q77 185 77 303q0 86 -59 86z
M764 1495q31 0 65.5 -35t34.5 -66q0 -19 -17.5 -40.5t-81 -75.5t-88.5 -70q-16 -10 -32 -10q-26 0 -52 25.5t-26 51.5q0 20 12 38q65 99 147 166q20 16 38 16z" />
    <glyph glyph-name="ocircumflex" unicode="&#xf4;" horiz-adv-x="906" 
d="M632 1002q233 0 233 -236q0 -243 -220 -503q-228 -270 -467 -270q-119 0 -189.5 70.5t-70.5 189.5q0 244 234 495q238 254 480 254zM597 893q-80 0 -191 -197q-82 -147 -122 -273q-34 -107 -34 -171q0 -88 63 -88q44 0 107 68q83 91 159 272q77 185 77 303q0 86 -59 86z
M714 1350q-54 -40 -107 -80q-85 -61 -108 -61q-18 0 -39.5 32.5t-21.5 52.5q0 21 39 43q95 54 188 117q62 42 82 42q29 0 84 -74q29 -35 58 -71q42 -53 42 -68q0 -17 -34.5 -47.5t-52.5 -30.5q-15 0 -66 63z" />
    <glyph glyph-name="otilde" unicode="&#xf5;" horiz-adv-x="906" 
d="M632 1002q233 0 233 -236q0 -243 -220 -503q-228 -270 -467 -270q-119 0 -189.5 70.5t-70.5 189.5q0 244 234 495q238 254 480 254zM597 893q-80 0 -191 -197q-82 -147 -122 -273q-34 -107 -34 -171q0 -88 63 -88q44 0 107 68q83 91 159 272q77 185 77 303q0 86 -59 86z
M611 1290q-17 0 -58.5 -28t-63.5 -28q-23 0 -40 18.5t-17 41.5q0 52 58.5 109.5t111.5 57.5q28 0 71 -29.5t56 -29.5q14 0 57.5 27.5t67.5 27.5q58 0 58 -56q0 -48 -57 -109t-103 -61q-23 0 -73.5 29.5t-67.5 29.5z" />
    <glyph glyph-name="odieresis" unicode="&#xf6;" horiz-adv-x="906" 
d="M632 1002q233 0 233 -236q0 -243 -220 -503q-228 -270 -467 -270q-119 0 -189.5 70.5t-70.5 189.5q0 244 234 495q238 254 480 254zM597 893q-80 0 -191 -197q-82 -147 -122 -273q-34 -107 -34 -171q0 -88 63 -88q44 0 107 68q83 91 159 272q77 185 77 303q0 86 -59 86z
M867 1493q35 0 56.5 -25.5t21.5 -61.5q0 -68 -44 -128q-48 -66 -114 -66q-72 0 -72 94q0 68 41 125q46 62 111 62zM625 1497q76 0 76 -93q0 -68 -44 -129q-49 -66 -115 -66q-34 0 -55 30q-19 26 -19 62q0 68 44 129q47 67 113 67z" />
    <glyph glyph-name="divide" unicode="&#xf7;" 
d="M217 648q-13 0 -39 1h-39q-49 0 -49 32q0 38 33 110q9 20 24 25q12 3 86 3l804 1q59 0 59 -31q0 -13 -10 -56q-15 -66 -32 -77q-12 -8 -82 -8h-755zM562 526q43 0 72 -29t29 -72q0 -66 -82 -118q-73 -47 -144 -47q-45 0 -76.5 29t-31.5 73q0 73 83 122q71 42 150 42z
M760 1205q44 0 72.5 -28.5t28.5 -72.5q0 -66 -82 -118q-74 -47 -145 -47q-44 0 -75.5 29t-31.5 73q0 73 83 122q71 42 150 42z" />
    <glyph glyph-name="oslash" unicode="&#xf8;" horiz-adv-x="989" 
d="M913 800q1 -26 1 -38q0 -120 -71 -267q-62 -126 -154 -234q-227 -264 -465 -264q-132 0 -209 101q-28 -26 -45 -49q-48 -66 -72 -66q-23 0 -47.5 24.5t-24.5 47.5q0 35 58 89q42 39 85 78q-3 35 -3 51q0 135 113 314q107 169 254 282q175 135 347 135q115 0 188 -76
q36 42 86 93q11 7 27 7q26 0 45.5 -24t19.5 -51q0 -33 -54 -86q-40 -33 -79 -67zM701 773q4 26 4 40q0 82 -57 82q-108 0 -284 -383q112 87 337 261zM654 590q-28 -24 -167 -125q-59 -44 -178 -128q-11 -41 -11 -78q0 -92 62 -92q85 0 183 172q67 117 111 251z" />
    <glyph glyph-name="ugrave" unicode="&#xf9;" horiz-adv-x="1058" 
d="M461 169q-88 -85 -145 -120q-86 -53 -178 -53q-83 0 -138 57.5t-55 140.5q0 84 78 261q60 132 120 263q30 77 30 110q0 41 -54.5 50t-54.5 45q0 32 41 39q10 2 66 2q142 0 220 26q38 13 61 13q53 0 53 -85q0 -87 -78 -282q-7 -19 -119 -274q-47 -107 -47 -136
q0 -30 30 -30q47 0 121 74q149 150 247 415q41 110 41 176q0 72 19 89q15 13 91 22q91 10 103 14q44 13 62 13q56 0 56 -87q0 -92 -80 -289q-61 -146 -122 -293q-27 -78 -27 -121q0 -40 52 -55t52 -50q0 -29 -37 -40q-6 -2 -88 -8q-100 -8 -226 -52q-26 -9 -44 -9
q-58 0 -58 90q0 23 8 84zM527 1495q18 0 38 -16q86 -73 147 -165q12 -20 12 -39q0 -26 -25.5 -51.5t-51.5 -25.5q-17 0 -33 10q-21 13 -88 70.5t-83 77t-16 40.5q0 29 35.5 64t64.5 35z" />
    <glyph glyph-name="uacute" unicode="&#xfa;" horiz-adv-x="1058" 
d="M461 169q-88 -85 -145 -120q-86 -53 -178 -53q-83 0 -138 57.5t-55 140.5q0 84 78 261q60 132 120 263q30 77 30 110q0 41 -54.5 50t-54.5 45q0 32 41 39q10 2 66 2q142 0 220 26q38 13 61 13q53 0 53 -85q0 -87 -78 -282q-7 -19 -119 -274q-47 -107 -47 -136
q0 -30 30 -30q47 0 121 74q149 150 247 415q41 110 41 176q0 72 19 89q15 13 91 22q91 10 103 14q44 13 62 13q56 0 56 -87q0 -92 -80 -289q-61 -146 -122 -293q-27 -78 -27 -121q0 -40 52 -55t52 -50q0 -29 -37 -40q-6 -2 -88 -8q-100 -8 -226 -52q-26 -9 -44 -9
q-58 0 -58 90q0 23 8 84zM772 1495q31 0 65.5 -35t34.5 -66q0 -19 -17.5 -40.5t-81 -75.5t-88.5 -70q-16 -10 -32 -10q-26 0 -52 25.5t-26 51.5q0 20 12 38q65 99 147 166q20 16 38 16z" />
    <glyph glyph-name="ucircumflex" unicode="&#xfb;" horiz-adv-x="1058" 
d="M461 169q-88 -85 -145 -120q-86 -53 -178 -53q-83 0 -138 57.5t-55 140.5q0 84 78 261q60 132 120 263q30 77 30 110q0 41 -54.5 50t-54.5 45q0 32 41 39q10 2 66 2q142 0 220 26q38 13 61 13q53 0 53 -85q0 -87 -78 -282q-7 -19 -119 -274q-47 -107 -47 -136
q0 -30 30 -30q47 0 121 74q149 150 247 415q41 110 41 176q0 72 19 89q15 13 91 22q91 10 103 14q44 13 62 13q56 0 56 -87q0 -92 -80 -289q-61 -146 -122 -293q-27 -78 -27 -121q0 -40 52 -55t52 -50q0 -29 -37 -40q-6 -2 -88 -8q-100 -8 -226 -52q-26 -9 -44 -9
q-58 0 -58 90q0 23 8 84zM694 1350q-54 -40 -107 -80q-85 -61 -108 -61q-18 0 -39.5 32.5t-21.5 52.5q0 21 39 43q95 54 188 117q62 42 82 42q29 0 84 -74q29 -35 58 -71q42 -53 42 -68q0 -17 -34.5 -47.5t-52.5 -30.5q-15 0 -66 63z" />
    <glyph glyph-name="udieresis" unicode="&#xfc;" horiz-adv-x="1058" 
d="M461 169q-88 -85 -145 -120q-86 -53 -178 -53q-83 0 -138 57.5t-55 140.5q0 84 78 261q60 132 120 263q30 77 30 110q0 41 -54.5 50t-54.5 45q0 32 41 39q10 2 66 2q142 0 220 26q38 13 61 13q53 0 53 -85q0 -87 -78 -282q-7 -19 -119 -274q-47 -107 -47 -136
q0 -30 30 -30q47 0 121 74q149 150 247 415q41 110 41 176q0 72 19 89q15 13 91 22q91 10 103 14q44 13 62 13q56 0 56 -87q0 -92 -80 -289q-61 -146 -122 -293q-27 -78 -27 -121q0 -40 52 -55t52 -50q0 -29 -37 -40q-6 -2 -88 -8q-100 -8 -226 -52q-26 -9 -44 -9
q-58 0 -58 90q0 23 8 84zM876 1493q35 0 56.5 -25.5t21.5 -61.5q0 -68 -44 -128q-48 -66 -114 -66q-72 0 -72 94q0 68 41 125q46 62 111 62zM634 1497q76 0 76 -93q0 -68 -44 -129q-49 -66 -115 -66q-34 0 -55 30q-19 26 -19 62q0 68 44 129q47 67 113 67z" />
    <glyph glyph-name="yacute" unicode="&#xfd;" horiz-adv-x="941" 
d="M440 296q259 342 259 509q0 60 -59 72t-59 43q0 35 34 43q5 1 71 2q75 1 162 30q30 10 46 10q54 0 54 -77q0 -108 -89 -247q-21 -32 -162 -216q-354 -461 -354 -621q0 -52 59 -70t59 -46q0 -39 -57 -44q-85 -7 -178 -41q-63 -23 -78 -23q-52 0 -52 76t44 162q6 12 88 144
q-22 -7 -37 -7q-49 0 -60 85q-17 136 -17 254q0 76 5.5 227t5.5 227q0 48 -11 65q-9 13 -63 28q-44 12 -44 43q0 28 38 39q11 3 99 4q99 1 203 28q31 8 50 8q56 0 56 -109q0 -36 -6 -122q-18 -257 -18 -362q0 -52 11 -114zM677 1495q31 0 65.5 -35t34.5 -66
q0 -19 -17.5 -40.5t-81 -75.5t-88.5 -70q-16 -10 -32 -10q-26 0 -52 25.5t-26 51.5q0 20 12 38q65 99 147 166q20 16 38 16z" />
    <glyph glyph-name="thorn" unicode="&#xfe;" horiz-adv-x="1092" 
d="M494 820q155 183 317 183q107 0 173 -77q61 -72 61 -181q0 -188 -140 -384q-124 -173 -301 -284q-134 -84 -230 -84q-85 0 -131 73q-41 -131 -41 -255q0 -11 1.5 -34t1.5 -34q0 -31 -14.5 -44.5t-58.5 -20.5q-47 -7 -93 -19q-6 -1 -70 -22q-51 -17 -64 -17q-55 0 -55 87
q0 164 89 454q39 126 120 378q29 86 132 359q92 243 92 281q0 50 -57 67.5t-57 44.5q0 39 57 45q-3 0 85 0t209 31q27 7 41 7q59 0 59 -93q0 -95 -126 -461zM280 196q37 4 34 4q56 0 56 -55q0 -5 -2.5 -14.5t-2.5 -13.5q0 -15 14 -15q18 0 58 36q98 89 189 282
q93 198 93 327q0 54 -41 54q-49 0 -118 -69q-58 -58 -103 -129q-117 -186 -177 -407z" />
    <glyph glyph-name="ydieresis" unicode="&#xff;" horiz-adv-x="941" 
d="M440 296q259 342 259 509q0 60 -59 72t-59 43q0 35 34 43q5 1 71 2q75 1 162 30q30 10 46 10q54 0 54 -77q0 -108 -89 -247q-21 -32 -162 -216q-354 -461 -354 -621q0 -52 59 -70t59 -46q0 -39 -57 -44q-85 -7 -178 -41q-63 -23 -78 -23q-52 0 -52 76t44 162q6 12 88 144
q-22 -7 -37 -7q-49 0 -60 85q-17 136 -17 254q0 76 5.5 227t5.5 227q0 48 -11 65q-9 13 -63 28q-44 12 -44 43q0 28 38 39q11 3 99 4q99 1 203 28q31 8 50 8q56 0 56 -109q0 -36 -6 -122q-18 -257 -18 -362q0 -52 11 -114zM745 1493q35 0 56.5 -25.5t21.5 -61.5
q0 -68 -44 -128q-48 -66 -114 -66q-72 0 -72 94q0 68 41 125q46 62 111 62zM503 1497q76 0 76 -93q0 -68 -44 -129q-49 -66 -115 -66q-34 0 -55 30q-19 26 -19 62q0 68 44 129q47 67 113 67z" />
    <glyph glyph-name="glyph303" unicode="&#x102;" horiz-adv-x="1141" 
d="M599 565q-82 9 -186 9q-106 0 -188 -9q-78 -190 -78 -293q0 -64 35 -93q11 -9 65 -33q35 -15 35 -43q0 -32 -40 -45q-7 -2 -94 -12q-97 -11 -176 -42q-35 -14 -52 -14q-57 0 -57 81q0 89 57 245q126 345 392 632q291 314 615 400q113 30 167 30q88 0 88 -96
q0 -106 -78 -337q-16 -46 -123 -331q-121 -322 -121 -397q0 -41 42.5 -63.5t42.5 -43.5q0 -31 -39 -46q-7 -2 -84 -8q-114 -8 -213 -47q-49 -19 -66 -19q-61 0 -61 99q0 95 41 241q3 8 76 235zM643 682q170 432 170 480q0 24 -23 24q-8 0 -80 -38q-54 -29 -148 -116
q-89 -83 -130 -136.5t-116 -161.5q-13 -15 -32 -46q0 -10 42 -12q77 -3 184 -3q14 0 133 9zM900 1779q23 0 77 -50.5t87 -50.5q37 0 100.5 49.5t84.5 49.5q26 0 47 -19.5t21 -45.5q0 -49 -78.5 -122t-175.5 -73q-78 0 -150 65q-75 66 -75 143q0 54 62 54z" />
    <glyph glyph-name="glyph304" unicode="&#x103;" horiz-adv-x="1055" 
d="M709 944q16 25 37 30q8 2 49 2q55 0 146 25q25 7 40 7q48 0 48 -81q0 -98 -83 -309q-63 -155 -125 -310q-18 -52 -18 -86q0 -44 52.5 -60t52.5 -47q0 -36 -51 -46q-40 -2 -79 -4q-109 -7 -217 -50q-38 -15 -53 -15q-51 0 -51 85q0 38 7 93q-128 -114 -138 -121
q-82 -58 -171 -58q-103 0 -171 75q-66 72 -66 176q0 201 156 412q145 195 338 292q105 53 185 53q71 0 112 -63zM695 823q-31 -19 -51 -19q-51 0 -51 51q0 5 1.5 15t1.5 15q0 16 -15 16q-27 0 -81 -58q-87 -96 -168 -276q-86 -189 -86 -307q0 -62 44 -62q64 0 162 122
q66 83 120 182q90 165 123 321zM551 1489q23 0 77 -50.5t87 -50.5q37 0 100.5 49.5t84.5 49.5q26 0 47 -19.5t21 -45.5q0 -49 -78.5 -122t-175.5 -73q-78 0 -150 65q-75 66 -75 143q0 54 62 54z" />
    <glyph glyph-name="Dslash" unicode="&#x110;" horiz-adv-x="1251" 
d="M184 793q126 310 126 381q0 24 -46.5 42.5t-46.5 48.5q0 34 32 49q19 9 282 43q172 22 281 22q198 0 320 -111q126 -116 126 -312q0 -253 -175 -502q-166 -236 -404 -354q-104 -52 -215 -63q-46 -5 -225 -5q-74 0 -135 -22q-42 -15 -58 -15q-60 0 -60 103q0 115 56 293
q13 41 101 284q-56 -5 -84 -5q-63 0 -63 52q0 50 74 63zM679 1251q-20 -158 -132 -458q94 0 106 -2q70 -10 70 -59q0 -37 -37 -49q-21 -7 -158 -5q-3 0 -22 -1q-151 -389 -151 -485q0 -54 50 -54q63 0 148 87q131 134 237 394.5t106 447.5q0 197 -155 197q-35 0 -62 -13z
" />
    <glyph glyph-name="dcroat" unicode="&#x111;" horiz-adv-x="1074" 
d="M1093 1054q-7 -26 -156 -433q-102 -281 -102 -435q0 -12 2 -37t2 -37q0 -22 -14 -34t-51 -20q-63 -11 -184 -44q-43 -17 -62 -17q-45 0 -45 107q0 37 5 98q-132 -126 -149 -138q-88 -66 -188 -66q-110 0 -173 73q-60 69 -60 180q0 188 146 393q134 188 311 287
q132 74 221 74q90 0 125 -93q31 69 53 142q-44 0 -87 1q-70 4 -70 28q0 6 10 31q16 44 35 51q4 1 66 1q12 0 36 1h36q7 22 7 34q0 38 -54.5 52.5t-54.5 45.5q0 40 62 40q167 0 260 23q52 13 61 13q60 0 60 -107q0 -42 -16 -98q98 0 107 -8.5t9 -32.5q0 -62 -47 -73
q-7 -2 -101 -2zM676 802q-16 -2 -28 -2q-56 0 -56 48q0 6 2 19t2 19q0 9 -11 9q-32 0 -89 -64q-85 -96 -167 -270q-87 -188 -87 -300q0 -65 45 -65q48 0 122 75q145 148 267 531z" />
    <glyph glyph-name="glyph305" unicode="&#x128;" horiz-adv-x="621" 
d="M262 1339q20 0 60 -2.5t61 -2.5q68 0 172 33q35 11 50 11q57 0 57 -94q0 -138 -172 -589q-153 -401 -153 -474q0 -39 42.5 -59.5t42.5 -48.5q0 -31 -37 -44q-8 -3 -84 -10q-128 -12 -217 -46q-42 -16 -65 -16q-61 0 -61 91q0 163 121 489l184 490q29 94 29 120
q0 30 -41.5 52t-41.5 49q0 51 53 51zM516 1589q-18 0 -59 -28.5t-63 -28.5q-23 0 -40 18.5t-17 41.5q0 53 58.5 110.5t111.5 57.5q28 0 71 -29.5t56 -29.5q14 0 57.5 27.5t67.5 27.5q23 0 40.5 -17t17.5 -39q0 -48 -56.5 -109t-103.5 -61q-23 0 -74 29.5t-67 29.5z" />
    <glyph glyph-name="glyph306" unicode="&#x129;" horiz-adv-x="558" 
d="M179 966q137 0 232 28q37 11 53 11q52 0 52 -87q0 -105 -90 -317q-108 -254 -124 -322q-13 -56 -15 -147q-1 -38 -16.5 -54t-65.5 -23q-72 -11 -176 -45q-27 -9 -43 -9q-47 0 -47 87q0 112 64 280q19 49 117 267q66 147 66 194q0 38 -54.5 52t-54.5 44q0 35 38 41
q-1 0 64 0zM325 1290q-17 0 -58.5 -28t-63.5 -28q-23 0 -40 18.5t-17 41.5q0 52 58.5 109.5t111.5 57.5q28 0 71 -29.5t56 -29.5q14 0 57.5 27.5t67.5 27.5q58 0 58 -56q0 -48 -57 -109t-103 -61q-23 0 -73.5 29.5t-67.5 29.5z" />
    <glyph glyph-name="dotlessi" unicode="&#x131;" horiz-adv-x="558" 
d="M179 966q137 0 232 28q37 11 53 11q52 0 52 -87q0 -105 -90 -317q-108 -254 -124 -322q-13 -56 -15 -147q-1 -38 -16.5 -54t-65.5 -23q-72 -11 -176 -45q-27 -9 -43 -9q-47 0 -47 87q0 112 64 280q19 49 117 267q66 147 66 194q0 38 -54.5 52t-54.5 44q0 35 38 41
q-1 0 64 0z" />
    <glyph glyph-name="Lslash" unicode="&#x141;" horiz-adv-x="990" 
d="M606 1010q163 115 182 115q54 0 54 -76q0 -29 -75 -85l-240 -180q-57 -127 -119 -297q-82 -226 -82 -296q0 -58 63 -58q209 0 410 307q26 40 55 40q19 0 36.5 -14.5t17.5 -33.5q0 -16 -15 -50q-58 -131 -118 -319q-21 -66 -72 -66q-20 0 -64 10q-105 24 -254 24
q-174 0 -297 -24q-46 -9 -71 -9q-66 0 -66 92q0 70 27 187q26 112 57 181q-76 -43 -81 -43q-48 0 -48 68q0 41 74 101l141 114q174 407 174 490q0 30 -42.5 53t-42.5 48q0 16 15 34t31 17l137 -7q52 -3 170 34q35 11 55 11q52 0 52 -84q0 -107 -64 -284z" />
    <glyph glyph-name="lslash" unicode="&#x142;" horiz-adv-x="649" 
d="M636 1055q136 106 152 106q20 0 33 -30q10 -24 10 -47q0 -29 -65 -78l-199 -149q-62 -161 -123 -321q-75 -213 -75 -327q0 -16 1.5 -46.5t1.5 -46.5q0 -34 -12.5 -46t-59.5 -19q-83 -13 -205 -53q-18 -6 -28 -6q-53 0 -53 107q0 87 38 226q35 112 69 224
q-40 -26 -117 -81q-31 -24 -48 -24q-36 0 -36 53q0 51 114 139l165 128q144 348 144 427q0 45 -53.5 56t-53.5 41q0 50 54 50q13 0 39 -1t39 -1q85 0 226 34q21 5 32 5q57 0 57 -98q0 -76 -47 -222z" />
    <glyph glyph-name="OE" unicode="&#x152;" horiz-adv-x="1754" 
d="M1367 1252q-10 -141 -131 -456q38 2 130 15q83 12 132 12q95 0 95 -80q0 -101 -59 -101q-14 0 -40.5 26.5t-71.5 26.5q-93 0 -232 -19q-42 -101 -92 -245q-63 -185 -63 -237q0 -60 73 -60q42 0 104 26q110 44 179 117q44 47 123 172q19 31 47 31q56 0 56 -54
q0 -25 -29 -82q-32 -63 -73 -193q-16 -51 -44 -120q-25 -35 -58 -35q-15 0 -55 9q-106 24 -252 24q-202 0 -325 -26q-33 -7 -52 -7q-67 0 -67 130q-151 -132 -362 -132q-153 0 -240 109q-80 100 -80 257q0 267 176 545q175 274 418 399q146 75 275 75q100 0 181 -41
q146 1 307 20q203 24 289 24q204 0 204 -78q0 -17 -34 -111q-36 -99 -63 -221q-15 -67 -60 -67q-52 0 -52 62q0 11 6 43q9 48 9 93q0 88 -31.5 122t-118.5 34q-68 0 -119 -7zM819 1259q-119 0 -255 -218q-96 -155 -156 -331q-63 -183 -63 -318q0 -196 126 -196
q158 0 309 319q142 301 142 565q0 179 -103 179z" />
    <glyph glyph-name="oe" unicode="&#x153;" horiz-adv-x="1353" 
d="M845 896q54 44 138.5 74t154.5 30q100 0 162 -52q67 -56 67 -154q0 -140 -126 -260t-267 -120q-120 0 -141 117q-73 -160 -73 -298q0 -78 61 -78q71 0 173.5 87t120.5 87q42 0 42 -47q0 -34 -124 -144q-170 -150 -343 -150q-128 0 -224 107q-143 -108 -290 -108
q-111 0 -184.5 71.5t-73.5 182.5q0 199 175 425q168 218 360 294q96 38 177 38q141 0 215 -102zM598 889q-78 0 -185 -190q-79 -140 -122 -269q-38 -115 -38 -183q0 -87 58 -87q48 0 116 76q84 94 155 271q73 181 73 302q0 80 -57 80zM882 635q12 1 23 1q55 0 55 -52
q0 -13 -7.5 -31t-7.5 -24q0 -15 16 -15q17 0 52 37q44 46 87 137q46 97 46 154q0 46 -37 46q-80 0 -227 -253z" />
    <glyph glyph-name="Scaron" unicode="&#x160;" horiz-adv-x="980" 
d="M698 1264q-87 0 -158 -53q-77 -57 -77 -141q0 -85 107 -166q99 -75 199 -149q107 -104 107 -246q0 -234 -194 -381q-178 -134 -419 -134q-95 0 -214 37q-151 47 -151 117q0 23 16 67q6 17 54 188q22 77 66 77q52 0 52 -70q0 -21 -3.5 -62.5t-3.5 -62.5q0 -175 180 -175
q110 0 194.5 79.5t84.5 189.5q0 90 -105 171q-97 74 -195 147q-105 102 -105 242q0 120 77 227q152 212 467 212q138 0 228 -48q116 -60 116 -186q0 -70 -46 -124q-49 -57 -118 -57q-49 0 -84.5 32t-35.5 80q0 43 42.5 77.5t42.5 47.5q0 33 -48 51q-36 13 -76 13zM728 1642
q54 40 107 80q84 61 108 61q18 0 39.5 -32.5t21.5 -52.5q0 -21 -39 -43q-106 -61 -188 -117q-61 -42 -82 -42q-29 0 -84 74q-29 36 -57 71q-43 55 -43 68q0 18 34.5 48t53.5 30q14 0 65 -63z" />
    <glyph glyph-name="scaron" unicode="&#x161;" horiz-adv-x="852" 
d="M507 898q-49 0 -91 -29q-48 -32 -48 -79q0 -46 89 -102q132 -82 167 -115q89 -87 89 -207q0 -174 -142 -278q-127 -93 -307 -93q-126 0 -222 54q-117 65 -117 182q0 45 27 78.5t70 33.5q45 0 72 -36q16 -22 17 -56v-60q5 -39 40 -65t95 -26q65 0 116.5 39t51.5 103
q0 71 -90 135q-83 58 -167 116q-90 78 -90 182q0 155 140 249q123 81 286 81q111 0 187 -39q97 -51 97 -151q0 -52 -31 -88t-82 -36q-94 0 -94 90q0 16 10.5 43.5t10.5 37.5q0 36 -84 36zM546 1344q54 40 107 80q83 61 108 61q18 0 39.5 -32.5t21.5 -52.5q0 -21 -39 -43
q-101 -58 -188 -117q-62 -42 -82 -42q-29 0 -84 74q-29 36 -57 71q-43 55 -43 68q0 18 34.5 48t53.5 30q13 0 65 -63z" />
    <glyph glyph-name="glyph307" unicode="&#x168;" horiz-adv-x="1152" 
d="M254 1334q14 0 41 -2.5t41 -2.5q105 0 193 30q44 15 64 15q58 0 58 -93q0 -135 -232 -744q-78 -205 -78 -265q0 -54 38 -86t93 -32q205 0 358 354q136 314 136 554q0 87 -39 131q-18 21 -71 48q-39 20 -39 47q0 25 18 36q11 7 71 9q84 2 168 28q43 13 59 13q67 0 67 -144
q0 -288 -238 -750q-137 -265 -296 -383q-139 -103 -313 -103q-144 0 -242 70q-111 79 -111 218q0 97 87 334q38 105 119 320q73 194 73 246q0 31 -41.5 56.5t-41.5 47.5q0 48 58 48zM804 1589q-18 0 -59 -28.5t-63 -28.5q-23 0 -40 18.5t-17 41.5q0 53 58.5 110.5
t111.5 57.5q28 0 71 -29.5t56 -29.5q14 0 57.5 27.5t67.5 27.5q23 0 40.5 -17t17.5 -39q0 -48 -56.5 -109t-103.5 -61q-23 0 -74 29.5t-67 29.5z" />
    <glyph glyph-name="glyph308" unicode="&#x169;" horiz-adv-x="1058" 
d="M461 169q-88 -85 -145 -120q-86 -53 -178 -53q-83 0 -138 57.5t-55 140.5q0 84 78 261q60 132 120 263q30 77 30 110q0 41 -54.5 50t-54.5 45q0 32 41 39q10 2 66 2q142 0 220 26q38 13 61 13q53 0 53 -85q0 -87 -78 -282q-7 -19 -119 -274q-47 -107 -47 -136
q0 -30 30 -30q47 0 121 74q149 150 247 415q41 110 41 176q0 72 19 89q15 13 91 22q91 10 103 14q44 13 62 13q56 0 56 -87q0 -92 -80 -289q-61 -146 -122 -293q-27 -78 -27 -121q0 -40 52 -55t52 -50q0 -29 -37 -40q-6 -2 -88 -8q-100 -8 -226 -52q-26 -9 -44 -9
q-58 0 -58 90q0 23 8 84zM611 1290q-17 0 -58.5 -28t-63.5 -28q-23 0 -40 18.5t-17 41.5q0 52 58.5 109.5t111.5 57.5q28 0 71 -29.5t56 -29.5q14 0 57.5 27.5t67.5 27.5q58 0 58 -56q0 -48 -57 -109t-103 -61q-23 0 -73.5 29.5t-67.5 29.5z" />
    <glyph glyph-name="Ydieresis" unicode="&#x178;" horiz-adv-x="1071" 
d="M479 503q-107 -35 -156 -35q-89 0 -146 49q-61 51 -61 139q0 80 71 277q76 210 76 253q0 31 -46 54t-46 52q0 44 50 44q16 0 48 -2.5t48 -2.5q115 0 208 32q38 13 53 13q56 0 56 -88q0 -93 -48 -243q-28 -90 -89 -266q-14 -36 -14 -60q0 -44 54 -44q130 0 265 199
q110 163 110 297q0 34 -10 46q-8 8 -57 22q-38 11 -38 43q0 42 47 50h79q110 0 203 32q32 11 46 11q46 0 46 -56q0 -137 -469 -674q-127 -146 -205 -267q-79 -124 -79 -175q0 -29 49.5 -45.5t49.5 -50.5q0 -29 -33 -45q-8 -4 -113 -17q-30 -4 -116 -30q-79 -25 -95 -25
q-50 0 -50 58q0 79 125 238q93 108 187 217zM975 1792q35 0 56.5 -26t21.5 -61q0 -69 -44 -129q-48 -66 -114 -66q-72 0 -72 94q0 67 42 125q45 63 110 63zM732 1795q77 0 77 -93q0 -68 -44 -129q-49 -66 -115 -66q-34 0 -55 30q-19 26 -19 62q0 68 43 129q48 67 113 67z
" />
    <glyph glyph-name="Zcaron" unicode="&#x17d;" horiz-adv-x="1057" 
d="M730 1248q-23 1 -34 1q-247 0 -395 -213q-17 -26 -54 -70q-19 -16 -39 -16q-45 0 -45 49q0 21 46 138q15 37 51 173q19 69 70 69q23 0 70 -8q105 -18 283 -18q175 0 344 23q44 6 72 6q68 0 68 -67q0 -98 -204 -349q-189 -221 -379 -442q-204 -245 -204 -329q0 -61 82 -61
q94 0 201 80q95 70 152 162q17 28 52 71q20 17 41 17q20 0 38 -14.5t18 -34.5t-17 -59q-51 -117 -108 -288q-16 -46 -37 -59q-16 -10 -42 -10q-30 0 -74 7q-150 24 -335 24q-202 0 -321 -23q-52 -10 -78 -10q-62 0 -62 66q0 72 72 206q82 154 228 333q45 56 264 307
q126 144 143 165q81 96 133 174zM815 1642q54 40 107 80q84 61 108 61q18 0 39.5 -32.5t21.5 -52.5q0 -21 -39 -43q-106 -61 -188 -117q-61 -42 -82 -42q-29 0 -84 74q-29 36 -57 71q-43 55 -43 68q0 18 34.5 48t53.5 30q14 0 65 -63z" />
    <glyph glyph-name="zcaron" unicode="&#x17e;" horiz-adv-x="903" 
d="M517 868q-98 8 -137 8q-69 0 -74 -39q-6 -56 -26 -70.5t-54 -14.5q-47 0 -77.5 32t-30.5 79q0 67 51 104q46 33 116 33q51 0 157 -9t161 -9q116 0 193 13q36 6 51 6q64 0 64 -65q0 -95 -162 -267q-149 -144 -299 -289q-162 -157 -162 -217q0 -32 52 -32q105 0 187 56
q45 31 108 105q48 56 70 56q42 0 42 -44q0 -17 -14 -48q-27 -59 -77 -179q-10 -26 -32 -66q-15 -16 -42 -16q-21 0 -66 6q-119 16 -258 16q-160 0 -246 -20q-39 -9 -57 -9q-57 0 -57 72q0 178 241 440zM612 1344q54 40 107 80q83 61 108 61q18 0 39.5 -32.5t21.5 -52.5
q0 -21 -39 -43q-101 -58 -188 -117q-62 -42 -82 -42q-29 0 -84 74q-29 36 -57 71q-43 55 -43 68q0 18 34.5 48t53.5 30q13 0 65 -63z" />
    <glyph glyph-name="florin" unicode="&#x192;" horiz-adv-x="1160" 
d="M886 995q15 1 56 9q35 6 56 6q60 0 60 -61q0 -100 -130 -100q-66 0 -104 12l-286 -640q-235 -526 -560 -526q-138 0 -239 63q-119 74 -119 204q0 79 37 131q41 59 117 59q52 0 93 -39t41 -91q0 -55 -56 -92.5t-56 -45.5q0 -40 73 -40q69 0 113 52q73 87 205 370l277 595
h-25q-16 -1 -24 -1q-67 0 -67 48q0 67 75 88q19 5 129 14q52 91 162 268q101 150 242 209q87 36 175 36q121 0 199 -59q87 -66 87 -183q0 -68 -31 -117q-37 -57 -102 -57q-52 0 -95 40t-43 91q0 43 36.5 88l36.5 45q0 26 -49 26q-40 0 -77 -35q-74 -72 -207 -367z" />
    <glyph glyph-name="glyph309" unicode="&#x1a0;" 
d="M819 1257q-56 0 -129 -64q-136 -120 -241 -374q-102 -247 -102 -436q0 -71 25 -121q31 -65 95 -65q156 0 303 297q156 314 156 589q0 174 -107 174zM1216 1335q-35 -9 -63 -9q-57 0 -95.5 37.5t-38.5 94.5q0 83 76 141q70 55 155 55q75 0 125.5 -45t50.5 -118
q0 -120 -102 -226q-80 -83 -147 -83q-9 0 -18 2q23 -68 23 -160q0 -173 -91 -373q-81 -179 -208 -327q-281 -327 -576 -327q-154 0 -243 103q-84 98 -84 254q0 219 126.5 460t323.5 395q214 168 438 168q161 0 244 -105q14 17 49 34q45 22 55 29z" />
    <glyph glyph-name="glyph310" unicode="&#x1a1;" horiz-adv-x="906" 
d="M597 893q-80 0 -191 -197q-82 -147 -122 -273q-34 -107 -34 -171q0 -88 63 -88q44 0 107 68q83 91 159 272q77 185 77 303q0 86 -59 86zM751 979q-8 22 -8 47q0 83 76 141q70 55 155 55q74 0 125 -45t51 -118q0 -121 -102 -226q-80 -83 -147 -83q-19 0 -36 9
q-4 -243 -222 -499q-227 -267 -465 -267q-119 0 -189.5 70.5t-70.5 189.5q0 244 234 494q238 255 480 255q70 0 119 -23zM940 903q-36 -9 -63 -9q-22 0 -41 5q11 -20 17 -43q30 14 87 47z" />
    <glyph glyph-name="glyph311" unicode="&#x1af;" horiz-adv-x="1152" 
d="M1094 1367q-35 39 -35 91q0 83 76 141q70 55 155 55q74 0 125 -45t51 -118q0 -120 -102 -226q-80 -83 -147 -83q-9 0 -19 2q-21 -287 -236 -704q-137 -265 -296 -383q-139 -103 -313 -103q-144 0 -242 70q-111 79 -111 218q0 79 31 179q5 18 62 172q38 102 113 303
q73 194 73 246q0 31 -41.5 56.5t-41.5 47.5q0 48 58 48q14 0 41 -2.5t41 -2.5q105 0 193 30q44 15 64 15q58 0 58 -93q0 -135 -232 -744q-78 -205 -78 -265q0 -54 38 -86t93 -32q205 0 358 354q136 314 136 554q0 87 -39 131q-18 21 -71 48q-39 20 -39 47q0 25 18 36
q11 7 71 9q71 2 188 34zM1256 1335q-37 -10 -68 -9q4 -11 6 -24q22 9 62 33z" />
    <glyph glyph-name="glyph312" unicode="&#x1b0;" horiz-adv-x="1058" 
d="M902 983q-7 20 -7 43q0 83 76 141q70 55 155 55q74 0 125 -45t51 -118q0 -120 -102 -226q-80 -83 -147 -83q-27 0 -50 19q-8 -27 -116 -288q-85 -207 -85 -272q0 -40 52 -55t52 -50q0 -29 -37 -40q-6 -2 -88 -8q-100 -8 -226 -52q-26 -9 -44 -9q-58 0 -58 90q0 23 8 84
q-88 -85 -145 -120q-86 -53 -178 -53q-83 0 -138 57.5t-55 140.5q0 84 78 261q60 132 120 263q30 77 30 110q0 41 -54.5 50t-54.5 45q0 32 41 39q10 2 66 2q142 0 220 26q38 13 61 13q53 0 53 -85q0 -87 -78 -282q-7 -19 -119 -274q-47 -107 -47 -136q0 -30 30 -30
q47 0 121 74q149 150 247 415q41 110 41 176q0 72 19 89q14 13 86 21q48 6 97 12zM1092 903q-35 -9 -62 -9q-1 -12 -3 -25q23 9 65 34z" />
    <glyph glyph-name="circumflex" unicode="&#x2c6;" horiz-adv-x="1024" 
d="M650 1350q-54 -40 -107 -80q-85 -61 -108 -61q-18 0 -39.5 32.5t-21.5 52.5q0 21 39 43q95 54 188 117q62 42 82 42q29 0 84 -74q29 -35 58 -71q42 -53 42 -68q0 -17 -34.5 -47.5t-52.5 -30.5q-15 0 -66 63z" />
    <glyph glyph-name="caron" unicode="&#x2c7;" horiz-adv-x="1024" 
d="M592 1344q54 40 107 80q83 61 108 61q18 0 39.5 -32.5t21.5 -52.5q0 -21 -39 -43q-101 -58 -188 -117q-62 -42 -82 -42q-29 0 -84 74q-29 36 -57 71q-43 55 -43 68q0 18 34.5 48t53.5 30q13 0 65 -63z" />
    <glyph glyph-name="macron" unicode="&#x2c9;" horiz-adv-x="1024" 
d="M429 1275q-94 0 -94 59q0 25 19 48q22 28 73 33q5 1 84 1l327 1q69 0 69 -56q0 -60 -57 -77q-26 -8 -106 -8h-239q-10 0 -38 -1h-38z" />
    <glyph glyph-name="breve" unicode="&#x2d8;" horiz-adv-x="1024" 
d="M444 1489q23 0 77 -50.5t87 -50.5q37 0 100.5 49.5t84.5 49.5q26 0 47 -19.5t21 -45.5q0 -49 -78.5 -122t-175.5 -73q-78 0 -150 65q-75 66 -75 143q0 54 62 54z" />
    <glyph glyph-name="dotaccent" unicode="&#x2d9;" horiz-adv-x="1024" 
d="M648 1495q44 0 76 -24q36 -27 36 -69q0 -73 -48 -138q-52 -71 -122 -71q-49 0 -81.5 28t-32.5 76q0 67 53.5 132.5t118.5 65.5z" />
    <glyph glyph-name="ring" unicode="&#x2da;" horiz-adv-x="1024" 
d="M657 1547q62 0 99 -44t37 -107q0 -80 -65 -158q-68 -81 -146 -81q-61 0 -99 50q-34 45 -34 108q0 85 62.5 158.5t145.5 73.5zM647 1450q-40 0 -74 -48q-32 -44 -32 -86q0 -62 52 -62q40 0 73 54q30 48 30 91q0 51 -49 51z" />
    <glyph glyph-name="ogonek" unicode="&#x2db;" horiz-adv-x="1024" 
d="M591 0q-86 -55 -154 -130q-87 -96 -87 -172q0 -38 30 -38q21 0 60 20.5t60 20.5q30 0 30 -40q0 -53 -68 -87q-57 -29 -116 -29q-132 0 -132 112q0 97 86 199q69 84 170 144h121z" />
    <glyph glyph-name="tilde" unicode="&#x2dc;" horiz-adv-x="1024" 
d="M560 1290q-17 0 -58.5 -28t-63.5 -28q-23 0 -40 18.5t-17 41.5q0 52 58.5 109.5t111.5 57.5q28 0 71 -29.5t56 -29.5q14 0 57.5 27.5t67.5 27.5q58 0 58 -56q0 -48 -57 -109t-103 -61q-23 0 -73.5 29.5t-67.5 29.5z" />
    <glyph glyph-name="hungarumlaut" unicode="&#x2dd;" horiz-adv-x="1024" 
d="M663 1498q35 0 73.5 -28.5t38.5 -62.5q0 -17 -17 -41.5t-75 -91.5t-72.5 -77t-33.5 -10q-27 0 -53.5 23t-26.5 49q0 30 93 171q45 68 73 68zM980 1498q35 0 73.5 -28.5t38.5 -61.5q0 -18 -17 -42.5t-75 -91.5t-72.5 -77t-33.5 -10q-27 0 -53.5 23t-26.5 49q0 29 93 171
q45 68 73 68z" />
    <glyph glyph-name="Delta" unicode="&#x394;" horiz-adv-x="1323" 
d="M16 0l497 1365h293l500 -1365h-1290zM376 245h564l-279 822z" />
    <glyph glyph-name="Delta" unicode="&#x2206;" horiz-adv-x="1323" 
d="M16 0l497 1365h293l500 -1365h-1290zM376 245h564l-279 822z" />
    <glyph glyph-name="Omega" unicode="&#x3a9;" horiz-adv-x="1365" 
d="M57 0v245h294q-301 183 -301 507q0 271 179 457q182 190 451 190q274 0 454.5 -186t180.5 -460q0 -326 -300 -508h294v-245h-550v226q270 142 270 477q0 170 -85 300q-97 148 -259 148q-166 0 -264 -147q-85 -127 -85 -302q0 -337 271 -476v-226h-550z" />
    <glyph glyph-name="Omega" unicode="&#x2126;" horiz-adv-x="1365" 
d="M57 0v245h294q-301 183 -301 507q0 271 179 457q182 190 451 190q274 0 454.5 -186t180.5 -460q0 -326 -300 -508h294v-245h-550v226q270 142 270 477q0 170 -85 300q-97 148 -259 148q-166 0 -264 -147q-85 -127 -85 -302q0 -337 271 -476v-226h-550z" />
    <glyph glyph-name="pi" unicode="&#x3c0;" horiz-adv-x="1259" 
d="M190 0v773h-149v209h1178v-209h-148v-773h-264v773h-353v-773h-264z" />
    <glyph glyph-name="glyph313" unicode="&#x1ea0;" horiz-adv-x="1141" 
d="M599 565q-82 9 -186 9q-106 0 -188 -9q-78 -190 -78 -293q0 -64 35 -93q11 -9 65 -33q35 -15 35 -43q0 -32 -40 -45q-7 -2 -94 -12q-97 -11 -176 -42q-35 -14 -52 -14q-57 0 -57 81q0 89 57 245q126 345 392 632q291 314 615 400q113 30 167 30q88 0 88 -96
q0 -106 -78 -337q-16 -46 -123 -331q-121 -322 -121 -397q0 -41 42.5 -63.5t42.5 -43.5q0 -31 -39 -46q-7 -2 -84 -8q-114 -8 -213 -47q-49 -19 -66 -19q-61 0 -61 99q0 95 41 241q3 8 76 235zM643 682q170 432 170 480q0 24 -23 24q-8 0 -80 -38q-54 -29 -148 -116
q-89 -83 -130 -136.5t-116 -161.5q-13 -15 -32 -46q0 -10 42 -12q77 -3 184 -3q14 0 133 9zM349 -123q55 0 93 -38t38 -93q0 -78 -90 -138q-81 -55 -164 -55q-57 0 -96.5 38t-39.5 95q0 85 90 142q78 49 169 49z" />
    <glyph glyph-name="glyph314" unicode="&#x1ea1;" horiz-adv-x="1055" 
d="M709 944q16 25 37 30q8 2 49 2q55 0 146 25q25 7 40 7q48 0 48 -81q0 -98 -83 -309q-63 -155 -125 -310q-18 -52 -18 -86q0 -44 52.5 -60t52.5 -47q0 -36 -51 -46q-40 -2 -79 -4q-109 -7 -217 -50q-38 -15 -53 -15q-51 0 -51 85q0 38 7 93q-128 -114 -138 -121
q-82 -58 -171 -58q-103 0 -171 75q-66 72 -66 176q0 201 156 412q145 195 338 292q105 53 185 53q71 0 112 -63zM695 823q-31 -19 -51 -19q-51 0 -51 51q0 5 1.5 15t1.5 15q0 16 -15 16q-27 0 -81 -58q-87 -96 -168 -276q-86 -189 -86 -307q0 -62 44 -62q64 0 162 122
q66 83 120 182q90 165 123 321zM333 -123q55 0 93 -38t38 -93q0 -78 -90 -138q-81 -55 -164 -55q-57 0 -96.5 38t-39.5 95q0 85 90 142q78 49 169 49z" />
    <glyph glyph-name="glyph315" unicode="&#x1ea2;" horiz-adv-x="1141" 
d="M599 565q-82 9 -186 9q-106 0 -188 -9q-78 -190 -78 -293q0 -64 35 -93q11 -9 65 -33q35 -15 35 -43q0 -32 -40 -45q-7 -2 -94 -12q-97 -11 -176 -42q-35 -14 -52 -14q-57 0 -57 81q0 89 57 245q126 345 392 632q291 314 615 400q113 30 167 30q88 0 88 -96
q0 -106 -78 -337q-16 -46 -123 -331q-121 -322 -121 -397q0 -41 42.5 -63.5t42.5 -43.5q0 -31 -39 -46q-7 -2 -84 -8q-114 -8 -213 -47q-49 -19 -66 -19q-61 0 -61 99q0 95 41 241q3 8 76 235zM643 682q170 432 170 480q0 24 -23 24q-8 0 -80 -38q-54 -29 -148 -116
q-89 -83 -130 -136.5t-116 -161.5q-13 -15 -32 -46q0 -10 42 -12q77 -3 184 -3q14 0 133 9zM1096 1752q-65 0 -65 -40q0 -4 1.5 -13.5t1.5 -14.5q0 -41 -41 -41t-41 43q0 49 42 96q54 62 151 62q69 0 114.5 -45t45.5 -115q0 -60 -63 -101q-26 -17 -114 -52q-15 -5 -29 -16
q15 -22 15 -25q0 -35 -57 -35q-67 0 -67 55q0 47 84 88.5t84 94.5q0 59 -62 59z" />
    <glyph glyph-name="glyph316" unicode="&#x1ea3;" horiz-adv-x="1055" 
d="M709 944q16 25 37 30q8 2 49 2q55 0 146 25q25 7 40 7q48 0 48 -81q0 -98 -83 -309q-63 -155 -125 -310q-18 -52 -18 -86q0 -44 52.5 -60t52.5 -47q0 -36 -51 -46q-40 -2 -79 -4q-109 -7 -217 -50q-38 -15 -53 -15q-51 0 -51 85q0 38 7 93q-128 -114 -138 -121
q-82 -58 -171 -58q-103 0 -171 75q-66 72 -66 176q0 201 156 412q145 195 338 292q105 53 185 53q71 0 112 -63zM695 823q-31 -19 -51 -19q-51 0 -51 51q0 5 1.5 15t1.5 15q0 16 -15 16q-27 0 -81 -58q-87 -96 -168 -276q-86 -189 -86 -307q0 -62 44 -62q64 0 162 122
q66 83 120 182q90 165 123 321zM731 1477q-65 0 -65 -40q0 -4 1.5 -13.5t1.5 -14.5q0 -41 -41 -41t-41 43q0 49 42 96q54 62 151 62q69 0 114.5 -45t45.5 -115q0 -60 -63 -101q-26 -17 -114 -52q-15 -5 -29 -16q15 -22 15 -25q0 -35 -57 -35q-67 0 -67 55q0 47 84 88.5
t84 94.5q0 59 -62 59z" />
    <glyph glyph-name="glyph317" unicode="&#x1ea4;" horiz-adv-x="1141" 
d="M599 565q-82 9 -186 9q-106 0 -188 -9q-78 -190 -78 -293q0 -64 35 -93q11 -9 65 -33q35 -15 35 -43q0 -32 -40 -45q-7 -2 -94 -12q-97 -11 -176 -42q-35 -14 -52 -14q-57 0 -57 81q0 89 57 245q126 345 392 632q291 314 615 400q113 30 167 30q88 0 88 -96
q0 -106 -78 -337q-16 -46 -123 -331q-121 -322 -121 -397q0 -41 42.5 -63.5t42.5 -43.5q0 -31 -39 -46q-7 -2 -84 -8q-114 -8 -213 -47q-49 -19 -66 -19q-61 0 -61 99q0 95 41 241q3 8 76 235zM643 682q170 432 170 480q0 24 -23 24q-8 0 -80 -38q-54 -29 -148 -116
q-89 -83 -130 -136.5t-116 -161.5q-13 -15 -32 -46q0 -10 42 -12q77 -3 184 -3q14 0 133 9zM1060 1648q-54 -40 -107 -80q-83 -61 -108 -61q-18 0 -39.5 32.5t-21.5 52.5q0 21 39 43q117 68 188 116q63 43 82 43q29 0 84 -74q29 -36 57 -71q43 -55 43 -68q0 -17 -34.5 -47.5
t-52.5 -30.5q-15 0 -66 63zM1044 2111q31 0 65.5 -35t34.5 -66q0 -19 -17.5 -40.5t-81 -75.5t-88.5 -70q-16 -10 -32 -10q-26 0 -52 25.5t-26 51.5q0 20 12 38q65 99 147 166q20 16 38 16z" />
    <glyph glyph-name="glyph318" unicode="&#x1ea5;" horiz-adv-x="1055" 
d="M709 944q16 25 37 30q8 2 49 2q55 0 146 25q25 7 40 7q48 0 48 -81q0 -98 -83 -309q-63 -155 -125 -310q-18 -52 -18 -86q0 -44 52.5 -60t52.5 -47q0 -36 -51 -46q-40 -2 -79 -4q-109 -7 -217 -50q-38 -15 -53 -15q-51 0 -51 85q0 38 7 93q-128 -114 -138 -121
q-82 -58 -171 -58q-103 0 -171 75q-66 72 -66 176q0 201 156 412q145 195 338 292q105 53 185 53q71 0 112 -63zM695 823q-31 -19 -51 -19q-51 0 -51 51q0 5 1.5 15t1.5 15q0 16 -15 16q-27 0 -81 -58q-87 -96 -168 -276q-86 -189 -86 -307q0 -62 44 -62q64 0 162 122
q66 83 120 182q90 165 123 321zM732 1350q-54 -40 -107 -80q-85 -61 -108 -61q-18 0 -39.5 32.5t-21.5 52.5q0 21 39 43q95 54 188 117q62 42 82 42q29 0 84 -74q29 -35 58 -71q42 -53 42 -68q0 -17 -34.5 -47.5t-52.5 -30.5q-15 0 -66 63zM716 1813q31 0 65.5 -35t34.5 -66
q0 -19 -17.5 -40.5t-81 -75.5t-88.5 -70q-16 -10 -32 -10q-26 0 -52 25.5t-26 51.5q0 20 12 38q65 99 147 166q20 16 38 16z" />
    <glyph glyph-name="glyph319" unicode="&#x1ea6;" horiz-adv-x="1141" 
d="M599 565q-82 9 -186 9q-106 0 -188 -9q-78 -190 -78 -293q0 -64 35 -93q11 -9 65 -33q35 -15 35 -43q0 -32 -40 -45q-7 -2 -94 -12q-97 -11 -176 -42q-35 -14 -52 -14q-57 0 -57 81q0 89 57 245q126 345 392 632q291 314 615 400q113 30 167 30q88 0 88 -96
q0 -106 -78 -337q-16 -46 -123 -331q-121 -322 -121 -397q0 -41 42.5 -63.5t42.5 -43.5q0 -31 -39 -46q-7 -2 -84 -8q-114 -8 -213 -47q-49 -19 -66 -19q-61 0 -61 99q0 95 41 241q3 8 76 235zM643 682q170 432 170 480q0 24 -23 24q-8 0 -80 -38q-54 -29 -148 -116
q-89 -83 -130 -136.5t-116 -161.5q-13 -15 -32 -46q0 -10 42 -12q77 -3 184 -3q14 0 133 9zM1060 1648q-54 -40 -107 -80q-83 -61 -108 -61q-18 0 -39.5 32.5t-21.5 52.5q0 21 39 43q117 68 188 116q63 43 82 43q29 0 84 -74q29 -36 57 -71q43 -55 43 -68q0 -17 -34.5 -47.5
t-52.5 -30.5q-15 0 -66 63zM1156 2109q18 0 38 -16q86 -73 147 -165q12 -20 12 -39q0 -26 -25.5 -51.5t-51.5 -25.5q-17 0 -33 10q-21 13 -88 70.5t-83 77t-16 40.5q0 29 35.5 64t64.5 35z" />
    <glyph glyph-name="glyph320" unicode="&#x1ea7;" horiz-adv-x="1055" 
d="M709 944q16 25 37 30q8 2 49 2q55 0 146 25q25 7 40 7q48 0 48 -81q0 -98 -83 -309q-63 -155 -125 -310q-18 -52 -18 -86q0 -44 52.5 -60t52.5 -47q0 -36 -51 -46q-40 -2 -79 -4q-109 -7 -217 -50q-38 -15 -53 -15q-51 0 -51 85q0 38 7 93q-128 -114 -138 -121
q-82 -58 -171 -58q-103 0 -171 75q-66 72 -66 176q0 201 156 412q145 195 338 292q105 53 185 53q71 0 112 -63zM695 823q-31 -19 -51 -19q-51 0 -51 51q0 5 1.5 15t1.5 15q0 16 -15 16q-27 0 -81 -58q-87 -96 -168 -276q-86 -189 -86 -307q0 -62 44 -62q64 0 162 122
q66 83 120 182q90 165 123 321zM732 1350q-54 -40 -107 -80q-85 -61 -108 -61q-18 0 -39.5 32.5t-21.5 52.5q0 21 39 43q95 54 188 117q62 42 82 42q29 0 84 -74q29 -35 58 -71q42 -53 42 -68q0 -17 -34.5 -47.5t-52.5 -30.5q-15 0 -66 63zM827 1812q18 0 38 -16
q86 -73 147 -165q12 -20 12 -39q0 -26 -25.5 -51.5t-51.5 -25.5q-17 0 -33 10q-21 13 -88 70.5t-83 77t-16 40.5q0 29 35.5 64t64.5 35z" />
    <glyph glyph-name="glyph321" unicode="&#x1ea8;" horiz-adv-x="1141" 
d="M599 565q-82 9 -186 9q-106 0 -188 -9q-78 -190 -78 -293q0 -64 35 -93q11 -9 65 -33q35 -15 35 -43q0 -32 -40 -45q-7 -2 -94 -12q-97 -11 -176 -42q-35 -14 -52 -14q-57 0 -57 81q0 89 57 245q126 345 392 632q291 314 615 400q113 30 167 30q88 0 88 -96
q0 -106 -78 -337q-16 -46 -123 -331q-121 -322 -121 -397q0 -41 42.5 -63.5t42.5 -43.5q0 -31 -39 -46q-7 -2 -84 -8q-114 -8 -213 -47q-49 -19 -66 -19q-61 0 -61 99q0 95 41 241q3 8 76 235zM643 682q170 432 170 480q0 24 -23 24q-8 0 -80 -38q-54 -29 -148 -116
q-89 -83 -130 -136.5t-116 -161.5q-13 -15 -32 -46q0 -10 42 -12q77 -3 184 -3q14 0 133 9zM1060 1648q-54 -40 -107 -80q-83 -61 -108 -61q-18 0 -39.5 32.5t-21.5 52.5q0 21 39 43q117 68 188 116q63 43 82 43q29 0 84 -74q29 -36 57 -71q43 -55 43 -68q0 -17 -34.5 -47.5
t-52.5 -30.5q-15 0 -66 63zM1277 2048q-65 0 -65 -40q0 -4 1.5 -13.5t1.5 -14.5q0 -41 -41 -41t-41 43q0 49 42 96q54 62 151 62q69 0 114.5 -45t45.5 -115q0 -60 -63 -101q-26 -17 -114 -52q-15 -5 -29 -16q15 -22 15 -25q0 -35 -57 -35q-67 0 -67 55q0 47 84 88.5t84 94.5
q0 59 -62 59z" />
    <glyph glyph-name="glyph322" unicode="&#x1ea9;" horiz-adv-x="1055" 
d="M709 944q16 25 37 30q8 2 49 2q55 0 146 25q25 7 40 7q48 0 48 -81q0 -98 -83 -309q-63 -155 -125 -310q-18 -52 -18 -86q0 -44 52.5 -60t52.5 -47q0 -36 -51 -46q-40 -2 -79 -4q-109 -7 -217 -50q-38 -15 -53 -15q-51 0 -51 85q0 38 7 93q-128 -114 -138 -121
q-82 -58 -171 -58q-103 0 -171 75q-66 72 -66 176q0 201 156 412q145 195 338 292q105 53 185 53q71 0 112 -63zM695 823q-31 -19 -51 -19q-51 0 -51 51q0 5 1.5 15t1.5 15q0 16 -15 16q-27 0 -81 -58q-87 -96 -168 -276q-86 -189 -86 -307q0 -62 44 -62q64 0 162 122
q66 83 120 182q90 165 123 321zM732 1350q-54 -40 -107 -80q-85 -61 -108 -61q-18 0 -39.5 32.5t-21.5 52.5q0 21 39 43q95 54 188 117q62 42 82 42q29 0 84 -74q29 -35 58 -71q42 -53 42 -68q0 -17 -34.5 -47.5t-52.5 -30.5q-15 0 -66 63zM948 1750q-65 0 -65 -40
q0 -4 1.5 -13.5t1.5 -14.5q0 -41 -41 -41t-41 43q0 49 42 96q54 62 151 62q69 0 114.5 -45t45.5 -115q0 -60 -63 -101q-26 -17 -114 -52q-15 -5 -29 -16q15 -22 15 -25q0 -35 -57 -35q-67 0 -67 55q0 47 84 88.5t84 94.5q0 59 -62 59z" />
    <glyph glyph-name="glyph323" unicode="&#x1eaa;" horiz-adv-x="1141" 
d="M599 565q-82 9 -186 9q-106 0 -188 -9q-78 -190 -78 -293q0 -64 35 -93q11 -9 65 -33q35 -15 35 -43q0 -32 -40 -45q-7 -2 -94 -12q-97 -11 -176 -42q-35 -14 -52 -14q-57 0 -57 81q0 89 57 245q126 345 392 632q291 314 615 400q113 30 167 30q88 0 88 -96
q0 -106 -78 -337q-16 -46 -123 -331q-121 -322 -121 -397q0 -41 42.5 -63.5t42.5 -43.5q0 -31 -39 -46q-7 -2 -84 -8q-114 -8 -213 -47q-49 -19 -66 -19q-61 0 -61 99q0 95 41 241q3 8 76 235zM643 682q170 432 170 480q0 24 -23 24q-8 0 -80 -38q-54 -29 -148 -116
q-89 -83 -130 -136.5t-116 -161.5q-13 -15 -32 -46q0 -10 42 -12q77 -3 184 -3q14 0 133 9zM1060 1648q-54 -40 -107 -80q-83 -61 -108 -61q-18 0 -39.5 32.5t-21.5 52.5q0 21 39 43q117 68 188 116q63 43 82 43q29 0 84 -74q29 -36 57 -71q43 -55 43 -68q0 -17 -34.5 -47.5
t-52.5 -30.5q-15 0 -66 63zM1107 1901q-17 0 -58.5 -28t-63.5 -28q-23 0 -40 18.5t-17 41.5q0 52 58.5 109.5t111.5 57.5q28 0 71 -29.5t56 -29.5q14 0 57.5 27.5t67.5 27.5q58 0 58 -56q0 -48 -57 -109t-103 -61q-23 0 -73.5 29.5t-67.5 29.5z" />
    <glyph glyph-name="glyph324" unicode="&#x1eab;" horiz-adv-x="1055" 
d="M709 944q16 25 37 30q8 2 49 2q55 0 146 25q25 7 40 7q48 0 48 -81q0 -98 -83 -309q-63 -155 -125 -310q-18 -52 -18 -86q0 -44 52.5 -60t52.5 -47q0 -36 -51 -46q-40 -2 -79 -4q-109 -7 -217 -50q-38 -15 -53 -15q-51 0 -51 85q0 38 7 93q-128 -114 -138 -121
q-82 -58 -171 -58q-103 0 -171 75q-66 72 -66 176q0 201 156 412q145 195 338 292q105 53 185 53q71 0 112 -63zM695 823q-31 -19 -51 -19q-51 0 -51 51q0 5 1.5 15t1.5 15q0 16 -15 16q-27 0 -81 -58q-87 -96 -168 -276q-86 -189 -86 -307q0 -62 44 -62q64 0 162 122
q66 83 120 182q90 165 123 321zM732 1350q-54 -40 -107 -80q-85 -61 -108 -61q-18 0 -39.5 32.5t-21.5 52.5q0 21 39 43q95 54 188 117q62 42 82 42q29 0 84 -74q29 -35 58 -71q42 -53 42 -68q0 -17 -34.5 -47.5t-52.5 -30.5q-15 0 -66 63zM779 1604q-17 0 -58.5 -28
t-63.5 -28q-23 0 -40 18.5t-17 41.5q0 52 58.5 109.5t111.5 57.5q28 0 71 -29.5t56 -29.5q14 0 57.5 27.5t67.5 27.5q58 0 58 -56q0 -48 -57 -109t-103 -61q-23 0 -73.5 29.5t-67.5 29.5z" />
    <glyph glyph-name="glyph325" unicode="&#x1eac;" horiz-adv-x="1141" 
d="M599 565q-82 9 -186 9q-106 0 -188 -9q-78 -190 -78 -293q0 -64 35 -93q11 -9 65 -33q35 -15 35 -43q0 -32 -40 -45q-7 -2 -94 -12q-97 -11 -176 -42q-35 -14 -52 -14q-57 0 -57 81q0 89 57 245q126 345 392 632q291 314 615 400q113 30 167 30q88 0 88 -96
q0 -106 -78 -337q-16 -46 -123 -331q-121 -322 -121 -397q0 -41 42.5 -63.5t42.5 -43.5q0 -31 -39 -46q-7 -2 -84 -8q-114 -8 -213 -47q-49 -19 -66 -19q-61 0 -61 99q0 95 41 241q3 8 76 235zM643 682q170 432 170 480q0 24 -23 24q-8 0 -80 -38q-54 -29 -148 -116
q-89 -83 -130 -136.5t-116 -161.5q-13 -15 -32 -46q0 -10 42 -12q77 -3 184 -3q14 0 133 9zM1060 1648q-54 -40 -107 -80q-83 -61 -108 -61q-18 0 -39.5 32.5t-21.5 52.5q0 21 39 43q117 68 188 116q63 43 82 43q29 0 84 -74q29 -36 57 -71q43 -55 43 -68q0 -17 -34.5 -47.5
t-52.5 -30.5q-15 0 -66 63zM349 -123q55 0 93 -38t38 -93q0 -78 -90 -138q-81 -55 -164 -55q-57 0 -96.5 38t-39.5 95q0 85 90 142q78 49 169 49z" />
    <glyph glyph-name="glyph326" unicode="&#x1ead;" horiz-adv-x="1055" 
d="M709 944q16 25 37 30q8 2 49 2q55 0 146 25q25 7 40 7q48 0 48 -81q0 -98 -83 -309q-63 -155 -125 -310q-18 -52 -18 -86q0 -44 52.5 -60t52.5 -47q0 -36 -51 -46q-40 -2 -79 -4q-109 -7 -217 -50q-38 -15 -53 -15q-51 0 -51 85q0 38 7 93q-128 -114 -138 -121
q-82 -58 -171 -58q-103 0 -171 75q-66 72 -66 176q0 201 156 412q145 195 338 292q105 53 185 53q71 0 112 -63zM695 823q-31 -19 -51 -19q-51 0 -51 51q0 5 1.5 15t1.5 15q0 16 -15 16q-27 0 -81 -58q-87 -96 -168 -276q-86 -189 -86 -307q0 -62 44 -62q64 0 162 122
q66 83 120 182q90 165 123 321zM732 1350q-54 -40 -107 -80q-85 -61 -108 -61q-18 0 -39.5 32.5t-21.5 52.5q0 21 39 43q95 54 188 117q62 42 82 42q29 0 84 -74q29 -35 58 -71q42 -53 42 -68q0 -17 -34.5 -47.5t-52.5 -30.5q-15 0 -66 63zM333 -123q55 0 93 -38t38 -93
q0 -78 -90 -138q-81 -55 -164 -55q-57 0 -96.5 38t-39.5 95q0 85 90 142q78 49 169 49z" />
    <glyph glyph-name="glyph327" unicode="&#x1eae;" horiz-adv-x="1141" 
d="M599 565q-82 9 -186 9q-106 0 -188 -9q-78 -190 -78 -293q0 -64 35 -93q11 -9 65 -33q35 -15 35 -43q0 -32 -40 -45q-7 -2 -94 -12q-97 -11 -176 -42q-35 -14 -52 -14q-57 0 -57 81q0 89 57 245q126 345 392 632q291 314 615 400q113 30 167 30q88 0 88 -96
q0 -106 -78 -337q-16 -46 -123 -331q-121 -322 -121 -397q0 -41 42.5 -63.5t42.5 -43.5q0 -31 -39 -46q-7 -2 -84 -8q-114 -8 -213 -47q-49 -19 -66 -19q-61 0 -61 99q0 95 41 241q3 8 76 235zM643 682q170 432 170 480q0 24 -23 24q-8 0 -80 -38q-54 -29 -148 -116
q-89 -83 -130 -136.5t-116 -161.5q-13 -15 -32 -46q0 -10 42 -12q77 -3 184 -3q14 0 133 9zM900 1779q23 0 77 -50.5t87 -50.5q37 0 100.5 49.5t84.5 49.5q26 0 47 -19.5t21 -45.5q0 -49 -78.5 -122t-175.5 -73q-78 0 -150 65q-75 66 -75 143q0 54 62 54zM1155 2103
q31 0 65.5 -35t34.5 -66q0 -19 -17.5 -40.5t-81 -75.5t-88.5 -70q-16 -10 -32 -10q-26 0 -52 25.5t-26 51.5q0 20 12 38q65 99 147 166q20 16 38 16z" />
    <glyph glyph-name="glyph328" unicode="&#x1eaf;" horiz-adv-x="1055" 
d="M709 944q16 25 37 30q8 2 49 2q55 0 146 25q25 7 40 7q48 0 48 -81q0 -98 -83 -309q-63 -155 -125 -310q-18 -52 -18 -86q0 -44 52.5 -60t52.5 -47q0 -36 -51 -46q-40 -2 -79 -4q-109 -7 -217 -50q-38 -15 -53 -15q-51 0 -51 85q0 38 7 93q-128 -114 -138 -121
q-82 -58 -171 -58q-103 0 -171 75q-66 72 -66 176q0 201 156 412q145 195 338 292q105 53 185 53q71 0 112 -63zM695 823q-31 -19 -51 -19q-51 0 -51 51q0 5 1.5 15t1.5 15q0 16 -15 16q-27 0 -81 -58q-87 -96 -168 -276q-86 -189 -86 -307q0 -62 44 -62q64 0 162 122
q66 83 120 182q90 165 123 321zM551 1489q23 0 77 -50.5t87 -50.5q37 0 100.5 49.5t84.5 49.5q26 0 47 -19.5t21 -45.5q0 -49 -78.5 -122t-175.5 -73q-78 0 -150 65q-75 66 -75 143q0 54 62 54zM806 1813q31 0 65.5 -35t34.5 -66q0 -19 -17.5 -40.5t-81 -75.5t-88.5 -70
q-16 -10 -32 -10q-26 0 -52 25.5t-26 51.5q0 20 12 38q65 99 147 166q20 16 38 16z" />
    <glyph glyph-name="glyph329" unicode="&#x1eb0;" horiz-adv-x="1141" 
d="M599 565q-82 9 -186 9q-106 0 -188 -9q-78 -190 -78 -293q0 -64 35 -93q11 -9 65 -33q35 -15 35 -43q0 -32 -40 -45q-7 -2 -94 -12q-97 -11 -176 -42q-35 -14 -52 -14q-57 0 -57 81q0 89 57 245q126 345 392 632q291 314 615 400q113 30 167 30q88 0 88 -96
q0 -106 -78 -337q-16 -46 -123 -331q-121 -322 -121 -397q0 -41 42.5 -63.5t42.5 -43.5q0 -31 -39 -46q-7 -2 -84 -8q-114 -8 -213 -47q-49 -19 -66 -19q-61 0 -61 99q0 95 41 241q3 8 76 235zM643 682q170 432 170 480q0 24 -23 24q-8 0 -80 -38q-54 -29 -148 -116
q-89 -83 -130 -136.5t-116 -161.5q-13 -15 -32 -46q0 -10 42 -12q77 -3 184 -3q14 0 133 9zM900 1779q23 0 77 -50.5t87 -50.5q37 0 100.5 49.5t84.5 49.5q26 0 47 -19.5t21 -45.5q0 -49 -78.5 -122t-175.5 -73q-78 0 -150 65q-75 66 -75 143q0 54 62 54zM972 2102
q18 0 38 -16q86 -73 147 -165q12 -20 12 -39q0 -26 -25.5 -51.5t-51.5 -25.5q-17 0 -33 10q-21 13 -88 70.5t-83 77t-16 40.5q0 29 35.5 64t64.5 35z" />
    <glyph glyph-name="glyph330" unicode="&#x1eb1;" horiz-adv-x="1055" 
d="M709 944q16 25 37 30q8 2 49 2q55 0 146 25q25 7 40 7q48 0 48 -81q0 -98 -83 -309q-63 -155 -125 -310q-18 -52 -18 -86q0 -44 52.5 -60t52.5 -47q0 -36 -51 -46q-40 -2 -79 -4q-109 -7 -217 -50q-38 -15 -53 -15q-51 0 -51 85q0 38 7 93q-128 -114 -138 -121
q-82 -58 -171 -58q-103 0 -171 75q-66 72 -66 176q0 201 156 412q145 195 338 292q105 53 185 53q71 0 112 -63zM695 823q-31 -19 -51 -19q-51 0 -51 51q0 5 1.5 15t1.5 15q0 16 -15 16q-27 0 -81 -58q-87 -96 -168 -276q-86 -189 -86 -307q0 -62 44 -62q64 0 162 122
q66 83 120 182q90 165 123 321zM551 1489q23 0 77 -50.5t87 -50.5q37 0 100.5 49.5t84.5 49.5q26 0 47 -19.5t21 -45.5q0 -49 -78.5 -122t-175.5 -73q-78 0 -150 65q-75 66 -75 143q0 54 62 54zM623 1812q18 0 38 -16q86 -73 147 -165q12 -20 12 -39q0 -26 -25.5 -51.5
t-51.5 -25.5q-17 0 -33 10q-21 13 -88 70.5t-83 77t-16 40.5q0 29 35.5 64t64.5 35z" />
    <glyph glyph-name="glyph331" unicode="&#x1eb2;" horiz-adv-x="1141" 
d="M599 565q-82 9 -186 9q-106 0 -188 -9q-78 -190 -78 -293q0 -64 35 -93q11 -9 65 -33q35 -15 35 -43q0 -32 -40 -45q-7 -2 -94 -12q-97 -11 -176 -42q-35 -14 -52 -14q-57 0 -57 81q0 89 57 245q126 345 392 632q291 314 615 400q113 30 167 30q88 0 88 -96
q0 -106 -78 -337q-16 -46 -123 -331q-121 -322 -121 -397q0 -41 42.5 -63.5t42.5 -43.5q0 -31 -39 -46q-7 -2 -84 -8q-114 -8 -213 -47q-49 -19 -66 -19q-61 0 -61 99q0 95 41 241q3 8 76 235zM643 682q170 432 170 480q0 24 -23 24q-8 0 -80 -38q-54 -29 -148 -116
q-89 -83 -130 -136.5t-116 -161.5q-13 -15 -32 -46q0 -10 42 -12q77 -3 184 -3q14 0 133 9zM900 1779q23 0 77 -50.5t87 -50.5q37 0 100.5 49.5t84.5 49.5q26 0 47 -19.5t21 -45.5q0 -49 -78.5 -122t-175.5 -73q-78 0 -150 65q-75 66 -75 143q0 54 62 54zM1112 2041
q-65 0 -65 -40q0 -4 1.5 -13.5t1.5 -14.5q0 -41 -41 -41t-41 43q0 49 42 96q54 62 151 62q69 0 114.5 -45t45.5 -115q0 -60 -63 -101q-26 -17 -114 -52q-15 -5 -29 -16q15 -22 15 -25q0 -35 -57 -35q-67 0 -67 55q0 47 84 88.5t84 94.5q0 59 -62 59z" />
    <glyph glyph-name="glyph332" unicode="&#x1eb3;" horiz-adv-x="1055" 
d="M709 944q16 25 37 30q8 2 49 2q55 0 146 25q25 7 40 7q48 0 48 -81q0 -98 -83 -309q-63 -155 -125 -310q-18 -52 -18 -86q0 -44 52.5 -60t52.5 -47q0 -36 -51 -46q-40 -2 -79 -4q-109 -7 -217 -50q-38 -15 -53 -15q-51 0 -51 85q0 38 7 93q-128 -114 -138 -121
q-82 -58 -171 -58q-103 0 -171 75q-66 72 -66 176q0 201 156 412q145 195 338 292q105 53 185 53q71 0 112 -63zM695 823q-31 -19 -51 -19q-51 0 -51 51q0 5 1.5 15t1.5 15q0 16 -15 16q-27 0 -81 -58q-87 -96 -168 -276q-86 -189 -86 -307q0 -62 44 -62q64 0 162 122
q66 83 120 182q90 165 123 321zM551 1489q23 0 77 -50.5t87 -50.5q37 0 100.5 49.5t84.5 49.5q26 0 47 -19.5t21 -45.5q0 -49 -78.5 -122t-175.5 -73q-78 0 -150 65q-75 66 -75 143q0 54 62 54zM762 1750q-65 0 -65 -40q0 -4 1.5 -13.5t1.5 -14.5q0 -41 -41 -41t-41 43
q0 49 42 96q54 62 151 62q69 0 114.5 -45t45.5 -115q0 -60 -63 -101q-26 -17 -114 -52q-15 -5 -29 -16q15 -22 15 -25q0 -35 -57 -35q-67 0 -67 55q0 47 84 88.5t84 94.5q0 59 -62 59z" />
    <glyph glyph-name="glyph333" unicode="&#x1eb4;" horiz-adv-x="1141" 
d="M599 565q-82 9 -186 9q-106 0 -188 -9q-78 -190 -78 -293q0 -64 35 -93q11 -9 65 -33q35 -15 35 -43q0 -32 -40 -45q-7 -2 -94 -12q-97 -11 -176 -42q-35 -14 -52 -14q-57 0 -57 81q0 89 57 245q126 345 392 632q291 314 615 400q113 30 167 30q88 0 88 -96
q0 -106 -78 -337q-16 -46 -123 -331q-121 -322 -121 -397q0 -41 42.5 -63.5t42.5 -43.5q0 -31 -39 -46q-7 -2 -84 -8q-114 -8 -213 -47q-49 -19 -66 -19q-61 0 -61 99q0 95 41 241q3 8 76 235zM643 682q170 432 170 480q0 24 -23 24q-8 0 -80 -38q-54 -29 -148 -116
q-89 -83 -130 -136.5t-116 -161.5q-13 -15 -32 -46q0 -10 42 -12q77 -3 184 -3q14 0 133 9zM900 1779q23 0 77 -50.5t87 -50.5q37 0 100.5 49.5t84.5 49.5q26 0 47 -19.5t21 -45.5q0 -49 -78.5 -122t-175.5 -73q-78 0 -150 65q-75 66 -75 143q0 54 62 54zM1127 1894
q-17 0 -58.5 -28t-63.5 -28q-23 0 -40 18.5t-17 41.5q0 52 58.5 109.5t111.5 57.5q28 0 71 -29.5t56 -29.5q14 0 57.5 27.5t67.5 27.5q58 0 58 -56q0 -48 -57 -109t-103 -61q-23 0 -73.5 29.5t-67.5 29.5z" />
    <glyph glyph-name="glyph334" unicode="&#x1eb5;" horiz-adv-x="1055" 
d="M709 944q16 25 37 30q8 2 49 2q55 0 146 25q25 7 40 7q48 0 48 -81q0 -98 -83 -309q-63 -155 -125 -310q-18 -52 -18 -86q0 -44 52.5 -60t52.5 -47q0 -36 -51 -46q-40 -2 -79 -4q-109 -7 -217 -50q-38 -15 -53 -15q-51 0 -51 85q0 38 7 93q-128 -114 -138 -121
q-82 -58 -171 -58q-103 0 -171 75q-66 72 -66 176q0 201 156 412q145 195 338 292q105 53 185 53q71 0 112 -63zM695 823q-31 -19 -51 -19q-51 0 -51 51q0 5 1.5 15t1.5 15q0 16 -15 16q-27 0 -81 -58q-87 -96 -168 -276q-86 -189 -86 -307q0 -62 44 -62q64 0 162 122
q66 83 120 182q90 165 123 321zM551 1489q23 0 77 -50.5t87 -50.5q37 0 100.5 49.5t84.5 49.5q26 0 47 -19.5t21 -45.5q0 -49 -78.5 -122t-175.5 -73q-78 0 -150 65q-75 66 -75 143q0 54 62 54zM779 1604q-17 0 -58.5 -28t-63.5 -28q-23 0 -40 18.5t-17 41.5
q0 52 58.5 109.5t111.5 57.5q28 0 71 -29.5t56 -29.5q14 0 57.5 27.5t67.5 27.5q58 0 58 -56q0 -48 -57 -109t-103 -61q-23 0 -73.5 29.5t-67.5 29.5z" />
    <glyph glyph-name="glyph335" unicode="&#x1eb6;" horiz-adv-x="1141" 
d="M599 565q-82 9 -186 9q-106 0 -188 -9q-78 -190 -78 -293q0 -64 35 -93q11 -9 65 -33q35 -15 35 -43q0 -32 -40 -45q-7 -2 -94 -12q-97 -11 -176 -42q-35 -14 -52 -14q-57 0 -57 81q0 89 57 245q126 345 392 632q291 314 615 400q113 30 167 30q88 0 88 -96
q0 -106 -78 -337q-16 -46 -123 -331q-121 -322 -121 -397q0 -41 42.5 -63.5t42.5 -43.5q0 -31 -39 -46q-7 -2 -84 -8q-114 -8 -213 -47q-49 -19 -66 -19q-61 0 -61 99q0 95 41 241q3 8 76 235zM643 682q170 432 170 480q0 24 -23 24q-8 0 -80 -38q-54 -29 -148 -116
q-89 -83 -130 -136.5t-116 -161.5q-13 -15 -32 -46q0 -10 42 -12q77 -3 184 -3q14 0 133 9zM900 1779q23 0 77 -50.5t87 -50.5q37 0 100.5 49.5t84.5 49.5q26 0 47 -19.5t21 -45.5q0 -49 -78.5 -122t-175.5 -73q-78 0 -150 65q-75 66 -75 143q0 54 62 54zM349 -123
q55 0 93 -38t38 -93q0 -78 -90 -138q-81 -55 -164 -55q-57 0 -96.5 38t-39.5 95q0 85 90 142q78 49 169 49z" />
    <glyph glyph-name="glyph336" unicode="&#x1eb7;" horiz-adv-x="1055" 
d="M709 944q16 25 37 30q8 2 49 2q55 0 146 25q25 7 40 7q48 0 48 -81q0 -98 -83 -309q-63 -155 -125 -310q-18 -52 -18 -86q0 -44 52.5 -60t52.5 -47q0 -36 -51 -46q-40 -2 -79 -4q-109 -7 -217 -50q-38 -15 -53 -15q-51 0 -51 85q0 38 7 93q-128 -114 -138 -121
q-82 -58 -171 -58q-103 0 -171 75q-66 72 -66 176q0 201 156 412q145 195 338 292q105 53 185 53q71 0 112 -63zM695 823q-31 -19 -51 -19q-51 0 -51 51q0 5 1.5 15t1.5 15q0 16 -15 16q-27 0 -81 -58q-87 -96 -168 -276q-86 -189 -86 -307q0 -62 44 -62q64 0 162 122
q66 83 120 182q90 165 123 321zM551 1489q23 0 77 -50.5t87 -50.5q37 0 100.5 49.5t84.5 49.5q26 0 47 -19.5t21 -45.5q0 -49 -78.5 -122t-175.5 -73q-78 0 -150 65q-75 66 -75 143q0 54 62 54zM333 -123q55 0 93 -38t38 -93q0 -78 -90 -138q-81 -55 -164 -55
q-57 0 -96.5 38t-39.5 95q0 85 90 142q78 49 169 49z" />
    <glyph glyph-name="glyph337" unicode="&#x1eb8;" horiz-adv-x="1050" 
d="M671 1253q-26 -166 -138 -459q161 26 247 26q112 0 112 -71q0 -34 -13 -66q-17 -41 -45 -41q-12 0 -36 21q-27 22 -42.5 26.5t-70.5 4.5q-64 0 -197 -15q-157 -383 -157 -488q0 -58 68 -58q99 0 213 84q103 75 161 169q16 29 53 78q16 16 38 16q18 0 32.5 -15.5
t14.5 -33.5t-15 -53q-70 -161 -94 -259q-30 -120 -95 -120q-22 0 -76 14q-77 20 -265 20q-158 0 -256 -21q-51 -11 -80 -11q-71 0 -71 88q0 181 238 780q105 264 105 321q0 35 -41.5 57.5t-41.5 45.5q0 50 64 49q152 -3 155 -3q32 0 114 9q282 31 354 31q220 0 220 -77
q0 -4 -54 -184q-12 -39 -32 -116q-12 -57 -25 -74q-16 -21 -42 -21q-52 0 -52 60q0 25 7 74.5t7 74.5q0 81 -36.5 113t-118.5 32q-55 0 -109 -8zM333 -123q55 0 93 -38t38 -93q0 -78 -90 -138q-81 -55 -164 -55q-57 0 -96.5 38t-39.5 95q0 85 90 142q78 49 169 49z" />
    <glyph glyph-name="glyph338" unicode="&#x1eb9;" horiz-adv-x="844" 
d="M325 530q-75 -159 -75 -283q0 -86 64 -86q65 0 169.5 85.5t122.5 85.5q40 0 40 -42q0 -47 -124 -150q-178 -148 -335 -148q-123 0 -196 69t-73 191q0 242 232 495q237 257 476 257q101 0 163 -49q68 -54 68 -153q0 -141 -123.5 -261.5t-265.5 -120.5q-107 0 -143 110z
M372 637q17 4 28 4q50 0 50 -58q0 -8 -4 -23.5t-4 -23.5q0 -15 14 -15q18 0 52 38q43 48 84 139q44 96 44 155q0 43 -35 43q-53 0 -133 -105q-60 -79 -96 -154zM181 -123q55 0 93 -38t38 -93q0 -78 -90 -138q-81 -55 -164 -55q-57 0 -96.5 38t-39.5 95q0 85 90 142
q78 49 169 49z" />
    <glyph glyph-name="glyph339" unicode="&#x1eba;" horiz-adv-x="1050" 
d="M671 1253q-26 -166 -138 -459q161 26 247 26q112 0 112 -71q0 -34 -13 -66q-17 -41 -45 -41q-12 0 -36 21q-27 22 -42.5 26.5t-70.5 4.5q-64 0 -197 -15q-157 -383 -157 -488q0 -58 68 -58q99 0 213 84q103 75 161 169q16 29 53 78q16 16 38 16q18 0 32.5 -15.5
t14.5 -33.5t-15 -53q-70 -161 -94 -259q-30 -120 -95 -120q-22 0 -76 14q-77 20 -265 20q-158 0 -256 -21q-51 -11 -80 -11q-71 0 -71 88q0 181 238 780q105 264 105 321q0 35 -41.5 57.5t-41.5 45.5q0 50 64 49q152 -3 155 -3q32 0 114 9q282 31 354 31q220 0 220 -77
q0 -4 -54 -184q-12 -39 -32 -116q-12 -57 -25 -74q-16 -21 -42 -21q-52 0 -52 60q0 25 7 74.5t7 74.5q0 81 -36.5 113t-118.5 32q-55 0 -109 -8zM752 1752q-65 0 -65 -40q0 -4 1.5 -13.5t1.5 -14.5q0 -41 -41 -41t-41 43q0 49 42 96q54 62 151 62q69 0 114.5 -45t45.5 -115
q0 -60 -63 -101q-26 -17 -114 -52q-15 -5 -29 -16q15 -22 15 -25q0 -35 -57 -35q-67 0 -67 55q0 47 84 88.5t84 94.5q0 59 -62 59z" />
    <glyph glyph-name="glyph340" unicode="&#x1ebb;" horiz-adv-x="844" 
d="M325 530q-75 -159 -75 -283q0 -86 64 -86q65 0 169.5 85.5t122.5 85.5q40 0 40 -42q0 -47 -124 -150q-178 -148 -335 -148q-123 0 -196 69t-73 191q0 242 232 495q237 257 476 257q101 0 163 -49q68 -54 68 -153q0 -141 -123.5 -261.5t-265.5 -120.5q-107 0 -143 110z
M372 637q17 4 28 4q50 0 50 -58q0 -8 -4 -23.5t-4 -23.5q0 -15 14 -15q18 0 52 38q43 48 84 139q44 96 44 155q0 43 -35 43q-53 0 -133 -105q-60 -79 -96 -154zM685 1477q-65 0 -65 -40q0 -4 1.5 -13.5t1.5 -14.5q0 -41 -41 -41t-41 43q0 49 42 96q54 62 151 62
q69 0 114.5 -45t45.5 -115q0 -60 -63 -101q-26 -17 -114 -52q-15 -5 -29 -16q15 -22 15 -25q0 -35 -57 -35q-67 0 -67 55q0 47 84 88.5t84 94.5q0 59 -62 59z" />
    <glyph glyph-name="glyph341" unicode="&#x1ebc;" horiz-adv-x="1050" 
d="M671 1253q-26 -166 -138 -459q161 26 247 26q112 0 112 -71q0 -34 -13 -66q-17 -41 -45 -41q-12 0 -36 21q-27 22 -42.5 26.5t-70.5 4.5q-64 0 -197 -15q-157 -383 -157 -488q0 -58 68 -58q99 0 213 84q103 75 161 169q16 29 53 78q16 16 38 16q18 0 32.5 -15.5
t14.5 -33.5t-15 -53q-70 -161 -94 -259q-30 -120 -95 -120q-22 0 -76 14q-77 20 -265 20q-158 0 -256 -21q-51 -11 -80 -11q-71 0 -71 88q0 181 238 780q105 264 105 321q0 35 -41.5 57.5t-41.5 45.5q0 50 64 49q152 -3 155 -3q32 0 114 9q282 31 354 31q220 0 220 -77
q0 -4 -54 -184q-12 -39 -32 -116q-12 -57 -25 -74q-16 -21 -42 -21q-52 0 -52 60q0 25 7 74.5t7 74.5q0 81 -36.5 113t-118.5 32q-55 0 -109 -8zM760 1589q-18 0 -59 -28.5t-63 -28.5q-23 0 -40 18.5t-17 41.5q0 53 58.5 110.5t111.5 57.5q28 0 71 -29.5t56 -29.5
q14 0 57.5 27.5t67.5 27.5q23 0 40.5 -17t17.5 -39q0 -48 -56.5 -109t-103.5 -61q-23 0 -74 29.5t-67 29.5z" />
    <glyph glyph-name="glyph342" unicode="&#x1ebd;" horiz-adv-x="844" 
d="M325 530q-75 -159 -75 -283q0 -86 64 -86q65 0 169.5 85.5t122.5 85.5q40 0 40 -42q0 -47 -124 -150q-178 -148 -335 -148q-123 0 -196 69t-73 191q0 242 232 495q237 257 476 257q101 0 163 -49q68 -54 68 -153q0 -141 -123.5 -261.5t-265.5 -120.5q-107 0 -143 110z
M372 637q17 4 28 4q50 0 50 -58q0 -8 -4 -23.5t-4 -23.5q0 -15 14 -15q18 0 52 38q43 48 84 139q44 96 44 155q0 43 -35 43q-53 0 -133 -105q-60 -79 -96 -154zM611 1290q-17 0 -58.5 -28t-63.5 -28q-23 0 -40 18.5t-17 41.5q0 52 58.5 109.5t111.5 57.5q28 0 71 -29.5
t56 -29.5q14 0 57.5 27.5t67.5 27.5q58 0 58 -56q0 -48 -57 -109t-103 -61q-23 0 -73.5 29.5t-67.5 29.5z" />
    <glyph glyph-name="glyph343" unicode="&#x1ebe;" horiz-adv-x="1050" 
d="M671 1253q-26 -166 -138 -459q161 26 247 26q112 0 112 -71q0 -34 -13 -66q-17 -41 -45 -41q-12 0 -36 21q-27 22 -42.5 26.5t-70.5 4.5q-64 0 -197 -15q-157 -383 -157 -488q0 -58 68 -58q99 0 213 84q103 75 161 169q16 29 53 78q16 16 38 16q18 0 32.5 -15.5
t14.5 -33.5t-15 -53q-70 -161 -94 -259q-30 -120 -95 -120q-22 0 -76 14q-77 20 -265 20q-158 0 -256 -21q-51 -11 -80 -11q-71 0 -71 88q0 181 238 780q105 264 105 321q0 35 -41.5 57.5t-41.5 45.5q0 50 64 49q152 -3 155 -3q32 0 114 9q282 31 354 31q220 0 220 -77
q0 -4 -54 -184q-12 -39 -32 -116q-12 -57 -25 -74q-16 -21 -42 -21q-52 0 -52 60q0 25 7 74.5t7 74.5q0 81 -36.5 113t-118.5 32q-55 0 -109 -8zM785 1648q-54 -40 -107 -80q-83 -61 -108 -61q-18 0 -39.5 32.5t-21.5 52.5q0 21 39 43q117 68 188 116q63 43 82 43
q29 0 84 -74q29 -36 57 -71q43 -55 43 -68q0 -17 -34.5 -47.5t-52.5 -30.5q-15 0 -66 63zM770 2111q31 0 65.5 -35t34.5 -66q0 -19 -17.5 -40.5t-81 -75.5t-88.5 -70q-16 -10 -32 -10q-26 0 -52 25.5t-26 51.5q0 20 12 38q65 99 147 166q20 16 38 16z" />
    <glyph glyph-name="glyph344" unicode="&#x1ebf;" horiz-adv-x="844" 
d="M325 530q-75 -159 -75 -283q0 -86 64 -86q65 0 169.5 85.5t122.5 85.5q40 0 40 -42q0 -47 -124 -150q-178 -148 -335 -148q-123 0 -196 69t-73 191q0 242 232 495q237 257 476 257q101 0 163 -49q68 -54 68 -153q0 -141 -123.5 -261.5t-265.5 -120.5q-107 0 -143 110z
M372 637q17 4 28 4q50 0 50 -58q0 -8 -4 -23.5t-4 -23.5q0 -15 14 -15q18 0 52 38q43 48 84 139q44 96 44 155q0 43 -35 43q-53 0 -133 -105q-60 -79 -96 -154zM709 1350q-54 -40 -107 -80q-85 -61 -108 -61q-18 0 -39.5 32.5t-21.5 52.5q0 21 39 43q95 54 188 117
q62 42 82 42q29 0 84 -74q29 -35 58 -71q42 -53 42 -68q0 -17 -34.5 -47.5t-52.5 -30.5q-15 0 -66 63zM693 1813q31 0 65.5 -35t34.5 -66q0 -19 -17.5 -40.5t-81 -75.5t-88.5 -70q-16 -10 -32 -10q-26 0 -52 25.5t-26 51.5q0 20 12 38q65 99 147 166q20 16 38 16z" />
    <glyph glyph-name="glyph345" unicode="&#x1ec0;" horiz-adv-x="1050" 
d="M671 1253q-26 -166 -138 -459q161 26 247 26q112 0 112 -71q0 -34 -13 -66q-17 -41 -45 -41q-12 0 -36 21q-27 22 -42.5 26.5t-70.5 4.5q-64 0 -197 -15q-157 -383 -157 -488q0 -58 68 -58q99 0 213 84q103 75 161 169q16 29 53 78q16 16 38 16q18 0 32.5 -15.5
t14.5 -33.5t-15 -53q-70 -161 -94 -259q-30 -120 -95 -120q-22 0 -76 14q-77 20 -265 20q-158 0 -256 -21q-51 -11 -80 -11q-71 0 -71 88q0 181 238 780q105 264 105 321q0 35 -41.5 57.5t-41.5 45.5q0 50 64 49q152 -3 155 -3q32 0 114 9q282 31 354 31q220 0 220 -77
q0 -4 -54 -184q-12 -39 -32 -116q-12 -57 -25 -74q-16 -21 -42 -21q-52 0 -52 60q0 25 7 74.5t7 74.5q0 81 -36.5 113t-118.5 32q-55 0 -109 -8zM785 1648q-54 -40 -107 -80q-83 -61 -108 -61q-18 0 -39.5 32.5t-21.5 52.5q0 21 39 43q117 68 188 116q63 43 82 43
q29 0 84 -74q29 -36 57 -71q43 -55 43 -68q0 -17 -34.5 -47.5t-52.5 -30.5q-15 0 -66 63zM881 2109q18 0 38 -16q86 -73 147 -165q12 -20 12 -39q0 -26 -25.5 -51.5t-51.5 -25.5q-17 0 -33 10q-21 13 -88 70.5t-83 77t-16 40.5q0 29 35.5 64t64.5 35z" />
    <glyph glyph-name="glyph346" unicode="&#x1ec1;" horiz-adv-x="844" 
d="M325 530q-75 -159 -75 -283q0 -86 64 -86q65 0 169.5 85.5t122.5 85.5q40 0 40 -42q0 -47 -124 -150q-178 -148 -335 -148q-123 0 -196 69t-73 191q0 242 232 495q237 257 476 257q101 0 163 -49q68 -54 68 -153q0 -141 -123.5 -261.5t-265.5 -120.5q-107 0 -143 110z
M372 637q17 4 28 4q50 0 50 -58q0 -8 -4 -23.5t-4 -23.5q0 -15 14 -15q18 0 52 38q43 48 84 139q44 96 44 155q0 43 -35 43q-53 0 -133 -105q-60 -79 -96 -154zM709 1350q-54 -40 -107 -80q-85 -61 -108 -61q-18 0 -39.5 32.5t-21.5 52.5q0 21 39 43q95 54 188 117
q62 42 82 42q29 0 84 -74q29 -35 58 -71q42 -53 42 -68q0 -17 -34.5 -47.5t-52.5 -30.5q-15 0 -66 63zM804 1812q18 0 38 -16q86 -73 147 -165q12 -20 12 -39q0 -26 -25.5 -51.5t-51.5 -25.5q-17 0 -33 10q-21 13 -88 70.5t-83 77t-16 40.5q0 29 35.5 64t64.5 35z" />
    <glyph glyph-name="glyph347" unicode="&#x1ec2;" horiz-adv-x="1050" 
d="M671 1253q-26 -166 -138 -459q161 26 247 26q112 0 112 -71q0 -34 -13 -66q-17 -41 -45 -41q-12 0 -36 21q-27 22 -42.5 26.5t-70.5 4.5q-64 0 -197 -15q-157 -383 -157 -488q0 -58 68 -58q99 0 213 84q103 75 161 169q16 29 53 78q16 16 38 16q18 0 32.5 -15.5
t14.5 -33.5t-15 -53q-70 -161 -94 -259q-30 -120 -95 -120q-22 0 -76 14q-77 20 -265 20q-158 0 -256 -21q-51 -11 -80 -11q-71 0 -71 88q0 181 238 780q105 264 105 321q0 35 -41.5 57.5t-41.5 45.5q0 50 64 49q152 -3 155 -3q32 0 114 9q282 31 354 31q220 0 220 -77
q0 -4 -54 -184q-12 -39 -32 -116q-12 -57 -25 -74q-16 -21 -42 -21q-52 0 -52 60q0 25 7 74.5t7 74.5q0 81 -36.5 113t-118.5 32q-55 0 -109 -8zM785 1648q-54 -40 -107 -80q-83 -61 -108 -61q-18 0 -39.5 32.5t-21.5 52.5q0 21 39 43q117 68 188 116q63 43 82 43
q29 0 84 -74q29 -36 57 -71q43 -55 43 -68q0 -17 -34.5 -47.5t-52.5 -30.5q-15 0 -66 63zM1002 2048q-65 0 -65 -40q0 -4 1.5 -13.5t1.5 -14.5q0 -41 -41 -41t-41 43q0 49 42 96q54 62 151 62q69 0 114.5 -45t45.5 -115q0 -60 -63 -101q-26 -17 -114 -52q-15 -5 -29 -16
q15 -22 15 -25q0 -35 -57 -35q-67 0 -67 55q0 47 84 88.5t84 94.5q0 59 -62 59z" />
    <glyph glyph-name="glyph348" unicode="&#x1ec3;" horiz-adv-x="844" 
d="M325 530q-75 -159 -75 -283q0 -86 64 -86q65 0 169.5 85.5t122.5 85.5q40 0 40 -42q0 -47 -124 -150q-178 -148 -335 -148q-123 0 -196 69t-73 191q0 242 232 495q237 257 476 257q101 0 163 -49q68 -54 68 -153q0 -141 -123.5 -261.5t-265.5 -120.5q-107 0 -143 110z
M372 637q17 4 28 4q50 0 50 -58q0 -8 -4 -23.5t-4 -23.5q0 -15 14 -15q18 0 52 38q43 48 84 139q44 96 44 155q0 43 -35 43q-53 0 -133 -105q-60 -79 -96 -154zM709 1350q-54 -40 -107 -80q-85 -61 -108 -61q-18 0 -39.5 32.5t-21.5 52.5q0 21 39 43q95 54 188 117
q62 42 82 42q29 0 84 -74q29 -35 58 -71q42 -53 42 -68q0 -17 -34.5 -47.5t-52.5 -30.5q-15 0 -66 63zM925 1750q-65 0 -65 -40q0 -4 1.5 -13.5t1.5 -14.5q0 -41 -41 -41t-41 43q0 49 42 96q54 62 151 62q69 0 114.5 -45t45.5 -115q0 -60 -63 -101q-26 -17 -114 -52
q-15 -5 -29 -16q15 -22 15 -25q0 -35 -57 -35q-67 0 -67 55q0 47 84 88.5t84 94.5q0 59 -62 59z" />
    <glyph glyph-name="glyph349" unicode="&#x1ec4;" horiz-adv-x="1050" 
d="M671 1253q-26 -166 -138 -459q161 26 247 26q112 0 112 -71q0 -34 -13 -66q-17 -41 -45 -41q-12 0 -36 21q-27 22 -42.5 26.5t-70.5 4.5q-64 0 -197 -15q-157 -383 -157 -488q0 -58 68 -58q99 0 213 84q103 75 161 169q16 29 53 78q16 16 38 16q18 0 32.5 -15.5
t14.5 -33.5t-15 -53q-70 -161 -94 -259q-30 -120 -95 -120q-22 0 -76 14q-77 20 -265 20q-158 0 -256 -21q-51 -11 -80 -11q-71 0 -71 88q0 181 238 780q105 264 105 321q0 35 -41.5 57.5t-41.5 45.5q0 50 64 49q152 -3 155 -3q32 0 114 9q282 31 354 31q220 0 220 -77
q0 -4 -54 -184q-12 -39 -32 -116q-12 -57 -25 -74q-16 -21 -42 -21q-52 0 -52 60q0 25 7 74.5t7 74.5q0 81 -36.5 113t-118.5 32q-55 0 -109 -8zM785 1648q-54 -40 -107 -80q-83 -61 -108 -61q-18 0 -39.5 32.5t-21.5 52.5q0 21 39 43q117 68 188 116q63 43 82 43
q29 0 84 -74q29 -36 57 -71q43 -55 43 -68q0 -17 -34.5 -47.5t-52.5 -30.5q-15 0 -66 63zM832 1901q-17 0 -58.5 -28t-63.5 -28q-23 0 -40 18.5t-17 41.5q0 52 58.5 109.5t111.5 57.5q28 0 71 -29.5t56 -29.5q14 0 57.5 27.5t67.5 27.5q58 0 58 -56q0 -48 -57 -109t-103 -61
q-23 0 -73.5 29.5t-67.5 29.5z" />
    <glyph glyph-name="glyph350" unicode="&#x1ec5;" horiz-adv-x="844" 
d="M325 530q-75 -159 -75 -283q0 -86 64 -86q65 0 169.5 85.5t122.5 85.5q40 0 40 -42q0 -47 -124 -150q-178 -148 -335 -148q-123 0 -196 69t-73 191q0 242 232 495q237 257 476 257q101 0 163 -49q68 -54 68 -153q0 -141 -123.5 -261.5t-265.5 -120.5q-107 0 -143 110z
M372 637q17 4 28 4q50 0 50 -58q0 -8 -4 -23.5t-4 -23.5q0 -15 14 -15q18 0 52 38q43 48 84 139q44 96 44 155q0 43 -35 43q-53 0 -133 -105q-60 -79 -96 -154zM709 1350q-54 -40 -107 -80q-85 -61 -108 -61q-18 0 -39.5 32.5t-21.5 52.5q0 21 39 43q95 54 188 117
q62 42 82 42q29 0 84 -74q29 -35 58 -71q42 -53 42 -68q0 -17 -34.5 -47.5t-52.5 -30.5q-15 0 -66 63zM756 1604q-17 0 -58.5 -28t-63.5 -28q-23 0 -40 18.5t-17 41.5q0 52 58.5 109.5t111.5 57.5q28 0 71 -29.5t56 -29.5q14 0 57.5 27.5t67.5 27.5q58 0 58 -56
q0 -48 -57 -109t-103 -61q-23 0 -73.5 29.5t-67.5 29.5z" />
    <glyph glyph-name="glyph351" unicode="&#x1ec6;" horiz-adv-x="1050" 
d="M671 1253q-26 -166 -138 -459q161 26 247 26q112 0 112 -71q0 -34 -13 -66q-17 -41 -45 -41q-12 0 -36 21q-27 22 -42.5 26.5t-70.5 4.5q-64 0 -197 -15q-157 -383 -157 -488q0 -58 68 -58q99 0 213 84q103 75 161 169q16 29 53 78q16 16 38 16q18 0 32.5 -15.5
t14.5 -33.5t-15 -53q-70 -161 -94 -259q-30 -120 -95 -120q-22 0 -76 14q-77 20 -265 20q-158 0 -256 -21q-51 -11 -80 -11q-71 0 -71 88q0 181 238 780q105 264 105 321q0 35 -41.5 57.5t-41.5 45.5q0 50 64 49q152 -3 155 -3q32 0 114 9q282 31 354 31q220 0 220 -77
q0 -4 -54 -184q-12 -39 -32 -116q-12 -57 -25 -74q-16 -21 -42 -21q-52 0 -52 60q0 25 7 74.5t7 74.5q0 81 -36.5 113t-118.5 32q-55 0 -109 -8zM785 1648q-54 -40 -107 -80q-83 -61 -108 -61q-18 0 -39.5 32.5t-21.5 52.5q0 21 39 43q117 68 188 116q63 43 82 43
q29 0 84 -74q29 -36 57 -71q43 -55 43 -68q0 -17 -34.5 -47.5t-52.5 -30.5q-15 0 -66 63zM333 -123q55 0 93 -38t38 -93q0 -78 -90 -138q-81 -55 -164 -55q-57 0 -96.5 38t-39.5 95q0 85 90 142q78 49 169 49z" />
    <glyph glyph-name="glyph352" unicode="&#x1ec7;" horiz-adv-x="844" 
d="M325 530q-75 -159 -75 -283q0 -86 64 -86q65 0 169.5 85.5t122.5 85.5q40 0 40 -42q0 -47 -124 -150q-178 -148 -335 -148q-123 0 -196 69t-73 191q0 242 232 495q237 257 476 257q101 0 163 -49q68 -54 68 -153q0 -141 -123.5 -261.5t-265.5 -120.5q-107 0 -143 110z
M372 637q17 4 28 4q50 0 50 -58q0 -8 -4 -23.5t-4 -23.5q0 -15 14 -15q18 0 52 38q43 48 84 139q44 96 44 155q0 43 -35 43q-53 0 -133 -105q-60 -79 -96 -154zM709 1350q-54 -40 -107 -80q-85 -61 -108 -61q-18 0 -39.5 32.5t-21.5 52.5q0 21 39 43q95 54 188 117
q62 42 82 42q29 0 84 -74q29 -35 58 -71q42 -53 42 -68q0 -17 -34.5 -47.5t-52.5 -30.5q-15 0 -66 63zM181 -123q55 0 93 -38t38 -93q0 -78 -90 -138q-81 -55 -164 -55q-57 0 -96.5 38t-39.5 95q0 85 90 142q78 49 169 49z" />
    <glyph glyph-name="glyph353" unicode="&#x1ec8;" horiz-adv-x="621" 
d="M262 1339q20 0 60 -2.5t61 -2.5q68 0 172 33q35 11 50 11q57 0 57 -94q0 -138 -172 -589q-153 -401 -153 -474q0 -39 42.5 -59.5t42.5 -48.5q0 -31 -37 -44q-8 -3 -84 -10q-128 -12 -217 -46q-42 -16 -65 -16q-61 0 -61 91q0 163 121 489l184 490q29 94 29 120
q0 30 -41.5 52t-41.5 49q0 51 53 51zM532 1752q-65 0 -65 -40q0 -4 1.5 -13.5t1.5 -14.5q0 -41 -41 -41t-41 43q0 49 42 96q54 62 151 62q69 0 114.5 -45t45.5 -115q0 -60 -63 -101q-26 -17 -114 -52q-15 -5 -29 -16q15 -22 15 -25q0 -35 -57 -35q-67 0 -67 55q0 47 84 88.5
t84 94.5q0 59 -62 59z" />
    <glyph glyph-name="glyph354" unicode="&#x1ec9;" horiz-adv-x="558" 
d="M179 966q137 0 232 28q37 11 53 11q52 0 52 -87q0 -105 -90 -317q-108 -254 -124 -322q-13 -56 -15 -147q-1 -38 -16.5 -54t-65.5 -23q-72 -11 -176 -45q-27 -9 -43 -9q-47 0 -47 87q0 112 64 280q19 49 117 267q66 147 66 194q0 38 -54.5 52t-54.5 44q0 35 38 41
q-1 0 64 0zM401 1477q-65 0 -65 -40q0 -4 1.5 -13.5t1.5 -14.5q0 -41 -41 -41t-41 43q0 49 42 96q54 62 151 62q69 0 114.5 -45t45.5 -115q0 -60 -63 -101q-26 -17 -114 -52q-15 -5 -29 -16q15 -22 15 -25q0 -35 -57 -35q-67 0 -67 55q0 47 84 88.5t84 94.5q0 59 -62 59z
" />
    <glyph glyph-name="glyph355" unicode="&#x1eca;" horiz-adv-x="621" 
d="M262 1339q20 0 60 -2.5t61 -2.5q68 0 172 33q35 11 50 11q57 0 57 -94q0 -138 -172 -589q-153 -401 -153 -474q0 -39 42.5 -59.5t42.5 -48.5q0 -31 -37 -44q-8 -3 -84 -10q-128 -12 -217 -46q-42 -16 -65 -16q-61 0 -61 91q0 163 121 489l184 490q29 94 29 120
q0 30 -41.5 52t-41.5 49q0 51 53 51zM167 -123q55 0 93 -38t38 -93q0 -78 -90 -138q-81 -55 -164 -55q-57 0 -96.5 38t-39.5 95q0 85 90 142q78 49 169 49z" />
    <glyph glyph-name="glyph356" unicode="&#x1ecb;" horiz-adv-x="560" 
d="M179 966q137 0 232 28q37 11 53 11q52 0 52 -87q0 -105 -90 -317q-108 -254 -124 -322q-13 -56 -15 -147q-1 -38 -16.5 -54t-65.5 -23q-72 -11 -176 -45q-27 -9 -43 -9q-47 0 -47 87q0 112 64 280q19 49 117 267q66 147 66 194q0 38 -54.5 52t-54.5 44q0 35 38 41
q-1 0 64 0zM455 1404q56 0 94 -37.5t38 -93.5q0 -78 -88 -138q-80 -55 -162 -55q-58 0 -98 38t-40 95q0 82 90 140q79 51 166 51zM111 -123q55 0 93 -38t38 -93q0 -78 -90 -138q-81 -55 -164 -55q-57 0 -96.5 38t-39.5 95q0 85 90 142q78 49 169 49z" />
    <glyph glyph-name="glyph357" unicode="&#x1ecc;" 
d="M868 1377q158 0 240 -100q74 -91 74 -253q0 -207 -128.5 -450t-322.5 -402q-213 -175 -424 -175q-154 0 -243 103q-84 98 -84 254q0 219 126.5 460t322.5 395q215 168 439 168zM819 1257q-56 0 -129 -64q-136 -120 -241 -374q-102 -247 -102 -436q0 -71 25 -121
q31 -65 95 -65q156 0 303 297q156 314 156 589q0 174 -107 174zM349 -123q55 0 93 -38t38 -93q0 -78 -90 -138q-81 -55 -164 -55q-57 0 -96.5 38t-39.5 95q0 85 90 142q78 49 169 49z" />
    <glyph glyph-name="glyph358" unicode="&#x1ecd;" horiz-adv-x="906" 
d="M632 1002q233 0 233 -236q0 -243 -220 -503q-228 -270 -467 -270q-119 0 -189.5 70.5t-70.5 189.5q0 244 234 495q238 254 480 254zM597 893q-80 0 -191 -197q-82 -147 -122 -273q-34 -107 -34 -171q0 -88 63 -88q44 0 107 68q83 91 159 272q77 185 77 303q0 86 -59 86z
M215 -123q55 0 93 -38t38 -93q0 -78 -90 -138q-81 -55 -164 -55q-57 0 -96.5 38t-39.5 95q0 85 90 142q78 49 169 49z" />
    <glyph glyph-name="glyph359" unicode="&#x1ece;" 
d="M868 1377q158 0 240 -100q74 -91 74 -253q0 -207 -128.5 -450t-322.5 -402q-213 -175 -424 -175q-154 0 -243 103q-84 98 -84 254q0 219 126.5 460t322.5 395q215 168 439 168zM819 1257q-56 0 -129 -64q-136 -120 -241 -374q-102 -247 -102 -436q0 -71 25 -121
q31 -65 95 -65q156 0 303 297q156 314 156 589q0 174 -107 174zM944 1752q-65 0 -65 -40q0 -4 1.5 -13.5t1.5 -14.5q0 -41 -41 -41t-41 43q0 49 42 96q54 62 151 62q69 0 114.5 -45t45.5 -115q0 -60 -63 -101q-26 -17 -114 -52q-15 -5 -29 -16q15 -22 15 -25q0 -35 -57 -35
q-67 0 -67 55q0 47 84 88.5t84 94.5q0 59 -62 59z" />
    <glyph glyph-name="glyph360" unicode="&#x1ecf;" horiz-adv-x="906" 
d="M632 1002q233 0 233 -236q0 -243 -220 -503q-228 -270 -467 -270q-119 0 -189.5 70.5t-70.5 189.5q0 244 234 495q238 254 480 254zM597 893q-80 0 -191 -197q-82 -147 -122 -273q-34 -107 -34 -171q0 -88 63 -88q44 0 107 68q83 91 159 272q77 185 77 303q0 86 -59 86z
M697 1477q-65 0 -65 -40q0 -4 1.5 -13.5t1.5 -14.5q0 -41 -41 -41t-41 43q0 49 42 96q54 62 151 62q69 0 114.5 -45t45.5 -115q0 -60 -63 -101q-26 -17 -114 -52q-15 -5 -29 -16q15 -22 15 -25q0 -35 -57 -35q-67 0 -67 55q0 47 84 88.5t84 94.5q0 59 -62 59z" />
    <glyph glyph-name="glyph361" unicode="&#x1ed0;" 
d="M868 1377q158 0 240 -100q74 -91 74 -253q0 -207 -128.5 -450t-322.5 -402q-213 -175 -424 -175q-154 0 -243 103q-84 98 -84 254q0 219 126.5 460t322.5 395q215 168 439 168zM819 1257q-56 0 -129 -64q-136 -120 -241 -374q-102 -247 -102 -436q0 -71 25 -121
q31 -65 95 -65q156 0 303 297q156 314 156 589q0 174 -107 174zM927 1648q-54 -40 -107 -80q-83 -61 -108 -61q-18 0 -39.5 32.5t-21.5 52.5q0 21 39 43q117 68 188 116q63 43 82 43q29 0 84 -74q29 -36 57 -71q43 -55 43 -68q0 -17 -34.5 -47.5t-52.5 -30.5q-15 0 -66 63z
M911 2111q31 0 65.5 -35t34.5 -66q0 -19 -17.5 -40.5t-81 -75.5t-88.5 -70q-16 -10 -32 -10q-26 0 -52 25.5t-26 51.5q0 20 12 38q65 99 147 166q20 16 38 16z" />
    <glyph glyph-name="glyph362" unicode="&#x1ed1;" horiz-adv-x="906" 
d="M632 1002q233 0 233 -236q0 -243 -220 -503q-228 -270 -467 -270q-119 0 -189.5 70.5t-70.5 189.5q0 244 234 495q238 254 480 254zM597 893q-80 0 -191 -197q-82 -147 -122 -273q-34 -107 -34 -171q0 -88 63 -88q44 0 107 68q83 91 159 272q77 185 77 303q0 86 -59 86z
M714 1350q-54 -40 -107 -80q-85 -61 -108 -61q-18 0 -39.5 32.5t-21.5 52.5q0 21 39 43q95 54 188 117q62 42 82 42q29 0 84 -74q29 -35 58 -71q42 -53 42 -68q0 -17 -34.5 -47.5t-52.5 -30.5q-15 0 -66 63zM698 1813q31 0 65.5 -35t34.5 -66q0 -19 -17.5 -40.5t-81 -75.5
t-88.5 -70q-16 -10 -32 -10q-26 0 -52 25.5t-26 51.5q0 20 12 38q65 99 147 166q20 16 38 16z" />
    <glyph glyph-name="glyph363" unicode="&#x1ed2;" 
d="M868 1377q158 0 240 -100q74 -91 74 -253q0 -207 -128.5 -450t-322.5 -402q-213 -175 -424 -175q-154 0 -243 103q-84 98 -84 254q0 219 126.5 460t322.5 395q215 168 439 168zM819 1257q-56 0 -129 -64q-136 -120 -241 -374q-102 -247 -102 -436q0 -71 25 -121
q31 -65 95 -65q156 0 303 297q156 314 156 589q0 174 -107 174zM927 1648q-54 -40 -107 -80q-83 -61 -108 -61q-18 0 -39.5 32.5t-21.5 52.5q0 21 39 43q117 68 188 116q63 43 82 43q29 0 84 -74q29 -36 57 -71q43 -55 43 -68q0 -17 -34.5 -47.5t-52.5 -30.5q-15 0 -66 63z
M1022 2109q18 0 38 -16q86 -73 147 -165q12 -20 12 -39q0 -26 -25.5 -51.5t-51.5 -25.5q-17 0 -33 10q-21 13 -88 70.5t-83 77t-16 40.5q0 29 35.5 64t64.5 35z" />
    <glyph glyph-name="glyph364" unicode="&#x1ed3;" horiz-adv-x="906" 
d="M632 1002q233 0 233 -236q0 -243 -220 -503q-228 -270 -467 -270q-119 0 -189.5 70.5t-70.5 189.5q0 244 234 495q238 254 480 254zM597 893q-80 0 -191 -197q-82 -147 -122 -273q-34 -107 -34 -171q0 -88 63 -88q44 0 107 68q83 91 159 272q77 185 77 303q0 86 -59 86z
M714 1350q-54 -40 -107 -80q-85 -61 -108 -61q-18 0 -39.5 32.5t-21.5 52.5q0 21 39 43q95 54 188 117q62 42 82 42q29 0 84 -74q29 -35 58 -71q42 -53 42 -68q0 -17 -34.5 -47.5t-52.5 -30.5q-15 0 -66 63zM809 1812q18 0 38 -16q86 -73 147 -165q12 -20 12 -39
q0 -26 -25.5 -51.5t-51.5 -25.5q-17 0 -33 10q-21 13 -88 70.5t-83 77t-16 40.5q0 29 35.5 64t64.5 35z" />
    <glyph glyph-name="glyph365" unicode="&#x1ed4;" 
d="M868 1377q158 0 240 -100q74 -91 74 -253q0 -207 -128.5 -450t-322.5 -402q-213 -175 -424 -175q-154 0 -243 103q-84 98 -84 254q0 219 126.5 460t322.5 395q215 168 439 168zM819 1257q-56 0 -129 -64q-136 -120 -241 -374q-102 -247 -102 -436q0 -71 25 -121
q31 -65 95 -65q156 0 303 297q156 314 156 589q0 174 -107 174zM927 1648q-54 -40 -107 -80q-83 -61 -108 -61q-18 0 -39.5 32.5t-21.5 52.5q0 21 39 43q117 68 188 116q63 43 82 43q29 0 84 -74q29 -36 57 -71q43 -55 43 -68q0 -17 -34.5 -47.5t-52.5 -30.5q-15 0 -66 63z
M1143 2048q-65 0 -65 -40q0 -4 1.5 -13.5t1.5 -14.5q0 -41 -41 -41t-41 43q0 49 42 96q54 62 151 62q69 0 114.5 -45t45.5 -115q0 -60 -63 -101q-26 -17 -114 -52q-15 -5 -29 -16q15 -22 15 -25q0 -35 -57 -35q-67 0 -67 55q0 47 84 88.5t84 94.5q0 59 -62 59z" />
    <glyph glyph-name="glyph366" unicode="&#x1ed5;" horiz-adv-x="906" 
d="M632 1002q233 0 233 -236q0 -243 -220 -503q-228 -270 -467 -270q-119 0 -189.5 70.5t-70.5 189.5q0 244 234 495q238 254 480 254zM597 893q-80 0 -191 -197q-82 -147 -122 -273q-34 -107 -34 -171q0 -88 63 -88q44 0 107 68q83 91 159 272q77 185 77 303q0 86 -59 86z
M714 1350q-54 -40 -107 -80q-85 -61 -108 -61q-18 0 -39.5 32.5t-21.5 52.5q0 21 39 43q95 54 188 117q62 42 82 42q29 0 84 -74q29 -35 58 -71q42 -53 42 -68q0 -17 -34.5 -47.5t-52.5 -30.5q-15 0 -66 63zM930 1750q-65 0 -65 -40q0 -4 1.5 -13.5t1.5 -14.5q0 -41 -41 -41
t-41 43q0 49 42 96q54 62 151 62q69 0 114.5 -45t45.5 -115q0 -60 -63 -101q-26 -17 -114 -52q-15 -5 -29 -16q15 -22 15 -25q0 -35 -57 -35q-67 0 -67 55q0 47 84 88.5t84 94.5q0 59 -62 59z" />
    <glyph glyph-name="glyph367" unicode="&#x1ed6;" 
d="M868 1377q158 0 240 -100q74 -91 74 -253q0 -207 -128.5 -450t-322.5 -402q-213 -175 -424 -175q-154 0 -243 103q-84 98 -84 254q0 219 126.5 460t322.5 395q215 168 439 168zM819 1257q-56 0 -129 -64q-136 -120 -241 -374q-102 -247 -102 -436q0 -71 25 -121
q31 -65 95 -65q156 0 303 297q156 314 156 589q0 174 -107 174zM927 1648q-54 -40 -107 -80q-83 -61 -108 -61q-18 0 -39.5 32.5t-21.5 52.5q0 21 39 43q117 68 188 116q63 43 82 43q29 0 84 -74q29 -36 57 -71q43 -55 43 -68q0 -17 -34.5 -47.5t-52.5 -30.5q-15 0 -66 63z
M973 1902q-17 0 -58.5 -28t-63.5 -28q-23 0 -40 18.5t-17 41.5q0 52 58.5 109.5t111.5 57.5q28 0 71 -29.5t56 -29.5q14 0 57.5 27.5t67.5 27.5q58 0 58 -56q0 -48 -57 -109t-103 -61q-23 0 -73.5 29.5t-67.5 29.5z" />
    <glyph glyph-name="glyph368" unicode="&#x1ed7;" horiz-adv-x="906" 
d="M632 1002q233 0 233 -236q0 -243 -220 -503q-228 -270 -467 -270q-119 0 -189.5 70.5t-70.5 189.5q0 244 234 495q238 254 480 254zM597 893q-80 0 -191 -197q-82 -147 -122 -273q-34 -107 -34 -171q0 -88 63 -88q44 0 107 68q83 91 159 272q77 185 77 303q0 86 -59 86z
M714 1350q-54 -40 -107 -80q-85 -61 -108 -61q-18 0 -39.5 32.5t-21.5 52.5q0 21 39 43q95 54 188 117q62 42 82 42q29 0 84 -74q29 -35 58 -71q42 -53 42 -68q0 -17 -34.5 -47.5t-52.5 -30.5q-15 0 -66 63zM761 1604q-17 0 -58.5 -28t-63.5 -28q-23 0 -40 18.5t-17 41.5
q0 52 58.5 109.5t111.5 57.5q28 0 71 -29.5t56 -29.5q14 0 57.5 27.5t67.5 27.5q58 0 58 -56q0 -48 -57 -109t-103 -61q-23 0 -73.5 29.5t-67.5 29.5z" />
    <glyph glyph-name="glyph369" unicode="&#x1ed8;" 
d="M868 1377q158 0 240 -100q74 -91 74 -253q0 -207 -128.5 -450t-322.5 -402q-213 -175 -424 -175q-154 0 -243 103q-84 98 -84 254q0 219 126.5 460t322.5 395q215 168 439 168zM819 1257q-56 0 -129 -64q-136 -120 -241 -374q-102 -247 -102 -436q0 -71 25 -121
q31 -65 95 -65q156 0 303 297q156 314 156 589q0 174 -107 174zM927 1648q-54 -40 -107 -80q-83 -61 -108 -61q-18 0 -39.5 32.5t-21.5 52.5q0 21 39 43q117 68 188 116q63 43 82 43q29 0 84 -74q29 -36 57 -71q43 -55 43 -68q0 -17 -34.5 -47.5t-52.5 -30.5q-15 0 -66 63z
M349 -123q55 0 93 -38t38 -93q0 -78 -90 -138q-81 -55 -164 -55q-57 0 -96.5 38t-39.5 95q0 85 90 142q78 49 169 49z" />
    <glyph glyph-name="glyph370" unicode="&#x1ed9;" horiz-adv-x="906" 
d="M632 1002q233 0 233 -236q0 -243 -220 -503q-228 -270 -467 -270q-119 0 -189.5 70.5t-70.5 189.5q0 244 234 495q238 254 480 254zM597 893q-80 0 -191 -197q-82 -147 -122 -273q-34 -107 -34 -171q0 -88 63 -88q44 0 107 68q83 91 159 272q77 185 77 303q0 86 -59 86z
M714 1350q-54 -40 -107 -80q-85 -61 -108 -61q-18 0 -39.5 32.5t-21.5 52.5q0 21 39 43q95 54 188 117q62 42 82 42q29 0 84 -74q29 -35 58 -71q42 -53 42 -68q0 -17 -34.5 -47.5t-52.5 -30.5q-15 0 -66 63zM215 -123q55 0 93 -38t38 -93q0 -78 -90 -138q-81 -55 -164 -55
q-57 0 -96.5 38t-39.5 95q0 85 90 142q78 49 169 49z" />
    <glyph glyph-name="glyph371" unicode="&#x1eda;" 
d="M819 1257q-56 0 -129 -64q-136 -120 -241 -374q-102 -247 -102 -436q0 -71 25 -121q31 -65 95 -65q156 0 303 297q156 314 156 589q0 174 -107 174zM1216 1335q-35 -9 -63 -9q-57 0 -95.5 37.5t-38.5 94.5q0 83 76 141q70 55 155 55q75 0 125.5 -45t50.5 -118
q0 -120 -102 -226q-80 -83 -147 -83q-9 0 -18 2q23 -68 23 -160q0 -173 -91 -373q-81 -179 -208 -327q-281 -327 -576 -327q-154 0 -243 103q-84 98 -84 254q0 219 126.5 460t323.5 395q214 168 438 168q161 0 244 -105q14 17 49 34q45 22 55 29zM959 1793q32 0 66.5 -34.5
t34.5 -66.5q0 -20 -16.5 -40t-82 -76t-88.5 -70q-16 -10 -33 -10q-25 0 -51 26t-26 51q0 20 12 38q61 92 146 165q21 17 38 17z" />
    <glyph glyph-name="glyph372" unicode="&#x1edb;" horiz-adv-x="906" 
d="M597 893q-80 0 -191 -197q-82 -147 -122 -273q-34 -107 -34 -171q0 -88 63 -88q44 0 107 68q83 91 159 272q77 185 77 303q0 86 -59 86zM751 979q-8 22 -8 47q0 83 76 141q70 55 155 55q74 0 125 -45t51 -118q0 -121 -102 -226q-80 -83 -147 -83q-19 0 -36 9
q-4 -243 -222 -499q-227 -267 -465 -267q-119 0 -189.5 70.5t-70.5 189.5q0 244 234 494q238 255 480 255q70 0 119 -23zM940 903q-36 -9 -63 -9q-22 0 -41 5q11 -20 17 -43q30 14 87 47zM764 1495q31 0 65.5 -35t34.5 -66q0 -19 -17.5 -40.5t-81 -75.5t-88.5 -70
q-16 -10 -32 -10q-26 0 -52 25.5t-26 51.5q0 20 12 38q65 99 147 166q20 16 38 16z" />
    <glyph glyph-name="glyph373" unicode="&#x1edc;" 
d="M819 1257q-56 0 -129 -64q-136 -120 -241 -374q-102 -247 -102 -436q0 -71 25 -121q31 -65 95 -65q156 0 303 297q156 314 156 589q0 174 -107 174zM1216 1335q-35 -9 -63 -9q-57 0 -95.5 37.5t-38.5 94.5q0 83 76 141q70 55 155 55q75 0 125.5 -45t50.5 -118
q0 -120 -102 -226q-80 -83 -147 -83q-9 0 -18 2q23 -68 23 -160q0 -173 -91 -373q-81 -179 -208 -327q-281 -327 -576 -327q-154 0 -243 103q-84 98 -84 254q0 219 126.5 460t323.5 395q214 168 438 168q161 0 244 -105q14 17 49 34q45 22 55 29zM771 1793q17 0 38 -17
q87 -74 146 -164q12 -20 12 -39q0 -25 -26 -51t-51 -26q-17 0 -33 10q-20 13 -88 71t-82 76q-17 20 -17 41q0 29 36 64t65 35z" />
    <glyph glyph-name="glyph374" unicode="&#x1edd;" horiz-adv-x="906" 
d="M597 893q-80 0 -191 -197q-82 -147 -122 -273q-34 -107 -34 -171q0 -88 63 -88q44 0 107 68q83 91 159 272q77 185 77 303q0 86 -59 86zM751 979q-8 22 -8 47q0 83 76 141q70 55 155 55q74 0 125 -45t51 -118q0 -121 -102 -226q-80 -83 -147 -83q-19 0 -36 9
q-4 -243 -222 -499q-227 -267 -465 -267q-119 0 -189.5 70.5t-70.5 189.5q0 244 234 494q238 255 480 255q70 0 119 -23zM940 903q-36 -9 -63 -9q-22 0 -41 5q11 -20 17 -43q30 14 87 47zM574 1495q18 0 38 -16q86 -73 147 -165q12 -20 12 -39q0 -26 -25.5 -51.5
t-51.5 -25.5q-17 0 -33 10q-21 13 -88 70.5t-83 77t-16 40.5q0 29 35.5 64t64.5 35z" />
    <glyph glyph-name="glyph375" unicode="&#x1ede;" 
d="M819 1257q-56 0 -129 -64q-136 -120 -241 -374q-102 -247 -102 -436q0 -71 25 -121q31 -65 95 -65q156 0 303 297q156 314 156 589q0 174 -107 174zM1216 1335q-35 -9 -63 -9q-57 0 -95.5 37.5t-38.5 94.5q0 83 76 141q70 55 155 55q75 0 125.5 -45t50.5 -118
q0 -120 -102 -226q-80 -83 -147 -83q-9 0 -18 2q23 -68 23 -160q0 -173 -91 -373q-81 -179 -208 -327q-281 -327 -576 -327q-154 0 -243 103q-84 98 -84 254q0 219 126.5 460t323.5 395q214 168 438 168q161 0 244 -105q14 17 49 34q45 22 55 29zM832 1752q-65 0 -65 -40
q0 -4 1.5 -13.5t1.5 -14.5q0 -41 -41 -41t-41 43q0 49 42 96q54 62 151 62q69 0 114.5 -45t45.5 -115q0 -60 -63 -101q-26 -17 -114 -52q-15 -5 -29 -16q15 -22 15 -25q0 -35 -57 -35q-67 0 -67 55q0 47 84 88.5t84 94.5q0 59 -62 59z" />
    <glyph glyph-name="glyph376" unicode="&#x1edf;" horiz-adv-x="906" 
d="M597 893q-80 0 -191 -197q-82 -147 -122 -273q-34 -107 -34 -171q0 -88 63 -88q44 0 107 68q83 91 159 272q77 185 77 303q0 86 -59 86zM751 979q-8 22 -8 47q0 83 76 141q70 55 155 55q74 0 125 -45t51 -118q0 -121 -102 -226q-80 -83 -147 -83q-19 0 -36 9
q-4 -243 -222 -499q-227 -267 -465 -267q-119 0 -189.5 70.5t-70.5 189.5q0 244 234 494q238 255 480 255q70 0 119 -23zM940 903q-36 -9 -63 -9q-22 0 -41 5q11 -20 17 -43q30 14 87 47zM661 1477q-65 0 -65 -40q0 -4 1.5 -13.5t1.5 -14.5q0 -41 -41 -41t-41 43q0 49 42 96
q54 62 151 62q69 0 114.5 -45t45.5 -115q0 -60 -63 -101q-26 -17 -114 -52q-15 -5 -29 -16q15 -22 15 -25q0 -35 -57 -35q-67 0 -67 55q0 47 84 88.5t84 94.5q0 59 -62 59z" />
    <glyph glyph-name="glyph377" unicode="&#x1ee0;" 
d="M819 1257q-56 0 -129 -64q-136 -120 -241 -374q-102 -247 -102 -436q0 -71 25 -121q31 -65 95 -65q156 0 303 297q156 314 156 589q0 174 -107 174zM1216 1335q-35 -9 -63 -9q-57 0 -95.5 37.5t-38.5 94.5q0 83 76 141q70 55 155 55q75 0 125.5 -45t50.5 -118
q0 -120 -102 -226q-80 -83 -147 -83q-9 0 -18 2q23 -68 23 -160q0 -173 -91 -373q-81 -179 -208 -327q-281 -327 -576 -327q-154 0 -243 103q-84 98 -84 254q0 219 126.5 460t323.5 395q214 168 438 168q161 0 244 -105q14 17 49 34q45 22 55 29zM762 1589q-18 0 -59 -28.5
t-63 -28.5q-23 0 -40 18.5t-17 41.5q0 53 58.5 110.5t111.5 57.5q28 0 71 -29.5t56 -29.5q14 0 57.5 27.5t67.5 27.5q23 0 40.5 -17t17.5 -39q0 -48 -56.5 -109t-103.5 -61q-23 0 -74 29.5t-67 29.5z" />
    <glyph glyph-name="glyph378" unicode="&#x1ee1;" horiz-adv-x="906" 
d="M597 893q-80 0 -191 -197q-82 -147 -122 -273q-34 -107 -34 -171q0 -88 63 -88q44 0 107 68q83 91 159 272q77 185 77 303q0 86 -59 86zM751 979q-8 22 -8 47q0 83 76 141q70 55 155 55q74 0 125 -45t51 -118q0 -121 -102 -226q-80 -83 -147 -83q-19 0 -36 9
q-4 -243 -222 -499q-227 -267 -465 -267q-119 0 -189.5 70.5t-70.5 189.5q0 244 234 494q238 255 480 255q70 0 119 -23zM940 903q-36 -9 -63 -9q-22 0 -41 5q11 -20 17 -43q30 14 87 47zM529 1290q-17 0 -58.5 -28t-63.5 -28q-23 0 -40 18.5t-17 41.5q0 52 58.5 109.5
t111.5 57.5q28 0 71 -29.5t56 -29.5q14 0 57.5 27.5t67.5 27.5q58 0 58 -56q0 -48 -57 -109t-103 -61q-23 0 -73.5 29.5t-67.5 29.5z" />
    <glyph glyph-name="glyph379" unicode="&#x1ee2;" 
d="M819 1257q-56 0 -129 -64q-136 -120 -241 -374q-102 -247 -102 -436q0 -71 25 -121q31 -65 95 -65q156 0 303 297q156 314 156 589q0 174 -107 174zM1216 1335q-35 -9 -63 -9q-57 0 -95.5 37.5t-38.5 94.5q0 83 76 141q70 55 155 55q75 0 125.5 -45t50.5 -118
q0 -120 -102 -226q-80 -83 -147 -83q-9 0 -18 2q23 -68 23 -160q0 -173 -91 -373q-81 -179 -208 -327q-281 -327 -576 -327q-154 0 -243 103q-84 98 -84 254q0 219 126.5 460t323.5 395q214 168 438 168q161 0 244 -105q14 17 49 34q45 22 55 29zM349 -123q55 0 93 -38
t38 -93q0 -78 -90 -138q-81 -55 -164 -55q-57 0 -96.5 38t-39.5 95q0 85 90 142q78 49 169 49z" />
    <glyph glyph-name="glyph380" unicode="&#x1ee3;" horiz-adv-x="906" 
d="M597 893q-80 0 -191 -197q-82 -147 -122 -273q-34 -107 -34 -171q0 -88 63 -88q44 0 107 68q83 91 159 272q77 185 77 303q0 86 -59 86zM751 979q-8 22 -8 47q0 83 76 141q70 55 155 55q74 0 125 -45t51 -118q0 -121 -102 -226q-80 -83 -147 -83q-19 0 -36 9
q-4 -243 -222 -499q-227 -267 -465 -267q-119 0 -189.5 70.5t-70.5 189.5q0 244 234 494q238 255 480 255q70 0 119 -23zM940 903q-36 -9 -63 -9q-22 0 -41 5q11 -20 17 -43q30 14 87 47zM215 -123q55 0 93 -38t38 -93q0 -78 -90 -138q-81 -55 -164 -55q-57 0 -96.5 38
t-39.5 95q0 85 90 142q78 49 169 49z" />
    <glyph glyph-name="glyph381" unicode="&#x1ee4;" horiz-adv-x="1152" 
d="M254 1334q14 0 41 -2.5t41 -2.5q105 0 193 30q44 15 64 15q58 0 58 -93q0 -135 -232 -744q-78 -205 -78 -265q0 -54 38 -86t93 -32q205 0 358 354q136 314 136 554q0 87 -39 131q-18 21 -71 48q-39 20 -39 47q0 25 18 36q11 7 71 9q84 2 168 28q43 13 59 13q67 0 67 -144
q0 -288 -238 -750q-137 -265 -296 -383q-139 -103 -313 -103q-144 0 -242 70q-111 79 -111 218q0 97 87 334q38 105 119 320q73 194 73 246q0 31 -41.5 56.5t-41.5 47.5q0 48 58 48zM349 -123q55 0 93 -38t38 -93q0 -78 -90 -138q-81 -55 -164 -55q-57 0 -96.5 38t-39.5 95
q0 85 90 142q78 49 169 49z" />
    <glyph glyph-name="glyph382" unicode="&#x1ee5;" horiz-adv-x="1058" 
d="M461 169q-88 -85 -145 -120q-86 -53 -178 -53q-83 0 -138 57.5t-55 140.5q0 84 78 261q60 132 120 263q30 77 30 110q0 41 -54.5 50t-54.5 45q0 32 41 39q10 2 66 2q142 0 220 26q38 13 61 13q53 0 53 -85q0 -87 -78 -282q-7 -19 -119 -274q-47 -107 -47 -136
q0 -30 30 -30q47 0 121 74q149 150 247 415q41 110 41 176q0 72 19 89q15 13 91 22q91 10 103 14q44 13 62 13q56 0 56 -87q0 -92 -80 -289q-61 -146 -122 -293q-27 -78 -27 -121q0 -40 52 -55t52 -50q0 -29 -37 -40q-6 -2 -88 -8q-100 -8 -226 -52q-26 -9 -44 -9
q-58 0 -58 90q0 23 8 84zM349 -123q55 0 93 -38t38 -93q0 -78 -90 -138q-81 -55 -164 -55q-57 0 -96.5 38t-39.5 95q0 85 90 142q78 49 169 49z" />
    <glyph glyph-name="glyph383" unicode="&#x1ee6;" horiz-adv-x="1152" 
d="M254 1334q14 0 41 -2.5t41 -2.5q105 0 193 30q44 15 64 15q58 0 58 -93q0 -135 -232 -744q-78 -205 -78 -265q0 -54 38 -86t93 -32q205 0 358 354q136 314 136 554q0 87 -39 131q-18 21 -71 48q-39 20 -39 47q0 25 18 36q11 7 71 9q84 2 168 28q43 13 59 13q67 0 67 -144
q0 -288 -238 -750q-137 -265 -296 -383q-139 -103 -313 -103q-144 0 -242 70q-111 79 -111 218q0 97 87 334q38 105 119 320q73 194 73 246q0 31 -41.5 56.5t-41.5 47.5q0 48 58 48zM820 1752q-65 0 -65 -40q0 -4 1.5 -13.5t1.5 -14.5q0 -41 -41 -41t-41 43q0 49 42 96
q54 62 151 62q69 0 114.5 -45t45.5 -115q0 -60 -63 -101q-26 -17 -114 -52q-15 -5 -29 -16q15 -22 15 -25q0 -35 -57 -35q-67 0 -67 55q0 47 84 88.5t84 94.5q0 59 -62 59z" />
    <glyph glyph-name="glyph384" unicode="&#x1ee7;" horiz-adv-x="1058" 
d="M461 169q-88 -85 -145 -120q-86 -53 -178 -53q-83 0 -138 57.5t-55 140.5q0 84 78 261q60 132 120 263q30 77 30 110q0 41 -54.5 50t-54.5 45q0 32 41 39q10 2 66 2q142 0 220 26q38 13 61 13q53 0 53 -85q0 -87 -78 -282q-7 -19 -119 -274q-47 -107 -47 -136
q0 -30 30 -30q47 0 121 74q149 150 247 415q41 110 41 176q0 72 19 89q15 13 91 22q91 10 103 14q44 13 62 13q56 0 56 -87q0 -92 -80 -289q-61 -146 -122 -293q-27 -78 -27 -121q0 -40 52 -55t52 -50q0 -29 -37 -40q-6 -2 -88 -8q-100 -8 -226 -52q-26 -9 -44 -9
q-58 0 -58 90q0 23 8 84zM661 1477q-65 0 -65 -40q0 -4 1.5 -13.5t1.5 -14.5q0 -41 -41 -41t-41 43q0 49 42 96q54 62 151 62q69 0 114.5 -45t45.5 -115q0 -60 -63 -101q-26 -17 -114 -52q-15 -5 -29 -16q15 -22 15 -25q0 -35 -57 -35q-67 0 -67 55q0 47 84 88.5t84 94.5
q0 59 -62 59z" />
    <glyph glyph-name="glyph385" unicode="&#x1ee8;" horiz-adv-x="1152" 
d="M1094 1367q-35 39 -35 91q0 83 76 141q70 55 155 55q74 0 125 -45t51 -118q0 -120 -102 -226q-80 -83 -147 -83q-9 0 -19 2q-21 -287 -236 -704q-137 -265 -296 -383q-139 -103 -313 -103q-144 0 -242 70q-111 79 -111 218q0 79 31 179q5 18 62 172q38 102 113 303
q73 194 73 246q0 31 -41.5 56.5t-41.5 47.5q0 48 58 48q14 0 41 -2.5t41 -2.5q105 0 193 30q44 15 64 15q58 0 58 -93q0 -135 -232 -744q-78 -205 -78 -265q0 -54 38 -86t93 -32q205 0 358 354q136 314 136 554q0 87 -39 131q-18 21 -71 48q-39 20 -39 47q0 25 18 36
q11 7 71 9q71 2 188 34zM1256 1335q-37 -10 -68 -9q4 -11 6 -24q22 9 62 33zM909 1793q32 0 66.5 -34.5t34.5 -66.5q0 -20 -16.5 -40t-82 -76t-88.5 -70q-16 -10 -33 -10q-25 0 -51 26t-26 51q0 20 12 38q61 92 146 165q21 17 38 17z" />
    <glyph glyph-name="glyph386" unicode="&#x1ee9;" horiz-adv-x="1058" 
d="M902 983q-7 20 -7 43q0 83 76 141q70 55 155 55q74 0 125 -45t51 -118q0 -120 -102 -226q-80 -83 -147 -83q-27 0 -50 19q-8 -27 -116 -288q-85 -207 -85 -272q0 -40 52 -55t52 -50q0 -29 -37 -40q-6 -2 -88 -8q-100 -8 -226 -52q-26 -9 -44 -9q-58 0 -58 90q0 23 8 84
q-88 -85 -145 -120q-86 -53 -178 -53q-83 0 -138 57.5t-55 140.5q0 84 78 261q60 132 120 263q30 77 30 110q0 41 -54.5 50t-54.5 45q0 32 41 39q10 2 66 2q142 0 220 26q38 13 61 13q53 0 53 -85q0 -87 -78 -282q-7 -19 -119 -274q-47 -107 -47 -136q0 -30 30 -30
q47 0 121 74q149 150 247 415q41 110 41 176q0 72 19 89q14 13 86 21q48 6 97 12zM1092 903q-35 -9 -62 -9q-1 -12 -3 -25q23 9 65 34zM772 1495q31 0 65.5 -35t34.5 -66q0 -19 -17.5 -40.5t-81 -75.5t-88.5 -70q-16 -10 -32 -10q-26 0 -52 25.5t-26 51.5q0 20 12 38
q65 99 147 166q20 16 38 16z" />
    <glyph glyph-name="glyph387" unicode="&#x1eea;" horiz-adv-x="1152" 
d="M1094 1367q-35 39 -35 91q0 83 76 141q70 55 155 55q74 0 125 -45t51 -118q0 -120 -102 -226q-80 -83 -147 -83q-9 0 -19 2q-21 -287 -236 -704q-137 -265 -296 -383q-139 -103 -313 -103q-144 0 -242 70q-111 79 -111 218q0 79 31 179q5 18 62 172q38 102 113 303
q73 194 73 246q0 31 -41.5 56.5t-41.5 47.5q0 48 58 48q14 0 41 -2.5t41 -2.5q105 0 193 30q44 15 64 15q58 0 58 -93q0 -135 -232 -744q-78 -205 -78 -265q0 -54 38 -86t93 -32q205 0 358 354q136 314 136 554q0 87 -39 131q-18 21 -71 48q-39 20 -39 47q0 25 18 36
q11 7 71 9q71 2 188 34zM1256 1335q-37 -10 -68 -9q4 -11 6 -24q22 9 62 33zM680 1793q17 0 38 -17q87 -74 146 -164q12 -20 12 -39q0 -25 -26 -51t-51 -26q-17 0 -33 10q-20 13 -88 71t-82 76q-17 20 -17 41q0 29 36 64t65 35z" />
    <glyph glyph-name="glyph388" unicode="&#x1eeb;" horiz-adv-x="1058" 
d="M902 983q-7 20 -7 43q0 83 76 141q70 55 155 55q74 0 125 -45t51 -118q0 -120 -102 -226q-80 -83 -147 -83q-27 0 -50 19q-8 -27 -116 -288q-85 -207 -85 -272q0 -40 52 -55t52 -50q0 -29 -37 -40q-6 -2 -88 -8q-100 -8 -226 -52q-26 -9 -44 -9q-58 0 -58 90q0 23 8 84
q-88 -85 -145 -120q-86 -53 -178 -53q-83 0 -138 57.5t-55 140.5q0 84 78 261q60 132 120 263q30 77 30 110q0 41 -54.5 50t-54.5 45q0 32 41 39q10 2 66 2q142 0 220 26q38 13 61 13q53 0 53 -85q0 -87 -78 -282q-7 -19 -119 -274q-47 -107 -47 -136q0 -30 30 -30
q47 0 121 74q149 150 247 415q41 110 41 176q0 72 19 89q14 13 86 21q48 6 97 12zM1092 903q-35 -9 -62 -9q-1 -12 -3 -25q23 9 65 34zM527 1495q18 0 38 -16q86 -73 147 -165q12 -20 12 -39q0 -26 -25.5 -51.5t-51.5 -25.5q-17 0 -33 10q-21 13 -88 70.5t-83 77t-16 40.5
q0 29 35.5 64t64.5 35z" />
    <glyph glyph-name="glyph389" unicode="&#x1eec;" horiz-adv-x="1152" 
d="M1094 1367q-35 39 -35 91q0 83 76 141q70 55 155 55q74 0 125 -45t51 -118q0 -120 -102 -226q-80 -83 -147 -83q-9 0 -19 2q-21 -287 -236 -704q-137 -265 -296 -383q-139 -103 -313 -103q-144 0 -242 70q-111 79 -111 218q0 79 31 179q5 18 62 172q38 102 113 303
q73 194 73 246q0 31 -41.5 56.5t-41.5 47.5q0 48 58 48q14 0 41 -2.5t41 -2.5q105 0 193 30q44 15 64 15q58 0 58 -93q0 -135 -232 -744q-78 -205 -78 -265q0 -54 38 -86t93 -32q205 0 358 354q136 314 136 554q0 87 -39 131q-18 21 -71 48q-39 20 -39 47q0 25 18 36
q11 7 71 9q71 2 188 34zM1256 1335q-37 -10 -68 -9q4 -11 6 -24q22 9 62 33zM820 1752q-65 0 -65 -40q0 -4 1.5 -13.5t1.5 -14.5q0 -41 -41 -41t-41 43q0 49 42 96q54 62 151 62q69 0 114.5 -45t45.5 -115q0 -60 -63 -101q-26 -17 -114 -52q-15 -5 -29 -16q15 -22 15 -25
q0 -35 -57 -35q-67 0 -67 55q0 47 84 88.5t84 94.5q0 59 -62 59z" />
    <glyph glyph-name="glyph390" unicode="&#x1eed;" horiz-adv-x="1058" 
d="M902 983q-7 20 -7 43q0 83 76 141q70 55 155 55q74 0 125 -45t51 -118q0 -120 -102 -226q-80 -83 -147 -83q-27 0 -50 19q-8 -27 -116 -288q-85 -207 -85 -272q0 -40 52 -55t52 -50q0 -29 -37 -40q-6 -2 -88 -8q-100 -8 -226 -52q-26 -9 -44 -9q-58 0 -58 90q0 23 8 84
q-88 -85 -145 -120q-86 -53 -178 -53q-83 0 -138 57.5t-55 140.5q0 84 78 261q60 132 120 263q30 77 30 110q0 41 -54.5 50t-54.5 45q0 32 41 39q10 2 66 2q142 0 220 26q38 13 61 13q53 0 53 -85q0 -87 -78 -282q-7 -19 -119 -274q-47 -107 -47 -136q0 -30 30 -30
q47 0 121 74q149 150 247 415q41 110 41 176q0 72 19 89q14 13 86 21q48 6 97 12zM1092 903q-35 -9 -62 -9q-1 -12 -3 -25q23 9 65 34zM661 1477q-65 0 -65 -40q0 -4 1.5 -13.5t1.5 -14.5q0 -41 -41 -41t-41 43q0 49 42 96q54 62 151 62q69 0 114.5 -45t45.5 -115
q0 -60 -63 -101q-26 -17 -114 -52q-15 -5 -29 -16q15 -22 15 -25q0 -35 -57 -35q-67 0 -67 55q0 47 84 88.5t84 94.5q0 59 -62 59z" />
    <glyph glyph-name="glyph391" unicode="&#x1eee;" horiz-adv-x="1152" 
d="M1094 1367q-35 39 -35 91q0 83 76 141q70 55 155 55q74 0 125 -45t51 -118q0 -120 -102 -226q-80 -83 -147 -83q-9 0 -19 2q-21 -287 -236 -704q-137 -265 -296 -383q-139 -103 -313 -103q-144 0 -242 70q-111 79 -111 218q0 79 31 179q5 18 62 172q38 102 113 303
q73 194 73 246q0 31 -41.5 56.5t-41.5 47.5q0 48 58 48q14 0 41 -2.5t41 -2.5q105 0 193 30q44 15 64 15q58 0 58 -93q0 -135 -232 -744q-78 -205 -78 -265q0 -54 38 -86t93 -32q205 0 358 354q136 314 136 554q0 87 -39 131q-18 21 -71 48q-39 20 -39 47q0 25 18 36
q11 7 71 9q71 2 188 34zM1256 1335q-37 -10 -68 -9q4 -11 6 -24q22 9 62 33zM762 1589q-18 0 -59 -28.5t-63 -28.5q-23 0 -40 18.5t-17 41.5q0 53 58.5 110.5t111.5 57.5q28 0 71 -29.5t56 -29.5q14 0 57.5 27.5t67.5 27.5q23 0 40.5 -17t17.5 -39q0 -48 -56.5 -109
t-103.5 -61q-23 0 -74 29.5t-67 29.5z" />
    <glyph glyph-name="glyph392" unicode="&#x1eef;" horiz-adv-x="1058" 
d="M902 983q-7 20 -7 43q0 83 76 141q70 55 155 55q74 0 125 -45t51 -118q0 -120 -102 -226q-80 -83 -147 -83q-27 0 -50 19q-8 -27 -116 -288q-85 -207 -85 -272q0 -40 52 -55t52 -50q0 -29 -37 -40q-6 -2 -88 -8q-100 -8 -226 -52q-26 -9 -44 -9q-58 0 -58 90q0 23 8 84
q-88 -85 -145 -120q-86 -53 -178 -53q-83 0 -138 57.5t-55 140.5q0 84 78 261q60 132 120 263q30 77 30 110q0 41 -54.5 50t-54.5 45q0 32 41 39q10 2 66 2q142 0 220 26q38 13 61 13q53 0 53 -85q0 -87 -78 -282q-7 -19 -119 -274q-47 -107 -47 -136q0 -30 30 -30
q47 0 121 74q149 150 247 415q41 110 41 176q0 72 19 89q14 13 86 21q48 6 97 12zM1092 903q-35 -9 -62 -9q-1 -12 -3 -25q23 9 65 34zM611 1290q-17 0 -58.5 -28t-63.5 -28q-23 0 -40 18.5t-17 41.5q0 52 58.5 109.5t111.5 57.5q28 0 71 -29.5t56 -29.5q14 0 57.5 27.5
t67.5 27.5q58 0 58 -56q0 -48 -57 -109t-103 -61q-23 0 -73.5 29.5t-67.5 29.5z" />
    <glyph glyph-name="glyph393" unicode="&#x1ef0;" horiz-adv-x="1152" 
d="M1094 1367q-35 39 -35 91q0 83 76 141q70 55 155 55q74 0 125 -45t51 -118q0 -120 -102 -226q-80 -83 -147 -83q-9 0 -19 2q-21 -287 -236 -704q-137 -265 -296 -383q-139 -103 -313 -103q-144 0 -242 70q-111 79 -111 218q0 79 31 179q5 18 62 172q38 102 113 303
q73 194 73 246q0 31 -41.5 56.5t-41.5 47.5q0 48 58 48q14 0 41 -2.5t41 -2.5q105 0 193 30q44 15 64 15q58 0 58 -93q0 -135 -232 -744q-78 -205 -78 -265q0 -54 38 -86t93 -32q205 0 358 354q136 314 136 554q0 87 -39 131q-18 21 -71 48q-39 20 -39 47q0 25 18 36
q11 7 71 9q71 2 188 34zM1256 1335q-37 -10 -68 -9q4 -11 6 -24q22 9 62 33zM349 -123q55 0 93 -38t38 -93q0 -78 -90 -138q-81 -55 -164 -55q-57 0 -96.5 38t-39.5 95q0 85 90 142q78 49 169 49z" />
    <glyph glyph-name="glyph394" unicode="&#x1ef1;" horiz-adv-x="1058" 
d="M902 983q-7 20 -7 43q0 83 76 141q70 55 155 55q74 0 125 -45t51 -118q0 -120 -102 -226q-80 -83 -147 -83q-27 0 -50 19q-8 -27 -116 -288q-85 -207 -85 -272q0 -40 52 -55t52 -50q0 -29 -37 -40q-6 -2 -88 -8q-100 -8 -226 -52q-26 -9 -44 -9q-58 0 -58 90q0 23 8 84
q-88 -85 -145 -120q-86 -53 -178 -53q-83 0 -138 57.5t-55 140.5q0 84 78 261q60 132 120 263q30 77 30 110q0 41 -54.5 50t-54.5 45q0 32 41 39q10 2 66 2q142 0 220 26q38 13 61 13q53 0 53 -85q0 -87 -78 -282q-7 -19 -119 -274q-47 -107 -47 -136q0 -30 30 -30
q47 0 121 74q149 150 247 415q41 110 41 176q0 72 19 89q14 13 86 21q48 6 97 12zM1092 903q-35 -9 -62 -9q-1 -12 -3 -25q23 9 65 34zM349 -123q55 0 93 -38t38 -93q0 -78 -90 -138q-81 -55 -164 -55q-57 0 -96.5 38t-39.5 95q0 85 90 142q78 49 169 49z" />
    <glyph glyph-name="glyph395" unicode="&#x1ef2;" horiz-adv-x="1071" 
d="M479 503q-107 -35 -156 -35q-89 0 -146 49q-61 51 -61 139q0 80 71 277q76 210 76 253q0 31 -46 54t-46 52q0 44 50 44q16 0 48 -2.5t48 -2.5q115 0 208 32q38 13 53 13q56 0 56 -88q0 -93 -48 -243q-28 -90 -89 -266q-14 -36 -14 -60q0 -44 54 -44q130 0 265 199
q110 163 110 297q0 34 -10 46q-8 8 -57 22q-38 11 -38 43q0 42 47 50h79q110 0 203 32q32 11 46 11q46 0 46 -56q0 -137 -469 -674q-127 -146 -205 -267q-79 -124 -79 -175q0 -29 49.5 -45.5t49.5 -50.5q0 -29 -33 -45q-8 -4 -113 -17q-30 -4 -116 -30q-79 -25 -95 -25
q-50 0 -50 58q0 79 125 238q93 108 187 217zM695 1793q17 0 38 -17q87 -74 146 -164q12 -20 12 -39q0 -25 -26 -51t-51 -26q-17 0 -33 10q-20 13 -88 71t-82 76q-17 20 -17 41q0 29 36 64t65 35z" />
    <glyph glyph-name="glyph396" unicode="&#x1ef3;" horiz-adv-x="941" 
d="M440 296q259 342 259 509q0 60 -59 72t-59 43q0 35 34 43q5 1 71 2q75 1 162 30q30 10 46 10q54 0 54 -77q0 -108 -89 -247q-21 -32 -162 -216q-354 -461 -354 -621q0 -52 59 -70t59 -46q0 -39 -57 -44q-85 -7 -178 -41q-63 -23 -78 -23q-52 0 -52 76t44 162q6 12 88 144
q-22 -7 -37 -7q-49 0 -60 85q-17 136 -17 254q0 76 5.5 227t5.5 227q0 48 -11 65q-9 13 -63 28q-44 12 -44 43q0 28 38 39q11 3 99 4q99 1 203 28q31 8 50 8q56 0 56 -109q0 -36 -6 -122q-18 -257 -18 -362q0 -52 11 -114zM495 1495q18 0 38 -16q86 -73 147 -165
q12 -20 12 -39q0 -26 -25.5 -51.5t-51.5 -25.5q-17 0 -33 10q-21 13 -88 70.5t-83 77t-16 40.5q0 29 35.5 64t64.5 35z" />
    <glyph glyph-name="glyph397" unicode="&#x1ef4;" horiz-adv-x="1071" 
d="M479 503q-107 -35 -156 -35q-89 0 -146 49q-61 51 -61 139q0 80 71 277q76 210 76 253q0 31 -46 54t-46 52q0 44 50 44q16 0 48 -2.5t48 -2.5q115 0 208 32q38 13 53 13q56 0 56 -88q0 -93 -48 -243q-28 -90 -89 -266q-14 -36 -14 -60q0 -44 54 -44q130 0 265 199
q110 163 110 297q0 34 -10 46q-8 8 -57 22q-38 11 -38 43q0 42 47 50h79q110 0 203 32q32 11 46 11q46 0 46 -56q0 -137 -469 -674q-127 -146 -205 -267q-79 -124 -79 -175q0 -29 49.5 -45.5t49.5 -50.5q0 -29 -33 -45q-8 -4 -113 -17q-30 -4 -116 -30q-79 -25 -95 -25
q-50 0 -50 58q0 79 125 238q93 108 187 217zM349 -123q55 0 93 -38t38 -93q0 -78 -90 -138q-81 -55 -164 -55q-57 0 -96.5 38t-39.5 95q0 85 90 142q78 49 169 49z" />
    <glyph glyph-name="glyph398" unicode="&#x1ef5;" horiz-adv-x="941" 
d="M440 296q259 342 259 509q0 60 -59 72t-59 43q0 35 34 43q5 1 71 2q75 1 162 30q30 10 46 10q54 0 54 -77q0 -108 -89 -247q-21 -32 -162 -216q-354 -461 -354 -621q0 -52 59 -70t59 -46q0 -39 -57 -44q-85 -7 -178 -41q-63 -23 -78 -23q-52 0 -52 76t44 162q6 12 88 144
q-22 -7 -37 -7q-49 0 -60 85q-17 136 -17 254q0 76 5.5 227t5.5 227q0 48 -11 65q-9 13 -63 28q-44 12 -44 43q0 28 38 39q11 3 99 4q99 1 203 28q31 8 50 8q56 0 56 -109q0 -36 -6 -122q-18 -257 -18 -362q0 -52 11 -114zM765 -123q55 0 93 -38t38 -93q0 -78 -90 -138
q-81 -55 -164 -55q-57 0 -96.5 38t-39.5 95q0 85 90 142q78 49 169 49z" />
    <glyph glyph-name="glyph399" unicode="&#x1ef6;" horiz-adv-x="1071" 
d="M479 503q-107 -35 -156 -35q-89 0 -146 49q-61 51 -61 139q0 80 71 277q76 210 76 253q0 31 -46 54t-46 52q0 44 50 44q16 0 48 -2.5t48 -2.5q115 0 208 32q38 13 53 13q56 0 56 -88q0 -93 -48 -243q-28 -90 -89 -266q-14 -36 -14 -60q0 -44 54 -44q130 0 265 199
q110 163 110 297q0 34 -10 46q-8 8 -57 22q-38 11 -38 43q0 42 47 50h79q110 0 203 32q32 11 46 11q46 0 46 -56q0 -137 -469 -674q-127 -146 -205 -267q-79 -124 -79 -175q0 -29 49.5 -45.5t49.5 -50.5q0 -29 -33 -45q-8 -4 -113 -17q-30 -4 -116 -30q-79 -25 -95 -25
q-50 0 -50 58q0 79 125 238q93 108 187 217zM800 1752q-65 0 -65 -40q0 -4 1.5 -13.5t1.5 -14.5q0 -41 -41 -41t-41 43q0 49 42 96q54 62 151 62q69 0 114.5 -45t45.5 -115q0 -60 -63 -101q-26 -17 -114 -52q-15 -5 -29 -16q15 -22 15 -25q0 -35 -57 -35q-67 0 -67 55
q0 47 84 88.5t84 94.5q0 59 -62 59z" />
    <glyph glyph-name="glyph400" unicode="&#x1ef7;" horiz-adv-x="941" 
d="M440 296q259 342 259 509q0 60 -59 72t-59 43q0 35 34 43q5 1 71 2q75 1 162 30q30 10 46 10q54 0 54 -77q0 -108 -89 -247q-21 -32 -162 -216q-354 -461 -354 -621q0 -52 59 -70t59 -46q0 -39 -57 -44q-85 -7 -178 -41q-63 -23 -78 -23q-52 0 -52 76t44 162q6 12 88 144
q-22 -7 -37 -7q-49 0 -60 85q-17 136 -17 254q0 76 5.5 227t5.5 227q0 48 -11 65q-9 13 -63 28q-44 12 -44 43q0 28 38 39q11 3 99 4q99 1 203 28q31 8 50 8q56 0 56 -109q0 -36 -6 -122q-18 -257 -18 -362q0 -52 11 -114zM549 1477q-65 0 -65 -40q0 -4 1.5 -13.5t1.5 -14.5
q0 -41 -41 -41t-41 43q0 49 42 96q54 62 151 62q69 0 114.5 -45t45.5 -115q0 -60 -63 -101q-26 -17 -114 -52q-15 -5 -29 -16q15 -22 15 -25q0 -35 -57 -35q-67 0 -67 55q0 47 84 88.5t84 94.5q0 59 -62 59z" />
    <glyph glyph-name="glyph401" unicode="&#x1ef8;" horiz-adv-x="1071" 
d="M479 503q-107 -35 -156 -35q-89 0 -146 49q-61 51 -61 139q0 80 71 277q76 210 76 253q0 31 -46 54t-46 52q0 44 50 44q16 0 48 -2.5t48 -2.5q115 0 208 32q38 13 53 13q56 0 56 -88q0 -93 -48 -243q-28 -90 -89 -266q-14 -36 -14 -60q0 -44 54 -44q130 0 265 199
q110 163 110 297q0 34 -10 46q-8 8 -57 22q-38 11 -38 43q0 42 47 50h79q110 0 203 32q32 11 46 11q46 0 46 -56q0 -137 -469 -674q-127 -146 -205 -267q-79 -124 -79 -175q0 -29 49.5 -45.5t49.5 -50.5q0 -29 -33 -45q-8 -4 -113 -17q-30 -4 -116 -30q-79 -25 -95 -25
q-50 0 -50 58q0 79 125 238q93 108 187 217zM752 1589q-18 0 -59 -28.5t-63 -28.5q-23 0 -40 18.5t-17 41.5q0 53 58.5 110.5t111.5 57.5q28 0 71 -29.5t56 -29.5q14 0 57.5 27.5t67.5 27.5q23 0 40.5 -17t17.5 -39q0 -48 -56.5 -109t-103.5 -61q-23 0 -74 29.5t-67 29.5z
" />
    <glyph glyph-name="glyph402" unicode="&#x1ef9;" horiz-adv-x="941" 
d="M440 296q259 342 259 509q0 60 -59 72t-59 43q0 35 34 43q5 1 71 2q75 1 162 30q30 10 46 10q54 0 54 -77q0 -108 -89 -247q-21 -32 -162 -216q-354 -461 -354 -621q0 -52 59 -70t59 -46q0 -39 -57 -44q-85 -7 -178 -41q-63 -23 -78 -23q-52 0 -52 76t44 162q6 12 88 144
q-22 -7 -37 -7q-49 0 -60 85q-17 136 -17 254q0 76 5.5 227t5.5 227q0 48 -11 65q-9 13 -63 28q-44 12 -44 43q0 28 38 39q11 3 99 4q99 1 203 28q31 8 50 8q56 0 56 -109q0 -36 -6 -122q-18 -257 -18 -362q0 -52 11 -114zM551 1290q-17 0 -58.5 -28t-63.5 -28
q-23 0 -40 18.5t-17 41.5q0 52 58.5 109.5t111.5 57.5q28 0 71 -29.5t56 -29.5q14 0 57.5 27.5t67.5 27.5q58 0 58 -56q0 -48 -57 -109t-103 -61q-23 0 -73.5 29.5t-67.5 29.5z" />
    <glyph glyph-name="endash" unicode="&#x2013;" horiz-adv-x="1195" 
d="M969 574q52 0 65 -3q38 -8 38 -42q0 -19 -16 -59q-21 -52 -49 -63q-13 -4 -85 -4h-790q-64 0 -74 2q-44 8 -44 45q0 31 19 71q21 47 47 52q9 1 48 1h841z" />
    <glyph glyph-name="emdash" unicode="&#x2014;" horiz-adv-x="1625" 
d="M1405 574q97 0 97 -45q0 -19 -16 -59q-21 -52 -49 -63q-13 -4 -85 -4h-1220q-64 0 -74 2q-44 8 -44 45q0 31 19 71q21 47 47 52q9 1 48 1h1277z" />
    <glyph glyph-name="quoteleft" unicode="&#x2018;" horiz-adv-x="571" 
d="M388 1225q36 9 62 9q58 0 96.5 -37t38.5 -95q0 -83 -76 -142q-70 -54 -155 -54q-75 0 -126 44.5t-51 118.5q0 121 102 227q80 83 147 83q27 0 51 -19.5t24 -45.5q0 -27 -45 -52q-34 -18 -68 -37z" />
    <glyph glyph-name="quoteright" unicode="&#x2019;" horiz-adv-x="571" 
d="M374 1060q-36 -9 -63 -9q-57 0 -95.5 37.5t-38.5 94.5q0 83 76 142q70 54 155 54q74 0 125 -45t51 -118q0 -120 -102 -226q-80 -83 -147 -83q-27 0 -51 19.5t-24 45.5t45 52q35 18 69 36z" />
    <glyph glyph-name="quotesinglbase" unicode="&#x201a;" horiz-adv-x="571" 
d="M183 -1q-36 -9 -63 -9q-57 0 -95.5 37.5t-38.5 94.5q0 83 76 142q70 54 155 54q74 0 125 -45t51 -118q0 -121 -102 -227q-79 -82 -147 -82q-27 0 -51 19.5t-24 45.5t46 52z" />
    <glyph glyph-name="quotedblleft" unicode="&#x201c;" horiz-adv-x="1082" 
d="M388 1225q36 9 62 9q58 0 96.5 -37t38.5 -95q0 -83 -76 -142q-70 -54 -155 -54q-75 0 -126 44.5t-51 118.5q0 121 102 227q80 83 147 83q27 0 51 -19.5t24 -45.5q0 -27 -45 -52q-34 -18 -68 -37zM899 1225q36 9 62 9q57 0 95.5 -37.5t38.5 -94.5q0 -84 -75 -142
q-70 -54 -156 -54q-74 0 -125 45t-51 118q0 121 102 227q80 83 147 83q27 0 51 -19.5t24 -45.5q0 -27 -45 -52q-34 -18 -68 -37z" />
    <glyph glyph-name="quotedblright" unicode="&#x201d;" horiz-adv-x="1082" 
d="M885 1060q-36 -9 -63 -9q-58 0 -96 37t-38 95q0 83 76 142q70 54 155 54q74 0 125 -45t51 -118q0 -120 -102 -226q-80 -83 -147 -83q-26 0 -50.5 20t-24.5 45q0 27 45 52q35 18 69 36zM374 1060q-36 -9 -63 -9q-57 0 -95.5 37.5t-38.5 94.5q0 83 76 142q70 54 155 54
q74 0 125 -45t51 -118q0 -120 -102 -226q-80 -83 -147 -83q-27 0 -51 19.5t-24 45.5t45 52q35 18 69 36z" />
    <glyph glyph-name="quotedblbase" unicode="&#x201e;" horiz-adv-x="1082" 
d="M694 -1q-36 -9 -63 -9q-58 0 -96 37t-38 95q0 83 76 142q70 54 155 54q74 0 125 -45t51 -118q0 -121 -102 -227q-79 -82 -147 -82q-27 0 -51 19.5t-24 45.5q0 27 45 52q35 18 69 36zM183 -1q-36 -9 -63 -9q-57 0 -95.5 37.5t-38.5 94.5q0 83 76 142q70 54 155 54
q74 0 125 -45t51 -118q0 -121 -102 -227q-79 -82 -147 -82q-27 0 -51 19.5t-24 45.5t46 52z" />
    <glyph glyph-name="dagger" unicode="&#x2020;" 
d="M762 974q70 9 177.5 27t130.5 18q48 0 48 -46q0 -16 -11 -61q-36 -149 -116 -149q-47 0 -254 33q-22 -68 -53 -236q-21 -115 -65 -405q-15 -98 -72 -133q-46 -29 -152 -29q-187 0 -187 84q0 29 20 72q42 79 125 239q73 142 104 209q55 121 83 218q-16 -3 -123 -19
q-151 -23 -166 -23q-67 0 -67 56q0 35 48 138q41 87 93 87q33 0 129 -22q68 -15 137 -31q0 28 -1 85.5t-1 86.5q0 123 23 157q31 47 144 47q184 0 184 -66q0 -27 -16 -61q-32 -52 -93 -155q-22 -41 -69 -121z" />
    <glyph glyph-name="daggerdbl" unicode="&#x2021;" 
d="M756 976q55 9 165.5 29.5t133.5 20.5q55 0 55 -54q0 -63 -42 -148q-27 -54 -87 -54q-18 0 -122 16q-60 9 -143 15q-45 -80 -84 -247q193 42 267 42q90 0 90 -57q0 -36 -34 -110.5t-61 -93.5q-18 -13 -46 -13q-27 0 -116 22q-49 12 -141 29q-4 -54 -6 -204
q-2 -111 -46 -148q-41 -33 -155 -33q-146 0 -146 75q0 41 71 163q51 85 101 171q-47 -9 -142 -26q-138 -25 -155 -25q-62 0 -62 62q0 63 36 126q41 73 98 73q15 0 42 -4q113 -17 236 -28q44 121 70 240q-71 -14 -141 -28q-85 -17 -143 -17q-68 0 -68 48q0 32 21 93.5
t40 90.5q31 47 82 47q54 0 258 -44l-3 167q0 126 23 161q31 48 150 48q173 0 173 -67q0 -51 -70 -169q-94 -157 -99 -169z" />
    <glyph glyph-name="bullet" unicode="&#x2022;" horiz-adv-x="1365" 
d="M689 978q116 0 198 -84t82 -200q0 -118 -83 -201t-201 -83q-117 0 -200.5 83t-83.5 200q0 120 84 202.5t204 82.5z" />
    </font>
</defs>
</svg>
