<?xml version="1.0" standalone="no"?>
<!DOCTYPE svg PUBLIC "-//W3C//DTD SVG 1.1//EN" "http://www.w3.org/Graphics/SVG/1.1/DTD/svg11.dtd" >
<svg xmlns="http://www.w3.org/2000/svg" xmlns:xlink="http://www.w3.org/1999/xlink" version="1.1">
<metadata></metadata>
<defs>
<font id="uvn_bach_dangitalic" horiz-adv-x="963" >
<font-face units-per-em="2048" ascent="1638" descent="-410" />
<missing-glyph horiz-adv-x="494" />
<glyph horiz-adv-x="0" />
<glyph unicode="&#xd;" horiz-adv-x="494" />
<glyph unicode=" "  horiz-adv-x="494" />
<glyph unicode="&#x09;" horiz-adv-x="494" />
<glyph unicode="&#xa0;" horiz-adv-x="494" />
<glyph unicode="!" horiz-adv-x="674" d="M43 61q0 39 26.5 66t65.5 27t64.5 -27t25.5 -66t-25.5 -64.5t-64.5 -25.5q-38 0 -65 26t-27 64zM223 332q139 473 139 688q0 41 -5 109q125 77 200 255q0 -18 -2 -58.5t-2 -61.5q0 -93 47 -144q-194 -246 -346 -796z" />
<glyph unicode="&#x22;" horiz-adv-x="678" d="M90 1362q0 100 84 100q86 0 86 -100q0 -13 -4 -41l-66 -457h-32l-64 457q-4 29 -4 41zM418 1360q0 102 86 102q84 0 84 -100q0 -28 -2 -41l-68 -457h-31l-65 457q-4 28 -4 39z" />
<glyph unicode="#" horiz-adv-x="1575" d="M104 467l43 115h322l100 286h-348l43 117h348l166 471h133l-168 -471h287l168 471h131l-166 -471h307l-40 -117h-310l-100 -286h332l-43 -115h-330l-166 -469h-133l166 469h-287l-166 -469h-131l166 469h-324zM600 582h289l102 286h-291z" />
<glyph unicode="$" horiz-adv-x="985" d="M-127 61q65 152 182 463l29 -6q-39 -113 -39 -211q0 -157 172 -252l178 621q-162 114 -162 309q0 167 99.5 277.5t265.5 123.5l59 207l33 -10l-57 -194q56 0 133 -15l61 217l33 -8l-63 -221q164 -86 178 -86q42 0 70 63l26 -6l-127 -397l-26 8q14 64 14 115 q0 190 -148 264l-151 -528q248 -119 248 -342q0 -207 -137 -341.5t-345 -136.5l-80 -274l-30 12l75 262q-61 6 -126 31l-88 -307l-33 8l90 316q-14 6 -113 67q-80 49 -104 49q-36 0 -86 -88zM246 37q62 -25 129 -25l168 584q-62 31 -119 61zM311 1096q0 -133 146 -207 l131 463q-114 -14 -190 -76q-87 -71 -87 -180zM408 6q153 12 241 99q92 91 92 243q0 155 -170 230zM485 870q39 -19 119 -55l152 522q-51 19 -105 19q-5 0 -14 -1t-12 -1z" />
<glyph unicode="%" horiz-adv-x="1421" d="M68 842q0 168 106 331q118 181 277 181q186 0 186 -248q0 -80 -23 -159q-38 -130 -131 -233q-108 -118 -229 -118q-186 0 -186 246zM184 727q0 -104 76 -104q112 0 197 253q69 206 69 351q0 104 -80 104q-107 0 -192 -255q-70 -209 -70 -349zM250 -25l854 1385h65 l-852 -1385h-67zM784 229q0 168 106 330q118 182 277 182q187 0 187 -247q0 -131 -60 -256q-63 -130 -167 -201q-78 -53 -156 -53q-187 0 -187 245zM897 109q0 -105 76 -105q110 0 195 254q71 209 71 350q0 105 -80 105q-109 0 -193 -254q-69 -208 -69 -350z" />
<glyph unicode="&#x26;" horiz-adv-x="1366" d="M-6 301q0 265 416 432q-43 132 -43 221q0 123 81 220q86 102 207 102q90 0 145.5 -52t55.5 -141q0 -108 -95 -194q-77 -71 -194 -111q79 -204 195 -401q185 227 315 227q56 0 95.5 -33t39.5 -88q0 -46 -29 -77t-75 -31q-43 0 -73.5 29.5t-30.5 72.5q0 8 3 22.5t3 22.5 q0 25 -13 25q-65 0 -221 -193q139 -270 260 -270q85 0 156 145l14 -6q-29 -104 -90 -171q-72 -79 -170 -79q-145 0 -284 236q-206 -236 -367 -236q-129 0 -217 101q-84 96 -84 227zM154 428q0 -111 76 -226q85 -126 190 -126q101 0 227 153q-115 200 -227 473 q-266 -108 -266 -274zM506 1038q0 -113 53 -239q272 101 272 278q0 166 -155 166q-81 0 -128 -64q-42 -57 -42 -141z" />
<glyph unicode="'" horiz-adv-x="348" d="M90 1360q0 102 84 102q86 0 86 -100q0 -13 -4 -41l-66 -457h-32l-66 457q-2 14 -2 39z" />
<glyph unicode="(" horiz-adv-x="664" d="M125 313q0 651 694 1071l17 -22q-302 -202 -454 -547q-138 -312 -138 -704q0 -281 141 -537l-12 -14q-248 331 -248 753z" />
<glyph unicode=")" horiz-adv-x="664" d="M-262 -418q302 202 453 548q137 312 137 704q0 281 -142 536l13 14q247 -332 247 -753q0 -652 -694 -1071z" />
<glyph unicode="*" horiz-adv-x="1024" d="M178 1075q0 17 27 17l69 -7q0 76 19 76q9 -6 23 -19q115 -111 257 -163q-14 158 -91 290q-8 13 -11 21q0 9 8 11.5t17 1.5l45 -7q19 88 34 88q19 0 30 -36q6 -25 11 -50l48 13q16 0 16 -19q-2 -7 -9 -20q-67 -133 -69 -291q133 68 246 171q12 11 31 24l7 -3q2 -5 9 -63 q59 6 66 6q18 0 18 -16q0 -6 -1 -10.5t-58 -47.5q9 -19 26 -57q0 -12 -12 -12q-1 0 -9 2q-45 12 -87 12q-169 0 -230 -33q82 -85 175 -145q60 -40 91 -64q0 -7 -15 -13l-1 -1l-33 -12q31 -66 31 -74q0 -22 -18 -22q-7 0 -76 45q-41 -41 -45 -41q-9 0 -23 57q-27 105 -37 133 q-25 69 -69 119q-36 -71 -60 -157q-21 -81 -41 -161q-4 3 -43 41q-62 -57 -73 -57q-19 0 -19 21q0 3 23 73q-17 6 -33 11q-23 10 -25 22q118 87 135 101q68 56 115 126q-47 15 -118 15q-62 0 -127 -7.5t-66 -7.5q-31 0 -33 17q1 2 33 43q-78 48 -78 59z" />
<glyph unicode="+" horiz-adv-x="1706" d="M254 553v117h541v551h118v-551h539v-117h-539v-553h-118v553h-541z" />
<glyph unicode="," horiz-adv-x="494" d="M-57 -326q99 40 178 102q108 84 108 161q0 28 -37 36l-60 6q-112 18 -112 105q0 45 32 74.5t77 29.5q73 0 117 -55q41 -51 41 -125q0 -127 -108 -229q-87 -82 -224 -133z" />
<glyph unicode="-" horiz-adv-x="786" d="M72 344l37 131h448l-39 -131h-446z" />
<glyph unicode="." horiz-adv-x="494" d="M43 76q0 39 26.5 64.5t65.5 25.5t64.5 -25.5t25.5 -64.5t-25.5 -64.5t-64.5 -25.5q-38 0 -65 26t-27 64z" />
<glyph unicode="/" horiz-adv-x="569" d="M-195 -190l803 1574h56l-805 -1574h-54z" />
<glyph unicode="0" horiz-adv-x="985" d="M39 426q0 148 37 293q57 227 198 413q173 228 373 228q295 0 295 -453q0 -145 -36 -289q-59 -230 -198 -416q-173 -229 -374 -229q-165 0 -239 154q-56 115 -56 299zM172 197q0 -195 141 -195q80 0 154 73q130 129 242 504q102 343 102 562q0 196 -141 196 q-143 0 -269 -242q-101 -193 -170 -495q-59 -257 -59 -403z" />
<glyph unicode="1" horiz-adv-x="985" d="M55 0l9 33q22 -2 59 -2q85 0 120 35q28 27 54 116l305 1041q-158 -109 -414 -215l-10 26q225 92 666 375l-381 -1286q-8 -27 -8 -43q0 -47 178 -47l-6 -33h-572z" />
<glyph unicode="2" horiz-adv-x="985" d="M-47 0q45 166 203 303q149 111 299 221q140 105 219.5 250.5t79.5 294.5q0 117 -70 189.5t-186 72.5q-96 0 -182 -55q-97 -63 -97 -154q0 -45 66.5 -108t66.5 -101q0 -73 -78 -73q-55 0 -85 76q-23 57 -23 122q0 154 114 243q105 81 263 81q160 0 271 -79 q124 -89 124 -243q0 -191 -175 -351q-80 -73 -369 -256q-242 -152 -326 -269h544q73 0 107 22q29 18 72 84l22 -10q-80 -139 -135 -260h-725z" />
<glyph unicode="3" horiz-adv-x="985" d="M12 209q0 69 41 122.5t109 53.5q100 0 100 -92q0 -96 -106 -98q-7 0 -21 1t-20 1q-52 0 -52 -39q0 -67 88 -114q76 -40 150 -40q168 0 258 175q72 139 72 325q0 129 -75 180t-284 51h-18l8 27q95 -4 96 -4q390 0 390 383q0 190 -187 190q-89 0 -161 -45t-72 -92 q0 -19 58 -38.5t58 -72.5q0 -37 -27.5 -61.5t-64.5 -24.5q-45 0 -71 33q-25 30 -25 76q0 122 112 193q95 61 224 61q136 0 225 -70q98 -76 98 -209q0 -280 -409 -340q315 -56 315 -307q0 -200 -153 -332q-146 -127 -349 -127q-118 0 -205 57q-102 65 -102 177z" />
<glyph unicode="4" horiz-adv-x="985" d="M-41 408l872 987l21 -17l-758 -866h436l125 451l199 114l-156 -565h230l-31 -104h-229l-101 -369h160l-12 -39h-494l12 39h166l103 369h-543z" />
<glyph unicode="5" horiz-adv-x="985" d="M-35 193q0 54 29 96q32 47 84 47q40 0 68 -27t28 -67q0 -51 -53 -94.5t-53 -65.5q0 -40 70 -60q49 -14 106 -14q81 0 146.5 39t109.5 115q141 240 141 446q0 92 -52 151.5t-143 59.5q-176 0 -268 -211l-18 6l215 742q224 -78 305 -78q141 0 241 96q-10 -127 -109 -195 q-89 -61 -222 -61q-95 0 -234 41l-118 -401q106 116 274 116q143 0 231 -86.5t88 -228.5q0 -115 -55 -224q-72 -142 -221 -248q-158 -112 -309 -112q-108 0 -189 54q-92 61 -92 164z" />
<glyph unicode="6" horiz-adv-x="985" d="M39 436q0 269 147 506q150 241 392 349q155 69 346 69v-27q-283 -6 -442 -191q-128 -149 -201 -452q104 137 299 137q142 0 231 -98q86 -94 86 -237q0 -145 -86 -274q-82 -126 -214 -192q-100 -51 -191 -51q-180 0 -280 146q-87 127 -87 315zM188 254q0 -248 211 -248 q65 0 115 34q85 56 149 256q56 174 56 302q0 87 -42 139q-45 58 -130 58q-151 0 -255 -152.5t-104 -388.5z" />
<glyph unicode="7" horiz-adv-x="985" d="M154 1036q73 160 131 363l24 -4l-8 -39q130 -66 361 -66q277 0 425 99l15 -23q-266 -335 -469 -656h113l-39 -131h-153q-136 -236 -136 -335q0 -44 68.5 -76t68.5 -92q0 -101 -88 -101q-57 0 -90 46q-29 41 -29 100q0 160 168 458h-306l37 131h347q129 207 324 464 q-166 -62 -371 -62q-211 0 -314 33l-53 -119z" />
<glyph unicode="8" horiz-adv-x="985" d="M33 274q0 238 354 428q-123 149 -123 269q0 163 115.5 277t279.5 114q112 0 185 -62q76 -66 76 -176q0 -213 -306 -376q189 -197 189 -392q0 -169 -133 -277q-125 -102 -297 -102q-144 0 -238 75q-102 82 -102 222zM63 272q0 -120 91 -195q85 -71 208 -71q120 0 209 66 q97 73 97 190q0 162 -256 414q-349 -164 -349 -404zM383 1100q0 -109 213 -332q293 162 293 344q0 104 -68 164q-65 57 -170 57t-184 -63q-84 -67 -84 -170z" />
<glyph unicode="9" horiz-adv-x="985" d="M47 2q283 6 442 191q128 149 201 452q-104 -137 -299 -137q-142 0 -231 98q-86 95 -86 238q0 145 85 274q83 124 216 192q99 50 190 50q180 0 280 -145q87 -126 87 -314q0 -269 -147 -507q-150 -243 -392 -350q-156 -69 -346 -69v27zM252 737q0 -86 42 -139 q46 -57 130 -57q151 0 254.5 152t103.5 388q0 248 -211 248q-64 0 -113 -33q-84 -56 -149 -257q-57 -176 -57 -302z" />
<glyph unicode=":" horiz-adv-x="674" d="M72 76q0 39 25.5 64.5t64.5 25.5t65.5 -25.5t26.5 -64.5t-26.5 -64.5t-65.5 -25.5q-38 0 -64 26t-26 64zM256 748q0 38 26 65t64 27q39 0 65.5 -26.5t26.5 -65.5t-26.5 -65t-65.5 -26q-38 0 -64 26.5t-26 64.5z" />
<glyph unicode=";" horiz-adv-x="674" d="M-23 -326q99 40 178 102q107 83 107 161q0 34 -57 39q-150 13 -150 108q0 46 31.5 75t77.5 29q73 0 117 -55q41 -51 41 -125q0 -127 -109 -229q-88 -82 -225 -133zM256 748q0 38 26 65t64 27q39 0 65.5 -26.5t26.5 -65.5t-26.5 -65t-65.5 -26q-38 0 -64 26.5t-26 64.5z " />
<glyph unicode="&#x3c;" horiz-adv-x="1706" d="M264 559v103l1178 483v-127l-1000 -408l1000 -405v-129z" />
<glyph unicode="=" horiz-adv-x="1706" d="M254 360v117h1198v-117h-1198zM254 743v117h1198v-117h-1198z" />
<glyph unicode="&#x3e;" horiz-adv-x="1706" d="M264 76v129l1000 405l-1000 408v127l1178 -483v-103z" />
<glyph unicode="?" horiz-adv-x="920" d="M82 61q0 39 25.5 66t64.5 27t64.5 -27t25.5 -66q0 -38 -26 -64t-64 -26t-64 26t-26 64zM250 383l82 248q42 127 77.5 173.5t135.5 84.5q301 115 301 276q0 88 -74 141q-67 48 -158 48q-65 0 -128 -28q-78 -34 -78 -91q0 -24 50 -47.5t50 -75.5q0 -76 -76 -76 q-94 0 -94 113q0 106 83 173q77 62 185 62q137 0 215 -80.5t78 -218.5q0 -228 -299 -366l-114 -48q-65 -31 -101.5 -65.5t-64.5 -111.5q-20 -61 -39 -121z" />
<glyph unicode="@" horiz-adv-x="2019" d="M145 537q0 289 177 528q173 236 450 332q160 55 344 55q333 0 540 -174q220 -185 220 -512q0 -157 -58.5 -298t-162.5 -235q-119 -108 -258 -108q-195 0 -207 211q-123 -211 -309 -211q-135 0 -210 104q-67 92 -67 232q0 193 145 365q151 180 341 180q176 0 221 -195 l53 180h143l-170 -610q-18 -65 -18 -109q0 -102 94 -102q75 0 164 66q252 186 252 546q0 283 -204 457q-194 164 -482 164q-392 0 -636.5 -252t-244.5 -645q0 -175 57 -304t181 -235q230 -196 581 -196q328 0 613 206l30 -36q-299 -222 -655 -222q-187 0 -342 46 q-268 81 -425 287.5t-157 484.5zM750 375q0 -82 33 -136q39 -65 116 -65q151 0 267 220q100 191 100 358q0 84 -41 144q-47 69 -127 69q-139 0 -251 -232q-97 -200 -97 -358z" />
<glyph unicode="A" horiz-adv-x="971" d="M-240 0v29q73 0 118 36q30 24 77 99l764 1220h31v-1355h124v-29h-471v29h162v458h-366l-219 -344q-29 -46 -29 -69q0 -39 131 -46v-28h-322zM215 516h350v561z" />
<glyph unicode="B" horiz-adv-x="1214" d="M-147 0l6 29h153l361 1298h-154l8 29h564q148 0 247 -61q119 -73 119 -212q0 -158 -144 -266q-119 -89 -292 -119q140 -12 225 -76q98 -75 98 -208q0 -173 -163.5 -293.5t-407.5 -120.5h-620zM203 29h205q160 0 246 49q97 55 152 197q38 97 38 192q0 217 -262 217h-197z M393 713h142q138 0 204 25q106 39 167 171q52 113 52 240q0 112 -92 154q-62 28 -190 28q-77 0 -113 -4z" />
<glyph unicode="C" horiz-adv-x="1270" d="M55 547q0 169 64 320q89 209 274 358q201 161 414 161q118 0 205 -43q40 -24 79 -48q54 -33 78 -33q52 0 68 63h31l-99 -467h-30q20 90 20 143q0 153 -92 252t-244 99q-126 0 -220.5 -75.5t-184.5 -252.5q-168 -329 -168 -655q0 -161 87 -259q90 -102 249 -102 q150 0 286 104q121 91 199 236l33 -16q-201 -359 -547 -359q-230 0 -371 176q-131 163 -131 398z" />
<glyph unicode="D" horiz-adv-x="1337" d="M-147 0l6 29h153l361 1298h-154l8 29h514q144 0 235 -34q146 -54 228 -203q74 -134 74 -300q0 -235 -133 -450q-136 -220 -348 -310q-137 -59 -324 -59h-620zM209 29h221q166 0 285 69q116 67 195 210.5t127 329t48 349.5q0 183 -94 264q-88 76 -274 76h-154z" />
<glyph unicode="E" horiz-adv-x="1165" d="M-145 0l8 29h153l361 1298h-154l8 29h951l-68 -369h-31q4 16 4 70q0 270 -245 270h-275l-161 -575h116q118 0 164 46q36 37 68 160h30l-139 -509h-29q35 136 35 169q0 107 -171 107q-17 0 -46 -1t-39 -1l-188 -694h330q168 0 284 112q107 104 142 275h28l-84 -416h-1052z " />
<glyph unicode="F" horiz-adv-x="1075" d="M-145 0l8 29h153l361 1298h-154l8 29h930l-47 -369h-31q4 16 4 70q0 270 -245 270h-275l-161 -575h116q118 0 164 46q36 37 68 160h30l-139 -509h-29q35 136 35 169q0 107 -171 107q-17 0 -46 -1t-39 -1l-188 -694h166l-8 -29h-510z" />
<glyph unicode="G" horiz-adv-x="1309" d="M59 530q0 155 59 302q89 222 284 381q210 171 436 171q81 0 146.5 -20.5t134.5 -67.5q34 -26 67 -52q46 -32 74 -32q34 0 57 60l26 -4l-131 -475l-26 8q14 76 14 172q0 174 -85 275q-90 108 -261 108q-136 0 -231 -72q-136 -103 -267 -427q-125 -308 -125 -497 q0 -356 351 -356q220 0 280 223l64 238h-142l9 29h481v-29h-148l-67 -250q-7 -26 -62 -79q-172 -165 -422 -165q-222 0 -372 170q-144 164 -144 389z" />
<glyph unicode="H" horiz-adv-x="1460" d="M-147 0l6 29h153l361 1298h-154l8 29h512l-8 -29h-168l-168 -606h692l168 606h-170l9 29h512l-9 -29h-149l-361 -1298h150l-6 -29h-512l6 29h170l184 663h-690l-184 -663h166l-6 -29h-512z" />
<glyph unicode="I" horiz-adv-x="578" d="M-147 0l6 29h153l361 1298h-154l8 29h512l-8 -29h-168l-358 -1298h166l-6 -29h-512z" />
<glyph unicode="J" horiz-adv-x="750" d="M-203 39q0 63 36.5 109.5t98.5 46.5q50 0 82.5 -33.5t32.5 -83.5q0 -48 -29.5 -79.5t-76.5 -31.5q-8 0 -25 2t-25 2q-20 0 -20 -20q0 -29 52 -44q37 -11 75 -11q84 0 131 75q27 42 57 150l336 1206h-153l8 29h512l-8 -29h-168l-277 -997q-131 -471 -459 -471 q-81 0 -130.5 49.5t-49.5 130.5z" />
<glyph unicode="K" horiz-adv-x="1151" d="M-147 0l6 29h153l361 1298h-154l8 29h512l-8 -29h-166l-178 -641l684 565q29 24 29 35q0 41 -152 41l8 29h416l-9 -29q-155 -4 -339 -156l-498 -411l473 -731h113l-8 -29h-498l8 29h160l-395 626l-174 -626h166l-6 -29h-512z" />
<glyph unicode="L" horiz-adv-x="1165" d="M-166 0l6 29h154l360 1298h-153l8 29h512l-8 -29h-166l-361 -1298h297q208 0 356 138q135 126 193 337h31l-154 -504h-1075z" />
<glyph unicode="M" horiz-adv-x="1485" d="M-178 0l9 29q94 1 131 37q31 30 58 127l318 1134h-178l6 29h369l57 -1077l721 1077h332l-9 -29h-151l-361 -1298h166v-29h-524l8 29h160l344 1220l-827 -1249h-29l-62 1274l-313 -1114q-8 -28 -8 -56q0 -72 145 -76l-10 -28h-352z" />
<glyph unicode="N" horiz-adv-x="1251" d="M-178 0v29q100 0 137 34q33 29 61 130l318 1134h-176l8 29h365l405 -1120l272 966q9 32 9 53q0 67 -143 76l5 25h349l-9 -23q-87 -6 -121 -32t-57 -109l-330 -1176l-79 -32l-476 1290l-313 -1114q-8 -28 -8 -56q0 -69 135 -76v-28h-352z" />
<glyph unicode="O" horiz-adv-x="1346" d="M55 526q0 306 215 574q228 284 527 284q230 0 366 -165q127 -153 127 -388q0 -147 -52 -291q-82 -228 -264 -390q-200 -179 -425 -179q-231 0 -367 165q-127 154 -127 390zM240 332q0 -336 313 -336q104 0 187 55t147 166q84 146 152.5 393.5t68.5 411.5q0 338 -313 338 q-104 0 -188 -55.5t-146 -165.5q-87 -154 -153 -393q-68 -244 -68 -414z" />
<glyph unicode="P" horiz-adv-x="1090" d="M-156 0l9 29h153l359 1298h-152l6 29h492q174 0 278 -68q125 -81 125 -246q0 -151 -121 -268q-144 -139 -458 -139q-28 0 -84 1t-84 1l-170 -608h168l-9 -29h-512zM375 666h147q112 0 168 24q102 45 163 186q52 121 52 250q0 122 -81 168q-61 35 -193 35q-48 0 -74 -2z " />
<glyph unicode="Q" horiz-adv-x="1346" d="M57 524q0 150 52 294q82 227 263 388q201 178 425 178q230 0 366 -165q127 -153 127 -388q0 -290 -184 -539q-190 -257 -469 -312q-47 -139 -47 -220q0 -106 107 -135q47 -12 194 -12v-29h-6q-16 0 -46 -2t-44 -2q-143 0 -248 41q-146 56 -146 176q0 29 37 187 q-189 49 -288 199q-93 139 -93 341zM240 332q0 -336 313 -336q104 0 187 55t147 166q84 146 152.5 393.5t68.5 411.5q0 338 -313 338q-104 0 -188 -55.5t-146 -165.5q-87 -154 -153 -393q-68 -244 -68 -414z" />
<glyph unicode="R" horiz-adv-x="1067" d="M-193 0l9 29h151l361 1298h-152l6 29h557q134 0 220 -67q94 -74 94 -204q0 -159 -143 -266q-119 -89 -292 -114q213 -56 213 -254q0 -76 -30.5 -196t-30.5 -159q0 -65 55 -65q60 0 125 90l27 -19q-88 -112 -184 -112q-89 0 -138 54t-49 144q0 68 30 199t30 191 q0 116 -152 116h-170l-184 -665h168l-9 -29h-512zM352 723h166q244 0 327 293q25 87 25 153q0 162 -254 162q-57 0 -96 -4z" />
<glyph unicode="S" horiz-adv-x="1006" d="M-63 4l133 483l28 -4q-18 -80 -18 -145q0 -147 95.5 -239.5t242.5 -92.5q140 0 236 98.5t96 239.5q0 156 -244 273q-142 68 -202 131q-81 87 -81 221q0 169 106 289q110 126 277 126q119 0 201 -45q97 -53 111 -53q33 0 63 60l29 -7l-113 -401l-27 8q17 74 17 125 q0 128 -73 205.5t-200 77.5q-125 0 -212 -77q-91 -80 -91 -204q0 -129 274 -259q150 -71 209 -133q83 -87 83 -228q0 -199 -134 -340q-137 -142 -335 -142q-104 0 -226 57.5t-137 57.5q-56 0 -80 -90z" />
<glyph unicode="T" horiz-adv-x="1331" d="M133 909l123 447h1171l-122 -447h-35q33 128 33 205q0 151 -121 193q-59 20 -248 20l-361 -1298h168l-8 -29h-512l8 29h154l358 1298h-151q-301 0 -428 -418h-29z" />
<glyph unicode="U" horiz-adv-x="1262" d="M35 285q0 64 31 176l239 866h-151l6 29h512l-6 -29h-168l-250 -899q-31 -111 -31 -192q0 -115 88 -177q77 -53 197 -53q211 0 330 95q115 92 172 298l223 807q12 43 12 56q0 52 -62 63q-11 2 -106 2l10 29h373l-8 -29q-89 0 -121 -21q-39 -25 -63 -112l-207 -745 q-71 -257 -186 -361q-128 -117 -382 -117q-172 0 -298 70q-154 85 -154 244z" />
<glyph unicode="V" horiz-adv-x="930" d="M104 -14l211 1341h-141l8 29h490l-8 -29h-164l-156 -991l608 864q41 58 41 90q0 30 -50 36q-5 1 -71 1l9 29h274l-9 -29q-67 -2 -128 -88l-889 -1253h-25z" />
<glyph unicode="W" horiz-adv-x="1489" d="M111 -14l208 1341h-143l8 29h490l-8 -29h-164l-154 -989l473 668l49 321h-129l9 29h477l-8 -29h-166l-154 -989l608 862q41 58 41 90q0 30 -50 36q-6 1 -71 1l9 29h272l-9 -29q-69 -2 -128 -86l-881 -1255h-28l149 958l-672 -958h-28z" />
<glyph unicode="X" horiz-adv-x="1042" d="M-160 0v29q145 2 263 156l368 479l-186 663h-179v29h512v-29h-141l131 -483l260 336q50 65 50 94q0 40 -56 50q-17 3 -84 3v29h340v-29q-93 -2 -160 -88l-337 -434l217 -776h153v-29h-512v29h166l-166 596l-356 -467q-33 -43 -33 -72q0 -51 108 -57l1 -29h-359z" />
<glyph unicode="Y" horiz-adv-x="883" d="M-47 0l8 29h156l151 542l-61 756h-135v29h481v-29h-164l60 -713l428 592q43 59 43 80q0 36 -55 42h1q0 -1 -82 -1l9 29h288l-6 -29q-73 0 -133 -84l-493 -686l-136 -528h168l-6 -29h-522z" />
<glyph unicode="Z" horiz-adv-x="1133" d="M-121 0l1055 1327h-295q-202 0 -314 -84q-103 -77 -186 -270h-28l104 383h967l-1047 -1327h381q198 0 313 101q94 84 175 284h28l-114 -414h-1039z" />
<glyph unicode="[" horiz-adv-x="664" d="M-100 -436l497 1792h443l-9 -31h-305l-479 -1731h305l-8 -30h-444z" />
<glyph unicode="\" horiz-adv-x="569" d="M221 1384h47l84 -1574h-47z" />
<glyph unicode="]" horiz-adv-x="664" d="M-297 -436l8 30h305l480 1731h-306l9 31h444l-498 -1792h-442z" />
<glyph unicode="^" horiz-adv-x="2048" d="M412 897l522 565h178l520 -565h-92l-518 436l-520 -436h-90z" />
<glyph unicode="_" horiz-adv-x="1024" d="M0 -365h1024v-118h-1024v118z" />
<glyph unicode="`" horiz-adv-x="1024" d="M360 1241q0 28 20 49t48 21q45 0 86 -58l213 -301h-68l-243 203q-56 47 -56 86z" />
<glyph unicode="a" d="M-29 311q0 91 26 174q46 145 168 247q129 108 277 108q186 0 213 -172l45 147h156l-180 -633q-23 -81 -23 -104q0 -58 43 -58q67 0 183 179l24 -17q-64 -97 -108 -138q-72 -69 -154 -69q-110 0 -139 136q-119 -131 -250 -131q-135 0 -211 101q-70 91 -70 230zM119 209 q0 -199 143 -199q101 0 182 87q70 75 101 182l77 267q11 38 11 77q0 75 -40 126q-44 56 -116 56q-163 0 -270 -226q-88 -185 -88 -370z" />
<glyph unicode="b" horiz-adv-x="924" d="M-12 252q0 61 14 111l268 964h-123l9 29q187 0 299 51l-217 -784q139 211 319 211q123 0 194 -86q68 -80 68 -205q0 -107 -37 -199q-60 -151 -188 -251q-136 -107 -291 -107q-129 0 -218 67q-97 74 -97 199zM131 182q0 -76 49.5 -124t126.5 -48q65 0 128 46.5t104 125.5 q141 274 141 463q0 160 -148 160q-157 0 -287 -239q-114 -210 -114 -384z" />
<glyph unicode="c" horiz-adv-x="735" d="M-6 291q0 196 139 368q146 181 338 181q78 0 132 -31q65 -38 65 -111q0 -42 -28.5 -68t-70.5 -26q-36 0 -63 27t-27 63q0 54 40 96q4 4 5 7q-1 14 -53 14q-56 0 -103 -35q-85 -64 -154 -284q-60 -195 -60 -328q0 -146 125 -146q186 0 317 285l29 -16q-132 -310 -355 -310 q-122 0 -202 98q-74 91 -74 216z" />
<glyph unicode="d" d="M-23 311q0 91 26 174q46 146 169 248q129 109 277 109q184 0 213 -172l198 657h-121l9 29q188 0 296 53l-362 -1229q-23 -78 -23 -104q0 -58 43 -58q67 0 183 181l24 -19q-136 -207 -262 -207q-110 0 -139 138q-118 -136 -250 -136q-135 0 -212 103q-69 93 -69 233z M125 213q0 -199 143 -199q102 0 183 87q69 74 100 182l78 268q10 34 10 74q0 75 -40 127q-43 57 -116 57q-163 0 -270 -226q-88 -186 -88 -370z" />
<glyph unicode="e" horiz-adv-x="711" d="M-18 313q0 172 145 346q151 181 319 181q85 0 136 -45q55 -47 55 -131q0 -112 -102 -184q-91 -64 -207 -64q-68 0 -156 24q-45 -184 -45 -264q0 -164 149 -164q154 0 281 213l25 -14q-134 -231 -326 -231q-129 0 -206 105q-68 94 -68 228zM178 471q66 -22 125 -22 q98 0 156 85q51 74 51 177q0 100 -86 100q-153 0 -246 -340z" />
<glyph unicode="f" horiz-adv-x="502" d="M-416 -385q0 39 24 69.5t62 30.5q41 0 67.5 -26.5t26.5 -67.5q0 -9 -24 -63q0 -25 31 -25q96 0 174 247q22 69 79 334q94 434 162 672h-178l8 29h181q63 224 164 376q142 214 323 214q150 0 150 -119q0 -39 -26 -66.5t-65 -27.5q-41 0 -70.5 25t-29.5 65q0 16 13.5 41.5 t13.5 30.5q0 18 -33 18q-134 0 -285 -557h199l-8 -29h-197q-157 -703 -299 -998.5t-315 -295.5q-60 0 -102 31q-46 34 -46 92z" />
<glyph unicode="g" horiz-adv-x="895" d="M-115 -274q0 178 213 247q-108 25 -108 133q0 149 196 189q-110 102 -110 209q0 131 116 235q112 101 244 101q154 0 228 -125q69 125 159 125q99 0 99 -86t-74 -86q-76 0 -78 71q0 5 1 15.5t1 15.5q-3 8 -16 8q-29 0 -78 -92q16 -60 16 -104q0 -134 -99.5 -230 t-234.5 -96q-24 0 -58 6q-84 13 -84 15q0 1 4 1q-52 0 -105 -30q-60 -34 -60 -82q0 -57 98 -57h3l336 4q225 0 225 -193q0 -173 -145.5 -302.5t-350.5 -129.5q-134 0 -225 51q-113 63 -113 187zM-20 -252q0 -113 90 -173q78 -52 196 -52q103 0 204.5 60.5t153.5 150.5 q35 61 35 114q0 121 -167 121h-347l-18 -6q-62 -25 -101 -78q-46 -61 -46 -137zM207 403q0 -120 141 -120q48 0 81 25q48 35 97 188q45 139 45 213q0 51 -40 80q-36 26 -89 26q-89 0 -131 -72q-14 -24 -25 -49q-15 -31 -46 -144q-33 -118 -33 -147z" />
<glyph unicode="h" horiz-adv-x="1014" d="M-57 0l407 1327h-121l9 29q185 0 297 51l-254 -821q198 254 393 254q77 0 125.5 -41t48.5 -117q0 -42 -25 -119l-123 -381q-22 -68 -22 -100q0 -62 43 -62q68 0 182 179l25 -19q-134 -205 -256 -205q-133 0 -133 144q0 44 18 102l135 432q19 61 19 86q0 64 -70 64 q-83 0 -201 -94q-163 -129 -221 -320l-119 -389h-157z" />
<glyph unicode="i" horiz-adv-x="508" d="M6 115q0 41 33 149l160 522h-123l8 29q206 0 289 25l-195 -645q-22 -73 -22 -107q0 -55 53 -55q64 0 207 162l20 -17q-162 -198 -293 -198q-137 0 -137 135zM352 1272q0 47 28 85q30 42 75 42q34 0 56 -30q19 -27 19 -62q0 -48 -27 -83q-29 -40 -75 -40q-76 0 -76 88z " />
<glyph unicode="j" horiz-adv-x="446" d="M-453 -373q0 99 91 99q83 0 83 -86q0 -11 -24 -74q0 -19 24 -19q91 0 154 209l311 1030h-123l9 29q207 0 288 25l-202 -680q-194 -654 -469 -654q-60 0 -99 30q-43 33 -43 91zM340 1272q0 46 27 85q31 42 75 42q35 0 55.5 -28t20.5 -64q0 -48 -27 -83q-29 -40 -75 -40 q-76 0 -76 88z" />
<glyph unicode="k" horiz-adv-x="915" d="M-63 0l430 1327h-121l8 29q185 0 297 51l-295 -875h14q98 0 157 53q40 36 95 139q87 163 166 163q49 0 82 -26q37 -28 37 -75q0 -36 -25 -60t-61 -24q-51 0 -70 53.5t-33 53.5q-26 0 -62 -72q-54 -106 -77 -137q-57 -76 -133 -86q105 -15 150.5 -65.5t56.5 -157.5 l14 -137q11 -105 54 -105q82 0 149 213l27 -6q-68 -274 -250 -274q-99 0 -128 104q-12 44 -18 212q-6 134 -42 172q-33 34 -109 36l-156 -506h-157z" />
<glyph unicode="l" horiz-adv-x="537" d="M14 119q0 39 23 110l358 1098h-121l9 29q185 0 297 51l-402 -1227q-22 -67 -22 -92q0 -51 51 -51q78 0 211 166l26 -19q-152 -198 -284 -198q-146 0 -146 133z" />
<glyph unicode="m" horiz-adv-x="1417" d="M-61 0l243 786h-121l9 29q207 0 288 25l-82 -260q202 260 353 260q147 0 147 -150q0 -56 -14 -110q200 260 352 260q148 0 148 -150q0 -63 -25 -145l-131 -428q-8 -26 -8 -45q0 -47 45 -47q68 0 180 174l23 -17q-134 -207 -256 -207q-129 0 -129 136q0 61 36 178l103 334 q26 84 26 112q0 53 -39 53q-82 0 -182 -94q-150 -140 -200 -309l-115 -385h-162l186 623q25 84 25 112q0 53 -37 53q-94 0 -213 -120t-170 -283l-121 -385h-159z" />
<glyph unicode="n" horiz-adv-x="1014" d="M-57 0l239 786h-121l9 29q207 0 288 25l-77 -254q198 254 393 254q77 0 125.5 -41t48.5 -117q0 -42 -25 -119l-124 -386q-1 -7 -14 -47q-9 -31 -9 -48q0 -62 43 -62q70 0 184 179l25 -19q-135 -205 -258 -205q-131 0 -131 144q0 46 18 102l127 398q27 85 27 120 q0 64 -70 64q-83 0 -201 -94q-163 -129 -221 -320l-119 -389h-157z" />
<glyph unicode="o" horiz-adv-x="891" d="M-20 317q0 142 83.5 278.5t210.5 201.5q85 43 193 43q142 0 223 -100q74 -93 74 -238q0 -192 -137 -356q-143 -171 -332 -171q-147 0 -233 99q-82 94 -82 243zM121 188q0 -186 168 -186q65 0 119 47q84 73 152 273q63 183 63 311q0 182 -166 182q-68 0 -121 -46 q-79 -70 -150 -273q-65 -188 -65 -308z" />
<glyph unicode="p" horiz-adv-x="977" d="M-266 -494l8 29h113l335 1251h-120l8 29q204 0 287 25l-46 -162q125 164 273 164q134 0 211 -103q69 -92 69 -231q0 -91 -25 -173q-46 -147 -169 -248q-128 -105 -277 -105q-177 0 -215 172l-176 -619h117l-6 -29h-387zM211 199q0 -76 39 -128q43 -57 117 -57 q163 0 270 226q88 186 88 370q0 199 -143 199q-100 0 -183 -86q-72 -75 -102 -180l-76 -269q-10 -35 -10 -75z" />
<glyph unicode="q" d="M-23 315q0 91 26 174q46 146 169 248q129 107 277 107q184 0 213 -172l32 114h158l-348 -1251h112l-8 -29h-385l6 29h117l162 580q-121 -133 -250 -133q-135 0 -212 102q-69 92 -69 231zM125 213q0 -199 143 -199q102 0 183 87q69 74 100 182l78 268q10 34 10 74 q0 75 -40 127q-43 57 -116 57q-163 0 -270 -226q-88 -186 -88 -370z" />
<glyph unicode="r" horiz-adv-x="664" d="M-61 0l243 786h-121l9 29q207 0 288 25l-73 -217q145 215 284 215q101 0 101 -97q0 -43 -27 -71.5t-70 -28.5q-33 0 -58.5 23.5t-25.5 56.5q0 10 7.5 28t7.5 27l-4 2q-57 0 -142.5 -103.5t-126.5 -238.5l-133 -436h-159z" />
<glyph unicode="s" horiz-adv-x="743" d="M-72 178q0 48 31 84.5t78 36.5q102 0 102 -90q0 -70 -105 -99q-26 -8 -26 -14q0 -20 57 -52t121 -32q81 0 139 41q66 46 66 123q0 64 -68 129l-126 114q-68 72 -68 152q0 117 89 195q86 74 204 74q84 0 151 -33q84 -41 84 -117q0 -42 -27 -69t-69 -27q-40 0 -69 25 t-29 65q0 44 60 83q3 2 9 7q-1 37 -96 37q-76 0 -128 -41q-56 -44 -56 -119q0 -60 117 -155q137 -110 158 -147q24 -45 24 -107q0 -122 -119 -198q-105 -67 -233 -67q-100 0 -179 49q-92 57 -92 152z" />
<glyph unicode="t" horiz-adv-x="578" d="M16 117q0 43 21 112l170 557h-125l8 29h131l72 246q98 6 172 49l-94 -295h207l-9 -29h-204l-185 -606q-22 -72 -22 -92q0 -51 51 -51q85 0 260 227l27 -20q-196 -258 -334 -258q-146 0 -146 131z" />
<glyph unicode="u" horiz-adv-x="948" d="M-23 125q0 44 25 125l166 536h-121l8 29q206 0 289 25l-201 -656q-18 -59 -18 -88q0 -65 68 -65q52 0 137 69q164 133 221 312l129 403h156l-199 -629q-25 -79 -25 -106q0 -53 43 -53q68 0 183 176l22 -17q-124 -204 -256 -204q-133 0 -133 141q0 40 18 102 q-182 -243 -360 -243q-68 0 -110 38t-42 105z" />
<glyph unicode="v" horiz-adv-x="782" d="M-8 123q0 50 24 127l166 536h-121l9 29q207 0 288 25l-200 -656q-19 -62 -19 -90q0 -67 68 -67q40 0 101 41q159 108 265 325q56 116 56 180q0 37 -62.5 78.5t-62.5 91.5q0 39 24 68t62 29q108 0 108 -142q0 -103 -48 -227q-66 -168 -198 -316q-161 -180 -309 -180 q-67 0 -109 40.5t-42 107.5z" />
<glyph unicode="w" horiz-adv-x="1280" d="M-29 123q0 48 25 127l170 536h-121l6 29q206 0 289 25l-203 -656q-18 -58 -18 -90q0 -67 67 -67q54 0 138 69q183 150 233 320l117 399h155l-186 -631q-18 -61 -18 -90q0 -67 67 -67q41 0 102 41q159 106 264 325q56 116 56 180q0 37 -61.5 78t-61.5 92q0 39 23 68t61 29 q109 0 109 -142q0 -103 -49 -227q-66 -167 -197 -315q-161 -181 -307 -181q-154 0 -154 148q0 35 23 121q-202 -269 -375 -269q-154 0 -154 148z" />
<glyph unicode="x" horiz-adv-x="1034" d="M-76 117q0 47 23 81q26 40 71 40q33 0 54.5 -24.5t21.5 -57.5q0 -55 -59 -103l-12 -12q1 -25 40 -25q139 0 250 262q93 220 93 384q0 49 -21 87q-25 46 -70 46q-99 0 -252 -195l-22 21q164 219 324 219q171 0 200 -193q111 193 234 193q141 0 141 -129q0 -39 -25 -67 t-63 -28q-76 0 -76 76q0 34 19 59q27 37 28 40q0 12 -35 12q-122 0 -221 -244q-82 -206 -82 -354q0 -54 21 -97q27 -53 76 -53q92 0 258 191l24 -21q-188 -250 -381 -250q-155 0 -155 250q-131 -248 -277 -248q-57 0 -92 41t-35 99z" />
<glyph unicode="y" horiz-adv-x="924" d="M-303 -391q0 46 26.5 79t71.5 33q84 0 84 -90q0 -28 -14.5 -47.5t-28.5 -38.5q0 -10 41 -10q181 0 402 424l-78 678q-13 113 -64 113q-50 0 -143 -181l-31 13q121 256 260 256q115 0 131 -144l56 -506l221 424q119 228 219 228t100 -95q0 -94 -86 -94q-80 0 -80 70 q0 9 6 25t7 24l-1 4l-3 2q-41 -1 -148 -203l-223 -421q-100 -189 -151 -276q-101 -169 -181 -254q-123 -130 -260 -130q-55 0 -94 31.5t-39 85.5z" />
<glyph unicode="z" horiz-adv-x="883" d="M-55 18q0 20 39 58l616 602q-127 -43 -293 -43q-92 0 -182 18l-35 -90h-33l101 246q309 -45 444 -45q58 0 118 18q-5 27 -5 37q0 27 28 27q31 0 31 -31q0 -12 -20 -31l-649 -630q106 18 176 18q96 0 211 -38t131 -38q49 0 49 43q0 9 -35 47.5t-35 71.5q0 64 62 64 q69 0 69 -95q0 -120 -102 -182q-84 -51 -213 -51q-74 0 -192.5 34.5t-155.5 34.5q-30 0 -64 -22q2 -8 2 -23q0 -32 -28 -32q-35 0 -35 32z" />
<glyph unicode="{" horiz-adv-x="1024" d="M176 606v60q165 15 223 74t58 216q0 32 -1 87v80q0 219 60 294q79 99 330 99v-51q-142 -2 -194.5 -56t-52.5 -254v-49.5v-51.5q0 -224 -61 -306t-225 -113q164 -31 225 -113t61 -308v-50v-49q0 -200 52 -253t195 -55v-51h-10q-244 0 -322 101q-58 75 -58 290v80 q1 57 1 88q0 158 -59 218t-222 73z" />
<glyph unicode="|" horiz-adv-x="1024" d="M449 -483v2048h126v-2048h-126z" />
<glyph unicode="}" horiz-adv-x="1024" d="M178 -193q143 2 195 55t52 253v49v50q0 226 61 308t225 113q-164 31 -226 114q-60 80 -60 305v51v50q0 200 -52.5 254t-194.5 56v51h10q243 0 322 -102q58 -76 58 -290v-81q-1 -56 -1 -87q0 -157 58 -216t223 -74v-60q-160 -13 -219 -71q-62 -62 -62 -220q0 -264 -6 -310 q-15 -131 -91 -186q-87 -63 -292 -63v51z" />
<glyph unicode="~" horiz-adv-x="1706" d="M178 461v133q209 145 387 145q105 0 295.5 -68.5t284.5 -68.5q163 0 385 156v-131q-202 -144 -387 -144q-101 0 -290 69t-290 69q-157 0 -385 -160z" />
<glyph unicode="&#xad;" horiz-adv-x="786" d="M72 344l37 131h448l-39 -131h-446z" />
<glyph unicode="&#xc0;" horiz-adv-x="971" d="M-240 0v29q73 0 118 36q30 24 77 99l764 1220h31v-1355h124v-29h-471v29h162v458h-366l-219 -344q-29 -46 -29 -69q0 -39 131 -46v-28h-322zM215 516h350v561zM544 1786q0 28 20 49t48 21q45 0 86 -58l213 -301h-68l-243 203q-56 47 -56 86z" />
<glyph unicode="&#xc1;" horiz-adv-x="971" d="M-240 0v29q73 0 118 36q30 24 77 99l764 1220h31v-1355h124v-29h-471v29h162v458h-366l-219 -344q-29 -46 -29 -69q0 -39 131 -46v-28h-322zM215 516h350v561zM598 1495l299 314q41 43 80 43q28 0 48.5 -21t20.5 -49q0 -41 -69 -86l-308 -201h-71z" />
<glyph unicode="&#xc2;" horiz-adv-x="971" d="M-240 0v29q73 0 118 36q30 24 77 99l764 1220h31v-1355h124v-29h-471v29h162v458h-366l-219 -344q-29 -46 -29 -69q0 -39 131 -46v-28h-322zM215 516h350v561zM434 1438l310 348h104l162 -348h-56l-176 207l-276 -207h-68z" />
<glyph unicode="&#xc3;" horiz-adv-x="971" d="M-240 0v29q73 0 118 36q30 24 77 99l764 1220h31v-1355h124v-29h-471v29h162v458h-366l-219 -344q-29 -46 -29 -69q0 -39 131 -46v-28h-322zM215 516h350v561zM493 1553q32 184 172 184q47 0 133 -27.5t129 -27.5q80 0 101 84h49q-37 -195 -180 -195q-45 0 -131 27.5 t-131 27.5q-77 0 -93 -73h-49z" />
<glyph unicode="&#xc8;" horiz-adv-x="1165" d="M-145 0l8 29h153l361 1298h-154l8 29h951l-68 -369h-31q4 16 4 70q0 270 -245 270h-275l-161 -575h116q118 0 164 46q36 37 68 160h30l-139 -509h-29q35 136 35 169q0 107 -171 107q-17 0 -46 -1t-39 -1l-188 -694h330q168 0 284 112q107 104 142 275h28l-84 -416h-1052z M563 1786q0 28 20 49t48 21q45 0 86 -58l213 -301h-68l-243 203q-56 47 -56 86z" />
<glyph unicode="&#xc9;" horiz-adv-x="1165" d="M-145 0l8 29h153l361 1298h-154l8 29h951l-68 -369h-31q4 16 4 70q0 270 -245 270h-275l-161 -575h116q118 0 164 46q36 37 68 160h30l-139 -509h-29q35 136 35 169q0 107 -171 107q-17 0 -46 -1t-39 -1l-188 -694h330q168 0 284 112q107 104 142 275h28l-84 -416h-1052z M617 1495l299 314q41 43 80 43q28 0 48.5 -21t20.5 -49q0 -41 -69 -86l-308 -201h-71z" />
<glyph unicode="&#xca;" horiz-adv-x="1165" d="M-145 0l8 29h153l361 1298h-154l8 29h951l-68 -369h-31q4 16 4 70q0 270 -245 270h-275l-161 -575h116q118 0 164 46q36 37 68 160h30l-139 -509h-29q35 136 35 169q0 107 -171 107q-17 0 -46 -1t-39 -1l-188 -694h330q168 0 284 112q107 104 142 275h28l-84 -416h-1052z M470 1438l310 348h104l162 -348h-56l-176 207l-276 -207h-68z" />
<glyph unicode="&#xcc;" horiz-adv-x="578" d="M-147 0l6 29h153l361 1298h-154l8 29h512l-8 -29h-168l-358 -1298h166l-6 -29h-512zM297 1786q0 28 20 49t48 21q45 0 86 -58l213 -301h-68l-243 203q-56 47 -56 86z" />
<glyph unicode="&#xcd;" horiz-adv-x="578" d="M-147 0l6 29h153l361 1298h-154l8 29h512l-8 -29h-168l-358 -1298h166l-6 -29h-512zM351 1495l299 314q41 43 80 43q28 0 48.5 -21t20.5 -49q0 -41 -69 -86l-308 -201h-71z" />
<glyph unicode="&#xd2;" horiz-adv-x="1346" d="M55 526q0 306 215 574q228 284 527 284q230 0 366 -165q127 -153 127 -388q0 -147 -52 -291q-82 -228 -264 -390q-200 -179 -425 -179q-231 0 -367 165q-127 154 -127 390zM240 332q0 -336 313 -336q104 0 187 55t147 166q84 146 152.5 393.5t68.5 411.5q0 338 -313 338 q-104 0 -188 -55.5t-146 -165.5q-87 -154 -153 -393q-68 -244 -68 -414zM657 1786q0 28 20 49t48 21q45 0 86 -58l213 -301h-68l-243 203q-56 47 -56 86z" />
<glyph unicode="&#xd3;" horiz-adv-x="1346" d="M55 526q0 306 215 574q228 284 527 284q230 0 366 -165q127 -153 127 -388q0 -147 -52 -291q-82 -228 -264 -390q-200 -179 -425 -179q-231 0 -367 165q-127 154 -127 390zM240 332q0 -336 313 -336q104 0 187 55t147 166q84 146 152.5 393.5t68.5 411.5q0 338 -313 338 q-104 0 -188 -55.5t-146 -165.5q-87 -154 -153 -393q-68 -244 -68 -414zM711 1495l299 314q41 43 80 43q28 0 48.5 -21t20.5 -49q0 -41 -69 -86l-308 -201h-71z" />
<glyph unicode="&#xd4;" horiz-adv-x="1346" d="M55 526q0 306 215 574q228 284 527 284q230 0 366 -165q127 -153 127 -388q0 -147 -52 -291q-82 -228 -264 -390q-200 -179 -425 -179q-231 0 -367 165q-127 154 -127 390zM240 332q0 -336 313 -336q104 0 187 55t147 166q84 146 152.5 393.5t68.5 411.5q0 338 -313 338 q-104 0 -188 -55.5t-146 -165.5q-87 -154 -153 -393q-68 -244 -68 -414zM541 1438l310 348h104l162 -348h-56l-176 207l-276 -207h-68z" />
<glyph unicode="&#xd5;" horiz-adv-x="1346" d="M55 526q0 306 215 574q228 284 527 284q230 0 366 -165q127 -153 127 -388q0 -147 -52 -291q-82 -228 -264 -390q-200 -179 -425 -179q-231 0 -367 165q-127 154 -127 390zM240 332q0 -336 313 -336q104 0 187 55t147 166q84 146 152.5 393.5t68.5 411.5q0 338 -313 338 q-104 0 -188 -55.5t-146 -165.5q-87 -154 -153 -393q-68 -244 -68 -414zM606 1553q32 184 172 184q47 0 133 -27.5t129 -27.5q80 0 101 84h49q-37 -195 -180 -195q-45 0 -131 27.5t-131 27.5q-77 0 -93 -73h-49z" />
<glyph unicode="&#xd9;" horiz-adv-x="1262" d="M35 285q0 64 31 176l239 866h-151l6 29h512l-6 -29h-168l-250 -899q-31 -111 -31 -192q0 -115 88 -177q77 -53 197 -53q211 0 330 95q115 92 172 298l223 807q12 43 12 56q0 52 -62 63q-11 2 -106 2l10 29h373l-8 -29q-89 0 -121 -21q-39 -25 -63 -112l-207 -745 q-71 -257 -186 -361q-128 -117 -382 -117q-172 0 -298 70q-154 85 -154 244zM673 1786q0 28 20 49t48 21q45 0 86 -58l213 -301h-68l-243 203q-56 47 -56 86z" />
<glyph unicode="&#xda;" horiz-adv-x="1262" d="M35 285q0 64 31 176l239 866h-151l6 29h512l-6 -29h-168l-250 -899q-31 -111 -31 -192q0 -115 88 -177q77 -53 197 -53q211 0 330 95q115 92 172 298l223 807q12 43 12 56q0 52 -62 63q-11 2 -106 2l10 29h373l-8 -29q-89 0 -121 -21q-39 -25 -63 -112l-207 -745 q-71 -257 -186 -361q-128 -117 -382 -117q-172 0 -298 70q-154 85 -154 244zM727 1495l299 314q41 43 80 43q28 0 48.5 -21t20.5 -49q0 -41 -69 -86l-308 -201h-71z" />
<glyph unicode="&#xdd;" horiz-adv-x="883" d="M-47 0l8 29h156l151 542l-61 756h-135v29h481v-29h-164l60 -713l428 592q43 59 43 80q0 36 -55 42q10 -1 -81 -1l9 29h288l-6 -29q-73 0 -133 -84l-493 -686l-136 -528h168l-6 -29h-522zM502 1495l299 314q41 43 80 43q28 0 48.5 -21t20.5 -49q0 -41 -69 -86l-308 -201 h-71z" />
<glyph unicode="&#xe0;" d="M-29 311q0 91 26 174q46 145 168 247q129 108 277 108q186 0 213 -172l45 147h156l-180 -633q-23 -81 -23 -104q0 -58 43 -58q67 0 183 179l24 -17q-64 -97 -108 -138q-72 -69 -154 -69q-110 0 -139 136q-119 -131 -250 -131q-135 0 -211 101q-70 91 -70 230zM119 209 q0 -199 143 -199q101 0 182 87q70 75 101 182l77 267q11 38 11 77q0 75 -40 126q-44 56 -116 56q-163 0 -270 -226q-88 -185 -88 -370zM329 1241q0 28 20 49t48 21q45 0 86 -58l213 -301h-68l-243 203q-56 47 -56 86z" />
<glyph unicode="&#xe1;" d="M-29 311q0 91 26 174q46 145 168 247q129 108 277 108q186 0 213 -172l45 147h156l-180 -633q-23 -81 -23 -104q0 -58 43 -58q67 0 183 179l24 -17q-64 -97 -108 -138q-72 -69 -154 -69q-110 0 -139 136q-119 -131 -250 -131q-135 0 -211 101q-70 91 -70 230zM119 209 q0 -199 143 -199q101 0 182 87q70 75 101 182l77 267q11 38 11 77q0 75 -40 126q-44 56 -116 56q-163 0 -270 -226q-88 -185 -88 -370zM383 950l299 314q41 43 80 43q28 0 48.5 -21t20.5 -49q0 -41 -69 -86l-308 -201h-71z" />
<glyph unicode="&#xe2;" d="M-29 311q0 91 26 174q46 145 168 247q129 108 277 108q186 0 213 -172l45 147h156l-180 -633q-23 -81 -23 -104q0 -58 43 -58q67 0 183 179l24 -17q-64 -97 -108 -138q-72 -69 -154 -69q-110 0 -139 136q-119 -131 -250 -131q-135 0 -211 101q-70 91 -70 230zM119 209 q0 -199 143 -199q101 0 182 87q70 75 101 182l77 267q11 38 11 77q0 75 -40 126q-44 56 -116 56q-163 0 -270 -226q-88 -185 -88 -370zM237 950l310 348h104l162 -348h-56l-176 207l-276 -207h-68z" />
<glyph unicode="&#xe3;" d="M-29 311q0 91 26 174q46 145 168 247q129 108 277 108q186 0 213 -172l45 147h156l-180 -633q-23 -81 -23 -104q0 -58 43 -58q67 0 183 179l24 -17q-64 -97 -108 -138q-72 -69 -154 -69q-110 0 -139 136q-119 -131 -250 -131q-135 0 -211 101q-70 91 -70 230zM119 209 q0 -199 143 -199q101 0 182 87q70 75 101 182l77 267q11 38 11 77q0 75 -40 126q-44 56 -116 56q-163 0 -270 -226q-88 -185 -88 -370zM278 1008q32 184 172 184q47 0 133 -27.5t129 -27.5q80 0 101 84h49q-37 -195 -180 -195q-45 0 -131 27.5t-131 27.5q-77 0 -93 -73h-49z " />
<glyph unicode="&#xe4;" d="M-29 311q0 91 26 174q46 145 168 247q129 108 277 108q186 0 213 -172l45 147h156l-180 -633q-23 -81 -23 -104q0 -58 43 -58q67 0 183 179l24 -17q-64 -97 -108 -138q-72 -69 -154 -69q-110 0 -139 136q-119 -131 -250 -131q-135 0 -211 101q-70 91 -70 230zM119 209 q0 -199 143 -199q101 0 182 87q70 75 101 182l77 267q11 38 11 77q0 75 -40 126q-44 56 -116 56q-163 0 -270 -226q-88 -185 -88 -370zM280 1100q0 39 30 68.5t69 29.5q40 0 69 -29t29 -69q0 -43 -27.5 -72t-70.5 -29q-41 0 -70 30t-29 71zM655 1100q0 38 30 68t68 30 q40 0 69.5 -29t29.5 -69q0 -44 -27.5 -72.5t-71.5 -28.5q-41 0 -69.5 30t-28.5 71z" />
<glyph unicode="&#xe5;" d="M-29 311q0 91 26 174q46 145 168 247q129 108 277 108q186 0 213 -172l45 147h156l-180 -633q-23 -81 -23 -104q0 -58 43 -58q67 0 183 179l24 -17q-64 -97 -108 -138q-72 -69 -154 -69q-110 0 -139 136q-119 -131 -250 -131q-135 0 -211 101q-70 91 -70 230zM119 209 q0 -199 143 -199q101 0 182 87q70 75 101 182l77 267q11 38 11 77q0 75 -40 126q-44 56 -116 56q-163 0 -270 -226q-88 -185 -88 -370zM307 1147q0 102 70 170.5t172 68.5t170.5 -68.5t68.5 -170.5t-68.5 -172t-170.5 -70t-172 70t-70 172zM383 1145q0 -70 49 -118t119 -48 q69 0 117.5 48.5t48.5 117.5q0 70 -48 119t-118 49q-71 0 -119.5 -48.5t-48.5 -119.5z" />
<glyph unicode="&#xe6;" horiz-adv-x="1229" d="M-51 211q0 148 147 221q113 55 279 55q57 0 135 -8q25 94 25 160q0 176 -168 176q-48 0 -93 -17q-59 -22 -59 -61q14 -24 29 -47q16 -28 16 -53q0 -78 -78 -78q-90 0 -90 88q0 94 96 148q80 45 181 45q200 0 276 -162q125 162 287 162q85 0 142 -48q61 -51 61 -135 q0 -110 -92 -179q-84 -64 -197 -64q-65 0 -201 20q-41 -186 -41 -246q0 -178 152 -178q184 0 303 219l26 -16q-132 -236 -350 -236q-181 0 -243 132q-111 -132 -283 -132q-104 0 -180 64q-80 68 -80 170zM98 147q0 -61 37 -101t98 -40q111 0 188 177q39 88 82 272 q-48 6 -85 6q-151 0 -235.5 -82t-84.5 -232zM654 463q84 -14 139 -14q217 0 217 266q0 96 -95 96q-167 0 -261 -348z" />
<glyph unicode="&#xe7;" horiz-adv-x="735" d="M-6 291q0 196 139 368q146 181 338 181q78 0 132 -31q65 -38 65 -111q0 -42 -28.5 -68t-70.5 -26q-36 0 -63 27t-27 63q0 54 40 96q4 4 5 7q-1 14 -53 14q-56 0 -103 -35q-85 -64 -154 -284q-60 -195 -60 -328q0 -146 125 -146q186 0 317 285l29 -16q-132 -310 -355 -310 q-122 0 -202 98q-74 91 -74 216zM7 -369l20 43q149 -59 217 -59q107 0 107 111q0 98 -105 98q-25 0 -59 -6l57 182h33l-36 -135q38 6 71 6q198 0 198 -152q0 -79 -79 -119q-63 -32 -150 -32q-109 0 -274 63z" />
<glyph unicode="&#xe8;" horiz-adv-x="711" d="M-18 313q0 172 145 346q151 181 319 181q85 0 136 -45q55 -47 55 -131q0 -112 -102 -184q-91 -64 -207 -64q-68 0 -156 24q-45 -184 -45 -264q0 -164 149 -164q154 0 281 213l25 -14q-134 -231 -326 -231q-129 0 -206 105q-68 94 -68 228zM178 471q66 -22 125 -22 q98 0 156 85q51 74 51 177q0 100 -86 100q-153 0 -246 -340zM245 1241q0 28 20 49t48 21q45 0 86 -58l213 -301h-68l-243 203q-56 47 -56 86z" />
<glyph unicode="&#xe9;" horiz-adv-x="711" d="M-18 313q0 172 145 346q151 181 319 181q85 0 136 -45q55 -47 55 -131q0 -112 -102 -184q-91 -64 -207 -64q-68 0 -156 24q-45 -184 -45 -264q0 -164 149 -164q154 0 281 213l25 -14q-134 -231 -326 -231q-129 0 -206 105q-68 94 -68 228zM178 471q66 -22 125 -22 q98 0 156 85q51 74 51 177q0 100 -86 100q-153 0 -246 -340zM299 950l299 314q41 43 80 43q28 0 48.5 -21t20.5 -49q0 -41 -69 -86l-308 -201h-71z" />
<glyph unicode="&#xea;" horiz-adv-x="711" d="M-18 313q0 172 145 346q151 181 319 181q85 0 136 -45q55 -47 55 -131q0 -112 -102 -184q-91 -64 -207 -64q-68 0 -156 24q-45 -184 -45 -264q0 -164 149 -164q154 0 281 213l25 -14q-134 -231 -326 -231q-129 0 -206 105q-68 94 -68 228zM153 950l310 348h104l162 -348 h-56l-176 207l-276 -207h-68zM178 471q66 -22 125 -22q98 0 156 85q51 74 51 177q0 100 -86 100q-153 0 -246 -340z" />
<glyph unicode="&#xeb;" horiz-adv-x="711" d="M-18 313q0 172 145 346q151 181 319 181q85 0 136 -45q55 -47 55 -131q0 -112 -102 -184q-91 -64 -207 -64q-68 0 -156 24q-45 -184 -45 -264q0 -164 149 -164q154 0 281 213l25 -14q-134 -231 -326 -231q-129 0 -206 105q-68 94 -68 228zM178 471q66 -22 125 -22 q98 0 156 85q51 74 51 177q0 100 -86 100q-153 0 -246 -340zM196 1100q0 39 30 68.5t69 29.5q40 0 69 -29t29 -69q0 -43 -27.5 -72t-70.5 -29q-41 0 -70 30t-29 71zM571 1100q0 38 30 68t68 30q40 0 69.5 -29t29.5 -69q0 -44 -27.5 -72.5t-71.5 -28.5q-41 0 -69.5 30 t-28.5 71z" />
<glyph unicode="&#xec;" horiz-adv-x="508" d="M6 115q0 41 33 149l160 522h-123l8 29q206 0 289 25l-195 -645q-22 -73 -22 -107q0 -55 53 -55q64 0 207 162l20 -17q-162 -198 -293 -198q-137 0 -137 135zM102 1241q0 28 20 49t48 21q45 0 86 -58l213 -301h-68l-243 203q-56 47 -56 86z" />
<glyph unicode="&#xed;" horiz-adv-x="508" d="M6 115q0 41 33 149l160 522h-123l8 29q206 0 289 25l-195 -645q-22 -73 -22 -107q0 -55 53 -55q64 0 207 162l20 -17q-162 -198 -293 -198q-137 0 -137 135zM156 950l299 314q41 43 80 43q28 0 48.5 -21t20.5 -49q0 -41 -69 -86l-308 -201h-71z" />
<glyph unicode="&#xee;" horiz-adv-x="508" d="M6 115q0 41 33 149l160 522h-123l8 29q206 0 289 25l-195 -645q-22 -73 -22 -107q0 -55 53 -55q64 0 207 162l20 -17q-162 -198 -293 -198q-137 0 -137 135zM10 950l310 348h104l162 -348h-56l-176 207l-276 -207h-68z" />
<glyph unicode="&#xef;" horiz-adv-x="508" d="M6 115q0 41 33 149l160 522h-123l8 29q206 0 289 25l-195 -645q-22 -73 -22 -107q0 -55 53 -55q64 0 207 162l20 -17q-162 -198 -293 -198q-137 0 -137 135zM53 1100q0 39 30 68.5t69 29.5q40 0 69 -29t29 -69q0 -43 -27.5 -72t-70.5 -29q-41 0 -70 30t-29 71zM428 1100 q0 38 30 68t68 30q40 0 69.5 -29t29.5 -69q0 -44 -27.5 -72.5t-71.5 -28.5q-41 0 -69.5 30t-28.5 71z" />
<glyph unicode="&#xf0;" horiz-adv-x="891" d="M-20 315q0 191 138 354q144 171 331 171q100 0 167 -57q-6 150 -71 317l-289 -76l-14 49l280 76q-64 130 -151 229l35 31q127 -110 204 -238l269 80l14 -55l-256 -70q135 -252 135 -501q0 -285 -136.5 -467.5t-340.5 -182.5q-147 0 -233 98q-82 93 -82 242zM121 188 q0 -186 168 -186q65 0 119 47q84 73 152 273q63 183 63 311q0 182 -166 182q-67 0 -118 -45q-82 -71 -153 -272q-65 -187 -65 -310z" />
<glyph unicode="&#xf1;" horiz-adv-x="1014" d="M-57 0l239 786h-121l9 29q207 0 288 25l-77 -254q198 254 393 254q77 0 125.5 -41t48.5 -117q0 -42 -25 -119l-124 -386q-1 -7 -14 -47q-9 -31 -9 -48q0 -62 43 -62q70 0 184 179l25 -19q-135 -205 -258 -205q-131 0 -131 144q0 46 18 102l127 398q27 85 27 120 q0 64 -70 64q-83 0 -201 -94q-163 -129 -221 -320l-119 -389h-157zM305 1008q32 184 172 184q47 0 133 -27.5t129 -27.5q80 0 101 84h49q-37 -195 -180 -195q-45 0 -131 27.5t-131 27.5q-77 0 -93 -73h-49z" />
<glyph unicode="&#xf2;" horiz-adv-x="891" d="M-20 317q0 142 83.5 278.5t210.5 201.5q85 43 193 43q142 0 223 -100q74 -93 74 -238q0 -192 -137 -356q-143 -171 -332 -171q-147 0 -233 99q-82 94 -82 243zM121 188q0 -186 168 -186q65 0 119 47q84 73 152 273q63 183 63 311q0 182 -166 182q-68 0 -121 -46 q-79 -70 -150 -273q-65 -188 -65 -308zM294 1241q0 28 20 49t48 21q45 0 86 -58l213 -301h-68l-243 203q-56 47 -56 86z" />
<glyph unicode="&#xf3;" horiz-adv-x="891" d="M-20 317q0 142 83.5 278.5t210.5 201.5q85 43 193 43q142 0 223 -100q74 -93 74 -238q0 -192 -137 -356q-143 -171 -332 -171q-147 0 -233 99q-82 94 -82 243zM121 188q0 -186 168 -186q65 0 119 47q84 73 152 273q63 183 63 311q0 182 -166 182q-68 0 -121 -46 q-79 -70 -150 -273q-65 -188 -65 -308zM348 950l299 314q41 43 80 43q28 0 48.5 -21t20.5 -49q0 -41 -69 -86l-308 -201h-71z" />
<glyph unicode="&#xf4;" horiz-adv-x="891" d="M-20 317q0 142 83.5 278.5t210.5 201.5q85 43 193 43q142 0 223 -100q74 -93 74 -238q0 -192 -137 -356q-143 -171 -332 -171q-147 0 -233 99q-82 94 -82 243zM121 188q0 -186 168 -186q65 0 119 47q84 73 152 273q63 183 63 311q0 182 -166 182q-68 0 -121 -46 q-79 -70 -150 -273q-65 -188 -65 -308zM202 950l310 348h104l162 -348h-56l-176 207l-276 -207h-68z" />
<glyph unicode="&#xf5;" horiz-adv-x="891" d="M-20 317q0 142 83.5 278.5t210.5 201.5q85 43 193 43q142 0 223 -100q74 -93 74 -238q0 -192 -137 -356q-143 -171 -332 -171q-147 0 -233 99q-82 94 -82 243zM121 188q0 -186 168 -186q65 0 119 47q84 73 152 273q63 183 63 311q0 182 -166 182q-68 0 -121 -46 q-79 -70 -150 -273q-65 -188 -65 -308zM243 1008q32 184 172 184q47 0 133 -27.5t129 -27.5q80 0 101 84h49q-37 -195 -180 -195q-45 0 -131 27.5t-131 27.5q-77 0 -93 -73h-49z" />
<glyph unicode="&#xf6;" horiz-adv-x="891" d="M-20 317q0 142 83.5 278.5t210.5 201.5q85 43 193 43q142 0 223 -100q74 -93 74 -238q0 -192 -137 -356q-143 -171 -332 -171q-147 0 -233 99q-82 94 -82 243zM121 188q0 -186 168 -186q65 0 119 47q84 73 152 273q63 183 63 311q0 182 -166 182q-68 0 -121 -46 q-79 -70 -150 -273q-65 -188 -65 -308zM245 1100q0 39 30 68.5t69 29.5q40 0 69 -29t29 -69q0 -43 -27.5 -72t-70.5 -29q-41 0 -70 30t-29 71zM620 1100q0 38 30 68t68 30q40 0 69.5 -29t29.5 -69q0 -44 -27.5 -72.5t-71.5 -28.5q-41 0 -69.5 30t-28.5 71z" />
<glyph unicode="&#xf8;" horiz-adv-x="891" d="M-20 324q0 192 141 352q146 166 336 166q95 0 178 -54l65 89l31 -17l-67 -90q100 -116 100 -268q0 -189 -139 -353q-145 -172 -330 -172q-109 0 -180 48l-62 -82l-30 18l63 88q-106 108 -106 275zM119 193q0 -45 8 -91l471 641q-33 72 -141 72q-68 0 -122 -47 q-80 -70 -150 -269q-66 -187 -66 -306zM150 72q41 -70 139 -70q67 0 123 51q81 74 148 270q63 183 63 308q0 35 -9 75z" />
<glyph unicode="&#xf9;" horiz-adv-x="948" d="M-23 125q0 44 25 125l166 536h-121l8 29q206 0 289 25l-201 -656q-18 -59 -18 -88q0 -65 68 -65q52 0 137 69q164 133 221 312l129 403h156l-199 -629q-25 -79 -25 -106q0 -53 43 -53q68 0 183 176l22 -17q-124 -204 -256 -204q-133 0 -133 141q0 40 18 102 q-182 -243 -360 -243q-68 0 -110 38t-42 105zM333 1241q0 28 20 49t48 21q45 0 86 -58l213 -301h-68l-243 203q-56 47 -56 86z" />
<glyph unicode="&#xfa;" horiz-adv-x="948" d="M-23 125q0 44 25 125l166 536h-121l8 29q206 0 289 25l-201 -656q-18 -59 -18 -88q0 -65 68 -65q52 0 137 69q164 133 221 312l129 403h156l-199 -629q-25 -79 -25 -106q0 -53 43 -53q68 0 183 176l22 -17q-124 -204 -256 -204q-133 0 -133 141q0 40 18 102 q-182 -243 -360 -243q-68 0 -110 38t-42 105zM387 950l299 314q41 43 80 43q28 0 48.5 -21t20.5 -49q0 -41 -69 -86l-308 -201h-71z" />
<glyph unicode="&#xfb;" horiz-adv-x="948" d="M-23 125q0 44 25 125l166 536h-121l8 29q206 0 289 25l-201 -656q-18 -59 -18 -88q0 -65 68 -65q52 0 137 69q164 133 221 312l129 403h156l-199 -629q-25 -79 -25 -106q0 -53 43 -53q68 0 183 176l22 -17q-124 -204 -256 -204q-133 0 -133 141q0 40 18 102 q-182 -243 -360 -243q-68 0 -110 38t-42 105zM241 950l310 348h104l162 -348h-56l-176 207l-276 -207h-68z" />
<glyph unicode="&#xfc;" horiz-adv-x="948" d="M-23 125q0 44 25 125l166 536h-121l8 29q206 0 289 25l-201 -656q-18 -59 -18 -88q0 -65 68 -65q52 0 137 69q164 133 221 312l129 403h156l-199 -629q-25 -79 -25 -106q0 -53 43 -53q68 0 183 176l22 -17q-124 -204 -256 -204q-133 0 -133 141q0 40 18 102 q-182 -243 -360 -243q-68 0 -110 38t-42 105zM284 1100q0 39 30 68.5t69 29.5q40 0 69 -29t29 -69q0 -43 -27.5 -72t-70.5 -29q-41 0 -70 30t-29 71zM659 1100q0 38 30 68t68 30q40 0 69.5 -29t29.5 -69q0 -44 -27.5 -72.5t-71.5 -28.5q-41 0 -69.5 30t-28.5 71z" />
<glyph unicode="&#xfd;" horiz-adv-x="924" d="M-303 -391q0 46 26.5 79t71.5 33q84 0 84 -90q0 -28 -14.5 -47.5t-28.5 -38.5q0 -10 41 -10q181 0 402 424l-78 678q-13 113 -64 113q-50 0 -143 -181l-31 13q121 256 260 256q115 0 131 -144l56 -506l221 424q119 228 219 228t100 -95q0 -94 -86 -94q-80 0 -80 70 q0 9 6 25t7 24l-1 4l-3 2q-41 -1 -148 -203l-223 -421q-100 -189 -151 -276q-101 -169 -181 -254q-123 -130 -260 -130q-55 0 -94 31.5t-39 85.5zM365 950l299 314q41 43 80 43q28 0 48.5 -21t20.5 -49q0 -41 -69 -86l-308 -201h-71z" />
<glyph unicode="&#xfe;" horiz-adv-x="977" d="M-266 -494l8 29h113l481 1792h-121l8 29q197 0 291 51l-195 -729q125 164 273 164q134 0 211 -103q69 -92 69 -231q0 -91 -25 -173q-46 -147 -169 -248q-128 -105 -277 -105q-97 0 -157 54t-60 150l-174 -651h117l-6 -29h-387zM211 199q0 -76 39 -128q43 -57 117 -57 q163 0 270 226q88 186 88 370q0 199 -143 199q-101 0 -183 -85q-72 -75 -102 -181l-76 -269q-10 -35 -10 -75z" />
<glyph unicode="&#xff;" horiz-adv-x="924" d="M-303 -391q0 46 26.5 79t71.5 33q84 0 84 -90q0 -28 -14.5 -47.5t-28.5 -38.5q0 -10 41 -10q181 0 402 424l-78 678q-13 113 -64 113q-50 0 -143 -181l-31 13q121 256 260 256q115 0 131 -144l56 -506l221 424q119 228 219 228t100 -95q0 -94 -86 -94q-80 0 -80 70 q0 9 6 25t7 24l-1 4l-3 2q-41 -1 -148 -203l-223 -421q-100 -189 -151 -276q-101 -169 -181 -254q-123 -130 -260 -130q-55 0 -94 31.5t-39 85.5zM262 1100q0 39 30 68.5t69 29.5q40 0 69 -29t29 -69q0 -43 -27.5 -72t-70.5 -29q-41 0 -70 30t-29 71zM637 1100q0 38 30 68 t68 30q40 0 69.5 -29t29.5 -69q0 -44 -27.5 -72.5t-71.5 -28.5q-41 0 -69.5 30t-28.5 71z" />
<glyph unicode="&#x102;" horiz-adv-x="971" d="M-240 0v29q73 0 118 36q30 24 77 99l764 1220h31v-1355h124v-29h-471v29h162v458h-366l-219 -344q-29 -46 -29 -69q0 -39 131 -46v-28h-322zM215 516h350v561zM535 1746h55q16 -146 170 -146q180 0 303 146h60q-159 -277 -371 -277q-217 0 -217 277z" />
<glyph unicode="&#x103;" d="M-29 311q0 91 26 174q46 145 168 247q129 108 277 108q186 0 213 -172l45 147h156l-180 -633q-23 -81 -23 -104q0 -58 43 -58q67 0 183 179l24 -17q-64 -97 -108 -138q-72 -69 -154 -69q-110 0 -139 136q-119 -131 -250 -131q-135 0 -211 101q-70 91 -70 230zM119 209 q0 -199 143 -199q101 0 182 87q70 75 101 182l77 267q11 38 11 77q0 75 -40 126q-44 56 -116 56q-163 0 -270 -226q-88 -185 -88 -370zM338 1262h55q16 -146 170 -146q180 0 303 146h60q-159 -277 -371 -277q-217 0 -217 277z" />
<glyph unicode="&#x110;" horiz-adv-x="1337" d="M-147 0l6 29h151l180 651h-192l14 53h193l166 594h-152l8 29h514q144 0 235 -34q146 -54 228 -203q74 -134 74 -300q0 -235 -133 -450q-136 -220 -348 -310q-137 -59 -324 -59h-620zM205 29h225q166 0 285 69q116 67 195 210.5t127 329t48 349.5q0 183 -94 264 q-88 76 -274 76h-152l-164 -594h344l-14 -53h-344z" />
<glyph unicode="&#x111;" d="M-23 311q0 218 143 374.5t329 156.5q179 0 217 -172l110 379h-309l14 51h310l67 227h-119l9 29q180 0 296 53l-92 -309h168l-14 -51h-168l-256 -869q-23 -78 -23 -104q0 -58 43 -58q67 0 183 181l24 -19q-65 -98 -107 -138q-72 -69 -155 -69q-108 0 -139 138 q-124 -136 -250 -136q-134 0 -212 104q-69 93 -69 232zM125 213q0 -199 143 -199q101 0 182 87q70 75 101 182l78 268q10 34 10 74q0 75 -40 127q-43 57 -116 57q-162 0 -269 -226q-89 -187 -89 -370z" />
<glyph unicode="&#x128;" horiz-adv-x="578" d="M-147 0l6 29h153l361 1298h-154l8 29h512l-8 -29h-168l-358 -1298h166l-6 -29h-512zM266 1553q32 184 172 184q47 0 133 -27.5t129 -27.5q80 0 101 84h49q-37 -195 -180 -195q-45 0 -131 27.5t-131 27.5q-77 0 -93 -73h-49z" />
<glyph unicode="&#x129;" horiz-adv-x="508" d="M6 115q0 41 33 149l160 522h-123l8 29q206 0 289 25l-195 -645q-22 -73 -22 -107q0 -55 53 -55q64 0 207 162l20 -17q-162 -198 -293 -198q-137 0 -137 135zM63 1008q32 184 172 184q47 0 133 -27.5t129 -27.5q80 0 101 84h49q-37 -195 -180 -195q-45 0 -131 27.5 t-131 27.5q-77 0 -93 -73h-49z" />
<glyph unicode="&#x131;" horiz-adv-x="508" d="M6 115q0 41 33 149l160 522h-123l8 29q206 0 289 25l-195 -645q-22 -73 -22 -107q0 -55 53 -55q64 0 207 162l20 -17q-162 -198 -293 -198q-137 0 -137 135z" />
<glyph unicode="&#x153;" horiz-adv-x="1208" d="M-23 319q0 194 128 352q136 169 325 169q170 0 244 -156q137 156 293 156q84 0 136 -45q54 -48 54 -131q0 -112 -102 -184q-91 -64 -207 -64q-64 0 -154 24q-45 -184 -45 -264q0 -164 148 -164q156 0 282 213l25 -14q-132 -231 -326 -231q-148 0 -231 145 q-113 -148 -283 -148q-137 0 -216 106q-71 95 -71 236zM111 166q0 -72 40 -117t111 -45q67 0 117 50q72 72 135 288q57 197 57 320q0 149 -141 149q-66 0 -114 -45q-72 -66 -141 -283q-64 -201 -64 -317zM702 475q77 -29 123 -29q98 0 156 86q51 76 51 179q0 100 -86 100 q-151 0 -244 -336z" />
<glyph unicode="&#x168;" horiz-adv-x="1262" d="M35 285q0 64 31 176l239 866h-151l6 29h512l-6 -29h-168l-250 -899q-31 -111 -31 -192q0 -115 88 -177q77 -53 197 -53q211 0 330 95q115 92 172 298l223 807q12 43 12 56q0 52 -62 63q-11 2 -106 2l10 29h373l-8 -29q-89 0 -121 -21q-39 -25 -63 -112l-207 -745 q-71 -257 -186 -361q-128 -117 -382 -117q-172 0 -298 70q-154 85 -154 244zM606 1553q32 184 172 184q47 0 133 -27.5t129 -27.5q80 0 101 84h49q-37 -195 -180 -195q-45 0 -131 27.5t-131 27.5q-77 0 -93 -73h-49z" />
<glyph unicode="&#x169;" horiz-adv-x="948" d="M-23 125q0 44 25 125l166 536h-121l8 29q206 0 289 25l-201 -656q-18 -59 -18 -88q0 -65 68 -65q52 0 137 69q164 133 221 312l129 403h156l-199 -629q-25 -79 -25 -106q0 -53 43 -53q68 0 183 176l22 -17q-124 -204 -256 -204q-133 0 -133 141q0 40 18 102 q-182 -243 -360 -243q-68 0 -110 38t-42 105zM253 1008q32 184 172 184q47 0 133 -27.5t129 -27.5q80 0 101 84h49q-37 -195 -180 -195q-45 0 -131 27.5t-131 27.5q-77 0 -93 -73h-49z" />
<glyph unicode="&#x192;" horiz-adv-x="985" d="M-172 -360q0 38 24 63t62 25q78 0 78 -86q0 -11 -12.5 -30.5t-12.5 -27.5q0 -22 19 -22q66 0 125 92q44 68 67 153q16 57 79 362q62 301 120 536h-164l10 34h166q192 621 504 621q137 0 137 -107q0 -94 -88 -94q-35 0 -60.5 22t-25.5 56q0 12 8 34.5t8 33.5q0 28 -20 28 q-153 0 -299 -594h195l-11 -34h-190q-82 -326 -155 -553q-78 -242 -144 -371q-130 -250 -291 -250q-53 0 -89 27q-40 30 -40 82z" />
<glyph unicode="&#x1a0;" horiz-adv-x="1393" d="M55 526q0 306 215 574q228 284 527 284q230 0 366 -165q127 -153 127 -388q0 -147 -52 -291q-82 -228 -264 -390q-200 -179 -425 -179q-231 0 -367 165q-127 154 -127 390zM240 332q0 -336 313 -336q104 0 187 55t147 166q84 146 152.5 393.5t68.5 411.5q0 338 -313 338 q-104 0 -188 -55.5t-146 -165.5q-87 -154 -153 -393q-68 -244 -68 -414zM1031 1001q97 13 194 53q134 56 134 127q0 23 -58 48q-69 30 -88 61t-9 68q19 73 96 73q14 0 29 -4q109 -29 109 -148q0 -27 -8 -55q-31 -117 -156 -184q-102 -54 -241 -67z" />
<glyph unicode="&#x1a1;" horiz-adv-x="917" d="M-20 317q0 142 83.5 278.5t210.5 201.5q85 43 193 43q142 0 223 -100q74 -93 74 -238q0 -192 -137 -356q-143 -171 -332 -171q-147 0 -233 99q-82 94 -82 243zM121 188q0 -186 168 -186q65 0 119 47q84 73 152 273q63 183 63 311q0 182 -166 182q-68 0 -121 -46 q-79 -70 -150 -273q-65 -188 -65 -308zM515 546q97 13 194 53q134 56 134 127q0 23 -58 48q-69 30 -88 61t-9 68q19 73 96 73q14 0 29 -4q109 -29 109 -148q0 -27 -8 -55q-31 -117 -156 -184q-102 -54 -241 -67z" />
<glyph unicode="&#x1af;" horiz-adv-x="1304" d="M35 285q0 64 31 176l239 866h-151l6 29h512l-6 -29h-168l-250 -899q-31 -111 -31 -192q0 -115 88 -177q77 -53 197 -53q211 0 330 95q115 92 172 298l223 807q12 43 12 56q0 52 -62 63q-11 2 -106 2l10 29h373l-8 -29q-89 0 -121 -21q-39 -25 -63 -112l-207 -745 q-71 -257 -186 -361q-128 -117 -382 -117q-172 0 -298 70q-154 85 -154 244zM1109 1001q97 13 194 53q134 56 134 127q0 23 -58 48q-69 30 -88 61t-9 68q19 73 96 73q14 0 29 -4q109 -29 109 -148q0 -27 -8 -55q-31 -117 -156 -184q-102 -54 -241 -67z" />
<glyph unicode="&#x1b0;" horiz-adv-x="991" d="M-23 125q0 44 25 125l166 536h-121l8 29q206 0 289 25l-201 -656q-18 -59 -18 -88q0 -65 68 -65q52 0 137 69q164 133 221 312l129 403h156l-199 -629q-25 -79 -25 -106q0 -53 43 -53q68 0 183 176l22 -17q-124 -204 -256 -204q-133 0 -133 141q0 40 18 102 q-182 -243 -360 -243q-68 0 -110 38t-42 105zM621 546q97 13 194 53q134 56 134 127q0 23 -58 48q-69 30 -88 61t-9 68q19 73 96 73q14 0 29 -4q109 -29 109 -148q0 -27 -8 -55q-31 -117 -156 -184q-102 -54 -241 -67z" />
<glyph unicode="&#x1ea0;" horiz-adv-x="971" d="M-240 0v29q73 0 118 36q30 24 77 99l764 1220h31v-1355h124v-29h-471v29h162v458h-366l-219 -344q-29 -46 -29 -69q0 -39 131 -46v-28h-322zM107 -274q0 39 26.5 64.5t65.5 25.5t64.5 -25.5t25.5 -64.5t-25.5 -64.5t-64.5 -25.5q-38 0 -65 26t-27 64zM215 516h350v561z " />
<glyph unicode="&#x1ea1;" d="M-29 311q0 91 26 174q46 145 168 247q129 108 277 108q186 0 213 -172l45 147h156l-180 -633q-23 -81 -23 -104q0 -58 43 -58q67 0 183 179l24 -17q-64 -97 -108 -138q-72 -69 -154 -69q-110 0 -139 136q-119 -131 -250 -131q-135 0 -211 101q-70 91 -70 230zM119 209 q0 -199 143 -199q101 0 182 87q70 75 101 182l77 267q11 38 11 77q0 75 -40 126q-44 56 -116 56q-163 0 -270 -226q-88 -185 -88 -370zM127 -274q0 39 26.5 64.5t65.5 25.5t64.5 -25.5t25.5 -64.5t-25.5 -64.5t-64.5 -25.5q-38 0 -65 26t-27 64z" />
<glyph unicode="&#x1ea2;" horiz-adv-x="971" d="M-240 0v29q73 0 118 36q30 24 77 99l764 1220h31v-1355h124v-29h-471v29h162v458h-366l-219 -344q-29 -46 -29 -69q0 -39 131 -46v-28h-322zM215 516h350v561zM708 1472l29 88q15 45 27.5 61.5t47.5 29.5q106 41 106 98q0 67 -82 67q-72 0 -72 -43q0 -8 17.5 -16.5 t17.5 -26.5q0 -27 -27 -27q-18 0 -34.5 15.5t-16.5 36.5q0 48 40 82.5t102 34.5q63 0 103 -33q44 -35 44 -96q0 -92 -130 -152q-37 -10 -94 -41q-29 -27 -46 -78h-32z" />
<glyph unicode="&#x1ea3;" d="M-29 311q0 91 26 174q46 145 168 247q129 108 277 108q186 0 213 -172l45 147h156l-180 -633q-23 -81 -23 -104q0 -58 43 -58q67 0 183 179l24 -17q-64 -97 -108 -138q-72 -69 -154 -69q-110 0 -139 136q-119 -131 -250 -131q-135 0 -211 101q-70 91 -70 230zM119 209 q0 -199 143 -199q101 0 182 87q70 75 101 182l77 267q11 38 11 77q0 75 -40 126q-44 56 -116 56q-163 0 -270 -226q-88 -185 -88 -370zM491 950l29 88q15 45 27.5 61.5t47.5 29.5q106 41 106 98q0 67 -82 67q-72 0 -72 -43q0 -8 17.5 -16.5t17.5 -26.5q0 -27 -27 -27 q-18 0 -34.5 15.5t-16.5 36.5q0 48 40 82.5t102 34.5q63 0 103 -33q44 -35 44 -96q0 -92 -130 -152q-37 -10 -94 -41q-29 -27 -46 -78h-32z" />
<glyph unicode="&#x1ea4;" horiz-adv-x="971" d="M-240 0v29q73 0 118 36q30 24 77 99l764 1220h31v-1355h124v-29h-471v29h162v458h-366l-219 -344q-29 -46 -29 -69q0 -39 131 -46v-28h-322zM215 516h350v561zM434 1438l310 348h104l162 -348h-56l-176 207l-276 -207h-68zM518 1797l299 314q41 43 80 43q28 0 48.5 -21 t20.5 -49q0 -41 -69 -86l-308 -201h-71z" />
<glyph unicode="&#x1ea5;" d="M-29 311q0 91 26 174q46 145 168 247q129 108 277 108q186 0 213 -172l45 147h156l-180 -633q-23 -81 -23 -104q0 -58 43 -58q67 0 183 179l24 -17q-64 -97 -108 -138q-72 -69 -154 -69q-110 0 -139 136q-119 -131 -250 -131q-135 0 -211 101q-70 91 -70 230zM119 209 q0 -199 143 -199q101 0 182 87q70 75 101 182l77 267q11 38 11 77q0 75 -40 126q-44 56 -116 56q-163 0 -270 -226q-88 -185 -88 -370zM237 950l310 348h104l162 -348h-56l-176 207l-276 -207h-68zM321 1309l299 314q41 43 80 43q28 0 48.5 -21t20.5 -49q0 -41 -69 -86 l-308 -201h-71z" />
<glyph unicode="&#x1ea6;" horiz-adv-x="971" d="M-240 0v29q73 0 118 36q30 24 77 99l764 1220h31v-1355h124v-29h-471v29h162v458h-366l-219 -344q-29 -46 -29 -69q0 -39 131 -46v-28h-322zM215 516h350v561zM434 1438l310 348h104l162 -348h-56l-176 207l-276 -207h-68zM683 2086q0 28 20 49t48 21q45 0 86 -58 l213 -301h-68l-243 203q-56 47 -56 86z" />
<glyph unicode="&#x1ea7;" d="M-29 311q0 91 26 174q46 145 168 247q129 108 277 108q186 0 213 -172l45 147h156l-180 -633q-23 -81 -23 -104q0 -58 43 -58q67 0 183 179l24 -17q-64 -97 -108 -138q-72 -69 -154 -69q-110 0 -139 136q-119 -131 -250 -131q-135 0 -211 101q-70 91 -70 230zM119 209 q0 -199 143 -199q101 0 182 87q70 75 101 182l77 267q11 38 11 77q0 75 -40 126q-44 56 -116 56q-163 0 -270 -226q-88 -185 -88 -370zM237 950l310 348h104l162 -348h-56l-176 207l-276 -207h-68zM486 1598q0 28 20 49t48 21q45 0 86 -58l213 -301h-68l-243 203 q-56 47 -56 86z" />
<glyph unicode="&#x1ea8;" horiz-adv-x="971" d="M-240 0v29q73 0 118 36q30 24 77 99l764 1220h31v-1355h124v-29h-471v29h162v458h-366l-219 -344q-29 -46 -29 -69q0 -39 131 -46v-28h-322zM215 516h350v561zM434 1438l310 348h104l162 -348h-56l-176 207l-276 -207h-68zM909 1726l29 88q15 45 27.5 61.5t47.5 29.5 q106 41 106 98q0 67 -82 67q-72 0 -72 -43q0 -8 17.5 -16.5t17.5 -26.5q0 -27 -27 -27q-18 0 -34.5 15.5t-16.5 36.5q0 48 40 82.5t102 34.5q63 0 103 -33q44 -35 44 -96q0 -92 -130 -152q-37 -10 -94 -41q-29 -27 -46 -78h-32z" />
<glyph unicode="&#x1ea9;" d="M-29 311q0 91 26 174q46 145 168 247q129 108 277 108q186 0 213 -172l45 147h156l-180 -633q-23 -81 -23 -104q0 -58 43 -58q67 0 183 179l24 -17q-64 -97 -108 -138q-72 -69 -154 -69q-110 0 -139 136q-119 -131 -250 -131q-135 0 -211 101q-70 91 -70 230zM119 209 q0 -199 143 -199q101 0 182 87q70 75 101 182l77 267q11 38 11 77q0 75 -40 126q-44 56 -116 56q-163 0 -270 -226q-88 -185 -88 -370zM237 950l310 348h104l162 -348h-56l-176 207l-276 -207h-68zM712 1238l29 88q15 45 27.5 61.5t47.5 29.5q106 41 106 98q0 67 -82 67 q-72 0 -72 -43q0 -8 17.5 -16.5t17.5 -26.5q0 -27 -27 -27q-18 0 -34.5 15.5t-16.5 36.5q0 48 40 82.5t102 34.5q63 0 103 -33q44 -35 44 -96q0 -92 -130 -152q-37 -10 -94 -41q-29 -27 -46 -78h-32z" />
<glyph unicode="&#x1eaa;" horiz-adv-x="971" d="M-240 0v29q73 0 118 36q30 24 77 99l764 1220h31v-1355h124v-29h-471v29h162v458h-366l-219 -344q-29 -46 -29 -69q0 -39 131 -46v-28h-322zM215 516h350v561zM434 1438l310 348h104l162 -348h-56l-176 207l-276 -207h-68zM590 1840q32 184 172 184q47 0 133 -27.5 t129 -27.5q80 0 101 84h49q-37 -195 -180 -195q-45 0 -131 27.5t-131 27.5q-77 0 -93 -73h-49z" />
<glyph unicode="&#x1eab;" d="M-29 311q0 91 26 174q46 145 168 247q129 108 277 108q186 0 213 -172l45 147h156l-180 -633q-23 -81 -23 -104q0 -58 43 -58q67 0 183 179l24 -17q-64 -97 -108 -138q-72 -69 -154 -69q-110 0 -139 136q-119 -131 -250 -131q-135 0 -211 101q-70 91 -70 230zM119 209 q0 -199 143 -199q101 0 182 87q70 75 101 182l77 267q11 38 11 77q0 75 -40 126q-44 56 -116 56q-163 0 -270 -226q-88 -185 -88 -370zM237 950l310 348h104l162 -348h-56l-176 207l-276 -207h-68zM393 1352q32 184 172 184q47 0 133 -27.5t129 -27.5q80 0 101 84h49 q-37 -195 -180 -195q-45 0 -131 27.5t-131 27.5q-77 0 -93 -73h-49z" />
<glyph unicode="&#x1eac;" horiz-adv-x="971" d="M-240 0v29q73 0 118 36q30 24 77 99l764 1220h31v-1355h124v-29h-471v29h162v458h-366l-219 -344q-29 -46 -29 -69q0 -39 131 -46v-28h-322zM107 -274q0 39 26.5 64.5t65.5 25.5t64.5 -25.5t25.5 -64.5t-25.5 -64.5t-64.5 -25.5q-38 0 -65 26t-27 64zM215 516h350v561z M434 1438l310 348h104l162 -348h-56l-176 207l-276 -207h-68z" />
<glyph unicode="&#x1ead;" d="M-29 311q0 91 26 174q46 145 168 247q129 108 277 108q186 0 213 -172l45 147h156l-180 -633q-23 -81 -23 -104q0 -58 43 -58q67 0 183 179l24 -17q-64 -97 -108 -138q-72 -69 -154 -69q-110 0 -139 136q-119 -131 -250 -131q-135 0 -211 101q-70 91 -70 230zM119 209 q0 -199 143 -199q101 0 182 87q70 75 101 182l77 267q11 38 11 77q0 75 -40 126q-44 56 -116 56q-163 0 -270 -226q-88 -185 -88 -370zM127 -274q0 39 26.5 64.5t65.5 25.5t64.5 -25.5t25.5 -64.5t-25.5 -64.5t-64.5 -25.5q-38 0 -65 26t-27 64zM237 950l310 348h104 l162 -348h-56l-176 207l-276 -207h-68z" />
<glyph unicode="&#x1eae;" horiz-adv-x="971" d="M-240 0v29q73 0 118 36q30 24 77 99l764 1220h31v-1355h124v-29h-471v29h162v458h-366l-219 -344q-29 -46 -29 -69q0 -39 131 -46v-28h-322zM215 516h350v561zM535 1746h55q16 -146 170 -146q180 0 303 146h60q-159 -277 -371 -277q-217 0 -217 277zM723 1793l299 314 q41 43 80 43q28 0 48.5 -21t20.5 -49q0 -41 -69 -86l-308 -201h-71z" />
<glyph unicode="&#x1eaf;" d="M-29 311q0 91 26 174q46 145 168 247q129 108 277 108q186 0 213 -172l45 147h156l-180 -633q-23 -81 -23 -104q0 -58 43 -58q67 0 183 179l24 -17q-64 -97 -108 -138q-72 -69 -154 -69q-110 0 -139 136q-119 -131 -250 -131q-135 0 -211 101q-70 91 -70 230zM119 209 q0 -199 143 -199q101 0 182 87q70 75 101 182l77 267q11 38 11 77q0 75 -40 126q-44 56 -116 56q-163 0 -270 -226q-88 -185 -88 -370zM338 1262h55q16 -146 170 -146q180 0 303 146h60q-159 -277 -371 -277q-217 0 -217 277zM527 1309l299 314q41 43 80 43q28 0 48.5 -21 t20.5 -49q0 -41 -69 -86l-308 -201h-71z" />
<glyph unicode="&#x1eb0;" horiz-adv-x="971" d="M-240 0v29q73 0 118 36q30 24 77 99l764 1220h31v-1355h124v-29h-471v29h162v458h-366l-219 -344q-29 -46 -29 -69q0 -39 131 -46v-28h-322zM215 516h350v561zM535 1746h55q16 -146 170 -146q180 0 303 146h60q-159 -277 -371 -277q-217 0 -217 277zM590 2082q0 28 20 49 t48 21q45 0 86 -58l213 -301h-68l-243 203q-56 47 -56 86z" />
<glyph unicode="&#x1eb1;" d="M-29 311q0 91 26 174q46 145 168 247q129 108 277 108q186 0 213 -172l45 147h156l-180 -633q-23 -81 -23 -104q0 -58 43 -58q67 0 183 179l24 -17q-64 -97 -108 -138q-72 -69 -154 -69q-110 0 -139 136q-119 -131 -250 -131q-135 0 -211 101q-70 91 -70 230zM119 209 q0 -199 143 -199q101 0 182 87q70 75 101 182l77 267q11 38 11 77q0 75 -40 126q-44 56 -116 56q-163 0 -270 -226q-88 -185 -88 -370zM338 1262h55q16 -146 170 -146q180 0 303 146h60q-159 -277 -371 -277q-217 0 -217 277zM393 1598q0 28 20 49t48 21q45 0 86 -58 l213 -301h-68l-243 203q-56 47 -56 86z" />
<glyph unicode="&#x1eb2;" horiz-adv-x="971" d="M-240 0v29q73 0 118 36q30 24 77 99l764 1220h31v-1355h124v-29h-471v29h162v458h-366l-219 -344q-29 -46 -29 -69q0 -39 131 -46v-28h-322zM215 516h350v561zM535 1746h55q16 -146 170 -146q180 0 303 146h60q-159 -277 -371 -277q-217 0 -217 277zM738 1722l29 88 q15 45 27.5 61.5t47.5 29.5q106 41 106 98q0 67 -82 67q-72 0 -72 -43q0 -8 17.5 -16.5t17.5 -26.5q0 -27 -27 -27q-18 0 -34.5 15.5t-16.5 36.5q0 48 40 82.5t102 34.5q63 0 103 -33q44 -35 44 -96q0 -92 -130 -152q-37 -10 -94 -41q-29 -27 -46 -78h-32z" />
<glyph unicode="&#x1eb3;" d="M-29 311q0 91 26 174q46 145 168 247q129 108 277 108q186 0 213 -172l45 147h156l-180 -633q-23 -81 -23 -104q0 -58 43 -58q67 0 183 179l24 -17q-64 -97 -108 -138q-72 -69 -154 -69q-110 0 -139 136q-119 -131 -250 -131q-135 0 -211 101q-70 91 -70 230zM119 209 q0 -199 143 -199q101 0 182 87q70 75 101 182l77 267q11 38 11 77q0 75 -40 126q-44 56 -116 56q-163 0 -270 -226q-88 -185 -88 -370zM338 1262h55q16 -146 170 -146q180 0 303 146h60q-159 -277 -371 -277q-217 0 -217 277zM541 1238l29 88q15 45 27.5 61.5t47.5 29.5 q106 41 106 98q0 67 -82 67q-72 0 -72 -43q0 -8 17.5 -16.5t17.5 -26.5q0 -27 -27 -27q-18 0 -34.5 15.5t-16.5 36.5q0 48 40 82.5t102 34.5q63 0 103 -33q44 -35 44 -96q0 -92 -130 -152q-37 -10 -94 -41q-29 -27 -46 -78h-32z" />
<glyph unicode="&#x1eb4;" horiz-adv-x="971" d="M-240 0v29q73 0 118 36q30 24 77 99l764 1220h31v-1355h124v-29h-471v29h162v458h-366l-219 -344q-29 -46 -29 -69q0 -39 131 -46v-28h-322zM215 516h350v561zM535 1746h55q16 -146 170 -146q180 0 303 146h60q-159 -277 -371 -277q-217 0 -217 277zM610 1836 q32 184 172 184q47 0 133 -27.5t129 -27.5q80 0 101 84h49q-37 -195 -180 -195q-45 0 -131 27.5t-131 27.5q-77 0 -93 -73h-49z" />
<glyph unicode="&#x1eb5;" d="M-29 311q0 91 26 174q46 145 168 247q129 108 277 108q186 0 213 -172l45 147h156l-180 -633q-23 -81 -23 -104q0 -58 43 -58q67 0 183 179l24 -17q-64 -97 -108 -138q-72 -69 -154 -69q-110 0 -139 136q-119 -131 -250 -131q-135 0 -211 101q-70 91 -70 230zM119 209 q0 -199 143 -199q101 0 182 87q70 75 101 182l77 267q11 38 11 77q0 75 -40 126q-44 56 -116 56q-163 0 -270 -226q-88 -185 -88 -370zM338 1262h55q16 -146 170 -146q180 0 303 146h60q-159 -277 -371 -277q-217 0 -217 277zM413 1352q32 184 172 184q47 0 133 -27.5 t129 -27.5q80 0 101 84h49q-37 -195 -180 -195q-45 0 -131 27.5t-131 27.5q-77 0 -93 -73h-49z" />
<glyph unicode="&#x1eb6;" horiz-adv-x="971" d="M-240 0v29q73 0 118 36q30 24 77 99l764 1220h31v-1355h124v-29h-471v29h162v458h-366l-219 -344q-29 -46 -29 -69q0 -39 131 -46v-28h-322zM107 -274q0 39 26.5 64.5t65.5 25.5t64.5 -25.5t25.5 -64.5t-25.5 -64.5t-64.5 -25.5q-38 0 -65 26t-27 64zM215 516h350v561z M535 1746h55q16 -146 170 -146q180 0 303 146h60q-159 -277 -371 -277q-217 0 -217 277z" />
<glyph unicode="&#x1eb7;" d="M-29 311q0 91 26 174q46 145 168 247q129 108 277 108q186 0 213 -172l45 147h156l-180 -633q-23 -81 -23 -104q0 -58 43 -58q67 0 183 179l24 -17q-64 -97 -108 -138q-72 -69 -154 -69q-110 0 -139 136q-119 -131 -250 -131q-135 0 -211 101q-70 91 -70 230zM119 209 q0 -199 143 -199q101 0 182 87q70 75 101 182l77 267q11 38 11 77q0 75 -40 126q-44 56 -116 56q-163 0 -270 -226q-88 -185 -88 -370zM127 -274q0 39 26.5 64.5t65.5 25.5t64.5 -25.5t25.5 -64.5t-25.5 -64.5t-64.5 -25.5q-38 0 -65 26t-27 64zM338 1262h55 q16 -146 170 -146q180 0 303 146h60q-159 -277 -371 -277q-217 0 -217 277z" />
<glyph unicode="&#x1eb8;" horiz-adv-x="1165" d="M-145 0l8 29h153l361 1298h-154l8 29h951l-68 -369h-31q4 16 4 70q0 270 -245 270h-275l-161 -575h116q118 0 164 46q36 37 68 160h30l-139 -509h-29q35 136 35 169q0 107 -171 107q-17 0 -46 -1t-39 -1l-188 -694h330q168 0 284 112q107 104 142 275h28l-84 -416h-1052z M267 -274q0 39 26.5 64.5t65.5 25.5t64.5 -25.5t25.5 -64.5t-25.5 -64.5t-64.5 -25.5q-38 0 -65 26t-27 64z" />
<glyph unicode="&#x1eb9;" horiz-adv-x="711" d="M-18 313q0 172 145 346q151 181 319 181q85 0 136 -45q55 -47 55 -131q0 -112 -102 -184q-91 -64 -207 -64q-68 0 -156 24q-45 -184 -45 -264q0 -164 149 -164q154 0 281 213l25 -14q-134 -231 -326 -231q-129 0 -206 105q-68 94 -68 228zM57 -274q0 39 26.5 64.5 t65.5 25.5t64.5 -25.5t25.5 -64.5t-25.5 -64.5t-64.5 -25.5q-38 0 -65 26t-27 64zM178 471q66 -22 125 -22q98 0 156 85q51 74 51 177q0 100 -86 100q-153 0 -246 -340z" />
<glyph unicode="&#x1eba;" horiz-adv-x="1165" d="M-145 0l8 29h153l361 1298h-154l8 29h951l-68 -369h-31q4 16 4 70q0 270 -245 270h-275l-161 -575h116q118 0 164 46q36 37 68 160h30l-139 -509h-29q35 136 35 169q0 107 -171 107q-17 0 -46 -1t-39 -1l-188 -694h330q168 0 284 112q107 104 142 275h28l-84 -416h-1052z M698 1472l29 88q15 45 27.5 61.5t47.5 29.5q106 41 106 98q0 67 -82 67q-72 0 -72 -43q0 -8 17.5 -16.5t17.5 -26.5q0 -27 -27 -27q-18 0 -34.5 15.5t-16.5 36.5q0 48 40 82.5t102 34.5q63 0 103 -33q44 -35 44 -96q0 -92 -130 -152q-37 -10 -94 -41q-29 -27 -46 -78h-32z " />
<glyph unicode="&#x1ebb;" horiz-adv-x="711" d="M-18 313q0 172 145 346q151 181 319 181q85 0 136 -45q55 -47 55 -131q0 -112 -102 -184q-91 -64 -207 -64q-68 0 -156 24q-45 -184 -45 -264q0 -164 149 -164q154 0 281 213l25 -14q-134 -231 -326 -231q-129 0 -206 105q-68 94 -68 228zM178 471q66 -22 125 -22 q98 0 156 85q51 74 51 177q0 100 -86 100q-153 0 -246 -340zM431 950l29 88q15 45 27.5 61.5t47.5 29.5q106 41 106 98q0 67 -82 67q-72 0 -72 -43q0 -8 17.5 -16.5t17.5 -26.5q0 -27 -27 -27q-18 0 -34.5 15.5t-16.5 36.5q0 48 40 82.5t102 34.5q63 0 103 -33 q44 -35 44 -96q0 -92 -130 -152q-37 -10 -94 -41q-29 -27 -46 -78h-32z" />
<glyph unicode="&#x1ebc;" horiz-adv-x="1165" d="M-145 0l8 29h153l361 1298h-154l8 29h951l-68 -369h-31q4 16 4 70q0 270 -245 270h-275l-161 -575h116q118 0 164 46q36 37 68 160h30l-139 -509h-29q35 136 35 169q0 107 -171 107q-17 0 -46 -1t-39 -1l-188 -694h330q168 0 284 112q107 104 142 275h28l-84 -416h-1052z M556 1553q32 184 172 184q47 0 133 -27.5t129 -27.5q80 0 101 84h49q-37 -195 -180 -195q-45 0 -131 27.5t-131 27.5q-77 0 -93 -73h-49z" />
<glyph unicode="&#x1ebd;" horiz-adv-x="711" d="M-18 313q0 172 145 346q151 181 319 181q85 0 136 -45q55 -47 55 -131q0 -112 -102 -184q-91 -64 -207 -64q-68 0 -156 24q-45 -184 -45 -264q0 -164 149 -164q154 0 281 213l25 -14q-134 -231 -326 -231q-129 0 -206 105q-68 94 -68 228zM178 471q66 -22 125 -22 q98 0 156 85q51 74 51 177q0 100 -86 100q-153 0 -246 -340zM223 1008q32 184 172 184q47 0 133 -27.5t129 -27.5q80 0 101 84h49q-37 -195 -180 -195q-45 0 -131 27.5t-131 27.5q-77 0 -93 -73h-49z" />
<glyph unicode="&#x1ebe;" horiz-adv-x="1165" d="M-145 0l8 29h153l361 1298h-154l8 29h951l-68 -369h-31q4 16 4 70q0 270 -245 270h-275l-161 -575h116q118 0 164 46q36 37 68 160h30l-139 -509h-29q35 136 35 169q0 107 -171 107q-17 0 -46 -1t-39 -1l-188 -694h330q168 0 284 112q107 104 142 275h28l-84 -416h-1052z M470 1438l310 348h104l162 -348h-56l-176 207l-276 -207h-68zM553 1797l299 314q41 43 80 43q28 0 48.5 -21t20.5 -49q0 -41 -69 -86l-308 -201h-71z" />
<glyph unicode="&#x1ebf;" horiz-adv-x="711" d="M-18 313q0 172 145 346q151 181 319 181q85 0 136 -45q55 -47 55 -131q0 -112 -102 -184q-91 -64 -207 -64q-68 0 -156 24q-45 -184 -45 -264q0 -164 149 -164q154 0 281 213l25 -14q-134 -231 -326 -231q-129 0 -206 105q-68 94 -68 228zM153 950l310 348h104l162 -348 h-56l-176 207l-276 -207h-68zM178 471q66 -22 125 -22q98 0 156 85q51 74 51 177q0 100 -86 100q-153 0 -246 -340zM237 1309l299 314q41 43 80 43q28 0 48.5 -21t20.5 -49q0 -41 -69 -86l-308 -201h-71z" />
<glyph unicode="&#x1ec0;" horiz-adv-x="1165" d="M-145 0l8 29h153l361 1298h-154l8 29h951l-68 -369h-31q4 16 4 70q0 270 -245 270h-275l-161 -575h116q118 0 164 46q36 37 68 160h30l-139 -509h-29q35 136 35 169q0 107 -171 107q-17 0 -46 -1t-39 -1l-188 -694h330q168 0 284 112q107 104 142 275h28l-84 -416h-1052z M470 1438l310 348h104l162 -348h-56l-176 207l-276 -207h-68zM718 2086q0 28 20 49t48 21q45 0 86 -58l213 -301h-68l-243 203q-56 47 -56 86z" />
<glyph unicode="&#x1ec1;" horiz-adv-x="711" d="M-18 313q0 172 145 346q151 181 319 181q85 0 136 -45q55 -47 55 -131q0 -112 -102 -184q-91 -64 -207 -64q-68 0 -156 24q-45 -184 -45 -264q0 -164 149 -164q154 0 281 213l25 -14q-134 -231 -326 -231q-129 0 -206 105q-68 94 -68 228zM153 950l310 348h104l162 -348 h-56l-176 207l-276 -207h-68zM178 471q66 -22 125 -22q98 0 156 85q51 74 51 177q0 100 -86 100q-153 0 -246 -340zM402 1598q0 28 20 49t48 21q45 0 86 -58l213 -301h-68l-243 203q-56 47 -56 86z" />
<glyph unicode="&#x1ec2;" horiz-adv-x="1165" d="M-145 0l8 29h153l361 1298h-154l8 29h951l-68 -369h-31q4 16 4 70q0 270 -245 270h-275l-161 -575h116q118 0 164 46q36 37 68 160h30l-139 -509h-29q35 136 35 169q0 107 -171 107q-17 0 -46 -1t-39 -1l-188 -694h330q168 0 284 112q107 104 142 275h28l-84 -416h-1052z M470 1438l310 348h104l162 -348h-56l-176 207l-276 -207h-68zM945 1726l29 88q15 45 27.5 61.5t47.5 29.5q106 41 106 98q0 67 -82 67q-72 0 -72 -43q0 -8 17.5 -16.5t17.5 -26.5q0 -27 -27 -27q-18 0 -34.5 15.5t-16.5 36.5q0 48 40 82.5t102 34.5q63 0 103 -33 q44 -35 44 -96q0 -92 -130 -152q-37 -10 -94 -41q-29 -27 -46 -78h-32z" />
<glyph unicode="&#x1ec3;" horiz-adv-x="711" d="M-18 313q0 172 145 346q151 181 319 181q85 0 136 -45q55 -47 55 -131q0 -112 -102 -184q-91 -64 -207 -64q-68 0 -156 24q-45 -184 -45 -264q0 -164 149 -164q154 0 281 213l25 -14q-134 -231 -326 -231q-129 0 -206 105q-68 94 -68 228zM153 950l310 348h104l162 -348 h-56l-176 207l-276 -207h-68zM178 471q66 -22 125 -22q98 0 156 85q51 74 51 177q0 100 -86 100q-153 0 -246 -340zM628 1238l29 88q15 45 27.5 61.5t47.5 29.5q106 41 106 98q0 67 -82 67q-72 0 -72 -43q0 -8 17.5 -16.5t17.5 -26.5q0 -27 -27 -27q-18 0 -34.5 15.5 t-16.5 36.5q0 48 40 82.5t102 34.5q63 0 103 -33q44 -35 44 -96q0 -92 -130 -152q-37 -10 -94 -41q-29 -27 -46 -78h-32z" />
<glyph unicode="&#x1ec4;" horiz-adv-x="1165" d="M-145 0l8 29h153l361 1298h-154l8 29h951l-68 -369h-31q4 16 4 70q0 270 -245 270h-275l-161 -575h116q118 0 164 46q36 37 68 160h30l-139 -509h-29q35 136 35 169q0 107 -171 107q-17 0 -46 -1t-39 -1l-188 -694h330q168 0 284 112q107 104 142 275h28l-84 -416h-1052z M470 1438l310 348h104l162 -348h-56l-176 207l-276 -207h-68zM625 1840q32 184 172 184q47 0 133 -27.5t129 -27.5q80 0 101 84h49q-37 -195 -180 -195q-45 0 -131 27.5t-131 27.5q-77 0 -93 -73h-49z" />
<glyph unicode="&#x1ec5;" horiz-adv-x="711" d="M-18 313q0 172 145 346q151 181 319 181q85 0 136 -45q55 -47 55 -131q0 -112 -102 -184q-91 -64 -207 -64q-68 0 -156 24q-45 -184 -45 -264q0 -164 149 -164q154 0 281 213l25 -14q-134 -231 -326 -231q-129 0 -206 105q-68 94 -68 228zM153 950l310 348h104l162 -348 h-56l-176 207l-276 -207h-68zM178 471q66 -22 125 -22q98 0 156 85q51 74 51 177q0 100 -86 100q-153 0 -246 -340zM309 1352q32 184 172 184q47 0 133 -27.5t129 -27.5q80 0 101 84h49q-37 -195 -180 -195q-45 0 -131 27.5t-131 27.5q-77 0 -93 -73h-49z" />
<glyph unicode="&#x1ec6;" horiz-adv-x="1165" d="M-145 0l8 29h153l361 1298h-154l8 29h951l-68 -369h-31q4 16 4 70q0 270 -245 270h-275l-161 -575h116q118 0 164 46q36 37 68 160h30l-139 -509h-29q35 136 35 169q0 107 -171 107q-17 0 -46 -1t-39 -1l-188 -694h330q168 0 284 112q107 104 142 275h28l-84 -416h-1052z M267 -274q0 39 26.5 64.5t65.5 25.5t64.5 -25.5t25.5 -64.5t-25.5 -64.5t-64.5 -25.5q-38 0 -65 26t-27 64zM470 1438l310 348h104l162 -348h-56l-176 207l-276 -207h-68z" />
<glyph unicode="&#x1ec7;" horiz-adv-x="711" d="M-18 313q0 172 145 346q151 181 319 181q85 0 136 -45q55 -47 55 -131q0 -112 -102 -184q-91 -64 -207 -64q-68 0 -156 24q-45 -184 -45 -264q0 -164 149 -164q154 0 281 213l25 -14q-134 -231 -326 -231q-129 0 -206 105q-68 94 -68 228zM57 -274q0 39 26.5 64.5 t65.5 25.5t64.5 -25.5t25.5 -64.5t-25.5 -64.5t-64.5 -25.5q-38 0 -65 26t-27 64zM153 950l310 348h104l162 -348h-56l-176 207l-276 -207h-68zM178 471q66 -22 125 -22q98 0 156 85q51 74 51 177q0 100 -86 100q-153 0 -246 -340z" />
<glyph unicode="&#x1ec8;" horiz-adv-x="578" d="M-147 0l6 29h153l361 1298h-154l8 29h512l-8 -29h-168l-358 -1298h166l-6 -29h-512zM428 1472l29 88q15 45 27.5 61.5t47.5 29.5q106 41 106 98q0 67 -82 67q-72 0 -72 -43q0 -8 17.5 -16.5t17.5 -26.5q0 -27 -27 -27q-18 0 -34.5 15.5t-16.5 36.5q0 48 40 82.5t102 34.5 q63 0 103 -33q44 -35 44 -96q0 -92 -130 -152q-37 -10 -94 -41q-29 -27 -46 -78h-32z" />
<glyph unicode="&#x1ec9;" horiz-adv-x="508" d="M6 115q0 41 33 149l160 522h-123l8 29q206 0 289 25l-195 -645q-22 -73 -22 -107q0 -55 53 -55q64 0 207 162l20 -17q-162 -198 -293 -198q-137 0 -137 135zM241 950l29 88q15 45 27.5 61.5t47.5 29.5q106 41 106 98q0 67 -82 67q-72 0 -72 -43q0 -8 17.5 -16.5 t17.5 -26.5q0 -27 -27 -27q-18 0 -34.5 15.5t-16.5 36.5q0 48 40 82.5t102 34.5q63 0 103 -33q44 -35 44 -96q0 -92 -130 -152q-37 -10 -94 -41q-29 -27 -46 -78h-32z" />
<glyph unicode="&#x1eca;" horiz-adv-x="578" d="M-147 0l6 29h153l361 1298h-154l8 29h512l-8 -29h-168l-358 -1298h166l-6 -29h-512zM-57 -274q0 39 26.5 64.5t65.5 25.5t64.5 -25.5t25.5 -64.5t-25.5 -64.5t-64.5 -25.5q-38 0 -65 26t-27 64z" />
<glyph unicode="&#x1ecb;" horiz-adv-x="508" d="M-83 -274q0 39 26.5 64.5t65.5 25.5t64.5 -25.5t25.5 -64.5t-25.5 -64.5t-64.5 -25.5q-38 0 -65 26t-27 64zM6 115q0 41 33 149l160 522h-123l8 29q206 0 289 25l-195 -645q-22 -73 -22 -107q0 -55 53 -55q64 0 207 162l20 -17q-162 -198 -293 -198q-137 0 -137 135z M352 1272q0 47 28 85q30 42 75 42q34 0 56 -30q19 -27 19 -62q0 -48 -27 -83q-29 -40 -75 -40q-76 0 -76 88z" />
<glyph unicode="&#x1ecc;" horiz-adv-x="1346" d="M55 526q0 306 215 574q228 284 527 284q230 0 366 -165q127 -153 127 -388q0 -147 -52 -291q-82 -228 -264 -390q-200 -179 -425 -179q-231 0 -367 165q-127 154 -127 390zM240 332q0 -336 313 -336q104 0 187 55t147 166q84 146 152.5 393.5t68.5 411.5q0 338 -313 338 q-104 0 -188 -55.5t-146 -165.5q-87 -154 -153 -393q-68 -244 -68 -414zM337 -274q0 39 26.5 64.5t65.5 25.5t64.5 -25.5t25.5 -64.5t-25.5 -64.5t-64.5 -25.5q-38 0 -65 26t-27 64z" />
<glyph unicode="&#x1ecd;" horiz-adv-x="891" d="M-20 317q0 142 83.5 278.5t210.5 201.5q85 43 193 43q142 0 223 -100q74 -93 74 -238q0 -192 -137 -356q-143 -171 -332 -171q-147 0 -233 99q-82 94 -82 243zM97 -274q0 39 26.5 64.5t65.5 25.5t64.5 -25.5t25.5 -64.5t-25.5 -64.5t-64.5 -25.5q-38 0 -65 26t-27 64z M121 188q0 -186 168 -186q65 0 119 47q84 73 152 273q63 183 63 311q0 182 -166 182q-68 0 -121 -46q-79 -70 -150 -273q-65 -188 -65 -308z" />
<glyph unicode="&#x1ece;" horiz-adv-x="1346" d="M55 526q0 306 215 574q228 284 527 284q230 0 366 -165q127 -153 127 -388q0 -147 -52 -291q-82 -228 -264 -390q-200 -179 -425 -179q-231 0 -367 165q-127 154 -127 390zM240 332q0 -336 313 -336q104 0 187 55t147 166q84 146 152.5 393.5t68.5 411.5q0 338 -313 338 q-104 0 -188 -55.5t-146 -165.5q-87 -154 -153 -393q-68 -244 -68 -414zM808 1472l29 88q15 45 27.5 61.5t47.5 29.5q106 41 106 98q0 67 -82 67q-72 0 -72 -43q0 -8 17.5 -16.5t17.5 -26.5q0 -27 -27 -27q-18 0 -34.5 15.5t-16.5 36.5q0 48 40 82.5t102 34.5q63 0 103 -33 q44 -35 44 -96q0 -92 -130 -152q-37 -10 -94 -41q-29 -27 -46 -78h-32z" />
<glyph unicode="&#x1ecf;" horiz-adv-x="891" d="M-20 317q0 142 83.5 278.5t210.5 201.5q85 43 193 43q142 0 223 -100q74 -93 74 -238q0 -192 -137 -356q-143 -171 -332 -171q-147 0 -233 99q-82 94 -82 243zM121 188q0 -186 168 -186q65 0 119 47q84 73 152 273q63 183 63 311q0 182 -166 182q-68 0 -121 -46 q-79 -70 -150 -273q-65 -188 -65 -308zM461 950l29 88q15 45 27.5 61.5t47.5 29.5q106 41 106 98q0 67 -82 67q-72 0 -72 -43q0 -8 17.5 -16.5t17.5 -26.5q0 -27 -27 -27q-18 0 -34.5 15.5t-16.5 36.5q0 48 40 82.5t102 34.5q63 0 103 -33q44 -35 44 -96q0 -92 -130 -152 q-37 -10 -94 -41q-29 -27 -46 -78h-32z" />
<glyph unicode="&#x1ed0;" horiz-adv-x="1346" d="M55 526q0 306 215 574q228 284 527 284q230 0 366 -165q127 -153 127 -388q0 -147 -52 -291q-82 -228 -264 -390q-200 -179 -425 -179q-231 0 -367 165q-127 154 -127 390zM240 332q0 -336 313 -336q104 0 187 55t147 166q84 146 152.5 393.5t68.5 411.5q0 338 -313 338 q-104 0 -188 -55.5t-146 -165.5q-87 -154 -153 -393q-68 -244 -68 -414zM541 1438l310 348h104l162 -348h-56l-176 207l-276 -207h-68zM625 1797l299 314q41 43 80 43q28 0 48.5 -21t20.5 -49q0 -41 -69 -86l-308 -201h-71z" />
<glyph unicode="&#x1ed1;" horiz-adv-x="891" d="M-20 317q0 142 83.5 278.5t210.5 201.5q85 43 193 43q142 0 223 -100q74 -93 74 -238q0 -192 -137 -356q-143 -171 -332 -171q-147 0 -233 99q-82 94 -82 243zM121 188q0 -186 168 -186q65 0 119 47q84 73 152 273q63 183 63 311q0 182 -166 182q-68 0 -121 -46 q-79 -70 -150 -273q-65 -188 -65 -308zM202 950l310 348h104l162 -348h-56l-176 207l-276 -207h-68zM286 1309l299 314q41 43 80 43q28 0 48.5 -21t20.5 -49q0 -41 -69 -86l-308 -201h-71z" />
<glyph unicode="&#x1ed2;" horiz-adv-x="1346" d="M55 526q0 306 215 574q228 284 527 284q230 0 366 -165q127 -153 127 -388q0 -147 -52 -291q-82 -228 -264 -390q-200 -179 -425 -179q-231 0 -367 165q-127 154 -127 390zM240 332q0 -336 313 -336q104 0 187 55t147 166q84 146 152.5 393.5t68.5 411.5q0 338 -313 338 q-104 0 -188 -55.5t-146 -165.5q-87 -154 -153 -393q-68 -244 -68 -414zM541 1438l310 348h104l162 -348h-56l-176 207l-276 -207h-68zM790 2086q0 28 20 49t48 21q45 0 86 -58l213 -301h-68l-243 203q-56 47 -56 86z" />
<glyph unicode="&#x1ed3;" horiz-adv-x="891" d="M-20 317q0 142 83.5 278.5t210.5 201.5q85 43 193 43q142 0 223 -100q74 -93 74 -238q0 -192 -137 -356q-143 -171 -332 -171q-147 0 -233 99q-82 94 -82 243zM121 188q0 -186 168 -186q65 0 119 47q84 73 152 273q63 183 63 311q0 182 -166 182q-68 0 -121 -46 q-79 -70 -150 -273q-65 -188 -65 -308zM202 950l310 348h104l162 -348h-56l-176 207l-276 -207h-68zM451 1598q0 28 20 49t48 21q45 0 86 -58l213 -301h-68l-243 203q-56 47 -56 86z" />
<glyph unicode="&#x1ed4;" horiz-adv-x="1346" d="M55 526q0 306 215 574q228 284 527 284q230 0 366 -165q127 -153 127 -388q0 -147 -52 -291q-82 -228 -264 -390q-200 -179 -425 -179q-231 0 -367 165q-127 154 -127 390zM240 332q0 -336 313 -336q104 0 187 55t147 166q84 146 152.5 393.5t68.5 411.5q0 338 -313 338 q-104 0 -188 -55.5t-146 -165.5q-87 -154 -153 -393q-68 -244 -68 -414zM541 1438l310 348h104l162 -348h-56l-176 207l-276 -207h-68zM1016 1726l29 88q15 45 27.5 61.5t47.5 29.5q106 41 106 98q0 67 -82 67q-72 0 -72 -43q0 -8 17.5 -16.5t17.5 -26.5q0 -27 -27 -27 q-18 0 -34.5 15.5t-16.5 36.5q0 48 40 82.5t102 34.5q63 0 103 -33q44 -35 44 -96q0 -92 -130 -152q-37 -10 -94 -41q-29 -27 -46 -78h-32z" />
<glyph unicode="&#x1ed5;" horiz-adv-x="891" d="M-20 317q0 142 83.5 278.5t210.5 201.5q85 43 193 43q142 0 223 -100q74 -93 74 -238q0 -192 -137 -356q-143 -171 -332 -171q-147 0 -233 99q-82 94 -82 243zM121 188q0 -186 168 -186q65 0 119 47q84 73 152 273q63 183 63 311q0 182 -166 182q-68 0 -121 -46 q-79 -70 -150 -273q-65 -188 -65 -308zM202 950l310 348h104l162 -348h-56l-176 207l-276 -207h-68zM677 1238l29 88q15 45 27.5 61.5t47.5 29.5q106 41 106 98q0 67 -82 67q-72 0 -72 -43q0 -8 17.5 -16.5t17.5 -26.5q0 -27 -27 -27q-18 0 -34.5 15.5t-16.5 36.5 q0 48 40 82.5t102 34.5q63 0 103 -33q44 -35 44 -96q0 -92 -130 -152q-37 -10 -94 -41q-29 -27 -46 -78h-32z" />
<glyph unicode="&#x1ed6;" horiz-adv-x="1346" d="M55 526q0 306 215 574q228 284 527 284q230 0 366 -165q127 -153 127 -388q0 -147 -52 -291q-82 -228 -264 -390q-200 -179 -425 -179q-231 0 -367 165q-127 154 -127 390zM240 332q0 -336 313 -336q104 0 187 55t147 166q84 146 152.5 393.5t68.5 411.5q0 338 -313 338 q-104 0 -188 -55.5t-146 -165.5q-87 -154 -153 -393q-68 -244 -68 -414zM541 1438l310 348h104l162 -348h-56l-176 207l-276 -207h-68zM697 1840q32 184 172 184q47 0 133 -27.5t129 -27.5q80 0 101 84h49q-37 -195 -180 -195q-45 0 -131 27.5t-131 27.5q-77 0 -93 -73h-49z " />
<glyph unicode="&#x1ed7;" horiz-adv-x="891" d="M-20 317q0 142 83.5 278.5t210.5 201.5q85 43 193 43q142 0 223 -100q74 -93 74 -238q0 -192 -137 -356q-143 -171 -332 -171q-147 0 -233 99q-82 94 -82 243zM121 188q0 -186 168 -186q65 0 119 47q84 73 152 273q63 183 63 311q0 182 -166 182q-68 0 -121 -46 q-79 -70 -150 -273q-65 -188 -65 -308zM202 950l310 348h104l162 -348h-56l-176 207l-276 -207h-68zM358 1352q32 184 172 184q47 0 133 -27.5t129 -27.5q80 0 101 84h49q-37 -195 -180 -195q-45 0 -131 27.5t-131 27.5q-77 0 -93 -73h-49z" />
<glyph unicode="&#x1ed8;" horiz-adv-x="1346" d="M55 526q0 306 215 574q228 284 527 284q230 0 366 -165q127 -153 127 -388q0 -147 -52 -291q-82 -228 -264 -390q-200 -179 -425 -179q-231 0 -367 165q-127 154 -127 390zM240 332q0 -336 313 -336q104 0 187 55t147 166q84 146 152.5 393.5t68.5 411.5q0 338 -313 338 q-104 0 -188 -55.5t-146 -165.5q-87 -154 -153 -393q-68 -244 -68 -414zM337 -274q0 39 26.5 64.5t65.5 25.5t64.5 -25.5t25.5 -64.5t-25.5 -64.5t-64.5 -25.5q-38 0 -65 26t-27 64zM541 1438l310 348h104l162 -348h-56l-176 207l-276 -207h-68z" />
<glyph unicode="&#x1ed9;" horiz-adv-x="891" d="M-20 317q0 142 83.5 278.5t210.5 201.5q85 43 193 43q142 0 223 -100q74 -93 74 -238q0 -192 -137 -356q-143 -171 -332 -171q-147 0 -233 99q-82 94 -82 243zM97 -274q0 39 26.5 64.5t65.5 25.5t64.5 -25.5t25.5 -64.5t-25.5 -64.5t-64.5 -25.5q-38 0 -65 26t-27 64z M121 188q0 -186 168 -186q65 0 119 47q84 73 152 273q63 183 63 311q0 182 -166 182q-68 0 -121 -46q-79 -70 -150 -273q-65 -188 -65 -308zM202 950l310 348h104l162 -348h-56l-176 207l-276 -207h-68z" />
<glyph unicode="&#x1eda;" horiz-adv-x="1393" d="M55 526q0 306 215 574q228 284 527 284q230 0 366 -165q127 -153 127 -388q0 -147 -52 -291q-82 -228 -264 -390q-200 -179 -425 -179q-231 0 -367 165q-127 154 -127 390zM240 332q0 -336 313 -336q104 0 187 55t147 166q84 146 152.5 393.5t68.5 411.5q0 338 -313 338 q-104 0 -188 -55.5t-146 -165.5q-87 -154 -153 -393q-68 -244 -68 -414zM711 1495l299 314q41 43 80 43q28 0 48.5 -21t20.5 -49q0 -41 -69 -86l-308 -201h-71zM1031 1001q97 13 194 53q134 56 134 127q0 23 -58 48q-69 30 -88 61t-9 68q19 73 96 73q14 0 29 -4 q109 -29 109 -148q0 -27 -8 -55q-31 -117 -156 -184q-102 -54 -241 -67z" />
<glyph unicode="&#x1edb;" horiz-adv-x="917" d="M-20 317q0 142 83.5 278.5t210.5 201.5q85 43 193 43q142 0 223 -100q74 -93 74 -238q0 -192 -137 -356q-143 -171 -332 -171q-147 0 -233 99q-82 94 -82 243zM121 188q0 -186 168 -186q65 0 119 47q84 73 152 273q63 183 63 311q0 182 -166 182q-68 0 -121 -46 q-79 -70 -150 -273q-65 -188 -65 -308zM348 950l299 314q41 43 80 43q28 0 48.5 -21t20.5 -49q0 -41 -69 -86l-308 -201h-71zM515 546q97 13 194 53q134 56 134 127q0 23 -58 48q-69 30 -88 61t-9 68q19 73 96 73q14 0 29 -4q109 -29 109 -148q0 -27 -8 -55 q-31 -117 -156 -184q-102 -54 -241 -67z" />
<glyph unicode="&#x1edc;" horiz-adv-x="1393" d="M55 526q0 306 215 574q228 284 527 284q230 0 366 -165q127 -153 127 -388q0 -147 -52 -291q-82 -228 -264 -390q-200 -179 -425 -179q-231 0 -367 165q-127 154 -127 390zM240 332q0 -336 313 -336q104 0 187 55t147 166q84 146 152.5 393.5t68.5 411.5q0 338 -313 338 q-104 0 -188 -55.5t-146 -165.5q-87 -154 -153 -393q-68 -244 -68 -414zM657 1786q0 28 20 49t48 21q45 0 86 -58l213 -301h-68l-243 203q-56 47 -56 86zM1031 1001q97 13 194 53q134 56 134 127q0 23 -58 48q-69 30 -88 61t-9 68q19 73 96 73q14 0 29 -4q109 -29 109 -148 q0 -27 -8 -55q-31 -117 -156 -184q-102 -54 -241 -67z" />
<glyph unicode="&#x1edd;" horiz-adv-x="917" d="M-20 317q0 142 83.5 278.5t210.5 201.5q85 43 193 43q142 0 223 -100q74 -93 74 -238q0 -192 -137 -356q-143 -171 -332 -171q-147 0 -233 99q-82 94 -82 243zM121 188q0 -186 168 -186q65 0 119 47q84 73 152 273q63 183 63 311q0 182 -166 182q-68 0 -121 -46 q-79 -70 -150 -273q-65 -188 -65 -308zM294 1241q0 28 20 49t48 21q45 0 86 -58l213 -301h-68l-243 203q-56 47 -56 86zM515 546q97 13 194 53q134 56 134 127q0 23 -58 48q-69 30 -88 61t-9 68q19 73 96 73q14 0 29 -4q109 -29 109 -148q0 -27 -8 -55q-31 -117 -156 -184 q-102 -54 -241 -67z" />
<glyph unicode="&#x1ede;" horiz-adv-x="1393" d="M55 526q0 306 215 574q228 284 527 284q230 0 366 -165q127 -153 127 -388q0 -147 -52 -291q-82 -228 -264 -390q-200 -179 -425 -179q-231 0 -367 165q-127 154 -127 390zM240 332q0 -336 313 -336q104 0 187 55t147 166q84 146 152.5 393.5t68.5 411.5q0 338 -313 338 q-104 0 -188 -55.5t-146 -165.5q-87 -154 -153 -393q-68 -244 -68 -414zM808 1472l29 88q15 45 27.5 61.5t47.5 29.5q106 41 106 98q0 67 -82 67q-72 0 -72 -43q0 -8 17.5 -16.5t17.5 -26.5q0 -27 -27 -27q-18 0 -34.5 15.5t-16.5 36.5q0 48 40 82.5t102 34.5q63 0 103 -33 q44 -35 44 -96q0 -92 -130 -152q-37 -10 -94 -41q-29 -27 -46 -78h-32zM1031 1001q97 13 194 53q134 56 134 127q0 23 -58 48q-69 30 -88 61t-9 68q19 73 96 73q14 0 29 -4q109 -29 109 -148q0 -27 -8 -55q-31 -117 -156 -184q-102 -54 -241 -67z" />
<glyph unicode="&#x1edf;" horiz-adv-x="917" d="M-20 317q0 142 83.5 278.5t210.5 201.5q85 43 193 43q142 0 223 -100q74 -93 74 -238q0 -192 -137 -356q-143 -171 -332 -171q-147 0 -233 99q-82 94 -82 243zM121 188q0 -186 168 -186q65 0 119 47q84 73 152 273q63 183 63 311q0 182 -166 182q-68 0 -121 -46 q-79 -70 -150 -273q-65 -188 -65 -308zM461 950l29 88q15 45 27.5 61.5t47.5 29.5q106 41 106 98q0 67 -82 67q-72 0 -72 -43q0 -8 17.5 -16.5t17.5 -26.5q0 -27 -27 -27q-18 0 -34.5 15.5t-16.5 36.5q0 48 40 82.5t102 34.5q63 0 103 -33q44 -35 44 -96q0 -92 -130 -152 q-37 -10 -94 -41q-29 -27 -46 -78h-32zM515 546q97 13 194 53q134 56 134 127q0 23 -58 48q-69 30 -88 61t-9 68q19 73 96 73q14 0 29 -4q109 -29 109 -148q0 -27 -8 -55q-31 -117 -156 -184q-102 -54 -241 -67z" />
<glyph unicode="&#x1ee0;" horiz-adv-x="1393" d="M55 526q0 306 215 574q228 284 527 284q230 0 366 -165q127 -153 127 -388q0 -147 -52 -291q-82 -228 -264 -390q-200 -179 -425 -179q-231 0 -367 165q-127 154 -127 390zM240 332q0 -336 313 -336q104 0 187 55t147 166q84 146 152.5 393.5t68.5 411.5q0 338 -313 338 q-104 0 -188 -55.5t-146 -165.5q-87 -154 -153 -393q-68 -244 -68 -414zM606 1553q32 184 172 184q47 0 133 -27.5t129 -27.5q80 0 101 84h49q-37 -195 -180 -195q-45 0 -131 27.5t-131 27.5q-77 0 -93 -73h-49zM1031 1001q97 13 194 53q134 56 134 127q0 23 -58 48 q-69 30 -88 61t-9 68q19 73 96 73q14 0 29 -4q109 -29 109 -148q0 -27 -8 -55q-31 -117 -156 -184q-102 -54 -241 -67z" />
<glyph unicode="&#x1ee1;" horiz-adv-x="917" d="M-20 317q0 142 83.5 278.5t210.5 201.5q85 43 193 43q142 0 223 -100q74 -93 74 -238q0 -192 -137 -356q-143 -171 -332 -171q-147 0 -233 99q-82 94 -82 243zM121 188q0 -186 168 -186q65 0 119 47q84 73 152 273q63 183 63 311q0 182 -166 182q-68 0 -121 -46 q-79 -70 -150 -273q-65 -188 -65 -308zM243 1008q32 184 172 184q47 0 133 -27.5t129 -27.5q80 0 101 84h49q-37 -195 -180 -195q-45 0 -131 27.5t-131 27.5q-77 0 -93 -73h-49zM515 546q97 13 194 53q134 56 134 127q0 23 -58 48q-69 30 -88 61t-9 68q19 73 96 73 q14 0 29 -4q109 -29 109 -148q0 -27 -8 -55q-31 -117 -156 -184q-102 -54 -241 -67z" />
<glyph unicode="&#x1ee2;" horiz-adv-x="1393" d="M55 526q0 306 215 574q228 284 527 284q230 0 366 -165q127 -153 127 -388q0 -147 -52 -291q-82 -228 -264 -390q-200 -179 -425 -179q-231 0 -367 165q-127 154 -127 390zM240 332q0 -336 313 -336q104 0 187 55t147 166q84 146 152.5 393.5t68.5 411.5q0 338 -313 338 q-104 0 -188 -55.5t-146 -165.5q-87 -154 -153 -393q-68 -244 -68 -414zM337 -274q0 39 26.5 64.5t65.5 25.5t64.5 -25.5t25.5 -64.5t-25.5 -64.5t-64.5 -25.5q-38 0 -65 26t-27 64zM1031 1001q97 13 194 53q134 56 134 127q0 23 -58 48q-69 30 -88 61t-9 68q19 73 96 73 q14 0 29 -4q109 -29 109 -148q0 -27 -8 -55q-31 -117 -156 -184q-102 -54 -241 -67z" />
<glyph unicode="&#x1ee3;" horiz-adv-x="917" d="M-20 317q0 142 83.5 278.5t210.5 201.5q85 43 193 43q142 0 223 -100q74 -93 74 -238q0 -192 -137 -356q-143 -171 -332 -171q-147 0 -233 99q-82 94 -82 243zM97 -274q0 39 26.5 64.5t65.5 25.5t64.5 -25.5t25.5 -64.5t-25.5 -64.5t-64.5 -25.5q-38 0 -65 26t-27 64z M121 188q0 -186 168 -186q65 0 119 47q84 73 152 273q63 183 63 311q0 182 -166 182q-68 0 -121 -46q-79 -70 -150 -273q-65 -188 -65 -308zM515 546q97 13 194 53q134 56 134 127q0 23 -58 48q-69 30 -88 61t-9 68q19 73 96 73q14 0 29 -4q109 -29 109 -148q0 -27 -8 -55 q-31 -117 -156 -184q-102 -54 -241 -67z" />
<glyph unicode="&#x1ee4;" horiz-adv-x="1262" d="M35 285q0 64 31 176l239 866h-151l6 29h512l-6 -29h-168l-250 -899q-31 -111 -31 -192q0 -115 88 -177q77 -53 197 -53q211 0 330 95q115 92 172 298l223 807q12 43 12 56q0 52 -62 63q-11 2 -106 2l10 29h373l-8 -29q-89 0 -121 -21q-39 -25 -63 -112l-207 -745 q-71 -257 -186 -361q-128 -117 -382 -117q-172 0 -298 70q-154 85 -154 244zM337 -274q0 39 26.5 64.5t65.5 25.5t64.5 -25.5t25.5 -64.5t-25.5 -64.5t-64.5 -25.5q-38 0 -65 26t-27 64z" />
<glyph unicode="&#x1ee5;" horiz-adv-x="948" d="M-23 125q0 44 25 125l166 536h-121l8 29q206 0 289 25l-201 -656q-18 -59 -18 -88q0 -65 68 -65q52 0 137 69q164 133 221 312l129 403h156l-199 -629q-25 -79 -25 -106q0 -53 43 -53q68 0 183 176l22 -17q-124 -204 -256 -204q-133 0 -133 141q0 40 18 102 q-182 -243 -360 -243q-68 0 -110 38t-42 105zM137 -274q0 39 26.5 64.5t65.5 25.5t64.5 -25.5t25.5 -64.5t-25.5 -64.5t-64.5 -25.5q-38 0 -65 26t-27 64z" />
<glyph unicode="&#x1ee6;" horiz-adv-x="1262" d="M35 285q0 64 31 176l239 866h-151l6 29h512l-6 -29h-168l-250 -899q-31 -111 -31 -192q0 -115 88 -177q77 -53 197 -53q211 0 330 95q115 92 172 298l223 807q12 43 12 56q0 52 -62 63q-11 2 -106 2l10 29h373l-8 -29q-89 0 -121 -21q-39 -25 -63 -112l-207 -745 q-71 -257 -186 -361q-128 -117 -382 -117q-172 0 -298 70q-154 85 -154 244zM788 1472l29 88q15 45 27.5 61.5t47.5 29.5q106 41 106 98q0 67 -82 67q-72 0 -72 -43q0 -8 17.5 -16.5t17.5 -26.5q0 -27 -27 -27q-18 0 -34.5 15.5t-16.5 36.5q0 48 40 82.5t102 34.5 q63 0 103 -33q44 -35 44 -96q0 -92 -130 -152q-37 -10 -94 -41q-29 -27 -46 -78h-32z" />
<glyph unicode="&#x1ee7;" horiz-adv-x="948" d="M-23 125q0 44 25 125l166 536h-121l8 29q206 0 289 25l-201 -656q-18 -59 -18 -88q0 -65 68 -65q52 0 137 69q164 133 221 312l129 403h156l-199 -629q-25 -79 -25 -106q0 -53 43 -53q68 0 183 176l22 -17q-124 -204 -256 -204q-133 0 -133 141q0 40 18 102 q-182 -243 -360 -243q-68 0 -110 38t-42 105zM461 950l29 88q15 45 27.5 61.5t47.5 29.5q106 41 106 98q0 67 -82 67q-72 0 -72 -43q0 -8 17.5 -16.5t17.5 -26.5q0 -27 -27 -27q-18 0 -34.5 15.5t-16.5 36.5q0 48 40 82.5t102 34.5q63 0 103 -33q44 -35 44 -96 q0 -92 -130 -152q-37 -10 -94 -41q-29 -27 -46 -78h-32z" />
<glyph unicode="&#x1ee8;" horiz-adv-x="1304" d="M35 285q0 64 31 176l239 866h-151l6 29h512l-6 -29h-168l-250 -899q-31 -111 -31 -192q0 -115 88 -177q77 -53 197 -53q211 0 330 95q115 92 172 298l223 807q12 43 12 56q0 52 -62 63q-11 2 -106 2l10 29h373l-8 -29q-89 0 -121 -21q-39 -25 -63 -112l-207 -745 q-71 -257 -186 -361q-128 -117 -382 -117q-172 0 -298 70q-154 85 -154 244zM727 1495l299 314q41 43 80 43q28 0 48.5 -21t20.5 -49q0 -41 -69 -86l-308 -201h-71zM1109 1001q97 13 194 53q134 56 134 127q0 23 -58 48q-69 30 -88 61t-9 68q19 73 96 73q14 0 29 -4 q109 -29 109 -148q0 -27 -8 -55q-31 -117 -156 -184q-102 -54 -241 -67z" />
<glyph unicode="&#x1ee9;" horiz-adv-x="991" d="M-23 125q0 44 25 125l166 536h-121l8 29q206 0 289 25l-201 -656q-18 -59 -18 -88q0 -65 68 -65q52 0 137 69q164 133 221 312l129 403h156l-199 -629q-25 -79 -25 -106q0 -53 43 -53q68 0 183 176l22 -17q-124 -204 -256 -204q-133 0 -133 141q0 40 18 102 q-182 -243 -360 -243q-68 0 -110 38t-42 105zM387 950l299 314q41 43 80 43q28 0 48.5 -21t20.5 -49q0 -41 -69 -86l-308 -201h-71zM621 546q97 13 194 53q134 56 134 127q0 23 -58 48q-69 30 -88 61t-9 68q19 73 96 73q14 0 29 -4q109 -29 109 -148q0 -27 -8 -55 q-31 -117 -156 -184q-102 -54 -241 -67z" />
<glyph unicode="&#x1eea;" horiz-adv-x="1304" d="M35 285q0 64 31 176l239 866h-151l6 29h512l-6 -29h-168l-250 -899q-31 -111 -31 -192q0 -115 88 -177q77 -53 197 -53q211 0 330 95q115 92 172 298l223 807q12 43 12 56q0 52 -62 63q-11 2 -106 2l10 29h373l-8 -29q-89 0 -121 -21q-39 -25 -63 -112l-207 -745 q-71 -257 -186 -361q-128 -117 -382 -117q-172 0 -298 70q-154 85 -154 244zM673 1786q0 28 20 49t48 21q45 0 86 -58l213 -301h-68l-243 203q-56 47 -56 86zM1109 1001q97 13 194 53q134 56 134 127q0 23 -58 48q-69 30 -88 61t-9 68q19 73 96 73q14 0 29 -4 q109 -29 109 -148q0 -27 -8 -55q-31 -117 -156 -184q-102 -54 -241 -67z" />
<glyph unicode="&#x1eeb;" horiz-adv-x="991" d="M-23 125q0 44 25 125l166 536h-121l8 29q206 0 289 25l-201 -656q-18 -59 -18 -88q0 -65 68 -65q52 0 137 69q164 133 221 312l129 403h156l-199 -629q-25 -79 -25 -106q0 -53 43 -53q68 0 183 176l22 -17q-124 -204 -256 -204q-133 0 -133 141q0 40 18 102 q-182 -243 -360 -243q-68 0 -110 38t-42 105zM333 1241q0 28 20 49t48 21q45 0 86 -58l213 -301h-68l-243 203q-56 47 -56 86zM621 546q97 13 194 53q134 56 134 127q0 23 -58 48q-69 30 -88 61t-9 68q19 73 96 73q14 0 29 -4q109 -29 109 -148q0 -27 -8 -55 q-31 -117 -156 -184q-102 -54 -241 -67z" />
<glyph unicode="&#x1eec;" horiz-adv-x="1304" d="M35 285q0 64 31 176l239 866h-151l6 29h512l-6 -29h-168l-250 -899q-31 -111 -31 -192q0 -115 88 -177q77 -53 197 -53q211 0 330 95q115 92 172 298l223 807q12 43 12 56q0 52 -62 63q-11 2 -106 2l10 29h373l-8 -29q-89 0 -121 -21q-39 -25 -63 -112l-207 -745 q-71 -257 -186 -361q-128 -117 -382 -117q-172 0 -298 70q-154 85 -154 244zM788 1472l29 88q15 45 27.5 61.5t47.5 29.5q106 41 106 98q0 67 -82 67q-72 0 -72 -43q0 -8 17.5 -16.5t17.5 -26.5q0 -27 -27 -27q-18 0 -34.5 15.5t-16.5 36.5q0 48 40 82.5t102 34.5 q63 0 103 -33q44 -35 44 -96q0 -92 -130 -152q-37 -10 -94 -41q-29 -27 -46 -78h-32zM1109 1001q97 13 194 53q134 56 134 127q0 23 -58 48q-69 30 -88 61t-9 68q19 73 96 73q14 0 29 -4q109 -29 109 -148q0 -27 -8 -55q-31 -117 -156 -184q-102 -54 -241 -67z" />
<glyph unicode="&#x1eed;" horiz-adv-x="991" d="M-23 125q0 44 25 125l166 536h-121l8 29q206 0 289 25l-201 -656q-18 -59 -18 -88q0 -65 68 -65q52 0 137 69q164 133 221 312l129 403h156l-199 -629q-25 -79 -25 -106q0 -53 43 -53q68 0 183 176l22 -17q-124 -204 -256 -204q-133 0 -133 141q0 40 18 102 q-182 -243 -360 -243q-68 0 -110 38t-42 105zM461 950l29 88q15 45 27.5 61.5t47.5 29.5q106 41 106 98q0 67 -82 67q-72 0 -72 -43q0 -8 17.5 -16.5t17.5 -26.5q0 -27 -27 -27q-18 0 -34.5 15.5t-16.5 36.5q0 48 40 82.5t102 34.5q63 0 103 -33q44 -35 44 -96 q0 -92 -130 -152q-37 -10 -94 -41q-29 -27 -46 -78h-32zM621 546q97 13 194 53q134 56 134 127q0 23 -58 48q-69 30 -88 61t-9 68q19 73 96 73q14 0 29 -4q109 -29 109 -148q0 -27 -8 -55q-31 -117 -156 -184q-102 -54 -241 -67z" />
<glyph unicode="&#x1eee;" horiz-adv-x="1304" d="M35 285q0 64 31 176l239 866h-151l6 29h512l-6 -29h-168l-250 -899q-31 -111 -31 -192q0 -115 88 -177q77 -53 197 -53q211 0 330 95q115 92 172 298l223 807q12 43 12 56q0 52 -62 63q-11 2 -106 2l10 29h373l-8 -29q-89 0 -121 -21q-39 -25 -63 -112l-207 -745 q-71 -257 -186 -361q-128 -117 -382 -117q-172 0 -298 70q-154 85 -154 244zM606 1553q32 184 172 184q47 0 133 -27.5t129 -27.5q80 0 101 84h49q-37 -195 -180 -195q-45 0 -131 27.5t-131 27.5q-77 0 -93 -73h-49zM1109 1001q97 13 194 53q134 56 134 127q0 23 -58 48 q-69 30 -88 61t-9 68q19 73 96 73q14 0 29 -4q109 -29 109 -148q0 -27 -8 -55q-31 -117 -156 -184q-102 -54 -241 -67z" />
<glyph unicode="&#x1eef;" horiz-adv-x="991" d="M-23 125q0 44 25 125l166 536h-121l8 29q206 0 289 25l-201 -656q-18 -59 -18 -88q0 -65 68 -65q52 0 137 69q164 133 221 312l129 403h156l-199 -629q-25 -79 -25 -106q0 -53 43 -53q68 0 183 176l22 -17q-124 -204 -256 -204q-133 0 -133 141q0 40 18 102 q-182 -243 -360 -243q-68 0 -110 38t-42 105zM253 1008q32 184 172 184q47 0 133 -27.5t129 -27.5q80 0 101 84h49q-37 -195 -180 -195q-45 0 -131 27.5t-131 27.5q-77 0 -93 -73h-49zM621 546q97 13 194 53q134 56 134 127q0 23 -58 48q-69 30 -88 61t-9 68q19 73 96 73 q14 0 29 -4q109 -29 109 -148q0 -27 -8 -55q-31 -117 -156 -184q-102 -54 -241 -67z" />
<glyph unicode="&#x1ef0;" horiz-adv-x="1304" d="M35 285q0 64 31 176l239 866h-151l6 29h512l-6 -29h-168l-250 -899q-31 -111 -31 -192q0 -115 88 -177q77 -53 197 -53q211 0 330 95q115 92 172 298l223 807q12 43 12 56q0 52 -62 63q-11 2 -106 2l10 29h373l-8 -29q-89 0 -121 -21q-39 -25 -63 -112l-207 -745 q-71 -257 -186 -361q-128 -117 -382 -117q-172 0 -298 70q-154 85 -154 244zM337 -274q0 39 26.5 64.5t65.5 25.5t64.5 -25.5t25.5 -64.5t-25.5 -64.5t-64.5 -25.5q-38 0 -65 26t-27 64zM1109 1001q97 13 194 53q134 56 134 127q0 23 -58 48q-69 30 -88 61t-9 68 q19 73 96 73q14 0 29 -4q109 -29 109 -148q0 -27 -8 -55q-31 -117 -156 -184q-102 -54 -241 -67z" />
<glyph unicode="&#x1ef1;" horiz-adv-x="991" d="M-23 125q0 44 25 125l166 536h-121l8 29q206 0 289 25l-201 -656q-18 -59 -18 -88q0 -65 68 -65q52 0 137 69q164 133 221 312l129 403h156l-199 -629q-25 -79 -25 -106q0 -53 43 -53q68 0 183 176l22 -17q-124 -204 -256 -204q-133 0 -133 141q0 40 18 102 q-182 -243 -360 -243q-68 0 -110 38t-42 105zM137 -274q0 39 26.5 64.5t65.5 25.5t64.5 -25.5t25.5 -64.5t-25.5 -64.5t-64.5 -25.5q-38 0 -65 26t-27 64zM621 546q97 13 194 53q134 56 134 127q0 23 -58 48q-69 30 -88 61t-9 68q19 73 96 73q14 0 29 -4q109 -29 109 -148 q0 -27 -8 -55q-31 -117 -156 -184q-102 -54 -241 -67z" />
<glyph unicode="&#x1ef2;" horiz-adv-x="883" d="M-47 0l8 29h156l151 542l-61 756h-135v29h481v-29h-164l60 -713l428 592q43 59 43 80q0 36 -55 42q10 -1 -81 -1l9 29h288l-6 -29q-73 0 -133 -84l-493 -686l-136 -528h168l-6 -29h-522zM413 1786q0 28 20 49t48 21q45 0 86 -58l213 -301h-68l-243 203q-56 47 -56 86z " />
<glyph unicode="&#x1ef3;" horiz-adv-x="924" d="M-303 -391q0 46 26.5 79t71.5 33q84 0 84 -90q0 -28 -14.5 -47.5t-28.5 -38.5q0 -10 41 -10q181 0 402 424l-78 678q-13 113 -64 113q-50 0 -143 -181l-31 13q121 256 260 256q115 0 131 -144l56 -506l221 424q119 228 219 228t100 -95q0 -94 -86 -94q-80 0 -80 70 q0 9 6 25t7 24l-1 4l-3 2q-41 -1 -148 -203l-223 -421q-100 -189 -151 -276q-101 -169 -181 -254q-123 -130 -260 -130q-55 0 -94 31.5t-39 85.5zM333 1241q0 28 20 49t48 21q45 0 86 -58l213 -301h-68l-243 203q-56 47 -56 86z" />
<glyph unicode="&#x1ef4;" horiz-adv-x="883" d="M-47 0l8 29h156l151 542l-61 756h-135v29h481v-29h-164l60 -713l428 592q43 59 43 80q0 36 -55 42q10 -1 -81 -1l9 29h288l-6 -29q-73 0 -133 -84l-493 -686l-136 -528h168l-6 -29h-522zM47 -274q0 39 26.5 64.5t65.5 25.5t64.5 -25.5t25.5 -64.5t-25.5 -64.5 t-64.5 -25.5q-38 0 -65 26t-27 64z" />
<glyph unicode="&#x1ef5;" horiz-adv-x="924" d="M-303 -391q0 46 26.5 79t71.5 33q84 0 84 -90q0 -28 -14.5 -47.5t-28.5 -38.5q0 -10 41 -10q181 0 402 424l-78 678q-13 113 -64 113q-50 0 -143 -181l-31 13q121 256 260 256q115 0 131 -144l56 -506l221 424q119 228 219 228t100 -95q0 -94 -86 -94q-80 0 -80 70 q0 9 6 25t7 24l-1 4l-3 2q-41 -1 -148 -203l-223 -421q-100 -189 -151 -276q-101 -169 -181 -254q-123 -130 -260 -130q-55 0 -94 31.5t-39 85.5zM337 -274q0 39 26.5 64.5t65.5 25.5t64.5 -25.5t25.5 -64.5t-25.5 -64.5t-64.5 -25.5q-38 0 -65 26t-27 64z" />
<glyph unicode="&#x1ef6;" horiz-adv-x="883" d="M-47 0l8 29h156l151 542l-61 756h-135v29h481v-29h-164l60 -713l428 592q43 59 43 80q0 36 -55 42q10 -1 -81 -1l9 29h288l-6 -29q-73 0 -133 -84l-493 -686l-136 -528h168l-6 -29h-522zM628 1472l29 88q15 45 27.5 61.5t47.5 29.5q106 41 106 98q0 67 -82 67 q-72 0 -72 -43q0 -8 17.5 -16.5t17.5 -26.5q0 -27 -27 -27q-18 0 -34.5 15.5t-16.5 36.5q0 48 40 82.5t102 34.5q63 0 103 -33q44 -35 44 -96q0 -92 -130 -152q-37 -10 -94 -41q-29 -27 -46 -78h-32z" />
<glyph unicode="&#x1ef7;" horiz-adv-x="924" d="M-303 -391q0 46 26.5 79t71.5 33q84 0 84 -90q0 -28 -14.5 -47.5t-28.5 -38.5q0 -10 41 -10q181 0 402 424l-78 678q-13 113 -64 113q-50 0 -143 -181l-31 13q121 256 260 256q115 0 131 -144l56 -506l221 424q119 228 219 228t100 -95q0 -94 -86 -94q-80 0 -80 70 q0 9 6 25t7 24l-1 4l-3 2q-41 -1 -148 -203l-223 -421q-100 -189 -151 -276q-101 -169 -181 -254q-123 -130 -260 -130q-55 0 -94 31.5t-39 85.5zM461 950l29 88q15 45 27.5 61.5t47.5 29.5q106 41 106 98q0 67 -82 67q-72 0 -72 -43q0 -8 17.5 -16.5t17.5 -26.5 q0 -27 -27 -27q-18 0 -34.5 15.5t-16.5 36.5q0 48 40 82.5t102 34.5q63 0 103 -33q44 -35 44 -96q0 -92 -130 -152q-37 -10 -94 -41q-29 -27 -46 -78h-32z" />
<glyph unicode="&#x1ef8;" horiz-adv-x="883" d="M-47 0l8 29h156l151 542l-61 756h-135v29h481v-29h-164l60 -713l428 592q43 59 43 80q0 36 -55 42q10 -1 -81 -1l9 29h288l-6 -29q-73 0 -133 -84l-493 -686l-136 -528h168l-6 -29h-522zM406 1553q32 184 172 184q47 0 133 -27.5t129 -27.5q80 0 101 84h49 q-37 -195 -180 -195q-45 0 -131 27.5t-131 27.5q-77 0 -93 -73h-49z" />
<glyph unicode="&#x1ef9;" horiz-adv-x="924" d="M-303 -391q0 46 26.5 79t71.5 33q84 0 84 -90q0 -28 -14.5 -47.5t-28.5 -38.5q0 -10 41 -10q181 0 402 424l-78 678q-13 113 -64 113q-50 0 -143 -181l-31 13q121 256 260 256q115 0 131 -144l56 -506l221 424q119 228 219 228t100 -95q0 -94 -86 -94q-80 0 -80 70 q0 9 6 25t7 24l-1 4l-3 2q-41 -1 -148 -203l-223 -421q-100 -189 -151 -276q-101 -169 -181 -254q-123 -130 -260 -130q-55 0 -94 31.5t-39 85.5zM253 1008q32 184 172 184q47 0 133 -27.5t129 -27.5q80 0 101 84h49q-37 -195 -180 -195q-45 0 -131 27.5t-131 27.5 q-77 0 -93 -73h-49z" />
<glyph unicode="&#x2000;" horiz-adv-x="1078" />
<glyph unicode="&#x2001;" horiz-adv-x="2156" />
<glyph unicode="&#x2002;" horiz-adv-x="1078" />
<glyph unicode="&#x2003;" horiz-adv-x="2156" />
<glyph unicode="&#x2004;" horiz-adv-x="718" />
<glyph unicode="&#x2005;" horiz-adv-x="539" />
<glyph unicode="&#x2006;" horiz-adv-x="359" />
<glyph unicode="&#x2007;" horiz-adv-x="359" />
<glyph unicode="&#x2008;" horiz-adv-x="269" />
<glyph unicode="&#x2009;" horiz-adv-x="431" />
<glyph unicode="&#x200a;" horiz-adv-x="119" />
<glyph unicode="&#x2010;" horiz-adv-x="786" d="M72 344l37 131h448l-39 -131h-446z" />
<glyph unicode="&#x2011;" horiz-adv-x="786" d="M72 344l37 131h448l-39 -131h-446z" />
<glyph unicode="&#x2012;" horiz-adv-x="786" d="M72 344l37 131h448l-39 -131h-446z" />
<glyph unicode="&#x2013;" horiz-adv-x="1024" d="M-74 352l31 115h993l-32 -115h-992z" />
<glyph unicode="&#x2014;" horiz-adv-x="2048" d="M-90 352l31 115h2048l-31 -115h-2048z" />
<glyph unicode="&#x2018;" horiz-adv-x="494" d="M205 1022q0 127 108 229q87 82 224 133l12 -28q-98 -40 -179 -102q-108 -83 -108 -160q0 -30 38 -37l60 -6q109 -18 109 -105q0 -46 -30.5 -75t-76.5 -29q-73 0 -117 55q-40 51 -40 125z" />
<glyph unicode="&#x2019;" horiz-adv-x="494" d="M168 872q99 40 178 101q107 83 107 160q0 32 -67 42q-84 13 -112 39.5t-28 65.5q0 45 31.5 74.5t76.5 29.5q73 0 117 -53q41 -50 41 -125q0 -127 -109 -229q-88 -82 -225 -133z" />
<glyph unicode="&#x201c;" horiz-adv-x="872" d="M205 1022q0 127 108 229q87 82 224 133l12 -28q-98 -40 -179 -102q-108 -83 -108 -160q0 -30 38 -37l60 -6q109 -18 109 -105q0 -46 -30.5 -75t-76.5 -29q-73 0 -117 55q-40 51 -40 125zM584 1022q0 126 107 229q87 82 224 133l13 -28q-98 -40 -179 -102 q-108 -83 -108 -160q0 -30 38 -37l60 -6q111 -19 111 -105q0 -46 -31.5 -75t-77.5 -29q-73 0 -117 55q-40 51 -40 125z" />
<glyph unicode="&#x201d;" horiz-adv-x="872" d="M168 872q99 40 178 101q107 83 107 160q0 32 -67 42q-84 13 -112 39.5t-28 65.5q0 45 31.5 74.5t76.5 29.5q73 0 117 -53q41 -50 41 -125q0 -127 -109 -229q-88 -82 -225 -133zM547 872q99 40 177 101q107 83 107 160q0 32 -67 42q-83 13 -111 39.5t-28 65.5 q0 45 31.5 74.5t76.5 29.5q73 0 117 -53q41 -50 41 -125q0 -127 -109 -229q-88 -82 -225 -133z" />
<glyph unicode="&#x2026;" horiz-adv-x="2048" d="M137 76q0 39 26.5 64.5t65.5 25.5t64.5 -25.5t25.5 -64.5t-25.5 -64.5t-64.5 -25.5q-38 0 -65 26t-27 64zM819 76q0 39 26.5 64.5t65.5 25.5t64.5 -25.5t25.5 -64.5t-25.5 -64.5t-64.5 -25.5q-38 0 -65 26t-27 64zM1503 76q0 39 26.5 64.5t65.5 25.5t64.5 -25.5 t25.5 -64.5t-25.5 -64.5t-64.5 -25.5q-38 0 -65 26t-27 64z" />
<glyph unicode="&#x202f;" horiz-adv-x="431" />
<glyph unicode="&#x205f;" horiz-adv-x="539" />
<glyph unicode="&#x25fc;" horiz-adv-x="840" d="M0 0v840h840v-840h-840z" />
</font>
</defs>
</svg>
