<?xml version="1.0" standalone="no"?>
<!DOCTYPE svg PUBLIC "-//W3C//DTD SVG 1.1//EN" "http://www.w3.org/Graphics/SVG/1.1/DTD/svg11.dtd" >
<svg>
<metadata>
Created by FontForge 20110222 at Mon Nov  4 20:36:40 2013
 By Orthosie Webhosting
(c) Copyright 2001 by Tom Truong. All Rights Reserved
</metadata>
<defs>
<font id="UVNBaiSauRegular" horiz-adv-x="1114" >
  <font-face 
    font-family="UVNBaiSauRegular"
    font-weight="400"
    font-stretch="normal"
    units-per-em="2048"
    panose-1="4 3 6 5 2 8 2 2 12 3"
    ascent="1638"
    descent="-410"
    x-height="981"
    cap-height="1432"
    bbox="-342 -483 2372 2276"
    underline-thickness="150"
    underline-position="-142"
    unicode-range="U+0020-F002"
  />
<missing-glyph horiz-adv-x="1024" 
d="M128 0v2276h768v-2276h-768zM256 128h512v2020h-512v-2020z" />
    <glyph glyph-name=".notdef" horiz-adv-x="1024" 
d="M128 0v2276h768v-2276h-768zM256 128h512v2020h-512v-2020z" />
    <glyph glyph-name=".null" horiz-adv-x="0" 
 />
    <glyph glyph-name="nonmarkingreturn" horiz-adv-x="557" 
 />
    <glyph glyph-name="space" unicode=" " horiz-adv-x="557" 
 />
    <glyph glyph-name="exclam" unicode="!" horiz-adv-x="557" 
d="M188 326v1106h181v-1106h-181zM160 102q0 51 34 85t85 34q50 0 84 -34.5t34 -84.5q0 -49 -34.5 -82.5t-83.5 -33.5t-84 33.5t-35 82.5z" />
    <glyph glyph-name="quotedbl" unicode="&#x22;" horiz-adv-x="614" 
d="M524 1436v-555h-139v555h139zM229 1436v-555h-139v555h139z" />
    <glyph glyph-name="numbersign" unicode="#" horiz-adv-x="1575" 
d="M969 858h-260l-93 -264h261zM924 1458l-162 -454h256l164 454h164l-160 -454h301l-51 -146h-303l-93 -262h322l-51 -147h-322l-162 -453h-165l161 453h-258l-162 -453h-165l159 453h-309l53 147h310l92 262h-330l51 146h332l162 454h166z" />
    <glyph glyph-name="dollar" unicode="$" 
d="M627 336h10q147 0 147 131q0 108 -157 180v-311zM481 922v286h-14q-58 0 -98 -31q-43 -33 -43 -90q0 -88 155 -165zM481 -4v164h-327v176h327v387q-146 76 -215 141q-108 100 -108 223q0 133 97 212q89 72 226 75v146h146v-146h288v-166h-288v-352q159 -86 231 -154
q115 -109 115 -241q0 -150 -101 -229q-91 -72 -245 -72v-164h-146z" />
    <glyph glyph-name="percent" unicode="%" horiz-adv-x="1683" 
d="M1110 322q0 -68 48.5 -116t117.5 -48q68 0 116 48t48 116q0 69 -47.5 117t-116.5 48t-117.5 -48t-48.5 -117zM952 322q0 136 94 229.5t230 93.5t228.5 -93.5t92.5 -229.5t-92.5 -229t-228.5 -93t-230 93t-94 229zM301 0l932 1432h131l-922 -1432h-141zM250 1110
q0 -68 48 -116t116 -48t117 48t49 116q0 69 -48 116.5t-118 47.5q-69 0 -116.5 -47.5t-47.5 -116.5zM92 1110q0 136 93 229t229 93t229.5 -93t93.5 -229t-93.5 -230t-229.5 -94t-229 94t-93 230z" />
    <glyph glyph-name="ampersand" unicode="&#x26;" horiz-adv-x="1421" 
d="M1026 100q-167 -114 -356 -114q-239 0 -409.5 164.5t-170.5 402.5q0 308 256 479q-64 87 -69 95q-33 56 -33 110q0 101 90 153q74 42 182 42h504v-183h-518q-51 0 -51 -30q0 -15 10 -29l575 -793q29 91 29 166q0 170 -127 293l123 127q190 -184 190 -422q0 -180 -96 -328
l168 -233h-227zM449 895q-175 -124 -175 -330q0 -166 115 -280.5t281 -114.5q135 0 248 74z" />
    <glyph glyph-name="quotesingle" unicode="'" horiz-adv-x="317" 
d="M229 1436v-555h-139v555h139z" />
    <glyph glyph-name="parenleft" unicode="(" horiz-adv-x="786" 
d="M596 -369q-438 408 -438 904q0 486 438 895l100 -140q-362 -317 -362 -758q0 -449 362 -761z" />
    <glyph glyph-name="parenright" unicode=")" horiz-adv-x="786" 
d="M84 -229q362 312 362 761q0 443 -362 758l102 140q437 -406 437 -895q0 -499 -437 -904z" />
    <glyph glyph-name="asterisk" unicode="*" horiz-adv-x="1010" 
d="M541 1012l41 -316h-164l49 316l-252 -193l-82 142l297 114l-293 123l80 141l250 -200l-41 317h164l-49 -321l250 200l81 -141l-294 -123l299 -115l-84 -141z" />
    <glyph glyph-name="plus" unicode="+" horiz-adv-x="1706" 
d="M924 1221v-541h528v-139h-528v-541h-142v541h-528v139h528v541h142z" />
    <glyph glyph-name="comma" unicode="," horiz-adv-x="557" 
d="M117 -205l86 398h178l-107 -398h-157z" />
    <glyph glyph-name="hyphen" unicode="-" horiz-adv-x="676" 
d="M111 403v181h452v-181h-452z" />
    <glyph glyph-name="hyphen" unicode="&#x2010;" horiz-adv-x="676" 
d="M111 403v181h452v-181h-452z" />
    <glyph glyph-name="period" unicode="." horiz-adv-x="557" 
d="M160 102q0 51 34 85t85 34q50 0 84 -34.5t34 -84.5q0 -49 -34.5 -82.5t-83.5 -33.5t-84 33.5t-35 82.5z" />
    <glyph glyph-name="slash" unicode="/" horiz-adv-x="555" 
d="M109 -190h-127l489 1646h121z" />
    <glyph glyph-name="zero" unicode="0" 
d="M850 492v458q0 137 -77 232q-82 102 -216 102q-132 0 -215 -103q-78 -96 -78 -231v-458q0 -137 77 -233q83 -103 216 -103q134 0 217 103q76 95 76 233zM74 981q0 205 138.5 340t344.5 135t344.5 -135t138.5 -340v-530q0 -207 -137.5 -341.5t-345.5 -134.5
q-207 0 -345 134.5t-138 341.5v530z" />
    <glyph glyph-name="one" unicode="1" 
d="M510 0v1251h-258l61 181h392v-1432h-195z" />
    <glyph glyph-name="two" unicode="2" 
d="M322 190h722v-190h-790q-172 0 -172 147q0 82 100 162l512 412q154 124 154 287q0 117 -78.5 191.5t-196.5 74.5q-120 0 -198 -78.5t-78 -198.5q0 -124 71 -198.5t195 -87.5l-170 -136q-295 118 -295 418q0 207 140 336q136 127 344 127q201 0 333 -120
q136 -125 136 -324q0 -252 -275 -467z" />
    <glyph glyph-name="three" unicode="3" 
d="M131 1432h598q209 0 209 -150q0 -81 -68 -145l-290 -273q211 -3 328 -107q124 -111 124 -319q0 -200 -130 -320q-126 -118 -327 -118h-479v190h420q315 0 315 259q0 122 -83 189q-76 62 -201 62h-254v131l448 420h-610v181z" />
    <glyph glyph-name="four" unicode="4" 
d="M678 0v336h-492q-137 0 -137 125q0 59 37 127l459 844h213l-498 -910h418v606l184 332v-938h219v-186h-219v-336h-184z" />
    <glyph glyph-name="five" unicode="5" 
d="M344 885h203q222 0 350 -105q139 -114 139 -331q0 -212 -139 -333q-132 -116 -346 -116h-449v190h441q282 0 282 254q0 121 -75 188q-72 64 -195 64h-395v736h743v-185h-559v-362z" />
    <glyph glyph-name="six" unicode="6" 
d="M258 494q0 -139 85 -234q89 -98 226 -98q136 0 226 104q86 100 86 238q0 145 -91 231t-237 86q-14 0 -74 -4l127 174q217 -7 344 -136.5t127 -346.5q0 -228 -137 -375q-141 -151 -367 -151q-210 0 -355 138q-148 140 -148 347q0 141 73 290q46 92 162 255l299 420h227
l-405 -562q-168 -233 -168 -376z" />
    <glyph glyph-name="seven" unicode="7" 
d="M1044 1280q0 -55 -43 -154l-153 -352h128v-119h-180l-284 -655h-227l295 655h-360v119h413l215 477h-752v181h748q200 0 200 -152z" />
    <glyph glyph-name="eight" unicode="8" 
d="M326 823q-168 112 -168 283q0 159 122 258q114 92 277 92q164 0 277 -92q122 -98 122 -258q0 -170 -168 -283q259 -109 259 -389q0 -210 -142 -337q-136 -122 -348 -122t-348 122q-141 127 -141 337q0 281 258 389zM264 436q0 -120 87 -198q84 -74 206 -74t206 74
q87 78 87 198q0 119 -86.5 197t-206.5 78q-119 0 -205 -77q-88 -80 -88 -198zM365 1087q0 -82 55.5 -137t136.5 -55t137 55.5t56 136.5q0 83 -55 138t-138 55t-137.5 -55t-54.5 -138z" />
    <glyph glyph-name="nine" unicode="9" 
d="M868 938q0 139 -85 234q-89 98 -226 98q-136 0 -225 -105q-84 -99 -84 -237q0 -145 90.5 -231.5t236.5 -86.5q12 0 72 4l-125 -172q-218 8 -344.5 136.5t-126.5 345.5q0 227 137 375q141 151 367 151q208 0 356 -139t148 -346q0 -142 -74 -289q-43 -85 -162 -254
l-299 -422h-227l403 561q82 114 114 177q54 105 54 200z" />
    <glyph glyph-name="colon" unicode=":" horiz-adv-x="606" 
d="M184 102q0 50 34.5 84.5t84.5 34.5t84.5 -34.5t34.5 -84.5q0 -49 -35 -82.5t-84 -33.5t-84 33.5t-35 82.5zM184 692q0 50 34.5 84.5t84.5 34.5t84.5 -34.5t34.5 -84.5q0 -49 -35 -84t-84 -35t-84 35t-35 84z" />
    <glyph glyph-name="semicolon" unicode=";" horiz-adv-x="606" 
d="M195 692q0 50 34 84.5t84 34.5t83.5 -34.5t33.5 -84.5q0 -49 -34 -84t-83 -35t-83.5 35t-34.5 84zM145 -205l86 398h179l-107 -398h-158z" />
    <glyph glyph-name="less" unicode="&#x3c;" horiz-adv-x="1706" 
d="M1442 1006l-969 -396l969 -393v-154l-1178 484v129l1178 483v-153z" />
    <glyph glyph-name="equal" unicode="=" horiz-adv-x="1706" 
d="M1452 481v-139h-1198v139h1198zM1452 879v-140h-1198v140h1198z" />
    <glyph glyph-name="greater" unicode="&#x3e;" horiz-adv-x="1706" 
d="M1442 676v-129l-1178 -484v154l971 393l-971 396v153z" />
    <glyph glyph-name="question" unicode="?" horiz-adv-x="1024" 
d="M385 338v454q10 0 30 -1h31q133 0 213 53q95 63 95 190q0 108 -68 175t-176 67q-116 0 -179.5 -71.5t-66.5 -188.5h-182q3 198 122 319t316 121q189 0 310.5 -119t121.5 -307q0 -176 -110 -278q-103 -95 -283 -107v-307h-174zM362 102q0 50 34.5 84.5t84.5 34.5
t84.5 -34.5t34.5 -84.5q0 -49 -35 -82.5t-84 -33.5t-84 33.5t-35 82.5z" />
    <glyph glyph-name="at" unicode="@" horiz-adv-x="2048" 
d="M1284 854l57 115h132l-146 -576q-8 -32 -8 -59q0 -94 100 -94q47 0 103 27q130 62 206 208q70 134 70 287q0 279 -212 438q-190 143 -478 143q-133 0 -246 -28q-274 -68 -443 -289.5t-169 -505.5q0 -177 62 -308q90 -192 299 -296q188 -94 417 -94q346 0 621 190l55 -82
q-297 -223 -664 -223q-190 0 -348 47q-271 81 -427 283q-159 205 -159 485t149 508.5t406 343.5q205 92 455 92q163 0 310 -45q227 -70 368 -235q150 -177 150 -406q0 -175 -63 -315q-70 -153 -201 -248q-138 -100 -300 -100q-200 0 -200 176q-107 -174 -301 -174
q-314 0 -314 332q0 221 126 380q136 173 351 173q170 0 242 -150zM1249 711q-35 184 -198 184q-156 0 -248 -153q-78 -130 -78 -296q0 -219 186 -219q97 0 174 68.5t105 179.5z" />
    <glyph glyph-name="A" unicode="A" horiz-adv-x="1229" 
d="M922 0v657h-557v181h557v57q0 385 -308 385q-307 0 -307 -385v-895h-190v899q0 244 125 395q133 162 372 162t373 -162q125 -151 125 -395v-899h-190z" />
    <glyph glyph-name="B" unicode="B" horiz-adv-x="1155" 
d="M117 0v909q0 240 108 384q121 163 353 163q180 0 309 -106q139 -113 139 -289q0 -183 -162 -293q230 -99 230 -348q0 -199 -145 -314q-133 -106 -337 -106h-235v180h237q123 0 197 59q82 65 82 185q0 117 -83 181q-76 57 -196 57h-237v172h196q118 9 183 59q78 59 78 158
q0 105 -73 170q-70 61 -177 61q-139 0 -212 -93q-67 -85 -67 -228v-961h-188z" />
    <glyph glyph-name="C" unicode="C" horiz-adv-x="1020" 
d="M958 1262q-26 2 -69 2q-275 0 -443 -133q-184 -146 -184 -414q0 -265 185 -413q168 -135 432 -135q39 0 79 3v-172h-55q-160 0 -280 25q-248 52 -401.5 244.5t-153.5 447.5q0 254 153.5 445.5t401.5 244.5q120 25 335 25v-170z" />
    <glyph glyph-name="D" unicode="D" horiz-adv-x="1282" 
d="M385 174q8 0 23.5 -1t23.5 -1q259 0 421 142q169 150 169 405q0 264 -178 411q-165 136 -434 136q-15 0 -90 -4l-1 -1262h-188v1432h246q166 0 284 -25q248 -53 402 -244t154 -446q0 -197 -95.5 -358.5t-267.5 -262.5q-163 -96 -469 -96v174z" />
    <glyph glyph-name="E" unicode="E" horiz-adv-x="1040" 
d="M958 1262q-24 2 -63 2q-531 0 -621 -441h684v-170h-694q73 -481 623 -481q47 0 71 2v-174h-55q-318 0 -483 100q-352 214 -352 617q0 254 153.5 445.5t401.5 244.5q120 25 335 25v-170z" />
    <glyph glyph-name="F" unicode="F" horiz-adv-x="920" 
d="M117 0v934q0 498 506 498h204v-177h-237q-285 0 -285 -292v-160h522v-176h-522v-627h-188z" />
    <glyph glyph-name="G" unicode="G" horiz-adv-x="1583" 
d="M829 817h687v-49q0 -235 -84 -401q-94 -185 -263 -288.5t-376 -103.5q-302 0 -516 221q-211 218 -211 521q0 313 216.5 526t530.5 213q315 0 569 -258l-127 -129q-209 213 -448 213q-234 0 -390.5 -164t-156.5 -399q0 -228 151 -393q156 -170 382 -170q212 0 355 136
q137 131 165 345h-484v180z" />
    <glyph glyph-name="H" unicode="H" horiz-adv-x="1255" 
d="M131 0v1432h188v-594h617v594h190v-1432h-190v657h-617v-657h-188z" />
    <glyph glyph-name="I" unicode="I" horiz-adv-x="465" 
d="M137 0v1432h191v-1432h-191z" />
    <glyph glyph-name="J" unicode="J" horiz-adv-x="825" 
d="M707 1432v-932q0 -500 -506 -500h-205v176h237q285 0 285 293v963h189z" />
    <glyph glyph-name="K" unicode="K" horiz-adv-x="1165" 
d="M131 0v1432h188v-594h168q124 0 194 71q47 48 107 183l150 340h205l-182 -416q-78 -179 -189 -223q303 -50 303 -385v-408h-190v334q0 163 -57 237q-65 86 -222 86h-287v-657h-188z" />
    <glyph glyph-name="L" unicode="L" horiz-adv-x="848" 
d="M117 1432h190v-963q0 -293 285 -293h260v-176h-227q-508 0 -508 500v932z" />
    <glyph glyph-name="M" unicode="M" horiz-adv-x="1702" 
d="M45 0l182 1276q25 174 152 174q108 0 153 -143l320 -1020l317 1020q44 143 154 143q127 0 152 -174l182 -1276h-182l-164 1180l-328 -1051q-45 -145 -131 -145q-88 0 -133 145l-328 1051l-162 -1180h-184z" />
    <glyph glyph-name="N" unicode="N" horiz-adv-x="1290" 
d="M311 0h-180v1239q0 209 156 209q105 0 174 -143l516 -1072v1199h182v-1244q0 -208 -151 -208q-110 0 -179 143l-518 1079v-1202z" />
    <glyph glyph-name="O" unicode="O" horiz-adv-x="1583" 
d="M66 717q0 304 211.5 521.5t515.5 217.5q302 0 513.5 -218t211.5 -521q0 -304 -210 -522q-213 -220 -515 -220q-305 0 -516 218t-211 524zM260 719q0 -228 151 -393q156 -170 382 -170q224 0 380 171q150 165 150 392q0 225 -151 391q-156 170 -379 170q-226 0 -382 -169
q-151 -164 -151 -392z" />
    <glyph glyph-name="P" unicode="P" horiz-adv-x="1110" 
d="M117 0v866q0 142 16 221q34 167 161 269t298 102q195 0 333 -135t138 -330q0 -203 -140 -334q-136 -127 -341 -127h-203v181h178q136 0 221 73q90 77 90 211q0 119 -80.5 200t-199.5 81q-138 0 -213 -96q-68 -86 -68 -228v-954h-190z" />
    <glyph glyph-name="Q" unicode="Q" horiz-adv-x="1583" 
d="M735 -276v747h185v-297q187 51 296 202q107 147 107 343q0 227 -150 391q-155 170 -380 170t-381 -169q-152 -166 -152 -392q0 -192 105 -341q108 -153 290 -204v-184q-267 62 -428 258t-161 469q0 304 212 521.5t515 217.5q301 0 513 -218.5t212 -520.5
q0 -274 -166 -473q-162 -196 -432 -256v-264h-185z" />
    <glyph glyph-name="R" unicode="R" horiz-adv-x="1143" 
d="M117 0v918q0 237 112 381q124 157 355 157q184 0 314 -108q138 -115 138 -295q0 -208 -192 -314q213 -57 213 -350v-389h-189v317q0 168 -50 234q-59 76 -220 76h-217v174h199q121 10 185 63q77 64 77 176q0 110 -76 177q-72 63 -184 63q-135 0 -209 -94
q-68 -86 -68 -225v-961h-188z" />
    <glyph glyph-name="S" unicode="S" horiz-adv-x="1075" 
d="M72 0v190h489q238 0 238 181q0 83 -74 147q-42 36 -147 90l-240 123q-260 133 -260 354q0 177 136 268q117 79 302 79h414v-189h-477q-76 0 -125 -37q-54 -40 -54 -114q0 -60 42 -107t204 -129l209 -106q268 -136 268 -369q0 -197 -143 -296q-124 -85 -330 -85h-452z" />
    <glyph glyph-name="T" unicode="T" horiz-adv-x="991" 
d="M399 0v1255h-366v177h923v-177h-366v-1255h-191z" />
    <glyph glyph-name="U" unicode="U" horiz-adv-x="1229" 
d="M307 1432v-891q0 -385 307 -385q308 0 308 385v891h190v-900q0 -243 -125 -394q-135 -163 -373 -163t-372 163q-125 151 -125 394v900h190z" />
    <glyph glyph-name="V" unicode="V" horiz-adv-x="1049" 
d="M-39 1432h191l372 -1211l373 1211h190l-393 -1272q-57 -185 -170 -185t-170 185z" />
    <glyph glyph-name="W" unicode="W" horiz-adv-x="1835" 
d="M121 1432h188v-957q0 -321 258 -321q256 0 256 321v957h189v-957q0 -321 256 -321t256 321v957h190v-957q0 -217 -113 -353q-121 -147 -333 -147q-215 0 -350 175q-134 -175 -351 -175q-213 0 -334 146q-112 136 -112 354v957z" />
    <glyph glyph-name="X" unicode="X" horiz-adv-x="1251" 
d="M1232 0q-423 10 -607 365q-181 -355 -606 -365l-1 172q238 8 376 157t138 388t-138 388t-376 157v169q424 -8 607 -364q186 356 608 364v-169q-238 -8 -376 -157t-138 -388t138 -388t376 -157z" />
    <glyph glyph-name="Y" unicode="Y" horiz-adv-x="1110" 
d="M461 0v549q-357 91 -357 493v390h191v-392q0 -325 260 -325t260 325v392h191v-390q0 -402 -357 -493v-549h-188z" />
    <glyph glyph-name="Z" unicode="Z" horiz-adv-x="1020" 
d="M985 180v-180h-743q-209 0 -209 160q0 66 110 219l631 876h-661v177h645q209 0 209 -160q0 -68 -109 -219l-629 -873h756z" />
    <glyph glyph-name="bracketleft" unicode="[" horiz-adv-x="668" 
d="M559 -250v-104h-356v1786h356v-105h-182v-1577h182z" />
    <glyph glyph-name="backslash" unicode="\" horiz-adv-x="555" 
d="M573 -190h-127l-483 1646h121z" />
    <glyph glyph-name="bracketright" unicode="]" horiz-adv-x="668" 
d="M109 1327v105h358v-1786h-358v104h184v1577h-184z" />
    <glyph glyph-name="asciicircum" unicode="^" horiz-adv-x="2048" 
d="M1116 1458l510 -557h-180l-422 420l-424 -420h-180l510 557h186z" />
    <glyph glyph-name="underscore" unicode="_" horiz-adv-x="1024" 
d="M1024 -340v-143h-1024v143h1024z" />
    <glyph glyph-name="grave" unicode="`" horiz-adv-x="1024" 
d="M649 1096h-106l-281 348h178z" />
    <glyph glyph-name="a" unicode="a" horiz-adv-x="1151" 
d="M870 0v489q0 148 -81 244q-86 101 -232 101q-143 0 -231 -99q-84 -94 -84 -239q0 -148 87 -245q90 -101 236 -101q127 0 246 90v-189q-118 -67 -266 -67q-207 0 -346 152q-136 148 -136 356q0 219 137 363t355 144q176 0 311.5 -108.5t168.5 -279.5q12 -66 12 -199v-412
h-177z" />
    <glyph glyph-name="b" unicode="b" horiz-adv-x="1151" 
d="M104 1432h177v-940q0 -148 81 -244q86 -101 232 -101q148 0 235 101q82 96 82 246q0 147 -89 242t-234 95q-131 0 -248 -90v189q118 67 266 67q205 0 346 -151q138 -148 138 -354q0 -219 -136 -363q-138 -147 -356 -147q-176 0 -312 108.5t-169 280.5q-13 65 -13 198v863
z" />
    <glyph glyph-name="c" unicode="c" horiz-adv-x="786" 
d="M725 813h-76q-168 0 -278 -76q-127 -87 -127 -248q0 -160 127 -247q111 -76 278 -76h76v-166h-88q-246 0 -403 120q-173 133 -173 372q0 166 103 296t265 172q80 21 208 21h88v-168z" />
    <glyph glyph-name="d" unicode="d" horiz-adv-x="1151" 
d="M1051 1432v-863q0 -133 -12 -198q-34 -172 -169 -280.5t-311 -108.5q-218 0 -357 147q-136 144 -136 363q0 207 138.5 356t344.5 149q148 0 266 -67v-189q-119 90 -246 90q-146 0 -236 -101q-87 -97 -87 -245q0 -145 84 -239q88 -99 231 -99q146 0 232 101q81 96 81 244
v940h177z" />
    <glyph glyph-name="e" unicode="e" horiz-adv-x="1110" 
d="M1051 434q-36 -202 -161 -324q-134 -130 -333 -130q-208 0 -353 153q-143 150 -143 359t145 359t353 150q308 0 457 -307l-643 -356l-74 133l477 266q-89 99 -219 99q-138 0 -228 -103q-85 -99 -85 -239q0 -139 86 -238q90 -104 227 -104q133 0 217 90q78 83 98 219z" />
    <glyph glyph-name="f" unicode="f" horiz-adv-x="639" 
d="M121 0v1067q0 365 414 365h106v-168q-184 0 -242 -25q-104 -45 -104 -203v-55h346v-166h-346v-815h-174z" />
    <glyph glyph-name="g" unicode="g" horiz-adv-x="1151" 
d="M1047 57q0 -237 -132 -374q-134 -140 -370 -140q-139 0 -309 56l38 168q170 -56 275 -56q152 0 237 90q84 87 84 240v448q0 148 -81 244q-86 101 -232 101q-143 0 -231 -99q-84 -94 -84 -239q0 -148 87 -245q90 -101 236 -101q127 0 246 90v-189q-118 -67 -266 -67
q-207 0 -346 152q-136 148 -136 356q0 219 137.5 363t354.5 144q176 0 311.5 -108.5t168.5 -279.5q12 -66 12 -199v-355z" />
    <glyph glyph-name="h" unicode="h" horiz-adv-x="1063" 
d="M121 0v1432h176v-545q120 114 272 114q197 0 297 -137q88 -121 88 -325v-539h-176v567q0 262 -233 262q-120 0 -188 -92q-60 -83 -60 -207v-530h-176z" />
    <glyph glyph-name="i" unicode="i" horiz-adv-x="418" 
d="M121 0v981h176v-981h-176zM102 1260q0 45 31 75.5t76 30.5t75.5 -30.5t30.5 -75.5q0 -46 -30 -77.5t-76 -31.5q-45 0 -76 32t-31 77z" />
    <glyph glyph-name="j" unicode="j" horiz-adv-x="418" 
d="M102 1260q0 45 31 75.5t76 30.5t75.5 -30.5t30.5 -75.5q0 -46 -30 -77.5t-76 -31.5q-45 0 -76 32t-31 77zM297 -70q0 -366 -414 -366h-106v168q183 0 241 25q103 45 103 202v1022h176v-1051z" />
    <glyph glyph-name="k" unicode="k" horiz-adv-x="967" 
d="M121 0v1432h176v-807h78q83 0 135 41q40 30 90 112l125 203h205l-144 -233q-79 -128 -145 -162q236 -45 236 -316v-270h-177v248q0 205 -194 205h-209v-453h-176z" />
    <glyph glyph-name="l" unicode="l" horiz-adv-x="418" 
d="M121 0v1432h176v-1432h-176z" />
    <glyph glyph-name="m" unicode="m" horiz-adv-x="1591" 
d="M106 0v567q0 191 97 307q104 125 291 125t301 -151q117 151 301 151q186 0 290 -126q97 -117 97 -306v-567h-174v600q0 100 -57 164.5t-156 64.5t-156 -64.5t-57 -164.5v-600h-174v600q0 100 -58 164.5t-157 64.5t-156 -64.5t-57 -164.5v-600h-175z" />
    <glyph glyph-name="n" unicode="n" horiz-adv-x="1049" 
d="M106 0v535q0 204 105 330q113 134 313 134t312 -135q104 -125 104 -329v-535h-174v567q0 113 -64 186q-67 76 -178 76t-178 -77q-65 -73 -65 -185v-567h-175z" />
    <glyph glyph-name="o" unicode="o" 
d="M244 494q0 -138 86 -238q91 -104 227 -104t227 104q86 100 86 238t-86 237q-91 103 -227 103t-226 -103q-87 -99 -87 -237zM61 492q0 207 144.5 357t351.5 150q209 0 352.5 -149t143.5 -358q0 -211 -142 -359q-144 -151 -354 -151q-208 0 -353 152q-143 149 -143 358z
" />
    <glyph glyph-name="p" unicode="p" horiz-adv-x="1151" 
d="M104 -436v848q0 126 13 194q32 177 166 285t315 108q218 0 355 -144t137 -363q0 -208 -137 -356q-140 -152 -347 -152q-148 0 -266 67v189q117 -90 248 -90q146 0 236 101q87 97 87 245q0 145 -85 240q-89 98 -232 98q-146 0 -232 -101q-81 -96 -81 -244v-925h-177z" />
    <glyph glyph-name="q" unicode="q" horiz-adv-x="1151" 
d="M870 -436v925q0 148 -81 244q-86 101 -232 101q-143 0 -231 -99q-84 -94 -84 -239q0 -148 87 -245q90 -101 236 -101q127 0 246 90v-189q-118 -67 -266 -67q-207 0 -346 152q-136 148 -136 356q0 219 137 363t355 144q178 0 312 -107t168 -281q12 -66 12 -199v-848h-177z
" />
    <glyph glyph-name="r" unicode="r" horiz-adv-x="664" 
d="M119 0v981h162v-145q55 105 163 140q71 23 220 23v-170q-201 0 -285 -82.5t-84 -283.5v-463h-176z" />
    <glyph glyph-name="s" unicode="s" horiz-adv-x="887" 
d="M72 168h424q137 0 137 94q0 68 -131 121q-97 39 -193 78q-131 58 -179 113q-56 63 -56 159q0 248 329 248h363v-164h-410q-106 0 -106 -84q0 -58 108 -102q103 -42 206 -83q143 -64 194 -120q57 -64 57 -160q0 -268 -412 -268h-331v168z" />
    <glyph glyph-name="t" unicode="t" horiz-adv-x="645" 
d="M109 1241h176v-260h297v-166h-297v-420q0 -145 85 -193q60 -34 212 -34v-168h-58q-415 0 -415 365v876z" />
    <glyph glyph-name="u" unicode="u" horiz-adv-x="1049" 
d="M940 981v-535q0 -204 -105 -330q-112 -134 -313 -134q-200 0 -312 135q-104 125 -104 329v535h175v-567q0 -112 65 -185q67 -77 178 -77t178 76q64 73 64 186v567h174z" />
    <glyph glyph-name="v" unicode="v" horiz-adv-x="920" 
d="M180 981l281 -772l280 772h181l-328 -883q-44 -118 -135 -118q-89 0 -133 118l-326 883h180z" />
    <glyph glyph-name="w" unicode="w" horiz-adv-x="1591" 
d="M1483 981v-567q0 -190 -97 -307q-103 -125 -290 -125q-189 0 -301 151q-119 -151 -301 -151q-186 0 -291 125q-97 117 -97 307v567h175v-598q0 -101 55 -164q58 -67 158 -67q99 0 158 67q57 64 57 164v598h174v-598q0 -101 55 -164q58 -67 158 -67q98 0 157 67
q56 65 56 164v598h174z" />
    <glyph glyph-name="x" unicode="x" horiz-adv-x="901" 
d="M23 981h34q257 0 394 -225q76 124 179 176q97 49 247 49l-1 -168q-152 -2 -246 -86q-98 -88 -98 -238q0 -148 99 -236q95 -84 245 -87l1 -166h-23q-262 0 -403 223q-140 -223 -428 -223v166q150 3 246 87q100 88 100 236q0 150 -99 238q-95 84 -247 86v168z" />
    <glyph glyph-name="y" unicode="y" horiz-adv-x="1049" 
d="M940 981v-535q0 -375 -330 -456v-426h-176v426q-328 81 -328 456v535h175v-567q0 -112 65 -185q67 -77 178 -77t178 76q64 73 64 186v567h174z" />
    <glyph glyph-name="z" unicode="z" horiz-adv-x="854" 
d="M621 981q182 0 182 -121q0 -61 -58 -127l-495 -565h557v-168h-588q-174 0 -174 131q0 55 72 137l479 547h-512v166h537z" />
    <glyph glyph-name="braceleft" unicode="{" horiz-adv-x="1024" 
d="M866 1327q-161 0 -202 -44.5t-41 -184.5v-242q0 -142 -34 -208q-43 -85 -167 -118q126 -31 169 -120q32 -64 32 -205v-242q0 -141 41.5 -185t201.5 -44v-148h-43q-193 0 -272 49q-68 42 -89 138q-11 52 -11 170v245q0 141 -48 202q-55 69 -192 69q-7 0 -21.5 -1t-21.5 -1
v149q7 0 22 -1t23 -1q136 0 190 68q48 60 48 200v246q0 118 11 170q21 95 89 137q83 52 315 52v-150z" />
    <glyph glyph-name="bar" unicode="|" horiz-adv-x="1024" 
d="M588 1565v-2048h-150v2048h150z" />
    <glyph glyph-name="braceright" unicode="}" horiz-adv-x="1024" 
d="M858 606v-149q-7 0 -21.5 1t-21.5 1q-138 0 -192 -68q-48 -61 -48 -203v-245q0 -118 -11 -170q-21 -96 -89 -138q-79 -49 -315 -49v148q159 0 201 45t42 186v240q0 142 34 208q43 85 167 117q-124 33 -167 118q-34 66 -34 208v242q0 140 -42 184.5t-201 44.5v150h37
q195 0 278 -52q55 -34 77 -94.5t25 -237.5q-2 121 -2 -221q0 -147 54 -207q38 -43 107 -54q31 -5 122 -5z" />
    <glyph glyph-name="asciitilde" unicode="~" horiz-adv-x="1706" 
d="M1530 614q-204 -141 -389 -141q-98 0 -288 67.5t-290 67.5q-160 0 -385 -157v155q212 144 387 144q111 0 302 -68t276 -68q166 0 387 156v-156z" />
    <glyph glyph-name="euro" 
d="M1069 0h-76q-321 0 -521 132q-225 150 -269 452h-187l23 80h158q0 9 -1 26.5t-1 26.5q0 36 3 82h-182l23 80h170q102 553 790 553h70v-172h-86q-495 0 -575 -381h575l-22 -80h-570q0 -13 -3 -40.5t-3 -41.5q0 -35 2 -53h539l-23 -80h-502q39 -212 209 -318
q149 -94 377 -94h82v-172z" />
    <glyph glyph-name="nonbreakingspace" unicode="&#xa0;" 
 />
    <glyph glyph-name="exclamdown" unicode="&#xa1;" horiz-adv-x="557" 
d="M369 1092v-1106h-181v1106h181zM397 1313q0 -50 -34 -83.5t-84 -33.5q-51 0 -85 33t-34 84q0 50 34.5 84.5t84.5 34.5q49 0 83.5 -35t34.5 -84z" />
    <glyph glyph-name="cent" unicode="&#xa2;" 
d="M553 51v307q-162 11 -264 115q-105 107 -105 268q0 171 99.5 279t269.5 119v266h147v-266h131v-160q-225 0 -290 -17q-160 -43 -160 -204q0 -145 106 -198q73 -37 230 -37h58q38 1 56 1v-166h-131v-307h-147z" />
    <glyph glyph-name="sterling" unicode="&#xa3;" 
d="M14 0v184h52q196 0 196 287v221h-121v180h121v101q0 218 108 347q116 138 330 138q119 0 215 -39l-55 -151q-82 35 -158 35q-130 0 -196 -97q-57 -83 -57 -219v-115h233v-180h-233v-209q0 -218 -87 -299h228q193 0 246 149q26 73 26 314h189v-184q0 -205 -90 -326
q-101 -137 -299 -137h-648z" />
    <glyph glyph-name="currency" unicode="&#xa4;" 
d="M1069 0h-76q-321 0 -521 132q-225 150 -269 452h-187l23 80h158q0 9 -1 26.5t-1 26.5q0 36 3 82h-182l23 80h170q102 553 790 553h70v-172h-86q-495 0 -575 -381h575l-22 -80h-570q0 -13 -3 -40.5t-3 -41.5q0 -35 2 -53h539l-23 -80h-502q39 -212 209 -318
q149 -94 377 -94h82v-172z" />
    <glyph glyph-name="yen" unicode="&#xa5;" horiz-adv-x="1139" 
d="M862 963h232v-95h-277l-76 -153h353v-94h-398l-34 -72v-549h-185v549l-35 72h-399v94h352l-76 153h-276v95h229l-229 469h184l342 -697l342 697h183z" />
    <glyph glyph-name="brokenbar" unicode="&#xa6;" horiz-adv-x="1024" 
d="M588 408v-758h-150v758h150zM588 1432v-758h-150v758h150z" />
    <glyph glyph-name="section" unicode="&#xa7;" horiz-adv-x="1024" 
d="M229 897q-104 90 -104 217q0 169 129 251q107 67 287 67h305v-193h-275q-252 0 -252 -117q0 -58 77 -118q33 -25 128 -78l203 -113q201 -112 201 -244q0 -95 -103 -176q109 -89 109 -221q0 -319 -424 -319h-367v190h334q254 0 254 121q0 72 -203 186l-202 113
q-203 114 -203 246q0 110 106 188zM389 797q-76 0 -76 -78q0 -52 85 -110q2 -2 124 -72q97 -56 131 -56q78 0 78 80q0 52 -85 110q-5 3 -125 70q-100 56 -132 56z" />
    <glyph glyph-name="dieresis" unicode="&#xa8;" horiz-adv-x="1024" 
d="M588 1253q0 40 30 70.5t70 30.5q41 0 69.5 -30t28.5 -71q0 -42 -28 -71t-70 -29t-71 29t-29 71zM238 1253q0 41 28.5 71t69.5 30q40 0 70 -30.5t30 -70.5q0 -42 -29 -71t-71 -29t-70 29t-28 71z" />
    <glyph glyph-name="copyright" unicode="&#xa9;" horiz-adv-x="1706" 
d="M1053 907q-27 160 -205 160q-121 0 -180 -116q-45 -89 -45 -224q0 -136 48 -223q61 -109 187 -109q175 0 205 176h145q-9 -138 -116 -218q-98 -74 -240 -74q-194 0 -297 133q-92 121 -92 321q0 191 100 313q108 132 295 132q134 0 228 -68q102 -74 114 -203h-147z
M1493 727q0 268 -185.5 454.5t-453.5 186.5q-264 0 -452.5 -188.5t-188.5 -452.5q0 -262 189.5 -450.5t451.5 -188.5q264 0 451.5 187.5t187.5 451.5zM852 1464q309 0 524 -214t215 -523q0 -304 -217.5 -520.5t-521.5 -216.5q-301 0 -518 218t-217 519q0 305 215.5 521
t519.5 216z" />
    <glyph glyph-name="ordfeminine" unicode="&#xaa;" horiz-adv-x="864" 
d="M653 745v342q0 108 -64 175t-171 67q-105 0 -170.5 -66t-65.5 -171q0 -107 67.5 -174.5t174.5 -67.5q93 0 184 63v-131q-90 -49 -198 -49q-151 0 -257 103.5t-106 253.5q0 158 105 257t264 99q128 0 228 -72q106 -76 131 -198q9 -44 9 -142v-289h-131z" />
    <glyph glyph-name="guillemotleft" unicode="&#xab;" horiz-adv-x="1042" 
d="M928 184h-162l-250 322l250 317h162l-250 -317zM553 184h-162l-250 322l250 317h162l-248 -317z" />
    <glyph glyph-name="logicalnot" unicode="&#xac;" horiz-adv-x="1706" 
d="M1452 860v-502h-137v363h-1061v139h1198z" />
    <glyph glyph-name="sfthyphen" unicode="&#xad;" horiz-adv-x="676" 
d="M111 403v181h452v-181h-452z" />
    <glyph glyph-name="registered" unicode="&#xae;" horiz-adv-x="1706" 
d="M844 1057h-129v-277h133q211 0 211 133q0 144 -215 144zM872 1159q349 0 349 -229q0 -187 -191 -225l187 -381h-177l-170 356h-155v-356h-158v835h315zM1493 721q0 272 -183.5 459.5t-455.5 187.5q-264 0 -452.5 -188.5t-188.5 -452.5q0 -259 188.5 -449t446.5 -190
q266 0 455.5 184t189.5 449zM852 1464q307 0 523 -215t216 -522q0 -305 -217 -521t-522 -216q-301 0 -518 218t-217 519q0 219 126.5 410.5t328.5 273.5q130 53 280 53z" />
    <glyph glyph-name="macron" unicode="&#xaf;" horiz-adv-x="1024" 
d="M254 1190v127h516v-127h-516z" />
    <glyph glyph-name="macron" unicode="&#x2c9;" horiz-adv-x="1024" 
d="M254 1190v127h516v-127h-516z" />
    <glyph glyph-name="degree" unicode="&#xb0;" horiz-adv-x="674" 
d="M530 1169q0 82 -55.5 137.5t-136.5 55.5q-82 0 -138.5 -56t-56.5 -137q0 -82 56.5 -139t138.5 -57q81 0 136.5 57t55.5 139zM338 1456q120 0 203.5 -84.5t83.5 -204.5q0 -121 -84 -203.5t-205 -82.5t-204 82.5t-83 203.5t84 205t205 84z" />
    <glyph glyph-name="plusminus" unicode="&#xb1;" horiz-adv-x="1706" 
d="M1452 170v-141h-1198v141h1198zM924 1192v-340h528v-139h-528v-340h-142v340h-528v139h528v340h142z" />
    <glyph glyph-name="twosuperior" unicode="&#xb2;" horiz-adv-x="735" 
d="M213 688h477v-115h-522q-115 0 -115 89q0 49 68 98l338 246q100 73 100 172q0 73 -55 117q-51 42 -125 42q-77 0 -128 -44q-54 -46 -54 -122q0 -151 175 -172l-112 -79q-194 68 -194 249q0 128 96 206q90 73 221 73q128 0 216 -69q95 -74 95 -199q0 -149 -182 -279z" />
    <glyph glyph-name="threesuperior" unicode="&#xb3;" horiz-adv-x="735" 
d="M86 1432h395q137 0 137 -89q0 -51 -43 -88l-192 -163q299 -4 299 -256q0 -124 -91 -197q-84 -66 -212 -66h-316v115h277q209 0 209 154q0 151 -189 151h-167v80l296 252h-403v107z" />
    <glyph glyph-name="acute" unicode="&#xb4;" horiz-adv-x="1024" 
d="M375 1096l209 348h178l-281 -348h-106z" />
    <glyph glyph-name="mu" unicode="&#xb5;" horiz-adv-x="1151" 
d="M385 1071l-129 -600q-14 -65 -14 -133q0 -207 200 -207q153 0 237 132q55 88 95 272l115 536h178l-156 -732q-22 -103 -22 -132q0 -69 70 -69q14 0 34 3l-31 -143q-48 -10 -108 -10q-116 0 -149 129q-89 -131 -271 -131q-157 0 -256 116l-110 -530h-181l318 1499h180z
" />
    <glyph glyph-name="mu" unicode="&#x3bc;" horiz-adv-x="1151" 
d="M385 1071l-129 -600q-14 -65 -14 -133q0 -207 200 -207q153 0 237 132q55 88 95 272l115 536h178l-156 -732q-22 -103 -22 -132q0 -69 70 -69q14 0 34 3l-31 -143q-48 -10 -108 -10q-116 0 -149 129q-89 -131 -271 -131q-157 0 -256 116l-110 -530h-181l318 1499h180z
" />
    <glyph glyph-name="paragraph" unicode="&#xb6;" horiz-adv-x="1024" 
d="M958 1393h-120v-1393h-111v1393h-176v-1393h-113v782q-162 8 -263 95q-109 94 -109 253q0 166 116 261q108 88 277 88h499v-86z" />
    <glyph glyph-name="ch270" unicode="&#xb7;" horiz-adv-x="557" 
d="M160 729q0 51 34 85t85 34q50 0 84 -34.5t34 -84.5q0 -49 -34.5 -83t-83.5 -34q-50 0 -84.5 33.5t-34.5 83.5z" />
    <glyph glyph-name="ch270" unicode="&#x2219;" horiz-adv-x="557" 
d="M160 729q0 51 34 85t85 34q50 0 84 -34.5t34 -84.5q0 -49 -34.5 -83t-83.5 -34q-50 0 -84.5 33.5t-34.5 83.5z" />
    <glyph glyph-name="cedilla" unicode="&#xb8;" horiz-adv-x="1024" 
d="M299 -424v88q164 -37 246 -37q121 0 121 84q0 100 -134 100q-24 0 -59 -3l57 276h74l-41 -190q234 0 234 -177q0 -182 -248 -182q-92 0 -250 41z" />
    <glyph glyph-name="onesuperior" unicode="&#xb9;" horiz-adv-x="735" 
d="M338 573v752h-170l39 107h260v-859h-129z" />
    <glyph glyph-name="ordmasculine" unicode="&#xba;" horiz-adv-x="836" 
d="M182 1092q0 -100 68 -170t168 -70t167.5 70t67.5 170q0 99 -68 168t-167 69t-167.5 -69t-68.5 -168zM47 1090q0 149 112 253q109 103 259 103t260 -102q113 -105 113 -254q0 -151 -110.5 -254t-262.5 -103t-260 102q-111 104 -111 255z" />
    <glyph glyph-name="guillemotright" unicode="&#xbb;" horiz-adv-x="1042" 
d="M489 184l250 322l-250 317h162l252 -317l-252 -322h-162zM115 184l250 322l-250 317h161l252 -317l-252 -322h-161z" />
    <glyph glyph-name="onequarter" unicode="&#xbc;" horiz-adv-x="1745" 
d="M1473 0v188h-312q-86 0 -86 70q0 35 23 72l291 471h133l-314 -508h265v340l114 184v-524h139v-105h-139v-188h-114zM360 0l887 1432h137l-876 -1432h-148zM319 629v700h-161l39 101h245v-801h-123z" />
    <glyph glyph-name="onehalf" unicode="&#xbd;" horiz-adv-x="1745" 
d="M1247 106h455v-106h-498q-108 0 -108 82q0 47 63 92l324 229q96 68 96 162q0 69 -54 110q-49 38 -120 38t-121 -41q-53 -43 -53 -113q0 -145 168 -162l-107 -75q-186 66 -186 235q0 120 95 192q86 66 210 66q121 0 203 -62q92 -69 92 -186q0 -143 -172 -262zM360 0
l887 1432h137l-876 -1432h-148zM319 629v700h-161l39 101h245v-801h-123z" />
    <glyph glyph-name="threequarters" unicode="&#xbe;" horiz-adv-x="1745" 
d="M1473 0v188h-312q-86 0 -86 70q0 35 23 72l291 471h133l-314 -508h265v340l114 184v-524h139v-105h-139v-188h-114zM360 0l887 1432h137l-876 -1432h-148zM82 1430h377q133 0 133 -82q0 -46 -43 -82l-184 -154q286 -4 286 -238q0 -117 -88 -184q-80 -61 -201 -61h-301
v106h265q198 0 198 146q0 141 -180 141h-160v72l283 235h-385v101z" />
    <glyph glyph-name="questiondown" unicode="&#xbf;" horiz-adv-x="1024" 
d="M662 1337q0 -50 -34.5 -84t-84.5 -34t-84.5 34t-34.5 84q0 49 35 84t84 35t84 -35t35 -84zM465 795v307h174v-452q-10 0 -29 1h-30q-133 0 -215 -54q-95 -64 -95 -191q0 -108 68 -175t176 -67q115 0 181 75q62 70 65 187h182q-3 -198 -122 -320t-316 -122
q-189 0 -310.5 119t-121.5 307q0 176 110 278q103 94 283 107z" />
    <glyph glyph-name="Agrave" unicode="&#xc0;" horiz-adv-x="1229" 
d="M922 0v657h-557v181h557v57q0 385 -308 385q-307 0 -307 -385v-895h-190v899q0 244 125 395q133 162 372 162t373 -162q125 -151 125 -395v-899h-190zM751 1567h-106l-281 348h178z" />
    <glyph glyph-name="Aacute" unicode="&#xc1;" horiz-adv-x="1229" 
d="M922 0v657h-557v181h557v57q0 385 -308 385q-307 0 -307 -385v-895h-190v899q0 244 125 395q133 162 372 162t373 -162q125 -151 125 -395v-899h-190zM477 1567l209 348h178l-281 -348h-106z" />
    <glyph glyph-name="Acircumflex" unicode="&#xc2;" horiz-adv-x="1229" 
d="M922 0v657h-557v181h557v57q0 385 -308 385q-307 0 -307 -385v-895h-190v899q0 244 125 395q133 162 372 162t373 -162q125 -151 125 -395v-899h-190zM327 1517l197 348h178l197 -348h-107l-178 243l-180 -243h-107z" />
    <glyph glyph-name="Atilde" unicode="&#xc3;" horiz-adv-x="1229" 
d="M922 0v657h-557v181h557v57q0 385 -308 385q-307 0 -307 -385v-895h-190v899q0 244 125 395q133 162 372 162t373 -162q125 -151 125 -395v-899h-190zM905 1835q-50 -193 -199 -193q-35 0 -99.5 23t-98.5 23q-68 0 -97 -64h-88q45 186 199 186q36 0 100.5 -23.5
t97.5 -23.5q70 0 97 72h88z" />
    <glyph glyph-name="Adieresis" unicode="&#xc4;" horiz-adv-x="1229" 
d="M922 0v657h-557v181h557v57q0 385 -308 385q-307 0 -307 -385v-895h-190v899q0 244 125 395q133 162 372 162t373 -162q125 -151 125 -395v-899h-190zM690 1724q0 40 30 70.5t70 30.5q41 0 69.5 -30t28.5 -71q0 -42 -28 -71t-70 -29t-71 29t-29 71zM340 1724
q0 41 28.5 71t69.5 30q40 0 70 -30.5t30 -70.5q0 -42 -29 -71t-71 -29t-70 29t-28 71z" />
    <glyph glyph-name="Aring" unicode="&#xc5;" horiz-adv-x="1229" 
d="M479 1739q0 -56 39.5 -94.5t95.5 -38.5t95 38.5t39 94.5t-39 95.5t-95 39.5t-95.5 -39.5t-39.5 -95.5zM381 1741q0 99 67 165t166 66t165.5 -66t66.5 -165t-66.5 -166.5t-165.5 -67.5t-166 67.5t-67 166.5zM922 0v657h-557v181h557v57q0 385 -308 385q-307 0 -307 -385
v-895h-190v899q0 244 125 395q133 162 372 162t373 -162q125 -151 125 -395v-899h-190z" />
    <glyph glyph-name="AE" unicode="&#xc6;" horiz-adv-x="1892" 
d="M1796 0h-27q-217 0 -357 40q-181 51 -304 183v-223h-186v653h-557v170h557v72q0 385 -308 385q-307 0 -307 -385v-895h-190v899q0 244 124 395q134 162 373 162q313 0 451 -299q212 277 664 277q11 0 34 -1t33 -1v-170q-10 0 -31 1t-32 1q-542 0 -621 -441h684v-170h-694
q36 -247 208 -370q155 -112 404 -112q40 0 82 3v-174z" />
    <glyph glyph-name="Ccedilla" unicode="&#xc7;" horiz-adv-x="1020" 
d="M958 1262q-26 2 -69 2q-275 0 -443 -133q-184 -146 -184 -414q0 -265 185 -413q168 -135 432 -135q39 0 79 3v-172h-55q-160 0 -280 25q-248 52 -401.5 244.5t-153.5 447.5q0 254 153.5 445.5t401.5 244.5q120 25 335 25v-170zM420 -424v88q164 -37 246 -37q121 0 121 84
q0 100 -134 100q-24 0 -59 -3l57 276h74l-41 -190q234 0 234 -177q0 -182 -248 -182q-92 0 -250 41z" />
    <glyph glyph-name="Egrave" unicode="&#xc8;" horiz-adv-x="1040" 
d="M958 1262q-24 2 -63 2q-531 0 -621 -441h684v-170h-694q73 -481 623 -481q47 0 71 2v-174h-55q-318 0 -483 100q-352 214 -352 617q0 254 153.5 445.5t401.5 244.5q120 25 335 25v-170zM819 1567h-106l-281 348h178z" />
    <glyph glyph-name="Eacute" unicode="&#xc9;" horiz-adv-x="1040" 
d="M958 1262q-24 2 -63 2q-531 0 -621 -441h684v-170h-694q73 -481 623 -481q47 0 71 2v-174h-55q-318 0 -483 100q-352 214 -352 617q0 254 153.5 445.5t401.5 244.5q120 25 335 25v-170zM545 1567l209 348h178l-281 -348h-106z" />
    <glyph glyph-name="Ecircumflex" unicode="&#xca;" horiz-adv-x="1040" 
d="M958 1262q-24 2 -63 2q-531 0 -621 -441h684v-170h-694q73 -481 623 -481q47 0 71 2v-174h-55q-318 0 -483 100q-352 214 -352 617q0 254 153.5 445.5t401.5 244.5q120 25 335 25v-170zM397 1517l197 348h178l197 -348h-107l-178 243l-180 -243h-107z" />
    <glyph glyph-name="Edieresis" unicode="&#xcb;" horiz-adv-x="1040" 
d="M958 1262q-24 2 -63 2q-531 0 -621 -441h684v-170h-694q73 -481 623 -481q47 0 71 2v-174h-55q-318 0 -483 100q-352 214 -352 617q0 254 153.5 445.5t401.5 244.5q120 25 335 25v-170zM758 1724q0 40 30 70.5t70 30.5q41 0 69.5 -30t28.5 -71q0 -42 -28 -71t-70 -29
t-71 29t-29 71zM408 1724q0 41 28.5 71t69.5 30q40 0 70 -30.5t30 -70.5q0 -42 -29 -71t-71 -29t-70 29t-28 71z" />
    <glyph glyph-name="Igrave" unicode="&#xcc;" horiz-adv-x="465" 
d="M137 0v1432h191v-1432h-191zM370 1567h-106l-281 348h178z" />
    <glyph glyph-name="Iacute" unicode="&#xcd;" horiz-adv-x="465" 
d="M137 0v1432h191v-1432h-191zM96 1567l209 348h178l-281 -348h-106z" />
    <glyph glyph-name="Icircumflex" unicode="&#xce;" horiz-adv-x="465" 
d="M137 0v1432h191v-1432h-191zM-54 1567l197 348h178l197 -348h-107l-178 243l-180 -243h-107z" />
    <glyph glyph-name="Idieresis" unicode="&#xcf;" horiz-adv-x="465" 
d="M137 0v1432h191v-1432h-191zM309 1724q0 40 30 70.5t70 30.5q41 0 69.5 -30t28.5 -71q0 -42 -28 -71t-70 -29t-71 29t-29 71zM-41 1724q0 41 28.5 71t69.5 30q40 0 70 -30.5t30 -70.5q0 -42 -29 -71t-71 -29t-70 29t-28 71z" />
    <glyph glyph-name="Eth" unicode="&#xd0;" horiz-adv-x="1292" 
d="M395 174q7 0 23 -1t24 -1q259 0 420 142q168 150 168 405q0 264 -176 411q-164 136 -434 136q-29 0 -90 -5v-454h303v-119h-303v-688h-191v688h-129v119h129v625h246q166 0 285 -25q249 -52 402 -243.5t153 -446.5q0 -198 -94.5 -359.5t-266.5 -261.5q-165 -96 -469 -96
v174z" />
    <glyph glyph-name="Ntilde" unicode="&#xd1;" horiz-adv-x="1290" 
d="M311 0h-180v1239q0 209 156 209q105 0 174 -143l516 -1072v1199h182v-1244q0 -208 -151 -208q-110 0 -179 143l-518 1079v-1202zM936 1835q-50 -193 -199 -193q-35 0 -99.5 23t-98.5 23q-68 0 -97 -64h-88q45 186 199 186q36 0 100.5 -23.5t97.5 -23.5q70 0 97 72h88z
" />
    <glyph glyph-name="Ograve" unicode="&#xd2;" horiz-adv-x="1583" 
d="M66 717q0 304 211.5 521.5t515.5 217.5q302 0 513.5 -218t211.5 -521q0 -304 -210 -522q-213 -220 -515 -220q-305 0 -516 218t-211 524zM260 719q0 -228 151 -393q156 -170 382 -170q224 0 380 171q150 165 150 392q0 225 -151 391q-156 170 -379 170q-226 0 -382 -169
q-151 -164 -151 -392zM930 1567h-106l-281 348h178z" />
    <glyph glyph-name="Oacute" unicode="&#xd3;" horiz-adv-x="1583" 
d="M66 717q0 304 211.5 521.5t515.5 217.5q302 0 513.5 -218t211.5 -521q0 -304 -210 -522q-213 -220 -515 -220q-305 0 -516 218t-211 524zM260 719q0 -228 151 -393q156 -170 382 -170q224 0 380 171q150 165 150 392q0 225 -151 391q-156 170 -379 170q-226 0 -382 -169
q-151 -164 -151 -392zM656 1567l209 348h178l-281 -348h-106z" />
    <glyph glyph-name="Ocircumflex" unicode="&#xd4;" horiz-adv-x="1583" 
d="M66 717q0 304 211.5 521.5t515.5 217.5q302 0 513.5 -218t211.5 -521q0 -304 -210 -522q-213 -220 -515 -220q-305 0 -516 218t-211 524zM260 719q0 -228 151 -393q156 -170 382 -170q224 0 380 171q150 165 150 392q0 225 -151 391q-156 170 -379 170q-226 0 -382 -169
q-151 -164 -151 -392zM507 1517l197 348h178l197 -348h-107l-178 243l-180 -243h-107z" />
    <glyph glyph-name="Otilde" unicode="&#xd5;" horiz-adv-x="1583" 
d="M66 717q0 304 211.5 521.5t515.5 217.5q302 0 513.5 -218t211.5 -521q0 -304 -210 -522q-213 -220 -515 -220q-305 0 -516 218t-211 524zM260 719q0 -228 151 -393q156 -170 382 -170q224 0 380 171q150 165 150 392q0 225 -151 391q-156 170 -379 170q-226 0 -382 -169
q-151 -164 -151 -392zM1084 1835q-50 -193 -199 -193q-35 0 -99.5 23t-98.5 23q-68 0 -97 -64h-88q45 186 199 186q36 0 100.5 -23.5t97.5 -23.5q70 0 97 72h88z" />
    <glyph glyph-name="Odieresis" unicode="&#xd6;" horiz-adv-x="1583" 
d="M66 717q0 304 211.5 521.5t515.5 217.5q302 0 513.5 -218t211.5 -521q0 -304 -210 -522q-213 -220 -515 -220q-305 0 -516 218t-211 524zM260 719q0 -228 151 -393q156 -170 382 -170q224 0 380 171q150 165 150 392q0 225 -151 391q-156 170 -379 170q-226 0 -382 -169
q-151 -164 -151 -392zM869 1724q0 40 30 70.5t70 30.5q41 0 69.5 -30t28.5 -71q0 -42 -28 -71t-70 -29t-71 29t-29 71zM519 1724q0 41 28.5 71t69.5 30q40 0 70 -30.5t30 -70.5q0 -42 -29 -71t-71 -29t-70 29t-28 71z" />
    <glyph glyph-name="multiply" unicode="&#xd7;" horiz-adv-x="1706" 
d="M860 709l469 469l98 -99l-469 -469l469 -469l-98 -96l-469 467l-469 -467l-98 96l469 469l-469 469l98 99z" />
    <glyph glyph-name="Oslash" unicode="&#xd8;" horiz-adv-x="1583" 
d="M459 281q141 -123 336 -123q227 0 380 169q148 164 148 394q0 189 -113 342zM371 377l749 784q-145 119 -327 119q-226 0 -380 -167q-151 -162 -151 -390q0 -197 109 -346zM123 -72l-98 90l213 220q-170 208 -170 485q0 298 210.5 515.5t507.5 217.5q255 0 461 -164
l199 209l98 -90l-203 -211q177 -221 177 -483q0 -305 -208 -522q-211 -220 -515 -220q-257 0 -463 170z" />
    <glyph glyph-name="Ugrave" unicode="&#xd9;" horiz-adv-x="1229" 
d="M307 1432v-891q0 -385 307 -385q308 0 308 385v891h190v-900q0 -243 -125 -394q-135 -163 -373 -163t-372 163q-125 151 -125 394v900h190zM751 1567h-106l-281 348h178z" />
    <glyph glyph-name="Uacute" unicode="&#xda;" horiz-adv-x="1229" 
d="M307 1432v-891q0 -385 307 -385q308 0 308 385v891h190v-900q0 -243 -125 -394q-135 -163 -373 -163t-372 163q-125 151 -125 394v900h190zM477 1567l209 348h178l-281 -348h-106z" />
    <glyph glyph-name="Ucircumflex" unicode="&#xdb;" horiz-adv-x="1229" 
d="M307 1432v-891q0 -385 307 -385q308 0 308 385v891h190v-900q0 -243 -125 -394q-135 -163 -373 -163t-372 163q-125 151 -125 394v900h190zM327 1567l197 348h178l197 -348h-107l-178 243l-180 -243h-107z" />
    <glyph glyph-name="Udieresis" unicode="&#xdc;" horiz-adv-x="1229" 
d="M307 1432v-891q0 -385 307 -385q308 0 308 385v891h190v-900q0 -243 -125 -394q-135 -163 -373 -163t-372 163q-125 151 -125 394v900h190zM690 1724q0 40 30 70.5t70 30.5q41 0 69.5 -30t28.5 -71q0 -42 -28 -71t-70 -29t-71 29t-29 71zM340 1724q0 41 28.5 71t69.5 30
q40 0 70 -30.5t30 -70.5q0 -42 -29 -71t-71 -29t-70 29t-28 71z" />
    <glyph glyph-name="Yacute" unicode="&#xdd;" horiz-adv-x="1110" 
d="M461 0v549q-357 91 -357 493v390h191v-392q0 -325 260 -325t260 325v392h191v-390q0 -402 -357 -493v-549h-188zM418 1567l209 348h178l-281 -348h-106z" />
    <glyph glyph-name="Thorn" unicode="&#xde;" horiz-adv-x="1110" 
d="M117 1432h190v-295q120 116 293 116q198 0 330.5 -134.5t132.5 -332.5q0 -203 -140 -333q-136 -127 -341 -127h-203v180h178q137 0 221 73q90 77 90 212q0 123 -82 201.5t-206 78.5q-131 0 -206 -100q-67 -90 -67 -226v-745h-190v1432z" />
    <glyph glyph-name="germandbls" unicode="&#xdf;" horiz-adv-x="1147" 
d="M123 0v776h-117v166h117v115q0 183 97 287q100 108 282 108q140 0 240 -74q110 -81 110 -217q0 -180 -238 -293l148 -63q141 -60 225 -162q94 -113 94 -256q0 -200 -149 -300q-127 -87 -336 -87h-227v170h239q122 0 200 53q91 62 91 178q0 110 -100 190q-55 43 -198 109
q-183 84 -183 162q0 69 153 154q99 55 99 131q0 62 -52 100q-48 35 -112 35q-207 0 -207 -258v-1024h-176z" />
    <glyph glyph-name="agrave" unicode="&#xe0;" horiz-adv-x="1151" 
d="M870 0v489q0 148 -81 244q-86 101 -232 101q-143 0 -231 -99q-84 -94 -84 -239q0 -148 87 -245q90 -101 236 -101q127 0 246 90v-189q-118 -67 -266 -67q-207 0 -346 152q-136 148 -136 356q0 219 137 363t355 144q176 0 311.5 -108.5t168.5 -279.5q12 -66 12 -199v-412
h-177zM712 1096h-106l-281 348h178z" />
    <glyph glyph-name="aacute" unicode="&#xe1;" horiz-adv-x="1151" 
d="M870 0v489q0 148 -81 244q-86 101 -232 101q-143 0 -231 -99q-84 -94 -84 -239q0 -148 87 -245q90 -101 236 -101q127 0 246 90v-189q-118 -67 -266 -67q-207 0 -346 152q-136 148 -136 356q0 219 137 363t355 144q176 0 311.5 -108.5t168.5 -279.5q12 -66 12 -199v-412
h-177zM438 1096l209 348h178l-281 -348h-106z" />
    <glyph glyph-name="acircumflex" unicode="&#xe2;" horiz-adv-x="1151" 
d="M870 0v489q0 148 -81 244q-86 101 -232 101q-143 0 -231 -99q-84 -94 -84 -239q0 -148 87 -245q90 -101 236 -101q127 0 246 90v-189q-118 -67 -266 -67q-207 0 -346 152q-136 148 -136 356q0 219 137 363t355 144q176 0 311.5 -108.5t168.5 -279.5q12 -66 12 -199v-412
h-177zM288 1096l197 348h178l197 -348h-107l-178 243l-180 -243h-107z" />
    <glyph glyph-name="atilde" unicode="&#xe3;" horiz-adv-x="1151" 
d="M870 0v489q0 148 -81 244q-86 101 -232 101q-143 0 -231 -99q-84 -94 -84 -239q0 -148 87 -245q90 -101 236 -101q127 0 246 90v-189q-118 -67 -266 -67q-207 0 -346 152q-136 148 -136 356q0 219 137 363t355 144q176 0 311.5 -108.5t168.5 -279.5q12 -66 12 -199v-412
h-177zM866 1364q-50 -193 -199 -193q-35 0 -99.5 23t-98.5 23q-68 0 -97 -64h-88q45 186 199 186q36 0 100.5 -23.5t97.5 -23.5q70 0 97 72h88z" />
    <glyph glyph-name="adieresis" unicode="&#xe4;" horiz-adv-x="1151" 
d="M870 0v489q0 148 -81 244q-86 101 -232 101q-143 0 -231 -99q-84 -94 -84 -239q0 -148 87 -245q90 -101 236 -101q127 0 246 90v-189q-118 -67 -266 -67q-207 0 -346 152q-136 148 -136 356q0 219 137 363t355 144q176 0 311.5 -108.5t168.5 -279.5q12 -66 12 -199v-412
h-177zM651 1253q0 40 30 70.5t70 30.5q41 0 69.5 -30t28.5 -71q0 -42 -28 -71t-70 -29t-71 29t-29 71zM301 1253q0 41 28.5 71t69.5 30q40 0 70 -30.5t30 -70.5q0 -42 -29 -71t-71 -29t-70 29t-28 71z" />
    <glyph glyph-name="aring" unicode="&#xe5;" horiz-adv-x="1151" 
d="M350 1315q0 105 71.5 176.5t176.5 71.5t176.5 -71.5t71.5 -176.5t-71.5 -176.5t-176.5 -71.5t-176.5 71.5t-71.5 176.5zM455 1315q0 -60 41.5 -102t101.5 -42t100.5 42t40.5 102t-40.5 100.5t-100.5 40.5q-61 0 -102 -40t-41 -101zM870 0v489q0 148 -81 244
q-86 101 -232 101q-143 0 -231 -99q-84 -94 -84 -239q0 -148 87 -245q90 -101 236 -101q127 0 246 90v-189q-118 -67 -266 -67q-207 0 -346 152q-136 148 -136 356q0 219 137 363t355 144q176 0 311.5 -108.5t168.5 -279.5q12 -66 12 -199v-412h-177z" />
    <glyph glyph-name="ae" unicode="&#xe6;" horiz-adv-x="1804" 
d="M751 553q-520 -83 -520 -272q0 -68 58 -106q50 -32 121 -32q156 0 251 94t95 250q0 21 -5 66zM1745 434q-35 -204 -162 -326q-134 -128 -336 -128q-254 0 -407 223q-142 -223 -432 -223q-150 0 -250 75q-111 82 -111 228q0 308 647 426q-75 116 -248 116q-119 0 -299 -90
l-79 137q190 121 397 121q260 0 389 -205q145 211 395 211q165 0 284.5 -88t168.5 -245l-633 -265l-57 144l458 192q-89 99 -219 99q-138 0 -228 -103q-85 -99 -85 -239q0 -139 86 -238q90 -104 227 -104q133 0 218 90q78 83 98 219z" />
    <glyph glyph-name="ccedilla" unicode="&#xe7;" horiz-adv-x="786" 
d="M725 813h-76q-168 0 -278 -76q-127 -87 -127 -248q0 -160 127 -247q111 -76 278 -76h76v-166h-88q-246 0 -403 120q-173 133 -173 372q0 166 103 296t265 172q80 21 208 21h88v-168zM246 -424v88q164 -37 246 -37q121 0 121 84q0 100 -134 100q-24 0 -59 -3l57 276h74
l-41 -190q234 0 234 -177q0 -182 -248 -182q-92 0 -250 41z" />
    <glyph glyph-name="egrave" unicode="&#xe8;" horiz-adv-x="1110" 
d="M1051 434q-36 -202 -161 -324q-134 -130 -333 -130q-208 0 -353 153q-143 150 -143 359t145 359t353 150q308 0 457 -307l-643 -356l-74 133l477 266q-89 99 -219 99q-138 0 -228 -103q-85 -99 -85 -239q0 -139 86 -238q90 -104 227 -104q133 0 217 90q78 83 98 219z
M692 1096h-106l-281 348h178z" />
    <glyph glyph-name="eacute" unicode="&#xe9;" horiz-adv-x="1110" 
d="M1051 434q-36 -202 -161 -324q-134 -130 -333 -130q-208 0 -353 153q-143 150 -143 359t145 359t353 150q308 0 457 -307l-643 -356l-74 133l477 266q-89 99 -219 99q-138 0 -228 -103q-85 -99 -85 -239q0 -139 86 -238q90 -104 227 -104q133 0 217 90q78 83 98 219z
M418 1096l209 348h178l-281 -348h-106z" />
    <glyph glyph-name="ecircumflex" unicode="&#xea;" horiz-adv-x="1110" 
d="M1051 434q-36 -202 -161 -324q-134 -130 -333 -130q-208 0 -353 153q-143 150 -143 359t145 359t353 150q308 0 457 -307l-643 -356l-74 133l477 266q-89 99 -219 99q-138 0 -228 -103q-85 -99 -85 -239q0 -139 86 -238q90 -104 227 -104q133 0 217 90q78 83 98 219z
M268 1096l197 348h178l197 -348h-107l-178 243l-180 -243h-107z" />
    <glyph glyph-name="edieresis" unicode="&#xeb;" horiz-adv-x="1110" 
d="M1051 434q-36 -202 -161 -324q-134 -130 -333 -130q-208 0 -353 153q-143 150 -143 359t145 359t353 150q308 0 457 -307l-643 -356l-74 133l477 266q-89 99 -219 99q-138 0 -228 -103q-85 -99 -85 -239q0 -139 86 -238q90 -104 227 -104q133 0 217 90q78 83 98 219z
M631 1253q0 40 30 70.5t70 30.5q41 0 69.5 -30t28.5 -71q0 -42 -28 -71t-70 -29t-71 29t-29 71zM281 1253q0 41 28.5 71t69.5 30q40 0 70 -30.5t30 -70.5q0 -42 -29 -71t-71 -29t-70 29t-28 71z" />
    <glyph glyph-name="igrave" unicode="&#xec;" horiz-adv-x="418" 
d="M121 0v981h176v-981h-176zM346 1096h-106l-281 348h178z" />
    <glyph glyph-name="iacute" unicode="&#xed;" horiz-adv-x="418" 
d="M121 0v981h176v-981h-176zM72 1096l209 348h178l-281 -348h-106z" />
    <glyph glyph-name="icircumflex" unicode="&#xee;" horiz-adv-x="418" 
d="M121 0v981h176v-981h-176zM-78 1096l197 348h178l197 -348h-107l-178 243l-180 -243h-107z" />
    <glyph glyph-name="idieresis" unicode="&#xef;" horiz-adv-x="418" 
d="M121 0v981h176v-981h-176zM285 1253q0 40 30 70.5t70 30.5q41 0 69.5 -30t28.5 -71q0 -42 -28 -71t-70 -29t-71 29t-29 71zM-65 1253q0 41 28.5 71t69.5 30q40 0 70 -30.5t30 -70.5q0 -42 -29 -71t-71 -29t-70 29t-28 71z" />
    <glyph glyph-name="eth" unicode="&#xf0;" 
d="M702 795q-70 39 -145 39q-137 0 -227 -103q-86 -98 -86 -237t86 -238q90 -104 227 -104q141 0 227 102q80 96 80 240q0 118 -84 292l-184 381l-256 -106l-33 80l248 106l-100 185h198l60 -117l252 106l36 -84l-241 -100l147 -291q146 -289 146 -454q0 -211 -142 -359
q-144 -151 -354 -151t-354 151q-142 148 -142 359q0 138 63 249q64 115 178 186.5t243 71.5q33 0 61 -4z" />
    <glyph glyph-name="ntilde" unicode="&#xf1;" horiz-adv-x="1049" 
d="M106 0v535q0 204 105 330q113 134 313 134t312 -135q104 -125 104 -329v-535h-174v567q0 113 -64 186q-67 76 -178 76t-178 -77q-65 -73 -65 -185v-567h-175zM815 1364q-50 -193 -199 -193q-35 0 -99.5 23t-98.5 23q-68 0 -97 -64h-88q45 186 199 186q36 0 100.5 -23.5
t97.5 -23.5q70 0 97 72h88z" />
    <glyph glyph-name="ograve" unicode="&#xf2;" 
d="M244 494q0 -138 86 -238q91 -104 227 -104t227 104q86 100 86 238t-86 237q-91 103 -227 103t-226 -103q-87 -99 -87 -237zM61 492q0 207 144.5 357t351.5 150q209 0 352.5 -149t143.5 -358q0 -211 -142 -359q-144 -151 -354 -151q-208 0 -353 152q-143 149 -143 358z
M694 1096h-106l-281 348h178z" />
    <glyph glyph-name="oacute" unicode="&#xf3;" 
d="M244 494q0 -138 86 -238q91 -104 227 -104t227 104q86 100 86 238t-86 237q-91 103 -227 103t-226 -103q-87 -99 -87 -237zM61 492q0 207 144.5 357t351.5 150q209 0 352.5 -149t143.5 -358q0 -211 -142 -359q-144 -151 -354 -151q-208 0 -353 152q-143 149 -143 358z
M420 1096l209 348h178l-281 -348h-106z" />
    <glyph glyph-name="ocircumflex" unicode="&#xf4;" 
d="M244 494q0 -138 86 -238q91 -104 227 -104t227 104q86 100 86 238t-86 237q-91 103 -227 103t-226 -103q-87 -99 -87 -237zM61 492q0 207 144.5 357t351.5 150q209 0 352.5 -149t143.5 -358q0 -211 -142 -359q-144 -151 -354 -151q-208 0 -353 152q-143 149 -143 358z
M270 1096l197 348h178l197 -348h-107l-178 243l-180 -243h-107z" />
    <glyph glyph-name="otilde" unicode="&#xf5;" 
d="M244 494q0 -138 86 -238q91 -104 227 -104t227 104q86 100 86 238t-86 237q-91 103 -227 103t-226 -103q-87 -99 -87 -237zM61 492q0 207 144.5 357t351.5 150q209 0 352.5 -149t143.5 -358q0 -211 -142 -359q-144 -151 -354 -151q-208 0 -353 152q-143 149 -143 358z
M848 1364q-50 -193 -199 -193q-35 0 -99.5 23t-98.5 23q-68 0 -97 -64h-88q45 186 199 186q36 0 100.5 -23.5t97.5 -23.5q70 0 97 72h88z" />
    <glyph glyph-name="odieresis" unicode="&#xf6;" 
d="M244 494q0 -138 86 -238q91 -104 227 -104t227 104q86 100 86 238t-86 237q-91 103 -227 103t-226 -103q-87 -99 -87 -237zM61 492q0 207 144.5 357t351.5 150q209 0 352.5 -149t143.5 -358q0 -211 -142 -359q-144 -151 -354 -151q-208 0 -353 152q-143 149 -143 358z
M633 1253q0 40 30 70.5t70 30.5q41 0 69.5 -30t28.5 -71q0 -42 -28 -71t-70 -29t-71 29t-29 71zM283 1253q0 41 28.5 71t69.5 30q40 0 70 -30.5t30 -70.5q0 -42 -29 -71t-71 -29t-70 29t-28 71z" />
    <glyph glyph-name="divide" unicode="&#xf7;" horiz-adv-x="1706" 
d="M854 367q51 0 88 -37t37 -88q0 -52 -36.5 -88.5t-88.5 -36.5q-53 0 -89 36t-36 89q0 51 37 88t88 37zM1452 680v-139h-1198v139h1198zM854 1106q52 0 88.5 -37.5t36.5 -89.5t-36.5 -88.5t-88.5 -36.5t-88.5 36.5t-36.5 88.5t36.5 89.5t88.5 37.5z" />
    <glyph glyph-name="oslash" unicode="&#xf8;" 
d="M295 307l442 467q-86 62 -178 62q-134 0 -226 -104q-89 -100 -89 -236q0 -111 51 -189zM23 20l145 154q-107 141 -107 315q0 208 144.5 360t351.5 152q167 0 297 -106l139 145l88 -84l-139 -145q111 -145 111 -319q0 -222 -146.5 -366t-369.5 -144q-147 0 -283 104
l-143 -149zM819 682l-444 -467q77 -61 180 -61q141 0 230 101q85 96 85 239q0 102 -51 188z" />
    <glyph glyph-name="ugrave" unicode="&#xf9;" horiz-adv-x="1049" 
d="M940 981v-535q0 -204 -105 -330q-112 -134 -313 -134q-200 0 -312 135q-104 125 -104 329v535h175v-567q0 -112 65 -185q67 -77 178 -77t178 76q64 73 64 186v567h174zM661 1096h-106l-281 348h178z" />
    <glyph glyph-name="uacute" unicode="&#xfa;" horiz-adv-x="1049" 
d="M940 981v-535q0 -204 -105 -330q-112 -134 -313 -134q-200 0 -312 135q-104 125 -104 329v535h175v-567q0 -112 65 -185q67 -77 178 -77t178 76q64 73 64 186v567h174zM387 1096l209 348h178l-281 -348h-106z" />
    <glyph glyph-name="ucircumflex" unicode="&#xfb;" horiz-adv-x="1049" 
d="M940 981v-535q0 -204 -105 -330q-112 -134 -313 -134q-200 0 -312 135q-104 125 -104 329v535h175v-567q0 -112 65 -185q67 -77 178 -77t178 76q64 73 64 186v567h174zM237 1096l197 348h178l197 -348h-107l-178 243l-180 -243h-107z" />
    <glyph glyph-name="udieresis" unicode="&#xfc;" horiz-adv-x="1049" 
d="M940 981v-535q0 -204 -105 -330q-112 -134 -313 -134q-200 0 -312 135q-104 125 -104 329v535h175v-567q0 -112 65 -185q67 -77 178 -77t178 76q64 73 64 186v567h174zM600 1253q0 40 30 70.5t70 30.5q41 0 69.5 -30t28.5 -71q0 -42 -28 -71t-70 -29t-71 29t-29 71z
M250 1253q0 41 28.5 71t69.5 30q40 0 70 -30.5t30 -70.5q0 -42 -29 -71t-71 -29t-70 29t-28 71z" />
    <glyph glyph-name="yacute" unicode="&#xfd;" horiz-adv-x="1049" 
d="M940 981v-535q0 -375 -330 -456v-426h-176v426q-328 81 -328 456v535h175v-567q0 -112 65 -185q67 -77 178 -77t178 76q64 73 64 186v567h174zM387 1096l209 348h178l-281 -348h-106z" />
    <glyph glyph-name="thorn" unicode="&#xfe;" horiz-adv-x="1151" 
d="M104 1432h177v-553q122 120 317 120q217 0 356 -146q136 -143 136 -361q0 -208 -137 -356q-141 -152 -347 -152q-148 0 -266 67v189q117 -90 248 -90q148 0 237 100q86 96 86 246q0 145 -85 240q-89 98 -232 98q-146 0 -232 -101q-81 -96 -81 -244v-925h-177v1868z" />
    <glyph glyph-name="ydieresis" unicode="&#xff;" horiz-adv-x="1049" 
d="M940 981v-535q0 -375 -330 -456v-426h-176v426q-328 81 -328 456v535h175v-567q0 -112 65 -185q67 -77 178 -77t178 76q64 73 64 186v567h174zM600 1253q0 40 30 70.5t70 30.5q41 0 69.5 -30t28.5 -71q0 -42 -28 -71t-70 -29t-71 29t-29 71zM250 1253q0 41 28.5 71
t69.5 30q40 0 70 -30.5t30 -70.5q0 -42 -29 -71t-71 -29t-70 29t-28 71z" />
    <glyph glyph-name="glyph271" unicode="&#x102;" horiz-adv-x="1229" 
d="M922 0v657h-557v181h557v57q0 385 -308 385q-307 0 -307 -385v-895h-190v899q0 244 125 395q133 162 372 162t373 -162q125 -151 125 -395v-899h-190zM331 1822h89q13 -145 193 -145t193 145h90q-21 -270 -283 -270q-265 0 -282 270z" />
    <glyph glyph-name="glyph272" unicode="&#x103;" horiz-adv-x="1151" 
d="M870 0v489q0 148 -81 244q-86 101 -232 101q-143 0 -231 -99q-84 -94 -84 -239q0 -148 87 -245q90 -101 236 -101q127 0 246 90v-189q-118 -67 -266 -67q-207 0 -346 152q-136 148 -136 356q0 219 137 363t355 144q176 0 311.5 -108.5t168.5 -279.5q12 -66 12 -199v-412
h-177zM291 1405h89q13 -145 193 -145t193 145h90q-21 -270 -283 -270q-265 0 -282 270z" />
    <glyph glyph-name="Cacute" unicode="&#x106;" horiz-adv-x="1020" 
d="M958 1262q-26 2 -69 2q-275 0 -443 -133q-184 -146 -184 -414q0 -265 185 -413q168 -135 432 -135q39 0 79 3v-172h-55q-160 0 -280 25q-248 52 -401.5 244.5t-153.5 447.5q0 254 153.5 445.5t401.5 244.5q120 25 335 25v-170zM547 1567l209 348h178l-281 -348h-106z" />
    <glyph glyph-name="cacute" unicode="&#x107;" horiz-adv-x="786" 
d="M725 813h-76q-168 0 -278 -76q-127 -87 -127 -248q0 -160 127 -247q111 -76 278 -76h76v-166h-88q-246 0 -403 120q-173 133 -173 372q0 166 103 296t265 172q80 21 208 21h88v-168zM367 1096l209 348h178l-281 -348h-106z" />
    <glyph glyph-name="Ccaron" unicode="&#x10c;" horiz-adv-x="1020" 
d="M958 1262q-26 2 -69 2q-275 0 -443 -133q-184 -146 -184 -414q0 -265 185 -413q168 -135 432 -135q39 0 79 3v-172h-55q-160 0 -280 25q-248 52 -401.5 244.5t-153.5 447.5q0 254 153.5 445.5t401.5 244.5q120 25 335 25v-170zM397 1915h107l180 -242l178 242h107
l-197 -348h-178z" />
    <glyph glyph-name="ccaron" unicode="&#x10d;" horiz-adv-x="786" 
d="M725 813h-76q-168 0 -278 -76q-127 -87 -127 -248q0 -160 127 -247q111 -76 278 -76h76v-166h-88q-246 0 -403 120q-173 133 -173 372q0 166 103 296t265 172q80 21 208 21h88v-168zM217 1444h107l180 -242l178 242h107l-197 -348h-178z" />
    <glyph glyph-name="Dslash" unicode="&#x110;" horiz-adv-x="1292" 
d="M395 174q7 0 23 -1t24 -1q259 0 420 142q168 150 168 405q0 264 -176 411q-164 136 -434 136q-29 0 -90 -5v-454h303v-119h-303v-688h-191v688h-129v119h129v625h246q166 0 285 -25q249 -52 402 -243.5t153 -446.5q0 -198 -94.5 -359.5t-266.5 -261.5q-165 -96 -469 -96
v174z" />
    <glyph glyph-name="dcroat" unicode="&#x111;" horiz-adv-x="1161" 
d="M1051 1432v-168h100v-97h-100v-673q0 -220 -135 -364q-139 -148 -357 -148q-217 0 -357 147q-136 144 -136 363q0 209 136 355q140 150 347 150q146 0 266 -67v-189q-122 90 -246 90q-147 0 -237 -101q-86 -97 -86 -245q0 -145 84 -239q88 -99 231 -99q145 0 231 102
q82 96 82 243v675h-327v97h327v168h177z" />
    <glyph glyph-name="Gbreve" unicode="&#x11e;" horiz-adv-x="1583" 
d="M829 817h687v-49q0 -235 -84 -401q-94 -185 -263 -288.5t-376 -103.5q-302 0 -516 221q-211 218 -211 521q0 313 216.5 526t530.5 213q315 0 569 -258l-127 -129q-209 213 -448 213q-234 0 -390.5 -164t-156.5 -399q0 -228 151 -393q156 -170 382 -170q212 0 355 136
q137 131 165 345h-484v180zM511 1876h89q13 -145 193 -145t193 145h90q-21 -270 -283 -270q-265 0 -282 270z" />
    <glyph glyph-name="gbreve" unicode="&#x11f;" horiz-adv-x="1151" 
d="M1047 57q0 -237 -132 -374q-134 -140 -370 -140q-139 0 -309 56l38 168q170 -56 275 -56q152 0 237 90q84 87 84 240v448q0 148 -81 244q-86 101 -232 101q-143 0 -231 -99q-84 -94 -84 -239q0 -148 87 -245q90 -101 236 -101q127 0 246 90v-189q-118 -67 -266 -67
q-207 0 -346 152q-136 148 -136 356q0 219 137.5 363t354.5 144q176 0 311.5 -108.5t168.5 -279.5q12 -66 12 -199v-355zM293 1405h89q13 -145 193 -145t193 145h90q-21 -270 -283 -270q-265 0 -282 270z" />
    <glyph glyph-name="glyph273" unicode="&#x128;" horiz-adv-x="465" 
d="M137 0v1432h191v-1432h-191zM524 1835q-50 -193 -199 -193q-35 0 -99.5 23t-98.5 23q-68 0 -97 -64h-88q45 186 199 186q36 0 100.5 -23.5t97.5 -23.5q70 0 97 72h88z" />
    <glyph glyph-name="glyph274" unicode="&#x129;" horiz-adv-x="418" 
d="M121 0v981h176v-981h-176zM508 1364q-50 -193 -199 -193q-35 0 -99.5 23t-98.5 23q-68 0 -97 -64h-88q45 186 199 186q36 0 100.5 -23.5t97.5 -23.5q70 0 97 72h88z" />
    <glyph glyph-name="Idotaccent" unicode="&#x130;" horiz-adv-x="465" 
d="M137 0v1432h191v-1432h-191zM133 1741q0 40 30 69t70 29t70 -29t30 -69q0 -43 -28.5 -72t-71.5 -29t-71.5 29t-28.5 72z" />
    <glyph glyph-name="dotlessi" unicode="&#x131;" horiz-adv-x="418" 
d="M121 0v981h176v-981h-176z" />
    <glyph glyph-name="Lslash" unicode="&#x141;" horiz-adv-x="858" 
d="M127 604l-117 -80v140l117 86v682h190v-576l277 195v-146l-277 -192v-244q0 -293 283 -293h262v-176h-229q-506 0 -506 500v104z" />
    <glyph glyph-name="lslash" unicode="&#x142;" horiz-adv-x="436" 
d="M129 0v627l-119 -80v115l119 83v687h178v-592l119 80v-117l-119 -80v-723h-178z" />
    <glyph glyph-name="OE" unicode="&#x152;" horiz-adv-x="2290" 
d="M2207 174l1 -174h-25q-271 0 -437 66q-205 81 -329 286q-214 -377 -626 -377q-303 0 -514 219t-211 523q0 303 211.5 521t513.5 218q406 0 628 -379q203 357 717 357q51 0 72 -3v-169q-28 2 -70 2q-524 0 -616 -441h686v-170h-695q37 -247 209 -370q155 -112 404 -112
q39 0 81 3zM260 719q0 -228 151 -393q156 -170 382 -170q224 0 380 171q150 165 150 392q0 225 -151 391q-156 170 -379 170q-226 0 -382 -169q-151 -164 -151 -392z" />
    <glyph glyph-name="oe" unicode="&#x153;" horiz-adv-x="1911" 
d="M1851 434q-35 -203 -160 -325q-133 -129 -333 -129q-240 0 -400 215q-164 -215 -401 -215q-209 0 -352.5 151t-143.5 361q0 209 143.5 358t352.5 149q244 0 401 -215q158 215 385 215q322 0 474 -305l-641 -356l-76 133l477 266q-89 97 -219 97q-139 0 -228 -102
q-86 -97 -86 -238q0 -139 86 -238q91 -104 228 -104q133 0 217 90q78 83 98 219zM244 494q0 -138 86 -238q91 -104 227 -104t227 104q86 100 86 238t-86 237q-91 103 -227 103t-226 -103q-87 -99 -87 -237z" />
    <glyph glyph-name="Scedilla" unicode="&#x15e;" horiz-adv-x="1075" 
d="M72 0v190h489q238 0 238 181q0 83 -74 147q-42 36 -147 90l-240 123q-260 133 -260 354q0 177 136 268q117 79 302 79h414v-189h-477q-76 0 -125 -37q-54 -40 -54 -114q0 -60 42 -107t204 -129l209 -106q268 -136 268 -369q0 -197 -143 -296q-124 -85 -330 -85h-452z
M326 -424v88q164 -37 246 -37q121 0 121 84q0 100 -134 100q-24 0 -59 -3l57 276h74l-41 -190q234 0 234 -177q0 -182 -248 -182q-92 0 -250 41z" />
    <glyph glyph-name="scedilla" unicode="&#x15f;" horiz-adv-x="887" 
d="M72 168h424q137 0 137 94q0 68 -131 121q-97 39 -193 78q-131 58 -179 113q-56 63 -56 159q0 248 329 248h363v-164h-410q-106 0 -106 -84q0 -58 108 -102q103 -42 206 -83q143 -64 194 -120q57 -64 57 -160q0 -268 -412 -268h-331v168zM231 -424v88q164 -37 246 -37
q121 0 121 84q0 100 -134 100q-24 0 -59 -3l57 276h74l-41 -190q234 0 234 -177q0 -182 -248 -182q-92 0 -250 41z" />
    <glyph glyph-name="Scaron" unicode="&#x160;" horiz-adv-x="1075" 
d="M72 0v190h489q238 0 238 181q0 83 -74 147q-42 36 -147 90l-240 123q-260 133 -260 354q0 177 136 268q117 79 302 79h414v-189h-477q-76 0 -125 -37q-54 -40 -54 -114q0 -60 42 -107t204 -129l209 -106q268 -136 268 -369q0 -197 -143 -296q-124 -85 -330 -85h-452z
M252 1915h107l180 -242l178 242h107l-197 -348h-178z" />
    <glyph glyph-name="scaron" unicode="&#x161;" horiz-adv-x="887" 
d="M72 168h424q137 0 137 94q0 68 -131 121q-97 39 -193 78q-131 58 -179 113q-56 63 -56 159q0 248 329 248h363v-164h-410q-106 0 -106 -84q0 -58 108 -102q103 -42 206 -83q143 -64 194 -120q57 -64 57 -160q0 -268 -412 -268h-331v168zM157 1444h107l180 -242l178 242
h107l-197 -348h-178z" />
    <glyph glyph-name="glyph275" unicode="&#x168;" horiz-adv-x="1229" 
d="M307 1432v-891q0 -385 307 -385q308 0 308 385v891h190v-900q0 -243 -125 -394q-135 -163 -373 -163t-372 163q-125 151 -125 394v900h190zM914 1835q-50 -193 -199 -193q-35 0 -99.5 23t-98.5 23q-68 0 -97 -64h-88q45 186 199 186q36 0 100.5 -23.5t97.5 -23.5
q70 0 97 72h88z" />
    <glyph glyph-name="glyph276" unicode="&#x169;" horiz-adv-x="1049" 
d="M940 981v-535q0 -204 -105 -330q-112 -134 -313 -134q-200 0 -312 135q-104 125 -104 329v535h175v-567q0 -112 65 -185q67 -77 178 -77t178 76q64 73 64 186v567h174zM818 1364q-50 -193 -199 -193q-35 0 -99.5 23t-98.5 23q-68 0 -97 -64h-88q45 186 199 186
q36 0 100.5 -23.5t97.5 -23.5q70 0 97 72h88z" />
    <glyph glyph-name="Ydieresis" unicode="&#x178;" horiz-adv-x="1110" 
d="M461 0v549q-357 91 -357 493v390h191v-392q0 -325 260 -325t260 325v392h191v-390q0 -402 -357 -493v-549h-188zM631 1724q0 40 30 70.5t70 30.5q41 0 69.5 -30t28.5 -71q0 -42 -28 -71t-70 -29t-71 29t-29 71zM281 1724q0 41 28.5 71t69.5 30q40 0 70 -30.5t30 -70.5
q0 -42 -29 -71t-71 -29t-70 29t-28 71z" />
    <glyph glyph-name="Zcaron" unicode="&#x17d;" horiz-adv-x="1020" 
d="M985 180v-180h-743q-209 0 -209 160q0 66 110 219l631 876h-661v177h645q209 0 209 -160q0 -68 -109 -219l-629 -873h756zM223 1915h107l180 -242l178 242h107l-197 -348h-178z" />
    <glyph glyph-name="zcaron" unicode="&#x17e;" horiz-adv-x="854" 
d="M621 981q182 0 182 -121q0 -61 -58 -127l-495 -565h557v-168h-588q-174 0 -174 131q0 55 72 137l479 547h-512v166h537zM141 1444h107l180 -242l178 242h107l-197 -348h-178z" />
    <glyph glyph-name="florin" unicode="&#x192;" 
d="M158 -436h-246v170h229q105 0 129 129l160 854h-256v170h283l65 293q60 270 287 270h209v-170h-178q-101 0 -129 -129l-58 -264h277v-170h-305l-164 -883q-50 -270 -303 -270z" />
    <glyph glyph-name="glyph277" unicode="&#x1a0;" horiz-adv-x="1583" 
d="M66 717q0 304 211.5 521.5t515.5 217.5q302 0 513.5 -218t211.5 -521q0 -304 -210 -522q-213 -220 -515 -220q-305 0 -516 218t-211 524zM260 719q0 -228 151 -393q156 -170 382 -170q224 0 380 171q150 165 150 392q0 225 -151 391q-156 170 -379 170q-226 0 -382 -169
q-151 -164 -151 -392zM1208 1177l162 371h171l-201 -371h-132z" />
    <glyph glyph-name="glyph278" unicode="&#x1a1;" 
d="M244 494q0 -138 86 -238q91 -104 227 -104t227 104q86 100 86 238t-86 237q-91 103 -227 103t-226 -103q-87 -99 -87 -237zM61 492q0 207 144.5 357t351.5 150q209 0 352.5 -149t143.5 -358q0 -211 -142 -359q-144 -151 -354 -151q-208 0 -353 152q-143 149 -143 358z
M825 718l162 371h171l-201 -371h-132z" />
    <glyph glyph-name="glyph279" unicode="&#x1af;" horiz-adv-x="1277" 
d="M307 1432v-891q0 -385 307 -385q308 0 308 385v891h190v-900q0 -243 -125 -394q-135 -163 -373 -163t-372 163q-125 151 -125 394v900h190zM1000 1177l162 371h171l-201 -371h-132z" />
    <glyph glyph-name="glyph280" unicode="&#x1b0;" horiz-adv-x="1099" 
d="M940 981v-535q0 -204 -105 -330q-112 -134 -313 -134q-200 0 -312 135q-104 125 -104 329v535h175v-567q0 -112 65 -185q67 -77 178 -77t178 76q64 73 64 186v567h174zM825 718l162 371h171l-201 -371h-132z" />
    <glyph glyph-name="circumflex" unicode="&#x2c6;" horiz-adv-x="1024" 
d="M225 1096l197 348h178l197 -348h-107l-178 243l-180 -243h-107z" />
    <glyph glyph-name="caron" unicode="&#x2c7;" horiz-adv-x="1024" 
d="M225 1444h107l180 -242l178 242h107l-197 -348h-178z" />
    <glyph glyph-name="breve" unicode="&#x2d8;" horiz-adv-x="1024" 
d="M229 1405h89q13 -145 193 -145t193 145h90q-21 -270 -283 -270q-265 0 -282 270z" />
    <glyph glyph-name="dotaccent" unicode="&#x2d9;" horiz-adv-x="1024" 
d="M412 1270q0 40 30 69t70 29t70 -29t30 -69q0 -43 -28.5 -72t-71.5 -29t-71.5 29t-28.5 72z" />
    <glyph glyph-name="ring" unicode="&#x2da;" horiz-adv-x="1024" 
d="M371 1339q0 -60 40.5 -101.5t100.5 -41.5t101.5 41.5t41.5 101.5t-41.5 102t-101.5 42q-61 0 -101 -41.5t-40 -102.5zM264 1339q0 105 71.5 176.5t176.5 71.5t176.5 -71.5t71.5 -176.5t-71.5 -176t-176.5 -71t-176.5 71t-71.5 176z" />
    <glyph glyph-name="ogonek" unicode="&#x2db;" horiz-adv-x="1024" 
d="M614 0q-135 -123 -135 -223q0 -67 60 -80q10 -2 116 -2v-129h-77q-224 0 -224 164q0 120 189 270h71z" />
    <glyph glyph-name="tilde" unicode="&#x2dc;" horiz-adv-x="1024" 
d="M803 1364q-50 -193 -199 -193q-35 0 -99.5 23t-98.5 23q-68 0 -97 -64h-88q45 186 199 186q36 0 100.5 -23.5t97.5 -23.5q70 0 97 72h88z" />
    <glyph glyph-name="hungarumlaut" unicode="&#x2dd;" horiz-adv-x="1024" 
d="M580 1112l168 348h155l-239 -348h-84zM322 1112l147 348h158l-221 -348h-84z" />
    <glyph glyph-name="Delta" unicode="&#x394;" horiz-adv-x="1370" 
d="M684 1262l-418 -1084h836zM573 1473h224l579 -1473h-1382z" />
    <glyph glyph-name="Delta" unicode="&#x2206;" horiz-adv-x="1370" 
d="M684 1262l-418 -1084h836zM573 1473h224l579 -1473h-1382z" />
    <glyph glyph-name="Omega" unicode="&#x3a9;" horiz-adv-x="1565" 
d="M1487 178v-178h-600v178q178 97 276.5 263t98.5 368q0 230 -123 375q-131 155 -357 155t-357 -155q-124 -145 -124 -375q0 -202 99.5 -368t277.5 -263v-178h-600v178h319q-303 266 -303 621q0 314 186 511q190 201 502 201q307 0 499 -198q189 -196 189 -504
q0 -199 -76 -351q-71 -143 -227 -280h320z" />
    <glyph glyph-name="Omega" unicode="&#x2126;" horiz-adv-x="1565" 
d="M1487 178v-178h-600v178q178 97 276.5 263t98.5 368q0 230 -123 375q-131 155 -357 155t-357 -155q-124 -145 -124 -375q0 -202 99.5 -368t277.5 -263v-178h-600v178h319q-303 266 -303 621q0 314 186 511q190 201 502 201q307 0 499 -198q189 -196 189 -504
q0 -199 -76 -351q-71 -143 -227 -280h320z" />
    <glyph glyph-name="pi" unicode="&#x3c0;" horiz-adv-x="1206" 
d="M1159 913h-182l-105 -487q-30 -139 -30 -188q0 -107 102 -107q26 0 100 10l-30 -141q-60 -16 -111 -16q-239 0 -239 202q0 92 55 351l80 376h-326l-194 -913h-181l195 913h-41q-106 0 -123 -133h-160q28 164 99.5 227.5t236.5 63.5h889z" />
    <glyph glyph-name="glyph281" unicode="&#x1ea0;" horiz-adv-x="1229" 
d="M922 0v657h-557v181h557v57q0 385 -308 385q-307 0 -307 -385v-895h-190v899q0 244 125 395q133 162 372 162t373 -162q125 -151 125 -395v-899h-190zM496 -262q0 51 34 85t85 34q50 0 84 -34.5t34 -84.5q0 -49 -34.5 -82.5t-83.5 -33.5t-84 33.5t-35 82.5z" />
    <glyph glyph-name="glyph282" unicode="&#x1ea1;" horiz-adv-x="1151" 
d="M870 0v489q0 148 -81 244q-86 101 -232 101q-143 0 -231 -99q-84 -94 -84 -239q0 -148 87 -245q90 -101 236 -101q127 0 246 90v-189q-118 -67 -266 -67q-207 0 -346 152q-136 148 -136 356q0 219 137 363t355 144q176 0 311.5 -108.5t168.5 -279.5q12 -66 12 -199v-412
h-177zM458 -262q0 51 34 85t85 34q50 0 84 -34.5t34 -84.5q0 -49 -34.5 -82.5t-83.5 -33.5t-84 33.5t-35 82.5z" />
    <glyph glyph-name="glyph283" unicode="&#x1ea2;" horiz-adv-x="1229" 
d="M922 0v657h-557v181h557v57q0 385 -308 385q-307 0 -307 -385v-895h-190v899q0 244 125 395q133 162 372 162t373 -162q125 -151 125 -395v-899h-190zM432 1776q0 76 60.5 133.5t137.5 57.5q79 0 139 -58.5t60 -137.5q0 -69 -45 -119.5t-118 -66.5v-67h-88v155
q57 0 99 23q48 28 48 75q0 40 -28 69t-68 29q-87 0 -98 -93h-99z" />
    <glyph glyph-name="glyph284" unicode="&#x1ea3;" horiz-adv-x="1151" 
d="M870 0v489q0 148 -81 244q-86 101 -232 101q-143 0 -231 -99q-84 -94 -84 -239q0 -148 87 -245q90 -101 236 -101q127 0 246 90v-189q-118 -67 -266 -67q-207 0 -346 152q-136 148 -136 356q0 219 137 363t355 144q176 0 311.5 -108.5t168.5 -279.5q12 -66 12 -199v-412
h-177zM381 1333q0 76 60.5 133.5t137.5 57.5q79 0 139 -58.5t60 -137.5q0 -69 -45 -119.5t-118 -66.5v-67h-88v155q57 0 99 23q48 28 48 75q0 40 -28 69t-68 29q-87 0 -98 -93h-99z" />
    <glyph glyph-name="glyph285" unicode="&#x1ea4;" horiz-adv-x="1229" 
d="M922 0v657h-557v181h557v57q0 385 -308 385q-307 0 -307 -385v-895h-190v899q0 244 125 395q133 162 372 162t373 -162q125 -151 125 -395v-899h-190zM327 1517l197 348h178l197 -348h-107l-178 243l-180 -243h-107zM369 1891l209 348h178l-281 -348h-106z" />
    <glyph glyph-name="glyph286" unicode="&#x1ea5;" horiz-adv-x="1151" 
d="M870 0v489q0 148 -81 244q-86 101 -232 101q-143 0 -231 -99q-84 -94 -84 -239q0 -148 87 -245q90 -101 236 -101q127 0 246 90v-189q-118 -67 -266 -67q-207 0 -346 152q-136 148 -136 356q0 219 137 363t355 144q176 0 311.5 -108.5t168.5 -279.5q12 -66 12 -199v-412
h-177zM288 1096l197 348h178l197 -348h-107l-178 243l-180 -243h-107zM330 1469l209 348h178l-281 -348h-106z" />
    <glyph glyph-name="glyph287" unicode="&#x1ea6;" horiz-adv-x="1229" 
d="M922 0v657h-557v181h557v57q0 385 -308 385q-307 0 -307 -385v-895h-190v899q0 244 125 395q133 162 372 162t373 -162q125 -151 125 -395v-899h-190zM327 1517l197 348h178l197 -348h-107l-178 243l-180 -243h-107zM862 1891h-106l-281 348h178z" />
    <glyph glyph-name="glyph288" unicode="&#x1ea7;" horiz-adv-x="1151" 
d="M870 0v489q0 148 -81 244q-86 101 -232 101q-143 0 -231 -99q-84 -94 -84 -239q0 -148 87 -245q90 -101 236 -101q127 0 246 90v-189q-118 -67 -266 -67q-207 0 -346 152q-136 148 -136 356q0 219 137 363t355 144q176 0 311.5 -108.5t168.5 -279.5q12 -66 12 -199v-412
h-177zM288 1096l197 348h178l197 -348h-107l-178 243l-180 -243h-107zM823 1470h-106l-281 348h178z" />
    <glyph glyph-name="glyph289" unicode="&#x1ea8;" horiz-adv-x="1229" 
d="M922 0v657h-557v181h557v57q0 385 -308 385q-307 0 -307 -385v-895h-190v899q0 244 125 395q133 162 372 162t373 -162q125 -151 125 -395v-899h-190zM327 1517l197 348h178l197 -348h-107l-178 243l-180 -243h-107zM670 2085q0 76 60.5 133.5t137.5 57.5q79 0 139 -58.5
t60 -137.5q0 -69 -45 -119.5t-118 -66.5v-67h-88v155q57 0 99 23q48 28 48 75q0 40 -28 69t-68 29q-87 0 -98 -93h-99z" />
    <glyph glyph-name="glyph290" unicode="&#x1ea9;" horiz-adv-x="1151" 
d="M870 0v489q0 148 -81 244q-86 101 -232 101q-143 0 -231 -99q-84 -94 -84 -239q0 -148 87 -245q90 -101 236 -101q127 0 246 90v-189q-118 -67 -266 -67q-207 0 -346 152q-136 148 -136 356q0 219 137 363t355 144q176 0 311.5 -108.5t168.5 -279.5q12 -66 12 -199v-412
h-177zM288 1096l197 348h178l197 -348h-107l-178 243l-180 -243h-107zM631 1664q0 76 60.5 133.5t137.5 57.5q79 0 139 -58.5t60 -137.5q0 -69 -45 -119.5t-118 -66.5v-67h-88v155q57 0 99 23q48 28 48 75q0 40 -28 69t-68 29q-87 0 -98 -93h-99z" />
    <glyph glyph-name="glyph291" unicode="&#x1eaa;" horiz-adv-x="1229" 
d="M922 0v657h-557v181h557v57q0 385 -308 385q-307 0 -307 -385v-895h-190v899q0 244 125 395q133 162 372 162t373 -162q125 -151 125 -395v-899h-190zM327 1517l197 348h178l197 -348h-107l-178 243l-180 -243h-107zM970 2152q-50 -193 -199 -193q-35 0 -99.5 23
t-98.5 23q-68 0 -97 -64h-88q45 186 199 186q36 0 100.5 -23.5t97.5 -23.5q70 0 97 72h88z" />
    <glyph glyph-name="glyph292" unicode="&#x1eab;" horiz-adv-x="1151" 
d="M870 0v489q0 148 -81 244q-86 101 -232 101q-143 0 -231 -99q-84 -94 -84 -239q0 -148 87 -245q90 -101 236 -101q127 0 246 90v-189q-118 -67 -266 -67q-207 0 -346 152q-136 148 -136 356q0 219 137 363t355 144q176 0 311.5 -108.5t168.5 -279.5q12 -66 12 -199v-412
h-177zM288 1096l197 348h178l197 -348h-107l-178 243l-180 -243h-107zM931 1732q-50 -193 -199 -193q-35 0 -99.5 23t-98.5 23q-68 0 -97 -64h-88q45 186 199 186q36 0 100.5 -23.5t97.5 -23.5q70 0 97 72h88z" />
    <glyph glyph-name="glyph293" unicode="&#x1eac;" horiz-adv-x="1229" 
d="M922 0v657h-557v181h557v57q0 385 -308 385q-307 0 -307 -385v-895h-190v899q0 244 125 395q133 162 372 162t373 -162q125 -151 125 -395v-899h-190zM327 1517l197 348h178l197 -348h-107l-178 243l-180 -243h-107zM496 -262q0 51 34 85t85 34q50 0 84 -34.5t34 -84.5
q0 -49 -34.5 -82.5t-83.5 -33.5t-84 33.5t-35 82.5z" />
    <glyph glyph-name="glyph294" unicode="&#x1ead;" horiz-adv-x="1151" 
d="M870 0v489q0 148 -81 244q-86 101 -232 101q-143 0 -231 -99q-84 -94 -84 -239q0 -148 87 -245q90 -101 236 -101q127 0 246 90v-189q-118 -67 -266 -67q-207 0 -346 152q-136 148 -136 356q0 219 137 363t355 144q176 0 311.5 -108.5t168.5 -279.5q12 -66 12 -199v-412
h-177zM288 1096l197 348h178l197 -348h-107l-178 243l-180 -243h-107zM458 -262q0 51 34 85t85 34q50 0 84 -34.5t34 -84.5q0 -49 -34.5 -82.5t-83.5 -33.5t-84 33.5t-35 82.5z" />
    <glyph glyph-name="glyph295" unicode="&#x1eae;" horiz-adv-x="1229" 
d="M922 0v657h-557v181h557v57q0 385 -308 385q-307 0 -307 -385v-895h-190v899q0 244 125 395q133 162 372 162t373 -162q125 -151 125 -395v-899h-190zM331 1822h89q13 -145 193 -145t193 145h90q-21 -270 -283 -270q-265 0 -282 270zM490 1886l209 348h178l-281 -348
h-106z" />
    <glyph glyph-name="glyph296" unicode="&#x1eaf;" horiz-adv-x="1151" 
d="M870 0v489q0 148 -81 244q-86 101 -232 101q-143 0 -231 -99q-84 -94 -84 -239q0 -148 87 -245q90 -101 236 -101q127 0 246 90v-189q-118 -67 -266 -67q-207 0 -346 152q-136 148 -136 356q0 219 137 363t355 144q176 0 311.5 -108.5t168.5 -279.5q12 -66 12 -199v-412
h-177zM291 1405h89q13 -145 193 -145t193 145h90q-21 -270 -283 -270q-265 0 -282 270zM450 1469l209 348h178l-281 -348h-106z" />
    <glyph glyph-name="glyph297" unicode="&#x1eb0;" horiz-adv-x="1229" 
d="M922 0v657h-557v181h557v57q0 385 -308 385q-307 0 -307 -385v-895h-190v899q0 244 125 395q133 162 372 162t373 -162q125 -151 125 -395v-899h-190zM331 1822h89q13 -145 193 -145t193 145h90q-21 -270 -283 -270q-265 0 -282 270zM743 1886h-106l-281 348h178z" />
    <glyph glyph-name="glyph298" unicode="&#x1eb1;" horiz-adv-x="1151" 
d="M870 0v489q0 148 -81 244q-86 101 -232 101q-143 0 -231 -99q-84 -94 -84 -239q0 -148 87 -245q90 -101 236 -101q127 0 246 90v-189q-118 -67 -266 -67q-207 0 -346 152q-136 148 -136 356q0 219 137 363t355 144q176 0 311.5 -108.5t168.5 -279.5q12 -66 12 -199v-412
h-177zM291 1405h89q13 -145 193 -145t193 145h90q-21 -270 -283 -270q-265 0 -282 270zM703 1470h-106l-281 348h178z" />
    <glyph glyph-name="glyph299" unicode="&#x1eb2;" horiz-adv-x="1229" 
d="M922 0v657h-557v181h557v57q0 385 -308 385q-307 0 -307 -385v-895h-190v899q0 244 125 395q133 162 372 162t373 -162q125 -151 125 -395v-899h-190zM331 1822h89q13 -145 193 -145t193 145h90q-21 -270 -283 -270q-265 0 -282 270zM423 2081q0 76 60.5 133.5
t137.5 57.5q79 0 139 -58.5t60 -137.5q0 -69 -45 -119.5t-118 -66.5v-67h-88v155q57 0 99 23q48 28 48 75q0 40 -28 69t-68 29q-87 0 -98 -93h-99z" />
    <glyph glyph-name="glyph300" unicode="&#x1eb3;" horiz-adv-x="1151" 
d="M870 0v489q0 148 -81 244q-86 101 -232 101q-143 0 -231 -99q-84 -94 -84 -239q0 -148 87 -245q90 -101 236 -101q127 0 246 90v-189q-118 -67 -266 -67q-207 0 -346 152q-136 148 -136 356q0 219 137 363t355 144q176 0 311.5 -108.5t168.5 -279.5q12 -66 12 -199v-412
h-177zM291 1405h89q13 -145 193 -145t193 145h90q-21 -270 -283 -270q-265 0 -282 270zM383 1664q0 76 60.5 133.5t137.5 57.5q79 0 139 -58.5t60 -137.5q0 -69 -45 -119.5t-118 -66.5v-67h-88v155q57 0 99 23q48 28 48 75q0 40 -28 69t-68 29q-87 0 -98 -93h-99z" />
    <glyph glyph-name="glyph301" unicode="&#x1eb4;" horiz-adv-x="1229" 
d="M922 0v657h-557v181h557v57q0 385 -308 385q-307 0 -307 -385v-895h-190v899q0 244 125 395q133 162 372 162t373 -162q125 -151 125 -395v-899h-190zM331 1822h89q13 -145 193 -145t193 145h90q-21 -270 -283 -270q-265 0 -282 270zM918 2149q-50 -193 -199 -193
q-35 0 -99.5 23t-98.5 23q-68 0 -97 -64h-88q45 186 199 186q36 0 100.5 -23.5t97.5 -23.5q70 0 97 72h88z" />
    <glyph glyph-name="glyph302" unicode="&#x1eb5;" horiz-adv-x="1151" 
d="M870 0v489q0 148 -81 244q-86 101 -232 101q-143 0 -231 -99q-84 -94 -84 -239q0 -148 87 -245q90 -101 236 -101q127 0 246 90v-189q-118 -67 -266 -67q-207 0 -346 152q-136 148 -136 356q0 219 137 363t355 144q176 0 311.5 -108.5t168.5 -279.5q12 -66 12 -199v-412
h-177zM291 1405h89q13 -145 193 -145t193 145h90q-21 -270 -283 -270q-265 0 -282 270zM878 1732q-50 -193 -199 -193q-35 0 -99.5 23t-98.5 23q-68 0 -97 -64h-88q45 186 199 186q36 0 100.5 -23.5t97.5 -23.5q70 0 97 72h88z" />
    <glyph glyph-name="glyph303" unicode="&#x1eb6;" horiz-adv-x="1229" 
d="M922 0v657h-557v181h557v57q0 385 -308 385q-307 0 -307 -385v-895h-190v899q0 244 125 395q133 162 372 162t373 -162q125 -151 125 -395v-899h-190zM331 1822h89q13 -145 193 -145t193 145h90q-21 -270 -283 -270q-265 0 -282 270zM496 -262q0 51 34 85t85 34
q50 0 84 -34.5t34 -84.5q0 -49 -34.5 -82.5t-83.5 -33.5t-84 33.5t-35 82.5z" />
    <glyph glyph-name="glyph304" unicode="&#x1eb7;" horiz-adv-x="1151" 
d="M870 0v489q0 148 -81 244q-86 101 -232 101q-143 0 -231 -99q-84 -94 -84 -239q0 -148 87 -245q90 -101 236 -101q127 0 246 90v-189q-118 -67 -266 -67q-207 0 -346 152q-136 148 -136 356q0 219 137 363t355 144q176 0 311.5 -108.5t168.5 -279.5q12 -66 12 -199v-412
h-177zM291 1405h89q13 -145 193 -145t193 145h90q-21 -270 -283 -270q-265 0 -282 270zM458 -262q0 51 34 85t85 34q50 0 84 -34.5t34 -84.5q0 -49 -34.5 -82.5t-83.5 -33.5t-84 33.5t-35 82.5z" />
    <glyph glyph-name="glyph305" unicode="&#x1eb8;" horiz-adv-x="1040" 
d="M958 1262q-24 2 -63 2q-531 0 -621 -441h684v-170h-694q73 -481 623 -481q47 0 71 2v-174h-55q-318 0 -483 100q-352 214 -352 617q0 254 153.5 445.5t401.5 244.5q120 25 335 25v-170zM565 -262q0 51 34 85t85 34q50 0 84 -34.5t34 -84.5q0 -49 -34.5 -82.5t-83.5 -33.5
t-84 33.5t-35 82.5z" />
    <glyph glyph-name="glyph306" unicode="&#x1eb9;" horiz-adv-x="1110" 
d="M1051 434q-36 -202 -161 -324q-134 -130 -333 -130q-208 0 -353 153q-143 150 -143 359t145 359t353 150q308 0 457 -307l-643 -356l-74 133l477 266q-89 99 -219 99q-138 0 -228 -103q-85 -99 -85 -239q0 -139 86 -238q90 -104 227 -104q133 0 217 90q78 83 98 219z
M438 -262q0 51 34 85t85 34q50 0 84 -34.5t34 -84.5q0 -49 -34.5 -82.5t-83.5 -33.5t-84 33.5t-35 82.5z" />
    <glyph glyph-name="glyph307" unicode="&#x1eba;" horiz-adv-x="1040" 
d="M958 1262q-24 2 -63 2q-531 0 -621 -441h684v-170h-694q73 -481 623 -481q47 0 71 2v-174h-55q-318 0 -483 100q-352 214 -352 617q0 254 153.5 445.5t401.5 244.5q120 25 335 25v-170zM562 1776q0 76 60.5 133.5t137.5 57.5q79 0 139 -58.5t60 -137.5q0 -69 -45 -119.5
t-118 -66.5v-67h-88v155q57 0 99 23q48 28 48 75q0 40 -28 69t-68 29q-87 0 -98 -93h-99z" />
    <glyph glyph-name="glyph308" unicode="&#x1ebb;" horiz-adv-x="1110" 
d="M1051 434q-36 -202 -161 -324q-134 -130 -333 -130q-208 0 -353 153q-143 150 -143 359t145 359t353 150q308 0 457 -307l-643 -356l-74 133l477 266q-89 99 -219 99q-138 0 -228 -103q-85 -99 -85 -239q0 -139 86 -238q90 -104 227 -104q133 0 217 90q78 83 98 219z
M377 1333q0 76 60.5 133.5t137.5 57.5q79 0 139 -58.5t60 -137.5q0 -69 -45 -119.5t-118 -66.5v-67h-88v155q57 0 99 23q48 28 48 75q0 40 -28 69t-68 29q-87 0 -98 -93h-99z" />
    <glyph glyph-name="glyph309" unicode="&#x1ebc;" horiz-adv-x="1040" 
d="M958 1262q-24 2 -63 2q-531 0 -621 -441h684v-170h-694q73 -481 623 -481q47 0 71 2v-174h-55q-318 0 -483 100q-352 214 -352 617q0 254 153.5 445.5t401.5 244.5q120 25 335 25v-170zM964 1835q-50 -193 -199 -193q-35 0 -99.5 23t-98.5 23q-68 0 -97 -64h-88
q45 186 199 186q36 0 100.5 -23.5t97.5 -23.5q70 0 97 72h88z" />
    <glyph glyph-name="glyph310" unicode="&#x1ebd;" horiz-adv-x="1110" 
d="M1051 434q-36 -202 -161 -324q-134 -130 -333 -130q-208 0 -353 153q-143 150 -143 359t145 359t353 150q308 0 457 -307l-643 -356l-74 133l477 266q-89 99 -219 99q-138 0 -228 -103q-85 -99 -85 -239q0 -139 86 -238q90 -104 227 -104q133 0 217 90q78 83 98 219z
M848 1364q-50 -193 -199 -193q-35 0 -99.5 23t-98.5 23q-68 0 -97 -64h-88q45 186 199 186q36 0 100.5 -23.5t97.5 -23.5q70 0 97 72h88z" />
    <glyph glyph-name="glyph311" unicode="&#x1ebe;" horiz-adv-x="1040" 
d="M958 1262q-24 2 -63 2q-531 0 -621 -441h684v-170h-694q73 -481 623 -481q47 0 71 2v-174h-55q-318 0 -483 100q-352 214 -352 617q0 254 153.5 445.5t401.5 244.5q120 25 335 25v-170zM397 1517l197 348h178l197 -348h-107l-178 243l-180 -243h-107zM439 1891l209 348
h178l-281 -348h-106z" />
    <glyph glyph-name="glyph312" unicode="&#x1ebf;" horiz-adv-x="1110" 
d="M1051 434q-36 -202 -161 -324q-134 -130 -333 -130q-208 0 -353 153q-143 150 -143 359t145 359t353 150q308 0 457 -307l-643 -356l-74 133l477 266q-89 99 -219 99q-138 0 -228 -103q-85 -99 -85 -239q0 -139 86 -238q90 -104 227 -104q133 0 217 90q78 83 98 219z
M268 1096l197 348h178l197 -348h-107l-178 243l-180 -243h-107zM310 1469l209 348h178l-281 -348h-106z" />
    <glyph glyph-name="glyph313" unicode="&#x1ec0;" horiz-adv-x="1040" 
d="M958 1262q-24 2 -63 2q-531 0 -621 -441h684v-170h-694q73 -481 623 -481q47 0 71 2v-174h-55q-318 0 -483 100q-352 214 -352 617q0 254 153.5 445.5t401.5 244.5q120 25 335 25v-170zM397 1517l197 348h178l197 -348h-107l-178 243l-180 -243h-107zM932 1891h-106
l-281 348h178z" />
    <glyph glyph-name="glyph314" unicode="&#x1ec1;" horiz-adv-x="1110" 
d="M1051 434q-36 -202 -161 -324q-134 -130 -333 -130q-208 0 -353 153q-143 150 -143 359t145 359t353 150q308 0 457 -307l-643 -356l-74 133l477 266q-89 99 -219 99q-138 0 -228 -103q-85 -99 -85 -239q0 -139 86 -238q90 -104 227 -104q133 0 217 90q78 83 98 219z
M268 1096l197 348h178l197 -348h-107l-178 243l-180 -243h-107zM803 1470h-106l-281 348h178z" />
    <glyph glyph-name="glyph315" unicode="&#x1ec2;" horiz-adv-x="1040" 
d="M958 1262q-24 2 -63 2q-531 0 -621 -441h684v-170h-694q73 -481 623 -481q47 0 71 2v-174h-55q-318 0 -483 100q-352 214 -352 617q0 254 153.5 445.5t401.5 244.5q120 25 335 25v-170zM397 1517l197 348h178l197 -348h-107l-178 243l-180 -243h-107zM740 2085
q0 76 60.5 133.5t137.5 57.5q79 0 139 -58.5t60 -137.5q0 -69 -45 -119.5t-118 -66.5v-67h-88v155q57 0 99 23q48 28 48 75q0 40 -28 69t-68 29q-87 0 -98 -93h-99z" />
    <glyph glyph-name="glyph316" unicode="&#x1ec3;" horiz-adv-x="1110" 
d="M1051 434q-36 -202 -161 -324q-134 -130 -333 -130q-208 0 -353 153q-143 150 -143 359t145 359t353 150q308 0 457 -307l-643 -356l-74 133l477 266q-89 99 -219 99q-138 0 -228 -103q-85 -99 -85 -239q0 -139 86 -238q90 -104 227 -104q133 0 217 90q78 83 98 219z
M268 1096l197 348h178l197 -348h-107l-178 243l-180 -243h-107zM611 1664q0 76 60.5 133.5t137.5 57.5q79 0 139 -58.5t60 -137.5q0 -69 -45 -119.5t-118 -66.5v-67h-88v155q57 0 99 23q48 28 48 75q0 40 -28 69t-68 29q-87 0 -98 -93h-99z" />
    <glyph glyph-name="glyph317" unicode="&#x1ec4;" horiz-adv-x="1040" 
d="M958 1262q-24 2 -63 2q-531 0 -621 -441h684v-170h-694q73 -481 623 -481q47 0 71 2v-174h-55q-318 0 -483 100q-352 214 -352 617q0 254 153.5 445.5t401.5 244.5q120 25 335 25v-170zM397 1517l197 348h178l197 -348h-107l-178 243l-180 -243h-107zM1040 2152
q-50 -193 -199 -193q-35 0 -99.5 23t-98.5 23q-68 0 -97 -64h-88q45 186 199 186q36 0 100.5 -23.5t97.5 -23.5q70 0 97 72h88z" />
    <glyph glyph-name="glyph318" unicode="&#x1ec5;" horiz-adv-x="1110" 
d="M1051 434q-36 -202 -161 -324q-134 -130 -333 -130q-208 0 -353 153q-143 150 -143 359t145 359t353 150q308 0 457 -307l-643 -356l-74 133l477 266q-89 99 -219 99q-138 0 -228 -103q-85 -99 -85 -239q0 -139 86 -238q90 -104 227 -104q133 0 217 90q78 83 98 219z
M268 1096l197 348h178l197 -348h-107l-178 243l-180 -243h-107zM911 1732q-50 -193 -199 -193q-35 0 -99.5 23t-98.5 23q-68 0 -97 -64h-88q45 186 199 186q36 0 100.5 -23.5t97.5 -23.5q70 0 97 72h88z" />
    <glyph glyph-name="glyph319" unicode="&#x1ec6;" horiz-adv-x="1040" 
d="M958 1262q-24 2 -63 2q-531 0 -621 -441h684v-170h-694q73 -481 623 -481q47 0 71 2v-174h-55q-318 0 -483 100q-352 214 -352 617q0 254 153.5 445.5t401.5 244.5q120 25 335 25v-170zM397 1517l197 348h178l197 -348h-107l-178 243l-180 -243h-107zM565 -262
q0 51 34 85t85 34q50 0 84 -34.5t34 -84.5q0 -49 -34.5 -82.5t-83.5 -33.5t-84 33.5t-35 82.5z" />
    <glyph glyph-name="glyph320" unicode="&#x1ec7;" horiz-adv-x="1110" 
d="M1051 434q-36 -202 -161 -324q-134 -130 -333 -130q-208 0 -353 153q-143 150 -143 359t145 359t353 150q308 0 457 -307l-643 -356l-74 133l477 266q-89 99 -219 99q-138 0 -228 -103q-85 -99 -85 -239q0 -139 86 -238q90 -104 227 -104q133 0 217 90q78 83 98 219z
M268 1096l197 348h178l197 -348h-107l-178 243l-180 -243h-107zM438 -262q0 51 34 85t85 34q50 0 84 -34.5t34 -84.5q0 -49 -34.5 -82.5t-83.5 -33.5t-84 33.5t-35 82.5z" />
    <glyph glyph-name="glyph321" unicode="&#x1ec8;" horiz-adv-x="465" 
d="M137 0v1432h191v-1432h-191zM47 1776q0 76 60.5 133.5t137.5 57.5q79 0 139 -58.5t60 -137.5q0 -69 -45 -119.5t-118 -66.5v-67h-88v155q57 0 99 23q48 28 48 75q0 40 -28 69t-68 29q-87 0 -98 -93h-99z" />
    <glyph glyph-name="glyph322" unicode="&#x1ec9;" horiz-adv-x="418" 
d="M121 0v981h176v-981h-176zM21 1333q0 76 60.5 133.5t137.5 57.5q79 0 139 -58.5t60 -137.5q0 -69 -45 -119.5t-118 -66.5v-67h-88v155q57 0 99 23q48 28 48 75q0 40 -28 69t-68 29q-87 0 -98 -93h-99z" />
    <glyph glyph-name="glyph323" unicode="&#x1eca;" horiz-adv-x="465" 
d="M137 0v1432h191v-1432h-191zM117 -262q0 51 34 85t85 34q50 0 84 -34.5t34 -84.5q0 -49 -34.5 -82.5t-83.5 -33.5t-84 33.5t-35 82.5z" />
    <glyph glyph-name="glyph324" unicode="&#x1ecb;" horiz-adv-x="418" 
d="M121 0v981h176v-981h-176zM102 1260q0 45 31 75.5t76 30.5t75.5 -30.5t30.5 -75.5q0 -46 -30 -77.5t-76 -31.5q-45 0 -76 32t-31 77zM91 -262q0 51 34 85t85 34q50 0 84 -34.5t34 -84.5q0 -49 -34.5 -82.5t-83.5 -33.5t-84 33.5t-35 82.5z" />
    <glyph glyph-name="glyph325" unicode="&#x1ecc;" horiz-adv-x="1583" 
d="M66 717q0 304 211.5 521.5t515.5 217.5q302 0 513.5 -218t211.5 -521q0 -304 -210 -522q-213 -220 -515 -220q-305 0 -516 218t-211 524zM260 719q0 -228 151 -393q156 -170 382 -170q224 0 380 171q150 165 150 392q0 225 -151 391q-156 170 -379 170q-226 0 -382 -169
q-151 -164 -151 -392zM673 -262q0 51 34 85t85 34q50 0 84 -34.5t34 -84.5q0 -49 -34.5 -82.5t-83.5 -33.5t-84 33.5t-35 82.5z" />
    <glyph glyph-name="glyph326" unicode="&#x1ecd;" 
d="M244 494q0 -138 86 -238q91 -104 227 -104t227 104q86 100 86 238t-86 237q-91 103 -227 103t-226 -103q-87 -99 -87 -237zM61 492q0 207 144.5 357t351.5 150q209 0 352.5 -149t143.5 -358q0 -211 -142 -359q-144 -151 -354 -151q-208 0 -353 152q-143 149 -143 358z
M438 -262q0 51 34 85t85 34q50 0 84 -34.5t34 -84.5q0 -49 -34.5 -82.5t-83.5 -33.5t-84 33.5t-35 82.5z" />
    <glyph glyph-name="glyph327" unicode="&#x1ece;" horiz-adv-x="1583" 
d="M66 717q0 304 211.5 521.5t515.5 217.5q302 0 513.5 -218t211.5 -521q0 -304 -210 -522q-213 -220 -515 -220q-305 0 -516 218t-211 524zM260 719q0 -228 151 -393q156 -170 382 -170q224 0 380 171q150 165 150 392q0 225 -151 391q-156 170 -379 170q-226 0 -382 -169
q-151 -164 -151 -392zM612 1776q0 76 60.5 133.5t137.5 57.5q79 0 139 -58.5t60 -137.5q0 -69 -45 -119.5t-118 -66.5v-67h-88v155q57 0 99 23q48 28 48 75q0 40 -28 69t-68 29q-87 0 -98 -93h-99z" />
    <glyph glyph-name="glyph328" unicode="&#x1ecf;" 
d="M244 494q0 -138 86 -238q91 -104 227 -104t227 104q86 100 86 238t-86 237q-91 103 -227 103t-226 -103q-87 -99 -87 -237zM61 492q0 207 144.5 357t351.5 150q209 0 352.5 -149t143.5 -358q0 -211 -142 -359q-144 -151 -354 -151q-208 0 -353 152q-143 149 -143 358z
M381 1333q0 76 60.5 133.5t137.5 57.5q79 0 139 -58.5t60 -137.5q0 -69 -45 -119.5t-118 -66.5v-67h-88v155q57 0 99 23q48 28 48 75q0 40 -28 69t-68 29q-87 0 -98 -93h-99z" />
    <glyph glyph-name="glyph329" unicode="&#x1ed0;" horiz-adv-x="1583" 
d="M66 717q0 304 211.5 521.5t515.5 217.5q302 0 513.5 -218t211.5 -521q0 -304 -210 -522q-213 -220 -515 -220q-305 0 -516 218t-211 524zM260 719q0 -228 151 -393q156 -170 382 -170q224 0 380 171q150 165 150 392q0 225 -151 391q-156 170 -379 170q-226 0 -382 -169
q-151 -164 -151 -392zM507 1517l197 348h178l197 -348h-107l-178 243l-180 -243h-107zM549 1891l209 348h178l-281 -348h-106z" />
    <glyph glyph-name="glyph330" unicode="&#x1ed1;" 
d="M244 494q0 -138 86 -238q91 -104 227 -104t227 104q86 100 86 238t-86 237q-91 103 -227 103t-226 -103q-87 -99 -87 -237zM61 492q0 207 144.5 357t351.5 150q209 0 352.5 -149t143.5 -358q0 -211 -142 -359q-144 -151 -354 -151q-208 0 -353 152q-143 149 -143 358z
M270 1096l197 348h178l197 -348h-107l-178 243l-180 -243h-107zM312 1469l209 348h178l-281 -348h-106z" />
    <glyph glyph-name="glyph331" unicode="&#x1ed2;" horiz-adv-x="1583" 
d="M66 717q0 304 211.5 521.5t515.5 217.5q302 0 513.5 -218t211.5 -521q0 -304 -210 -522q-213 -220 -515 -220q-305 0 -516 218t-211 524zM260 719q0 -228 151 -393q156 -170 382 -170q224 0 380 171q150 165 150 392q0 225 -151 391q-156 170 -379 170q-226 0 -382 -169
q-151 -164 -151 -392zM507 1517l197 348h178l197 -348h-107l-178 243l-180 -243h-107zM1042 1891h-106l-281 348h178z" />
    <glyph glyph-name="glyph332" unicode="&#x1ed3;" 
d="M244 494q0 -138 86 -238q91 -104 227 -104t227 104q86 100 86 238t-86 237q-91 103 -227 103t-226 -103q-87 -99 -87 -237zM61 492q0 207 144.5 357t351.5 150q209 0 352.5 -149t143.5 -358q0 -211 -142 -359q-144 -151 -354 -151q-208 0 -353 152q-143 149 -143 358z
M270 1096l197 348h178l197 -348h-107l-178 243l-180 -243h-107zM805 1470h-106l-281 348h178z" />
    <glyph glyph-name="glyph333" unicode="&#x1ed4;" horiz-adv-x="1583" 
d="M66 717q0 304 211.5 521.5t515.5 217.5q302 0 513.5 -218t211.5 -521q0 -304 -210 -522q-213 -220 -515 -220q-305 0 -516 218t-211 524zM260 719q0 -228 151 -393q156 -170 382 -170q224 0 380 171q150 165 150 392q0 225 -151 391q-156 170 -379 170q-226 0 -382 -169
q-151 -164 -151 -392zM507 1517l197 348h178l197 -348h-107l-178 243l-180 -243h-107zM850 2085q0 76 60.5 133.5t137.5 57.5q79 0 139 -58.5t60 -137.5q0 -69 -45 -119.5t-118 -66.5v-67h-88v155q57 0 99 23q48 28 48 75q0 40 -28 69t-68 29q-87 0 -98 -93h-99z" />
    <glyph glyph-name="glyph334" unicode="&#x1ed5;" 
d="M244 494q0 -138 86 -238q91 -104 227 -104t227 104q86 100 86 238t-86 237q-91 103 -227 103t-226 -103q-87 -99 -87 -237zM61 492q0 207 144.5 357t351.5 150q209 0 352.5 -149t143.5 -358q0 -211 -142 -359q-144 -151 -354 -151q-208 0 -353 152q-143 149 -143 358z
M270 1096l197 348h178l197 -348h-107l-178 243l-180 -243h-107zM613 1664q0 76 60.5 133.5t137.5 57.5q79 0 139 -58.5t60 -137.5q0 -69 -45 -119.5t-118 -66.5v-67h-88v155q57 0 99 23q48 28 48 75q0 40 -28 69t-68 29q-87 0 -98 -93h-99z" />
    <glyph glyph-name="glyph335" unicode="&#x1ed6;" horiz-adv-x="1583" 
d="M66 717q0 304 211.5 521.5t515.5 217.5q302 0 513.5 -218t211.5 -521q0 -304 -210 -522q-213 -220 -515 -220q-305 0 -516 218t-211 524zM260 719q0 -228 151 -393q156 -170 382 -170q224 0 380 171q150 165 150 392q0 225 -151 391q-156 170 -379 170q-226 0 -382 -169
q-151 -164 -151 -392zM507 1517l197 348h178l197 -348h-107l-178 243l-180 -243h-107zM1150 2152q-50 -193 -199 -193q-35 0 -99.5 23t-98.5 23q-68 0 -97 -64h-88q45 186 199 186q36 0 100.5 -23.5t97.5 -23.5q70 0 97 72h88z" />
    <glyph glyph-name="glyph336" unicode="&#x1ed7;" 
d="M244 494q0 -138 86 -238q91 -104 227 -104t227 104q86 100 86 238t-86 237q-91 103 -227 103t-226 -103q-87 -99 -87 -237zM61 492q0 207 144.5 357t351.5 150q209 0 352.5 -149t143.5 -358q0 -211 -142 -359q-144 -151 -354 -151q-208 0 -353 152q-143 149 -143 358z
M270 1096l197 348h178l197 -348h-107l-178 243l-180 -243h-107zM913 1732q-50 -193 -199 -193q-35 0 -99.5 23t-98.5 23q-68 0 -97 -64h-88q45 186 199 186q36 0 100.5 -23.5t97.5 -23.5q70 0 97 72h88z" />
    <glyph glyph-name="glyph337" unicode="&#x1ed8;" horiz-adv-x="1583" 
d="M66 717q0 304 211.5 521.5t515.5 217.5q302 0 513.5 -218t211.5 -521q0 -304 -210 -522q-213 -220 -515 -220q-305 0 -516 218t-211 524zM260 719q0 -228 151 -393q156 -170 382 -170q224 0 380 171q150 165 150 392q0 225 -151 391q-156 170 -379 170q-226 0 -382 -169
q-151 -164 -151 -392zM507 1517l197 348h178l197 -348h-107l-178 243l-180 -243h-107zM673 -262q0 51 34 85t85 34q50 0 84 -34.5t34 -84.5q0 -49 -34.5 -82.5t-83.5 -33.5t-84 33.5t-35 82.5z" />
    <glyph glyph-name="glyph338" unicode="&#x1ed9;" 
d="M244 494q0 -138 86 -238q91 -104 227 -104t227 104q86 100 86 238t-86 237q-91 103 -227 103t-226 -103q-87 -99 -87 -237zM61 492q0 207 144.5 357t351.5 150q209 0 352.5 -149t143.5 -358q0 -211 -142 -359q-144 -151 -354 -151q-208 0 -353 152q-143 149 -143 358z
M270 1096l197 348h178l197 -348h-107l-178 243l-180 -243h-107zM438 -262q0 51 34 85t85 34q50 0 84 -34.5t34 -84.5q0 -49 -34.5 -82.5t-83.5 -33.5t-84 33.5t-35 82.5z" />
    <glyph glyph-name="glyph339" unicode="&#x1eda;" horiz-adv-x="1583" 
d="M66 717q0 304 211.5 521.5t515.5 217.5q302 0 513.5 -218t211.5 -521q0 -304 -210 -522q-213 -220 -515 -220q-305 0 -516 218t-211 524zM260 719q0 -228 151 -393q156 -170 382 -170q224 0 380 171q150 165 150 392q0 225 -151 391q-156 170 -379 170q-226 0 -382 -169
q-151 -164 -151 -392zM1208 1177l162 371h171l-201 -371h-132zM656 1567l209 348h178l-281 -348h-106z" />
    <glyph glyph-name="glyph340" unicode="&#x1edb;" 
d="M244 494q0 -138 86 -238q91 -104 227 -104t227 104q86 100 86 238t-86 237q-91 103 -227 103t-226 -103q-87 -99 -87 -237zM61 492q0 207 144.5 357t351.5 150q209 0 352.5 -149t143.5 -358q0 -211 -142 -359q-144 -151 -354 -151q-208 0 -353 152q-143 149 -143 358z
M825 718l162 371h171l-201 -371h-132zM420 1096l209 348h178l-281 -348h-106z" />
    <glyph glyph-name="glyph341" unicode="&#x1edc;" horiz-adv-x="1583" 
d="M66 717q0 304 211.5 521.5t515.5 217.5q302 0 513.5 -218t211.5 -521q0 -304 -210 -522q-213 -220 -515 -220q-305 0 -516 218t-211 524zM260 719q0 -228 151 -393q156 -170 382 -170q224 0 380 171q150 165 150 392q0 225 -151 391q-156 170 -379 170q-226 0 -382 -169
q-151 -164 -151 -392zM1208 1177l162 371h171l-201 -371h-132zM930 1567h-106l-281 348h178z" />
    <glyph glyph-name="glyph342" unicode="&#x1edd;" 
d="M244 494q0 -138 86 -238q91 -104 227 -104t227 104q86 100 86 238t-86 237q-91 103 -227 103t-226 -103q-87 -99 -87 -237zM61 492q0 207 144.5 357t351.5 150q209 0 352.5 -149t143.5 -358q0 -211 -142 -359q-144 -151 -354 -151q-208 0 -353 152q-143 149 -143 358z
M825 718l162 371h171l-201 -371h-132zM694 1096h-106l-281 348h178z" />
    <glyph glyph-name="glyph343" unicode="&#x1ede;" horiz-adv-x="1583" 
d="M66 717q0 304 211.5 521.5t515.5 217.5q302 0 513.5 -218t211.5 -521q0 -304 -210 -522q-213 -220 -515 -220q-305 0 -516 218t-211 524zM260 719q0 -228 151 -393q156 -170 382 -170q224 0 380 171q150 165 150 392q0 225 -151 391q-156 170 -379 170q-226 0 -382 -169
q-151 -164 -151 -392zM1208 1177l162 371h171l-201 -371h-132zM612 1776q0 76 60.5 133.5t137.5 57.5q79 0 139 -58.5t60 -137.5q0 -69 -45 -119.5t-118 -66.5v-67h-88v155q57 0 99 23q48 28 48 75q0 40 -28 69t-68 29q-87 0 -98 -93h-99z" />
    <glyph glyph-name="glyph344" unicode="&#x1edf;" 
d="M244 494q0 -138 86 -238q91 -104 227 -104t227 104q86 100 86 238t-86 237q-91 103 -227 103t-226 -103q-87 -99 -87 -237zM61 492q0 207 144.5 357t351.5 150q209 0 352.5 -149t143.5 -358q0 -211 -142 -359q-144 -151 -354 -151q-208 0 -353 152q-143 149 -143 358z
M825 718l162 371h171l-201 -371h-132zM381 1333q0 76 60.5 133.5t137.5 57.5q79 0 139 -58.5t60 -137.5q0 -69 -45 -119.5t-118 -66.5v-67h-88v155q57 0 99 23q48 28 48 75q0 40 -28 69t-68 29q-87 0 -98 -93h-99z" />
    <glyph glyph-name="glyph345" unicode="&#x1ee0;" horiz-adv-x="1583" 
d="M66 717q0 304 211.5 521.5t515.5 217.5q302 0 513.5 -218t211.5 -521q0 -304 -210 -522q-213 -220 -515 -220q-305 0 -516 218t-211 524zM260 719q0 -228 151 -393q156 -170 382 -170q224 0 380 171q150 165 150 392q0 225 -151 391q-156 170 -379 170q-226 0 -382 -169
q-151 -164 -151 -392zM1208 1177l162 371h171l-201 -371h-132zM1084 1835q-50 -193 -199 -193q-35 0 -99.5 23t-98.5 23q-68 0 -97 -64h-88q45 186 199 186q36 0 100.5 -23.5t97.5 -23.5q70 0 97 72h88z" />
    <glyph glyph-name="glyph346" unicode="&#x1ee1;" 
d="M244 494q0 -138 86 -238q91 -104 227 -104t227 104q86 100 86 238t-86 237q-91 103 -227 103t-226 -103q-87 -99 -87 -237zM61 492q0 207 144.5 357t351.5 150q209 0 352.5 -149t143.5 -358q0 -211 -142 -359q-144 -151 -354 -151q-208 0 -353 152q-143 149 -143 358z
M825 718l162 371h171l-201 -371h-132zM848 1364q-50 -193 -199 -193q-35 0 -99.5 23t-98.5 23q-68 0 -97 -64h-88q45 186 199 186q36 0 100.5 -23.5t97.5 -23.5q70 0 97 72h88z" />
    <glyph glyph-name="glyph347" unicode="&#x1ee2;" horiz-adv-x="1583" 
d="M66 717q0 304 211.5 521.5t515.5 217.5q302 0 513.5 -218t211.5 -521q0 -304 -210 -522q-213 -220 -515 -220q-305 0 -516 218t-211 524zM260 719q0 -228 151 -393q156 -170 382 -170q224 0 380 171q150 165 150 392q0 225 -151 391q-156 170 -379 170q-226 0 -382 -169
q-151 -164 -151 -392zM1208 1177l162 371h171l-201 -371h-132zM673 -262q0 51 34 85t85 34q50 0 84 -34.5t34 -84.5q0 -49 -34.5 -82.5t-83.5 -33.5t-84 33.5t-35 82.5z" />
    <glyph glyph-name="glyph348" unicode="&#x1ee3;" 
d="M244 494q0 -138 86 -238q91 -104 227 -104t227 104q86 100 86 238t-86 237q-91 103 -227 103t-226 -103q-87 -99 -87 -237zM61 492q0 207 144.5 357t351.5 150q209 0 352.5 -149t143.5 -358q0 -211 -142 -359q-144 -151 -354 -151q-208 0 -353 152q-143 149 -143 358z
M825 718l162 371h171l-201 -371h-132zM438 -262q0 51 34 85t85 34q50 0 84 -34.5t34 -84.5q0 -49 -34.5 -82.5t-83.5 -33.5t-84 33.5t-35 82.5z" />
    <glyph glyph-name="glyph349" unicode="&#x1ee4;" horiz-adv-x="1229" 
d="M307 1432v-891q0 -385 307 -385q308 0 308 385v891h190v-900q0 -243 -125 -394q-135 -163 -373 -163t-372 163q-125 151 -125 394v900h190zM496 -262q0 51 34 85t85 34q50 0 84 -34.5t34 -84.5q0 -49 -34.5 -82.5t-83.5 -33.5t-84 33.5t-35 82.5z" />
    <glyph glyph-name="glyph350" unicode="&#x1ee5;" horiz-adv-x="1049" 
d="M940 981v-535q0 -204 -105 -330q-112 -134 -313 -134q-200 0 -312 135q-104 125 -104 329v535h175v-567q0 -112 65 -185q67 -77 178 -77t178 76q64 73 64 186v567h174zM408 -262q0 51 34 85t85 34q50 0 84 -34.5t34 -84.5q0 -49 -34.5 -82.5t-83.5 -33.5t-84 33.5
t-35 82.5z" />
    <glyph glyph-name="glyph351" unicode="&#x1ee6;" horiz-adv-x="1229" 
d="M307 1432v-891q0 -385 307 -385q308 0 308 385v891h190v-900q0 -243 -125 -394q-135 -163 -373 -163t-372 163q-125 151 -125 394v900h190zM428 1776q0 76 60.5 133.5t137.5 57.5q79 0 139 -58.5t60 -137.5q0 -69 -45 -119.5t-118 -66.5v-67h-88v155q57 0 99 23
q48 28 48 75q0 40 -28 69t-68 29q-87 0 -98 -93h-99z" />
    <glyph glyph-name="glyph352" unicode="&#x1ee7;" horiz-adv-x="1049" 
d="M940 981v-535q0 -204 -105 -330q-112 -134 -313 -134q-200 0 -312 135q-104 125 -104 329v535h175v-567q0 -112 65 -185q67 -77 178 -77t178 76q64 73 64 186v567h174zM336 1333q0 76 60.5 133.5t137.5 57.5q79 0 139 -58.5t60 -137.5q0 -69 -45 -119.5t-118 -66.5v-67
h-88v155q57 0 99 23q48 28 48 75q0 40 -28 69t-68 29q-87 0 -98 -93h-99z" />
    <glyph glyph-name="glyph353" unicode="&#x1ee8;" horiz-adv-x="1277" 
d="M307 1432v-891q0 -385 307 -385q308 0 308 385v891h190v-900q0 -243 -125 -394q-135 -163 -373 -163t-372 163q-125 151 -125 394v900h190zM1000 1177l162 371h171l-201 -371h-132zM477 1567l209 348h178l-281 -348h-106z" />
    <glyph glyph-name="glyph354" unicode="&#x1ee9;" horiz-adv-x="1099" 
d="M940 981v-535q0 -204 -105 -330q-112 -134 -313 -134q-200 0 -312 135q-104 125 -104 329v535h175v-567q0 -112 65 -185q67 -77 178 -77t178 76q64 73 64 186v567h174zM825 718l162 371h171l-201 -371h-132zM387 1096l209 348h178l-281 -348h-106z" />
    <glyph glyph-name="glyph355" unicode="&#x1eea;" horiz-adv-x="1277" 
d="M307 1432v-891q0 -385 307 -385q308 0 308 385v891h190v-900q0 -243 -125 -394q-135 -163 -373 -163t-372 163q-125 151 -125 394v900h190zM1000 1177l162 371h171l-201 -371h-132zM751 1567h-106l-281 348h178z" />
    <glyph glyph-name="glyph356" unicode="&#x1eeb;" horiz-adv-x="1099" 
d="M940 981v-535q0 -204 -105 -330q-112 -134 -313 -134q-200 0 -312 135q-104 125 -104 329v535h175v-567q0 -112 65 -185q67 -77 178 -77t178 76q64 73 64 186v567h174zM825 718l162 371h171l-201 -371h-132zM661 1096h-106l-281 348h178z" />
    <glyph glyph-name="glyph357" unicode="&#x1eec;" horiz-adv-x="1277" 
d="M307 1432v-891q0 -385 307 -385q308 0 308 385v891h190v-900q0 -243 -125 -394q-135 -163 -373 -163t-372 163q-125 151 -125 394v900h190zM1000 1177l162 371h171l-201 -371h-132zM428 1776q0 76 60.5 133.5t137.5 57.5q79 0 139 -58.5t60 -137.5q0 -69 -45 -119.5
t-118 -66.5v-67h-88v155q57 0 99 23q48 28 48 75q0 40 -28 69t-68 29q-87 0 -98 -93h-99z" />
    <glyph glyph-name="glyph358" unicode="&#x1eed;" horiz-adv-x="1099" 
d="M940 981v-535q0 -204 -105 -330q-112 -134 -313 -134q-200 0 -312 135q-104 125 -104 329v535h175v-567q0 -112 65 -185q67 -77 178 -77t178 76q64 73 64 186v567h174zM825 718l162 371h171l-201 -371h-132zM336 1333q0 76 60.5 133.5t137.5 57.5q79 0 139 -58.5
t60 -137.5q0 -69 -45 -119.5t-118 -66.5v-67h-88v155q57 0 99 23q48 28 48 75q0 40 -28 69t-68 29q-87 0 -98 -93h-99z" />
    <glyph glyph-name="glyph359" unicode="&#x1eee;" horiz-adv-x="1277" 
d="M307 1432v-891q0 -385 307 -385q308 0 308 385v891h190v-900q0 -243 -125 -394q-135 -163 -373 -163t-372 163q-125 151 -125 394v900h190zM1000 1177l162 371h171l-201 -371h-132zM914 1835q-50 -193 -199 -193q-35 0 -99.5 23t-98.5 23q-68 0 -97 -64h-88
q45 186 199 186q36 0 100.5 -23.5t97.5 -23.5q70 0 97 72h88z" />
    <glyph glyph-name="glyph360" unicode="&#x1eef;" horiz-adv-x="1099" 
d="M940 981v-535q0 -204 -105 -330q-112 -134 -313 -134q-200 0 -312 135q-104 125 -104 329v535h175v-567q0 -112 65 -185q67 -77 178 -77t178 76q64 73 64 186v567h174zM825 718l162 371h171l-201 -371h-132zM818 1364q-50 -193 -199 -193q-35 0 -99.5 23t-98.5 23
q-68 0 -97 -64h-88q45 186 199 186q36 0 100.5 -23.5t97.5 -23.5q70 0 97 72h88z" />
    <glyph glyph-name="glyph361" unicode="&#x1ef0;" horiz-adv-x="1277" 
d="M307 1432v-891q0 -385 307 -385q308 0 308 385v891h190v-900q0 -243 -125 -394q-135 -163 -373 -163t-372 163q-125 151 -125 394v900h190zM1000 1177l162 371h171l-201 -371h-132zM496 -262q0 51 34 85t85 34q50 0 84 -34.5t34 -84.5q0 -49 -34.5 -82.5t-83.5 -33.5
t-84 33.5t-35 82.5z" />
    <glyph glyph-name="glyph362" unicode="&#x1ef1;" horiz-adv-x="1099" 
d="M940 981v-535q0 -204 -105 -330q-112 -134 -313 -134q-200 0 -312 135q-104 125 -104 329v535h175v-567q0 -112 65 -185q67 -77 178 -77t178 76q64 73 64 186v567h174zM825 718l162 371h171l-201 -371h-132zM408 -262q0 51 34 85t85 34q50 0 84 -34.5t34 -84.5
q0 -49 -34.5 -82.5t-83.5 -33.5t-84 33.5t-35 82.5z" />
    <glyph glyph-name="glyph363" unicode="&#x1ef2;" horiz-adv-x="1110" 
d="M461 0v549q-357 91 -357 493v390h191v-392q0 -325 260 -325t260 325v392h191v-390q0 -402 -357 -493v-549h-188zM671 1567h-106l-281 348h178z" />
    <glyph glyph-name="glyph364" unicode="&#x1ef3;" horiz-adv-x="1049" 
d="M940 981v-535q0 -375 -330 -456v-426h-176v426q-328 81 -328 456v535h175v-567q0 -112 65 -185q67 -77 178 -77t178 76q64 73 64 186v567h174zM661 1096h-106l-281 348h178z" />
    <glyph glyph-name="glyph365" unicode="&#x1ef4;" horiz-adv-x="1110" 
d="M461 0v549q-357 91 -357 493v390h191v-392q0 -325 260 -325t260 325v392h191v-390q0 -402 -357 -493v-549h-188zM443 -262q0 51 34 85t85 34q50 0 84 -34.5t34 -84.5q0 -49 -34.5 -82.5t-83.5 -33.5t-84 33.5t-35 82.5z" />
    <glyph glyph-name="glyph366" unicode="&#x1ef5;" horiz-adv-x="1049" 
d="M940 981v-535q0 -375 -330 -456v-426h-176v426q-328 81 -328 456v535h175v-567q0 -112 65 -185q67 -77 178 -77t178 76q64 73 64 186v567h174zM666 -262q0 51 34 85t85 34q50 0 84 -34.5t34 -84.5q0 -49 -34.5 -82.5t-83.5 -33.5t-84 33.5t-35 82.5z" />
    <glyph glyph-name="glyph367" unicode="&#x1ef6;" horiz-adv-x="1110" 
d="M461 0v549q-357 91 -357 493v390h191v-392q0 -325 260 -325t260 325v392h191v-390q0 -402 -357 -493v-549h-188zM368 1776q0 76 60.5 133.5t137.5 57.5q79 0 139 -58.5t60 -137.5q0 -69 -45 -119.5t-118 -66.5v-67h-88v155q57 0 99 23q48 28 48 75q0 40 -28 69t-68 29
q-87 0 -98 -93h-99z" />
    <glyph glyph-name="glyph368" unicode="&#x1ef7;" horiz-adv-x="1049" 
d="M940 981v-535q0 -375 -330 -456v-426h-176v426q-328 81 -328 456v535h175v-567q0 -112 65 -185q67 -77 178 -77t178 76q64 73 64 186v567h174zM336 1333q0 76 60.5 133.5t137.5 57.5q79 0 139 -58.5t60 -137.5q0 -69 -45 -119.5t-118 -66.5v-67h-88v155q57 0 99 23
q48 28 48 75q0 40 -28 69t-68 29q-87 0 -98 -93h-99z" />
    <glyph glyph-name="glyph369" unicode="&#x1ef8;" horiz-adv-x="1110" 
d="M461 0v549q-357 91 -357 493v390h191v-392q0 -325 260 -325t260 325v392h191v-390q0 -402 -357 -493v-549h-188zM844 1835q-50 -193 -199 -193q-35 0 -99.5 23t-98.5 23q-68 0 -97 -64h-88q45 186 199 186q36 0 100.5 -23.5t97.5 -23.5q70 0 97 72h88z" />
    <glyph glyph-name="glyph370" unicode="&#x1ef9;" horiz-adv-x="1049" 
d="M940 981v-535q0 -375 -330 -456v-426h-176v426q-328 81 -328 456v535h175v-567q0 -112 65 -185q67 -77 178 -77t178 76q64 73 64 186v567h174zM818 1364q-50 -193 -199 -193q-35 0 -99.5 23t-98.5 23q-68 0 -97 -64h-88q45 186 199 186q36 0 100.5 -23.5t97.5 -23.5
q70 0 97 72h88z" />
    <glyph glyph-name="endash" unicode="&#x2013;" horiz-adv-x="1024" 
d="M0 420v149h1024v-149h-1024z" />
    <glyph glyph-name="emdash" unicode="&#x2014;" horiz-adv-x="2048" 
d="M0 569h2048v-149h-2048v149z" />
    <glyph glyph-name="quoteleft" unicode="&#x2018;" horiz-adv-x="557" 
d="M430 1432l-82 -396h-164l111 396h135z" />
    <glyph glyph-name="quoteright" unicode="&#x2019;" horiz-adv-x="557" 
d="M180 1036l82 396h164l-111 -396h-135z" />
    <glyph glyph-name="quotesinglbase" unicode="&#x201a;" horiz-adv-x="557" 
d="M129 -205l82 398h164l-111 -398h-135z" />
    <glyph glyph-name="quotedblleft" unicode="&#x201c;" horiz-adv-x="862" 
d="M733 1432l-80 -396h-166l113 396h133zM430 1432l-82 -396h-164l111 396h135z" />
    <glyph glyph-name="quotedblright" unicode="&#x201d;" horiz-adv-x="862" 
d="M487 1036l80 396h166l-112 -396h-134zM180 1036l82 396h164l-111 -396h-135z" />
    <glyph glyph-name="quotedblbase" unicode="&#x201e;" horiz-adv-x="862" 
d="M436 -205l80 398h166l-113 -398h-133zM129 -205l82 398h164l-111 -398h-135z" />
    <glyph glyph-name="dagger" unicode="&#x2020;" horiz-adv-x="1024" 
d="M408 -100v1056h-275v154h275v322h186v-322h274v-154h-274v-1056h-186z" />
    <glyph glyph-name="daggerdbl" unicode="&#x2021;" horiz-adv-x="1024" 
d="M600 -100h-176v477h-285v153h285v426h-285v154h285v322h176v-322h285v-154h-285v-426h285v-153h-285v-477z" />
    <glyph glyph-name="bullet" unicode="&#x2022;" horiz-adv-x="1208" 
d="M307 762q0 124 86.5 209.5t210.5 85.5q123 0 209 -86t86 -209t-87 -210t-210 -87q-124 0 -209.5 86.5t-85.5 210.5z" />
    <glyph glyph-name="ellipsis" unicode="&#x2026;" horiz-adv-x="2048" 
d="M223 102q0 51 34 85t85 34q50 0 84 -34.5t34 -84.5q0 -49 -34.5 -82.5t-83.5 -33.5t-84 33.5t-35 82.5zM905 102q0 51 34 85t85 34q50 0 84 -34.5t34 -84.5q0 -49 -34.5 -82.5t-83.5 -33.5t-84 33.5t-35 82.5zM1590 102q0 51 34 85t85 34q50 0 84 -34.5t34 -84.5
q0 -49 -34.5 -82.5t-83.5 -33.5t-84 33.5t-35 82.5z" />
    <glyph glyph-name="perthousand" unicode="&#x2030;" horiz-adv-x="2456" 
d="M952 322q0 136 94 229.5t230 93.5t228.5 -93.5t92.5 -229.5t-92.5 -229t-228.5 -93t-230 93t-94 229zM1110 322q0 -68 48.5 -116t117.5 -48q68 0 116 48t48 116q0 69 -47.5 117t-116.5 48t-117.5 -48t-48.5 -117zM1884 322q0 -68 48.5 -116t117.5 -48q68 0 116 48t48 116
q0 69 -47.5 117t-116.5 48t-117.5 -48t-48.5 -117zM1726 322q0 136 94 229.5t230 93.5t229 -93.5t93 -229.5t-93 -229t-229 -93t-230 93t-94 229zM92 1110q0 136 93 229t229 93t229.5 -93t93.5 -229t-93.5 -230t-229.5 -94t-229 94t-93 230zM250 1110q0 -68 48 -116t116 -48
t117 48t49 116q0 69 -48 116.5t-118 47.5q-69 0 -116.5 -47.5t-47.5 -116.5zM301 0l932 1432h131l-922 -1432h-141z" />
    <glyph glyph-name="guilsinglleft" unicode="&#x2039;" horiz-adv-x="668" 
d="M553 184h-162l-250 322l250 317h162l-248 -317z" />
    <glyph glyph-name="guilsinglright" unicode="&#x203a;" horiz-adv-x="668" 
d="M115 184l250 322l-250 317h161l252 -317l-252 -322h-161z" />
    <glyph glyph-name="fraction" unicode="&#x2044;" horiz-adv-x="342" 
d="M-342 0l887 1432h137l-877 -1432h-147z" />
    <glyph glyph-name="franc" unicode="&#x20a3;" horiz-adv-x="1583" 
d="M117 0v934q0 498 506 498h204v-177h-237q-285 0 -285 -292v-160h522v-176h-522v-627h-188zM1039 0v981h162v-145q55 105 163 140q71 23 220 23v-170q-201 0 -285 -82.5t-84 -283.5v-463h-176z" />
    <glyph glyph-name="u20AB" unicode="&#x20ab;" horiz-adv-x="832" 
d="M741 1457v-119h71v-68h-71v-476q0 -155 -95 -257q-98 -105 -252 -105t-251.5 103t-97.5 258q0 147 97.5 251.5t244.5 104.5q103 0 187 -47v-133q-86 63 -173 63q-104 0 -166.5 -69.5t-62.5 -174.5q0 -103 60 -169q62 -70 163 -70q102 0 164 72q57 67 57 172v477h-231v68
h231v119h125zM677 317v-101h-544v101h544z" />
    <glyph glyph-name="trademark" unicode="&#x2122;" horiz-adv-x="1706" 
d="M963 1458l151 -385l141 385h150v-538h-98v444l-166 -444h-56l-174 444v-444h-98v538h150zM694 1458v-80h-172v-458h-108v458h-172v80h452z" />
    <glyph glyph-name="partialdiff" unicode="&#x2202;" horiz-adv-x="1059" 
d="M756 621q30 174 30 325q0 260 -145 260q-50 0 -127 -58t-108 -58q-34 0 -59 21t-25 54q0 75 89 121q74 39 156 39q207 0 311 -194q83 -154 83 -379q0 -335 -144.5 -556t-357.5 -221q-157 0 -258 112q-97 108 -97 267q0 182 98 312q108 143 285 143q195 0 269 -188z
M707 494q0 241 -166 241q-134 0 -201 -176q-49 -128 -49 -289q0 -239 166 -239q133 0 201 175q49 129 49 288z" />
    <glyph glyph-name="product" unicode="&#x220f;" horiz-adv-x="1550" 
d="M156 1473h1237v-1866h-240v1661h-758v-1661h-239v1866z" />
    <glyph glyph-name="summation" unicode="&#x2211;" horiz-adv-x="1380" 
d="M55 1473h1258v-193h-959l672 -717l-694 -764h1007v-192h-1314v149l725 801l-695 739v177z" />
    <glyph glyph-name="minus" unicode="&#x2212;" horiz-adv-x="1706" 
d="M1452 682v-141h-1198v141h1198z" />
    <glyph glyph-name="radical" unicode="&#x221a;" horiz-adv-x="1305" 
d="M1116 1661h189v-96h-115l-594 -1606h-66l-319 883l-125 -45l-25 80l283 98l256 -709z" />
    <glyph glyph-name="infinity" unicode="&#x221e;" horiz-adv-x="1706" 
d="M915 559q99 -178 267 -178q103 0 166 68t63 172q0 96 -54 163q-59 72 -153 72q-153 0 -289 -297zM793 666q-98 176 -267 176q-104 0 -166.5 -66.5t-62.5 -171.5q0 -96 54 -163q59 -72 153 -72q154 0 289 297zM864 483q-136 -262 -321 -262q-148 0 -239 124
q-83 112 -83 265q0 157 70 265q82 126 231 126q182 0 320 -264q132 269 323 269q147 0 239 -126q83 -113 83 -266q0 -157 -70 -264q-82 -125 -231 -125q-175 0 -322 258z" />
    <glyph glyph-name="integral" unicode="&#x222b;" horiz-adv-x="1067" 
d="M311 -262q105 0 120 688l3 165q13 517 107.5 738t296.5 221q73 0 124 -37q56 -41 56 -112q0 -117 -119 -117q-98 0 -120 124q-7 36 -21 36q-106 0 -121 -619l-8 -303q-18 -482 -111 -686q-95 -207 -291 -207q-73 0 -124 37q-56 41 -56 111q0 119 129 119q59 0 86 -41
q14 -22 26 -76q9 -41 23 -41z" />
    <glyph glyph-name="approxequal" unicode="&#x2248;" horiz-adv-x="1706" 
d="M1530 430q-203 -141 -389 -141q-95 0 -287 67.5t-291 67.5q-157 0 -385 -158v156q214 145 387 145q112 0 305 -68.5t273 -68.5q165 0 387 156v-156zM1530 799q-204 -142 -389 -142q-95 0 -287 68t-291 68q-155 0 -385 -158v156q210 143 387 143q113 0 305.5 -67.5
t272.5 -67.5q164 0 387 155v-155z" />
    <glyph glyph-name="approxequal" unicode="&#x22f2;" horiz-adv-x="1706" 
d="M1530 430q-203 -141 -389 -141q-95 0 -287 67.5t-291 67.5q-157 0 -385 -158v156q214 145 387 145q112 0 305 -68.5t273 -68.5q165 0 387 156v-156zM1530 799q-204 -142 -389 -142q-95 0 -287 68t-291 68q-155 0 -385 -158v156q210 143 387 143q113 0 305.5 -67.5
t272.5 -67.5q164 0 387 155v-155z" />
    <glyph glyph-name="notequal" unicode="&#x2260;" horiz-adv-x="1706" 
d="M1313 1112l-187 -235h326v-136h-416l-205 -262h621v-135h-709l-249 -317l-105 84l184 233h-319v135h408l204 262h-612v136h702l252 317z" />
    <glyph glyph-name="lessequal" unicode="&#x2264;" horiz-adv-x="1706" 
d="M1446 162v-139h-1184v139h1184zM1444 1059l-936 -309l936 -306v-149l-1182 395v121l1182 395v-147z" />
    <glyph glyph-name="greaterequal" unicode="&#x2265;" horiz-adv-x="1706" 
d="M1446 162v-139h-1184v139h1184zM1446 811v-121l-1184 -395v149l938 306l-938 309v147z" />
    <glyph glyph-name="SF370000" unicode="&#x255f;" horiz-adv-x="1229" 
d="M922 0v657h-557v181h557v57q0 385 -308 385q-307 0 -307 -385v-895h-190v899q0 244 125 395q133 162 372 162t373 -162q125 -151 125 -395v-899h-190z" />
    <glyph glyph-name="SF420000" unicode="&#x2560;" horiz-adv-x="1040" 
d="M958 1262q-24 2 -63 2q-531 0 -621 -441h684v-170h-694q73 -481 623 -481q47 0 71 2v-174h-55q-318 0 -483 100q-352 214 -352 617q0 254 153.5 445.5t401.5 244.5q120 25 335 25v-170z" />
    <glyph glyph-name="SF190000" unicode="&#x2561;" horiz-adv-x="465" 
d="M137 0v1432h191v-1432h-191z" />
    <glyph glyph-name="SF200000" unicode="&#x2562;" horiz-adv-x="1583" 
d="M66 717q0 304 211.5 521.5t515.5 217.5q302 0 513.5 -218t211.5 -521q0 -304 -210 -522q-213 -220 -515 -220q-305 0 -516 218t-211 524zM260 719q0 -228 151 -393q156 -170 382 -170q224 0 380 171q150 165 150 392q0 225 -151 391q-156 170 -379 170q-226 0 -382 -169
q-151 -164 -151 -392z" />
    <glyph glyph-name="SF230000" unicode="&#x2563;" horiz-adv-x="1229" 
d="M307 1432v-891q0 -385 307 -385q308 0 308 385v891h190v-900q0 -243 -125 -394q-135 -163 -373 -163t-372 163q-125 151 -125 394v900h190z" />
    <glyph glyph-name="SF470000" unicode="&#x2564;" horiz-adv-x="1110" 
d="M461 0v549q-357 91 -357 493v390h191v-392q0 -325 260 -325t260 325v392h191v-390q0 -402 -357 -493v-549h-188z" />
    <glyph glyph-name="SF480000" unicode="&#x2565;" horiz-adv-x="1151" 
d="M870 0v489q0 148 -81 244q-86 101 -232 101q-143 0 -231 -99q-84 -94 -84 -239q0 -148 87 -245q90 -101 236 -101q127 0 246 90v-189q-118 -67 -266 -67q-207 0 -346 152q-136 148 -136 356q0 219 137 363t355 144q176 0 311.5 -108.5t168.5 -279.5q12 -66 12 -199v-412
h-177z" />
    <glyph glyph-name="SF410000" unicode="&#x2566;" horiz-adv-x="1110" 
d="M1051 434q-36 -202 -161 -324q-134 -130 -333 -130q-208 0 -353 153q-143 150 -143 359t145 359t353 150q308 0 457 -307l-643 -356l-74 133l477 266q-89 99 -219 99q-138 0 -228 -103q-85 -99 -85 -239q0 -139 86 -238q90 -104 227 -104q133 0 217 90q78 83 98 219z" />
    <glyph glyph-name="SF450000" unicode="&#x2567;" horiz-adv-x="418" 
d="M121 0v981h176v-981h-176zM102 1260q0 45 31 75.5t76 30.5t75.5 -30.5t30.5 -75.5q0 -46 -30 -77.5t-76 -31.5q-45 0 -76 32t-31 77z" />
    <glyph glyph-name="SF460000" unicode="&#x2568;" horiz-adv-x="418" 
d="M121 0v981h176v-981h-176z" />
    <glyph glyph-name="SF400000" unicode="&#x2569;" 
d="M244 494q0 -138 86 -238q91 -104 227 -104t227 104q86 100 86 238t-86 237q-91 103 -227 103t-226 -103q-87 -99 -87 -237zM61 492q0 207 144.5 357t351.5 150q209 0 352.5 -149t143.5 -358q0 -211 -142 -359q-144 -151 -354 -151q-208 0 -353 152q-143 149 -143 358z
" />
    <glyph glyph-name="SF540000" unicode="&#x256a;" horiz-adv-x="1049" 
d="M940 981v-535q0 -204 -105 -330q-112 -134 -313 -134q-200 0 -312 135q-104 125 -104 329v535h175v-567q0 -112 65 -185q67 -77 178 -77t178 76q64 73 64 186v567h174z" />
    <glyph glyph-name="SF530000" unicode="&#x256b;" horiz-adv-x="1049" 
d="M940 981v-535q0 -375 -330 -456v-426h-176v426q-328 81 -328 456v535h175v-567q0 -112 65 -185q67 -77 178 -77t178 76q64 73 64 186v567h174z" />
    <glyph glyph-name="lozenge" unicode="&#x25ca;" horiz-adv-x="1012" 
d="M506 1409l-385 -817l385 -825l385 825zM506 1653l500 -1061l-500 -1069l-500 1069z" />
    <glyph glyph-name="circle" unicode="&#x25cb;" horiz-adv-x="1229" 
d="M327 1517l197 348h178l197 -348h-107l-178 243l-180 -243h-107zM369 1891l209 348h178l-281 -348h-106z" />
    <glyph glyph-name="H18533" unicode="&#x25cf;" horiz-adv-x="1229" 
d="M327 1517l197 348h178l197 -348h-107l-178 243l-180 -243h-107zM862 1891h-106l-281 348h178z" />
    <glyph glyph-name="invbullet" unicode="&#x25d8;" horiz-adv-x="1229" 
d="M327 1517l197 348h178l197 -348h-107l-178 243l-180 -243h-107zM670 2085q0 76 60.5 133.5t137.5 57.5q79 0 139 -58.5t60 -137.5q0 -69 -45 -119.5t-118 -66.5v-67h-88v155q57 0 99 23q48 28 48 75q0 40 -28 69t-68 29q-87 0 -98 -93h-99z" />
    <glyph glyph-name="invcircle" unicode="&#x25d9;" horiz-adv-x="1229" 
d="M327 1517l197 348h178l197 -348h-107l-178 243l-180 -243h-107zM970 2152q-50 -193 -199 -193q-35 0 -99.5 23t-98.5 23q-68 0 -97 -64h-88q45 186 199 186q36 0 100.5 -23.5t97.5 -23.5q70 0 97 72h88z" />
    <glyph glyph-name="apple" unicode="&#xf000;" horiz-adv-x="1618" 
d="M836 1216q-2 12 -2 37q0 132 101 237q96 99 230 124q2 -20 2 -62q0 -131 -103.5 -234.5t-211.5 -103.5q-3 0 -8.5 1t-7.5 1zM1505 403q-90 -195 -153 -280q-118 -158 -256 -158q-45 0 -128 33t-126 33q-45 0 -129.5 -33t-128.5 -33q-128 0 -259 176q-99 134 -156 296
q-56 155 -56 300q0 211 117 348q124 146 331 146q57 0 150 -34t129 -34q34 0 126 35t148 35q217 0 359 -164q-201 -128 -201 -328q0 -233 233 -338z" />
    <glyph glyph-name="fi" unicode="&#xf001;" horiz-adv-x="1044" 
d="M750 0v981h176v-981h-176zM729 1260q0 45 32 75.5t77 30.5t75.5 -30.5t30.5 -75.5t-30.5 -77t-75.5 -32t-77 32t-32 77zM121 0v1067q0 365 414 365h106v-168q-184 0 -242 -25q-104 -45 -104 -203v-55h346v-166h-346v-815h-174z" />
    <glyph glyph-name="fl" unicode="&#xf002;" horiz-adv-x="1044" 
d="M750 0v1432h176v-1432h-176zM121 0v1067q0 365 414 365h106v-168q-184 0 -242 -25q-104 -45 -104 -203v-55h346v-166h-346v-815h-174z" />
    <glyph glyph-name="periodcentered" horiz-adv-x="557" 
d="M160 729q0 51 34 85t85 34q50 0 84 -34.5t34 -84.5q0 -49 -34.5 -83t-83.5 -34q-50 0 -84.5 33.5t-34.5 83.5z" />
    <glyph glyph-name="glyph275" horiz-adv-x="557" 
 />
    <glyph glyph-name="glyph276" horiz-adv-x="557" 
 />
    <glyph glyph-name="glyph261" horiz-adv-x="557" 
d="M139 1055l162 371h171l-201 -371h-132z" />
    <glyph glyph-name="glyph262" horiz-adv-x="738" 
d="M310 1309q0 76 60.5 133.5t137.5 57.5q79 0 139 -58.5t60 -137.5q0 -69 -45 -119.5t-118 -66.5v-67h-88v155q57 0 99 23q48 28 48 75q0 40 -28 69t-68 29q-87 0 -98 -93h-99z" />
    <glyph glyph-name="glyph263" horiz-adv-x="1151" 
d="M288 1096l197 348h178l197 -348h-107l-178 243l-180 -243h-107zM330 1469l209 348h178l-281 -348h-106z" />
    <glyph glyph-name="glyph264" horiz-adv-x="1151" 
d="M288 1096l197 348h178l197 -348h-107l-178 243l-180 -243h-107zM823 1470h-106l-281 348h178z" />
    <glyph glyph-name="glyph265" horiz-adv-x="1151" 
d="M288 1096l197 348h178l197 -348h-107l-178 243l-180 -243h-107zM631 1664q0 76 60.5 133.5t137.5 57.5q79 0 139 -58.5t60 -137.5q0 -69 -45 -119.5t-118 -66.5v-67h-88v155q57 0 99 23q48 28 48 75q0 40 -28 69t-68 29q-87 0 -98 -93h-99z" />
    <glyph glyph-name="glyph266" horiz-adv-x="1151" 
d="M288 1096l197 348h178l197 -348h-107l-178 243l-180 -243h-107zM931 1732q-50 -193 -199 -193q-35 0 -99.5 23t-98.5 23q-68 0 -97 -64h-88q45 186 199 186q36 0 100.5 -23.5t97.5 -23.5q70 0 97 72h88z" />
    <glyph glyph-name="glyph267" horiz-adv-x="1151" 
d="M291 1405h89q13 -145 193 -145t193 145h90q-21 -270 -283 -270q-265 0 -282 270zM450 1469l209 348h178l-281 -348h-106z" />
    <glyph glyph-name="glyph268" horiz-adv-x="1151" 
d="M291 1405h89q13 -145 193 -145t193 145h90q-21 -270 -283 -270q-265 0 -282 270zM703 1470h-106l-281 348h178z" />
    <glyph glyph-name="glyph269" horiz-adv-x="1151" 
d="M291 1405h89q13 -145 193 -145t193 145h90q-21 -270 -283 -270q-265 0 -282 270zM383 1664q0 76 60.5 133.5t137.5 57.5q79 0 139 -58.5t60 -137.5q0 -69 -45 -119.5t-118 -66.5v-67h-88v155q57 0 99 23q48 28 48 75q0 40 -28 69t-68 29q-87 0 -98 -93h-99z" />
    <glyph glyph-name="glyph270" horiz-adv-x="1151" 
d="M291 1405h89q13 -145 193 -145t193 145h90q-21 -270 -283 -270q-265 0 -282 270zM878 1732q-50 -193 -199 -193q-35 0 -99.5 23t-98.5 23q-68 0 -97 -64h-88q45 186 199 186q36 0 100.5 -23.5t97.5 -23.5q70 0 97 72h88z" />
    </font>
</defs>
</svg>
