<?xml version="1.0" standalone="no"?>
<!DOCTYPE svg PUBLIC "-//W3C//DTD SVG 1.1//EN" "http://www.w3.org/Graphics/SVG/1.1/DTD/svg11.dtd" >
<svg xmlns="http://www.w3.org/2000/svg" xmlns:xlink="http://www.w3.org/1999/xlink" version="1.1">
<metadata></metadata>
<defs>
<font id="uvn_thu_turegular" horiz-adv-x="795" >
<font-face units-per-em="2048" ascent="1638" descent="-410" />
<missing-glyph horiz-adv-x="512" />
<glyph horiz-adv-x="0" />
<glyph unicode="&#xd;" horiz-adv-x="512" />
<glyph unicode=" "  horiz-adv-x="512" />
<glyph unicode="&#x09;" horiz-adv-x="512" />
<glyph unicode="&#xa0;" horiz-adv-x="512" />
<glyph unicode="!" horiz-adv-x="499" d="M121 37q0 36 25.5 62t62.5 26q38 1 63.5 -25t25.5 -64q0 -36 -26 -62t-62 -26t-62.5 26.5t-26.5 62.5zM180 214l254 812q100 39 201 88l2 -22l-327 -843l-104 -35h-26z" />
<glyph unicode="&#x22;" horiz-adv-x="662" d="M418 1005l97 325q74 15 150 35l4 -9l-152 -337zM681 1005l97 325q74 15 150 35l4 -9l-152 -337z" />
<glyph unicode="#" horiz-adv-x="956" d="M65 215l14 65h190l105 290h-180l15 65h189l126 348h72l-126 -348h342l127 348h72l-127 -348h201l-15 -65h-210l-105 -290h201l-15 -65h-210l-128 -352h-72l128 352h-342l-128 -352h-72l128 352h-180zM340 280h343l105 290h-344z" />
<glyph unicode="$" horiz-adv-x="1229" d="M10 56q0 13 51 50q75 55 105 90q14 -11 80 -15q80 -5 106 -7l-28 -68l157 -12l197 541l-50 16q-229 73 -229 220q0 149 217 308q124 91 319 162l102 281l48 -18l-89 -244q120 34 204 34q67 0 114 -25q60 -31 60 -92q0 -75 -114 -185q-80 -77 -178 -140l-11 12 q105 88 105 168q0 137 -209 146l-167 -458l193 -65q72 -24 132 -116q40 -61 40 -144q0 -122 -95 -238q-80 -96 -203 -164q-162 -89 -373 -114l-79 -217l-49 17l72 197q-62 -2 -99 -2q-84 0 -182 15q-147 23 -147 67zM534 88q222 0 317 52q130 72 130 227q0 70 -27 115 q-44 72 -93 90l-134 48zM596 1018q0 -130 155 -181l160 439q-98 -9 -189 -66q-126 -79 -126 -192z" />
<glyph unicode="%" horiz-adv-x="1191" d="M187 0q62 57 147 154l662 759q94 108 120 145q57 -2 126 -4q-145 -127 -273 -275l-527 -609q-92 -106 -141 -174zM243 718q0 152 164 268q145 103 284 103q66 0 66 -123q0 -140 -141 -260q-125 -106 -245 -106q-128 0 -128 118zM398 787q0 -49 30 -81.5t78 -32.5 q65 0 98 67q25 51 25 124q0 86 -27 126q-13 19 -35 31q-36 19 -40 16q-129 -111 -129 -250zM685 125q0 151 164 268q144 103 285 103q65 0 65 -123q0 -140 -141 -260q-125 -106 -245 -106q-128 0 -128 118zM840 193q0 -48 30 -80.5t78 -32.5q65 0 98 67q25 51 25 124 q0 86 -27 126q-12 18 -35 31q-35 20 -40 16q-129 -109 -129 -251z" />
<glyph unicode="&#x26;" horiz-adv-x="978" d="M83 197q0 198 297 407l118 83q-35 102 -35 167q0 177 186 319q135 103 245 103q104 0 104 -98q0 -97 -116 -221q-46 -49 -213 -173q23 -59 49 -111l111 -219q14 -30 43 -88q122 153 122 311q0 11 -6 77l6 2l54 -70q-2 -159 -165 -346q61 -152 77 -311q-100 -44 -202 -103 l-9 3q16 58 16 100q0 58 -33 155q-210 -183 -432 -183q-94 0 -153 50q-64 54 -64 146zM288 348q0 -92 60 -145q57 -51 150 -51q98 0 221 73q-28 73 -63 141l-88 172q-30 58 -58 121q-222 -146 -222 -311zM630 994q0 -77 33 -177q121 115 121 242q0 117 -66 117 q-45 0 -70 -73q-18 -53 -18 -109z" />
<glyph unicode="'" horiz-adv-x="399" d="M418 1005l97 325q74 15 150 35l4 -9l-152 -337z" />
<glyph unicode="(" horiz-adv-x="540" d="M183 -48q0 427 175 821q169 378 483 689l9 -10q-251 -343 -346 -596q-125 -334 -125 -710q0 -225 31 -348l67 51l9 -17q-130 -114 -256 -237l-11 2q-36 148 -36 355z" />
<glyph unicode=")" horiz-adv-x="540" d="M-12 -423q255 351 347 596q125 333 125 710q0 224 -32 349l-67 -52l-9 17q130 115 256 238l11 -2q37 -152 37 -356q0 -427 -176 -821q-169 -378 -483 -688z" />
<glyph unicode="*" horiz-adv-x="818" d="M480 1075q141 4 248 88q-168 27 -228 122l2 11q38 42 74 90q44 -128 158 -209q-5 32 -5 62q0 128 53 193l11 2q52 -24 108 -44q-117 -88 -150 -215q88 47 192 47q32 0 66 -13l5 -11q-7 -56 -8 -116q-110 77 -224 77q-12 0 -27 -1q113 -108 113 -214q0 -6 -1 -20l-9 -8 q-56 -11 -112 -28q23 72 23 125q0 63 -28 138q-27 -59 -77 -110q-56 -57 -112 -70l-10 5q-28 50 -62 99z" />
<glyph unicode="+" horiz-adv-x="1024" d="M259 444v67h328v315h68v-315h328v-67h-328v-315h-68v315h-328z" />
<glyph unicode="," horiz-adv-x="498" d="M-14 -148q180 72 180 153q0 38 -43 109l161 67q22 -45 22 -80q0 -121 -294 -273z" />
<glyph unicode="-" horiz-adv-x="342" d="M96 489q33 45 65 94q47 -11 155 -11q69 0 138 -2l6 -21q-31 -45 -65 -95q-99 12 -216 12q-35 0 -78 -2z" />
<glyph unicode="." horiz-adv-x="314" d="M27 62q0 36 25.5 62t62.5 26q38 1 63.5 -25t25.5 -64q0 -36 -26 -62t-62 -26t-62.5 26.5t-26.5 62.5z" />
<glyph unicode="/" horiz-adv-x="549" d="M-209 -373l1098 1767q46 4 101 6q-27 -34 -66 -91q-35 -51 -77 -112q-39 -56 -63 -95l-792 -1295q-45 -72 -109 -182q-39 3 -55 3q-15 0 -37 -1z" />
<glyph unicode="0" horiz-adv-x="1024" d="M195 303q0 164 109 310q98 130 255 214l13 -15q-100 -66 -143 -112q-103 -111 -103 -245q0 -154 114 -271q83 -85 199 -85q115 0 189 85q70 82 70 198q0 177 -145 282q-83 60 -203 62v10q86 64 161 150q208 -48 273 -201q26 -64 26 -133q0 -123 -65 -247 q-63 -118 -162 -200q-141 -116 -286 -116q-132 0 -217 90.5t-85 223.5z" />
<glyph unicode="1" horiz-adv-x="1024" d="M361 -9l289 790l-237 -127v27l430 231l10 -7l-310 -856l-174 -71z" />
<glyph unicode="2" horiz-adv-x="1024" d="M118 -3l3 35q50 36 221 165q93 70 187 139q105 83 169 159q69 82 69 146q0 105 -156 105q-96 0 -239 -38l-9 12q63 84 120 170q127 36 274 36q231 0 231 -151q0 -99 -144 -234q-67 -63 -228 -179l-170 -123q-66 -47 -123 -100q195 29 370 29q261 0 261 -38q0 -7 -45 -54 q-17 -18 -112 -132l-8 5q3 10 3 15q0 32 -46 39q-88 13 -249 13q-130 0 -250 -9z" />
<glyph unicode="3" horiz-adv-x="1024" d="M159 -114l16 9q119 -17 167 -17q151 0 259 77q82 58 82 138q0 73 -112 124l-102 46q-137 62 -137 95q0 13 56 65q64 60 73 74q357 48 357 151q0 96 -234 96q-99 0 -224 -23l-10 11q99 82 164 167q89 14 179 14q106 0 189 -28q121 -41 121 -126q0 -77 -146 -166 q-105 -64 -328 -144l52 -27l69 -32q80 -37 108 -60q54 -43 54 -104q0 -137 -185 -283q-163 -129 -398 -146z" />
<glyph unicode="4" horiz-adv-x="1024" d="M96 156v16q273 372 421 682l211 56q-156 -337 -542 -658q134 38 413 52l193 554l179 57l9 -10l-220 -598q19 -1 45 -2q154 -5 183 -23q-59 -78 -121 -167l-5 1q-11 36 -68 44q-1 0 -88 3l-52 -138q-95 -35 -182 -66l-5 8q12 27 38 91l42 109q-55 2 -97 2q-146 0 -322 -11 z" />
<glyph unicode="5" horiz-adv-x="1024" d="M202 -81l16 8q186 29 312 113q146 97 146 212q0 131 -180 131q-89 0 -163 -18l-4 9q106 299 202 422q91 117 338 117q75 0 149 -8q-18 -25 -70 -98q-14 -20 -27 -41q-16 -18 -41 -18t-47 2l-55 5q-77 7 -105 7q-96 0 -117 -22q-42 -43 -75 -206q69 11 145 11 q220 0 220 -150q0 -114 -191 -290q-145 -134 -377 -252z" />
<glyph unicode="6" horiz-adv-x="1024" d="M224 234q0 288 330 632q197 206 405 325l10 -21q-318 -190 -478 -580q-75 -183 -75 -333q0 -87 39 -145q45 -67 128 -67q80 0 138 66q93 107 93 252q0 75 -34 130q-41 65 -111 65q-108 0 -152 -135l-19 2q20 92 85 170q89 107 199 107q86 0 140 -68q49 -62 49 -151 q0 -137 -101 -271q-93 -125 -225 -187q-91 -43 -172 -43q-112 0 -180.5 69.5t-68.5 182.5z" />
<glyph unicode="7" horiz-adv-x="1024" d="M293 -251q79 158 372 567q-95 4 -171 4q-35 0 -78 -2l-5 25q33 45 65 94q42 -10 267 -12l158 220q25 35 25 48q0 21 -41 28q-66 12 -225 12q-168 0 -333 -33l-15 -3l-6 15q71 88 134 175q115 27 318 27q190 0 284 -18q27 -5 27 -27q0 -9 -56 -103l-28 -47l-177 -294 q36 -1 53 -1l6 -21q-31 -45 -65 -95q-22 2 -61 5q-130 -222 -273 -498l-15 -29q-77 -15 -150 -40z" />
<glyph unicode="8" horiz-adv-x="1024" d="M202 185q0 98 117 169q37 23 209 100q-99 97 -99 182q0 166 182 244l8 -12q-67 -53 -67 -107q0 -70 116 -162l64 -51q93 40 93 112q0 87 -174 179v18q86 34 162 79q147 -68 147 -180q0 -78 -72 -141q-27 -24 -131 -86q83 -76 100 -98q45 -58 45 -118q0 -130 -218 -266 q-93 -58 -184 -58q-107 0 -192 44q-106 54 -106 152zM377 270q0 -77 99 -119q76 -31 165 -31q50 0 109 8l3 10q7 23 7 45q0 93 -127 190l-81 62q-175 -78 -175 -165z" />
<glyph unicode="9" horiz-adv-x="1024" d="M246 -248q245 163 376 371q184 292 184 531q0 84 -37 142q-44 68 -124 68q-102 0 -172 -110q-62 -97 -62 -204q0 -73 33 -129q40 -65 109 -65q97 0 154 135l19 -6q-26 -97 -91 -172q-87 -100 -192 -100q-89 0 -141 64q-49 60 -49 151q0 176 158 337t353 161 q107 0 172.5 -69t65.5 -176q0 -287 -348 -641q-200 -204 -395 -309z" />
<glyph unicode=":" horiz-adv-x="314" d="M27 62q0 36 25.5 62t62.5 26q38 1 63.5 -25t25.5 -64q0 -36 -26 -62t-62 -26t-62.5 26.5t-26.5 62.5zM164 485q0 37 26 62.5t63 25.5t62.5 -25.5t25.5 -63.5q0 -36 -26 -62t-62 -26t-62.5 26.5t-26.5 62.5z" />
<glyph unicode=";" horiz-adv-x="498" d="M-14 -148q180 72 180 153q0 38 -43 109l161 67q22 -45 22 -80q0 -121 -294 -273zM256 485q0 37 26 62.5t63 25.5t62.5 -25.5t25.5 -63.5q0 -36 -26 -62t-62 -26q-37 0 -63 26t-26 63z" />
<glyph unicode="&#x3c;" horiz-adv-x="1024" d="M68 607v152l887 425v-177l-698 -324l698 -324v-177z" />
<glyph unicode="=" horiz-adv-x="1024" d="M225 308v67h778v-67h-778zM225 581v67h778v-67h-778z" />
<glyph unicode="&#x3e;" horiz-adv-x="1024" d="M69 182v177l697 324l-697 324v177l887 -425v-152z" />
<glyph unicode="?" horiz-adv-x="606" d="M202 36q0 36 25.5 62t62.5 26q38 1 63.5 -25t25.5 -64q0 -36 -26 -62t-62 -26t-62.5 26.5t-26.5 62.5zM225 416q0 67 48 100q31 21 130 53l90 29q140 45 140 137q0 108 -191 186l-86 35q-60 24 -60 47q0 61 190 159l6 -7q-13 -16 -13 -28q0 -18 30 -31l95 -40 q178 -75 178 -182q0 -81 -76 -163q-81 -88 -210 -150l-67 -32q-20 -10 -59 -34q8 -91 77 -208q-76 -30 -149 -68q-73 103 -73 197z" />
<glyph unicode="@" horiz-adv-x="1638" d="M284 579q0 197 112 381q129 212 365 344q207 116 423 116q219 0 381 -111q195 -134 195 -357q0 -128 -65.5 -244.5t-174.5 -190.5q-82 -56 -197.5 -92.5t-213.5 -36.5q-96 0 -96 72q0 31 16 76l25 75q-197 -210 -361 -210q-99 0 -99 115q0 175 234 356q228 176 409 176 q96 0 176 -33q-22 -47 -105 -215q-90 -182 -90 -243q0 -62 93 -62q187 0 272 182q41 88 41 195q0 230 -179 351q-147 99 -355 99q-239 0 -411 -127q-256 -189 -256 -537q0 -233 139 -383q161 -173 454 -173q259 0 498 132l21 -53q-332 -197 -636 -197q-262 0 -437 165 q-178 169 -178 430zM800 578q0 -77 67 -77q68 0 163 143q88 133 149 271q-82 23 -144 23q-134 0 -204 -209q-31 -90 -31 -151z" />
<glyph unicode="A" horiz-adv-x="2125" d="M105 432q94 45 177 97q98 -29 202 -46q126 -20 532 -36l436 -17q19 29 82 138l73 126q279 481 504 659q99 26 191 58q0 -169 -134 -528l-78 -209q-17 -46 -61 -180l-26 -79l228 -6l-157 -66l-96 -4l-42 -129q-36 -111 -36 -155q0 -8 2 -25q-110 -24 -224 -55 q52 133 86 233l43 127h-296q-146 -181 -268 -257q-155 -97 -371 -97q-269 0 -532 199q-148 112 -235 252zM393 371q92 -121 237 -213q204 -129 373 -129q133 0 236 95q71 66 155 212zM1576 426l258 -7l223 660q37 109 55 216q-87 -89 -192 -277l-106 -190 q-125 -224 -238 -402z" />
<glyph unicode="B" horiz-adv-x="1631" d="M334 1177q0 12 62 57q39 27 77 55q330 44 719 44q216 0 295 -10q225 -30 225 -134q0 -86 -173 -190l-95 -57q-105 -63 -105 -85q0 -28 50 -59l51 -32q137 -86 185 -147q51 -66 51 -155q0 -151 -144 -299q-192 -198 -487 -198q-135 0 -235 23q-46 11 -46 31q0 9 36 39 q62 51 103 92q97 -8 138 -8q53 0 143 6q-2 -4 -6 -14q-3 -5 -3 -14q0 -25 81 -25q111 0 182 38q93 48 93 149q0 190 -217 320l-70 42q-83 50 -113 79q-18 16 -18 46q0 32 25 54q15 13 113 65l81 43q184 98 184 149q0 104 -433 104q-253 0 -461 -15q-30 -2 -30 -13 q0 -7 21 -20q39 -24 50 -53q9 -21 9 -74q0 -89 -21 -199l83 255q100 26 195 62l-382 -1094q-85 -24 -172 -57l209 642q58 178 58 291q0 81 -55 128q-38 31 -131 64l-43 15q-79 28 -79 59z" />
<glyph unicode="C" horiz-adv-x="1482" d="M247 404q0 255 191 498q219 279 574 406q198 71 367 71q205 0 205 -129q0 -82 -124 -153q-46 -26 -169 -73l-7 18q105 42 105 103q0 66 -84 106q-69 32 -142 32q-191 0 -364 -118q-165 -112 -253 -288q-86 -172 -86 -354q0 -257 203 -357q146 -72 436 -72q140 0 280 17 l179 21l5 -13q-108 -50 -209 -113q-189 -39 -429 -39q-347 0 -516 114q-162 109 -162 323z" />
<glyph unicode="D" horiz-adv-x="2129" d="M298 1080q0 122 195 226q224 120 484 120q272 0 541 -124q341 -157 532 -401q157 -200 157 -384q0 -169 -167 -335q-203 -202 -496 -202q-40 0 -158 7l-118 7q-202 12 -352 12q-216 0 -373 -27l-4 9q101 72 191 156q89 10 208 10q213 0 359 -10l146 -10q277 -19 275 -19 q178 0 291 99q72 63 72 153q0 37 -14 97q-19 -4 -114 -33q-56 -17 -116 -17q-166 0 -489 45l-69 -194q-98 -44 -196 -105l103 326q-325 59 -577 197q-173 95 -255 226q-56 90 -56 171zM442 1159q0 -87 67 -172q197 -250 718 -377l122 377q112 37 217 83q-145 93 -332 158 q-270 93 -499 93q-164 0 -246 -59q-47 -34 -47 -103zM1387 568q460 -100 679 -100q-109 353 -495 599q-27 -52 -64 -158z" />
<glyph unicode="E" horiz-adv-x="1202" d="M137 261q0 133 196 252q63 38 123 62q17 7 242 82l96 32q95 32 95 42q0 8 -43 21q-118 36 -163 63q-89 54 -89 128q0 42 31 106l-110 -38l-5 9q101 62 200 131q179 182 353 244q93 33 157 33q24 0 24 -15q0 -25 -68 -92q-55 -54 -92 -81q-68 -49 -199 -96 q-69 -25 -112 -42q-2 -14 -2 -21q0 -101 171 -161l57 -20q100 -35 100 -58q0 -30 -190 -158q-81 -55 -222 -80l-61 -11q-297 -54 -297 -220q0 -141 210 -214q151 -53 351 -53q113 0 383 34l4 -9q-97 -54 -194 -124q-162 -33 -342 -33q-272 0 -447 86q-157 77 -157 201z" />
<glyph unicode="F" horiz-adv-x="1950" d="M352 976q0 81 89 156q40 34 158 103q73 119 226 164q106 31 285 31q227 0 497 -34l525 -66q-39 -33 -79 -65q-56 -53 -56 -82q-72 10 -317 44q-377 53 -706 53q-422 0 -422 -183q0 -122 151 -277q115 -118 273 -188q110 -48 318 -100l167 493q28 83 36 128q107 20 202 61 l-246 -707q202 -25 661 -41v-11q-69 -54 -131 -113q-161 5 -275 5h-311l-207 -559q-88 -37 -179 -86h-5l224 645h-76q-325 0 -458 -76l-7 11q144 175 197 195q41 15 397 19q-397 86 -629 193q-302 139 -302 287z" />
<glyph unicode="G" horiz-adv-x="1905" d="M18 182q94 51 170 105q413 60 848 69l542 11l33 115q41 142 73 213q-383 -202 -566 -202q-117 0 -196 56q-89 63 -89 175q0 178 184 361q196 194 450 287q165 60 314 60q89 0 158 -32q88 -42 88 -122q0 -90 -111 -158q-49 -30 -155 -60l-7 16q82 42 82 119q0 75 -90 114 q-69 30 -155 30q-193 0 -351 -121q-85 -65 -139 -159q-57 -101 -57 -202q0 -109 78 -179t188 -70q243 0 607 259l11 -7q-81 -219 -123 -368l-36 -129l281 -6q-89 -60 -177 -127l-148 2q-87 -249 -222 -357q-217 -174 -529 -174t-629 194q-212 130 -327 287zM211 265 q146 -162 397 -296q329 -176 590 -176q115 0 173 48q79 66 126 231l47 165l-1059 33q-64 2 -88 2q-97 0 -186 -7z" />
<glyph unicode="H" horiz-adv-x="2645" d="M184 536q115 29 187 90q934 -90 1260 -90q34 0 121 2l215 582q-52 -25 -105 -46l-5 12q111 110 210 241q106 31 213 76q-57 -115 -96 -216l-247 -647q61 1 123 6q159 424 329 611q74 81 161 148q119 92 190 92q82 0 82 -122q0 -110 -47 -239q-45 -124 -114 -216 q-134 -178 -412 -292q-72 -220 -72 -310q0 -130 284 -130q105 0 285 24l30 4l2 -15q-262 -75 -301 -84q-184 -45 -309 -45q-198 0 -198 177q0 142 68 327q-66 -7 -135 -16q-66 -126 -129 -197q-69 -78 -185 -147q-228 -137 -450 -137q-330 0 -642 233q-200 149 -313 324z M520 457q116 -143 312 -245q285 -148 501 -148q244 0 387 389q-71 -4 -182 -11q-183 -12 -356 -12q-280 0 -662 27zM2267 581q186 81 255 190q50 78 83.5 201t33.5 218q0 97 -32 97q-48 0 -189 -327q-82 -191 -151 -379z" />
<glyph unicode="I" horiz-adv-x="1574" d="M251 44q0 14 69 66q45 34 90 84q110 -4 185 -4q80 0 269 13q-31 -35 -36 -39q-22 -24 -22 -30q0 -14 40 -14q105 0 242 31q224 50 342 230q108 164 108 403q0 270 -149 407q-105 97 -253 97q-315 0 -656 -467q-102 -56 -205 -119l-7 9q247 278 508 472q344 255 586 255 q255 0 340 -263q32 -101 32 -219q0 -300 -189 -535q-171 -211 -466 -337q-260 -111 -523 -111q-73 0 -167 14q-138 20 -138 57z" />
<glyph unicode="J" horiz-adv-x="1512" d="M-54 -297q0 5 71 65q42 34 83 68q100 17 277 83l323 121q193 72 540 196q224 420 224 781q0 325 -221 325q-326 0 -939 -603l-6 2q24 61 43 119q250 231 542 397q339 193 544 193q140 0 213 -87q68 -80 68 -223q0 -208 -104 -458q-92 -218 -236 -409q150 42 312 48 l14 -26q-211 -11 -355 -56q-213 -257 -458 -395q-320 -180 -689 -180q-246 0 -246 39zM365 -184q77 -7 113 -7q263 0 460 106q147 79 282 287q-149 -49 -594 -270q-112 -56 -261 -116z" />
<glyph unicode="K" horiz-adv-x="2132" d="M52 13q75 63 151 129q279 108 695 388l54 193q52 185 133 419l-80 -41l-14 15q95 111 179 222q200 74 191 74q11 0 11 -14q0 -7 -6 -18q-46 -86 -127 -344l-111 -354l112 74l-9 52q88 27 163 53q303 258 515 394q248 159 327 159q18 0 18 -14q0 -22 -67 -89 q-121 -122 -382 -257l-292 -151q-69 -36 -101 -57q88 -332 213 -520q163 -246 448 -246q80 0 159 24l5 -10q-281 -129 -439 -129q-380 0 -553 765l-130 -87q-178 -467 -556 -612q-139 -54 -276 -54q-126 0 -231 36zM344 128q90 -22 163 -22q210 0 276 101q40 61 107 285 l-387 -253q-97 -63 -159 -111z" />
<glyph unicode="L" horiz-adv-x="1772" d="M46 2q0 24 77 57l9 12q43 57 131 77q111 25 452 50q48 60 97 228l33 112q52 177 69 226q45 128 101 213q133 204 393 334q204 102 318 102q148 0 148 -153q0 -191 -228 -424q-183 -187 -455 -384l-8 11q175 158 284 305q189 255 189 432q0 129 -112 129q-197 0 -419 -553 l-43 -107q-107 -265 -347 -470q76 2 154 2q469 0 914 -98l31 38l10 -59q-77 -62 -155 -134q-212 54 -352 76q-283 45 -561 45q-93 0 -201 -10q-193 -92 -391 -92q-138 0 -138 35z" />
<glyph unicode="M" horiz-adv-x="2306" d="M-52 -173q0 16 20 31l165 123l13 -10l-23 -34q75 -41 226 -41q157 0 257 41q119 49 196 167q104 160 219 440l62 151q133 323 281 461q236 220 353 220q75 0 75 -91q0 -109 -126 -396l-109 -248q-35 -80 -69 -166q350 496 695 730q98 66 130 66q34 0 34 -36 q0 -13 -12 -51l-47 -147q-129 -403 -129 -721q0 -248 175 -248q38 0 95 20v-13q-57 -34 -156 -70q-110 -39 -164 -39q-144 0 -144 252q0 240 107 640l27 101q25 94 25 125q0 25 -19 25q-22 0 -165 -152q-344 -367 -616 -921q-92 -30 -180 -67q72 257 201 569l136 330 q101 245 101 322q0 60 -48 60q-29 0 -70 -58q-71 -99 -146 -263l-105 -228q-184 -399 -378 -620q-152 -173 -359 -256q-157 -63 -306 -63q-61 0 -124 11q-98 18 -98 54z" />
<glyph unicode="N" horiz-adv-x="2198" d="M-44 -159q0 13 32 40q12 10 100 90q97 4 199 14l-55 -64q59 -8 129 -8q286 0 446 159q130 129 285 460l91 194q141 300 343 485q199 182 250 182q59 0 59 -146q0 -26 -1 -40l-8 -113q-18 -254 -18 -449q0 -539 143 -539q58 0 126 196q51 148 69 286q-52 88 -52 210 q0 173 69 258q75 40 145 86q7 -33 7 -77q0 -221 -37 -339q15 -39 33 -74l-69 -57q-87 -273 -202 -449q-140 -215 -243 -215q-178 0 -178 610v-3l3 120l9 421q1 47 1 32q0 115 -33 115q-44 0 -142 -221l-61 -138q-151 -343 -279 -511q-248 -328 -537 -469 q-221 -108 -405 -108q-60 0 -122 11q-97 17 -97 51z" />
<glyph unicode="O" horiz-adv-x="1385" d="M263 416q0 351 312 660q136 135 289 214l10 -13q-171 -96 -270 -221q-169 -214 -169 -469q0 -214 119 -370q126 -165 332 -165q243 0 405 237q131 191 131 424q0 249 -110 408q-99 144 -239 144q-125 0 -200 -133q-70 -124 -70 -258q0 -76 29 -195l-13 -4 q-51 136 -67 285q56 158 178 289q158 169 324 169q131 0 223 -112q108 -131 108 -370q0 -264 -149 -512q-144 -239 -376 -380q-187 -113 -377 -113q-149 0 -257 94q-163 141 -163 391z" />
<glyph unicode="P" horiz-adv-x="1509" d="M-58 -473l218 672q196 604 332 1074l11 38q114 27 232 63l-12 -34q-142 -402 -199 -594q184 295 368 449q230 193 426 193q171 0 259 -137q74 -117 74 -297q0 -286 -180 -542q-162 -231 -424 -359q-221 -108 -448 -108q-106 0 -173 13q-41 8 -41 29q0 11 20 26 q65 48 120 112q149 2 302 20l-53 -63q43 -2 62 -2q436 0 556 370q58 179 58 360q0 230 -114 362q-80 93 -200 93q-175 0 -360 -232q-117 -147 -231 -373q-128 -255 -215 -495l-210 -583q-88 -26 -178 -55z" />
<glyph unicode="Q" horiz-adv-x="1426" d="M192 386q0 275 192 548q160 228 397 382q207 135 390 135q193 0 304 -147q101 -133 101 -332q0 -341 -281 -688q-85 -105 -270 -290q64 -8 186 -40l83 -22q13 -3 45 -12q84 -24 137 -24q33 0 70 8l5 -12q-31 -25 -100 -62q-74 -40 -122 -90q-19 -1 -26 -1q-55 0 -186 37 l-92 26q-103 29 -178 29q-16 0 -57 -5l-36 -24q-23 -15 -39 -15q-14 0 -14 12q0 27 113 119q87 71 164 79q164 128 261 289q149 246 149 536q0 194 -98 325q-119 159 -322 159q-242 0 -418 -236q-182 -244 -182 -542q0 -211 144 -346q113 -106 258 -106q160 0 279 120 q52 52 103 145l19 -8q-78 -148 -192 -246q-173 -150 -388 -150q-188 0 -297 133q-102 123 -102 316z" />
<glyph unicode="R" horiz-adv-x="1777" d="M366 1128v15q67 57 135 123q355 63 808 63q316 0 451 -68q87 -44 87 -101q0 -70 -158 -189q-96 -72 -188 -110q-64 -27 -210 -66q-78 -21 -146 -51q54 -213 256 -415q218 -218 413 -218q43 0 114 30l9 -14q-120 -69 -221 -160q-24 -3 -46 -3q-230 0 -472 279 q-124 143 -194 301q-33 74 -33 101q0 33 90 83q135 75 323 134l108 34q160 50 160 117q0 159 -492 159q-347 0 -615 -32l-66 -56q-55 26 -113 44zM450 4q0 35 22 153q26 138 28 218l37 -62l271 752q104 32 206 76l-394 -1088q-76 -33 -154 -77h-15q-1 20 -1 28z" />
<glyph unicode="S" horiz-adv-x="1480" d="M37 32q0 13 34 38q65 49 106 98q29 -1 169 -9q71 -4 149 -4q40 0 122 4q20 1 48 1q-25 -33 -53 -75q102 -7 185 -7q216 0 366 42q243 67 243 228q0 177 -356 264l-152 37q-239 58 -239 207q0 115 130 247q189 193 463 282q113 37 197 37q170 0 170 -111q0 -72 -112 -187 q-78 -81 -172 -148l-12 10q102 83 102 165q0 145 -207 145q-154 0 -278 -99q-100 -80 -100 -173q0 -150 248 -212l144 -36q335 -84 335 -265q0 -154 -162 -289q-323 -270 -873 -270q-232 0 -409 37q-86 18 -86 43z" />
<glyph unicode="T" horiz-adv-x="1683" d="M269 864q0 181 116 315q200 230 597 230q247 0 591 -128q196 -73 355 -159v-19q-23 -51 -23 -93q0 -21 6 -64q-731 360 -1178 360q-150 0 -217 -46q-93 -64 -93 -253q0 -152 63 -296t175 -243q174 -154 324 -154h11l1 -13q-96 -56 -210 -56q-82 0 -183 58 q-87 51 -152 121q-183 197 -183 440zM1113 -45l352 1016q93 18 202 47l-364 -980q281 93 468 110q49 -38 99 -71l-8 -11q-89 22 -146 22q-121 0 -301 -43q-171 -42 -291 -95z" />
<glyph unicode="U" horiz-adv-x="1824" d="M301 1128q319 254 611 254q104 0 171 -54q73 -59 73 -160q0 -99 -66 -259q-39 -93 -214 -423l-83 -156q-72 -135 -72 -182q0 -63 69 -63q234 0 564 611l168 311q67 125 108 173q50 59 156 131l76 58q63 48 73 48q30 0 30 -51q0 -66 -69 -254q-48 -123 -96 -247l-83 -216 q-141 -367 -141 -454q0 -109 172 -109q81 0 203 28l2 -23q-307 -109 -447 -109q-145 0 -145 123q0 76 70 261l300 791q20 53 20 68q0 13 -12 13q-28 0 -98 -142l-62 -125q-147 -297 -287 -498q-232 -333 -504 -457q-120 -55 -208 -55q-90 0 -90 82q0 54 78 203l130 249 q121 232 146 287q87 193 87 306q0 98 -58 153.5t-156 55.5q-192 0 -410 -232z" />
<glyph unicode="V" horiz-adv-x="1643" d="M313 1133q171 191 196 201q79 32 412 32q255 0 357 -26q43 -11 43 -39q0 -29 -52 -67l-45 -33q-452 -331 -452 -672q0 -174 105 -296q110 -128 281 -128q107 0 205 58q93 56 152 150q127 202 127 526q0 69 -12 151l-48 -41q9 81 9 175q0 72 -6 137q75 35 202 147 q39 -169 39 -352q0 -271 -111 -508q-115 -243 -325 -405q-220 -169 -429 -169q-178 0 -283 120q-100 114 -100 295q0 208 138 391q81 107 266 259l78 64l13 12q21 19 21 31q0 23 -43 30q-119 20 -298 20q-225 0 -342 -27q-47 -11 -82 -49z" />
<glyph unicode="W" horiz-adv-x="2303" d="M330 1130l9 59q308 214 555 214q129 0 202 -69t73 -197q0 -219 -227 -684l-40 -82q-30 -61 -51 -118q26 25 54 54l23 24l65 71q61 67 105 112l291 300q204 210 384 352q117 19 230 41l7 -13q-163 -105 -298 -270q-207 -253 -207 -477q0 -163 106 -258q92 -83 229 -83 q204 0 328 178q120 172 120 413q0 207 -75 333l-28 -38q-13 53 -48 123q-41 81 -41 166q0 4 1 13q87 42 168 92q171 -213 171 -528q0 -264 -149 -483q-128 -188 -328 -301q-167 -94 -316 -94q-152 0 -249 111q-92 106 -92 261q0 237 239 558q-109 -87 -264 -268l-332 -388 q-139 -163 -170 -229q-92 -13 -182 -34q7 57 109 285l64 143q189 422 189 603q0 126 -75.5 200t-202.5 74q-194 0 -347 -166z" />
<glyph unicode="X" horiz-adv-x="1746" d="M-17 -121q0 10 17 29q81 89 117 152q92 8 184 25l-39 -54q25 -2 40 -2q99 0 229 59q78 35 141 102q28 29 109 137l207 274l-56 448q-13 106 -44 106q-28 0 -136 -198q-121 -223 -177 -386q-67 -56 -128 -118l-12 8l183 337q161 297 342 531q61 79 90 79q52 0 71 -143 q6 -38 12 -177l7 -153q2 -52 10 -137q14 16 51 56l33 35l343 369q156 33 309 77l11 -14q-473 -407 -725 -684q52 -342 298 -463q102 -50 222 -50q104 0 192 32l6 -16q-123 -60 -239 -145q-74 -21 -136 -21q-210 0 -348 159q-103 119 -156 337l-160 -155q-211 -204 -388 -323 q-213 -143 -377 -143q-103 0 -103 30z" />
<glyph unicode="Y" horiz-adv-x="1407" d="M8 -294q0 11 25 30q8 6 52 45q96 85 168 85q29 0 74 -10q27 11 108 42l227 86l256 93q72 26 142 56l122 373q-128 -167 -234 -240q-133 -92 -263 -92q-268 0 -268 323q0 80 10 179l17 168q17 168 17 276q0 113 -38 203q114 48 223 106q27 -19 27 -129q0 -61 -23 -265 l-17 -151q-25 -222 -25 -329q0 -162 69 -231q57 -57 143 -57q125 0 241 142q86 105 178 375l195 570q108 32 215 69l-9 -26q-82 -236 -249 -744l-65 -210q-46 -150 -90 -248q213 76 368 103l5 -20q-179 -38 -388 -116q-89 -178 -279 -307q-276 -187 -523 -187 q-114 0 -205 25q-85 -21 -135 -21q-71 0 -71 34zM469 -177q129 -33 216 -33q244 0 360 299q-382 -146 -576 -266z" />
<glyph unicode="Z" horiz-adv-x="1758" d="M60 34q0 75 149 166q249 152 495 152q37 0 94 -5l204 166q-127 0 -200 12v16q85 54 167 117q85 -9 196 -12l259 210q134 109 300 225q-137 -50 -189 -50q-47 0 -260 164q-180 139 -279 139q-211 0 -374 -513q-101 -55 -198 -117l-12 8q12 70 95 292l38 102q28 74 54 186 q89 44 175 95l11 -7q3 -24 3 -48q0 -40 -8 -94q236 201 417 201q131 0 269 -110l141 -112q116 -92 140 -92q65 0 180 82l9 -12l-273 -225q-12 -10 -133 -107q-175 -140 -268 -221q62 4 188 7q50 1 154 22l8 -13q-69 -55 -134 -124l-33 -2q-129 -9 -360 -20 q-123 -82 -223 -174q88 -13 222 -57l169 -56q221 -73 247 -81q145 -41 256 -45l-12 74q55 -35 111 -68v-15q-74 -76 -138 -160q-30 -2 -44 -2q-137 0 -487 126l-136 49q-182 65 -372 105q-203 -132 -320 -178q-131 -51 -224 -51q-74 0 -74 55zM247 148q0 -73 91 -73t297 144 q-138 27 -200 27q-188 0 -188 -98z" />
<glyph unicode="[" horiz-adv-x="540" d="M0 -374l577 1775h370l-15 -47h-224l-546 -1681h223l-15 -47h-370z" />
<glyph unicode="\" d="M269 1400q54 -2 100 -6l631 -1767q-22 1 -37 1q-16 0 -55 -3q-6 24 -61 182l-450 1295q-7 20 -39 95q-13 29 -47 112q-25 60 -42 91z" />
<glyph unicode="]" horiz-adv-x="540" d="M-204 -374l15 47h224l546 1681h-223l15 47h370l-577 -1775h-370z" />
<glyph unicode="^" horiz-adv-x="1024" d="M60 760l351 609h201l351 -609h-166l-287 488l-285 -488h-165z" />
<glyph unicode="_" horiz-adv-x="1024" d="M0 -142h1024v-115h-1024v115z" />
<glyph unicode="`" horiz-adv-x="1024" d="M554 937l8 9q81 -21 163 -30q33 -161 154 -213l-5 -11q-99 26 -186 90q-95 69 -134 155z" />
<glyph unicode="a" d="M73 88q0 163 212 327q202 157 370 157q86 0 160 -31q-16 -36 -94 -194q-81 -165 -81 -226q0 -50 84 -50q66 0 110 12l5 -15q-262 -92 -317 -92q-68 0 -68 63q0 23 18 76q10 30 18 59q-180 -191 -327 -191q-90 0 -90 105zM257 145q0 -71 61 -71q63 0 148 130 q79 120 134 246q-76 22 -131 22q-121 0 -184 -189q-28 -83 -28 -138z" />
<glyph unicode="b" horiz-adv-x="668" d="M76 94q0 47 34 153l283 881q91 12 184 31l-207 -602q64 5 120 29q52 22 80 22q75 0 106 -64q31 -9 63 -14l5 -25l-52 -12q2 -17 2 -31q0 -156 -109 -278q-74 -83 -171 -138q-110 -63 -208 -63q-53 0 -90 29q-40 31 -40 82zM253 171q0 -94 118 -94q65 0 98 59 q57 101 57 220q0 87 -67 143q-52 16 -92 47l-82 -242q-32 -94 -32 -133z" />
<glyph unicode="c" horiz-adv-x="621" d="M79 118q0 157 168 311q182 167 352 167q98 0 98 -71q0 -118 -233 -196l-7 11q53 56 53 125q0 39 -37 83q-73 -45 -124 -121q-77 -116 -77 -225q0 -136 197 -136q27 0 207 20l5 -10q-246 -92 -422 -92q-180 0 -180 134z" />
<glyph unicode="d" horiz-adv-x="665" d="M85 155q0 175 176 307q139 104 301 131q-8 176 -74 298q-78 145 -198 145q-56 0 -130 -44l-8 12l182 109q58 35 103 35q81 0 149 -72q125 -132 125 -399q0 -249 -128 -450q-64 -100 -149 -166q-103 -78 -205 -78q-144 0 -144 172zM270 230q0 -56 23 -103q28 -58 79 -58 q94 0 153 190q37 119 37 310q-111 -21 -194 -114q-98 -109 -98 -225z" />
<glyph unicode="e" horiz-adv-x="679" d="M84 145q0 167 177 302q170 129 338 129q111 0 111 -94q0 -110 -159 -215q-115 -77 -256 -121q84 -89 262 -89q79 0 149 18l5 -15q-262 -82 -414 -82q-213 0 -213 167zM266 239q0 -43 19 -78q90 43 154 117q75 86 75 174q0 63 -62 63q-101 0 -163 -162q-23 -61 -23 -114z " />
<glyph unicode="f" horiz-adv-x="658" d="M88 144q0 149 137 294q78 82 128 82q12 0 31 -6q109 317 213 553q87 26 166 59q14 -118 14 -255q0 -318 -75 -474q-77 -160 -152 -233l-8 10q61 115 89 223q51 197 51 449q0 50 -4 112q-80 -183 -256 -886q51 -8 101 -8q73 0 239 18l-12 -17q-257 -79 -352 -91l-87 -354 q-83 -13 -165 -28l99 385q-157 42 -157 167zM195 271q0 -111 84 -155l18 63q22 77 22 150q0 99 -56 99q-68 0 -68 -157z" />
<glyph unicode="g" horiz-adv-x="782" d="M70 -365q0 76 160 241q89 91 254 204q23 78 52 167q-274 -241 -370 -241q-85 0 -85 108q0 159 210 327q200 161 364 161q85 0 164 -21q-95 -222 -131 -391q131 62 184 73v-19q-33 -16 -103 -45q-57 -24 -91 -44q-34 -132 -73 -201q-44 -77 -139 -162q-225 -201 -340 -201 q-56 0 -56 44zM200 -238q0 -22 91 -22q69 0 96 21t43 89l18 74q2 12 9 44q8 38 19 77q-193 -124 -253 -239q-8 -15 -17 -32q-6 -8 -6 -12zM274 193q0 -63 48 -63q78 0 180 143q72 101 120 211q-78 17 -137 17q-76 0 -116 -45q-32 -36 -63.5 -124t-31.5 -139z" />
<glyph unicode="h" horiz-adv-x="757" d="M69 -10l333 1120q99 24 199 53l-275 -822q213 246 386 246q62 0 62 -58q0 -18 -20 -70l-81 -211q-26 -68 -26 -100q0 -59 100 -59q38 0 84 4l4 -15q-258 -98 -316 -98q-68 0 -68 74q0 69 73 253l25 63q17 43 17 57q0 22 -34 22q-107 0 -200 -170q-32 -60 -108 -260 l-73 -13z" />
<glyph unicode="i" horiz-adv-x="461" d="M117 71q0 50 44 160l117 293q100 23 197 59l-133 -304q-42 -96 -42 -136q0 -63 100 -63q46 0 133 14v-18q-257 -95 -321 -95q-95 0 -95 90zM351 833q0 45 32.5 76t77.5 32q41 0 65.5 -27.5t24.5 -68.5q0 -44 -31.5 -74t-75.5 -30q-40 0 -66.5 26t-26.5 66z" />
<glyph unicode="j" horiz-adv-x="535" d="M34 99v138q73 136 177 230q136 124 223 124q54 0 54 -75q0 -82 -118 -425q120 84 163 102l29 -22q-128 -50 -206 -116q-2 -7 -46 -110l-139 -329q-67 -10 -133 -28q1 13 4 39q0 7 2 38q8 161 102 264q165 386 165 510q0 37 -29 37q-74 0 -154 -156q-52 -103 -86 -220z M378 849q0 45 32.5 76t77.5 32q41 0 65.5 -27.5t24.5 -68.5q0 -44 -31.5 -74t-75.5 -30q-40 0 -66.5 26t-26.5 66z" />
<glyph unicode="k" horiz-adv-x="717" d="M63 -25l346 1114q94 20 193 52l-283 -841q201 266 351 266q88 0 88 -84q0 -92 -125 -193l-9 8q15 29 15 57q0 43 -36.5 74.5t-80.5 31.5q-79 0 -79 -107q0 -122 80 -214q84 -96 205 -96q12 0 38 2l2 -7q-178 -74 -261 -74q-61 0 -107 40q-66 57 -66 167q0 62 23 133 q-72 -100 -133 -288q-82 -16 -161 -41z" />
<glyph unicode="l" horiz-adv-x="560" d="M76 112q0 127 134 439q119 278 246 505q87 23 175 55q4 -57 4 -126q0 -400 -101 -585q-85 -156 -259 -305q64 -44 214 -44q34 0 109 9l3 -14q-256 -80 -373 -80q-152 0 -152 146zM246 168q0 -27 15 -56q143 124 200 309q67 219 78 564q-92 -192 -175 -405 q-118 -301 -118 -412z" />
<glyph unicode="m" horiz-adv-x="1139" d="M52 -27l199 541q88 19 186 48q-45 -87 -89 -186q210 194 349 194q63 0 63 -56q0 -23 -27 -79l-32 -66q219 195 361 195q68 0 68 -52q0 -23 -17 -65l-88 -219q-27 -67 -27 -96q0 -66 100 -66q41 0 87 16l2 -14q-247 -103 -312 -103q-71 0 -71 72q0 32 25 99l76 203 q20 53 20 68q0 35 -60 35q-105 0 -247 -314l-53 -117q-82 -16 -164 -41l128 345q25 67 25 90q0 31 -63 31q-109 0 -228 -294l-54 -133q-81 -13 -157 -36z" />
<glyph unicode="n" horiz-adv-x="820" d="M59 -33l189 545q93 24 187 54l-94 -230q219 227 362 227q93 0 93 -72q0 -23 -13 -52l-114 -255q-27 -60 -27 -85q0 -58 94 -58q30 0 110 16l4 -15q-245 -85 -319 -85q-85 0 -85 77q0 50 37 129l71 152q36 77 36 92q0 23 -55 23q-81 0 -152 -95q-29 -39 -65 -111l-3 -8 q-32 -64 -52 -124l-25 -75q-92 -24 -179 -50z" />
<glyph unicode="o" horiz-adv-x="689" d="M49 104q0 220 311 372q-46 28 -46 37q0 7 26 11q49 7 103 27q77 29 97 29q59 0 97 -62q35 -5 71 -6l10 -15q-29 -27 -58 -45q1 -37 1 -47q0 -162 -139 -297q-153 -149 -325 -149q-148 0 -148 145zM236 176q0 -57 32.5 -94.5t88.5 -37.5q66 0 99 54q46 75 46 174 q0 68 -30 162q-49 9 -91 29q-60 -53 -101 -130q-44 -83 -44 -157z" />
<glyph unicode="p" horiz-adv-x="802" d="M9 -413l125 395q-50 21 -94 45l124 55l76 239q16 50 16 81q0 41 -35 41q-40 0 -108 -90q-44 -58 -99 -180v101q88 131 195 212q126 96 200 96q47 0 47 -44q0 -19 -7 -46l-22 -84q171 167 289 167q105 0 105 -117q0 -151 -155 -285q-58 -50 -170 -99l129 -7q66 -1 198 -7 q-122 -65 -156 -65h-1l-26 1h-283q-39 -19 -77 -32l-110 -348q-82 -13 -161 -29zM313 83l139 -7q111 85 155 226q19 60 19 100q0 77 -55 77q-131 0 -258 -396z" />
<glyph unicode="q" horiz-adv-x="722" d="M35 67q0 175 198 326q227 173 395 173q59 0 138 -16l-238 -670q67 49 127 88l7 -8q-166 -172 -252 -354q-78 -18 -150 -39l216 611q-213 -207 -359 -207q-82 0 -82 96zM231 151q0 -82 56 -82q109 0 294 372q-53 18 -131 18q-84 0 -110 -24q-45 -41 -78 -132 q-31 -85 -31 -152z" />
<glyph unicode="r" horiz-adv-x="506" d="M92 62q0 78 156 209q40 33 218 160q-77 0 -142 -4q-12 -19 -23 -39q-12 -15 -41 -26q-36 -14 -80 -15l34 77q-32 9 -32 42q0 20 19 64q18 41 33 59q38 46 173 66l-37 -119h-3l83 -2h8q31 0 125 6v-30q-91 -74 -171 -163q-114 -127 -114 -195q0 -92 168 -92q6 0 109 10 l5 -13q-228 -89 -373 -89q-115 0 -115 94z" />
<glyph unicode="s" horiz-adv-x="553" d="M39 -3q0 4 32 48q35 49 37 52l119 -2l-14 -44q31 -8 56 -8q27 0 60 9q44 11 44 30q0 29 -84 96l-74 59q-64 51 -64 97q0 92 130 185q121 86 218 86q105 0 105 -88q0 -81 -144 -164l-9 10q44 45 44 70q0 51 -98 51q-69 0 -140 -18q21 -47 67 -86l79 -67q87 -74 87 -114 q0 -57 -127 -158q-100 -79 -181 -79q-143 0 -143 35z" />
<glyph unicode="t" horiz-adv-x="500" d="M144 60q0 59 37 164l90 256q-55 -2 -110 -5q27 41 49 78q44 -3 86 -5l88 248q85 11 170 31l-104 -279q59 2 118 5l-44 -83q-49 5 -100 7l-61 -167q-45 -123 -45 -170q0 -88 145 -88q36 0 98 10l4 -14l-26 -8q-143 -44 -219 -62q-43 -10 -82 -10q-94 0 -94 92z" />
<glyph unicode="u" horiz-adv-x="800" d="M78 41q0 41 32 120l147 362q92 18 192 45l-150 -344q-34 -78 -34 -103q0 -39 51 -39q121 0 307 438q93 21 185 45l-134 -315q-42 -99 -42 -128q0 -56 86 -56q32 0 109 18l5 -13q-233 -98 -307 -98t-74 66q0 26 22 76l43 97q-105 -113 -182 -166q-106 -73 -194 -73 q-62 0 -62 68z" />
<glyph unicode="v" horiz-adv-x="704" d="M58 45q0 41 25 109l121 328q93 27 190 62l-114 -286q-42 -105 -42 -149q0 -65 105 -65q94 0 141 101q36 76 36 182q0 42 -11 107l-42 28q-32 21 -32 30q0 13 40 24q34 9 81 26q53 19 63 19q37 0 62 -45q27 -6 57 -9l7 -16q-26 -20 -50 -36q0 -136 -103 -270 q-74 -96 -180 -160q-117 -70 -228 -70q-126 0 -126 90z" />
<glyph unicode="w" horiz-adv-x="1038" d="M46 14q0 36 29 112l145 380q92 20 189 54l-123 -293q-42 -100 -42 -139q0 -47 48 -47q81 0 181 182q72 132 108 252q95 18 186 47l-109 -288q-38 -100 -38 -138q0 -79 108 -79q78 0 118 75q47 87 47 209q0 108 -57 137q-17 8 -17 14q0 13 76 40.5t99 27.5q47 0 61 -57 q24 -3 51 -6l2 -8q-26 -21 -50 -36q-10 -207 -207 -373q-58 -49 -137 -85q-89 -42 -154 -42q-118 0 -118 110q0 56 23 123q-71 -83 -161 -148q-115 -82 -198 -82q-60 0 -60 58z" />
<glyph unicode="x" horiz-adv-x="775" d="M105 243q0 48 1 101q66 64 178 156q89 73 125 73q48 0 70 -60q16 -41 44 -182q84 93 179 221q62 9 128 21q-102 -116 -296 -291q26 -110 63 -156q50 -62 148 -62q23 0 87 10l1 -13q-189 -98 -288 -98q-108 0 -162 195q-28 -23 -125 -98q-123 -95 -133 -95q-13 0 -13 26 q0 116 23 140q36 38 127 82q-17 -42 -17 -84q0 -36 14 -36q17 0 116 95q-3 9 -11 44l-8 35l-16 64q-24 98 -81 98q-81 0 -143 -187z" />
<glyph unicode="y" horiz-adv-x="752" d="M62 20q0 28 19 80l155 424q96 23 193 51l-158 -402q-19 -48 -19 -68q0 -39 39 -39q81 0 186 191q65 119 117 260q88 25 185 56l-256 -721q69 39 134 71l4 -11q-134 -110 -224 -298q-84 -21 -165 -51l214 631q-216 -238 -358 -238q-66 0 -66 64z" />
<glyph unicode="z" horiz-adv-x="656" d="M37 -32q0 18 33 57q91 109 188 122l140 134q56 53 94 95q-68 -27 -102 -27q-26 0 -84 17q-21 6 -39 6q-57 0 -103 -100l-43 -11l129 341q45 11 94 26l-85 -187q77 92 165 92q33 0 130 -16q30 -5 57 -5q50 0 86 9l4 -7q-87 -81 -134 -122l-160 -139q-76 -66 -112 -105 q48 -4 129 -32q119 -41 182 -41q35 0 103 19l7 -15q-219 -126 -329 -126q-46 0 -123 26l-56 19q-50 17 -82 17q-5 0 -13 -1q-69 -47 -69 -52q0 -1 1 -1q-8 0 -8 7z" />
<glyph unicode="{" horiz-adv-x="696" d="M194 -227q0 58 32 157l119 367q22 68 22 104q0 67 -76 91l15 47q131 35 180 187l128 396q72 223 245 264q62 15 162 15q5 0 22 -1l-15 -48q-113 -3 -166 -41q-56 -39 -90 -145l-137 -422q-55 -171 -189 -233q61 -40 61 -111q0 -46 -26 -126l-132 -406q-24 -74 -24 -108 q0 -83 154 -87l-15 -47q-152 3 -190 18q-80 32 -80 129z" />
<glyph unicode="|" horiz-adv-x="1024" d="M423 -341v1706h178v-1706h-178z" />
<glyph unicode="}" horiz-adv-x="696" d="M-122 -374l15 48q113 3 167.5 41.5t88.5 144.5l137 422q55 169 189 232q-60 42 -60 112q0 49 25 126l132 406q24 74 24 108q0 84 -154 86l15 48q152 -3 190 -18q80 -32 80 -129q0 -58 -32 -157l-119 -367q-21 -65 -21 -104q0 -67 75 -91l-15 -47q-131 -35 -180 -187 l-128 -396q-72 -222 -245 -264q-62 -15 -162 -15q-5 0 -22 1z" />
<glyph unicode="~" horiz-adv-x="1365" d="M193 1255q110 236 279 236q79 0 234 -77q137 -68 193 -68q97 0 182 150l94 -74q-42 -89 -85 -140q-83 -98 -195 -98q-65 0 -231 80q-139 67 -198 67q-95 0 -179 -150z" />
<glyph unicode="&#xad;" horiz-adv-x="342" d="M96 489q33 45 65 94q47 -11 155 -11q69 0 138 -2l6 -21q-31 -45 -65 -95q-99 12 -216 12q-35 0 -78 -2z" />
<glyph unicode="&#xc0;" horiz-adv-x="2125" d="M105 432q94 45 177 97q98 -29 202 -46q126 -20 532 -36l436 -17q19 29 82 138l73 126q279 481 504 659q99 26 191 58q0 -169 -134 -528l-78 -209q-17 -46 -61 -180l-26 -79l228 -6l-157 -66l-96 -4l-42 -129q-36 -111 -36 -155q0 -8 2 -25q-110 -24 -224 -55 q52 133 86 233l43 127h-296q-146 -181 -268 -257q-155 -97 -371 -97q-269 0 -532 199q-148 112 -235 252zM393 371q92 -121 237 -213q204 -129 373 -129q133 0 236 95q71 66 155 212zM1576 426l258 -7l223 660q37 109 55 216q-87 -89 -192 -277l-106 -190 q-125 -224 -238 -402zM1974 1702l10 9q98 -21 195 -30q40 -161 185 -213l-6 -11q-114 25 -217 86q-119 70 -167 159z" />
<glyph unicode="&#xc1;" horiz-adv-x="2125" d="M105 432q94 45 177 97q98 -29 202 -46q126 -20 532 -36l436 -17q19 29 82 138l73 126q279 481 504 659q99 26 191 58q0 -169 -134 -528l-78 -209q-17 -46 -61 -180l-26 -79l228 -6l-157 -66l-96 -4l-42 -129q-36 -111 -36 -155q0 -8 2 -25q-110 -24 -224 -55 q52 133 86 233l43 127h-296q-146 -181 -268 -257q-155 -97 -371 -97q-269 0 -532 199q-148 112 -235 252zM393 371q92 -121 237 -213q204 -129 373 -129q133 0 236 95q71 66 155 212zM1576 426l258 -7l223 660q37 109 55 216q-87 -89 -192 -277l-106 -190 q-125 -224 -238 -402zM2028 1454q146 52 185 213q98 9 196 30l9 -9q-48 -89 -167 -159q-103 -61 -217 -86z" />
<glyph unicode="&#xc2;" horiz-adv-x="2125" d="M105 432q94 45 177 97q98 -29 202 -46q126 -20 532 -36l436 -17q19 29 82 138l73 126q279 481 504 659q99 26 191 58q0 -169 -134 -528l-78 -209q-17 -46 -61 -180l-26 -79l228 -6l-157 -66l-96 -4l-42 -129q-36 -111 -36 -155q0 -8 2 -25q-110 -24 -224 -55 q52 133 86 233l43 127h-296q-146 -181 -268 -257q-155 -97 -371 -97q-269 0 -532 199q-148 112 -235 252zM393 371q92 -121 237 -213q204 -129 373 -129q133 0 236 95q71 66 155 212zM1576 426l258 -7l223 660q37 109 55 216q-87 -89 -192 -277l-106 -190 q-125 -224 -238 -402zM2025 1495q145 89 211 198q56 17 109 36q13 -104 61 -218q-63 -27 -130 -46q-34 91 -46 152q-78 -87 -163 -150z" />
<glyph unicode="&#xc3;" horiz-adv-x="2125" d="M105 432q94 45 177 97q98 -29 202 -46q126 -20 532 -36l436 -17q19 29 82 138l73 126q279 481 504 659q99 26 191 58q0 -169 -134 -528l-78 -209q-17 -46 -61 -180l-26 -79l228 -6l-157 -66l-96 -4l-42 -129q-36 -111 -36 -155q0 -8 2 -25q-110 -24 -224 -55 q52 133 86 233l43 127h-296q-146 -181 -268 -257q-155 -97 -371 -97q-269 0 -532 199q-148 112 -235 252zM393 371q92 -121 237 -213q204 -129 373 -129q133 0 236 95q71 66 155 212zM1576 426l258 -7l223 660q37 109 55 216q-87 -89 -192 -277l-106 -190 q-125 -224 -238 -402zM1953 1483q65 85 88 107q59 57 121 57q30 0 72 -8l105 -20q16 -3 43 -3q42 0 91 48l22 -4q-55 -82 -74 -104q-54 -61 -106 -61q-37 0 -81 6l-118 16q-30 4 -51 4q-45 0 -90 -45z" />
<glyph unicode="&#xc8;" horiz-adv-x="1202" d="M137 261q0 133 196 252q63 38 123 62q17 7 242 82l96 32q95 32 95 42q0 8 -43 21q-118 36 -163 63q-89 54 -89 128q0 42 31 106l-110 -38l-5 9q101 62 200 131q179 182 353 244q93 33 157 33q24 0 24 -15q0 -25 -68 -92q-55 -54 -92 -81q-68 -49 -199 -96 q-69 -25 -112 -42q-2 -14 -2 -21q0 -101 171 -161l57 -20q100 -35 100 -58q0 -30 -190 -158q-81 -55 -222 -80l-61 -11q-297 -54 -297 -220q0 -141 210 -214q151 -53 351 -53q113 0 383 34l4 -9q-97 -54 -194 -124q-162 -33 -342 -33q-272 0 -447 86q-157 77 -157 201z M910 1729l10 9q98 -21 195 -30q40 -161 185 -213l-6 -11q-114 25 -217 86q-119 70 -167 159z" />
<glyph unicode="&#xc9;" horiz-adv-x="1202" d="M137 261q0 133 196 252q63 38 123 62q17 7 242 82l96 32q95 32 95 42q0 8 -43 21q-118 36 -163 63q-89 54 -89 128q0 42 31 106l-110 -38l-5 9q101 62 200 131q179 182 353 244q93 33 157 33q24 0 24 -15q0 -25 -68 -92q-55 -54 -92 -81q-68 -49 -199 -96 q-69 -25 -112 -42q-2 -14 -2 -21q0 -101 171 -161l57 -20q100 -35 100 -58q0 -30 -190 -158q-81 -55 -222 -80l-61 -11q-297 -54 -297 -220q0 -141 210 -214q151 -53 351 -53q113 0 383 34l4 -9q-97 -54 -194 -124q-162 -33 -342 -33q-272 0 -447 86q-157 77 -157 201z M965 1454q146 52 185 213q98 9 196 30l9 -9q-48 -89 -167 -159q-103 -61 -217 -86z" />
<glyph unicode="&#xca;" horiz-adv-x="1202" d="M137 261q0 133 196 252q63 38 123 62q17 7 242 82l96 32q95 32 95 42q0 8 -43 21q-118 36 -163 63q-89 54 -89 128q0 42 31 106l-110 -38l-5 9q101 62 200 131q179 182 353 244q93 33 157 33q24 0 24 -15q0 -25 -68 -92q-55 -54 -92 -81q-68 -49 -199 -96 q-69 -25 -112 -42q-2 -14 -2 -21q0 -101 171 -161l57 -20q100 -35 100 -58q0 -30 -190 -158q-81 -55 -222 -80l-61 -11q-297 -54 -297 -220q0 -141 210 -214q151 -53 351 -53q113 0 383 34l4 -9q-97 -54 -194 -124q-162 -33 -342 -33q-272 0 -447 86q-157 77 -157 201z M956 1495q145 89 211 198q56 17 109 36q13 -104 61 -218q-63 -27 -130 -46q-34 91 -46 152q-78 -87 -163 -150z" />
<glyph unicode="&#xcc;" horiz-adv-x="1574" d="M251 44q0 14 69 66q45 34 90 84q110 -4 185 -4q80 0 269 13q-31 -35 -36 -39q-22 -24 -22 -30q0 -14 40 -14q105 0 242 31q224 50 342 230q108 164 108 403q0 270 -149 407q-105 97 -253 97q-315 0 -656 -467q-102 -56 -205 -119l-7 9q247 278 508 472q344 255 586 255 q255 0 340 -263q32 -101 32 -219q0 -300 -189 -535q-171 -211 -466 -337q-260 -111 -523 -111q-73 0 -167 14q-138 20 -138 57zM1152 1715l10 9q98 -21 195 -30q40 -161 185 -213l-6 -11q-114 25 -217 86q-119 70 -167 159z" />
<glyph unicode="&#xcd;" horiz-adv-x="1574" d="M251 44q0 14 69 66q45 34 90 84q110 -4 185 -4q80 0 269 13q-31 -35 -36 -39q-22 -24 -22 -30q0 -14 40 -14q105 0 242 31q224 50 342 230q108 164 108 403q0 270 -149 407q-105 97 -253 97q-315 0 -656 -467q-102 -56 -205 -119l-7 9q247 278 508 472q344 255 586 255 q255 0 340 -263q32 -101 32 -219q0 -300 -189 -535q-171 -211 -466 -337q-260 -111 -523 -111q-73 0 -167 14q-138 20 -138 57zM1220 1481q146 52 185 213q98 9 196 30l9 -9q-48 -89 -167 -159q-103 -61 -217 -86z" />
<glyph unicode="&#xd2;" horiz-adv-x="1385" d="M263 416q0 351 312 660q136 135 289 214l10 -13q-171 -96 -270 -221q-169 -214 -169 -469q0 -214 119 -370q126 -165 332 -165q243 0 405 237q131 191 131 424q0 249 -110 408q-99 144 -239 144q-125 0 -200 -133q-70 -124 -70 -258q0 -76 29 -195l-13 -4 q-51 136 -67 285q56 158 178 289q158 169 324 169q131 0 223 -112q108 -131 108 -370q0 -264 -149 -512q-144 -239 -376 -380q-187 -113 -377 -113q-149 0 -257 94q-163 141 -163 391zM1057 1715l10 9q98 -21 195 -30q40 -161 185 -213l-6 -11q-114 25 -217 86 q-119 70 -167 159z" />
<glyph unicode="&#xd3;" horiz-adv-x="1385" d="M263 416q0 351 312 660q136 135 289 214l10 -13q-171 -96 -270 -221q-169 -214 -169 -469q0 -214 119 -370q126 -165 332 -165q243 0 405 237q131 191 131 424q0 249 -110 408q-99 144 -239 144q-125 0 -200 -133q-70 -124 -70 -258q0 -76 29 -195l-13 -4 q-51 136 -67 285q56 158 178 289q158 169 324 169q131 0 223 -112q108 -131 108 -370q0 -264 -149 -512q-144 -239 -376 -380q-187 -113 -377 -113q-149 0 -257 94q-163 141 -163 391zM1057 1454q146 52 185 213q98 9 196 30l9 -9q-48 -89 -167 -159q-103 -61 -217 -86z" />
<glyph unicode="&#xd4;" horiz-adv-x="1385" d="M263 416q0 351 312 660q136 135 289 214l10 -13q-171 -96 -270 -221q-169 -214 -169 -469q0 -214 119 -370q126 -165 332 -165q243 0 405 237q131 191 131 424q0 249 -110 408q-99 144 -239 144q-125 0 -200 -133q-70 -124 -70 -258q0 -76 29 -195l-13 -4 q-51 136 -67 285q56 158 178 289q158 169 324 169q131 0 223 -112q108 -131 108 -370q0 -264 -149 -512q-144 -239 -376 -380q-187 -113 -377 -113q-149 0 -257 94q-163 141 -163 391zM1066 1495q145 89 211 198q56 17 109 36q13 -104 61 -218q-63 -27 -130 -46 q-34 91 -46 152q-78 -87 -163 -150z" />
<glyph unicode="&#xd5;" horiz-adv-x="1385" d="M263 416q0 351 312 660q136 135 289 214l10 -13q-171 -96 -270 -221q-169 -214 -169 -469q0 -214 119 -370q126 -165 332 -165q243 0 405 237q131 191 131 424q0 249 -110 408q-99 144 -239 144q-125 0 -200 -133q-70 -124 -70 -258q0 -76 29 -195l-13 -4 q-51 136 -67 285q56 158 178 289q158 169 324 169q131 0 223 -112q108 -131 108 -370q0 -264 -149 -512q-144 -239 -376 -380q-187 -113 -377 -113q-149 0 -257 94q-163 141 -163 391zM981 1497q65 85 88 107q59 57 121 57q30 0 72 -8l105 -20q16 -3 43 -3q42 0 91 48l22 -4 q-55 -82 -74 -104q-54 -61 -106 -61q-37 0 -81 6l-118 16q-30 4 -51 4q-45 0 -90 -45z" />
<glyph unicode="&#xd9;" horiz-adv-x="1824" d="M301 1128q319 254 611 254q104 0 171 -54q73 -59 73 -160q0 -99 -66 -259q-39 -93 -214 -423l-83 -156q-72 -135 -72 -182q0 -63 69 -63q234 0 564 611l168 311q67 125 108 173q50 59 156 131l76 58q63 48 73 48q30 0 30 -51q0 -66 -69 -254q-48 -123 -96 -247l-83 -216 q-141 -367 -141 -454q0 -109 172 -109q81 0 203 28l2 -23q-307 -109 -447 -109q-145 0 -145 123q0 76 70 261l300 791q20 53 20 68q0 13 -12 13q-28 0 -98 -142l-62 -125q-147 -297 -287 -498q-232 -333 -504 -457q-120 -55 -208 -55q-90 0 -90 82q0 54 78 203l130 249 q121 232 146 287q87 193 87 306q0 98 -58 153.5t-156 55.5q-192 0 -410 -232zM1276 1688l10 9q98 -21 195 -30q40 -161 185 -213l-6 -11q-114 25 -217 86q-119 70 -167 159z" />
<glyph unicode="&#xda;" horiz-adv-x="1824" d="M301 1128q319 254 611 254q104 0 171 -54q73 -59 73 -160q0 -99 -66 -259q-39 -93 -214 -423l-83 -156q-72 -135 -72 -182q0 -63 69 -63q234 0 564 611l168 311q67 125 108 173q50 59 156 131l76 58q63 48 73 48q30 0 30 -51q0 -66 -69 -254q-48 -123 -96 -247l-83 -216 q-141 -367 -141 -454q0 -109 172 -109q81 0 203 28l2 -23q-307 -109 -447 -109q-145 0 -145 123q0 76 70 261l300 791q20 53 20 68q0 13 -12 13q-28 0 -98 -142l-62 -125q-147 -297 -287 -498q-232 -333 -504 -457q-120 -55 -208 -55q-90 0 -90 82q0 54 78 203l130 249 q121 232 146 287q87 193 87 306q0 98 -58 153.5t-156 55.5q-192 0 -410 -232zM1276 1454q146 52 185 213q98 9 196 30l9 -9q-48 -89 -167 -159q-103 -61 -217 -86z" />
<glyph unicode="&#xdd;" horiz-adv-x="1407" d="M8 -294q0 11 25 30q8 6 52 45q96 85 168 85q29 0 74 -10q27 11 108 42l227 86l256 93q72 26 142 56l122 373q-128 -167 -234 -240q-133 -92 -263 -92q-268 0 -268 323q0 80 10 179l17 168q17 168 17 276q0 113 -38 203q114 48 223 106q27 -19 27 -129q0 -61 -23 -265 l-17 -151q-25 -222 -25 -329q0 -162 69 -231q57 -57 143 -57q125 0 241 142q86 105 178 375l195 570q108 32 215 69l-9 -26q-82 -236 -249 -744l-65 -210q-46 -150 -90 -248q213 76 368 103l5 -20q-179 -38 -388 -116q-89 -178 -279 -307q-276 -187 -523 -187 q-114 0 -205 25q-85 -21 -135 -21q-71 0 -71 34zM469 -177q129 -33 216 -33q244 0 360 299q-382 -146 -576 -266zM1068 1454q146 52 185 213q98 9 196 30l9 -9q-48 -89 -167 -159q-103 -61 -217 -86z" />
<glyph unicode="&#xe0;" d="M73 88q0 163 212 327q202 157 370 157q86 0 160 -31q-16 -36 -94 -194q-81 -165 -81 -226q0 -50 84 -50q66 0 110 12l5 -15q-262 -92 -317 -92q-68 0 -68 63q0 23 18 76q10 30 18 59q-180 -191 -327 -191q-90 0 -90 105zM257 145q0 -71 61 -71q63 0 148 130 q79 120 134 246q-76 22 -131 22q-121 0 -184 -189q-28 -83 -28 -138zM522 937l8 9q81 -21 163 -30q33 -161 154 -213l-5 -11q-99 26 -186 90q-95 69 -134 155z" />
<glyph unicode="&#xe1;" d="M73 88q0 163 212 327q202 157 370 157q86 0 160 -31q-16 -36 -94 -194q-81 -165 -81 -226q0 -50 84 -50q66 0 110 12l5 -15q-262 -92 -317 -92q-68 0 -68 63q0 23 18 76q10 30 18 59q-180 -191 -327 -191q-90 0 -90 105zM257 145q0 -71 61 -71q63 0 148 130 q79 120 134 246q-76 22 -131 22q-121 0 -184 -189q-28 -83 -28 -138zM522 703q122 52 154 213q82 9 163 30l8 -9q-39 -86 -134 -155q-87 -64 -186 -90z" />
<glyph unicode="&#xe2;" d="M73 88q0 163 212 327q202 157 370 157q86 0 160 -31q-16 -36 -94 -194q-81 -165 -81 -226q0 -50 84 -50q66 0 110 12l5 -15q-262 -92 -317 -92q-68 0 -68 63q0 23 18 76q10 30 18 59q-180 -191 -327 -191q-90 0 -90 105zM257 145q0 -71 61 -71q63 0 148 130 q79 120 134 246q-76 22 -131 22q-121 0 -184 -189q-28 -83 -28 -138zM494 717q145 89 211 198q56 17 109 36q13 -104 61 -218q-63 -27 -130 -46q-34 91 -46 152q-78 -87 -163 -150z" />
<glyph unicode="&#xe3;" d="M73 88q0 163 212 327q202 157 370 157q86 0 160 -31q-16 -36 -94 -194q-81 -165 -81 -226q0 -50 84 -50q66 0 110 12l5 -15q-262 -92 -317 -92q-68 0 -68 63q0 23 18 76q10 30 18 59q-180 -191 -327 -191q-90 0 -90 105zM257 145q0 -71 61 -71q63 0 148 130 q79 120 134 246q-76 22 -131 22q-121 0 -184 -189q-28 -83 -28 -138zM459 732q54 85 70 104q51 60 104 60q25 0 60 -8l88 -20q13 -3 35 -3q36 0 77 48l18 -4q-47 -83 -60 -101q-46 -64 -90 -64q-22 0 -68 7l-98 15q-26 4 -43 4q-37 0 -75 -45z" />
<glyph unicode="&#xe4;" d="M73 88q0 163 212 327q202 157 370 157q86 0 160 -31q-16 -36 -94 -194q-81 -165 -81 -226q0 -50 84 -50q66 0 110 12l5 -15q-262 -92 -317 -92q-68 0 -68 63q0 23 18 76q10 30 18 59q-180 -191 -327 -191q-90 0 -90 105zM257 145q0 -71 61 -71q63 0 148 130 q79 120 134 246q-76 22 -131 22q-121 0 -184 -189q-28 -83 -28 -138zM427 809q0 45 32.5 76t77.5 32q40 0 65 -27.5t25 -68.5q0 -44 -31.5 -74t-75.5 -30q-40 0 -66.5 26t-26.5 66zM734 809q0 45 32.5 76t77.5 32q40 0 65 -27.5t25 -68.5q0 -45 -31 -74.5t-76 -29.5 q-40 0 -66.5 26t-26.5 66z" />
<glyph unicode="&#xe5;" d="M73 88q0 163 212 327q202 157 370 157q86 0 160 -31q-16 -36 -94 -194q-81 -165 -81 -226q0 -50 84 -50q66 0 110 12l5 -15q-262 -92 -317 -92q-68 0 -68 63q0 23 18 76q10 30 18 59q-180 -191 -327 -191q-90 0 -90 105zM257 145q0 -71 61 -71q63 0 148 130 q79 120 134 246q-76 22 -131 22q-121 0 -184 -189q-28 -83 -28 -138zM521 770q0 133 147 205l8 -18q-102 -57 -102 -130q0 -48 37.5 -83t86.5 -35q92 0 92 91q0 51 -36 84.5t-87 33.5l-3 10q35 24 65 55q120 -23 120 -122q0 -77 -65 -141.5t-142 -64.5q-51 0 -86 32t-35 83z " />
<glyph unicode="&#xe6;" horiz-adv-x="1105" d="M73 88q0 163 212 327q202 157 370 157q88 0 159 -31q99 35 172 35q110 0 110 -94q0 -110 -159 -215q-115 -77 -256 -121q84 -89 263 -89q78 0 148 18l5 -15q-262 -82 -414 -82q-214 0 -214 156v18q-169 -169 -306 -169q-90 0 -90 105zM257 145q0 -71 61 -71q63 0 148 130 q79 120 134 246q-76 22 -131 22q-121 0 -184 -189q-28 -83 -28 -138zM652 239q0 -43 19 -78q91 43 155 116q74 85 74 175q0 63 -62 63q-101 0 -163 -162q-23 -61 -23 -114z" />
<glyph unicode="&#xe7;" horiz-adv-x="621" d="M79 118q0 157 168 311q182 167 352 167q98 0 98 -71q0 -118 -233 -196l-7 11q53 56 53 125q0 39 -37 83q-72 -44 -124 -122q-77 -116 -77 -224q0 -136 197 -136q27 0 207 20l5 -10q-224 -85 -412 -92l-46 -71q47 15 82 15q97 0 97 -79q0 -84 -112 -135q-79 -37 -183 -48 l-3 31q181 27 181 105q0 52 -74 52q-32 0 -69 -7l84 139q-147 19 -147 132z" />
<glyph unicode="&#xe8;" horiz-adv-x="679" d="M84 145q0 167 177 302q170 129 338 129q111 0 111 -94q0 -110 -159 -215q-115 -77 -256 -121q84 -89 262 -89q79 0 149 18l5 -15q-262 -82 -414 -82q-213 0 -213 167zM266 239q0 -43 19 -78q90 43 154 117q75 86 75 174q0 63 -62 63q-101 0 -163 -162q-23 -61 -23 -114z M395 937l8 9q81 -21 163 -30q33 -161 154 -213l-5 -11q-99 26 -186 90q-95 69 -134 155z" />
<glyph unicode="&#xe9;" horiz-adv-x="679" d="M84 145q0 167 177 302q170 129 338 129q111 0 111 -94q0 -110 -159 -215q-115 -77 -256 -121q84 -89 262 -89q79 0 149 18l5 -15q-262 -82 -414 -82q-213 0 -213 167zM266 239q0 -43 19 -78q90 43 154 117q75 86 75 174q0 63 -62 63q-101 0 -163 -162q-23 -61 -23 -114z M409 703q122 52 154 213q82 9 163 30l8 -9q-39 -86 -134 -155q-87 -64 -186 -90z" />
<glyph unicode="&#xea;" horiz-adv-x="679" d="M57 145q0 167 177 302q170 129 338 129q111 0 111 -94q0 -110 -159 -215q-115 -77 -256 -121q84 -89 262 -89q79 0 149 18l5 -15q-262 -82 -414 -82q-213 0 -213 167zM239 239q0 -43 19 -78q90 43 154 117q75 86 75 174q0 63 -62 63q-101 0 -163 -162q-23 -61 -23 -114z M354 717q145 89 211 198q56 17 109 36q13 -104 61 -218q-63 -27 -130 -46q-34 91 -46 152q-78 -87 -163 -150z" />
<glyph unicode="&#xeb;" horiz-adv-x="679" d="M84 145q0 167 177 302q170 129 338 129q111 0 111 -94q0 -110 -159 -215q-115 -77 -256 -121q84 -89 262 -89q79 0 149 18l5 -15q-262 -82 -414 -82q-213 0 -213 167zM266 239q0 -43 19 -78q90 43 154 117q75 86 75 174q0 63 -62 63q-101 0 -163 -162q-23 -61 -23 -114z M300 809q0 45 32.5 76t77.5 32q40 0 65 -27.5t25 -68.5q0 -45 -31 -74.5t-76 -29.5q-40 0 -66.5 26t-26.5 66zM607 809q0 45 32.5 76t77.5 32q40 0 65 -27.5t25 -68.5q0 -45 -31 -74.5t-76 -29.5q-40 0 -66.5 26t-26.5 66z" />
<glyph unicode="&#xec;" horiz-adv-x="461" d="M103 71q0 50 44 160l117 293q100 23 197 59l-133 -304q-42 -96 -42 -136q0 -63 100 -63q46 0 133 14v-18q-257 -95 -321 -95q-95 0 -95 90zM272 937l8 9q81 -21 163 -30q33 -161 154 -213l-5 -11q-99 26 -186 90q-95 69 -134 155z" />
<glyph unicode="&#xed;" horiz-adv-x="461" d="M103 71q0 50 44 160l117 293q100 23 197 59l-133 -304q-42 -96 -42 -136q0 -63 100 -63q46 0 133 14v-18q-257 -95 -321 -95q-95 0 -95 90zM300 703q122 52 154 213q82 9 163 30l8 -9q-39 -86 -134 -155q-87 -64 -186 -90z" />
<glyph unicode="&#xee;" horiz-adv-x="461" d="M103 71q0 50 44 160l117 293q100 23 197 59l-133 -304q-42 -96 -42 -136q0 -63 100 -63q46 0 133 14v-18q-257 -95 -321 -95q-95 0 -95 90zM245 717q145 89 211 198q56 17 109 36q13 -104 61 -218q-63 -27 -130 -46q-34 91 -46 152q-78 -87 -163 -150z" />
<glyph unicode="&#xef;" horiz-adv-x="461" d="M117 71q0 50 44 160l117 293q100 23 197 59l-133 -304q-42 -96 -42 -136q0 -63 100 -63q46 0 133 14v-18q-257 -95 -321 -95q-95 0 -95 90zM246 809q0 45 32.5 76t77.5 32q40 0 65 -27.5t25 -68.5q0 -45 -31 -74.5t-76 -29.5q-40 0 -66.5 26t-26.5 66zM498 809 q0 45 32.5 76t77.5 32q40 0 65 -27.5t25 -68.5q0 -44 -31.5 -74t-75.5 -30q-40 0 -66.5 26t-26.5 66z" />
<glyph unicode="&#xf0;" horiz-adv-x="665" d="M72 157q0 173 163 299q130 100 323 145v20q0 153 -46 318l-207 -84l-3 43l198 81q-42 125 -113 229l42 8q89 -86 153 -187l214 86l2 -43l-194 -79q113 -198 113 -396q0 -193 -104 -356q-93 -145 -231 -213q-89 -44 -166 -44q-144 0 -144 173zM257 208q0 -134 77 -134 q86 0 161 201q58 155 62 291q-123 -29 -197 -104q-103 -104 -103 -254z" />
<glyph unicode="&#xf1;" horiz-adv-x="820" d="M59 -33l189 545q93 24 187 54l-94 -230q219 227 362 227q93 0 93 -72q0 -23 -13 -52l-114 -255q-27 -60 -27 -85q0 -58 94 -58q30 0 110 16l4 -15q-245 -85 -319 -85q-85 0 -85 77q0 50 37 129l71 152q36 77 36 92q0 23 -55 23q-81 0 -152 -95q-29 -39 -65 -111l-3 -8 q-32 -64 -52 -124l-25 -75q-92 -24 -179 -50zM416 732q54 85 70 104q51 60 104 60q25 0 60 -8l88 -20q13 -3 35 -3q36 0 77 48l18 -4q-47 -83 -60 -101q-46 -64 -90 -64q-22 0 -68 7l-98 15q-26 4 -43 4q-37 0 -75 -45z" />
<glyph unicode="&#xf2;" horiz-adv-x="689" d="M56 104q0 220 311 372q-46 28 -46 37q0 7 26 11q49 7 103 27q77 29 97 29q59 0 97 -62q35 -5 71 -6l10 -15q-29 -27 -58 -45q1 -37 1 -47q0 -162 -139 -297q-153 -149 -325 -149q-148 0 -148 145zM243 176q0 -57 32.5 -94.5t88.5 -37.5q66 0 99 54q46 75 46 174 q0 68 -30 162q-49 9 -91 29q-60 -53 -101 -130q-44 -83 -44 -157zM387 937l8 9q81 -21 163 -30q33 -161 154 -213l-5 -11q-99 26 -186 90q-95 69 -134 155z" />
<glyph unicode="&#xf3;" horiz-adv-x="689" d="M56 104q0 220 311 372q-46 28 -46 37q0 7 26 11q49 7 103 27q77 29 97 29q59 0 97 -62q35 -5 71 -6l10 -15q-29 -27 -58 -45q1 -37 1 -47q0 -162 -139 -297q-153 -149 -325 -149q-148 0 -148 145zM243 176q0 -57 32.5 -94.5t88.5 -37.5q66 0 99 54q46 75 46 174 q0 68 -30 162q-49 9 -91 29q-60 -53 -101 -130q-44 -83 -44 -157zM387 703q122 52 154 213q82 9 163 30l8 -9q-39 -86 -134 -155q-87 -64 -186 -90z" />
<glyph unicode="&#xf4;" horiz-adv-x="689" d="M56 104q0 220 311 372q-46 28 -46 37q0 7 26 11q49 7 103 27q77 29 97 29q59 0 97 -62q35 -5 71 -6l10 -15q-29 -27 -58 -45q1 -37 1 -47q0 -162 -139 -297q-153 -149 -325 -149q-148 0 -148 145zM243 176q0 -57 32.5 -94.5t88.5 -37.5q66 0 99 54q46 75 46 174 q0 68 -30 162q-49 9 -91 29q-60 -53 -101 -130q-44 -83 -44 -157zM359 717q145 89 211 198q56 17 109 36q13 -104 61 -218q-63 -27 -130 -46q-34 91 -46 152q-78 -87 -163 -150z" />
<glyph unicode="&#xf5;" horiz-adv-x="689" d="M56 104q0 220 311 372q-46 28 -46 37q0 7 26 11q49 7 103 27q77 29 97 29q59 0 97 -62q35 -5 71 -6l10 -15q-29 -27 -58 -45q1 -37 1 -47q0 -162 -139 -297q-153 -149 -325 -149q-148 0 -148 145zM243 176q0 -57 32.5 -94.5t88.5 -37.5q66 0 99 54q46 75 46 174 q0 68 -30 162q-49 9 -91 29q-60 -53 -101 -130q-44 -83 -44 -157zM323 732q54 85 70 104q51 60 104 60q25 0 60 -8l88 -20q13 -3 35 -3q36 0 77 48l18 -4q-47 -83 -60 -101q-46 -64 -90 -64q-22 0 -68 7l-98 15q-26 4 -43 4q-37 0 -75 -45z" />
<glyph unicode="&#xf6;" horiz-adv-x="689" d="M56 104q0 220 311 372q-46 28 -46 37q0 7 26 11q49 7 103 27q77 29 97 29q59 0 97 -62q35 -5 71 -6l10 -15q-29 -27 -58 -45q1 -37 1 -47q0 -162 -139 -297q-153 -149 -325 -149q-148 0 -148 145zM243 176q0 -57 32.5 -94.5t88.5 -37.5q66 0 99 54q46 75 46 174 q0 68 -30 162q-49 9 -91 29q-60 -53 -101 -130q-44 -83 -44 -157zM305 809q0 45 32.5 76t77.5 32q40 0 65 -27.5t25 -68.5q0 -45 -31 -74.5t-76 -29.5q-40 0 -66.5 26t-26.5 66zM612 809q0 45 32.5 76t77.5 32q40 0 65 -27.5t25 -68.5q0 -45 -31 -74.5t-76 -29.5 q-40 0 -66.5 26t-26.5 66z" />
<glyph unicode="&#xf8;" horiz-adv-x="686" d="M29 -101l84 88q-49 39 -49 117q0 220 311 372q-46 28 -46 37q0 7 26 11q50 7 103 27q76 29 97 29q42 0 82 -42l96 101l35 -38l-105 -110q13 -43 13 -92q0 -154 -139 -290q-154 -150 -327 -150q-21 0 -47 6l-98 -103zM251 177q0 -18 5 -40l244 257q-4 12 -13 40 q-49 9 -91 29q-60 -52 -101 -129q-44 -83 -44 -157zM279 87q39 -43 94 -43q66 0 99 54q45 73 45 174q0 25 -4 61z" />
<glyph unicode="&#xf9;" horiz-adv-x="800" d="M78 41q0 41 32 120l147 362q92 18 192 45l-150 -344q-34 -78 -34 -103q0 -39 51 -39q121 0 307 438q93 21 185 45l-134 -315q-42 -99 -42 -128q0 -56 86 -56q32 0 109 18l5 -13q-233 -98 -307 -98t-74 66q0 26 22 76l43 97q-105 -113 -182 -166q-106 -73 -194 -73 q-62 0 -62 68zM470 937l8 9q81 -21 163 -30q33 -161 154 -213l-5 -11q-99 26 -186 90q-95 69 -134 155z" />
<glyph unicode="&#xfa;" horiz-adv-x="800" d="M91 41q0 41 32 120l147 362q92 18 192 45l-150 -344q-34 -78 -34 -103q0 -39 51 -39q121 0 307 438q93 21 185 45l-134 -315q-42 -99 -42 -128q0 -56 86 -56q32 0 109 18l5 -13q-233 -98 -307 -98t-74 66q0 26 22 76l43 97q-105 -113 -182 -166q-106 -73 -194 -73 q-62 0 -62 68zM469 703q122 52 154 213q82 9 163 30l8 -9q-39 -86 -134 -155q-87 -64 -186 -90z" />
<glyph unicode="&#xfb;" horiz-adv-x="800" d="M78 41q0 41 32 120l147 362q92 18 192 45l-150 -344q-34 -78 -34 -103q0 -39 51 -39q121 0 307 438q93 21 185 45l-134 -315q-42 -99 -42 -128q0 -56 86 -56q32 0 109 18l5 -13q-233 -98 -307 -98t-74 66q0 26 22 76l43 97q-105 -113 -182 -166q-106 -73 -194 -73 q-62 0 -62 68zM415 717q145 89 211 198q56 17 109 36q13 -104 61 -218q-63 -27 -130 -46q-34 91 -46 152q-78 -87 -163 -150z" />
<glyph unicode="&#xfc;" horiz-adv-x="800" d="M98 41q0 41 32 120l147 362q92 18 192 45l-150 -344q-34 -78 -34 -103q0 -39 51 -39q121 0 307 438q93 21 185 45l-134 -315q-42 -99 -42 -128q0 -56 86 -56q32 0 109 18l5 -13q-233 -98 -307 -98t-74 66q0 26 22 76l43 97q-105 -113 -182 -166q-106 -73 -194 -73 q-62 0 -62 68zM395 809q0 45 32.5 76t77.5 32q40 0 65 -27.5t25 -68.5q0 -45 -31 -74.5t-76 -29.5q-40 0 -66.5 26t-26.5 66zM702 809q0 45 32.5 76t77.5 32q40 0 65 -27.5t25 -68.5q0 -44 -31.5 -74t-75.5 -30q-40 0 -66.5 26t-26.5 66z" />
<glyph unicode="&#xfd;" horiz-adv-x="711" d="M35 20q0 28 19 80l155 424q96 23 193 51l-158 -402q-19 -48 -19 -68q0 -39 39 -39q81 0 186 191q65 119 117 260q88 25 185 56l-256 -721q69 39 134 71l4 -11q-134 -110 -224 -298q-84 -21 -165 -51l214 631q-216 -238 -358 -238q-66 0 -66 64zM405 703q122 52 154 213 q82 9 163 30l8 -9q-39 -86 -134 -155q-87 -64 -186 -90z" />
<glyph unicode="&#xfe;" horiz-adv-x="802" d="M-30 -413l124 395q-51 21 -95 45l125 55l333 1046q81 12 164 31l-245 -761q175 177 297 177q106 0 106 -118q0 -152 -153 -284q-57 -49 -170 -99l129 -7q66 -1 198 -7q-124 -66 -157 -65l-26 1h-283q-39 -19 -77 -32l-109 -348q-82 -13 -161 -29zM273 83l139 -7 q110 83 154 225q19 60 19 100q0 78 -55 78q-131 0 -257 -396z" />
<glyph unicode="&#xff;" horiz-adv-x="752" d="M62 20q0 28 19 80l155 424q96 23 193 51l-158 -402q-19 -48 -19 -68q0 -39 39 -39q81 0 186 191q65 119 117 260q88 25 185 56l-256 -721q69 39 134 71l4 -11q-134 -110 -224 -298q-84 -21 -165 -51l214 631q-216 -238 -358 -238q-66 0 -66 64zM337 809q0 45 32.5 76 t77.5 32q40 0 65 -27.5t25 -68.5q0 -45 -31 -74.5t-76 -29.5q-40 0 -66.5 26t-26.5 66zM644 809q0 45 32.5 76t77.5 32q40 0 65 -27.5t25 -68.5q0 -45 -31 -74.5t-76 -29.5q-40 0 -66.5 26t-26.5 66z" />
<glyph unicode="&#x102;" horiz-adv-x="2125" d="M105 432q94 45 177 97q98 -29 202 -46q126 -20 532 -36l436 -17q19 29 82 138l73 126q279 481 504 659q99 26 191 58q0 -169 -134 -528l-78 -209q-17 -46 -61 -180l-26 -79l228 -6l-157 -66l-96 -4l-42 -129q-36 -111 -36 -155q0 -8 2 -25q-110 -24 -224 -55 q52 133 86 233l43 127h-296q-146 -181 -268 -257q-155 -97 -371 -97q-269 0 -532 199q-148 112 -235 252zM393 371q92 -121 237 -213q204 -129 373 -129q133 0 236 95q71 66 155 212zM1576 426l258 -7l223 660q37 109 55 216q-87 -89 -192 -277l-106 -190 q-125 -224 -238 -402zM2066 1630q0 20 4 41l148 39q-7 -50 -7 -68q0 -57 54 -57q75 0 183 136l28 -22q-158 -227 -288 -227q-122 0 -122 158z" />
<glyph unicode="&#x103;" d="M73 88q0 163 212 327q202 157 370 157q86 0 160 -31q-16 -36 -94 -194q-81 -165 -81 -226q0 -50 84 -50q66 0 110 12l5 -15q-262 -92 -317 -92q-68 0 -68 63q0 23 18 76q10 30 18 59q-180 -191 -327 -191q-90 0 -90 105zM257 145q0 -71 61 -71q63 0 148 130 q79 120 134 246q-76 22 -131 22q-121 0 -184 -189q-28 -83 -28 -138zM519 853q0 20 4 41l148 39q-7 -50 -7 -68q0 -57 54 -57q75 0 183 136l28 -22q-158 -227 -288 -227q-122 0 -122 158z" />
<glyph unicode="&#x110;" horiz-adv-x="2129" d="M298 912q0 172 167 321q196 175 546 175q316 0 620 -150q232 -114 378 -290q198 -238 198 -447q0 -173 -167 -339q-203 -202 -496 -202q-42 0 -159 7l-117 7q-201 12 -353 12q-215 0 -372 -27l-4 9q101 72 191 156q89 10 208 10q213 0 359 -10l146 -10q277 -19 274 -19 q132 0 237 59q127 71 127 194q0 164 -145.5 364.5t-369.5 337.5l-184 -528h319l-68 -64h-274l-74 -213q-104 -42 -203 -105l103 318h-290l68 64h242l144 445q114 38 217 83q-329 230 -704 230q-164 0 -277 -54q-149 -70 -149 -217q0 -127 109 -193q91 -55 226 -55 q255 0 486 190l14 -10q-118 -147 -255 -225q-206 -117 -387 -117q-137 0 -231 77q-100 82 -100 216z" />
<glyph unicode="&#x111;" horiz-adv-x="665" d="M85 155q0 175 176 307q139 104 301 131q-4 106 -31 196q-165 2 -205 -17l-2 6q26 18 75 71h110q-83 187 -219 187q-58 0 -130 -44l-8 12l182 109q58 35 103 35q103 0 175 -102q56 -80 81 -197q129 1 165 17l3 -8q-66 -46 -90 -69h-68q8 -62 8 -110q0 -252 -128 -452 q-156 -244 -354 -244q-144 0 -144 172zM270 230q0 -56 23 -103q28 -58 79 -58q94 0 153 190q37 119 37 310q-110 -21 -194 -114q-98 -109 -98 -225z" />
<glyph unicode="&#x128;" horiz-adv-x="1574" d="M251 44q0 14 69 66q45 34 90 84q110 -4 185 -4q80 0 269 13q-31 -35 -36 -39q-22 -24 -22 -30q0 -14 40 -14q105 0 242 31q224 50 342 230q108 164 108 403q0 270 -149 407q-105 97 -253 97q-315 0 -656 -467q-102 -56 -205 -119l-7 9q247 278 508 472q344 255 586 255 q255 0 340 -263q32 -101 32 -219q0 -300 -189 -535q-171 -211 -466 -337q-260 -111 -523 -111q-73 0 -167 14q-138 20 -138 57zM1148 1497q65 85 88 107q59 57 121 57q30 0 72 -8l105 -20q16 -3 43 -3q42 0 91 48l22 -4q-55 -82 -74 -104q-54 -61 -106 -61q-37 0 -81 6 l-118 16q-30 4 -51 4q-45 0 -90 -45z" />
<glyph unicode="&#x129;" horiz-adv-x="461" d="M103 71q0 50 44 160l117 293q100 23 197 59l-133 -304q-42 -96 -42 -136q0 -63 100 -63q46 0 133 14v-18q-257 -95 -321 -95q-95 0 -95 90zM267 732q54 85 70 104q51 60 104 60q25 0 60 -8l88 -20q13 -3 35 -3q36 0 77 48l18 -4q-47 -83 -60 -101q-46 -64 -90 -64 q-22 0 -68 7l-98 15q-26 4 -43 4q-37 0 -75 -45z" />
<glyph unicode="&#x131;" horiz-adv-x="461" d="M103 71q0 50 44 160l117 293q100 23 197 59l-133 -304q-42 -96 -42 -136q0 -63 100 -63q46 0 133 14v-18q-257 -95 -321 -95q-95 0 -95 90z" />
<glyph unicode="&#x153;" horiz-adv-x="1092" d="M64 104q0 220 311 372q-46 28 -46 37q0 7 26 11q49 7 103 27q77 29 97 29q94 0 119 -133q182 129 339 129q111 0 111 -93q0 -111 -158 -216q-115 -77 -257 -121q84 -89 262 -89q78 0 148 18l6 -15q-262 -82 -414 -82q-156 0 -202 105q-144 -124 -297 -124 q-148 0 -148 145zM251 176q0 -58 32.5 -95t89.5 -37q66 0 99 54q46 75 46 174q0 67 -31 162q-49 9 -91 29q-60 -53 -101 -130q-44 -83 -44 -157zM680 239q0 -43 19 -78q94 45 156 119q73 88 73 172q0 63 -62 63q-101 0 -163 -162q-23 -61 -23 -114z" />
<glyph unicode="&#x168;" horiz-adv-x="1824" d="M301 1128q319 254 611 254q104 0 171 -54q73 -59 73 -160q0 -99 -66 -259q-39 -93 -214 -423l-83 -156q-72 -135 -72 -182q0 -63 69 -63q234 0 564 611l168 311q67 125 108 173q50 59 156 131l76 58q63 48 73 48q30 0 30 -51q0 -66 -69 -254q-48 -123 -96 -247l-83 -216 q-141 -367 -141 -454q0 -109 172 -109q81 0 203 28l2 -23q-307 -109 -447 -109q-145 0 -145 123q0 76 70 261l300 791q20 53 20 68q0 13 -12 13q-28 0 -98 -142l-62 -125q-147 -297 -287 -498q-232 -333 -504 -457q-120 -55 -208 -55q-90 0 -90 82q0 54 78 203l130 249 q121 232 146 287q87 193 87 306q0 98 -58 153.5t-156 55.5q-192 0 -410 -232zM1241 1497q65 85 88 107q59 57 121 57q30 0 72 -8l105 -20q16 -3 43 -3q42 0 91 48l22 -4q-55 -82 -74 -104q-54 -61 -106 -61q-37 0 -81 6l-118 16q-30 4 -51 4q-45 0 -90 -45z" />
<glyph unicode="&#x169;" horiz-adv-x="800" d="M78 41q0 41 32 120l147 362q92 18 192 45l-150 -344q-34 -78 -34 -103q0 -39 51 -39q121 0 307 438q93 21 185 45l-134 -315q-42 -99 -42 -128q0 -56 86 -56q32 0 109 18l5 -13q-233 -98 -307 -98t-74 66q0 26 22 76l43 97q-105 -113 -182 -166q-106 -73 -194 -73 q-62 0 -62 68zM391 732q54 85 70 104q51 60 104 60q25 0 60 -8l88 -20q13 -3 35 -3q36 0 77 48l18 -4q-47 -83 -60 -101q-46 -64 -90 -64q-22 0 -68 7l-98 15q-26 4 -43 4q-37 0 -75 -45z" />
<glyph unicode="&#x192;" horiz-adv-x="1261" d="M-247 -421q0 78 67 146q37 39 132 101l7 -13q-50 -85 -50 -170q0 -107 103 -107q168 0 308 243q47 82 286 624l92 211h-235l27 53h232q150 307 340 489q279 267 497 267q50 0 89 -19q50 -24 50 -69q0 -117 -216 -280l-16 8q81 137 81 213q0 85 -88 85q-110 0 -220 -105 q-74 -70 -180 -283q-14 -27 -142 -306h247l-28 -53h-244l-37 -80l-166 -355q-201 -402 -475 -594q-158 -111 -319 -111q-142 0 -142 105z" />
<glyph unicode="&#x1a0;" horiz-adv-x="1385" d="M263 416q0 351 312 660q136 135 289 214l10 -13q-171 -96 -270 -221q-169 -214 -169 -469q0 -214 119 -370q126 -165 332 -165q243 0 405 237q131 191 131 424q0 249 -110 408q-99 144 -239 144q-125 0 -200 -133q-70 -124 -70 -258q0 -76 29 -195l-13 -4 q-51 136 -67 285q56 158 178 289q158 169 324 169q131 0 223 -112q24 -29 42 -63q62 45 62 92q0 38 -43 109l161 67q22 -45 22 -80q0 -100 -189 -214q53 -114 53 -281q0 -264 -149 -512q-144 -239 -376 -380q-187 -113 -377 -113q-149 0 -257 94q-163 141 -163 391z" />
<glyph unicode="&#x1a1;" horiz-adv-x="689" d="M49 104q0 220 311 372q-46 28 -46 37q0 7 26 11q49 7 103 27q77 29 97 29q59 0 97 -62q35 -5 71 -6l10 -15q-29 -27 -58 -45q1 -37 1 -47q0 -14 -1 -28q103 56 103 118q0 38 -43 109l161 67q22 -45 22 -80q0 -113 -247 -248q-22 -126 -134 -235q-153 -149 -325 -149 q-148 0 -148 145zM236 176q0 -57 32.5 -94.5t88.5 -37.5q66 0 99 54q46 75 46 174q0 68 -30 162q-49 9 -91 29q-60 -53 -101 -130q-44 -83 -44 -157z" />
<glyph unicode="&#x1af;" horiz-adv-x="1824" d="M301 1128q319 254 611 254q104 0 171 -54q73 -59 73 -160q0 -99 -66 -259q-39 -93 -214 -423l-83 -156q-72 -135 -72 -182q0 -63 69 -63q234 0 564 611l168 311q67 125 108 173q50 59 156 131l76 58q63 48 73 48q30 0 30 -51q0 -47 -29 -136q83 51 83 105q0 38 -43 109 l161 67q22 -45 22 -80q0 -110 -236 -241q-24 -68 -123 -325l-83 -216q-141 -367 -141 -454q0 -109 172 -109q81 0 203 28l2 -23q-307 -109 -447 -109q-145 0 -145 123q0 76 70 261l300 791q20 53 20 68q0 13 -12 13q-28 0 -98 -142l-62 -125q-147 -297 -287 -498 q-232 -333 -504 -457q-120 -55 -208 -55q-90 0 -90 82q0 54 78 203l130 249q121 232 146 287q87 193 87 306q0 98 -58 153.5t-156 55.5q-192 0 -410 -232z" />
<glyph unicode="&#x1b0;" horiz-adv-x="800" d="M78 41q0 41 32 120l147 362q92 18 192 45l-150 -344q-34 -78 -34 -103q0 -39 51 -39q121 0 307 438q86 19 171 41q-10 20 -23 43l161 67q22 -45 22 -80q0 -111 -238 -243l-42 -98q-42 -99 -42 -128q0 -56 86 -56q32 0 109 18l5 -13q-233 -98 -307 -98t-74 66q0 26 22 76 l43 97q-105 -113 -182 -166q-106 -73 -194 -73q-62 0 -62 68zM734 391q80 50 80 104q0 21 -14 52z" />
<glyph unicode="&#x1ea0;" horiz-adv-x="2125" d="M105 432q94 45 177 97q98 -29 202 -46q126 -20 532 -36l436 -17q19 29 82 138l73 126q279 481 504 659q99 26 191 58q0 -169 -134 -528l-78 -209q-17 -46 -61 -180l-26 -79l228 -6l-157 -66l-96 -4l-42 -129q-36 -111 -36 -155q0 -8 2 -25q-110 -24 -224 -55 q52 133 86 233l43 127h-296q-146 -181 -268 -257q-155 -97 -371 -97q-269 0 -532 199q-148 112 -235 252zM393 371q92 -121 237 -213q204 -129 373 -129q133 0 236 95q71 66 155 212zM1283 -258q0 36 25.5 62t62.5 26q38 1 63.5 -25t25.5 -64q0 -36 -26 -62t-62 -26 t-62.5 26.5t-26.5 62.5zM1576 426l258 -7l223 660q37 109 55 216q-87 -89 -192 -277l-106 -190q-125 -224 -238 -402z" />
<glyph unicode="&#x1ea1;" d="M73 88q0 163 212 327q202 157 370 157q86 0 160 -31q-16 -36 -94 -194q-81 -165 -81 -226q0 -50 84 -50q66 0 110 12l5 -15q-262 -92 -317 -92q-68 0 -68 63q0 23 18 76q10 30 18 59q-180 -191 -327 -191q-90 0 -90 105zM167 -258q0 36 25.5 62t62.5 26q38 1 63.5 -25 t25.5 -64q0 -36 -26 -62t-62 -26t-62.5 26.5t-26.5 62.5zM257 145q0 -71 61 -71q63 0 148 130q79 120 134 246q-76 22 -131 22q-121 0 -184 -189q-28 -83 -28 -138z" />
<glyph unicode="&#x1ea2;" horiz-adv-x="2125" d="M105 432q94 45 177 97q98 -29 202 -46q126 -20 532 -36l436 -17q19 29 82 138l73 126q279 481 504 659q99 26 191 58q0 -169 -134 -528l-78 -209q-17 -46 -61 -180l-26 -79l228 -6l-157 -66l-96 -4l-42 -129q-36 -111 -36 -155q0 -8 2 -25q-110 -24 -224 -55 q52 133 86 233l43 127h-296q-146 -181 -268 -257q-155 -97 -371 -97q-269 0 -532 199q-148 112 -235 252zM393 371q92 -121 237 -213q204 -129 373 -129q133 0 236 95q71 66 155 212zM1576 426l258 -7l223 660q37 109 55 216q-87 -89 -192 -277l-106 -190 q-125 -224 -238 -402zM2160 1525q0 22 15 32q10 7 42 17l29 10q45 14 45 44q0 35 -61 60l-28 11q-20 8 -20 15q0 20 62 52l2 -3q-4 -5 -4 -9q0 -7 17 -10l62 -13q58 -11 58 -58q0 -57 -92 -101l-22 -11q-7 -3 -19 -11q-4 -6 -1 -28q2 -4 18 -21q-15 -6 -80 -40 q-23 34 -23 64z" />
<glyph unicode="&#x1ea3;" d="M73 88q0 163 212 327q202 157 370 157q86 0 160 -31q-16 -36 -94 -194q-81 -165 -81 -226q0 -50 84 -50q66 0 110 12l5 -15q-262 -92 -317 -92q-68 0 -68 63q0 23 18 76q10 30 18 59q-180 -191 -327 -191q-90 0 -90 105zM257 145q0 -71 61 -71q63 0 148 130 q79 120 134 246q-76 22 -131 22q-121 0 -184 -189q-28 -83 -28 -138zM613 755q0 22 15 32q10 7 42 17l29 10q45 14 45 44q0 35 -61 60l-28 11q-20 8 -20 15q0 20 62 52l2 -3q-4 -5 -4 -9q0 -7 17 -10l62 -13q58 -11 58 -58q0 -57 -92 -101l-22 -11q-7 -3 -19 -11 q-4 -6 -1 -28q2 -4 18 -21q-15 -6 -80 -40q-23 34 -23 64z" />
<glyph unicode="&#x1ea4;" horiz-adv-x="2125" d="M105 432q94 45 177 97q98 -29 202 -46q126 -20 532 -36l436 -17q19 29 82 138l73 126q279 481 504 659q99 26 191 58q0 -169 -134 -528l-78 -209q-17 -46 -61 -180l-26 -79l228 -6l-157 -66l-96 -4l-42 -129q-36 -111 -36 -155q0 -8 2 -25q-110 -24 -224 -55 q52 133 86 233l43 127h-296q-146 -181 -268 -257q-155 -97 -371 -97q-269 0 -532 199q-148 112 -235 252zM393 371q92 -121 237 -213q204 -129 373 -129q133 0 236 95q71 66 155 212zM1576 426l258 -7l223 660q37 109 55 216q-87 -89 -192 -277l-106 -190 q-125 -224 -238 -402zM2025 1495q145 89 211 198q56 17 109 36q13 -104 61 -218q-63 -27 -130 -46q-34 91 -46 152q-78 -87 -163 -150zM2123 1765q122 52 154 213q82 9 163 30l8 -9q-39 -86 -134 -155q-87 -64 -186 -90z" />
<glyph unicode="&#x1ea5;" d="M73 88q0 163 212 327q202 157 370 157q86 0 160 -31q-16 -36 -94 -194q-81 -165 -81 -226q0 -50 84 -50q66 0 110 12l5 -15q-262 -92 -317 -92q-68 0 -68 63q0 23 18 76q10 30 18 59q-180 -191 -327 -191q-90 0 -90 105zM257 145q0 -71 61 -71q63 0 148 130 q79 120 134 246q-76 22 -131 22q-121 0 -184 -189q-28 -83 -28 -138zM494 717q145 89 211 198q56 17 109 36q13 -104 61 -218q-63 -27 -130 -46q-34 91 -46 152q-78 -87 -163 -150zM593 987q122 52 154 213q82 9 163 30l8 -9q-39 -86 -134 -155q-87 -64 -186 -90z" />
<glyph unicode="&#x1ea6;" horiz-adv-x="2125" d="M105 432q94 45 177 97q98 -29 202 -46q126 -20 532 -36l436 -17q19 29 82 138l73 126q279 481 504 659q99 26 191 58q0 -169 -134 -528l-78 -209q-17 -46 -61 -180l-26 -79l228 -6l-157 -66l-96 -4l-42 -129q-36 -111 -36 -155q0 -8 2 -25q-110 -24 -224 -55 q52 133 86 233l43 127h-296q-146 -181 -268 -257q-155 -97 -371 -97q-269 0 -532 199q-148 112 -235 252zM393 371q92 -121 237 -213q204 -129 373 -129q133 0 236 95q71 66 155 212zM1576 426l258 -7l223 660q37 109 55 216q-87 -89 -192 -277l-106 -190 q-125 -224 -238 -402zM2025 1495q145 89 211 198q56 17 109 36q13 -104 61 -218q-63 -27 -130 -46q-34 91 -46 152q-78 -87 -163 -150zM2228 1999l8 9q81 -21 163 -30q33 -161 154 -213l-5 -11q-99 26 -186 90q-95 69 -134 155z" />
<glyph unicode="&#x1ea7;" d="M73 88q0 163 212 327q202 157 370 157q86 0 160 -31q-16 -36 -94 -194q-81 -165 -81 -226q0 -50 84 -50q66 0 110 12l5 -15q-262 -92 -317 -92q-68 0 -68 63q0 23 18 76q10 30 18 59q-180 -191 -327 -191q-90 0 -90 105zM257 145q0 -71 61 -71q63 0 148 130 q79 120 134 246q-76 22 -131 22q-121 0 -184 -189q-28 -83 -28 -138zM494 717q145 89 211 198q56 17 109 36q13 -104 61 -218q-63 -27 -130 -46q-34 91 -46 152q-78 -87 -163 -150zM698 1221l8 9q81 -21 163 -30q33 -161 154 -213l-5 -11q-99 26 -186 90q-95 69 -134 155z " />
<glyph unicode="&#x1ea8;" horiz-adv-x="2125" d="M105 432q94 45 177 97q98 -29 202 -46q126 -20 532 -36l436 -17q19 29 82 138l73 126q279 481 504 659q99 26 191 58q0 -169 -134 -528l-78 -209q-17 -46 -61 -180l-26 -79l228 -6l-157 -66l-96 -4l-42 -129q-36 -111 -36 -155q0 -8 2 -25q-110 -24 -224 -55 q52 133 86 233l43 127h-296q-146 -181 -268 -257q-155 -97 -371 -97q-269 0 -532 199q-148 112 -235 252zM393 371q92 -121 237 -213q204 -129 373 -129q133 0 236 95q71 66 155 212zM1576 426l258 -7l223 660q37 109 55 216q-87 -89 -192 -277l-106 -190 q-125 -224 -238 -402zM2025 1495q145 89 211 198q56 17 109 36q13 -104 61 -218q-63 -27 -130 -46q-34 91 -46 152q-78 -87 -163 -150zM2258 1818q0 22 15 32q10 7 42 17l29 10q45 14 45 44q0 35 -61 60l-28 11q-20 8 -20 15q0 20 62 52l2 -3q-4 -5 -4 -9q0 -7 17 -10 l62 -13q58 -11 58 -58q0 -57 -92 -101l-22 -11q-7 -3 -19 -11q-4 -6 -1 -28q2 -4 18 -21q-15 -6 -80 -40q-23 34 -23 64z" />
<glyph unicode="&#x1ea9;" d="M73 88q0 163 212 327q202 157 370 157q86 0 160 -31q-16 -36 -94 -194q-81 -165 -81 -226q0 -50 84 -50q66 0 110 12l5 -15q-262 -92 -317 -92q-68 0 -68 63q0 23 18 76q10 30 18 59q-180 -191 -327 -191q-90 0 -90 105zM257 145q0 -71 61 -71q63 0 148 130 q79 120 134 246q-76 22 -131 22q-121 0 -184 -189q-28 -83 -28 -138zM494 717q145 89 211 198q56 17 109 36q13 -104 61 -218q-63 -27 -130 -46q-34 91 -46 152q-78 -87 -163 -150zM727 1040q0 22 15 32q10 7 42 17l29 10q45 14 45 44q0 35 -61 60l-28 11q-20 8 -20 15 q0 20 62 52l2 -3q-4 -5 -4 -9q0 -7 17 -10l62 -13q58 -11 58 -58q0 -57 -92 -101l-22 -11q-7 -3 -19 -11q-4 -6 -1 -28q2 -4 18 -21q-15 -6 -80 -40q-23 34 -23 64z" />
<glyph unicode="&#x1eaa;" horiz-adv-x="2125" d="M105 432q94 45 177 97q98 -29 202 -46q126 -20 532 -36l436 -17q19 29 82 138l73 126q279 481 504 659q99 26 191 58q0 -169 -134 -528l-78 -209q-17 -46 -61 -180l-26 -79l228 -6l-157 -66l-96 -4l-42 -129q-36 -111 -36 -155q0 -8 2 -25q-110 -24 -224 -55 q52 133 86 233l43 127h-296q-146 -181 -268 -257q-155 -97 -371 -97q-269 0 -532 199q-148 112 -235 252zM393 371q92 -121 237 -213q204 -129 373 -129q133 0 236 95q71 66 155 212zM1576 426l258 -7l223 660q37 109 55 216q-87 -89 -192 -277l-106 -190 q-125 -224 -238 -402zM2025 1495q145 89 211 198q56 17 109 36q13 -104 61 -218q-63 -27 -130 -46q-34 91 -46 152q-78 -87 -163 -150zM2174 1799q54 85 70 104q51 60 104 60q25 0 60 -8l88 -20q13 -3 35 -3q36 0 77 48l18 -4q-47 -83 -60 -101q-46 -64 -90 -64q-22 0 -68 7 l-98 15q-26 4 -43 4q-37 0 -75 -45z" />
<glyph unicode="&#x1eab;" d="M73 88q0 163 212 327q202 157 370 157q86 0 160 -31q-16 -36 -94 -194q-81 -165 -81 -226q0 -50 84 -50q66 0 110 12l5 -15q-262 -92 -317 -92q-68 0 -68 63q0 23 18 76q10 30 18 59q-180 -191 -327 -191q-90 0 -90 105zM257 145q0 -71 61 -71q63 0 148 130 q79 120 134 246q-76 22 -131 22q-121 0 -184 -189q-28 -83 -28 -138zM494 717q145 89 211 198q56 17 109 36q13 -104 61 -218q-63 -27 -130 -46q-34 91 -46 152q-78 -87 -163 -150zM644 1021q54 85 70 104q51 60 104 60q25 0 60 -8l88 -20q13 -3 35 -3q36 0 77 48l18 -4 q-47 -83 -60 -101q-46 -64 -90 -64q-22 0 -68 7l-98 15q-26 4 -43 4q-37 0 -75 -45z" />
<glyph unicode="&#x1eac;" horiz-adv-x="2125" d="M105 432q94 45 177 97q98 -29 202 -46q126 -20 532 -36l436 -17q19 29 82 138l73 126q279 481 504 659q99 26 191 58q0 -169 -134 -528l-78 -209q-17 -46 -61 -180l-26 -79l228 -6l-157 -66l-96 -4l-42 -129q-36 -111 -36 -155q0 -8 2 -25q-110 -24 -224 -55 q52 133 86 233l43 127h-296q-146 -181 -268 -257q-155 -97 -371 -97q-269 0 -532 199q-148 112 -235 252zM393 371q92 -121 237 -213q204 -129 373 -129q133 0 236 95q71 66 155 212zM1283 -258q0 36 25.5 62t62.5 26q38 1 63.5 -25t25.5 -64q0 -36 -26 -62t-62 -26 t-62.5 26.5t-26.5 62.5zM1576 426l258 -7l223 660q37 109 55 216q-87 -89 -192 -277l-106 -190q-125 -224 -238 -402zM2025 1495q145 89 211 198q56 17 109 36q13 -104 61 -218q-63 -27 -130 -46q-34 91 -46 152q-78 -87 -163 -150z" />
<glyph unicode="&#x1ead;" d="M73 88q0 163 212 327q202 157 370 157q86 0 160 -31q-16 -36 -94 -194q-81 -165 -81 -226q0 -50 84 -50q66 0 110 12l5 -15q-262 -92 -317 -92q-68 0 -68 63q0 23 18 76q10 30 18 59q-180 -191 -327 -191q-90 0 -90 105zM167 -258q0 36 25.5 62t62.5 26q38 1 63.5 -25 t25.5 -64q0 -36 -26 -62t-62 -26t-62.5 26.5t-26.5 62.5zM257 145q0 -71 61 -71q63 0 148 130q79 120 134 246q-76 22 -131 22q-121 0 -184 -189q-28 -83 -28 -138zM494 717q145 89 211 198q56 17 109 36q13 -104 61 -218q-63 -27 -130 -46q-34 91 -46 152 q-78 -87 -163 -150z" />
<glyph unicode="&#x1eae;" horiz-adv-x="2125" d="M105 432q94 45 177 97q98 -29 202 -46q126 -20 532 -36l436 -17q19 29 82 138l73 126q279 481 504 659q99 26 191 58q0 -169 -134 -528l-78 -209q-17 -46 -61 -180l-26 -79l228 -6l-157 -66l-96 -4l-42 -129q-36 -111 -36 -155q0 -8 2 -25q-110 -24 -224 -55 q52 133 86 233l43 127h-296q-146 -181 -268 -257q-155 -97 -371 -97q-269 0 -532 199q-148 112 -235 252zM393 371q92 -121 237 -213q204 -129 373 -129q133 0 236 95q71 66 155 212zM1576 426l258 -7l223 660q37 109 55 216q-87 -89 -192 -277l-106 -190 q-125 -224 -238 -402zM2066 1630q0 20 4 41l148 39q-7 -50 -7 -68q0 -57 54 -57q75 0 183 136l28 -22q-158 -227 -288 -227q-122 0 -122 158zM2184 1764q122 52 154 213q82 9 163 30l8 -9q-39 -86 -134 -155q-87 -64 -186 -90z" />
<glyph unicode="&#x1eaf;" d="M73 88q0 163 212 327q202 157 370 157q86 0 160 -31q-16 -36 -94 -194q-81 -165 -81 -226q0 -50 84 -50q66 0 110 12l5 -15q-262 -92 -317 -92q-68 0 -68 63q0 23 18 76q10 30 18 59q-180 -191 -327 -191q-90 0 -90 105zM257 145q0 -71 61 -71q63 0 148 130 q79 120 134 246q-76 22 -131 22q-121 0 -184 -189q-28 -83 -28 -138zM519 853q0 20 4 41l148 39q-7 -50 -7 -68q0 -57 54 -57q75 0 183 136l28 -22q-158 -227 -288 -227q-122 0 -122 158zM637 987q122 52 154 213q82 9 163 30l8 -9q-39 -86 -134 -155q-87 -64 -186 -90z" />
<glyph unicode="&#x1eb0;" horiz-adv-x="2125" d="M105 432q94 45 177 97q98 -29 202 -46q126 -20 532 -36l436 -17q19 29 82 138l73 126q279 481 504 659q99 26 191 58q0 -169 -134 -528l-78 -209q-17 -46 -61 -180l-26 -79l228 -6l-157 -66l-96 -4l-42 -129q-36 -111 -36 -155q0 -8 2 -25q-110 -24 -224 -55 q52 133 86 233l43 127h-296q-146 -181 -268 -257q-155 -97 -371 -97q-269 0 -532 199q-148 112 -235 252zM393 371q92 -121 237 -213q204 -129 373 -129q133 0 236 95q71 66 155 212zM1576 426l258 -7l223 660q37 109 55 216q-87 -89 -192 -277l-106 -190 q-125 -224 -238 -402zM2066 1630q0 20 4 41l148 39q-7 -50 -7 -68q0 -57 54 -57q75 0 183 136l28 -22q-158 -227 -288 -227q-122 0 -122 158zM2173 1998l8 9q81 -21 163 -30q33 -161 154 -213l-5 -11q-99 26 -186 90q-95 69 -134 155z" />
<glyph unicode="&#x1eb1;" d="M73 88q0 163 212 327q202 157 370 157q86 0 160 -31q-16 -36 -94 -194q-81 -165 -81 -226q0 -50 84 -50q66 0 110 12l5 -15q-262 -92 -317 -92q-68 0 -68 63q0 23 18 76q10 30 18 59q-180 -191 -327 -191q-90 0 -90 105zM257 145q0 -71 61 -71q63 0 148 130 q79 120 134 246q-76 22 -131 22q-121 0 -184 -189q-28 -83 -28 -138zM519 853q0 20 4 41l148 39q-7 -50 -7 -68q0 -57 54 -57q75 0 183 136l28 -22q-158 -227 -288 -227q-122 0 -122 158zM626 1221l8 9q81 -21 163 -30q33 -161 154 -213l-5 -11q-99 26 -186 90 q-95 69 -134 155z" />
<glyph unicode="&#x1eb2;" horiz-adv-x="2125" d="M105 432q94 45 177 97q98 -29 202 -46q126 -20 532 -36l436 -17q19 29 82 138l73 126q279 481 504 659q99 26 191 58q0 -169 -134 -528l-78 -209q-17 -46 -61 -180l-26 -79l228 -6l-157 -66l-96 -4l-42 -129q-36 -111 -36 -155q0 -8 2 -25q-110 -24 -224 -55 q52 133 86 233l43 127h-296q-146 -181 -268 -257q-155 -97 -371 -97q-269 0 -532 199q-148 112 -235 252zM393 371q92 -121 237 -213q204 -129 373 -129q133 0 236 95q71 66 155 212zM1576 426l258 -7l223 660q37 109 55 216q-87 -89 -192 -277l-106 -190 q-125 -224 -238 -402zM2066 1630q0 20 4 41l148 39q-7 -50 -7 -68q0 -57 54 -57q75 0 183 136l28 -22q-158 -227 -288 -227q-122 0 -122 158zM2274 1817q0 22 15 32q10 7 42 17l29 10q45 14 45 44q0 35 -61 60l-28 11q-20 8 -20 15q0 20 62 52l2 -3q-4 -5 -4 -9q0 -7 17 -10 l62 -13q58 -11 58 -58q0 -57 -92 -101l-22 -11q-7 -3 -19 -11q-4 -6 -1 -28q2 -4 18 -21q-15 -6 -80 -40q-23 34 -23 64z" />
<glyph unicode="&#x1eb3;" d="M73 88q0 163 212 327q202 157 370 157q86 0 160 -31q-16 -36 -94 -194q-81 -165 -81 -226q0 -50 84 -50q66 0 110 12l5 -15q-262 -92 -317 -92q-68 0 -68 63q0 23 18 76q10 30 18 59q-180 -191 -327 -191q-90 0 -90 105zM257 145q0 -71 61 -71q63 0 148 130 q79 120 134 246q-76 22 -131 22q-121 0 -184 -189q-28 -83 -28 -138zM519 853q0 20 4 41l148 39q-7 -50 -7 -68q0 -57 54 -57q75 0 183 136l28 -22q-158 -227 -288 -227q-122 0 -122 158zM727 1040q0 22 15 32q10 7 42 17l29 10q45 14 45 44q0 35 -61 60l-28 11 q-20 8 -20 15q0 20 62 52l2 -3q-4 -5 -4 -9q0 -7 17 -10l62 -13q58 -11 58 -58q0 -57 -92 -101l-22 -11q-7 -3 -19 -11q-4 -6 -1 -28q2 -4 18 -21q-15 -6 -80 -40q-23 34 -23 64z" />
<glyph unicode="&#x1eb4;" horiz-adv-x="2125" d="M105 432q94 45 177 97q98 -29 202 -46q126 -20 532 -36l436 -17q19 29 82 138l73 126q279 481 504 659q99 26 191 58q0 -169 -134 -528l-78 -209q-17 -46 -61 -180l-26 -79l228 -6l-157 -66l-96 -4l-42 -129q-36 -111 -36 -155q0 -8 2 -25q-110 -24 -224 -55 q52 133 86 233l43 127h-296q-146 -181 -268 -257q-155 -97 -371 -97q-269 0 -532 199q-148 112 -235 252zM393 371q92 -121 237 -213q204 -129 373 -129q133 0 236 95q71 66 155 212zM1576 426l258 -7l223 660q37 109 55 216q-87 -89 -192 -277l-106 -190 q-125 -224 -238 -402zM2066 1630q0 20 4 41l148 39q-7 -50 -7 -68q0 -57 54 -57q75 0 183 136l28 -22q-158 -227 -288 -227q-122 0 -122 158zM2161 1798q54 85 70 104q51 60 104 60q25 0 60 -8l88 -20q13 -3 35 -3q36 0 77 48l18 -4q-47 -83 -60 -101q-46 -64 -90 -64 q-22 0 -68 7l-98 15q-26 4 -43 4q-37 0 -75 -45z" />
<glyph unicode="&#x1eb5;" d="M73 88q0 163 212 327q202 157 370 157q86 0 160 -31q-16 -36 -94 -194q-81 -165 -81 -226q0 -50 84 -50q66 0 110 12l5 -15q-262 -92 -317 -92q-68 0 -68 63q0 23 18 76q10 30 18 59q-180 -191 -327 -191q-90 0 -90 105zM257 145q0 -71 61 -71q63 0 148 130 q79 120 134 246q-76 22 -131 22q-121 0 -184 -189q-28 -83 -28 -138zM519 853q0 20 4 41l148 39q-7 -50 -7 -68q0 -57 54 -57q75 0 183 136l28 -22q-158 -227 -288 -227q-122 0 -122 158zM613 1021q54 85 70 104q51 60 104 60q25 0 60 -8l88 -20q13 -3 35 -3q36 0 77 48 l18 -4q-47 -83 -60 -101q-46 -64 -90 -64q-22 0 -68 7l-98 15q-26 4 -43 4q-37 0 -75 -45z" />
<glyph unicode="&#x1eb6;" horiz-adv-x="2125" d="M105 432q94 45 177 97q98 -29 202 -46q126 -20 532 -36l436 -17q19 29 82 138l73 126q279 481 504 659q99 26 191 58q0 -169 -134 -528l-78 -209q-17 -46 -61 -180l-26 -79l228 -6l-157 -66l-96 -4l-42 -129q-36 -111 -36 -155q0 -8 2 -25q-110 -24 -224 -55 q52 133 86 233l43 127h-296q-146 -181 -268 -257q-155 -97 -371 -97q-269 0 -532 199q-148 112 -235 252zM393 371q92 -121 237 -213q204 -129 373 -129q133 0 236 95q71 66 155 212zM1283 -258q0 36 25.5 62t62.5 26q38 1 63.5 -25t25.5 -64q0 -36 -26 -62t-62 -26 t-62.5 26.5t-26.5 62.5zM1576 426l258 -7l223 660q37 109 55 216q-87 -89 -192 -277l-106 -190q-125 -224 -238 -402zM2066 1630q0 20 4 41l148 39q-7 -50 -7 -68q0 -57 54 -57q75 0 183 136l28 -22q-158 -227 -288 -227q-122 0 -122 158z" />
<glyph unicode="&#x1eb7;" d="M73 88q0 163 212 327q202 157 370 157q86 0 160 -31q-16 -36 -94 -194q-81 -165 -81 -226q0 -50 84 -50q66 0 110 12l5 -15q-262 -92 -317 -92q-68 0 -68 63q0 23 18 76q10 30 18 59q-180 -191 -327 -191q-90 0 -90 105zM167 -258q0 36 25.5 62t62.5 26q38 1 63.5 -25 t25.5 -64q0 -36 -26 -62t-62 -26t-62.5 26.5t-26.5 62.5zM257 145q0 -71 61 -71q63 0 148 130q79 120 134 246q-76 22 -131 22q-121 0 -184 -189q-28 -83 -28 -138zM519 853q0 20 4 41l148 39q-7 -50 -7 -68q0 -57 54 -57q75 0 183 136l28 -22q-158 -227 -288 -227 q-122 0 -122 158z" />
<glyph unicode="&#x1eb8;" horiz-adv-x="1202" d="M137 261q0 133 196 252q63 38 123 62q17 7 242 82l96 32q95 32 95 42q0 8 -43 21q-118 36 -163 63q-89 54 -89 128q0 42 31 106l-110 -38l-5 9q101 62 200 131q179 182 353 244q93 33 157 33q24 0 24 -15q0 -25 -68 -92q-55 -54 -92 -81q-68 -49 -199 -96 q-69 -25 -112 -42q-2 -14 -2 -21q0 -101 171 -161l57 -20q100 -35 100 -58q0 -30 -190 -158q-81 -55 -222 -80l-61 -11q-297 -54 -297 -220q0 -141 210 -214q151 -53 351 -53q113 0 383 34l4 -9q-97 -54 -194 -124q-162 -33 -342 -33q-272 0 -447 86q-157 77 -157 201z M490 -258q0 36 25.5 62t62.5 26q38 1 63.5 -25t25.5 -64q0 -36 -26 -62t-62 -26t-62.5 26.5t-26.5 62.5z" />
<glyph unicode="&#x1eb9;" horiz-adv-x="679" d="M79 -258q0 36 25.5 62t62.5 26q38 1 63.5 -25t25.5 -64q0 -36 -26 -62t-62 -26t-62.5 26.5t-26.5 62.5zM84 145q0 167 177 302q170 129 338 129q111 0 111 -94q0 -110 -159 -215q-115 -77 -256 -121q84 -89 262 -89q79 0 149 18l5 -15q-262 -82 -414 -82q-213 0 -213 167 zM266 239q0 -43 19 -78q90 43 154 117q75 86 75 174q0 63 -62 63q-101 0 -163 -162q-23 -61 -23 -114z" />
<glyph unicode="&#x1eba;" horiz-adv-x="1202" d="M137 261q0 133 196 252q63 38 123 62q17 7 242 82l96 32q95 32 95 42q0 8 -43 21q-118 36 -163 63q-89 54 -89 128q0 42 31 106l-110 -38l-5 9q101 62 200 131q179 182 353 244q93 33 157 33q24 0 24 -15q0 -25 -68 -92q-55 -54 -92 -81q-68 -49 -199 -96 q-69 -25 -112 -42q-2 -14 -2 -21q0 -101 171 -161l57 -20q100 -35 100 -58q0 -30 -190 -158q-81 -55 -222 -80l-61 -11q-297 -54 -297 -220q0 -141 210 -214q151 -53 351 -53q113 0 383 34l4 -9q-97 -54 -194 -124q-162 -33 -342 -33q-272 0 -447 86q-157 77 -157 201z M1030 1525q0 22 15 32q10 7 42 17l29 10q45 14 45 44q0 35 -61 60l-28 11q-20 8 -20 15q0 20 62 52l2 -3q-4 -5 -4 -9q0 -7 17 -10l62 -13q58 -11 58 -58q0 -57 -92 -101l-22 -11q-7 -3 -19 -11q-4 -6 -1 -28q2 -4 18 -21q-15 -6 -80 -40q-23 34 -23 64z" />
<glyph unicode="&#x1ebb;" horiz-adv-x="679" d="M84 145q0 167 177 302q170 129 338 129q111 0 111 -94q0 -110 -159 -215q-115 -77 -256 -121q84 -89 262 -89q79 0 149 18l5 -15q-262 -82 -414 -82q-213 0 -213 167zM266 239q0 -43 19 -78q90 43 154 117q75 86 75 174q0 63 -62 63q-101 0 -163 -162q-23 -61 -23 -114z M512 755q0 22 15 32q10 7 42 17l29 10q45 14 45 44q0 35 -61 60l-28 11q-20 8 -20 15q0 20 62 52l2 -3q-4 -5 -4 -9q0 -7 17 -10l62 -13q58 -11 58 -58q0 -57 -92 -101l-22 -11q-7 -3 -19 -11q-4 -6 -1 -28q2 -4 18 -21q-15 -6 -80 -40q-23 34 -23 64z" />
<glyph unicode="&#x1ebc;" horiz-adv-x="1202" d="M137 261q0 133 196 252q63 38 123 62q17 7 242 82l96 32q95 32 95 42q0 8 -43 21q-118 36 -163 63q-89 54 -89 128q0 42 31 106l-110 -38l-5 9q101 62 200 131q179 182 353 244q93 33 157 33q24 0 24 -15q0 -25 -68 -92q-55 -54 -92 -81q-68 -49 -199 -96 q-69 -25 -112 -42q-2 -14 -2 -21q0 -101 171 -161l57 -20q100 -35 100 -58q0 -30 -190 -158q-81 -55 -222 -80l-61 -11q-297 -54 -297 -220q0 -141 210 -214q151 -53 351 -53q113 0 383 34l4 -9q-97 -54 -194 -124q-162 -33 -342 -33q-272 0 -447 86q-157 77 -157 201z M864 1497q65 85 88 107q59 57 121 57q30 0 72 -8l105 -20q16 -3 43 -3q42 0 91 48l22 -4q-55 -82 -74 -104q-54 -61 -106 -61q-37 0 -81 6l-118 16q-30 4 -51 4q-45 0 -90 -45z" />
<glyph unicode="&#x1ebd;" horiz-adv-x="679" d="M84 145q0 167 177 302q170 129 338 129q111 0 111 -94q0 -110 -159 -215q-115 -77 -256 -121q84 -89 262 -89q79 0 149 18l5 -15q-262 -82 -414 -82q-213 0 -213 167zM266 239q0 -43 19 -78q90 43 154 117q75 86 75 174q0 63 -62 63q-101 0 -163 -162q-23 -61 -23 -114z M343 732q54 85 70 104q51 60 104 60q25 0 60 -8l88 -20q13 -3 35 -3q36 0 77 48l18 -4q-47 -83 -60 -101q-46 -64 -90 -64q-22 0 -68 7l-98 15q-26 4 -43 4q-37 0 -75 -45z" />
<glyph unicode="&#x1ebe;" horiz-adv-x="1202" d="M137 261q0 133 196 252q63 38 123 62q17 7 242 82l96 32q95 32 95 42q0 8 -43 21q-118 36 -163 63q-89 54 -89 128q0 42 31 106l-110 -38l-5 9q101 62 200 131q179 182 353 244q93 33 157 33q24 0 24 -15q0 -25 -68 -92q-55 -54 -92 -81q-68 -49 -199 -96 q-69 -25 -112 -42q-2 -14 -2 -21q0 -101 171 -161l57 -20q100 -35 100 -58q0 -30 -190 -158q-81 -55 -222 -80l-61 -11q-297 -54 -297 -220q0 -141 210 -214q151 -53 351 -53q113 0 383 34l4 -9q-97 -54 -194 -124q-162 -33 -342 -33q-272 0 -447 86q-157 77 -157 201z M956 1495q145 89 211 198q56 17 109 36q13 -104 61 -218q-63 -27 -130 -46q-34 91 -46 152q-78 -87 -163 -150zM1054 1765q122 52 154 213q82 9 163 30l8 -9q-39 -86 -134 -155q-87 -64 -186 -90z" />
<glyph unicode="&#x1ebf;" horiz-adv-x="679" d="M57 145q0 167 177 302q170 129 338 129q111 0 111 -94q0 -110 -159 -215q-115 -77 -256 -121q84 -89 262 -89q79 0 149 18l5 -15q-262 -82 -414 -82q-213 0 -213 167zM239 239q0 -43 19 -78q90 43 154 117q75 86 75 174q0 63 -62 63q-101 0 -163 -162q-23 -61 -23 -114z M354 717q145 89 211 198q56 17 109 36q13 -104 61 -218q-63 -27 -130 -46q-34 91 -46 152q-78 -87 -163 -150zM453 987q122 52 154 213q82 9 163 30l8 -9q-39 -86 -134 -155q-87 -64 -186 -90z" />
<glyph unicode="&#x1ec0;" horiz-adv-x="1202" d="M137 261q0 133 196 252q63 38 123 62q17 7 242 82l96 32q95 32 95 42q0 8 -43 21q-118 36 -163 63q-89 54 -89 128q0 42 31 106l-110 -38l-5 9q101 62 200 131q179 182 353 244q93 33 157 33q24 0 24 -15q0 -25 -68 -92q-55 -54 -92 -81q-68 -49 -199 -96 q-69 -25 -112 -42q-2 -14 -2 -21q0 -101 171 -161l57 -20q100 -35 100 -58q0 -30 -190 -158q-81 -55 -222 -80l-61 -11q-297 -54 -297 -220q0 -141 210 -214q151 -53 351 -53q113 0 383 34l4 -9q-97 -54 -194 -124q-162 -33 -342 -33q-272 0 -447 86q-157 77 -157 201z M956 1495q145 89 211 198q56 17 109 36q13 -104 61 -218q-63 -27 -130 -46q-34 91 -46 152q-78 -87 -163 -150zM1159 2000l8 9q81 -21 163 -30q33 -161 154 -213l-5 -11q-99 26 -186 90q-95 69 -134 155z" />
<glyph unicode="&#x1ec1;" horiz-adv-x="679" d="M57 145q0 167 177 302q170 129 338 129q111 0 111 -94q0 -110 -159 -215q-115 -77 -256 -121q84 -89 262 -89q79 0 149 18l5 -15q-262 -82 -414 -82q-213 0 -213 167zM239 239q0 -43 19 -78q90 43 154 117q75 86 75 174q0 63 -62 63q-101 0 -163 -162q-23 -61 -23 -114z M354 717q145 89 211 198q56 17 109 36q13 -104 61 -218q-63 -27 -130 -46q-34 91 -46 152q-78 -87 -163 -150zM558 1221l8 9q81 -21 163 -30q33 -161 154 -213l-5 -11q-99 26 -186 90q-95 69 -134 155z" />
<glyph unicode="&#x1ec2;" horiz-adv-x="1202" d="M137 261q0 133 196 252q63 38 123 62q17 7 242 82l96 32q95 32 95 42q0 8 -43 21q-118 36 -163 63q-89 54 -89 128q0 42 31 106l-110 -38l-5 9q101 62 200 131q179 182 353 244q93 33 157 33q24 0 24 -15q0 -25 -68 -92q-55 -54 -92 -81q-68 -49 -199 -96 q-69 -25 -112 -42q-2 -14 -2 -21q0 -101 171 -161l57 -20q100 -35 100 -58q0 -30 -190 -158q-81 -55 -222 -80l-61 -11q-297 -54 -297 -220q0 -141 210 -214q151 -53 351 -53q113 0 383 34l4 -9q-97 -54 -194 -124q-162 -33 -342 -33q-272 0 -447 86q-157 77 -157 201z M956 1495q145 89 211 198q56 17 109 36q13 -104 61 -218q-63 -27 -130 -46q-34 91 -46 152q-78 -87 -163 -150zM1189 1819q0 22 15 32q10 7 42 17l29 10q45 14 45 44q0 35 -61 60l-28 11q-20 8 -20 15q0 20 62 52l2 -3q-4 -5 -4 -9q0 -7 17 -10l62 -13q58 -11 58 -58 q0 -57 -92 -101l-22 -11q-7 -3 -19 -11q-4 -6 -1 -28q2 -4 18 -21q-15 -6 -80 -40q-23 34 -23 64z" />
<glyph unicode="&#x1ec3;" horiz-adv-x="679" d="M57 145q0 167 177 302q170 129 338 129q111 0 111 -94q0 -110 -159 -215q-115 -77 -256 -121q84 -89 262 -89q79 0 149 18l5 -15q-262 -82 -414 -82q-213 0 -213 167zM239 239q0 -43 19 -78q90 43 154 117q75 86 75 174q0 63 -62 63q-101 0 -163 -162q-23 -61 -23 -114z M354 717q145 89 211 198q56 17 109 36q13 -104 61 -218q-63 -27 -130 -46q-34 91 -46 152q-78 -87 -163 -150zM587 1040q0 22 15 32q10 7 42 17l29 10q45 14 45 44q0 35 -61 60l-28 11q-20 8 -20 15q0 20 62 52l2 -3q-4 -5 -4 -9q0 -7 17 -10l62 -13q58 -11 58 -58 q0 -57 -92 -101l-22 -11q-7 -3 -19 -11q-4 -6 -1 -28q2 -4 18 -21q-15 -6 -80 -40q-23 34 -23 64z" />
<glyph unicode="&#x1ec4;" horiz-adv-x="1202" d="M137 261q0 133 196 252q63 38 123 62q17 7 242 82l96 32q95 32 95 42q0 8 -43 21q-118 36 -163 63q-89 54 -89 128q0 42 31 106l-110 -38l-5 9q101 62 200 131q179 182 353 244q93 33 157 33q24 0 24 -15q0 -25 -68 -92q-55 -54 -92 -81q-68 -49 -199 -96 q-69 -25 -112 -42q-2 -14 -2 -21q0 -101 171 -161l57 -20q100 -35 100 -58q0 -30 -190 -158q-81 -55 -222 -80l-61 -11q-297 -54 -297 -220q0 -141 210 -214q151 -53 351 -53q113 0 383 34l4 -9q-97 -54 -194 -124q-162 -33 -342 -33q-272 0 -447 86q-157 77 -157 201z M956 1495q145 89 211 198q56 17 109 36q13 -104 61 -218q-63 -27 -130 -46q-34 91 -46 152q-78 -87 -163 -150zM1105 1799q54 85 70 104q51 60 104 60q25 0 60 -8l88 -20q13 -3 35 -3q36 0 77 48l18 -4q-47 -83 -60 -101q-46 -64 -90 -64q-22 0 -68 7l-98 15q-26 4 -43 4 q-37 0 -75 -45z" />
<glyph unicode="&#x1ec5;" horiz-adv-x="679" d="M57 145q0 167 177 302q170 129 338 129q111 0 111 -94q0 -110 -159 -215q-115 -77 -256 -121q84 -89 262 -89q79 0 149 18l5 -15q-262 -82 -414 -82q-213 0 -213 167zM239 239q0 -43 19 -78q90 43 154 117q75 86 75 174q0 63 -62 63q-101 0 -163 -162q-23 -61 -23 -114z M354 717q145 89 211 198q56 17 109 36q13 -104 61 -218q-63 -27 -130 -46q-34 91 -46 152q-78 -87 -163 -150zM504 1021q54 85 70 104q51 60 104 60q25 0 60 -8l88 -20q13 -3 35 -3q36 0 77 48l18 -4q-47 -83 -60 -101q-46 -64 -90 -64q-22 0 -68 7l-98 15q-26 4 -43 4 q-37 0 -75 -45z" />
<glyph unicode="&#x1ec6;" horiz-adv-x="1202" d="M137 261q0 133 196 252q63 38 123 62q17 7 242 82l96 32q95 32 95 42q0 8 -43 21q-118 36 -163 63q-89 54 -89 128q0 42 31 106l-110 -38l-5 9q101 62 200 131q179 182 353 244q93 33 157 33q24 0 24 -15q0 -25 -68 -92q-55 -54 -92 -81q-68 -49 -199 -96 q-69 -25 -112 -42q-2 -14 -2 -21q0 -101 171 -161l57 -20q100 -35 100 -58q0 -30 -190 -158q-81 -55 -222 -80l-61 -11q-297 -54 -297 -220q0 -141 210 -214q151 -53 351 -53q113 0 383 34l4 -9q-97 -54 -194 -124q-162 -33 -342 -33q-272 0 -447 86q-157 77 -157 201z M490 -258q0 36 25.5 62t62.5 26q38 1 63.5 -25t25.5 -64q0 -36 -26 -62t-62 -26t-62.5 26.5t-26.5 62.5zM956 1495q145 89 211 198q56 17 109 36q13 -104 61 -218q-63 -27 -130 -46q-34 91 -46 152q-78 -87 -163 -150z" />
<glyph unicode="&#x1ec7;" horiz-adv-x="679" d="M57 145q0 167 177 302q170 129 338 129q111 0 111 -94q0 -110 -159 -215q-115 -77 -256 -121q84 -89 262 -89q79 0 149 18l5 -15q-262 -82 -414 -82q-213 0 -213 167zM79 -258q0 36 25.5 62t62.5 26q38 1 63.5 -25t25.5 -64q0 -36 -26 -62t-62 -26t-62.5 26.5t-26.5 62.5 zM239 239q0 -43 19 -78q90 43 154 117q75 86 75 174q0 63 -62 63q-101 0 -163 -162q-23 -61 -23 -114zM354 717q145 89 211 198q56 17 109 36q13 -104 61 -218q-63 -27 -130 -46q-34 91 -46 152q-78 -87 -163 -150z" />
<glyph unicode="&#x1ec8;" horiz-adv-x="1574" d="M251 44q0 14 69 66q45 34 90 84q110 -4 185 -4q80 0 269 13q-31 -35 -36 -39q-22 -24 -22 -30q0 -14 40 -14q105 0 242 31q224 50 342 230q108 164 108 403q0 270 -149 407q-105 97 -253 97q-315 0 -656 -467q-102 -56 -205 -119l-7 9q247 278 508 472q344 255 586 255 q255 0 340 -263q32 -101 32 -219q0 -300 -189 -535q-171 -211 -466 -337q-260 -111 -523 -111q-73 0 -167 14q-138 20 -138 57zM1370 1525q0 22 15 32q10 7 42 17l29 10q45 14 45 44q0 35 -61 60l-28 11q-20 8 -20 15q0 20 62 52l2 -3q-4 -5 -4 -9q0 -7 17 -10l62 -13 q58 -11 58 -58q0 -57 -92 -101l-22 -11q-7 -3 -19 -11q-4 -6 -1 -28q2 -4 18 -21q-15 -6 -80 -40q-23 34 -23 64z" />
<glyph unicode="&#x1ec9;" horiz-adv-x="461" d="M103 71q0 50 44 160l117 293q100 23 197 59l-133 -304q-42 -96 -42 -136q0 -63 100 -63q46 0 133 14v-18q-257 -95 -321 -95q-95 0 -95 90zM335 755q0 22 15 32q10 7 42 17l29 10q45 14 45 44q0 35 -61 60l-28 11q-20 8 -20 15q0 20 62 52l2 -3q-4 -5 -4 -9q0 -7 17 -10 l62 -13q58 -11 58 -58q0 -57 -92 -101l-22 -11q-7 -3 -19 -11q-4 -6 -1 -28q2 -4 18 -21q-15 -6 -80 -40q-23 34 -23 64z" />
<glyph unicode="&#x1eca;" horiz-adv-x="1574" d="M251 44q0 14 69 66q45 34 90 84q110 -4 185 -4q80 0 269 13q-31 -35 -36 -39q-22 -24 -22 -30q0 -14 40 -14q105 0 242 31q224 50 342 230q108 164 108 403q0 270 -149 407q-105 97 -253 97q-315 0 -656 -467q-102 -56 -205 -119l-7 9q247 278 508 472q344 255 586 255 q255 0 340 -263q32 -101 32 -219q0 -300 -189 -535q-171 -211 -466 -337q-260 -111 -523 -111q-73 0 -167 14q-138 20 -138 57zM490 -258q0 36 25.5 62t62.5 26q38 1 63.5 -25t25.5 -64q0 -36 -26 -62t-62 -26t-62.5 26.5t-26.5 62.5z" />
<glyph unicode="&#x1ecb;" horiz-adv-x="461" d="M63 -258q0 36 25.5 62t62.5 26q38 1 63.5 -25t25.5 -64q0 -36 -26 -62t-62 -26t-62.5 26.5t-26.5 62.5zM117 71q0 50 44 160l117 293q100 23 197 59l-133 -304q-42 -96 -42 -136q0 -63 100 -63q46 0 133 14v-18q-257 -95 -321 -95q-95 0 -95 90zM351 833q0 45 32.5 76 t77.5 32q41 0 65.5 -27.5t24.5 -68.5q0 -44 -31.5 -74t-75.5 -30q-40 0 -66.5 26t-26.5 66z" />
<glyph unicode="&#x1ecc;" horiz-adv-x="1385" d="M263 416q0 351 312 660q136 135 289 214l10 -13q-171 -96 -270 -221q-169 -214 -169 -469q0 -214 119 -370q126 -165 332 -165q243 0 405 237q131 191 131 424q0 249 -110 408q-99 144 -239 144q-125 0 -200 -133q-70 -124 -70 -258q0 -76 29 -195l-13 -4 q-51 136 -67 285q56 158 178 289q158 169 324 169q131 0 223 -112q108 -131 108 -370q0 -264 -149 -512q-144 -239 -376 -380q-187 -113 -377 -113q-149 0 -257 94q-163 141 -163 391zM490 -258q0 36 25.5 62t62.5 26q38 1 63.5 -25t25.5 -64q0 -36 -26 -62t-62 -26 t-62.5 26.5t-26.5 62.5z" />
<glyph unicode="&#x1ecd;" horiz-adv-x="689" d="M49 104q0 220 311 372q-46 28 -46 37q0 7 26 11q49 7 103 27q77 29 97 29q59 0 97 -62q35 -5 71 -6l10 -15q-29 -27 -58 -45q1 -37 1 -47q0 -162 -139 -297q-153 -149 -325 -149q-148 0 -148 145zM79 -258q0 36 25.5 62t62.5 26q38 1 63.5 -25t25.5 -64q0 -36 -26 -62 t-62 -26t-62.5 26.5t-26.5 62.5zM236 176q0 -57 32.5 -94.5t88.5 -37.5q66 0 99 54q46 75 46 174q0 68 -30 162q-49 9 -91 29q-60 -53 -101 -130q-44 -83 -44 -157z" />
<glyph unicode="&#x1ece;" horiz-adv-x="1385" d="M263 416q0 351 312 660q136 135 289 214l10 -13q-171 -96 -270 -221q-169 -214 -169 -469q0 -214 119 -370q126 -165 332 -165q243 0 405 237q131 191 131 424q0 249 -110 408q-99 144 -239 144q-125 0 -200 -133q-70 -124 -70 -258q0 -76 29 -195l-13 -4 q-51 136 -67 285q56 158 178 289q158 169 324 169q131 0 223 -112q108 -131 108 -370q0 -264 -149 -512q-144 -239 -376 -380q-187 -113 -377 -113q-149 0 -257 94q-163 141 -163 391zM1179 1525q0 22 15 32q10 7 42 17l29 10q45 14 45 44q0 35 -61 60l-28 11q-20 8 -20 15 q0 20 62 52l2 -3q-4 -5 -4 -9q0 -7 17 -10l62 -13q58 -11 58 -58q0 -57 -92 -101l-22 -11q-7 -3 -19 -11q-4 -6 -1 -28q2 -4 18 -21q-15 -6 -80 -40q-23 34 -23 64z" />
<glyph unicode="&#x1ecf;" horiz-adv-x="689" d="M49 104q0 220 311 372q-46 28 -46 37q0 7 26 11q49 7 103 27q77 29 97 29q59 0 97 -62q35 -5 71 -6l10 -15q-29 -27 -58 -45q1 -37 1 -47q0 -162 -139 -297q-153 -149 -325 -149q-148 0 -148 145zM236 176q0 -57 32.5 -94.5t88.5 -37.5q66 0 99 54q46 75 46 174 q0 68 -30 162q-49 9 -91 29q-60 -53 -101 -130q-44 -83 -44 -157zM533 755q0 22 15 32q10 7 42 17l29 10q45 14 45 44q0 35 -61 60l-28 11q-20 8 -20 15q0 20 62 52l2 -3q-4 -5 -4 -9q0 -7 17 -10l62 -13q58 -11 58 -58q0 -57 -92 -101l-22 -11q-7 -3 -19 -11q-4 -6 -1 -28 q2 -4 18 -21q-15 -6 -80 -40q-23 34 -23 64z" />
<glyph unicode="&#x1ed0;" horiz-adv-x="1385" d="M263 416q0 351 312 660q136 135 289 214l10 -13q-171 -96 -270 -221q-169 -214 -169 -469q0 -214 119 -370q126 -165 332 -165q243 0 405 237q131 191 131 424q0 249 -110 408q-99 144 -239 144q-125 0 -200 -133q-70 -124 -70 -258q0 -76 29 -195l-13 -4 q-51 136 -67 285q56 158 178 289q158 169 324 169q131 0 223 -112q108 -131 108 -370q0 -264 -149 -512q-144 -239 -376 -380q-187 -113 -377 -113q-149 0 -257 94q-163 141 -163 391zM1066 1495q145 89 211 198q56 17 109 36q13 -104 61 -218q-63 -27 -130 -46 q-34 91 -46 152q-78 -87 -163 -150zM1165 1765q122 52 154 213q82 9 163 30l8 -9q-39 -86 -134 -155q-87 -64 -186 -90z" />
<glyph unicode="&#x1ed1;" horiz-adv-x="689" d="M56 104q0 220 311 372q-46 28 -46 37q0 7 26 11q49 7 103 27q77 29 97 29q59 0 97 -62q35 -5 71 -6l10 -15q-29 -27 -58 -45q1 -37 1 -47q0 -162 -139 -297q-153 -149 -325 -149q-148 0 -148 145zM243 176q0 -57 32.5 -94.5t88.5 -37.5q66 0 99 54q46 75 46 174 q0 68 -30 162q-49 9 -91 29q-60 -53 -101 -130q-44 -83 -44 -157zM359 717q145 89 211 198q56 17 109 36q13 -104 61 -218q-63 -27 -130 -46q-34 91 -46 152q-78 -87 -163 -150zM457 987q122 52 154 213q82 9 163 30l8 -9q-39 -86 -134 -155q-87 -64 -186 -90z" />
<glyph unicode="&#x1ed2;" horiz-adv-x="1385" d="M263 416q0 351 312 660q136 135 289 214l10 -13q-171 -96 -270 -221q-169 -214 -169 -469q0 -214 119 -370q126 -165 332 -165q243 0 405 237q131 191 131 424q0 249 -110 408q-99 144 -239 144q-125 0 -200 -133q-70 -124 -70 -258q0 -76 29 -195l-13 -4 q-51 136 -67 285q56 158 178 289q158 169 324 169q131 0 223 -112q108 -131 108 -370q0 -264 -149 -512q-144 -239 -376 -380q-187 -113 -377 -113q-149 0 -257 94q-163 141 -163 391zM1066 1495q145 89 211 198q56 17 109 36q13 -104 61 -218q-63 -27 -130 -46 q-34 91 -46 152q-78 -87 -163 -150zM1270 2000l8 9q81 -21 163 -30q33 -161 154 -213l-5 -11q-99 26 -186 90q-95 69 -134 155z" />
<glyph unicode="&#x1ed3;" horiz-adv-x="689" d="M56 104q0 220 311 372q-46 28 -46 37q0 7 26 11q49 7 103 27q77 29 97 29q59 0 97 -62q35 -5 71 -6l10 -15q-29 -27 -58 -45q1 -37 1 -47q0 -162 -139 -297q-153 -149 -325 -149q-148 0 -148 145zM243 176q0 -57 32.5 -94.5t88.5 -37.5q66 0 99 54q46 75 46 174 q0 68 -30 162q-49 9 -91 29q-60 -53 -101 -130q-44 -83 -44 -157zM359 717q145 89 211 198q56 17 109 36q13 -104 61 -218q-63 -27 -130 -46q-34 91 -46 152q-78 -87 -163 -150zM563 1221l8 9q81 -21 163 -30q33 -161 154 -213l-5 -11q-99 26 -186 90q-95 69 -134 155z" />
<glyph unicode="&#x1ed4;" horiz-adv-x="1385" d="M263 416q0 351 312 660q136 135 289 214l10 -13q-171 -96 -270 -221q-169 -214 -169 -469q0 -214 119 -370q126 -165 332 -165q243 0 405 237q131 191 131 424q0 249 -110 408q-99 144 -239 144q-125 0 -200 -133q-70 -124 -70 -258q0 -76 29 -195l-13 -4 q-51 136 -67 285q56 158 178 289q158 169 324 169q131 0 223 -112q108 -131 108 -370q0 -264 -149 -512q-144 -239 -376 -380q-187 -113 -377 -113q-149 0 -257 94q-163 141 -163 391zM1066 1495q145 89 211 198q56 17 109 36q13 -104 61 -218q-63 -27 -130 -46 q-34 91 -46 152q-78 -87 -163 -150zM1300 1818q0 22 15 32q10 7 42 17l29 10q45 14 45 44q0 35 -61 60l-28 11q-20 8 -20 15q0 20 62 52l2 -3q-4 -5 -4 -9q0 -7 17 -10l62 -13q58 -11 58 -58q0 -57 -92 -101l-22 -11q-7 -3 -19 -11q-4 -6 -1 -28q2 -4 18 -21q-15 -6 -80 -40 q-23 34 -23 64z" />
<glyph unicode="&#x1ed5;" horiz-adv-x="689" d="M56 104q0 220 311 372q-46 28 -46 37q0 7 26 11q49 7 103 27q77 29 97 29q59 0 97 -62q35 -5 71 -6l10 -15q-29 -27 -58 -45q1 -37 1 -47q0 -162 -139 -297q-153 -149 -325 -149q-148 0 -148 145zM243 176q0 -57 32.5 -94.5t88.5 -37.5q66 0 99 54q46 75 46 174 q0 68 -30 162q-49 9 -91 29q-60 -53 -101 -130q-44 -83 -44 -157zM359 717q145 89 211 198q56 17 109 36q13 -104 61 -218q-63 -27 -130 -46q-34 91 -46 152q-78 -87 -163 -150zM592 1040q0 22 15 32q10 7 42 17l29 10q45 14 45 44q0 35 -61 60l-28 11q-20 8 -20 15 q0 20 62 52l2 -3q-4 -5 -4 -9q0 -7 17 -10l62 -13q58 -11 58 -58q0 -57 -92 -101l-22 -11q-7 -3 -19 -11q-4 -6 -1 -28q2 -4 18 -21q-15 -6 -80 -40q-23 34 -23 64z" />
<glyph unicode="&#x1ed6;" horiz-adv-x="1385" d="M263 416q0 351 312 660q136 135 289 214l10 -13q-171 -96 -270 -221q-169 -214 -169 -469q0 -214 119 -370q126 -165 332 -165q243 0 405 237q131 191 131 424q0 249 -110 408q-99 144 -239 144q-125 0 -200 -133q-70 -124 -70 -258q0 -76 29 -195l-13 -4 q-51 136 -67 285q56 158 178 289q158 169 324 169q131 0 223 -112q108 -131 108 -370q0 -264 -149 -512q-144 -239 -376 -380q-187 -113 -377 -113q-149 0 -257 94q-163 141 -163 391zM1066 1495q145 89 211 198q56 17 109 36q13 -104 61 -218q-63 -27 -130 -46 q-34 91 -46 152q-78 -87 -163 -150zM1216 1799q54 85 70 104q51 60 104 60q25 0 60 -8l88 -20q13 -3 35 -3q36 0 77 48l18 -4q-47 -83 -60 -101q-46 -64 -90 -64q-22 0 -68 7l-98 15q-26 4 -43 4q-37 0 -75 -45z" />
<glyph unicode="&#x1ed7;" horiz-adv-x="689" d="M56 104q0 220 311 372q-46 28 -46 37q0 7 26 11q49 7 103 27q77 29 97 29q59 0 97 -62q35 -5 71 -6l10 -15q-29 -27 -58 -45q1 -37 1 -47q0 -162 -139 -297q-153 -149 -325 -149q-148 0 -148 145zM243 176q0 -57 32.5 -94.5t88.5 -37.5q66 0 99 54q46 75 46 174 q0 68 -30 162q-49 9 -91 29q-60 -53 -101 -130q-44 -83 -44 -157zM359 717q145 89 211 198q56 17 109 36q13 -104 61 -218q-63 -27 -130 -46q-34 91 -46 152q-78 -87 -163 -150zM509 1021q54 85 70 104q51 60 104 60q25 0 60 -8l88 -20q13 -3 35 -3q36 0 77 48l18 -4 q-47 -83 -60 -101q-46 -64 -90 -64q-22 0 -68 7l-98 15q-26 4 -43 4q-37 0 -75 -45z" />
<glyph unicode="&#x1ed8;" horiz-adv-x="1385" d="M263 416q0 351 312 660q136 135 289 214l10 -13q-171 -96 -270 -221q-169 -214 -169 -469q0 -214 119 -370q126 -165 332 -165q243 0 405 237q131 191 131 424q0 249 -110 408q-99 144 -239 144q-125 0 -200 -133q-70 -124 -70 -258q0 -76 29 -195l-13 -4 q-51 136 -67 285q56 158 178 289q158 169 324 169q131 0 223 -112q108 -131 108 -370q0 -264 -149 -512q-144 -239 -376 -380q-187 -113 -377 -113q-149 0 -257 94q-163 141 -163 391zM490 -258q0 36 25.5 62t62.5 26q38 1 63.5 -25t25.5 -64q0 -36 -26 -62t-62 -26 t-62.5 26.5t-26.5 62.5zM1066 1495q145 89 211 198q56 17 109 36q13 -104 61 -218q-63 -27 -130 -46q-34 91 -46 152q-78 -87 -163 -150z" />
<glyph unicode="&#x1ed9;" horiz-adv-x="689" d="M56 104q0 220 311 372q-46 28 -46 37q0 7 26 11q49 7 103 27q77 29 97 29q59 0 97 -62q35 -5 71 -6l10 -15q-29 -27 -58 -45q1 -37 1 -47q0 -162 -139 -297q-153 -149 -325 -149q-148 0 -148 145zM79 -258q0 36 25.5 62t62.5 26q38 1 63.5 -25t25.5 -64q0 -36 -26 -62 t-62 -26t-62.5 26.5t-26.5 62.5zM243 176q0 -57 32.5 -94.5t88.5 -37.5q66 0 99 54q46 75 46 174q0 68 -30 162q-49 9 -91 29q-60 -53 -101 -130q-44 -83 -44 -157zM359 717q145 89 211 198q56 17 109 36q13 -104 61 -218q-63 -27 -130 -46q-34 91 -46 152 q-78 -87 -163 -150z" />
<glyph unicode="&#x1eda;" horiz-adv-x="1385" d="M263 416q0 351 312 660q136 135 289 214l10 -13q-171 -96 -270 -221q-169 -214 -169 -469q0 -214 119 -370q126 -165 332 -165q243 0 405 237q131 191 131 424q0 249 -110 408q-99 144 -239 144q-125 0 -200 -133q-70 -124 -70 -258q0 -76 29 -195l-13 -4 q-51 136 -67 285q56 158 178 289q158 169 324 169q131 0 223 -112q24 -29 42 -63q62 45 62 92q0 38 -43 109l161 67q22 -45 22 -80q0 -100 -189 -214q53 -114 53 -281q0 -264 -149 -512q-144 -239 -376 -380q-187 -113 -377 -113q-149 0 -257 94q-163 141 -163 391z M1057 1454q146 52 185 213q98 9 196 30l9 -9q-48 -89 -167 -159q-103 -61 -217 -86z" />
<glyph unicode="&#x1edb;" horiz-adv-x="689" d="M49 104q0 220 311 372q-46 28 -46 37q0 7 26 11q49 7 103 27q77 29 97 29q59 0 97 -62q35 -5 71 -6l10 -15q-29 -27 -58 -45q1 -37 1 -47q0 -14 -1 -28q103 56 103 118q0 38 -43 109l161 67q22 -45 22 -80q0 -113 -247 -248q-22 -126 -134 -235q-153 -149 -325 -149 q-148 0 -148 145zM236 176q0 -57 32.5 -94.5t88.5 -37.5q66 0 99 54q46 75 46 174q0 68 -30 162q-49 9 -91 29q-60 -53 -101 -130q-44 -83 -44 -157zM387 703q122 52 154 213q82 9 163 30l8 -9q-39 -86 -134 -155q-87 -64 -186 -90z" />
<glyph unicode="&#x1edc;" horiz-adv-x="1385" d="M263 416q0 351 312 660q136 135 289 214l10 -13q-171 -96 -270 -221q-169 -214 -169 -469q0 -214 119 -370q126 -165 332 -165q243 0 405 237q131 191 131 424q0 249 -110 408q-99 144 -239 144q-125 0 -200 -133q-70 -124 -70 -258q0 -76 29 -195l-13 -4 q-51 136 -67 285q56 158 178 289q158 169 324 169q131 0 223 -112q24 -29 42 -63q62 45 62 92q0 38 -43 109l161 67q22 -45 22 -80q0 -100 -189 -214q53 -114 53 -281q0 -264 -149 -512q-144 -239 -376 -380q-187 -113 -377 -113q-149 0 -257 94q-163 141 -163 391z M1057 1715l10 9q98 -21 195 -30q40 -161 185 -213l-6 -11q-114 25 -217 86q-119 70 -167 159z" />
<glyph unicode="&#x1edd;" horiz-adv-x="689" d="M49 104q0 220 311 372q-46 28 -46 37q0 7 26 11q49 7 103 27q77 29 97 29q59 0 97 -62q35 -5 71 -6l10 -15q-29 -27 -58 -45q1 -37 1 -47q0 -14 -1 -28q103 56 103 118q0 38 -43 109l161 67q22 -45 22 -80q0 -113 -247 -248q-22 -126 -134 -235q-153 -149 -325 -149 q-148 0 -148 145zM236 176q0 -57 32.5 -94.5t88.5 -37.5q66 0 99 54q46 75 46 174q0 68 -30 162q-49 9 -91 29q-60 -53 -101 -130q-44 -83 -44 -157zM387 937l8 9q81 -21 163 -30q33 -161 154 -213l-5 -11q-99 26 -186 90q-95 69 -134 155z" />
<glyph unicode="&#x1ede;" horiz-adv-x="1385" d="M263 416q0 351 312 660q136 135 289 214l10 -13q-171 -96 -270 -221q-169 -214 -169 -469q0 -214 119 -370q126 -165 332 -165q243 0 405 237q131 191 131 424q0 249 -110 408q-99 144 -239 144q-125 0 -200 -133q-70 -124 -70 -258q0 -76 29 -195l-13 -4 q-51 136 -67 285q56 158 178 289q158 169 324 169q131 0 223 -112q24 -29 42 -63q62 45 62 92q0 38 -43 109l161 67q22 -45 22 -80q0 -100 -189 -214q53 -114 53 -281q0 -264 -149 -512q-144 -239 -376 -380q-187 -113 -377 -113q-149 0 -257 94q-163 141 -163 391z M1179 1525q0 22 15 32q10 7 42 17l29 10q45 14 45 44q0 35 -61 60l-28 11q-20 8 -20 15q0 20 62 52l2 -3q-4 -5 -4 -9q0 -7 17 -10l62 -13q58 -11 58 -58q0 -57 -92 -101l-22 -11q-7 -3 -19 -11q-4 -6 -1 -28q2 -4 18 -21q-15 -6 -80 -40q-23 34 -23 64z" />
<glyph unicode="&#x1edf;" horiz-adv-x="689" d="M49 104q0 220 311 372q-46 28 -46 37q0 7 26 11q49 7 103 27q77 29 97 29q59 0 97 -62q35 -5 71 -6l10 -15q-29 -27 -58 -45q1 -37 1 -47q0 -14 -1 -28q103 56 103 118q0 38 -43 109l161 67q22 -45 22 -80q0 -113 -247 -248q-22 -126 -134 -235q-153 -149 -325 -149 q-148 0 -148 145zM236 176q0 -57 32.5 -94.5t88.5 -37.5q66 0 99 54q46 75 46 174q0 68 -30 162q-49 9 -91 29q-60 -53 -101 -130q-44 -83 -44 -157zM533 755q0 22 15 32q10 7 42 17l29 10q45 14 45 44q0 35 -61 60l-28 11q-20 8 -20 15q0 20 62 52l2 -3q-4 -5 -4 -9 q0 -7 17 -10l62 -13q58 -11 58 -58q0 -57 -92 -101l-22 -11q-7 -3 -19 -11q-4 -6 -1 -28q2 -4 18 -21q-15 -6 -80 -40q-23 34 -23 64z" />
<glyph unicode="&#x1ee0;" horiz-adv-x="1385" d="M263 416q0 351 312 660q136 135 289 214l10 -13q-171 -96 -270 -221q-169 -214 -169 -469q0 -214 119 -370q126 -165 332 -165q243 0 405 237q131 191 131 424q0 249 -110 408q-99 144 -239 144q-125 0 -200 -133q-70 -124 -70 -258q0 -76 29 -195l-13 -4 q-51 136 -67 285q56 158 178 289q158 169 324 169q131 0 223 -112q24 -29 42 -63q62 45 62 92q0 38 -43 109l161 67q22 -45 22 -80q0 -100 -189 -214q53 -114 53 -281q0 -264 -149 -512q-144 -239 -376 -380q-187 -113 -377 -113q-149 0 -257 94q-163 141 -163 391z M981 1497q65 85 88 107q59 57 121 57q30 0 72 -8l105 -20q16 -3 43 -3q42 0 91 48l22 -4q-55 -82 -74 -104q-54 -61 -106 -61q-37 0 -81 6l-118 16q-30 4 -51 4q-45 0 -90 -45z" />
<glyph unicode="&#x1ee1;" horiz-adv-x="689" d="M49 104q0 220 311 372q-46 28 -46 37q0 7 26 11q49 7 103 27q77 29 97 29q59 0 97 -62q35 -5 71 -6l10 -15q-29 -27 -58 -45q1 -37 1 -47q0 -14 -1 -28q103 56 103 118q0 38 -43 109l161 67q22 -45 22 -80q0 -113 -247 -248q-22 -126 -134 -235q-153 -149 -325 -149 q-148 0 -148 145zM236 176q0 -57 32.5 -94.5t88.5 -37.5q66 0 99 54q46 75 46 174q0 68 -30 162q-49 9 -91 29q-60 -53 -101 -130q-44 -83 -44 -157zM323 732q54 85 70 104q51 60 104 60q25 0 60 -8l88 -20q13 -3 35 -3q36 0 77 48l18 -4q-47 -83 -60 -101q-46 -64 -90 -64 q-22 0 -68 7l-98 15q-26 4 -43 4q-37 0 -75 -45z" />
<glyph unicode="&#x1ee2;" horiz-adv-x="1385" d="M263 416q0 351 312 660q136 135 289 214l10 -13q-171 -96 -270 -221q-169 -214 -169 -469q0 -214 119 -370q126 -165 332 -165q243 0 405 237q131 191 131 424q0 249 -110 408q-99 144 -239 144q-125 0 -200 -133q-70 -124 -70 -258q0 -76 29 -195l-13 -4 q-51 136 -67 285q56 158 178 289q158 169 324 169q131 0 223 -112q24 -29 42 -63q62 45 62 92q0 38 -43 109l161 67q22 -45 22 -80q0 -100 -189 -214q53 -114 53 -281q0 -264 -149 -512q-144 -239 -376 -380q-187 -113 -377 -113q-149 0 -257 94q-163 141 -163 391z M490 -258q0 36 25.5 62t62.5 26q38 1 63.5 -25t25.5 -64q0 -36 -26 -62t-62 -26t-62.5 26.5t-26.5 62.5z" />
<glyph unicode="&#x1ee3;" horiz-adv-x="689" d="M49 104q0 220 311 372q-46 28 -46 37q0 7 26 11q49 7 103 27q77 29 97 29q59 0 97 -62q35 -5 71 -6l10 -15q-29 -27 -58 -45q1 -37 1 -47q0 -14 -1 -28q103 56 103 118q0 38 -43 109l161 67q22 -45 22 -80q0 -113 -247 -248q-22 -126 -134 -235q-153 -149 -325 -149 q-148 0 -148 145zM79 -258q0 36 25.5 62t62.5 26q38 1 63.5 -25t25.5 -64q0 -36 -26 -62t-62 -26t-62.5 26.5t-26.5 62.5zM236 176q0 -57 32.5 -94.5t88.5 -37.5q66 0 99 54q46 75 46 174q0 68 -30 162q-49 9 -91 29q-60 -53 -101 -130q-44 -83 -44 -157z" />
<glyph unicode="&#x1ee4;" horiz-adv-x="1824" d="M301 1128q319 254 611 254q104 0 171 -54q73 -59 73 -160q0 -99 -66 -259q-39 -93 -214 -423l-83 -156q-72 -135 -72 -182q0 -63 69 -63q234 0 564 611l168 311q67 125 108 173q50 59 156 131l76 58q63 48 73 48q30 0 30 -51q0 -66 -69 -254q-48 -123 -96 -247l-83 -216 q-141 -367 -141 -454q0 -109 172 -109q81 0 203 28l2 -23q-307 -109 -447 -109q-145 0 -145 123q0 76 70 261l300 791q20 53 20 68q0 13 -12 13q-28 0 -98 -142l-62 -125q-147 -297 -287 -498q-232 -333 -504 -457q-120 -55 -208 -55q-90 0 -90 82q0 54 78 203l130 249 q121 232 146 287q87 193 87 306q0 98 -58 153.5t-156 55.5q-192 0 -410 -232zM863 -258q0 36 25.5 62t62.5 26q38 1 63.5 -25t25.5 -64q0 -36 -26 -62t-62 -26t-62.5 26.5t-26.5 62.5z" />
<glyph unicode="&#x1ee5;" horiz-adv-x="800" d="M78 41q0 41 32 120l147 362q92 18 192 45l-150 -344q-34 -78 -34 -103q0 -39 51 -39q121 0 307 438q93 21 185 45l-134 -315q-42 -99 -42 -128q0 -56 86 -56q32 0 109 18l5 -13q-233 -98 -307 -98t-74 66q0 26 22 76l43 97q-105 -113 -182 -166q-106 -73 -194 -73 q-62 0 -62 68zM180 -258q0 36 25.5 62t62.5 26q38 1 63.5 -25t25.5 -64q0 -36 -26 -62t-62 -26t-62.5 26.5t-26.5 62.5z" />
<glyph unicode="&#x1ee6;" horiz-adv-x="1824" d="M301 1128q319 254 611 254q104 0 171 -54q73 -59 73 -160q0 -99 -66 -259q-39 -93 -214 -423l-83 -156q-72 -135 -72 -182q0 -63 69 -63q234 0 564 611l168 311q67 125 108 173q50 59 156 131l76 58q63 48 73 48q30 0 30 -51q0 -66 -69 -254q-48 -123 -96 -247l-83 -216 q-141 -367 -141 -454q0 -109 172 -109q81 0 203 28l2 -23q-307 -109 -447 -109q-145 0 -145 123q0 76 70 261l300 791q20 53 20 68q0 13 -12 13q-28 0 -98 -142l-62 -125q-147 -297 -287 -498q-232 -333 -504 -457q-120 -55 -208 -55q-90 0 -90 82q0 54 78 203l130 249 q121 232 146 287q87 193 87 306q0 98 -58 153.5t-156 55.5q-192 0 -410 -232zM1405 1525q0 22 15 32q10 7 42 17l29 10q45 14 45 44q0 35 -61 60l-28 11q-20 8 -20 15q0 20 62 52l2 -3q-4 -5 -4 -9q0 -7 17 -10l62 -13q58 -11 58 -58q0 -57 -92 -101l-22 -11q-7 -3 -19 -11 q-4 -6 -1 -28q2 -4 18 -21q-15 -6 -80 -40q-23 34 -23 64z" />
<glyph unicode="&#x1ee7;" horiz-adv-x="800" d="M78 41q0 41 32 120l147 362q92 18 192 45l-150 -344q-34 -78 -34 -103q0 -39 51 -39q121 0 307 438q93 21 185 45l-134 -315q-42 -99 -42 -128q0 -56 86 -56q32 0 109 18l5 -13q-233 -98 -307 -98t-74 66q0 26 22 76l43 97q-105 -113 -182 -166q-106 -73 -194 -73 q-62 0 -62 68zM533 755q0 22 15 32q10 7 42 17l29 10q45 14 45 44q0 35 -61 60l-28 11q-20 8 -20 15q0 20 62 52l2 -3q-4 -5 -4 -9q0 -7 17 -10l62 -13q58 -11 58 -58q0 -57 -92 -101l-22 -11q-7 -3 -19 -11q-4 -6 -1 -28q2 -4 18 -21q-15 -6 -80 -40q-23 34 -23 64z" />
<glyph unicode="&#x1ee8;" horiz-adv-x="1824" d="M301 1128q319 254 611 254q104 0 171 -54q73 -59 73 -160q0 -99 -66 -259q-39 -93 -214 -423l-83 -156q-72 -135 -72 -182q0 -63 69 -63q234 0 564 611l168 311q67 125 108 173q50 59 156 131l76 58q63 48 73 48q30 0 30 -51q0 -47 -29 -136q83 51 83 105q0 38 -43 109 l161 67q22 -45 22 -80q0 -110 -236 -241q-24 -68 -123 -325l-83 -216q-141 -367 -141 -454q0 -109 172 -109q81 0 203 28l2 -23q-307 -109 -447 -109q-145 0 -145 123q0 76 70 261l300 791q20 53 20 68q0 13 -12 13q-28 0 -98 -142l-62 -125q-147 -297 -287 -498 q-232 -333 -504 -457q-120 -55 -208 -55q-90 0 -90 82q0 54 78 203l130 249q121 232 146 287q87 193 87 306q0 98 -58 153.5t-156 55.5q-192 0 -410 -232zM1276 1454q146 52 185 213q98 9 196 30l9 -9q-48 -89 -167 -159q-103 -61 -217 -86z" />
<glyph unicode="&#x1ee9;" horiz-adv-x="800" d="M78 41q0 41 32 120l147 362q92 18 192 45l-150 -344q-34 -78 -34 -103q0 -39 51 -39q121 0 307 438q86 19 171 41q-10 20 -23 43l161 67q22 -45 22 -80q0 -111 -238 -243l-42 -98q-42 -99 -42 -128q0 -56 86 -56q32 0 109 18l5 -13q-233 -98 -307 -98t-74 66q0 26 22 76 l43 97q-105 -113 -182 -166q-106 -73 -194 -73q-62 0 -62 68zM469 703q122 52 154 213q82 9 163 30l8 -9q-39 -86 -134 -155q-87 -64 -186 -90zM734 391q80 50 80 104q0 21 -14 52z" />
<glyph unicode="&#x1eea;" horiz-adv-x="1824" d="M301 1128q319 254 611 254q104 0 171 -54q73 -59 73 -160q0 -99 -66 -259q-39 -93 -214 -423l-83 -156q-72 -135 -72 -182q0 -63 69 -63q234 0 564 611l168 311q67 125 108 173q50 59 156 131l76 58q63 48 73 48q30 0 30 -51q0 -47 -29 -136q83 51 83 105q0 38 -43 109 l161 67q22 -45 22 -80q0 -110 -236 -241q-24 -68 -123 -325l-83 -216q-141 -367 -141 -454q0 -109 172 -109q81 0 203 28l2 -23q-307 -109 -447 -109q-145 0 -145 123q0 76 70 261l300 791q20 53 20 68q0 13 -12 13q-28 0 -98 -142l-62 -125q-147 -297 -287 -498 q-232 -333 -504 -457q-120 -55 -208 -55q-90 0 -90 82q0 54 78 203l130 249q121 232 146 287q87 193 87 306q0 98 -58 153.5t-156 55.5q-192 0 -410 -232zM1276 1688l10 9q98 -21 195 -30q40 -161 185 -213l-6 -11q-114 25 -217 86q-119 70 -167 159z" />
<glyph unicode="&#x1eeb;" horiz-adv-x="800" d="M78 41q0 41 32 120l147 362q92 18 192 45l-150 -344q-34 -78 -34 -103q0 -39 51 -39q121 0 307 438q86 19 171 41q-10 20 -23 43l161 67q22 -45 22 -80q0 -111 -238 -243l-42 -98q-42 -99 -42 -128q0 -56 86 -56q32 0 109 18l5 -13q-233 -98 -307 -98t-74 66q0 26 22 76 l43 97q-105 -113 -182 -166q-106 -73 -194 -73q-62 0 -62 68zM470 937l8 9q81 -21 163 -30q33 -161 154 -213l-5 -11q-99 26 -186 90q-95 69 -134 155zM734 391q80 50 80 104q0 21 -14 52z" />
<glyph unicode="&#x1eec;" horiz-adv-x="1824" d="M301 1128q319 254 611 254q104 0 171 -54q73 -59 73 -160q0 -99 -66 -259q-39 -93 -214 -423l-83 -156q-72 -135 -72 -182q0 -63 69 -63q234 0 564 611l168 311q67 125 108 173q50 59 156 131l76 58q63 48 73 48q30 0 30 -51q0 -47 -29 -136q83 51 83 105q0 38 -43 109 l161 67q22 -45 22 -80q0 -110 -236 -241q-24 -68 -123 -325l-83 -216q-141 -367 -141 -454q0 -109 172 -109q81 0 203 28l2 -23q-307 -109 -447 -109q-145 0 -145 123q0 76 70 261l300 791q20 53 20 68q0 13 -12 13q-28 0 -98 -142l-62 -125q-147 -297 -287 -498 q-232 -333 -504 -457q-120 -55 -208 -55q-90 0 -90 82q0 54 78 203l130 249q121 232 146 287q87 193 87 306q0 98 -58 153.5t-156 55.5q-192 0 -410 -232zM1405 1525q0 22 15 32q10 7 42 17l29 10q45 14 45 44q0 35 -61 60l-28 11q-20 8 -20 15q0 20 62 52l2 -3q-4 -5 -4 -9 q0 -7 17 -10l62 -13q58 -11 58 -58q0 -57 -92 -101l-22 -11q-7 -3 -19 -11q-4 -6 -1 -28q2 -4 18 -21q-15 -6 -80 -40q-23 34 -23 64z" />
<glyph unicode="&#x1eed;" horiz-adv-x="800" d="M78 41q0 41 32 120l147 362q92 18 192 45l-150 -344q-34 -78 -34 -103q0 -39 51 -39q121 0 307 438q86 19 171 41q-10 20 -23 43l161 67q22 -45 22 -80q0 -111 -238 -243l-42 -98q-42 -99 -42 -128q0 -56 86 -56q32 0 109 18l5 -13q-233 -98 -307 -98t-74 66q0 26 22 76 l43 97q-105 -113 -182 -166q-106 -73 -194 -73q-62 0 -62 68zM533 755q0 22 15 32q10 7 42 17l29 10q45 14 45 44q0 35 -61 60l-28 11q-20 8 -20 15q0 20 62 52l2 -3q-4 -5 -4 -9q0 -7 17 -10l62 -13q58 -11 58 -58q0 -57 -92 -101l-22 -11q-7 -3 -19 -11q-4 -6 -1 -28 q2 -4 18 -21q-15 -6 -80 -40q-23 34 -23 64zM734 391q80 50 80 104q0 21 -14 52z" />
<glyph unicode="&#x1eee;" horiz-adv-x="1824" d="M301 1128q319 254 611 254q104 0 171 -54q73 -59 73 -160q0 -99 -66 -259q-39 -93 -214 -423l-83 -156q-72 -135 -72 -182q0 -63 69 -63q234 0 564 611l168 311q67 125 108 173q50 59 156 131l76 58q63 48 73 48q30 0 30 -51q0 -47 -29 -136q83 51 83 105q0 38 -43 109 l161 67q22 -45 22 -80q0 -110 -236 -241q-24 -68 -123 -325l-83 -216q-141 -367 -141 -454q0 -109 172 -109q81 0 203 28l2 -23q-307 -109 -447 -109q-145 0 -145 123q0 76 70 261l300 791q20 53 20 68q0 13 -12 13q-28 0 -98 -142l-62 -125q-147 -297 -287 -498 q-232 -333 -504 -457q-120 -55 -208 -55q-90 0 -90 82q0 54 78 203l130 249q121 232 146 287q87 193 87 306q0 98 -58 153.5t-156 55.5q-192 0 -410 -232zM1241 1497q65 85 88 107q59 57 121 57q30 0 72 -8l105 -20q16 -3 43 -3q42 0 91 48l22 -4q-55 -82 -74 -104 q-54 -61 -106 -61q-37 0 -81 6l-118 16q-30 4 -51 4q-45 0 -90 -45z" />
<glyph unicode="&#x1eef;" horiz-adv-x="800" d="M78 41q0 41 32 120l147 362q92 18 192 45l-150 -344q-34 -78 -34 -103q0 -39 51 -39q121 0 307 438q86 19 171 41q-10 20 -23 43l161 67q22 -45 22 -80q0 -111 -238 -243l-42 -98q-42 -99 -42 -128q0 -56 86 -56q32 0 109 18l5 -13q-233 -98 -307 -98t-74 66q0 26 22 76 l43 97q-105 -113 -182 -166q-106 -73 -194 -73q-62 0 -62 68zM391 732q54 85 70 104q51 60 104 60q25 0 60 -8l88 -20q13 -3 35 -3q36 0 77 48l18 -4q-47 -83 -60 -101q-46 -64 -90 -64q-22 0 -68 7l-98 15q-26 4 -43 4q-37 0 -75 -45zM734 391q80 50 80 104q0 21 -14 52z " />
<glyph unicode="&#x1ef0;" horiz-adv-x="1824" d="M301 1128q319 254 611 254q104 0 171 -54q73 -59 73 -160q0 -99 -66 -259q-39 -93 -214 -423l-83 -156q-72 -135 -72 -182q0 -63 69 -63q234 0 564 611l168 311q67 125 108 173q50 59 156 131l76 58q63 48 73 48q30 0 30 -51q0 -47 -29 -136q83 51 83 105q0 38 -43 109 l161 67q22 -45 22 -80q0 -110 -236 -241q-24 -68 -123 -325l-83 -216q-141 -367 -141 -454q0 -109 172 -109q81 0 203 28l2 -23q-307 -109 -447 -109q-145 0 -145 123q0 76 70 261l300 791q20 53 20 68q0 13 -12 13q-28 0 -98 -142l-62 -125q-147 -297 -287 -498 q-232 -333 -504 -457q-120 -55 -208 -55q-90 0 -90 82q0 54 78 203l130 249q121 232 146 287q87 193 87 306q0 98 -58 153.5t-156 55.5q-192 0 -410 -232zM863 -258q0 36 25.5 62t62.5 26q38 1 63.5 -25t25.5 -64q0 -36 -26 -62t-62 -26t-62.5 26.5t-26.5 62.5z" />
<glyph unicode="&#x1ef1;" horiz-adv-x="800" d="M78 41q0 41 32 120l147 362q92 18 192 45l-150 -344q-34 -78 -34 -103q0 -39 51 -39q121 0 307 438q86 19 171 41q-10 20 -23 43l161 67q22 -45 22 -80q0 -111 -238 -243l-42 -98q-42 -99 -42 -128q0 -56 86 -56q32 0 109 18l5 -13q-233 -98 -307 -98t-74 66q0 26 22 76 l43 97q-105 -113 -182 -166q-106 -73 -194 -73q-62 0 -62 68zM180 -258q0 36 25.5 62t62.5 26q38 1 63.5 -25t25.5 -64q0 -36 -26 -62t-62 -26t-62.5 26.5t-26.5 62.5zM734 391q80 50 80 104q0 21 -14 52z" />
<glyph unicode="&#x1ef2;" horiz-adv-x="1407" d="M8 -294q0 11 25 30q8 6 52 45q96 85 168 85q29 0 74 -10q27 11 108 42l227 86l256 93q72 26 142 56l122 373q-128 -167 -234 -240q-133 -92 -263 -92q-268 0 -268 323q0 80 10 179l17 168q17 168 17 276q0 113 -38 203q114 48 223 106q27 -19 27 -129q0 -61 -23 -265 l-17 -151q-25 -222 -25 -329q0 -162 69 -231q57 -57 143 -57q125 0 241 142q86 105 178 375l195 570q108 32 215 69l-9 -26q-82 -236 -249 -744l-65 -210q-46 -150 -90 -248q213 76 368 103l5 -20q-179 -38 -388 -116q-89 -178 -279 -307q-276 -187 -523 -187 q-114 0 -205 25q-85 -21 -135 -21q-71 0 -71 34zM469 -177q129 -33 216 -33q244 0 360 299q-382 -146 -576 -266zM873 1715l10 9q98 -21 195 -30q40 -161 185 -213l-6 -11q-114 25 -217 86q-119 70 -167 159z" />
<glyph unicode="&#x1ef3;" horiz-adv-x="752" d="M62 20q0 28 19 80l155 424q96 23 193 51l-158 -402q-19 -48 -19 -68q0 -39 39 -39q81 0 186 191q65 119 117 260q88 25 185 56l-256 -721q69 39 134 71l4 -11q-134 -110 -224 -298q-84 -21 -165 -51l214 631q-216 -238 -358 -238q-66 0 -66 64zM387 937l8 9 q81 -21 163 -30q33 -161 154 -213l-5 -11q-99 26 -186 90q-95 69 -134 155z" />
<glyph unicode="&#x1ef4;" horiz-adv-x="1407" d="M8 -294q0 11 25 30q8 6 52 45q96 85 168 85q29 0 74 -10q27 11 108 42l227 86l256 93q72 26 142 56l122 373q-128 -167 -234 -240q-133 -92 -263 -92q-268 0 -268 323q0 80 10 179l17 168q17 168 17 276q0 113 -38 203q114 48 223 106q27 -19 27 -129q0 -61 -23 -265 l-17 -151q-25 -222 -25 -329q0 -162 69 -231q57 -57 143 -57q125 0 241 142q86 105 178 375l195 570q108 32 215 69l-9 -26q-82 -236 -249 -744l-65 -210q-46 -150 -90 -248q213 76 368 103l5 -20q-179 -38 -388 -116q-89 -178 -279 -307q-276 -187 -523 -187 q-114 0 -205 25q-85 -21 -135 -21q-71 0 -71 34zM469 -177q129 -33 216 -33q244 0 360 299q-382 -146 -576 -266zM914 -258q0 36 25.5 62t62.5 26q38 1 63.5 -25t25.5 -64q0 -36 -26 -62t-62 -26t-62.5 26.5t-26.5 62.5z" />
<glyph unicode="&#x1ef5;" horiz-adv-x="752" d="M62 20q0 28 19 80l155 424q96 23 193 51l-158 -402q-19 -48 -19 -68q0 -39 39 -39q81 0 186 191q65 119 117 260q88 25 185 56l-256 -721q69 39 134 71l4 -11q-134 -110 -224 -298q-84 -21 -165 -51l214 631q-216 -238 -358 -238q-66 0 -66 64zM87 -258q0 36 25.5 62 t62.5 26q38 1 63.5 -25t25.5 -64q0 -36 -26 -62t-62 -26t-62.5 26.5t-26.5 62.5z" />
<glyph unicode="&#x1ef6;" horiz-adv-x="1407" d="M8 -294q0 11 25 30q8 6 52 45q96 85 168 85q29 0 74 -10q27 11 108 42l227 86l256 93q72 26 142 56l122 373q-128 -167 -234 -240q-133 -92 -263 -92q-268 0 -268 323q0 80 10 179l17 168q17 168 17 276q0 113 -38 203q114 48 223 106q27 -19 27 -129q0 -61 -23 -265 l-17 -151q-25 -222 -25 -329q0 -162 69 -231q57 -57 143 -57q125 0 241 142q86 105 178 375l195 570q108 32 215 69l-9 -26q-82 -236 -249 -744l-65 -210q-46 -150 -90 -248q213 76 368 103l5 -20q-179 -38 -388 -116q-89 -178 -279 -307q-276 -187 -523 -187 q-114 0 -205 25q-85 -21 -135 -21q-71 0 -71 34zM469 -177q129 -33 216 -33q244 0 360 299q-382 -146 -576 -266zM1026 1525q0 22 15 32q10 7 42 17l29 10q45 14 45 44q0 35 -61 60l-28 11q-20 8 -20 15q0 20 62 52l2 -3q-4 -5 -4 -9q0 -7 17 -10l62 -13q58 -11 58 -58 q0 -57 -92 -101l-22 -11q-7 -3 -19 -11q-4 -6 -1 -28q2 -4 18 -21q-15 -6 -80 -40q-23 34 -23 64z" />
<glyph unicode="&#x1ef7;" horiz-adv-x="752" d="M62 20q0 28 19 80l155 424q96 23 193 51l-158 -402q-19 -48 -19 -68q0 -39 39 -39q81 0 186 191q65 119 117 260q88 25 185 56l-256 -721q69 39 134 71l4 -11q-134 -110 -224 -298q-84 -21 -165 -51l214 631q-216 -238 -358 -238q-66 0 -66 64zM500 755q0 22 15 32 q10 7 42 17l29 10q45 14 45 44q0 35 -61 60l-28 11q-20 8 -20 15q0 20 62 52l2 -3q-4 -5 -4 -9q0 -7 17 -10l62 -13q58 -11 58 -58q0 -57 -92 -101l-22 -11q-7 -3 -19 -11q-4 -6 -1 -28q2 -4 18 -21q-15 -6 -80 -40q-23 34 -23 64z" />
<glyph unicode="&#x1ef8;" horiz-adv-x="1407" d="M8 -294q0 11 25 30q8 6 52 45q96 85 168 85q29 0 74 -10q27 11 108 42l227 86l256 93q72 26 142 56l122 373q-128 -167 -234 -240q-133 -92 -263 -92q-268 0 -268 323q0 80 10 179l17 168q17 168 17 276q0 113 -38 203q114 48 223 106q27 -19 27 -129q0 -61 -23 -265 l-17 -151q-25 -222 -25 -329q0 -162 69 -231q57 -57 143 -57q125 0 241 142q86 105 178 375l195 570q108 32 215 69l-9 -26q-82 -236 -249 -744l-65 -210q-46 -150 -90 -248q213 76 368 103l5 -20q-179 -38 -388 -116q-89 -178 -279 -307q-276 -187 -523 -187 q-114 0 -205 25q-85 -21 -135 -21q-71 0 -71 34zM469 -177q129 -33 216 -33q244 0 360 299q-382 -146 -576 -266zM866 1497q65 85 88 107q59 57 121 57q30 0 72 -8l105 -20q16 -3 43 -3q42 0 91 48l22 -4q-55 -82 -74 -104q-54 -61 -106 -61q-37 0 -81 6l-118 16 q-30 4 -51 4q-45 0 -90 -45z" />
<glyph unicode="&#x1ef9;" horiz-adv-x="752" d="M62 20q0 28 19 80l155 424q96 23 193 51l-158 -402q-19 -48 -19 -68q0 -39 39 -39q81 0 186 191q65 119 117 260q88 25 185 56l-256 -721q69 39 134 71l4 -11q-134 -110 -224 -298q-84 -21 -165 -51l214 631q-216 -238 -358 -238q-66 0 -66 64zM343 732q54 85 70 104 q51 60 104 60q25 0 60 -8l88 -20q13 -3 35 -3q36 0 77 48l18 -4q-47 -83 -60 -101q-46 -64 -90 -64q-22 0 -68 7l-98 15q-26 4 -43 4q-37 0 -75 -45z" />
<glyph unicode="&#x2000;" horiz-adv-x="1030" />
<glyph unicode="&#x2001;" horiz-adv-x="2060" />
<glyph unicode="&#x2002;" horiz-adv-x="1030" />
<glyph unicode="&#x2003;" horiz-adv-x="2060" />
<glyph unicode="&#x2004;" horiz-adv-x="686" />
<glyph unicode="&#x2005;" horiz-adv-x="515" />
<glyph unicode="&#x2006;" horiz-adv-x="343" />
<glyph unicode="&#x2007;" horiz-adv-x="343" />
<glyph unicode="&#x2008;" horiz-adv-x="257" />
<glyph unicode="&#x2009;" horiz-adv-x="412" />
<glyph unicode="&#x200a;" horiz-adv-x="114" />
<glyph unicode="&#x2010;" horiz-adv-x="342" d="M96 489q33 45 65 94q47 -11 155 -11q69 0 138 -2l6 -21q-31 -45 -65 -95q-99 12 -216 12q-35 0 -78 -2z" />
<glyph unicode="&#x2011;" horiz-adv-x="342" d="M96 489q33 45 65 94q47 -11 155 -11q69 0 138 -2l6 -21q-31 -45 -65 -95q-99 12 -216 12q-35 0 -78 -2z" />
<glyph unicode="&#x2012;" horiz-adv-x="342" d="M96 489q33 45 65 94q47 -11 155 -11q69 0 138 -2l6 -21q-31 -45 -65 -95q-99 12 -216 12q-35 0 -78 -2z" />
<glyph unicode="&#x2013;" horiz-adv-x="1092" d="M246 489q33 45 65 94q51 -11 151 -11h455q79 0 142 -2l6 -21q-31 -45 -65 -95q-85 10 -133 10l-587 1q-7 0 -29 -1z" />
<glyph unicode="&#x2014;" horiz-adv-x="1406" d="M246 489q33 45 65 94q51 -11 151 -11h769q79 0 142 -2l6 -21q-31 -45 -64 -95q-86 10 -134 10l-901 1q-7 0 -29 -1z" />
<glyph unicode="&#x2018;" horiz-adv-x="334" d="M382 1092q0 121 294 273l26 -23q-180 -72 -180 -153q0 -38 43 -109l-161 -67q-22 44 -22 79z" />
<glyph unicode="&#x2019;" horiz-adv-x="361" d="M328 1036q180 72 180 153q0 38 -43 109l161 67q22 -45 22 -80q0 -122 -294 -272z" />
<glyph unicode="&#x201c;" horiz-adv-x="634" d="M396 1092q0 121 294 273l26 -23q-180 -72 -180 -153q0 -39 44 -109l-162 -67q-22 44 -22 79zM648 1092q0 122 295 273l25 -23q-180 -72 -180 -153q0 -39 44 -109l-162 -67q-22 45 -22 79z" />
<glyph unicode="&#x201d;" horiz-adv-x="654" d="M352 1036q180 72 180 153q0 38 -43 109l161 67q22 -45 22 -80q0 -122 -294 -272zM604 1036q181 72 181 153q0 39 -44 109l161 67q23 -45 23 -80q0 -121 -295 -272z" />
<glyph unicode="&#x2026;" horiz-adv-x="942" d="M27 62q0 36 25.5 62t62.5 26q38 1 63.5 -25t25.5 -64q0 -36 -26 -62t-62 -26t-62.5 26.5t-26.5 62.5zM341 62q0 37 26 62.5t63 25.5t62.5 -25.5t25.5 -63.5q0 -36 -26 -62t-62 -26t-62.5 26.5t-26.5 62.5zM655 62q0 37 25.5 62t63.5 26q37 0 62.5 -25.5t25.5 -63.5 q0 -36 -26 -62t-62 -26q-37 0 -63 26t-26 63z" />
<glyph unicode="&#x202f;" horiz-adv-x="412" />
<glyph unicode="&#x205f;" horiz-adv-x="515" />
<glyph unicode="&#x25fc;" horiz-adv-x="575" d="M0 0v575h575v-575h-575z" />
</font>
</defs>
</svg>
